<svg xmlns="http://www.w3.org/2000/svg" width="146" height="38" fill="none">
<g fill="#007c8c"><path d="M136.998 18.858c-4.467 0-7.209-2.821-7.209-6.686 0-3.996 3.004-6.843 7.209-6.843 4.1 0 7.287 2.847 7.287 6.843 0 3.865-3.082 6.686-7.287 6.686zm0-2.56c3.082 0 4.362-1.959 4.362-4.101 0-2.429-1.672-4.31-4.362-4.31-2.795 0-4.284 1.881-4.284 4.31 0 2.142 1.228 4.101 4.284 4.101zm-14.737 2.559c-3.656 0-5.537-1.88-5.537-5.563V7.888h-2.716V5.589h2.716V1.672h3.004l.026 2.925v.992h7.94v2.298h-7.992v5.407c0 2.116.862 3.004 2.638 3.004 1.619 0 2.559-1.149 2.559-2.533h2.795c0 2.716-1.985 5.093-5.433 5.093zm-18.451.001c-3.317 0-5.825-2.298-5.825-6.086V5.589h3.265v6.608c0 2.769 1.411 4.101 3.683 4.101 2.821 0 4.048-2.795 4.074-5.772l.026-4.936h3.004v13.059h-2.977l.052-2.873c0-.104-.079-.157-.209-.157s-.183.026-.209.104c-.575 1.75-2.011 3.134-4.884 3.134zm-19.196 0c-3.291 0-6.974-1.933-6.974-6.582 0-4.153 3.213-6.947 6.974-6.947 3.63 0 5.537 2.481 6.112 3.918.026.078.104.104.235.104s.183-.052.183-.157l-.052-3.604h2.978v13.059h-2.925v-3.735c0-.104-.052-.157-.183-.157s-.209.026-.235.104c-.862 2.612-3.683 3.996-6.112 3.996zm.105-2.56c2.429 0 4.388-1.567 4.388-4.101 0-2.664-2.063-4.31-4.388-4.31-2.298 0-4.257 1.854-4.257 4.31s1.959 4.101 4.257 4.101zM76.078.287l-.601 1.985-.783 2.116-.862 2.011h-2.795l.366-1.619.34-1.672.313-1.645L72.317 0h3.578l.183.287zM62.397 18.858c-4.127 0-6.869-2.821-6.869-6.686 0-3.996 3.03-6.843 7.026-6.843 3.709 0 6.53 2.011 6.869 5.642h-2.925c-.418-1.828-1.724-3.082-3.892-3.082-2.716 0-4.205 1.881-4.205 4.31 0 2.142 1.28 4.101 4.153 4.101 2.22 0 3.683-1.201 3.944-2.977h2.925c-.418 3.291-2.821 5.537-7.026 5.537zm-16.253 0c-4.466 0-7.209-2.821-7.209-6.686 0-3.996 3.004-6.843 7.209-6.843 4.101 0 7.287 2.847 7.287 6.843 0 3.865-3.082 6.686-7.287 6.686zm0-2.56c3.082 0 4.362-1.959 4.362-4.101 0-2.429-1.672-4.31-4.362-4.31-2.795 0-4.283 1.881-4.283 4.31 0 2.142 1.228 4.101 4.283 4.101zm-12.919 2.351V1.672h2.977v16.977h-2.977zm-10.036.209c-4.466 0-7.209-2.821-7.209-6.686 0-3.996 3.004-6.843 7.209-6.843 4.101 0 7.287 2.847 7.287 6.843 0 3.865-3.082 6.686-7.287 6.686zm0-2.56c3.082 0 4.362-1.959 4.362-4.101 0-2.429-1.671-4.31-4.362-4.31-2.795 0-4.283 1.881-4.283 4.31 0 2.142 1.228 4.101 4.284 4.101zm-16.32 2.56C2.742 18.858 0 16.037 0 12.171c0-3.996 3.03-6.843 7.026-6.843 3.709 0 6.53 2.011 6.869 5.642H10.97c-.418-1.828-1.724-3.082-3.892-3.082-2.716 0-4.205 1.881-4.205 4.31 0 2.142 1.28 4.101 4.153 4.101 2.22 0 3.683-1.201 3.944-2.977h2.925c-.418 3.291-2.821 5.537-7.026 5.537zm60.956 8.739h1.78v1.754c0 .067.053.093.12.093s.12-.026.12-.066c.345-1.076 1.382-1.94 3.162-1.94 1.408 0 2.551.704 3.136 1.913.026.067.053.093.119.093s.12-.026.12-.066c.345-1.076 1.475-1.94 3.255-1.94 2.179 0 3.787 1.475 3.787 3.787v4.358H81.39V31.53c0-1.541-.585-2.551-2.033-2.551-1.634 0-2.83 1.501-2.83 3.255v3.348h-2.033v-3.893c0-1.687-.678-2.697-2.086-2.697-1.727 0-2.79 1.687-2.79 3.507v3.069h-1.873v-7.985h.08v.013zm16.276 4.026c0-2.431 1.847-4.185 4.398-4.185 2.511 0 4.451 1.727 4.451 4.185 0 2.365-1.9 4.092-4.451 4.092-2.71.013-4.398-1.727-4.398-4.092zm7.095.027c0-1.475-1.036-2.644-2.671-2.644-1.714 0-2.617 1.143-2.617 2.644 0 1.315.744 2.511 2.617 2.511s2.671-1.196 2.671-2.511zm4.423 1.62c-.027-.053-.066-.066-.146-.066-.066 0-.12.027-.12.093v2.299h-1.78v-10.39h1.82l-.027 4.61c0 .067.027.093.12.093.066 0 .12-.026.146-.066.345-.89 1.528-2.392 3.747-2.392 2.299 0 4.265 1.568 4.265 4.092 0 2.976-2.245 4.172-4.265 4.172-1.488.013-3.215-.85-3.76-2.445zm6.298-1.74c0-1.501-1.196-2.551-2.604-2.551-1.422 0-2.697 1.01-2.697 2.644 0 1.541 1.196 2.511 2.697 2.511 1.421.027 2.604-.957 2.604-2.604zm2.431-3.933h1.82v7.985h-1.82v-7.985zm2.431 4.026c0-2.431 1.847-4.185 4.305-4.185 2.272 0 3.999 1.236 4.212 3.441h-1.781c-.252-1.129-1.049-1.9-2.391-1.9-1.661 0-2.578 1.143-2.578 2.644 0 1.315.771 2.511 2.551 2.511 1.355 0 2.246-.731 2.405-1.82h1.807c-.253 2.02-1.727 3.388-4.305 3.388-2.537.027-4.225-1.714-4.225-4.079z"/><use href="#B"/><use href="#B" x="9.539"/>
<path d="M145.016 31.649c0 2.551-1.966 4.079-4.265 4.079-2.218 0-3.401-1.475-3.746-2.365-.027-.053-.067-.066-.147-.066-.066 0-.119.026-.119.093l.026 4.61h-1.82v-10.39h1.781v2.298c0 .067.026.093.119.093.067 0 .12-.026.146-.066.545-1.594 2.246-2.485 3.747-2.485 2.033-.013 4.278 1.222 4.278 4.198zm-7.028-.12c0 1.634 1.262 2.604 2.697 2.604 1.408 0 2.604-1.01 2.604-2.511 0-1.634-1.196-2.644-2.604-2.644-1.501.027-2.697 1.01-2.697 2.551z"/></g>
<path d="M1.914 26.587v4.982c0 .81.173 1.422.545 1.82s.864.585 1.501.585 1.129-.199 1.475-.585c.345-.399.545-.983.545-1.794v-4.982h1.076v4.982c0 1.129-.266 1.993-.837 2.551-.571.571-1.302.864-2.259.864-.93 0-1.674-.292-2.232-.864-.571-.571-.837-1.422-.837-2.551v-4.982h1.036v-.027h-.013zm12.01 2.458c.465.492.691 1.182.691 2.086v3.76h-1.076v-3.654c0-.638-.173-1.129-.492-1.475s-.784-.518-1.355-.518a1.92 1.92 0 0 0-1.422.571c-.345.399-.545.93-.545 1.674v3.441H8.649v-6.457h1.076v1.528c.173-.518.465-.93.89-1.209.412-.292.903-.412 1.448-.412.784-.066 1.395.173 1.86.664zm9.035-.119c.439.399.718.89.811 1.541h-1.036c-.053-.399-.199-.717-.465-.957s-.638-.372-1.076-.372c-.399 0-.691.093-.903.266a.91.91 0 0 0-.319.731.79.79 0 0 0 .226.571c.146.146.319.239.545.319s.518.146.89.239c.465.093.864.226 1.156.345s.545.292.757.545c.199.239.319.585.319 1.01 0 .518-.199.957-.585 1.276-.399.319-.93.491-1.568.491-.757 0-1.395-.199-1.887-.571s-.757-.89-.863-1.541h1.036a1.43 1.43 0 0 0 .518.957c.292.239.718.372 1.209.372.372 0 .664-.093.864-.292a1 1 0 0 0 .319-.731.8.8 0 0 0-.226-.584 1.53 1.53 0 0 0-.571-.346c-.226-.08-.518-.173-.903-.239-.492-.093-.864-.226-1.156-.319s-.545-.292-.731-.518c-.199-.239-.292-.571-.292-.983 0-.545.199-.983.585-1.302.399-.345.957-.492 1.647-.492.678-.013 1.236.186 1.701.585zm8.184 2.976h-5.155c.026.731.239 1.302.638 1.674a2.07 2.07 0 0 0 1.448.571c.518 0 .957-.12 1.302-.399.345-.266.571-.611.638-1.05h1.156c-.08.438-.239.864-.518 1.209-.266.345-.611.638-1.05.837s-.903.292-1.448.292c-.611 0-1.183-.12-1.648-.399-.492-.266-.864-.638-1.129-1.156-.266-.492-.412-1.076-.412-1.767a3.81 3.81 0 0 1 .412-1.767c.266-.491.638-.89 1.129-1.156.465-.266 1.036-.399 1.648-.399.638 0 1.182.12 1.647.399.465.266.837.611 1.076 1.076a3.04 3.04 0 0 1 .372 1.475c-.053.186-.053.385-.106.558zm-1.249-1.727c-.173-.319-.412-.571-.731-.717a2.47 2.47 0 0 0-1.036-.239c-.585 0-1.076.173-1.475.545s-.611.904-.638 1.594h4.132c-.013-.465-.093-.864-.253-1.182zm4.717-1.475c.412-.239.89-.372 1.448-.372v1.156h-.319c-.611 0-1.103.146-1.475.465-.399.319-.571.811-.571 1.541v3.415h-1.076v-6.457h1.076v1.302c.199-.452.492-.797.917-1.05zm5.035 5.035l2.02-5.328h1.156l-2.524 6.457h-1.276l-2.524-6.457h1.156l1.993 5.328zm4.198-7.679c.12-.12.319-.173.545-.173a.81.81 0 0 1 .545.173.63.63 0 0 1 .199.465.63.63 0 0 1-.199.465c-.12.12-.319.173-.545.173s-.398-.053-.545-.173a.63.63 0 0 1-.199-.465c0-.173.066-.345.199-.465zm1.076 2.378v6.457h-1.076v-6.457h1.076zm6.603.558a2.78 2.78 0 0 1 1.01 1.767h-1.129c-.08-.465-.292-.837-.638-1.076-.345-.266-.784-.398-1.302-.398-.372 0-.717.093-1.036.266a1.68 1.68 0 0 0-.731.784c-.173.346-.292.811-.292 1.329s.093.957.292 1.329.438.611.731.784c.319.173.664.266 1.036.266.518 0 .957-.12 1.302-.399a1.65 1.65 0 0 0 .638-1.103h1.129a2.78 2.78 0 0 1-1.01 1.767c-.545.439-1.222.664-2.033.664-.611 0-1.183-.12-1.648-.398a2.64 2.64 0 0 1-1.129-1.156c-.266-.492-.412-1.076-.412-1.767a3.81 3.81 0 0 1 .412-1.767c.266-.492.638-.89 1.129-1.156.465-.266 1.036-.398 1.648-.398.837 0 1.501.226 2.033.664zm8.304 2.91h-5.155c.027.731.239 1.302.638 1.674a2.07 2.07 0 0 0 1.448.571c.518 0 .957-.12 1.302-.399.346-.266.571-.611.638-1.05h1.156c-.08.438-.239.864-.518 1.209-.266.345-.611.638-1.05.837s-.903.292-1.448.292c-.611 0-1.182-.12-1.647-.399-.492-.266-.864-.638-1.129-1.156-.266-.492-.412-1.076-.412-1.767a3.81 3.81 0 0 1 .412-1.767c.266-.491.638-.89 1.129-1.156.465-.266 1.036-.399 1.647-.399.638 0 1.182.12 1.648.399.465.266.837.611 1.076 1.076a3.04 3.04 0 0 1 .372 1.475c-.053.186-.053.385-.106.558zm-1.249-1.727c-.173-.319-.412-.571-.731-.717a2.47 2.47 0 0 0-1.036-.239c-.585 0-1.076.173-1.475.545s-.611.904-.638 1.594h4.132c-.013-.465-.08-.864-.252-1.182z" fill="#59595b"/><defs >
<path id="B" d="M115.946 31.623c0-2.431 1.847-4.185 4.398-4.185 2.511 0 4.451 1.727 4.451 4.185 0 2.365-1.9 4.092-4.451 4.092-2.737.013-4.398-1.727-4.398-4.092zm7.068.027c0-1.475-1.036-2.644-2.67-2.644-1.714 0-2.617 1.143-2.617 2.644 0 1.315.744 2.511 2.617 2.511 1.9 0 2.67-1.196 2.67-2.511z"/></defs>
</svg>
