<svg viewBox="0 0 223 243" xmlns="http://www.w3.org/2000/svg">
<path d="M124.63 185C124.386 185 124.15 185 123.907 185C113.182 184.941 97.6801 181.531 84.741 165.65C84.281 165.09 84.3664 164.259 84.925 163.797C85.4835 163.335 86.3181 163.421 86.7715 163.982C99.0667 179.071 113.76 182.303 123.92 182.362C132.16 182.395 140.894 181.768 149.141 173.61C157.428 165.406 157.736 149.486 156.606 143.478C153.78 128.428 147.676 120.151 143.056 115.851C142.524 115.357 142.491 114.519 142.984 113.985C143.476 113.451 144.311 113.418 144.843 113.912C149.759 118.476 156.238 127.228 159.189 142.983C160.45 149.69 160.109 166.455 150.988 175.483C142.287 184.096 132.864 184.993 124.63 184.993V185Z"/>
<path d="M121.095 137.905C119.807 137.905 118.551 137.219 117.888 135.999L116.771 133.948C116.304 133.091 116.199 132.102 116.468 131.165C116.744 130.229 117.362 129.45 118.216 128.982C119.977 128.013 122.199 128.666 123.165 130.44L124.282 132.491C125.248 134.258 124.597 136.487 122.829 137.457C122.277 137.76 121.679 137.905 121.088 137.905H121.095ZM119.971 131.178C119.807 131.178 119.642 131.218 119.485 131.304C119.248 131.435 119.077 131.653 118.998 131.91C118.919 132.174 118.952 132.444 119.084 132.688L120.201 134.74C120.47 135.234 121.088 135.412 121.581 135.148C122.074 134.878 122.251 134.258 121.988 133.763L120.871 131.712C120.687 131.376 120.339 131.185 119.977 131.185L119.971 131.178Z" />
<path d="M141.137 128.956C140.822 128.956 140.5 128.91 140.191 128.817C139.33 128.567 138.62 127.993 138.193 127.201L137.214 125.408C136.787 124.616 136.688 123.713 136.938 122.849C137.188 121.985 137.759 121.273 138.548 120.844C139.33 120.415 140.237 120.316 141.098 120.567C141.959 120.817 142.668 121.391 143.095 122.183L144.075 123.976C144.502 124.761 144.6 125.671 144.351 126.535C144.101 127.399 143.529 128.112 142.741 128.54C142.241 128.817 141.689 128.956 141.137 128.956ZM140.158 123.073C140.04 123.073 139.921 123.099 139.816 123.159C139.468 123.35 139.337 123.792 139.527 124.141L140.506 125.935C140.598 126.107 140.749 126.225 140.94 126.285C141.124 126.337 141.321 126.318 141.485 126.225C141.656 126.133 141.781 125.981 141.834 125.79C141.886 125.605 141.867 125.408 141.775 125.243L140.795 123.449C140.703 123.277 140.552 123.159 140.362 123.099C140.296 123.08 140.224 123.073 140.158 123.073Z" />
<path d="M137.727 162.34C135.492 162.34 132.969 162.069 130.202 161.357C118.906 158.462 116.185 149.941 116.074 149.578C115.863 148.879 116.251 148.147 116.948 147.929C117.638 147.718 118.374 148.108 118.591 148.8C118.689 149.103 121.048 156.292 130.853 158.805C141.249 161.469 147.82 157.268 147.886 157.228C148.491 156.833 149.305 156.998 149.706 157.604C150.107 158.211 149.943 159.029 149.338 159.425C149.108 159.576 144.857 162.333 137.727 162.333V162.34Z" />
<path d="M82.4807 166.58C82.4084 166.58 82.3295 166.58 82.2572 166.58C75.6201 166.475 68.3061 161.331 62.6875 152.81C55.2487 141.532 52.0418 120.257 55.2224 103.327C58.449 86.2133 69.949 71.1305 79.4052 71.6647C85.9701 72.0406 92.9687 77.9959 95.9981 80.8911C97.9301 75.2722 103.713 59.853 110.455 55.0716C116.337 50.9036 123.164 49.1163 128.264 50.4155C131.359 51.2003 133.725 53.1063 135.111 55.929C137.95 61.693 137.99 69.7719 137.76 74.0389C140.474 72.1329 144.975 69.1256 148.103 67.8659L148.576 67.6747C151.717 66.4019 156.981 64.2651 161.614 66.5733C164.67 68.0902 166.878 71.302 168.192 76.1163C172.187 90.8166 160.825 105.517 147.788 113.569C145.33 115.086 142.53 116.247 139.468 117.019C130.018 119.393 120.595 117.474 117.309 116.643C116.337 119.03 113.577 124.504 107.209 129.536C101.052 134.403 95.1307 134.871 92.075 134.7C93.8558 141.17 98.4164 161.364 87.2384 165.683C85.6941 166.277 84.0972 166.58 82.4872 166.58H82.4807ZM78.9058 74.2829C71.6378 74.2829 60.979 86.9519 57.805 103.815C54.7361 120.151 57.7721 140.583 64.8758 151.352C70.0147 159.148 76.527 163.856 82.2967 163.942C83.6175 163.969 84.9844 163.725 86.2855 163.223C89.2952 162.063 92.6861 158.336 91.7135 147.204C91.1024 140.187 89.0061 133.612 88.9864 133.546C88.8418 133.091 88.9535 132.596 89.2755 132.24C89.5975 131.89 90.0838 131.745 90.5504 131.857C90.8461 131.93 97.917 133.506 105.579 127.459C113.196 121.444 115.206 114.75 115.226 114.677C115.325 114.341 115.555 114.051 115.864 113.886C116.172 113.715 116.534 113.682 116.876 113.787C116.987 113.82 128.1 117.157 138.831 114.46C141.63 113.747 144.18 112.692 146.414 111.321C158.611 103.789 169.296 90.1967 165.655 76.8088C164.551 72.7529 162.803 70.1017 160.451 68.9343C156.876 67.1537 152.48 68.9343 149.568 70.1214L149.089 70.3127C144.765 72.0538 137.096 77.7717 137.017 77.831C136.596 78.1476 136.025 78.1806 135.571 77.9102C135.118 77.6464 134.862 77.1319 134.927 76.6109C134.94 76.4922 136.353 64.3838 132.765 57.0963C131.714 54.9595 129.986 53.5745 127.626 52.9744C123.316 51.873 117.171 53.5416 111.986 57.2216C104.58 62.4646 97.9038 83.5093 97.8381 83.7204C97.7001 84.1688 97.3321 84.5052 96.8721 84.6107C96.4187 84.7162 95.939 84.5645 95.6235 84.2216C95.5381 84.1293 86.7192 74.7182 79.2672 74.2961C79.1555 74.2895 79.0372 74.2829 78.919 74.2829H78.9058Z" />
<path d="M142.774 149.308C141.821 149.308 140.901 149.024 140.066 148.365C137.635 146.445 132.877 137.219 132.246 135.973C131.142 134.106 131.28 132.075 132.601 130.789C133.968 129.457 136.169 129.331 137.963 130.492C138.765 131.007 139.724 131.798 140.94 132.794C142.051 133.697 143.306 134.726 144.817 135.867C147.945 138.221 150.081 140.253 150.35 142.488C150.475 143.511 150.18 144.493 149.49 145.344C147.709 147.534 145.152 149.314 142.774 149.314V149.308ZM135.381 132.332C134.98 132.332 134.645 132.471 134.434 132.682C133.994 133.11 134.027 133.829 134.52 134.654L134.566 134.733C136.518 138.564 140.178 145.093 141.689 146.287C143.306 147.56 146.079 145.351 147.452 143.669C147.755 143.293 147.768 143.009 147.742 142.805C147.551 141.229 144.528 138.947 143.234 137.977C141.683 136.804 140.349 135.715 139.278 134.838C138.128 133.895 137.214 133.15 136.537 132.715C136.13 132.451 135.729 132.339 135.381 132.339V132.332Z" />
<path d="M70.7113 109.362C70.7113 109.362 70.6587 109.362 70.6324 109.362C70.041 109.322 69.6007 108.808 69.6401 108.214C70.1396 101.197 71.467 92.1949 74.9827 89.1942C75.9421 88.3764 77.0199 88.0137 78.1764 88.1192C78.735 88.1719 83.7753 88.8776 89.0259 98.2095C89.315 98.724 89.1376 99.3769 88.6184 99.6736C88.1059 99.9638 87.4553 99.7792 87.1596 99.2647C85.8059 96.8642 81.5279 90.5791 77.9859 90.256C77.3944 90.2032 76.8884 90.3879 76.3693 90.8297C74.1022 92.7687 72.4264 99.1592 71.7759 108.366C71.7364 108.933 71.2633 109.362 70.7113 109.362Z" />
<path d="M108.78 89.1018C108.747 89.1018 108.714 89.1018 108.674 89.1018C108.09 89.0491 107.656 88.5215 107.708 87.9345C108.129 83.5093 110.902 79.6314 114.313 78.7015C116.435 78.1277 118.768 78.9191 121.226 81.0625C121.673 81.4516 121.719 82.1309 121.331 82.5728C120.943 83.0212 120.266 83.0674 119.826 82.6783C118.525 81.5439 116.619 80.2975 114.871 80.7723C112.335 81.4648 110.173 84.6238 109.838 88.1324C109.785 88.6863 109.318 89.1018 108.773 89.1018H108.78Z" />
<path d="M148.07 100.92C147.715 100.92 147.367 100.742 147.163 100.419C146.847 99.9176 146.999 99.2581 147.498 98.9416C150.495 97.0356 153.793 93.9162 152.466 89.847C151.178 85.9032 147.334 84.7623 144.337 84.4919C143.752 84.4391 143.312 83.9181 143.365 83.3312C143.417 82.7442 143.943 82.3023 144.521 82.3551C151.119 82.9421 153.583 86.3913 154.497 89.1809C155.863 93.382 153.787 97.4907 148.635 100.755C148.457 100.867 148.26 100.92 148.063 100.92H148.07Z" />
</svg>
