<svg viewBox="0 0 34 22" xmlns="http://www.w3.org/2000/svg">
  <path d="M26.8147 8.51263C26.7925 8.51263 26.7747 8.51263 26.7524 8.51263C25.6967 8.51263 24.7033 8.77544 23.8302 9.23871L21.9148 6.42346L22.485 4.96683C22.4894 4.95793 22.4894 4.94902 22.4939 4.94011L23.5763 4.94902C23.5808 4.94902 23.5852 4.94902 23.5941 4.94902C24.0129 4.94902 24.4049 4.78865 24.7078 4.49466C25.0107 4.1962 25.1799 3.79975 25.1844 3.37657C25.1933 2.49903 24.485 1.7774 23.6075 1.76849L20.427 1.73731C20.4225 1.73731 20.4181 1.73731 20.4092 1.73731C19.9904 1.73731 19.5984 1.89767 19.2955 2.19167C18.9926 2.49012 18.8233 2.88658 18.8189 3.30975C18.8144 3.73293 18.9748 4.13384 19.2733 4.43675C19.5717 4.73965 19.9682 4.90893 20.3913 4.91338L21.064 4.91783L20.7254 5.78647L9.90096 5.69292C9.97223 4.24075 9.98559 3.13603 9.98559 3.1093C9.98559 2.47676 10.1014 2.04022 10.333 1.80858C10.5112 1.63486 10.774 1.55022 11.1527 1.55022H12.9478C13.3176 1.55022 13.616 1.25177 13.616 0.882044C13.616 0.51232 13.3131 0.213867 12.9478 0.213867H11.1527C10.4132 0.213867 9.82077 0.432138 9.39314 0.864226C8.89423 1.36313 8.65369 2.10258 8.65369 3.11376C8.65369 3.95566 8.57351 6.42792 8.35078 8.55717C7.80733 8.39681 7.2327 8.30327 6.64025 8.29436C6.61798 8.29436 6.60016 8.29436 6.57789 8.29436C3.14791 8.29436 0.341566 11.0651 0.310385 14.504C0.292567 16.2412 1.00529 17.9206 2.26592 19.1144C3.22364 20.0231 4.41745 20.5977 5.72262 20.7759C5.98989 20.8115 6.25716 20.8294 6.51552 20.8338C6.53334 20.8338 6.55116 20.8338 6.57343 20.8338C6.81398 20.8338 7.06343 20.8205 7.31734 20.7893C8.78733 20.6155 10.1549 19.9206 11.166 18.8382C12.2351 17.6889 12.832 16.1922 12.8498 14.6242C12.8721 12.2544 11.5714 10.1786 9.63814 9.09171C9.67823 8.75763 9.70941 8.41463 9.74059 8.07163C12.0748 9.3189 13.1082 10.9181 14.0214 12.3391C14.9212 13.7333 15.7765 15.0519 17.6028 15.5819C17.6073 15.5819 17.6117 15.5864 17.6162 15.5864C17.6206 15.5864 17.6251 15.5864 17.6295 15.5864C17.6474 15.5909 17.6652 15.5998 17.683 15.6042C17.7364 15.6176 17.7899 15.622 17.8434 15.6265C17.8478 15.6265 17.8567 15.6309 17.8612 15.6309C17.8656 15.6309 17.8701 15.6309 17.8701 15.6309H17.8745L20.5383 15.5597C20.9214 18.6244 23.5184 21.0165 26.69 21.0476C26.7123 21.0476 26.7301 21.0476 26.7524 21.0476C30.1824 21.0476 32.9887 18.2769 33.0199 14.838C33.0555 11.3902 30.2715 8.54826 26.8147 8.51263ZM20.0662 3.67057C19.9771 3.57703 19.9281 3.46121 19.9281 3.33203C19.9281 3.2073 19.9815 3.08703 20.0706 2.99794C20.1597 2.90885 20.28 2.85985 20.4047 2.85985H20.4092L23.5897 2.89103C23.8525 2.89549 24.0663 3.1093 24.0619 3.37212C24.0574 3.63493 23.8436 3.8443 23.5852 3.8443H23.5808L20.4002 3.81312C20.2755 3.81312 20.1552 3.75966 20.0662 3.67057ZM11.509 14.6153C11.4957 15.8492 11.0279 17.0252 10.186 17.9295C9.38869 18.7847 8.31069 19.3326 7.16143 19.4663C6.94761 19.4886 6.7338 19.5019 6.52889 19.4975C6.32398 19.4975 6.11016 19.4796 5.9008 19.4529C4.87626 19.3104 3.93636 18.8605 3.18355 18.1433C2.19019 17.2034 1.62892 15.8804 1.64228 14.5173C1.65565 13.1988 2.18128 11.9649 3.12118 11.0428C4.05218 10.1341 5.27271 9.63071 6.57343 9.63071C6.59125 9.63071 6.60907 9.63071 6.62243 9.63071C7.16588 9.63517 7.68706 9.73316 8.17706 9.90244C8.06569 10.6152 7.93651 11.2121 7.78061 11.5862C6.98325 13.4839 6.27943 13.9828 6.23934 14.014C5.92753 14.1966 5.82062 14.593 5.99435 14.9093C6.11462 15.132 6.34625 15.2568 6.58234 15.2568C6.68925 15.2568 6.80061 15.23 6.90307 15.1721C7.08125 15.0741 8.02115 14.4683 9.01451 12.103C9.17932 11.7154 9.31296 11.1675 9.42878 10.5394C10.6983 11.4482 11.5269 12.936 11.509 14.6153ZM22.721 9.99153C21.4916 11.0294 20.6631 12.5306 20.5116 14.2278L18.8456 14.2723L21.3223 7.938L22.721 9.99153ZM23.4783 11.1007L25.514 14.0897L21.8569 14.1877C21.9905 13.0785 22.4894 12.054 23.3001 11.2566C23.358 11.2032 23.4204 11.1542 23.4783 11.1007ZM15.1439 11.6174C14.2218 10.1831 13.0859 8.42799 10.627 7.03818L20.1998 7.13173L17.4692 14.1209C16.458 13.6531 15.8878 12.7711 15.1439 11.6174ZM26.7524 19.7157C26.7346 19.7157 26.7212 19.7157 26.7034 19.7157C24.2534 19.6935 22.24 17.876 21.8791 15.524L26.7702 15.3904C27.0152 15.3859 27.2335 15.2434 27.3448 15.0251C27.4562 14.8069 27.4384 14.5485 27.3047 14.3436L24.583 10.3479C25.2512 10.0227 25.9862 9.84453 26.7479 9.84453C26.7657 9.84453 26.7836 9.84453 26.7969 9.84453C29.5186 9.87125 31.7103 12.1074 31.6791 14.8247C31.6613 17.5375 29.4518 19.7157 26.7524 19.7157Z" />
  <path d="M5.17462 11.5417C4.07435 12.0406 3.35272 13.1453 3.33936 14.3525C3.33936 14.446 3.34381 14.5396 3.34826 14.6286C3.36163 14.8024 3.50863 14.936 3.68235 14.936C3.69126 14.936 3.70017 14.936 3.70908 14.936C3.89172 14.9226 4.02981 14.7578 4.01644 14.5752C4.01199 14.5039 4.00753 14.4282 4.00753 14.3569C4.01644 13.4081 4.58217 12.5395 5.44634 12.1475C5.61561 12.0718 5.68688 11.8713 5.61116 11.7065C5.53989 11.5417 5.34389 11.4659 5.17462 11.5417Z" />
  <path d="M29.0286 16.5755C28.9885 16.6335 28.944 16.6914 28.895 16.7493C28.2892 17.4798 27.3047 17.7961 26.3827 17.5511C26.2045 17.5065 26.0218 17.609 25.9728 17.7872C25.9238 17.9654 26.0307 18.148 26.2089 18.197C26.4717 18.2638 26.7346 18.2994 27.0018 18.2994C27.915 18.2994 28.8059 17.8941 29.4073 17.1725C29.4652 17.1012 29.5231 17.0255 29.5765 16.9497C29.6834 16.7983 29.6434 16.5889 29.4919 16.4865C29.3405 16.384 29.1311 16.4241 29.0286 16.5755Z" />
</svg>
