<svg width="100%" preserveAspectRatio="xMaxYMid meet" viewBox="0 0 910 512" fill="none"
    xmlns="http://www.w3.org/2000/svg">
    <path d="M842.769 506.75C842.769 508.125 842.222 509.445 841.249 510.418C840.277 511.391 838.957 511.937 837.582 511.937H89.4032C88.0274 511.937 86.7079 511.391 85.735 510.418C84.7622 509.445 84.2156 508.125 84.2156 506.75C84.2156 505.374 84.7622 504.054 85.735 503.081C86.7079 502.108 88.0274 501.562 89.4032 501.562H229.468C241.515 506.047 254.773 506.047 266.819 501.562H486.774C494.385 503.761 502.269 504.872 510.191 504.862H510.482C518.283 504.842 526.042 503.731 533.536 501.562H803.073C809.419 503.071 815.921 503.83 822.444 503.824H822.786C828.497 503.811 834.191 503.217 839.781 502.049C840.429 502.352 841.007 502.783 841.481 503.319C841.954 503.854 842.311 504.482 842.53 505.162C842.698 505.678 842.782 506.217 842.779 506.76" fill="#E8EBEE"/>
    <path d="M24.1224 390.972C23.6408 390.972 23.179 390.781 22.8384 390.44C22.4979 390.1 22.3066 389.638 22.3066 389.157C22.3066 388.675 22.4979 388.213 22.8384 387.873C23.179 387.533 23.6408 387.341 24.1224 387.341L78.9865 386.946C79.468 386.946 79.9298 387.139 80.2703 387.479C80.6109 387.819 80.8022 388.281 80.8022 388.762C80.8022 389.244 80.6109 389.706 80.2703 390.046C79.9298 390.387 79.468 390.578 78.9865 390.578L24.1224 390.972Z" fill="#00ADA8"/>
    <path d="M1.81566 409.036C1.33412 409.036 0.872309 408.844 0.531806 408.504C0.191303 408.163 0 407.702 0 407.22C0 406.738 0.191303 406.276 0.531806 405.936C0.872309 405.596 1.33412 405.405 1.81566 405.405L62.3966 404.304C62.8781 404.304 63.34 404.496 63.6804 404.836C64.0209 405.177 64.2122 405.639 64.2122 406.12C64.2122 406.601 64.0209 407.064 63.6804 407.404C63.34 407.745 62.8781 407.936 62.3966 407.936L1.81566 409.036Z" fill="#00ADA8"/>
    <path d="M8.87084 371.093C8.38929 371.093 7.92748 370.902 7.58697 370.561C7.24647 370.221 7.05518 369.76 7.05518 369.278C7.05518 368.796 7.24647 368.334 7.58697 367.994C7.92748 367.654 8.38929 367.462 8.87084 367.462L69.4517 366.362C69.691 366.355 69.9291 366.396 70.1522 366.483C70.3753 366.569 70.5788 366.699 70.7508 366.865C70.9229 367.032 71.06 367.231 71.1541 367.451C71.2481 367.671 71.2972 367.908 71.2985 368.147C71.3026 368.385 71.2597 368.622 71.1723 368.844C71.0849 369.066 70.9545 369.269 70.7888 369.44C70.6231 369.612 70.4252 369.749 70.2065 369.844C69.9877 369.939 69.7524 369.99 69.514 369.994L8.93302 371.093H8.87084Z" fill="#00ADA8"/>
    <path d="M532.871 36.8339C532.605 36.8352 532.344 36.7543 532.125 36.602C531.906 36.4497 531.739 36.2336 531.648 35.9831C529.746 30.7933 529.566 25.1287 531.135 19.8288C532.705 14.5291 535.941 9.87594 540.362 6.55898C540.637 6.35122 540.984 6.26129 541.325 6.30896C541.667 6.35663 541.976 6.538 542.183 6.81317C542.391 7.08833 542.481 7.43476 542.433 7.77624C542.386 8.11771 542.204 8.42627 541.929 8.63402C537.953 11.6186 535.044 15.8044 533.634 20.5716C532.222 25.3387 532.385 30.4335 534.096 35.1012C534.168 35.2977 534.191 35.5087 534.164 35.7162C534.137 35.9237 534.06 36.1215 533.939 36.2928C533.819 36.464 533.659 36.6037 533.474 36.6996C533.287 36.7957 533.08 36.8453 532.871 36.8443" fill="#1F4847"/>
    <path d="M542.054 27.3312C541.71 27.3312 541.38 27.1946 541.137 26.9514C540.893 26.7082 540.756 26.3783 540.756 26.0343C540.762 21.658 542.503 17.4626 545.598 14.3682C548.692 11.2737 552.887 9.53283 557.264 9.52734C557.608 9.52734 557.938 9.66396 558.181 9.90719C558.424 10.1504 558.56 10.4803 558.56 10.8242C558.56 11.1682 558.424 11.498 558.181 11.7413C557.938 11.9845 557.608 12.1211 557.264 12.1211C553.576 12.1266 550.04 13.5943 547.432 16.2023C544.823 18.8103 543.356 22.346 543.351 26.0343C543.351 26.3783 543.214 26.7082 542.97 26.9514C542.727 27.1946 542.397 27.3312 542.054 27.3312" fill="#1F4847"/>
    <path d="M328.947 265.287C328.638 265.284 328.341 265.171 328.109 264.969C327.876 264.767 327.723 264.489 327.677 264.185C327.631 263.879 327.695 263.569 327.857 263.307C328.019 263.045 328.269 262.85 328.562 262.755C333.312 261.284 337.461 258.322 340.394 254.308C343.329 250.294 344.892 245.441 344.852 240.47C344.852 240.128 344.987 239.799 345.228 239.556C345.469 239.313 345.796 239.175 346.138 239.172C346.482 239.172 346.812 239.309 347.056 239.552C347.299 239.795 347.435 240.126 347.435 240.47C347.479 245.997 345.741 251.393 342.478 255.855C339.215 260.319 334.601 263.611 329.32 265.245C329.196 265.285 329.067 265.306 328.936 265.307" fill="#1F4847"/>
    <path d="M329.465 255.752C329.195 255.751 328.932 255.666 328.711 255.508C328.492 255.35 328.327 255.128 328.24 254.872C328.153 254.616 328.149 254.339 328.227 254.08C328.305 253.821 328.462 253.593 328.676 253.428C332.632 250.417 335.514 246.212 336.893 241.435C338.272 236.659 338.076 231.565 336.333 226.909C336.214 226.586 336.227 226.229 336.371 225.914C336.515 225.601 336.778 225.358 337.102 225.239C337.425 225.119 337.782 225.133 338.095 225.276C338.408 225.42 338.652 225.683 338.772 226.006C340.709 231.184 340.928 236.848 339.393 242.16C337.859 247.47 334.653 252.146 330.253 255.492C330.028 255.667 329.751 255.761 329.465 255.762" fill="#1F4847"/>
    <path d="M673.383 445.619C673.383 445.619 682.046 449.955 692.36 456.066C701.863 461.7 696.779 467.863 687.908 468.164C679.038 468.464 655.382 465.332 655.382 465.332L623.945 462.852L626.871 441.925L671.163 444.394L673.383 445.619Z" fill="#FFC927"/>
    <path d="M691.861 43.6919C710.983 35.6926 734.524 54.5548 741.952 70.5742C748.572 84.84 743.353 106.7 731.443 118.3C719.034 130.211 700.037 130.907 700.037 130.907C700.037 130.907 686.55 113.673 677.969 107.044C673.091 103.604 667.688 100.975 661.97 99.2616C653.058 70.7297 672.782 51.6913 691.902 43.6919" fill="#FF8631"/>
    <path d="M672.605 413.954C672.554 412.604 672.491 411.215 672.439 409.804C672.356 407.811 672.273 405.757 672.19 403.672C672.117 402.229 672.055 400.766 671.982 399.283C671.806 395.133 671.588 390.816 671.36 386.438C671.298 385.225 671.236 384 671.163 382.765C671.049 380.535 670.914 378.294 670.779 376.043L670.686 374.413C670.686 373.729 670.593 373.044 670.551 372.338C670.135 365.636 669.658 358.923 669.14 352.408C668.102 339.719 666.847 327.808 665.342 318.263C664.72 314.393 664.066 310.917 663.361 307.94C663.184 307.171 663.008 306.446 662.811 305.751C662.397 304.115 661.88 302.507 661.265 300.936C656.451 289.036 649.51 277.166 642.932 267.227C637.167 258.512 630.932 250.117 624.256 242.078L537.758 232.46L570.17 263.71L570.886 264.405L572.038 265.515L594.334 265.442C596.861 265.434 599.286 266.43 601.079 268.211C602.871 269.991 603.882 272.41 603.89 274.936C603.898 277.462 602.903 279.888 601.123 281.679C599.342 283.472 596.923 284.483 594.396 284.492H591.72L593.442 286.152L593.546 286.297C598.972 293.639 603.696 301.476 607.656 309.704C608.455 311.373 609.254 313.096 610.022 314.891C610.79 316.686 611.36 318.232 611.951 319.965C612.855 322.517 613.694 325.152 614.691 327.736C617.378 334.728 619.183 345.373 620.376 357.336C621.165 365.284 621.694 373.833 622.026 382.33C622.42 392.3 622.555 402.188 622.555 410.944V420.687C622.545 420.762 622.545 420.839 622.555 420.916C622.555 424.837 622.451 428.344 622.378 431.291C622.306 434.237 622.254 436.54 622.202 438.262C622.14 440.337 622.098 441.438 622.098 441.438L623.375 441.541L628.126 441.925H628.209L673.383 445.619H673.57C673.57 445.619 673.311 432.431 672.616 413.912" fill="#971B23"/>
    <path d="M745.844 113.445L738.706 108.568L737.668 107.894L731.733 116.526L732.543 117.076L739.867 122.077C740.434 122.469 741.073 122.745 741.746 122.89C742.421 123.036 743.116 123.047 743.794 122.922C744.472 122.796 745.119 122.539 745.697 122.164C746.276 121.789 746.774 121.304 747.164 120.735C747.553 120.167 747.828 119.527 747.97 118.852C748.112 118.178 748.12 117.482 747.993 116.804C747.865 116.127 747.604 115.482 747.227 114.905C746.849 114.328 746.362 113.832 745.791 113.445" fill="#FF8631"/>
    <path d="M730 99.6973C730.677 99.612 731.312 99.3282 731.826 98.8818C732.341 98.4355 732.712 97.8466 732.892 97.1896C733.071 96.5325 733.052 95.837 732.837 95.1908C732.622 94.5445 732.22 93.9766 731.681 93.5589C731.143 93.1412 730.494 92.8925 729.814 92.8441C729.134 92.7957 728.456 92.9497 727.864 93.2869C727.272 93.6241 726.794 94.1292 726.489 94.7383C726.183 95.3475 726.066 96.0334 726.151 96.7093C726.208 97.1582 726.353 97.5918 726.576 97.985C726.8 98.3782 727.099 98.7233 727.457 99.0009C727.814 99.2783 728.223 99.4827 728.66 99.6022C729.096 99.7217 729.551 99.7541 730 99.6973" fill="#204948"/>
    <path d="M737.709 74.7865C739.51 73.5283 741.07 71.9576 742.316 70.1488C742.316 70.1488 743.488 42.644 713.639 32.4556C695.679 26.3238 682.409 33.213 672.376 20.5344C658.359 2.82391 644.363 -4.14824 633.988 2.59566C624.754 8.63404 630.564 21.7794 633.667 25.5249C636.768 29.2704 636.105 30.0174 632.09 28.845C628.074 27.6726 618 21.1569 596.409 19.3205C574.818 17.4841 556.143 27.6207 559.464 40.2888C562.783 52.957 579.342 60.1263 579.342 60.1263C579.342 60.1263 549.68 60.0018 545.352 72.9293C540.487 87.4546 557.17 91.8433 579.082 89.1354C599.833 86.5727 613.238 88.4299 648.389 98.4731C658.587 101.389 678.093 103.163 693.003 91.9886C693.003 91.9886 692.193 83.8544 693.895 80.9286C700.411 69.6715 710.496 80.3061 710.496 80.3061C718.484 84.9023 731.401 79.4034 737.771 74.7554" fill="#576295"/>
    <path d="M673.58 467.407C673.437 467.336 673.283 467.29 673.124 467.272L633.615 462.084C633.187 462.027 632.753 462.126 632.39 462.362C632.029 462.598 631.764 462.956 631.644 463.371C631.605 463.485 631.58 463.603 631.571 463.723L630.398 477.616C630.362 478.079 630.504 478.54 630.796 478.902C631.087 479.264 631.505 479.502 631.965 479.566L671.09 485.055H671.308C671.755 485.053 672.185 484.887 672.518 484.589C672.851 484.29 673.063 483.88 673.113 483.436L674.649 469.202C674.695 468.822 674.62 468.437 674.433 468.104C674.246 467.77 673.958 467.504 673.611 467.345L673.58 467.407ZM669.752 481.185L634.175 476.205L635.047 465.913L670.904 470.582L669.752 481.185Z" fill="#00ADA8"/>
    <path d="M506.01 364.443C497.976 365.026 490.159 367.316 483.079 371.158C476 375.001 469.822 380.31 464.955 386.729C464.81 386.917 464.703 387.134 464.642 387.365C464.58 387.595 464.565 387.835 464.597 388.071C464.628 388.308 464.707 388.535 464.827 388.741C464.947 388.947 465.107 389.128 465.297 389.271C465.613 389.512 466 389.643 466.398 389.645C466.677 389.645 466.952 389.581 467.202 389.456C467.453 389.332 467.671 389.152 467.84 388.928C472.391 382.925 478.168 377.96 484.787 374.362C491.405 370.765 498.715 368.618 506.228 368.064C506.699 368.019 507.134 367.791 507.44 367.429C507.747 367.066 507.899 366.599 507.865 366.127C507.831 365.655 507.614 365.213 507.259 364.899C506.905 364.584 506.442 364.421 505.969 364.443H506.01ZM872.929 440.244C872.714 440.143 872.48 440.086 872.242 440.075C872.004 440.065 871.766 440.102 871.543 440.184C871.319 440.266 871.113 440.391 870.938 440.553C870.763 440.714 870.622 440.91 870.522 441.127C867.363 447.972 862.779 454.064 857.077 458.998C851.375 463.93 844.686 467.589 837.457 469.731C837.037 469.853 836.676 470.122 836.439 470.49C836.202 470.858 836.106 471.298 836.168 471.73C836.23 472.163 836.445 472.56 836.775 472.846C837.105 473.132 837.529 473.29 837.965 473.29C838.141 473.292 838.316 473.267 838.484 473.217C846.209 470.928 853.358 467.018 859.451 461.747C865.545 456.476 870.444 449.966 873.822 442.651C874.023 442.214 874.041 441.715 873.874 441.263C873.707 440.812 873.368 440.445 872.929 440.244C872.714 440.143 872.48 440.086 872.242 440.075C872.004 440.065 871.766 440.102 871.543 440.184C871.319 440.266 871.113 440.391 870.938 440.553C870.763 440.714 870.622 440.91 870.522 441.127C867.363 447.972 862.779 454.064 857.077 458.998C851.375 463.93 844.686 467.589 837.457 469.731C837.037 469.853 836.676 470.122 836.439 470.49C836.202 470.858 836.106 471.298 836.168 471.73C836.23 472.163 836.445 472.56 836.775 472.846C837.105 473.132 837.529 473.29 837.965 473.29C838.141 473.292 838.316 473.267 838.484 473.217C846.209 470.928 853.358 467.018 859.451 461.747C865.545 456.476 870.444 449.966 873.822 442.651C874.023 442.214 874.041 441.715 873.874 441.263C873.707 440.812 873.368 440.445 872.929 440.244C872.714 440.143 872.48 440.086 872.242 440.075C872.004 440.065 871.766 440.102 871.543 440.184C871.319 440.266 871.113 440.391 870.938 440.553C870.763 440.714 870.622 440.91 870.522 441.127C867.363 447.972 862.779 454.064 857.077 458.998C851.375 463.93 844.686 467.589 837.457 469.731C837.037 469.853 836.676 470.122 836.439 470.49C836.202 470.858 836.106 471.298 836.168 471.73C836.23 472.163 836.445 472.56 836.775 472.846C837.105 473.132 837.529 473.29 837.965 473.29C838.141 473.292 838.316 473.267 838.484 473.217C846.209 470.928 853.358 467.018 859.451 461.747C865.545 456.476 870.444 449.966 873.822 442.651C874.023 442.214 874.041 441.715 873.874 441.263C873.707 440.812 873.368 440.445 872.929 440.244C872.714 440.143 872.48 440.086 872.242 440.075C872.004 440.065 871.766 440.102 871.543 440.184C871.319 440.266 871.113 440.391 870.938 440.553C870.763 440.714 870.622 440.91 870.522 441.127C867.363 447.972 862.779 454.064 857.077 458.998C851.375 463.93 844.686 467.589 837.457 469.731C837.037 469.853 836.676 470.122 836.439 470.49C836.202 470.858 836.106 471.298 836.168 471.73C836.23 472.163 836.445 472.56 836.775 472.846C837.105 473.132 837.529 473.29 837.965 473.29C838.141 473.292 838.316 473.267 838.484 473.217C846.209 470.928 853.358 467.018 859.451 461.747C865.545 456.476 870.444 449.966 873.822 442.651C874.023 442.214 874.041 441.715 873.874 441.263C873.707 440.812 873.368 440.445 872.929 440.244V440.244ZM874.662 367.4C867.812 360.556 859.677 355.133 850.724 351.443C841.772 347.752 832.179 345.866 822.496 345.892H822.236C805.361 345.898 789.003 351.712 775.911 362.357C773.831 364.048 771.843 365.849 769.956 367.753C759.649 378.125 752.647 391.317 749.828 405.664C747.011 420.011 748.505 434.872 754.123 448.371C759.74 461.871 769.23 473.404 781.394 481.517C793.558 489.629 807.854 493.958 822.475 493.957H822.786C842.381 493.891 861.15 486.06 874.981 472.18C888.812 458.3 896.577 439.504 896.574 419.909V419.681C896.56 409.95 894.615 400.32 890.854 391.346C887.094 382.372 881.59 374.233 874.662 367.4V367.4ZM872.431 469.544C865.93 476.117 858.189 481.336 849.657 484.898C841.124 488.46 831.97 490.294 822.724 490.294H822.475C808.571 490.292 794.979 486.174 783.412 478.458C771.846 470.743 762.823 459.775 757.481 446.939C752.139 434.102 750.717 419.971 753.395 406.327C756.074 392.684 762.731 380.139 772.529 370.274C774.12 368.676 775.765 367.171 777.467 365.761C790.024 355.253 805.874 349.495 822.247 349.493H822.496C836.401 349.491 849.995 353.608 861.563 361.324C873.132 369.039 882.155 380.008 887.497 392.846C892.838 405.685 894.258 419.817 891.577 433.462C888.895 447.106 882.234 459.65 872.431 469.513V469.544ZM872.96 440.213C872.745 440.112 872.511 440.055 872.273 440.044C872.035 440.034 871.798 440.071 871.574 440.153C871.35 440.235 871.145 440.36 870.969 440.522C870.794 440.683 870.653 440.879 870.554 441.095C867.394 447.941 862.81 454.033 857.108 458.966C851.406 463.899 844.717 467.558 837.488 469.7C837.068 469.822 836.707 470.091 836.47 470.458C836.233 470.827 836.137 471.267 836.199 471.699C836.261 472.132 836.476 472.528 836.806 472.815C837.136 473.101 837.56 473.258 837.996 473.258C838.172 473.26 838.347 473.236 838.515 473.186C846.24 470.897 853.389 466.987 859.482 461.716C865.576 456.445 870.475 449.935 873.853 442.62C874.054 442.183 874.073 441.683 873.905 441.232C873.738 440.781 873.399 440.414 872.96 440.213C872.745 440.112 872.511 440.055 872.273 440.044C872.035 440.034 871.798 440.071 871.574 440.153C871.35 440.235 871.145 440.36 870.969 440.522C870.794 440.683 870.653 440.879 870.554 441.095C867.394 447.941 862.81 454.033 857.108 458.966C851.406 463.899 844.717 467.558 837.488 469.7C837.068 469.822 836.707 470.091 836.47 470.458C836.233 470.827 836.137 471.267 836.199 471.699C836.261 472.132 836.476 472.528 836.806 472.815C837.136 473.101 837.56 473.258 837.996 473.258C838.172 473.26 838.347 473.236 838.515 473.186C846.24 470.897 853.389 466.987 859.482 461.716C865.576 456.445 870.475 449.935 873.853 442.62C874.054 442.183 874.073 441.683 873.905 441.232C873.738 440.781 873.399 440.414 872.96 440.213C872.745 440.112 872.511 440.055 872.273 440.044C872.035 440.034 871.798 440.071 871.574 440.153C871.35 440.235 871.145 440.36 870.969 440.522C870.794 440.683 870.653 440.879 870.554 441.095C867.394 447.941 862.81 454.033 857.108 458.966C851.406 463.899 844.717 467.558 837.488 469.7C837.068 469.822 836.707 470.091 836.47 470.458C836.233 470.827 836.137 471.267 836.199 471.699C836.261 472.132 836.476 472.528 836.806 472.815C837.136 473.101 837.56 473.258 837.996 473.258C838.172 473.26 838.347 473.236 838.515 473.186C846.24 470.897 853.389 466.987 859.482 461.716C865.576 456.445 870.475 449.935 873.853 442.62C874.054 442.183 874.073 441.683 873.905 441.232C873.738 440.781 873.399 440.414 872.96 440.213V440.213ZM506.01 364.443C497.976 365.026 490.159 367.316 483.079 371.158C476 375.001 469.822 380.31 464.955 386.729C464.81 386.917 464.703 387.134 464.642 387.365C464.58 387.595 464.565 387.835 464.597 388.071C464.628 388.308 464.707 388.535 464.827 388.741C464.947 388.947 465.107 389.128 465.297 389.271C465.613 389.512 466 389.643 466.398 389.645C466.677 389.645 466.952 389.581 467.202 389.456C467.453 389.332 467.671 389.152 467.84 388.928C472.391 382.925 478.168 377.96 484.787 374.362C491.405 370.765 498.715 368.618 506.228 368.064C506.699 368.019 507.134 367.791 507.44 367.429C507.747 367.066 507.899 366.599 507.865 366.127C507.831 365.655 507.614 365.213 507.259 364.899C506.905 364.584 506.442 364.421 505.969 364.443C497.935 365.026 490.118 367.316 483.038 371.158C475.959 375.001 469.779 380.31 464.914 386.729C464.768 386.917 464.662 387.134 464.6 387.365C464.539 387.595 464.523 387.835 464.555 388.071C464.587 388.308 464.665 388.535 464.786 388.741C464.906 388.947 465.066 389.128 465.256 389.271C465.572 389.512 465.959 389.643 466.356 389.645C466.635 389.645 466.911 389.581 467.161 389.456C467.411 389.332 467.629 389.152 467.798 388.928C472.349 382.925 478.127 377.96 484.745 374.362C491.364 370.765 498.673 368.618 506.187 368.064C506.658 368.019 507.093 367.791 507.399 367.429C507.705 367.066 507.857 366.599 507.824 366.127C507.79 365.655 507.573 365.213 507.217 364.899C506.863 364.584 506.4 364.421 505.927 364.443C497.893 365.026 490.076 367.316 482.996 371.158C475.918 375.001 469.738 380.31 464.872 386.729C464.727 386.917 464.62 387.134 464.559 387.365C464.497 387.595 464.482 387.835 464.514 388.071C464.545 388.308 464.624 388.535 464.744 388.741C464.864 388.947 465.024 389.128 465.214 389.271C465.53 389.512 465.917 389.643 466.315 389.645C466.594 389.645 466.869 389.581 467.12 389.456C467.37 389.332 467.588 389.152 467.756 388.928C472.308 382.925 478.085 377.96 484.704 374.362C491.322 370.765 498.632 368.618 506.145 368.064C506.616 368.019 507.051 367.791 507.357 367.429C507.664 367.066 507.816 366.599 507.782 366.127C507.748 365.655 507.53 365.213 507.176 364.899C506.822 364.584 506.359 364.421 505.886 364.443H506.01ZM583.969 418.394C583.619 408.106 581.122 398.004 576.636 388.738C572.152 379.472 565.779 371.247 557.928 364.588C555.309 362.323 552.535 360.243 549.628 358.363C537.798 350.838 524.066 346.85 510.046 346.867H509.787C490.851 346.933 472.66 354.254 458.958 367.324C445.255 380.393 437.083 398.217 436.123 417.129C436.05 418.332 436.019 419.536 436.019 420.749V421.154C436.085 440.744 443.912 459.511 457.788 473.342C471.663 487.173 490.455 494.94 510.046 494.943H510.305C528.546 494.881 546.123 488.088 559.666 475.867C573.208 463.646 581.762 446.857 583.689 428.717C583.96 426.118 584.095 423.508 584.094 420.894V420.718C584.094 419.94 584.094 419.173 584.042 418.404L583.969 418.394ZM560.013 470.592C553.509 477.165 545.766 482.383 537.231 485.945C528.697 489.506 519.543 491.341 510.295 491.342H510.046C491.416 491.34 473.546 483.953 460.352 470.802C447.157 457.65 439.713 439.804 439.65 421.175V420.842C439.65 419.629 439.65 418.425 439.743 417.222C440.697 399.259 448.489 382.342 461.518 369.941C474.549 357.54 491.83 350.594 509.818 350.53H510.067C523.28 350.504 536.231 354.224 547.418 361.257C550.356 363.09 553.151 365.144 555.78 367.4C557.159 368.582 558.498 369.807 559.785 371.093C572.371 383.599 579.755 400.406 580.452 418.135C580.452 418.986 580.514 419.847 580.514 420.707C580.57 439.363 573.215 457.276 560.065 470.508L560.013 470.592ZM506.01 364.36C497.976 364.943 490.159 367.233 483.079 371.075C476 374.918 469.822 380.227 464.955 386.646C464.81 386.835 464.703 387.05 464.642 387.282C464.58 387.512 464.565 387.752 464.597 387.988C464.628 388.225 464.707 388.452 464.827 388.658C464.947 388.864 465.107 389.044 465.297 389.188C465.613 389.429 466 389.56 466.398 389.562C466.677 389.562 466.952 389.498 467.202 389.373C467.453 389.249 467.671 389.068 467.84 388.845C472.391 382.842 478.168 377.877 484.787 374.279C491.405 370.682 498.715 368.535 506.228 367.981C506.699 367.936 507.134 367.708 507.44 367.346C507.747 366.983 507.899 366.516 507.865 366.044C507.831 365.572 507.614 365.13 507.259 364.816C506.905 364.501 506.442 364.338 505.969 364.36C497.935 364.943 490.118 367.233 483.038 371.075C475.959 374.918 469.779 380.227 464.914 386.646C464.768 386.835 464.662 387.05 464.6 387.282C464.539 387.512 464.523 387.752 464.555 387.988C464.587 388.225 464.665 388.452 464.786 388.658C464.906 388.864 465.066 389.044 465.256 389.188C465.572 389.429 465.959 389.56 466.356 389.562C466.635 389.562 466.911 389.498 467.161 389.373C467.411 389.249 467.629 389.068 467.798 388.845C472.349 382.842 478.127 377.877 484.745 374.279C491.364 370.682 498.673 368.535 506.187 367.981C506.658 367.936 507.093 367.708 507.399 367.346C507.705 366.983 507.857 366.516 507.824 366.044C507.79 365.572 507.573 365.13 507.217 364.816C506.863 364.501 506.4 364.338 505.927 364.36C497.893 364.943 490.076 367.233 482.996 371.075C475.918 374.918 469.738 380.227 464.872 386.646C464.727 386.835 464.62 387.05 464.559 387.282C464.497 387.512 464.482 387.752 464.514 387.988C464.545 388.225 464.624 388.452 464.744 388.658C464.864 388.864 465.024 389.044 465.214 389.188C465.53 389.429 465.917 389.56 466.315 389.562C466.594 389.562 466.869 389.498 467.12 389.373C467.37 389.249 467.588 389.068 467.756 388.845C472.308 382.842 478.085 377.877 484.704 374.279C491.322 370.682 498.632 368.535 506.145 367.981C506.616 367.936 507.051 367.708 507.357 367.346C507.664 366.983 507.816 366.516 507.782 366.044C507.748 365.572 507.53 365.13 507.176 364.816C506.822 364.501 506.359 364.338 505.886 364.36H506.01ZM872.846 440.161C872.631 440.06 872.397 440.003 872.159 439.992C871.921 439.982 871.683 440.019 871.46 440.101C871.236 440.183 871.03 440.308 870.855 440.47C870.68 440.631 870.539 440.827 870.439 441.044C867.28 447.889 862.696 453.981 856.994 458.915C851.291 463.847 844.603 467.506 837.374 469.648C836.954 469.77 836.593 470.039 836.356 470.407C836.119 470.775 836.023 471.215 836.085 471.647C836.147 472.08 836.362 472.476 836.692 472.763C837.022 473.049 837.446 473.207 837.882 473.207C838.058 473.209 838.233 473.184 838.401 473.134C846.126 470.845 853.275 466.935 859.368 461.664C865.462 456.393 870.361 449.883 873.739 442.568C873.94 442.131 873.959 441.632 873.791 441.18C873.624 440.728 873.285 440.362 872.846 440.161C872.631 440.06 872.397 440.003 872.159 439.992C871.921 439.982 871.683 440.019 871.46 440.101C871.236 440.183 871.03 440.308 870.855 440.47C870.68 440.631 870.539 440.827 870.439 441.044C867.28 447.889 862.696 453.981 856.994 458.915C851.291 463.847 844.603 467.506 837.374 469.648C836.954 469.77 836.593 470.039 836.356 470.407C836.119 470.775 836.023 471.215 836.085 471.647C836.147 472.08 836.362 472.476 836.692 472.763C837.022 473.049 837.446 473.207 837.882 473.207C838.058 473.209 838.233 473.184 838.401 473.134C846.126 470.845 853.275 466.935 859.368 461.664C865.462 456.393 870.361 449.883 873.739 442.568C873.94 442.131 873.959 441.632 873.791 441.18C873.624 440.728 873.285 440.362 872.846 440.161V440.161ZM874.662 367.4C867.812 360.556 859.677 355.133 850.724 351.443C841.772 347.752 832.179 345.866 822.496 345.892H822.236C805.361 345.898 789.003 351.712 775.911 362.357C773.831 364.048 771.843 365.849 769.956 367.753C759.649 378.125 752.647 391.317 749.828 405.664C747.011 420.011 748.505 434.872 754.123 448.371C759.74 461.871 769.23 473.404 781.394 481.517C793.558 489.629 807.854 493.958 822.475 493.957H822.786C842.381 493.891 861.15 486.06 874.981 472.18C888.812 458.3 896.577 439.504 896.574 419.909V419.681C896.56 409.95 894.615 400.32 890.854 391.346C887.094 382.372 881.59 374.233 874.662 367.4V367.4ZM872.431 469.544C865.93 476.117 858.189 481.336 849.657 484.898C841.124 488.46 831.97 490.294 822.724 490.294H822.475C808.571 490.292 794.979 486.174 783.412 478.458C771.846 470.743 762.823 459.775 757.481 446.939C752.139 434.102 750.717 419.971 753.395 406.327C756.074 392.684 762.731 380.139 772.529 370.274C774.12 368.676 775.765 367.171 777.467 365.761C790.024 355.253 805.874 349.495 822.247 349.493H822.496C836.401 349.491 849.995 353.608 861.563 361.324C873.132 369.039 882.155 380.008 887.497 392.846C892.838 405.685 894.258 419.817 891.577 433.462C888.895 447.106 882.234 459.65 872.431 469.513V469.544ZM872.96 440.213C872.745 440.112 872.511 440.055 872.273 440.044C872.035 440.034 871.798 440.071 871.574 440.153C871.35 440.235 871.145 440.36 870.969 440.522C870.794 440.683 870.653 440.879 870.554 441.095C867.394 447.941 862.81 454.033 857.108 458.966C851.406 463.899 844.717 467.558 837.488 469.7C837.068 469.822 836.707 470.091 836.47 470.458C836.233 470.827 836.137 471.267 836.199 471.699C836.261 472.132 836.476 472.528 836.806 472.815C837.136 473.101 837.56 473.258 837.996 473.258C838.172 473.26 838.347 473.236 838.515 473.186C846.24 470.897 853.389 466.987 859.482 461.716C865.576 456.445 870.475 449.935 873.853 442.62C874.054 442.183 874.073 441.683 873.905 441.232C873.738 440.781 873.399 440.414 872.96 440.213C872.745 440.112 872.511 440.055 872.273 440.044C872.035 440.034 871.798 440.071 871.574 440.153C871.35 440.235 871.145 440.36 870.969 440.522C870.794 440.683 870.653 440.879 870.554 441.095C867.394 447.941 862.81 454.033 857.108 458.966C851.406 463.899 844.717 467.558 837.488 469.7C837.068 469.822 836.707 470.091 836.47 470.458C836.233 470.827 836.137 471.267 836.199 471.699C836.261 472.132 836.476 472.528 836.806 472.815C837.136 473.101 837.56 473.258 837.996 473.258C838.172 473.26 838.347 473.236 838.515 473.186C846.24 470.897 853.389 466.987 859.482 461.716C865.576 456.445 870.475 449.935 873.853 442.62C874.054 442.183 874.073 441.683 873.905 441.232C873.738 440.781 873.399 440.414 872.96 440.213C872.745 440.112 872.511 440.055 872.273 440.044C872.035 440.034 871.798 440.071 871.574 440.153C871.35 440.235 871.145 440.36 870.969 440.522C870.794 440.683 870.653 440.879 870.554 441.095C867.394 447.941 862.81 454.033 857.108 458.966C851.406 463.899 844.717 467.558 837.488 469.7C837.068 469.822 836.707 470.091 836.47 470.458C836.233 470.827 836.137 471.267 836.199 471.699C836.261 472.132 836.476 472.528 836.806 472.815C837.136 473.101 837.56 473.258 837.996 473.258C838.172 473.26 838.347 473.236 838.515 473.186C846.24 470.897 853.389 466.987 859.482 461.716C865.576 456.445 870.475 449.935 873.853 442.62C874.054 442.183 874.073 441.683 873.905 441.232C873.738 440.781 873.399 440.414 872.96 440.213C872.745 440.112 872.511 440.055 872.273 440.044C872.035 440.034 871.798 440.071 871.574 440.153C871.35 440.235 871.145 440.36 870.969 440.522C870.794 440.683 870.653 440.879 870.554 441.095C867.394 447.941 862.81 454.033 857.108 458.966C851.406 463.899 844.717 467.558 837.488 469.7C837.068 469.822 836.707 470.091 836.47 470.458C836.233 470.827 836.137 471.267 836.199 471.699C836.261 472.132 836.476 472.528 836.806 472.815C837.136 473.101 837.56 473.258 837.996 473.258C838.172 473.26 838.347 473.236 838.515 473.186C846.24 470.897 853.389 466.987 859.482 461.716C865.576 456.445 870.475 449.935 873.853 442.62C874.054 442.183 874.073 441.683 873.905 441.232C873.738 440.781 873.399 440.414 872.96 440.213C872.745 440.112 872.511 440.055 872.273 440.044C872.035 440.034 871.798 440.071 871.574 440.153C871.35 440.235 871.145 440.36 870.969 440.522C870.794 440.683 870.653 440.879 870.554 441.095C867.394 447.941 862.81 454.033 857.108 458.966C851.406 463.899 844.717 467.558 837.488 469.7C837.068 469.822 836.707 470.091 836.47 470.458C836.233 470.827 836.137 471.267 836.199 471.699C836.261 472.132 836.476 472.528 836.806 472.815C837.136 473.101 837.56 473.258 837.996 473.258C838.172 473.26 838.347 473.236 838.515 473.186C846.24 470.897 853.389 466.987 859.482 461.716C865.576 456.445 870.475 449.935 873.853 442.62C874.054 442.183 874.073 441.683 873.905 441.232C873.738 440.781 873.399 440.414 872.96 440.213V440.213ZM874.662 367.4C867.812 360.556 859.677 355.133 850.724 351.443C841.772 347.752 832.179 345.866 822.496 345.892H822.236C805.361 345.898 789.003 351.712 775.911 362.357C773.831 364.048 771.843 365.849 769.956 367.753C759.649 378.125 752.647 391.317 749.828 405.664C747.011 420.011 748.505 434.872 754.123 448.371C759.74 461.871 769.23 473.404 781.394 481.517C793.558 489.629 807.854 493.958 822.475 493.957H822.786C842.381 493.891 861.15 486.06 874.981 472.18C888.812 458.3 896.577 439.504 896.574 419.909V419.681C896.56 409.95 894.615 400.32 890.854 391.346C887.094 382.372 881.59 374.233 874.662 367.4V367.4ZM872.431 469.544C865.93 476.117 858.189 481.336 849.657 484.898C841.124 488.46 831.97 490.294 822.724 490.294H822.475C808.571 490.292 794.979 486.174 783.412 478.458C771.846 470.743 762.823 459.775 757.481 446.939C752.139 434.102 750.717 419.971 753.395 406.327C756.074 392.684 762.731 380.139 772.529 370.274C774.12 368.676 775.765 367.171 777.467 365.761C790.024 355.253 805.874 349.495 822.247 349.493H822.496C836.401 349.491 849.995 353.608 861.563 361.324C873.132 369.039 882.155 380.008 887.497 392.846C892.838 405.685 894.258 419.817 891.577 433.462C888.895 447.106 882.234 459.65 872.431 469.513V469.544ZM872.96 440.213C872.745 440.112 872.511 440.055 872.273 440.044C872.035 440.034 871.798 440.071 871.574 440.153C871.35 440.235 871.145 440.36 870.969 440.522C870.794 440.683 870.653 440.879 870.554 441.095C867.394 447.941 862.81 454.033 857.108 458.966C851.406 463.899 844.717 467.558 837.488 469.7C837.068 469.822 836.707 470.091 836.47 470.458C836.233 470.827 836.137 471.267 836.199 471.699C836.261 472.132 836.476 472.528 836.806 472.815C837.136 473.101 837.56 473.258 837.996 473.258C838.172 473.26 838.347 473.236 838.515 473.186C846.24 470.897 853.389 466.987 859.482 461.716C865.576 456.445 870.475 449.935 873.853 442.62C874.054 442.183 874.073 441.683 873.905 441.232C873.738 440.781 873.399 440.414 872.96 440.213V440.213ZM874.662 367.4C867.812 360.556 859.677 355.133 850.724 351.443C841.772 347.752 832.179 345.866 822.496 345.892H822.236C805.361 345.898 789.003 351.712 775.911 362.357C773.831 364.048 771.843 365.849 769.956 367.753C759.649 378.125 752.647 391.317 749.828 405.664C747.011 420.011 748.505 434.872 754.123 448.371C759.74 461.871 769.23 473.404 781.394 481.517C793.558 489.629 807.854 493.958 822.475 493.957H822.786C842.381 493.891 861.15 486.06 874.981 472.18C888.812 458.3 896.577 439.504 896.574 419.909V419.681C896.56 409.95 894.615 400.32 890.854 391.346C887.094 382.372 881.59 374.233 874.662 367.4V367.4ZM872.431 469.544C865.93 476.117 858.189 481.336 849.657 484.898C841.124 488.46 831.97 490.294 822.724 490.294H822.475C808.571 490.292 794.979 486.174 783.412 478.458C771.846 470.743 762.823 459.775 757.481 446.939C752.139 434.102 750.717 419.971 753.395 406.327C756.074 392.684 762.731 380.139 772.529 370.274C774.12 368.676 775.765 367.171 777.467 365.761C790.024 355.253 805.874 349.495 822.247 349.493H822.496C836.401 349.491 849.995 353.608 861.563 361.324C873.132 369.039 882.155 380.008 887.497 392.846C892.838 405.685 894.258 419.817 891.577 433.462C888.895 447.106 882.234 459.65 872.431 469.513V469.544ZM872.96 440.213C872.745 440.112 872.511 440.055 872.273 440.044C872.035 440.034 871.798 440.071 871.574 440.153C871.35 440.235 871.145 440.36 870.969 440.522C870.794 440.683 870.653 440.879 870.554 441.095C867.394 447.941 862.81 454.033 857.108 458.966C851.406 463.899 844.717 467.558 837.488 469.7C837.068 469.822 836.707 470.091 836.47 470.458C836.233 470.827 836.137 471.267 836.199 471.699C836.261 472.132 836.476 472.528 836.806 472.815C837.136 473.101 837.56 473.258 837.996 473.258C838.172 473.26 838.347 473.236 838.515 473.186C846.24 470.897 853.389 466.987 859.482 461.716C865.576 456.445 870.475 449.935 873.853 442.62C874.054 442.183 874.073 441.683 873.905 441.232C873.738 440.781 873.399 440.414 872.96 440.213V440.213ZM822.496 332.394H822.205C803.651 332.403 785.586 338.356 770.661 349.379C767.018 352.063 763.587 355.025 760.4 358.239C748.194 370.492 739.894 386.089 736.551 403.059C733.206 420.028 734.968 437.608 741.612 453.576C748.257 469.545 759.486 483.185 773.881 492.773C788.276 502.362 805.189 507.467 822.485 507.445H822.786C829.423 507.428 836.036 506.659 842.499 505.152C861.71 500.628 878.828 489.747 891.081 474.274C903.333 458.803 910 439.645 910 419.909V419.681C909.896 396.526 900.632 374.354 884.232 358.009C867.832 341.664 845.63 332.473 822.475 332.446L822.496 332.394ZM881.998 479.1C874.243 486.917 865.02 493.125 854.858 497.366C844.697 501.607 833.798 503.798 822.786 503.813H822.496C804.91 503.797 787.775 498.256 773.507 487.975C759.241 477.694 748.565 463.192 742.985 446.514C737.406 429.838 737.206 411.83 742.415 395.033C747.622 378.237 757.975 363.501 772.01 352.905C774.831 350.758 777.791 348.8 780.87 347.043C793.461 339.832 807.716 336.03 822.226 336.015H822.506C839.076 336.014 855.276 340.919 869.061 350.113C882.846 359.306 893.601 372.376 899.968 387.674C906.334 402.972 908.028 419.813 904.835 436.073C901.643 452.332 893.707 467.283 882.029 479.038L881.998 479.1ZM822.506 345.892H822.247C805.372 345.898 789.014 351.712 775.922 362.357C773.841 364.048 771.853 365.849 769.966 367.753C759.66 378.125 752.657 391.317 749.839 405.664C747.021 420.011 748.516 434.872 754.134 448.371C759.751 461.871 769.24 473.404 781.405 481.517C793.569 489.629 807.864 493.958 822.485 493.957H822.786C842.381 493.891 861.15 486.06 874.981 472.18C888.812 458.3 896.577 439.504 896.574 419.909V419.681C896.506 400.091 888.677 381.328 874.802 367.5C860.926 353.671 842.137 345.905 822.548 345.903L822.506 345.892ZM892.902 419.681C892.965 438.344 885.616 456.27 872.468 469.517C859.32 482.764 841.451 490.248 822.786 490.325H822.537C808.633 490.323 795.041 486.205 783.474 478.489C771.909 470.775 762.885 459.806 757.543 446.97C752.202 434.133 750.78 420.002 753.457 406.359C756.136 392.715 762.793 380.17 772.591 370.305C774.182 368.707 775.828 367.202 777.529 365.792C790.086 355.284 805.937 349.526 822.309 349.524H822.558C841.187 349.507 859.06 356.887 872.251 370.042C885.441 383.198 892.869 401.052 892.902 419.681V419.681ZM870.564 441.116C867.405 447.961 862.82 454.054 857.118 458.987C851.417 463.919 844.727 467.579 837.499 469.72C837.078 469.843 836.717 470.112 836.481 470.479C836.244 470.847 836.148 471.288 836.209 471.72C836.271 472.153 836.487 472.549 836.817 472.835C837.147 473.122 837.57 473.279 838.007 473.279C838.182 473.281 838.357 473.257 838.525 473.207C846.251 470.918 853.399 467.008 859.493 461.737C865.586 456.465 870.485 449.956 873.864 442.641C874.062 442.204 874.08 441.706 873.913 441.257C873.746 440.807 873.407 440.44 872.971 440.239C872.536 440.038 872.038 440.017 871.587 440.181C871.137 440.345 870.768 440.681 870.564 441.116V441.116ZM872.971 440.234C872.755 440.133 872.521 440.075 872.284 440.065C872.046 440.054 871.808 440.091 871.584 440.173C871.361 440.255 871.155 440.381 870.979 440.542C870.804 440.704 870.663 440.9 870.564 441.116C867.405 447.961 862.82 454.054 857.118 458.987C851.417 463.919 844.727 467.579 837.499 469.72C837.078 469.843 836.717 470.112 836.481 470.479C836.244 470.847 836.148 471.288 836.209 471.72C836.271 472.153 836.487 472.549 836.817 472.835C837.147 473.122 837.57 473.279 838.007 473.279C838.182 473.281 838.357 473.257 838.525 473.207C846.251 470.918 853.399 467.008 859.493 461.737C865.586 456.465 870.485 449.956 873.864 442.641C874.064 442.203 874.083 441.704 873.916 441.253C873.749 440.802 873.409 440.435 872.971 440.234C872.755 440.133 872.521 440.075 872.284 440.065C872.046 440.054 871.808 440.091 871.584 440.173C871.361 440.255 871.155 440.381 870.979 440.542C870.804 440.704 870.663 440.9 870.564 441.116C867.405 447.961 862.82 454.054 857.118 458.987C851.417 463.919 844.727 467.579 837.499 469.72C837.078 469.843 836.717 470.112 836.481 470.479C836.244 470.847 836.148 471.288 836.209 471.72C836.271 472.153 836.487 472.549 836.817 472.835C837.147 473.122 837.57 473.279 838.007 473.279C838.182 473.281 838.357 473.257 838.525 473.207C846.251 470.918 853.399 467.008 859.493 461.737C865.586 456.465 870.485 449.956 873.864 442.641C874.064 442.203 874.083 441.704 873.916 441.253C873.749 440.802 873.409 440.435 872.971 440.234V440.234ZM874.662 367.4C867.812 360.556 859.677 355.133 850.724 351.443C841.772 347.752 832.179 345.866 822.496 345.892H822.236C805.361 345.898 789.003 351.712 775.911 362.357C773.831 364.048 771.843 365.849 769.956 367.753C759.649 378.125 752.647 391.317 749.828 405.664C747.011 420.011 748.505 434.872 754.123 448.371C759.74 461.871 769.23 473.404 781.394 481.517C793.558 489.629 807.854 493.958 822.475 493.957H822.786C842.381 493.891 861.15 486.06 874.981 472.18C888.812 458.3 896.577 439.504 896.574 419.909V419.681C896.56 409.95 894.615 400.32 890.854 391.346C887.094 382.372 881.59 374.233 874.662 367.4V367.4ZM872.431 469.544C865.93 476.117 858.189 481.336 849.657 484.898C841.124 488.46 831.97 490.294 822.724 490.294H822.475C808.571 490.292 794.979 486.174 783.412 478.458C771.846 470.743 762.823 459.775 757.481 446.939C752.139 434.102 750.717 419.971 753.395 406.327C756.074 392.684 762.731 380.139 772.529 370.274C774.12 368.676 775.765 367.171 777.467 365.761C790.024 355.253 805.874 349.495 822.247 349.493H822.496C836.401 349.491 849.995 353.608 861.563 361.324C873.132 369.039 882.155 380.008 887.497 392.846C892.838 405.685 894.258 419.817 891.577 433.462C888.895 447.106 882.234 459.65 872.431 469.513V469.544ZM872.96 440.213C872.745 440.112 872.511 440.055 872.273 440.044C872.035 440.034 871.798 440.071 871.574 440.153C871.35 440.235 871.145 440.36 870.969 440.522C870.794 440.683 870.653 440.879 870.554 441.095C867.394 447.941 862.81 454.033 857.108 458.966C851.406 463.899 844.717 467.558 837.488 469.7C837.068 469.822 836.707 470.091 836.47 470.458C836.233 470.827 836.137 471.267 836.199 471.699C836.261 472.132 836.476 472.528 836.806 472.815C837.136 473.101 837.56 473.258 837.996 473.258C838.172 473.26 838.347 473.236 838.515 473.186C846.24 470.897 853.389 466.987 859.482 461.716C865.576 456.445 870.475 449.935 873.853 442.62C874.054 442.183 874.073 441.683 873.905 441.232C873.738 440.781 873.399 440.414 872.96 440.213C872.745 440.112 872.511 440.055 872.273 440.044C872.035 440.034 871.798 440.071 871.574 440.153C871.35 440.235 871.145 440.36 870.969 440.522C870.794 440.683 870.653 440.879 870.554 441.095C867.394 447.941 862.81 454.033 857.108 458.966C851.406 463.899 844.717 467.558 837.488 469.7C837.068 469.822 836.707 470.091 836.47 470.458C836.233 470.827 836.137 471.267 836.199 471.699C836.261 472.132 836.476 472.528 836.806 472.815C837.136 473.101 837.56 473.258 837.996 473.258C838.172 473.26 838.347 473.236 838.515 473.186C846.24 470.897 853.389 466.987 859.482 461.716C865.576 456.445 870.475 449.935 873.853 442.62C874.054 442.183 874.073 441.683 873.905 441.232C873.738 440.781 873.399 440.414 872.96 440.213C872.745 440.112 872.511 440.055 872.273 440.044C872.035 440.034 871.798 440.071 871.574 440.153C871.35 440.235 871.145 440.36 870.969 440.522C870.794 440.683 870.653 440.879 870.554 441.095C867.394 447.941 862.81 454.033 857.108 458.966C851.406 463.899 844.717 467.558 837.488 469.7C837.068 469.822 836.707 470.091 836.47 470.458C836.233 470.827 836.137 471.267 836.199 471.699C836.261 472.132 836.476 472.528 836.806 472.815C837.136 473.101 837.56 473.258 837.996 473.258C838.172 473.26 838.347 473.236 838.515 473.186C846.24 470.897 853.389 466.987 859.482 461.716C865.576 456.445 870.475 449.935 873.853 442.62C874.054 442.183 874.073 441.683 873.905 441.232C873.738 440.781 873.399 440.414 872.96 440.213V440.213ZM874.662 367.4C867.812 360.556 859.677 355.133 850.724 351.443C841.772 347.752 832.179 345.866 822.496 345.892H822.236C805.361 345.898 789.003 351.712 775.911 362.357C773.831 364.048 771.843 365.849 769.956 367.753C759.649 378.125 752.647 391.317 749.828 405.664C747.011 420.011 748.505 434.872 754.123 448.371C759.74 461.871 769.23 473.404 781.394 481.517C793.558 489.629 807.854 493.958 822.475 493.957H822.786C842.381 493.891 861.15 486.06 874.981 472.18C888.812 458.3 896.577 439.504 896.574 419.909V419.681C896.56 409.95 894.615 400.32 890.854 391.346C887.094 382.372 881.59 374.233 874.662 367.4V367.4ZM872.431 469.544C865.93 476.117 858.189 481.336 849.657 484.898C841.124 488.46 831.97 490.294 822.724 490.294H822.475C808.571 490.292 794.979 486.174 783.412 478.458C771.846 470.743 762.823 459.775 757.481 446.939C752.139 434.102 750.717 419.971 753.395 406.327C756.074 392.684 762.731 380.139 772.529 370.274C774.12 368.676 775.765 367.171 777.467 365.761C790.024 355.253 805.874 349.495 822.247 349.493H822.496C836.401 349.491 849.995 353.608 861.563 361.324C873.132 369.039 882.155 380.008 887.497 392.846C892.838 405.685 894.258 419.817 891.577 433.462C888.895 447.106 882.234 459.65 872.431 469.513V469.544ZM872.96 440.213C872.745 440.112 872.511 440.055 872.273 440.044C872.035 440.034 871.798 440.071 871.574 440.153C871.35 440.235 871.145 440.36 870.969 440.522C870.794 440.683 870.653 440.879 870.554 441.095C867.394 447.941 862.81 454.033 857.108 458.966C851.406 463.899 844.717 467.558 837.488 469.7C837.068 469.822 836.707 470.091 836.47 470.458C836.233 470.827 836.137 471.267 836.199 471.699C836.261 472.132 836.476 472.528 836.806 472.815C837.136 473.101 837.56 473.258 837.996 473.258C838.172 473.26 838.347 473.236 838.515 473.186C846.24 470.897 853.389 466.987 859.482 461.716C865.576 456.445 870.475 449.935 873.853 442.62C874.054 442.183 874.073 441.683 873.905 441.232C873.738 440.781 873.399 440.414 872.96 440.213C872.745 440.112 872.511 440.055 872.273 440.044C872.035 440.034 871.798 440.071 871.574 440.153C871.35 440.235 871.145 440.36 870.969 440.522C870.794 440.683 870.653 440.879 870.554 441.095C867.394 447.941 862.81 454.033 857.108 458.966C851.406 463.899 844.717 467.558 837.488 469.7C837.068 469.822 836.707 470.091 836.47 470.458C836.233 470.827 836.137 471.267 836.199 471.699C836.261 472.132 836.476 472.528 836.806 472.815C837.136 473.101 837.56 473.258 837.996 473.258C838.172 473.26 838.347 473.236 838.515 473.186C846.24 470.897 853.389 466.987 859.482 461.716C865.576 456.445 870.475 449.935 873.853 442.62C874.054 442.183 874.073 441.683 873.905 441.232C873.738 440.781 873.399 440.414 872.96 440.213C872.745 440.112 872.511 440.055 872.273 440.044C872.035 440.034 871.798 440.071 871.574 440.153C871.35 440.235 871.145 440.36 870.969 440.522C870.794 440.683 870.653 440.879 870.554 441.095C867.394 447.941 862.81 454.033 857.108 458.966C851.406 463.899 844.717 467.558 837.488 469.7C837.068 469.822 836.707 470.091 836.47 470.458C836.233 470.827 836.137 471.267 836.199 471.699C836.261 472.132 836.476 472.528 836.806 472.815C837.136 473.101 837.56 473.258 837.996 473.258C838.172 473.26 838.347 473.236 838.515 473.186C846.24 470.897 853.389 466.987 859.482 461.716C865.576 456.445 870.475 449.935 873.853 442.62C874.054 442.183 874.073 441.683 873.905 441.232C873.738 440.781 873.399 440.414 872.96 440.213V440.213ZM506.01 364.443C497.976 365.026 490.159 367.316 483.079 371.158C476 375.001 469.822 380.31 464.955 386.729C464.81 386.917 464.703 387.134 464.642 387.365C464.58 387.595 464.565 387.835 464.597 388.071C464.628 388.308 464.707 388.535 464.827 388.741C464.947 388.947 465.107 389.128 465.297 389.271C465.613 389.512 466 389.643 466.398 389.645C466.677 389.645 466.952 389.581 467.202 389.456C467.453 389.332 467.671 389.152 467.84 388.928C472.391 382.925 478.168 377.96 484.787 374.362C491.405 370.765 498.715 368.618 506.228 368.064C506.699 368.019 507.134 367.791 507.44 367.429C507.747 367.066 507.899 366.599 507.865 366.127C507.831 365.655 507.614 365.213 507.259 364.899C506.905 364.584 506.442 364.421 505.969 364.443C497.935 365.026 490.118 367.316 483.038 371.158C475.959 375.001 469.779 380.31 464.914 386.729C464.768 386.917 464.662 387.134 464.6 387.365C464.539 387.595 464.523 387.835 464.555 388.071C464.587 388.308 464.665 388.535 464.786 388.741C464.906 388.947 465.066 389.128 465.256 389.271C465.572 389.512 465.959 389.643 466.356 389.645C466.635 389.645 466.911 389.581 467.161 389.456C467.411 389.332 467.629 389.152 467.798 388.928C472.349 382.925 478.127 377.96 484.745 374.362C491.364 370.765 498.673 368.618 506.187 368.064C506.658 368.019 507.093 367.791 507.399 367.429C507.705 367.066 507.857 366.599 507.824 366.127C507.79 365.655 507.573 365.213 507.217 364.899C506.863 364.584 506.4 364.421 505.927 364.443H506.01ZM584.011 418.394C583.661 408.106 581.163 398.004 576.678 388.738C572.193 379.472 565.821 371.247 557.969 364.588C555.35 362.323 552.576 360.243 549.669 358.363C537.84 350.838 524.107 346.85 510.088 346.867H509.828C490.892 346.933 472.702 354.254 458.999 367.324C445.297 380.393 437.125 398.217 436.164 417.129C436.092 418.332 436.061 419.536 436.061 420.749V421.154C436.127 440.744 443.954 459.511 457.829 473.342C471.704 487.173 490.496 494.94 510.088 494.943H510.347C528.588 494.881 546.165 488.088 559.707 475.867C573.249 463.646 581.804 446.857 583.731 428.717C584.001 426.118 584.136 423.508 584.135 420.894V420.718C584.135 419.94 584.135 419.173 584.083 418.404L584.011 418.394ZM560.055 470.592C553.55 477.165 545.807 482.383 537.273 485.945C528.739 489.506 519.584 491.341 510.337 491.342H510.088C491.457 491.34 473.588 483.953 460.394 470.802C447.199 457.65 439.754 439.804 439.691 421.175V420.842C439.691 419.629 439.691 418.425 439.785 417.222C440.739 399.259 448.53 382.342 461.559 369.941C474.59 357.54 491.872 350.594 509.86 350.53H510.108C523.322 350.504 536.273 354.224 547.459 361.257C550.398 363.09 553.193 365.144 555.822 367.4C557.201 368.582 558.54 369.807 559.826 371.093C572.412 383.599 579.797 400.406 580.493 418.135C580.493 418.986 580.556 419.847 580.556 420.707C580.611 439.363 573.256 457.276 560.106 470.508L560.055 470.592ZM506.052 364.36C498.018 364.943 490.201 367.233 483.121 371.075C476.042 374.918 469.863 380.227 464.997 386.646C464.851 386.835 464.745 387.05 464.683 387.282C464.622 387.512 464.606 387.752 464.638 387.988C464.67 388.225 464.748 388.452 464.868 388.658C464.989 388.864 465.149 389.044 465.339 389.188C465.655 389.429 466.042 389.56 466.439 389.562C466.718 389.562 466.994 389.498 467.244 389.373C467.494 389.249 467.712 389.068 467.881 388.845C472.432 382.842 478.21 377.877 484.828 374.279C491.447 370.682 498.756 368.535 506.269 367.981C506.741 367.936 507.176 367.708 507.481 367.346C507.788 366.983 507.94 366.516 507.906 366.044C507.873 365.572 507.656 365.13 507.3 364.816C506.946 364.501 506.483 364.338 506.01 364.36C497.976 364.943 490.159 367.233 483.079 371.075C476 374.918 469.822 380.227 464.955 386.646C464.81 386.835 464.703 387.05 464.642 387.282C464.58 387.512 464.565 387.752 464.597 387.988C464.628 388.225 464.707 388.452 464.827 388.658C464.947 388.864 465.107 389.044 465.297 389.188C465.613 389.429 466 389.56 466.398 389.562C466.677 389.562 466.952 389.498 467.202 389.373C467.453 389.249 467.671 389.068 467.84 388.845C472.391 382.842 478.168 377.877 484.787 374.279C491.405 370.682 498.715 368.535 506.228 367.981C506.699 367.936 507.134 367.708 507.44 367.346C507.747 366.983 507.899 366.516 507.865 366.044C507.831 365.572 507.614 365.13 507.259 364.816C506.905 364.501 506.442 364.338 505.969 364.36C497.935 364.943 490.118 367.233 483.038 371.075C475.959 374.918 469.779 380.227 464.914 386.646C464.768 386.835 464.662 387.05 464.6 387.282C464.539 387.512 464.523 387.752 464.555 387.988C464.587 388.225 464.665 388.452 464.786 388.658C464.906 388.864 465.066 389.044 465.256 389.188C465.572 389.429 465.959 389.56 466.356 389.562C466.635 389.562 466.911 389.498 467.161 389.373C467.411 389.249 467.629 389.068 467.798 388.845C472.349 382.842 478.127 377.877 484.745 374.279C491.364 370.682 498.673 368.535 506.187 367.981C506.658 367.936 507.093 367.708 507.399 367.346C507.705 366.983 507.857 366.516 507.824 366.044C507.79 365.572 507.573 365.13 507.217 364.816C506.863 364.501 506.4 364.338 505.927 364.36C497.893 364.943 490.076 367.233 482.996 371.075C475.918 374.918 469.738 380.227 464.872 386.646C464.727 386.835 464.62 387.05 464.559 387.282C464.497 387.512 464.482 387.752 464.514 387.988C464.545 388.225 464.624 388.452 464.744 388.658C464.864 388.864 465.024 389.044 465.214 389.188C465.53 389.429 465.917 389.56 466.315 389.562C466.594 389.562 466.869 389.498 467.12 389.373C467.37 389.249 467.588 389.068 467.756 388.845C472.308 382.842 478.085 377.877 484.704 374.279C491.322 370.682 498.632 368.535 506.145 367.981C506.616 367.936 507.051 367.708 507.357 367.346C507.664 366.983 507.816 366.516 507.782 366.044C507.748 365.572 507.53 365.13 507.176 364.816C506.822 364.501 506.359 364.338 505.886 364.36C497.852 364.943 490.035 367.233 482.955 371.075C475.876 374.918 469.696 380.227 464.831 386.646C464.685 386.835 464.579 387.05 464.517 387.282C464.456 387.512 464.44 387.752 464.472 387.988C464.504 388.225 464.582 388.452 464.703 388.658C464.823 388.864 464.983 389.044 465.173 389.188C465.489 389.429 465.876 389.56 466.273 389.562C466.552 389.562 466.828 389.498 467.078 389.373C467.328 389.249 467.546 389.068 467.715 388.845C472.267 382.842 478.044 377.877 484.662 374.279C491.281 370.682 498.59 368.535 506.104 367.981C506.575 367.936 507.01 367.708 507.316 367.346C507.622 366.983 507.774 366.516 507.741 366.044C507.707 365.572 507.489 365.13 507.134 364.816C506.78 364.501 506.317 364.338 505.844 364.36H506.052ZM583.928 418.311C583.578 408.023 581.08 397.921 576.595 388.655C572.11 379.389 565.738 371.163 557.886 364.505C555.267 362.24 552.493 360.16 549.586 358.28C537.757 350.755 524.024 346.767 510.005 346.784H509.745C490.809 346.85 472.619 354.171 458.916 367.241C445.214 380.31 437.042 398.134 436.081 417.046C436.008 418.249 435.977 419.453 435.977 420.666V421.071C436.044 440.661 443.871 459.428 457.746 473.259C471.621 487.09 490.413 494.857 510.005 494.86H510.264C528.505 494.798 546.082 488.005 559.624 475.784C573.167 463.563 581.721 446.774 583.648 428.634C583.918 426.036 584.053 423.425 584.052 420.811V420.718C584.052 419.94 584.052 419.173 584.001 418.404L583.928 418.311ZM559.972 470.592C553.467 477.165 545.724 482.383 537.19 485.945C528.656 489.506 519.501 491.341 510.254 491.342H510.005C491.374 491.34 473.505 483.953 460.311 470.802C447.116 457.65 439.671 439.804 439.608 421.175V420.842C439.608 419.629 439.608 418.425 439.702 417.222C440.656 399.259 448.447 382.342 461.477 369.941C474.507 357.54 491.789 350.594 509.777 350.53H510.025C523.239 350.504 536.19 354.224 547.376 361.257C550.315 363.09 553.11 365.144 555.739 367.4C557.118 368.582 558.457 369.807 559.743 371.093C572.329 383.599 579.714 400.406 580.411 418.135C580.411 418.986 580.473 419.847 580.473 420.707C580.528 439.363 573.173 457.276 560.023 470.508L559.972 470.592ZM505.969 364.36C497.935 364.943 490.118 367.233 483.038 371.075C475.959 374.918 469.779 380.227 464.914 386.646C464.768 386.835 464.662 387.05 464.6 387.282C464.539 387.512 464.523 387.752 464.555 387.988C464.587 388.225 464.665 388.452 464.786 388.658C464.906 388.864 465.066 389.044 465.256 389.188C465.572 389.429 465.959 389.56 466.356 389.562C466.635 389.562 466.911 389.498 467.161 389.373C467.411 389.249 467.629 389.068 467.798 388.845C472.349 382.842 478.127 377.877 484.745 374.279C491.364 370.682 498.673 368.535 506.187 367.981C506.658 367.936 507.093 367.708 507.399 367.346C507.705 366.983 507.857 366.516 507.824 366.044C507.79 365.572 507.573 365.13 507.217 364.816C506.863 364.501 506.4 364.338 505.927 364.36H505.969ZM584.011 418.311C583.661 408.023 581.163 397.921 576.678 388.655C572.193 379.389 565.821 371.163 557.969 364.505C555.35 362.24 552.576 360.16 549.669 358.28C537.84 350.755 524.107 346.767 510.088 346.784H509.828C490.892 346.85 472.702 354.171 458.999 367.241C445.297 380.31 437.125 398.134 436.164 417.046C436.092 418.249 436.061 419.453 436.061 420.666V421.071C436.127 440.661 443.954 459.428 457.829 473.259C471.704 487.09 490.496 494.857 510.088 494.86H510.347C528.588 494.798 546.165 488.005 559.707 475.784C573.249 463.563 581.804 446.774 583.731 428.634C584.001 426.036 584.136 423.425 584.135 420.811V420.718C584.135 419.94 584.135 419.173 584.083 418.404L584.011 418.311ZM560.055 470.592C553.55 477.165 545.807 482.383 537.273 485.945C528.739 489.506 519.584 491.341 510.337 491.342H510.088C491.457 491.34 473.588 483.953 460.394 470.802C447.199 457.65 439.754 439.804 439.691 421.175V420.842C439.691 419.629 439.691 418.425 439.785 417.222C440.739 399.259 448.53 382.342 461.559 369.941C474.59 357.54 491.872 350.594 509.86 350.53H510.108C523.322 350.504 536.273 354.224 547.459 361.257C550.398 363.09 553.193 365.144 555.822 367.4C557.201 368.582 558.54 369.807 559.826 371.093C572.412 383.599 579.797 400.406 580.493 418.135C580.493 418.986 580.556 419.847 580.556 420.707C580.611 439.363 573.256 457.276 560.106 470.508L560.055 470.592ZM506.052 364.36C498.018 364.943 490.201 367.233 483.121 371.075C476.042 374.918 469.863 380.227 464.997 386.646C464.851 386.835 464.745 387.05 464.683 387.282C464.622 387.512 464.606 387.752 464.638 387.988C464.67 388.225 464.748 388.452 464.868 388.658C464.989 388.864 465.149 389.044 465.339 389.188C465.655 389.429 466.042 389.56 466.439 389.562C466.718 389.562 466.994 389.498 467.244 389.373C467.494 389.249 467.712 389.068 467.881 388.845C472.432 382.842 478.21 377.877 484.828 374.279C491.447 370.682 498.756 368.535 506.269 367.981C506.741 367.936 507.176 367.708 507.481 367.346C507.788 366.983 507.94 366.516 507.906 366.044C507.873 365.572 507.656 365.13 507.3 364.816C506.946 364.501 506.483 364.338 506.01 364.36H506.052ZM597.644 419.297C597.414 406.832 594.516 394.561 589.148 383.311C583.779 372.059 576.063 362.088 566.518 354.068C563.881 351.826 561.108 349.748 558.218 347.843C543.966 338.423 527.254 333.41 510.171 333.431H509.87C487.406 333.532 465.841 342.253 449.622 357.796C433.404 373.338 423.773 394.514 422.718 416.952C422.666 418.155 422.635 419.359 422.635 420.573V421.258C422.654 432.731 424.933 444.089 429.341 454.682C433.749 465.275 440.201 474.896 448.328 482.995C456.454 491.095 466.097 497.514 476.704 501.887C487.311 506.26 498.676 508.502 510.15 508.483H510.451C532.112 508.41 552.977 500.307 569.012 485.743C585.047 471.178 595.112 451.186 597.26 429.631C597.538 426.668 597.666 423.694 597.644 420.718V419.339V419.297ZM533.474 501.603C525.98 503.772 518.22 504.883 510.419 504.903H510.129C487.93 504.898 466.638 496.095 450.915 480.423C435.193 464.752 426.322 443.488 426.246 421.289V420.687C426.246 419.473 426.246 418.269 426.339 417.067C427.384 395.583 436.628 375.319 452.165 360.445C467.702 345.572 488.351 337.222 509.86 337.114H510.15C526.407 337.095 542.315 341.831 555.915 350.737C558.811 352.633 561.585 354.712 564.215 356.962C565.979 358.443 567.677 359.999 569.31 361.632C584.658 376.883 593.504 397.488 593.992 419.121V420.749C594.055 438.979 588.179 456.734 577.252 471.326C566.325 485.918 550.942 496.554 533.432 501.624L533.474 501.603ZM558.042 364.671C555.423 362.406 552.649 360.326 549.742 358.446C537.913 350.921 524.18 346.933 510.16 346.95H509.901C490.965 347.016 472.775 354.337 459.072 367.407C445.369 380.476 437.197 398.3 436.237 417.212C436.164 418.415 436.133 419.619 436.133 420.832V421.237C436.199 440.828 444.027 459.594 457.903 473.425C471.777 487.256 490.569 495.023 510.16 495.026H510.419C528.661 494.964 546.237 488.171 559.78 475.95C573.322 463.729 581.876 446.94 583.803 428.8C584.074 426.201 584.209 423.591 584.208 420.978V420.718C584.208 419.94 584.208 419.173 584.156 418.404C583.806 408.116 581.309 398.015 576.823 388.748C572.339 379.483 565.966 371.257 558.114 364.598L558.042 364.671ZM560.127 470.592C553.623 477.165 545.88 482.383 537.346 485.945C528.812 489.506 519.657 491.341 510.409 491.342H510.16C491.53 491.34 473.66 483.953 460.466 470.802C447.271 457.65 439.827 439.804 439.764 421.175V420.842C439.764 419.629 439.764 418.425 439.857 417.222C440.812 399.259 448.603 382.342 461.632 369.941C474.663 357.54 491.944 350.594 509.932 350.53H510.181C523.394 350.504 536.345 354.224 547.532 361.257C550.47 363.09 553.266 365.144 555.894 367.4C557.274 368.582 558.612 369.807 559.899 371.093C572.485 383.599 579.87 400.406 580.566 418.135C580.566 418.986 580.628 419.847 580.628 420.707C580.684 439.363 573.329 457.276 560.179 470.508L560.127 470.592ZM506.124 364.36C498.09 364.943 490.273 367.233 483.193 371.075C476.115 374.918 469.936 380.227 465.069 386.646C464.924 386.835 464.817 387.05 464.756 387.282C464.694 387.512 464.679 387.752 464.711 387.988C464.743 388.225 464.821 388.452 464.941 388.658C465.061 388.864 465.221 389.044 465.411 389.188C465.727 389.429 466.114 389.56 466.512 389.562C466.791 389.562 467.066 389.498 467.317 389.373C467.567 389.249 467.785 389.068 467.954 388.845C472.505 382.842 478.282 377.877 484.901 374.279C491.519 370.682 498.829 368.535 506.342 367.981C506.813 367.936 507.248 367.708 507.555 367.346C507.861 366.983 508.013 366.516 507.979 366.044C507.945 365.572 507.728 365.13 507.373 364.816C507.019 364.501 506.556 364.338 506.083 364.36C498.049 364.943 490.232 367.233 483.152 371.075C476.073 374.918 469.894 380.227 465.028 386.646C464.882 386.835 464.776 387.05 464.714 387.282C464.653 387.512 464.637 387.752 464.669 387.988C464.701 388.225 464.779 388.452 464.9 388.658C465.02 388.864 465.18 389.044 465.37 389.188C465.686 389.429 466.073 389.56 466.47 389.562C466.749 389.562 467.025 389.498 467.275 389.373C467.525 389.249 467.743 389.068 467.913 388.845C472.464 382.842 478.241 377.877 484.859 374.279C491.478 370.682 498.787 368.535 506.301 367.981C506.772 367.936 507.207 367.708 507.513 367.346C507.819 366.983 507.971 366.516 507.938 366.044C507.904 365.572 507.687 365.13 507.331 364.816C506.977 364.501 506.514 364.338 506.041 364.36C498.007 364.943 490.19 367.233 483.11 371.075C476.032 374.918 469.853 380.227 464.986 386.646C464.841 386.835 464.734 387.05 464.673 387.282C464.611 387.512 464.596 387.752 464.628 387.988C464.66 388.225 464.738 388.452 464.858 388.658C464.978 388.864 465.138 389.044 465.328 389.188C465.644 389.429 466.031 389.56 466.429 389.562C466.708 389.562 466.983 389.498 467.234 389.373C467.484 389.249 467.702 389.068 467.871 388.845C472.422 382.842 478.199 377.877 484.818 374.279C491.437 370.682 498.746 368.535 506.259 367.981C506.73 367.936 507.165 367.708 507.471 367.346C507.778 366.983 507.93 366.516 507.896 366.044C507.862 365.572 507.645 365.13 507.29 364.816C506.936 364.501 506.473 364.338 506 364.36H506.124ZM584.083 418.311C583.733 408.023 581.236 397.921 576.75 388.655C572.266 379.389 565.893 371.163 558.042 364.505C555.423 362.24 552.649 360.16 549.742 358.28C537.913 350.755 524.18 346.767 510.16 346.784H509.901C490.965 346.85 472.775 354.171 459.072 367.241C445.369 380.31 437.197 398.134 436.237 417.046C436.164 418.249 436.133 419.453 436.133 420.666V421.071C436.199 440.661 444.027 459.428 457.903 473.259C471.777 487.09 490.569 494.857 510.16 494.86H510.419C528.661 494.798 546.237 488.005 559.78 475.784C573.322 463.563 581.876 446.774 583.803 428.634C584.074 426.036 584.209 423.425 584.208 420.811V420.718C584.208 419.94 584.208 419.173 584.156 418.404L584.083 418.311ZM560.127 470.592C553.623 477.165 545.88 482.383 537.346 485.945C528.812 489.506 519.657 491.341 510.409 491.342H510.16C491.53 491.34 473.66 483.953 460.466 470.802C447.271 457.65 439.827 439.804 439.764 421.175V420.842C439.764 419.629 439.764 418.425 439.857 417.222C440.812 399.259 448.603 382.342 461.632 369.941C474.663 357.54 491.944 350.594 509.932 350.53H510.181C523.394 350.504 536.345 354.224 547.532 361.257C550.47 363.09 553.266 365.144 555.894 367.4C557.274 368.582 558.612 369.807 559.899 371.093C572.485 383.599 579.87 400.406 580.566 418.135C580.566 418.986 580.628 419.847 580.628 420.707C580.684 439.363 573.329 457.276 560.179 470.508L560.127 470.592ZM506.124 364.36C498.09 364.943 490.273 367.233 483.193 371.075C476.115 374.918 469.936 380.227 465.069 386.646C464.924 386.835 464.817 387.05 464.756 387.282C464.694 387.512 464.679 387.752 464.711 387.988C464.743 388.225 464.821 388.452 464.941 388.658C465.061 388.864 465.221 389.044 465.411 389.188C465.727 389.429 466.114 389.56 466.512 389.562C466.791 389.562 467.066 389.498 467.317 389.373C467.567 389.249 467.785 389.068 467.954 388.845C472.505 382.842 478.282 377.877 484.901 374.279C491.519 370.682 498.829 368.535 506.342 367.981C506.813 367.936 507.248 367.708 507.555 367.346C507.861 366.983 508.013 366.516 507.979 366.044C507.945 365.572 507.728 365.13 507.373 364.816C507.019 364.501 506.556 364.338 506.083 364.36C498.049 364.943 490.232 367.233 483.152 371.075C476.073 374.918 469.894 380.227 465.028 386.646C464.882 386.835 464.776 387.05 464.714 387.282C464.653 387.512 464.637 387.752 464.669 387.988C464.701 388.225 464.779 388.452 464.9 388.658C465.02 388.864 465.18 389.044 465.37 389.188C465.686 389.429 466.073 389.56 466.47 389.562C466.749 389.562 467.025 389.498 467.275 389.373C467.525 389.249 467.743 389.068 467.913 388.845C472.464 382.842 478.241 377.877 484.859 374.279C491.478 370.682 498.787 368.535 506.301 367.981C506.772 367.936 507.207 367.708 507.513 367.346C507.819 366.983 507.971 366.516 507.938 366.044C507.904 365.572 507.687 365.13 507.331 364.816C506.977 364.501 506.514 364.338 506.041 364.36C498.007 364.943 490.19 367.233 483.11 371.075C476.032 374.918 469.853 380.227 464.986 386.646C464.841 386.835 464.734 387.05 464.673 387.282C464.611 387.512 464.596 387.752 464.628 387.988C464.66 388.225 464.738 388.452 464.858 388.658C464.978 388.864 465.138 389.044 465.328 389.188C465.644 389.429 466.031 389.56 466.429 389.562C466.708 389.562 466.983 389.498 467.234 389.373C467.484 389.249 467.702 389.068 467.871 388.845C472.422 382.842 478.199 377.877 484.818 374.279C491.437 370.682 498.746 368.535 506.259 367.981C506.73 367.936 507.165 367.708 507.471 367.346C507.778 366.983 507.93 366.516 507.896 366.044C507.862 365.572 507.645 365.13 507.29 364.816C506.936 364.501 506.473 364.338 506 364.36H506.124ZM584.083 418.311C583.733 408.023 581.236 397.921 576.75 388.655C572.266 379.389 565.893 371.163 558.042 364.505C555.423 362.24 552.649 360.16 549.742 358.28C537.913 350.755 524.18 346.767 510.16 346.784H509.901C490.965 346.85 472.775 354.171 459.072 367.241C445.369 380.31 437.197 398.134 436.237 417.046C436.164 418.249 436.133 419.453 436.133 420.666V421.071C436.199 440.661 444.027 459.428 457.903 473.259C471.777 487.09 490.569 494.857 510.16 494.86H510.419C528.661 494.798 546.237 488.005 559.78 475.784C573.322 463.563 581.876 446.774 583.803 428.634C584.074 426.036 584.209 423.425 584.208 420.811V420.718C584.208 419.94 584.208 419.173 584.156 418.404L584.083 418.311ZM560.127 470.592C553.623 477.165 545.88 482.383 537.346 485.945C528.812 489.506 519.657 491.341 510.409 491.342H510.16C491.53 491.34 473.66 483.953 460.466 470.802C447.271 457.65 439.827 439.804 439.764 421.175V420.842C439.764 419.629 439.764 418.425 439.857 417.222C440.812 399.259 448.603 382.342 461.632 369.941C474.663 357.54 491.944 350.594 509.932 350.53H510.181C523.394 350.504 536.345 354.224 547.532 361.257C550.47 363.09 553.266 365.144 555.894 367.4C557.274 368.582 558.612 369.807 559.899 371.093C572.485 383.599 579.87 400.406 580.566 418.135C580.566 418.986 580.628 419.847 580.628 420.707C580.684 439.363 573.329 457.276 560.179 470.508L560.127 470.592ZM506.124 364.36C498.09 364.943 490.273 367.233 483.193 371.075C476.115 374.918 469.936 380.227 465.069 386.646C464.924 386.835 464.817 387.05 464.756 387.282C464.694 387.512 464.679 387.752 464.711 387.988C464.743 388.225 464.821 388.452 464.941 388.658C465.061 388.864 465.221 389.044 465.411 389.188C465.727 389.429 466.114 389.56 466.512 389.562C466.791 389.562 467.066 389.498 467.317 389.373C467.567 389.249 467.785 389.068 467.954 388.845C472.505 382.842 478.282 377.877 484.901 374.279C491.519 370.682 498.829 368.535 506.342 367.981C506.813 367.936 507.248 367.708 507.555 367.346C507.861 366.983 508.013 366.516 507.979 366.044C507.945 365.572 507.728 365.13 507.373 364.816C507.019 364.501 506.556 364.338 506.083 364.36C498.049 364.943 490.232 367.233 483.152 371.075C476.073 374.918 469.894 380.227 465.028 386.646C464.882 386.835 464.776 387.05 464.714 387.282C464.653 387.512 464.637 387.752 464.669 387.988C464.701 388.225 464.779 388.452 464.9 388.658C465.02 388.864 465.18 389.044 465.37 389.188C465.686 389.429 466.073 389.56 466.47 389.562C466.749 389.562 467.025 389.498 467.275 389.373C467.525 389.249 467.743 389.068 467.913 388.845C472.464 382.842 478.241 377.877 484.859 374.279C491.478 370.682 498.787 368.535 506.301 367.981C506.772 367.936 507.207 367.708 507.513 367.346C507.819 366.983 507.971 366.516 507.938 366.044C507.904 365.572 507.687 365.13 507.331 364.816C506.977 364.501 506.514 364.338 506.041 364.36C498.007 364.943 490.19 367.233 483.11 371.075C476.032 374.918 469.853 380.227 464.986 386.646C464.841 386.835 464.734 387.05 464.673 387.282C464.611 387.512 464.596 387.752 464.628 387.988C464.66 388.225 464.738 388.452 464.858 388.658C464.978 388.864 465.138 389.044 465.328 389.188C465.644 389.429 466.031 389.56 466.429 389.562C466.708 389.562 466.983 389.498 467.234 389.373C467.484 389.249 467.702 389.068 467.871 388.845C472.422 382.842 478.199 377.877 484.818 374.279C491.437 370.682 498.746 368.535 506.259 367.981C506.73 367.936 507.165 367.708 507.471 367.346C507.778 366.983 507.93 366.516 507.896 366.044C507.862 365.572 507.645 365.13 507.29 364.816C506.936 364.501 506.473 364.338 506 364.36" fill="#00ADA8"/>
    <path d="M815.763 283.485C805.968 286.37 801.029 286.598 800.096 286.598H799.961C798.585 286.497 797.225 286.947 796.182 287.85C795.138 288.751 794.495 290.031 794.395 291.406C794.294 292.782 794.744 294.142 795.646 295.185C796.548 296.23 797.828 296.872 799.203 296.973C799.847 296.973 805.813 297.305 818.719 293.507C830.972 289.908 837.394 278.308 834.79 264.654C832.415 252.339 821.884 244.703 807.285 244.703H807.14C806.528 244.703 803.374 244.775 799.411 244.889C791.765 245.097 781.088 245.418 779.78 245.47C778.565 245.992 777.201 246.056 775.943 245.646C773.151 245.812 767.995 246.052 762.672 246.28L760.597 246.363L755.606 246.57L745.107 246.985C744.29 246.937 743.472 247.083 742.722 247.412C741.972 247.74 741.309 248.242 740.79 248.876C740.271 249.509 739.908 250.257 739.734 251.057C739.559 251.857 739.576 252.688 739.784 253.48C739.867 253.791 745.522 275.268 755.409 305.637L704.509 306.694L693.459 306.943C692.683 306.961 691.92 307.152 691.229 307.503C690.568 307.246 689.862 307.123 689.154 307.14L663.392 307.961L661.918 308.012L607.656 309.704L594.987 310.108L582.195 286.359L580.255 282.728H571.114C570.523 283.842 570.357 285.132 570.647 286.359C570.75 286.8 570.91 287.226 571.124 287.624L585.277 313.937L558.218 347.853L555.936 350.696L549.711 358.425L547.428 361.289L513.48 403.703L510.679 407.2L504.153 415.354C503.561 416.095 503.183 416.984 503.061 417.924C502.939 418.863 503.077 419.82 503.46 420.687C503.843 421.554 504.456 422.3 505.233 422.843C506.01 423.387 506.921 423.707 507.867 423.769L517.474 424.401L522.03 424.702L580.131 428.541L583.762 428.779L593.598 429.423L597.229 429.662L616.724 430.949L621.051 431.239L622.357 431.322L652.197 433.293H652.549C653.326 433.293 654.093 433.119 654.794 432.783C655.494 432.447 656.11 431.958 656.596 431.353L672.626 413.943L674.358 412.065L677.315 408.849L705.328 378.377L708.005 375.472C708.119 375.348 708.223 375.213 708.327 375.088C708.764 374.83 709.162 374.512 709.509 374.144L713.867 369.506L760.234 320.151C763.346 329.426 766.864 339.262 770.609 349.367L770.921 350.219C771.263 351.121 771.595 352.024 771.959 352.905C773.224 356.174 774.542 359.328 775.88 362.347C776.399 363.52 776.917 364.661 777.436 365.782C795.561 404.771 818.242 422.285 819.321 423.095C820.422 423.92 821.806 424.274 823.167 424.079C824.529 423.885 825.758 423.158 826.584 422.057C827.41 420.956 827.764 419.573 827.569 418.21C827.374 416.848 826.647 415.62 825.547 414.794C825.307 414.607 803.239 397.571 785.996 359.598C785.487 358.498 784.958 357.378 784.512 356.247C783.225 353.286 781.981 350.208 780.777 347.012C780.715 346.867 780.663 346.712 780.601 346.556L779.48 343.568C765.162 304.858 755.233 270.63 751.467 257.008L761.759 256.582C767.559 256.333 773.379 256.074 776.482 255.887C777.096 255.849 777.7 255.705 778.266 255.461C778.867 255.663 779.5 255.751 780.134 255.721C782.095 255.638 797.772 255.192 804.298 255.026L807.088 254.964H807.223C811.851 254.964 822.558 256.105 824.56 266.511C825.775 272.736 824.187 280.964 815.752 283.443L815.763 283.485ZM622.544 420.937H622.472L618.042 420.645L597.644 419.297L594.013 419.059L584.125 418.404L580.483 418.166L522.444 414.337L518.502 414.078L521.043 410.903L555.811 367.431L558.083 364.598L564.236 356.9L566.508 354.068L590.63 323.907L622.026 382.33L632.297 401.421L634.372 405.239L643.554 422.305L622.544 420.937ZM705.629 363.187L701.998 367.047C701.871 367.181 701.754 367.324 701.645 367.473C701.19 367.734 700.778 368.063 700.421 368.448L692.359 377.142L683.634 386.615L683.053 387.248L671.982 399.263L669.669 401.784L666.702 404.999L653.67 419.225L643.938 401.12L641.863 397.198L620.438 357.357L600.538 320.348L612.014 319.985L657.468 318.533L665.405 318.284L689.516 317.515C690.274 317.485 691.017 317.294 691.695 316.955C692.353 317.222 693.061 317.345 693.77 317.318L699.995 317.184L750.005 316.074L705.629 363.187Z" fill="#00ADA8"/>
    <path d="M522.413 414.337C522.076 413.144 521.606 411.992 521.012 410.903C519.319 407.772 516.684 405.254 513.48 403.703C511.189 402.599 508.677 402.031 506.135 402.043H506.072C501.741 402.054 497.58 403.727 494.449 406.718C491.317 409.709 489.453 413.789 489.243 418.114V419.007C489.252 423.484 491.038 427.776 494.209 430.938C497.38 434.098 501.677 435.871 506.155 435.866C509.618 435.852 512.994 434.776 515.828 432.783C518.66 430.791 520.814 427.978 521.998 424.723C523.209 421.39 523.343 417.761 522.382 414.348L522.413 414.337ZM506.145 431.54C503.656 431.54 501.224 430.804 499.154 429.423C497.084 428.042 495.469 426.079 494.514 423.781C493.558 421.484 493.304 418.955 493.784 416.513C494.265 414.072 495.457 411.827 497.211 410.063C498.373 408.883 499.756 407.948 501.283 407.311C502.81 406.672 504.449 406.346 506.104 406.348C507.658 406.345 509.201 406.637 510.648 407.21C513.009 408.124 515.039 409.729 516.476 411.815C517.912 413.901 518.686 416.37 518.699 418.903C518.704 420.797 518.275 422.667 517.443 424.37C516.418 426.498 514.815 428.295 512.817 429.556C510.819 430.816 508.507 431.489 506.145 431.498" fill="#00ADA8"/>
    <path d="M677.295 408.859C675.784 406.951 674.072 405.213 672.19 403.672C671.381 403.021 670.541 402.399 669.669 401.804C664.489 398.333 658.452 396.353 652.222 396.082C645.992 395.811 639.807 397.258 634.344 400.266C628.882 403.274 624.351 407.726 621.249 413.136C618.147 418.545 616.592 424.703 616.756 430.938V431.177C617.004 439.15 620.069 446.778 625.408 452.706C626.082 453.463 626.788 454.188 627.483 454.884C633.761 460.785 642.056 464.062 650.672 464.045H651.854C656.322 463.905 660.719 462.88 664.788 461.03C668.857 459.179 672.519 456.54 675.562 453.266C681.136 447.308 684.378 439.543 684.697 431.39C685.015 423.238 682.387 415.244 677.295 408.869V408.859ZM675.323 446.656C674.453 447.954 673.478 449.18 672.408 450.318C667.031 456.074 659.587 459.459 651.715 459.727C643.843 459.995 636.186 457.127 630.429 451.751C628.84 450.264 627.416 448.608 626.186 446.812C624.409 444.203 623.051 441.333 622.16 438.304C621.501 436.007 621.121 433.638 621.03 431.249C621.025 431.184 621.025 431.118 621.03 431.052C620.911 427.626 621.392 424.206 622.451 420.947C622.472 420.866 622.503 420.79 622.544 420.718C624.651 414.392 628.815 408.952 634.372 405.27C638.936 402.24 644.253 400.541 649.728 400.362H650.766C654.843 400.373 658.875 401.22 662.612 402.851C666.348 404.482 669.711 406.862 672.491 409.845C673.163 410.565 673.796 411.32 674.39 412.107C678.163 417.034 680.294 423.022 680.48 429.225C680.667 435.428 678.899 441.533 675.427 446.677" fill="#00ADA8"/>
    <path d="M685.449 374.849C685.306 374.648 685.122 374.479 684.909 374.352C684.697 374.225 684.46 374.144 684.214 374.113L670.55 372.359L645.09 369.101C644.855 369.063 644.614 369.071 644.382 369.126C644.15 369.181 643.932 369.282 643.739 369.422C643.546 369.562 643.383 369.738 643.259 369.941C643.134 370.145 643.052 370.37 643.015 370.606V370.668L641.625 381.386C641.594 381.626 641.612 381.869 641.676 382.103C641.74 382.336 641.849 382.554 641.998 382.745C642.16 382.932 642.358 383.083 642.581 383.191C642.805 383.298 643.048 383.358 643.295 383.368L671.36 386.48L681.859 387.611H682.056C682.426 387.618 682.79 387.509 683.094 387.3C683.339 387.142 683.539 386.923 683.675 386.666C683.768 386.502 683.835 386.323 683.872 386.138L685.781 376.385V376.281C685.831 376.037 685.829 375.786 685.776 375.543C685.722 375.3 685.618 375.07 685.47 374.87L685.449 374.849ZM680.605 383.814L671.184 382.776L645.526 380.006L646.449 372.929L670.8 376.042L681.849 377.464L680.605 383.814Z" fill="#00ADA8"/>
    <path d="M736.61 190.335C733.915 187.66 731.576 184.652 729.648 181.382C725.498 174.005 712.612 149.125 700.598 130.875C695.793 123.612 691.125 117.387 687.224 113.725C681.494 108.18 674.786 103.747 667.438 100.652C665.601 99.9172 663.723 99.2868 661.815 98.7637C655.592 97.1052 649.14 96.4744 642.714 96.8961C637.846 97.1758 633.009 97.8524 628.251 98.9192C600.694 104.926 563.334 120.562 540.601 158.493C522.652 188.458 521.864 215.226 530.495 232.335L611.35 205.359C611.35 205.359 611.993 199.134 630.025 181.879C648.057 164.626 664.076 165.559 675.323 176.692C687.504 188.8 699.062 197.39 707.175 205.006C712.84 210.266 745.377 237.771 755.637 246.424L758.75 249.038L758.823 248.986L762.61 246.206L779.937 233.403L736.61 190.335Z" fill="#D3D9E5"/>
    <path d="M165.121 348.921C164.681 348.92 164.256 348.758 163.926 348.466C163.594 348.174 163.382 347.772 163.326 347.334L150.254 244.692C150.218 244.448 150.232 244.199 150.295 243.96C150.358 243.721 150.469 243.498 150.622 243.304C150.774 243.11 150.965 242.949 151.181 242.831C151.398 242.713 151.637 242.64 151.882 242.617L200.864 237.844C201.107 237.809 201.354 237.824 201.591 237.888C201.828 237.951 202.05 238.062 202.242 238.215C202.435 238.366 202.595 238.555 202.713 238.77C202.831 238.985 202.904 239.221 202.928 239.465C202.951 239.709 202.926 239.955 202.852 240.19C202.778 240.424 202.657 240.64 202.497 240.826C202.338 241.012 202.142 241.163 201.922 241.271C201.702 241.379 201.461 241.442 201.217 241.455L154.093 246.051L166.927 346.846C166.963 347.086 166.952 347.33 166.892 347.566C166.833 347.801 166.727 348.021 166.581 348.214C166.435 348.408 166.252 348.57 166.043 348.691C165.832 348.813 165.6 348.891 165.36 348.921H165.132" fill="#00ADA8"/>
    <path d="M169.064 263.595C168.586 263.595 168.127 263.405 167.788 263.067L151.862 247.265C151.675 247.102 151.524 246.902 151.418 246.678C151.311 246.454 151.252 246.211 151.243 245.962C151.234 245.715 151.276 245.468 151.367 245.237C151.457 245.006 151.594 244.796 151.768 244.62C151.943 244.444 152.152 244.306 152.383 244.214C152.613 244.121 152.859 244.077 153.107 244.084C153.355 244.091 153.599 244.148 153.823 244.253C154.049 244.358 154.25 244.507 154.415 244.692L170.341 260.494C170.599 260.746 170.775 261.07 170.848 261.424C170.921 261.777 170.887 262.146 170.75 262.48C170.613 262.814 170.379 263.099 170.079 263.3C169.778 263.5 169.425 263.607 169.064 263.606" fill="#00ADA8"/>
    <path d="M490.084 418.103H489.243L439.795 417.264L436.174 417.201L426.307 417.035L422.676 416.973L359.46 415.935L361.919 353.85C361.939 353.424 361.806 353.004 361.545 352.667L339.301 318.076C339.13 317.818 338.897 317.607 338.622 317.462C338.349 317.317 338.044 317.243 337.734 317.246L313.716 317.776H312.003C311.531 317.786 311.082 317.981 310.75 318.318C310.418 318.655 310.232 319.108 310.229 319.581V319.705C310.256 320.166 310.457 320.599 310.793 320.915C311.13 321.231 311.573 321.407 312.035 321.406H313.964L336.789 320.898L356.71 351.848L316.475 351.131L312.823 351.069L184.928 348.787L181.234 348.714L166.325 348.455H163.855L145.533 348.092L120.902 325.692H160.754C161.235 325.692 161.697 325.501 162.037 325.159C162.378 324.819 162.569 324.357 162.569 323.876C162.569 323.394 162.378 322.932 162.037 322.592C161.697 322.252 161.235 322.06 160.754 322.06H116.233C116.043 322.065 115.854 322.096 115.673 322.154C115.392 322.249 115.139 322.413 114.937 322.631L114.812 322.776C114.61 323.045 114.485 323.364 114.449 323.7C109.967 365.719 103.036 429.133 102.372 432.317C102.334 432.421 102.309 432.529 102.299 432.639C102.294 432.708 102.294 432.778 102.299 432.847C102.298 433.048 102.33 433.248 102.392 433.438C102.479 433.683 102.614 433.909 102.788 434.102C102.901 434.219 103.03 434.32 103.171 434.403L137.855 456.409C138.144 456.591 138.479 456.688 138.82 456.69H356.098C356.567 456.69 357.019 456.508 357.357 456.183C357.696 455.858 357.895 455.415 357.914 454.946L359.315 419.504L422.604 420.541L426.224 420.604L436.08 420.77L439.712 420.833L489.513 421.683H490.084C490.323 421.691 490.56 421.652 490.783 421.567C491.006 421.481 491.21 421.352 491.382 421.187C491.554 421.022 491.691 420.822 491.786 420.603C491.881 420.384 491.93 420.148 491.931 419.909C491.937 419.427 491.752 418.963 491.418 418.615C491.084 418.267 490.628 418.065 490.146 418.052L490.084 418.103ZM137.129 451.688L106.003 431.975C107.549 421.268 114.303 358.996 117.613 327.642L142.929 350.664L137.129 451.688ZM354.355 453.058H140.688L146.529 351.734L358.183 355.51L354.355 453.058Z" fill="#00ADA8"/>
    <path d="M252.688 407.054C240.92 405.859 229.157 409.38 219.981 416.844C210.804 424.309 204.963 435.109 203.739 446.874C203.528 448.942 203.458 451.022 203.531 453.099C203.531 454.313 203.656 455.527 203.811 456.731C205.005 466.798 209.593 476.158 216.817 483.27C224.042 490.381 233.474 494.821 243.559 495.855C245.085 496.012 246.619 496.091 248.155 496.094C259.065 496.068 269.591 492.05 277.744 484.8C285.897 477.548 291.116 467.564 292.415 456.731C292.415 456.502 292.477 456.274 292.498 456.046C292.602 455.009 292.664 454.074 292.705 453.099C293.104 441.788 289.193 430.748 281.765 422.209C274.337 413.67 263.945 408.268 252.688 407.096V407.054ZM288.888 455.672C288.888 456.025 288.815 456.377 288.763 456.71C287.47 466.577 282.632 475.638 275.153 482.201C267.672 488.766 258.06 492.385 248.108 492.385C238.156 492.385 228.544 488.766 221.063 482.201C213.584 475.638 208.746 466.577 207.453 456.71C207.307 455.506 207.203 454.302 207.162 453.079C207.088 451.136 207.154 449.191 207.359 447.258C208.41 437.18 213.151 427.847 220.672 421.057C228.193 414.265 237.96 410.497 248.092 410.478C249.503 410.473 250.912 410.546 252.315 410.695C262.394 411.741 271.73 416.48 278.522 423.999C285.316 431.518 289.086 441.286 289.106 451.419V453.079C289.106 453.929 289.002 454.791 288.919 455.651L288.888 455.672ZM252.719 407.075C240.951 405.879 229.188 409.4 220.012 416.864C210.836 424.329 204.994 435.13 203.77 446.895C203.56 448.963 203.49 451.043 203.562 453.12C203.562 454.334 203.687 455.548 203.842 456.752C205.036 466.819 209.624 476.178 216.848 483.291C224.073 490.402 233.505 494.841 243.59 495.876C245.116 496.032 246.65 496.112 248.186 496.114C259.098 496.088 269.622 492.071 277.775 484.82C285.928 477.569 291.147 467.585 292.446 456.752C292.446 456.523 292.508 456.294 292.529 456.066C292.633 455.029 292.695 454.095 292.737 453.12C293.135 441.809 289.224 430.769 281.796 422.23C274.368 413.691 263.977 408.289 252.719 407.117V407.075ZM288.919 455.693C288.919 456.046 288.846 456.398 288.794 456.731C287.501 466.598 282.663 475.658 275.184 482.222C267.703 488.787 258.091 492.405 248.139 492.405C238.187 492.405 228.575 488.787 221.094 482.222C213.615 475.658 208.777 466.598 207.484 456.731C207.338 455.527 207.234 454.323 207.193 453.099C207.119 451.157 207.185 449.212 207.39 447.279C208.441 437.201 213.183 427.868 220.703 421.077C228.224 414.286 237.991 410.518 248.124 410.498C249.534 410.494 250.943 410.567 252.346 410.716C262.425 411.762 271.761 416.501 278.553 424.02C285.347 431.539 289.117 441.306 289.137 451.439V453.099C289.137 453.95 289.033 454.812 288.95 455.672L288.919 455.693ZM252.751 407.096C240.982 405.9 229.219 409.421 220.044 416.885C210.867 424.35 205.025 435.15 203.801 446.916C203.591 448.984 203.521 451.064 203.593 453.141C203.593 454.354 203.718 455.569 203.873 456.772C205.067 466.84 209.655 476.199 216.879 483.311C224.105 490.423 233.536 494.862 243.621 495.897C245.147 496.053 246.681 496.133 248.217 496.135C259.129 496.109 269.653 492.092 277.806 484.841C285.959 477.589 291.178 467.606 292.477 456.772C292.477 456.543 292.539 456.315 292.56 456.087C292.664 455.05 292.726 454.116 292.768 453.141C293.166 441.83 289.256 430.79 281.827 422.251C274.399 413.712 264.008 408.31 252.751 407.137V407.096ZM288.95 455.714C288.95 456.066 288.877 456.419 288.825 456.752C287.533 466.619 282.694 475.679 275.215 482.243C267.734 488.808 258.122 492.427 248.17 492.427C238.218 492.427 228.606 488.808 221.126 482.243C213.646 475.679 208.808 466.619 207.515 456.752C207.369 455.548 207.265 454.344 207.224 453.12C207.15 451.178 207.216 449.233 207.421 447.3C208.472 437.222 213.214 427.888 220.734 421.098C228.255 414.307 238.022 410.539 248.155 410.519C249.565 410.515 250.974 410.587 252.377 410.737C262.456 411.783 271.792 416.521 278.585 424.041C285.378 431.56 289.148 441.327 289.168 451.46V453.12C289.168 453.971 289.065 454.832 288.982 455.693L288.95 455.714ZM252.782 407.117C241.013 405.921 229.251 409.442 220.075 416.906C210.898 424.371 205.057 435.171 203.832 446.937C203.622 449.005 203.552 451.084 203.625 453.162C203.625 454.375 203.749 455.589 203.905 456.793C205.098 466.86 209.686 476.22 216.91 483.332C224.136 490.444 233.567 494.883 243.652 495.917C245.179 496.074 246.713 496.154 248.248 496.156C259.16 496.13 269.684 492.112 277.837 484.862C285.991 477.61 291.209 467.626 292.508 456.793C292.508 456.564 292.571 456.336 292.591 456.108C292.695 455.071 292.757 454.136 292.799 453.162C293.197 441.851 289.287 430.81 281.859 422.271C274.43 413.733 264.039 408.331 252.782 407.158V407.117ZM288.982 455.734C288.982 456.087 288.909 456.44 288.856 456.772C287.564 466.64 282.725 475.7 275.246 482.264C267.765 488.828 258.153 492.448 248.201 492.448C238.249 492.448 228.637 488.828 221.157 482.264C213.677 475.7 208.839 466.64 207.546 456.772C207.4 455.569 207.297 454.365 207.255 453.141C207.181 451.199 207.247 449.253 207.453 447.32C208.503 437.242 213.245 427.909 220.765 421.119C228.286 414.328 238.053 410.559 248.186 410.54C249.597 410.535 251.006 410.608 252.408 410.758C262.487 411.804 271.823 416.542 278.616 424.061C285.409 431.581 289.179 441.348 289.199 451.481V453.141C289.199 453.991 289.096 454.853 289.013 455.714L288.982 455.734ZM292.56 415.479C285.445 406.674 275.873 400.183 265.062 396.828C254.25 393.474 242.685 393.407 231.836 396.636C220.986 399.866 211.34 406.245 204.123 414.967C196.905 423.688 192.442 434.356 191.298 445.619C191.038 448.099 190.948 450.595 191.028 453.089C191.028 454.313 191.122 455.517 191.236 456.721C192.443 469.9 198.194 482.25 207.505 491.657C216.814 501.064 229.105 506.942 242.272 508.285C253.763 509.497 265.349 507.162 275.473 501.593C279.35 499.468 282.97 496.907 286.263 493.957C296.834 484.495 303.495 471.426 304.939 457.312V456.721C305.063 455.506 305.136 454.302 305.167 453.089C305.599 439.403 301.058 426.023 292.384 415.427L292.56 415.479ZM301.297 456.721C301.302 456.797 301.302 456.873 301.297 456.949C299.951 470.145 293.749 482.371 283.895 491.252C274.041 500.132 261.239 505.035 247.974 505.007C234.708 504.978 221.927 500.021 212.112 491.098C202.296 482.175 196.147 469.922 194.857 456.721C194.733 455.517 194.66 454.313 194.618 453.089C194.396 445.927 195.614 438.794 198.2 432.111C200.786 425.43 204.689 419.335 209.677 414.19C214.663 409.046 220.633 404.954 227.231 402.161C233.83 399.368 240.922 397.929 248.087 397.929C255.253 397.929 262.344 399.368 268.942 402.161C275.541 404.954 281.511 409.046 286.498 414.19C291.485 419.335 295.388 425.43 297.974 432.111C300.561 438.794 301.779 445.927 301.556 453.089C301.556 454.292 301.442 455.506 301.318 456.721H301.297ZM252.657 407.086C240.888 405.89 229.126 409.411 219.95 416.875C210.773 424.34 204.932 435.14 203.707 446.906C203.497 448.973 203.427 451.053 203.5 453.131C203.5 454.344 203.625 455.558 203.78 456.762C204.974 466.829 209.562 476.189 216.786 483.301C224.011 490.412 233.443 494.852 243.528 495.886C245.054 496.043 246.588 496.122 248.124 496.125C259.034 496.099 269.56 492.081 277.713 484.831C285.866 477.579 291.085 467.595 292.384 456.762C292.384 456.533 292.446 456.305 292.467 456.077C292.571 455.04 292.633 454.105 292.674 453.131C293.072 441.82 289.162 430.779 281.734 422.24C274.306 413.702 263.914 408.3 252.657 407.127V407.086ZM289.044 453.131C289.044 453.981 288.94 454.843 288.856 455.703C288.856 456.056 288.784 456.409 288.732 456.741C287.439 466.609 282.601 475.669 275.122 482.232C267.641 488.797 258.029 492.416 248.077 492.416C238.125 492.416 228.513 488.797 221.032 482.232C213.553 475.669 208.714 466.609 207.421 456.741C207.276 455.537 207.172 454.334 207.131 453.11C207.057 451.167 207.123 449.222 207.328 447.289C208.379 437.211 213.12 427.878 220.641 421.088C228.162 414.296 237.929 410.528 248.061 410.509C249.472 410.504 250.881 410.577 252.284 410.726C262.363 411.772 271.699 416.511 278.491 424.03C285.285 431.549 289.055 441.317 289.075 451.45V453.11L289.044 453.131ZM252.688 407.106C240.92 405.91 229.157 409.431 219.981 416.896C210.804 424.361 204.963 435.161 203.739 446.926C203.528 448.994 203.458 451.074 203.531 453.151C203.531 454.365 203.656 455.579 203.811 456.783C205.005 466.85 209.593 476.21 216.817 483.322C224.042 490.433 233.474 494.872 243.559 495.907C245.085 496.064 246.619 496.143 248.155 496.146C259.065 496.119 269.591 492.102 277.744 484.851C285.897 477.6 291.116 467.616 292.415 456.783C292.415 456.554 292.477 456.326 292.498 456.097C292.602 455.06 292.664 454.126 292.705 453.151C293.104 441.84 289.193 430.8 281.765 422.261C274.337 413.722 263.945 408.32 252.688 407.148V407.106ZM288.888 455.724C288.888 456.077 288.815 456.429 288.763 456.762C287.47 466.63 282.632 475.69 275.153 482.253C267.672 488.818 258.06 492.438 248.108 492.438C238.156 492.438 228.544 488.818 221.063 482.253C213.584 475.69 208.746 466.63 207.453 456.762C207.307 455.558 207.203 454.354 207.162 453.131C207.088 451.188 207.154 449.243 207.359 447.31C208.41 437.232 213.151 427.899 220.672 421.108C228.193 414.317 237.96 410.549 248.092 410.529C249.503 410.525 250.912 410.598 252.315 410.747C262.394 411.793 271.73 416.532 278.522 424.051C285.316 431.57 289.086 441.337 289.106 451.47V453.131C289.106 453.981 289.002 454.843 288.919 455.703L288.888 455.724ZM252.719 407.127C240.951 405.931 229.188 409.452 220.012 416.917C210.836 424.381 204.994 435.181 203.77 446.947C203.56 449.015 203.49 451.095 203.562 453.172C203.562 454.385 203.687 455.6 203.842 456.804C205.036 466.871 209.624 476.23 216.848 483.342C224.073 490.454 233.505 494.893 243.59 495.928C245.116 496.084 246.65 496.164 248.186 496.166C259.098 496.14 269.622 492.123 277.775 484.872C285.928 477.621 291.147 467.637 292.446 456.804C292.446 456.574 292.508 456.346 292.529 456.118C292.633 455.081 292.695 454.147 292.737 453.172C293.135 441.861 289.224 430.821 281.796 422.282C274.368 413.743 263.977 408.341 252.719 407.169V407.127ZM288.919 455.745C288.919 456.097 288.846 456.45 288.794 456.783C287.501 466.65 282.663 475.71 275.184 482.274C267.703 488.839 258.091 492.458 248.139 492.458C238.187 492.458 228.575 488.839 221.094 482.274C213.615 475.71 208.777 466.65 207.484 456.783C207.338 455.579 207.234 454.375 207.193 453.151C207.119 451.209 207.185 449.264 207.39 447.331C208.441 437.253 213.183 427.919 220.703 421.129C228.224 414.338 237.991 410.57 248.124 410.55C249.534 410.546 250.943 410.618 252.346 410.768C262.425 411.814 271.761 416.552 278.553 424.072C285.347 431.591 289.117 441.358 289.137 451.491V453.151C289.137 454.002 289.033 454.863 288.95 455.724" fill="#00ADA8"/>
    <path d="M314.732 353.352C314.276 353.351 313.838 353.178 313.504 352.869C313.17 352.559 312.964 352.136 312.927 351.682L304.699 251.602L171.191 263.419L185.011 348.942C185.088 349.419 184.973 349.906 184.691 350.297C184.409 350.688 183.983 350.95 183.506 351.027C183.03 351.104 182.543 350.989 182.152 350.707C181.761 350.425 181.498 350 181.421 349.524L167.29 262.071C167.253 261.826 167.267 261.577 167.331 261.338C167.394 261.1 167.505 260.877 167.657 260.683C167.81 260.488 168.001 260.327 168.218 260.209C168.435 260.091 168.673 260.019 168.919 259.996L306.193 247.867C306.436 247.838 306.682 247.858 306.917 247.927C307.152 247.996 307.37 248.112 307.559 248.267C307.747 248.422 307.903 248.613 308.016 248.83C308.129 249.046 308.197 249.283 308.217 249.527L316.589 351.412C316.609 351.65 316.582 351.889 316.509 352.116C316.437 352.343 316.32 352.554 316.166 352.736C316.012 352.918 315.823 353.068 315.611 353.177C315.399 353.286 315.168 353.352 314.93 353.373H314.773" fill="#00ADA8"/>
    <path d="M323.448 169.492L297.924 149.042C297.633 148.799 297.267 148.659 296.886 148.647L199.214 146.189C198.743 146.174 198.284 146.346 197.937 146.665C197.589 146.986 197.381 147.429 197.357 147.901V149.094L192.595 235.851C192.578 236.209 192.667 236.564 192.852 236.87C193.037 237.177 193.308 237.422 193.632 237.573L195.272 238.394L201.362 241.506L213.034 247.368C213.268 247.491 213.527 247.559 213.792 247.565L308.185 250.356L314.908 250.553C315.361 250.553 315.797 250.383 316.131 250.078C316.464 249.772 316.672 249.354 316.714 248.904L324.049 171.09C324.078 170.79 324.032 170.487 323.914 170.21C323.796 169.932 323.611 169.689 323.375 169.502L323.448 169.492ZM313.373 246.87L214.197 243.933L196.133 234.907L200.657 152.548L200.802 149.872L203.188 149.934L296.098 152.268L320.418 171.712L313.373 246.87Z" fill="#00ADA8"/>
    <path d="M218.969 166.971C218.549 166.971 218.142 166.824 217.818 166.555L197.877 150.245C197.503 149.94 197.267 149.499 197.219 149.02C197.172 148.539 197.316 148.061 197.622 147.688C197.928 147.315 198.369 147.079 198.848 147.032C199.327 146.984 199.806 147.129 200.18 147.434L220.121 163.754C220.409 163.992 220.617 164.312 220.716 164.673C220.815 165.033 220.801 165.415 220.675 165.767C220.549 166.118 220.318 166.422 220.012 166.639C219.707 166.854 219.342 166.97 218.969 166.971" fill="#00ADA8"/>
    <path d="M530.454 232.335C539.086 249.443 545.799 265.618 578.802 264.498C602.905 263.677 644.852 267.195 651.522 268.129C658.193 269.062 673.445 272.818 669.679 287.115C665.913 301.412 643.222 350.062 643.222 350.062L683.229 353.735C683.229 353.735 713.483 288.879 717.249 274.582C719.739 265.099 720.839 239.306 697.101 228.931C673.362 218.556 611.308 205.411 611.308 205.411L530.454 232.335Z" fill="#C82232"/>
    <path d="M643.222 350.053L683.229 353.726C683.229 353.726 708.97 363.166 712.799 367.908C716.627 372.65 715.693 378.377 706.169 378.408C696.645 378.439 632.806 369.132 632.806 369.132L643.222 350.053Z" fill="#FFC927"/>
    <path d="M779.968 233.403C779.968 233.403 798.902 241.029 802.741 249.111C806.58 257.193 803.063 261.758 797.335 259.393C791.609 257.027 791.962 258.843 792.449 262.174C792.937 265.503 787.75 268.741 783.402 265.286C780.652 263.107 779.355 265.773 779.189 268.15C778.961 271.262 775.88 274.375 770.63 271.034C765.38 267.693 758.294 247.793 758.294 247.793L779.968 233.403Z" fill="#FF8631"/>
    <path d="M602.385 266.947C601.391 265.948 600.219 265.143 598.93 264.571C597.507 263.952 595.97 263.634 594.417 263.637L570.253 263.72H564.754L545.861 263.782C542.853 263.782 539.969 264.977 537.843 267.104C535.716 269.23 534.521 272.115 534.521 275.123C534.521 278.131 535.716 281.015 537.843 283.141C539.969 285.268 542.853 286.463 545.861 286.463L570.627 286.38H594.458C596.7 286.373 598.889 285.701 600.749 284.45C602.608 283.199 604.055 281.424 604.906 279.35C605.757 277.277 605.974 274.997 605.529 272.801C605.084 270.604 603.997 268.588 602.406 267.009L602.385 266.947ZM580.245 282.728H571.104L545.861 282.811C543.817 282.811 541.856 281.999 540.41 280.553C538.964 279.107 538.152 277.146 538.152 275.102C538.152 273.057 538.964 271.097 540.41 269.651C541.856 268.206 543.817 267.393 545.861 267.393L594.427 267.227C596.472 267.227 598.433 268.04 599.879 269.485C601.325 270.931 602.136 272.891 602.136 274.936C602.136 276.98 601.325 278.941 599.879 280.387C598.433 281.833 596.472 282.645 594.427 282.645L580.245 282.728Z" fill="#00ADA8"/>
    <path d="M213.678 247.452H213.554C213.073 247.42 212.625 247.199 212.308 246.837C211.991 246.475 211.831 246.002 211.862 245.522L217.143 165.031C217.177 164.555 217.396 164.113 217.754 163.797C218.11 163.481 218.576 163.317 219.052 163.34L322.389 169.005C322.635 169.006 322.88 169.056 323.106 169.154C323.332 169.252 323.536 169.394 323.705 169.573C323.875 169.752 324.006 169.964 324.091 170.195C324.175 170.426 324.212 170.674 324.199 170.92C324.185 171.166 324.122 171.406 324.013 171.627C323.903 171.848 323.75 172.044 323.562 172.203C323.375 172.363 323.157 172.483 322.921 172.556C322.685 172.629 322.437 172.653 322.192 172.626L220.65 167.065L215.463 245.771C215.434 246.231 215.23 246.663 214.895 246.978C214.56 247.294 214.118 247.471 213.657 247.472" fill="#00ADA8"/>
</svg>
