<svg width="100%" preserveAspectRatio="xMaxYMid meet" viewBox="0 0 910 512" fill="none"
    xmlns="http://www.w3.org/2000/svg">
    <path d="M782.344 467.652C782.344 468.812 781.882 469.927 781.061 470.748C780.24 471.57 779.126 472.031 777.965 472.031H146.357C145.196 472.031 144.082 471.57 143.26 470.748C142.439 469.927 141.978 468.812 141.978 467.652C141.978 466.49 142.439 465.376 143.26 464.554C144.082 463.733 145.196 463.272 146.357 463.272H264.595C274.765 467.058 285.957 467.058 296.126 463.272H481.815C488.24 465.128 494.896 466.066 501.583 466.058H501.829C508.415 466.041 514.965 465.103 521.291 463.272H748.835C754.192 464.546 759.681 465.187 765.188 465.182H765.476C770.298 465.171 775.104 464.669 779.823 463.683C780.37 463.939 780.858 464.303 781.259 464.755C781.658 465.207 781.959 465.737 782.144 466.311C782.286 466.747 782.357 467.202 782.354 467.66" fill="#E8EBEE"/>
    <path d="M91.2475 369.911C90.8409 369.911 90.4511 369.75 90.1635 369.462C89.8761 369.175 89.7146 368.785 89.7146 368.379C89.7146 367.972 89.8761 367.582 90.1635 367.295C90.4511 367.008 90.8409 366.846 91.2475 366.846L137.563 366.512C137.97 366.512 138.36 366.675 138.647 366.962C138.935 367.249 139.096 367.639 139.096 368.046C139.096 368.452 138.935 368.842 138.647 369.129C138.36 369.417 137.97 369.579 137.563 369.579L91.2475 369.911Z" fill="#00ADA8"/>
    <path d="M72.4166 385.166C72.0101 385.166 71.6202 385.003 71.3327 384.716C71.0453 384.429 70.8838 384.039 70.8838 383.633C70.8838 383.226 71.0453 382.836 71.3327 382.549C71.6202 382.262 72.01 382.1 72.4166 382.1L123.559 381.171C123.965 381.171 124.355 381.333 124.642 381.62C124.93 381.908 125.091 382.298 125.091 382.704C125.091 383.11 124.93 383.501 124.642 383.788C124.355 384.076 123.965 384.237 123.559 384.237L72.4166 385.166Z" fill="#00ADA8"/>
    <path d="M78.3725 353.129C77.966 353.129 77.5761 352.967 77.2887 352.679C77.0012 352.392 76.8397 352.003 76.8397 351.596C76.8397 351.189 77.0012 350.799 77.2887 350.512C77.5761 350.225 77.966 350.063 78.3725 350.063L129.515 349.135C129.717 349.129 129.918 349.163 130.106 349.237C130.294 349.309 130.466 349.419 130.611 349.559C130.757 349.7 130.872 349.868 130.952 350.054C131.031 350.24 131.073 350.44 131.074 350.642C131.077 350.842 131.041 351.043 130.967 351.23C130.893 351.417 130.783 351.589 130.643 351.733C130.503 351.878 130.336 351.994 130.152 352.074C129.967 352.154 129.768 352.197 129.567 352.201L78.4251 353.129H78.3725Z" fill="#00ADA8"/>
    <path d="M520.729 70.952C520.504 70.9531 520.284 70.8848 520.099 70.7562C519.914 70.6276 519.773 70.4452 519.696 70.2337C518.091 65.8526 517.939 61.0709 519.263 56.5967C520.589 52.1227 523.321 48.1945 527.053 45.3942C527.285 45.2188 527.578 45.1429 527.866 45.1832C528.154 45.2234 528.415 45.3765 528.59 45.6088C528.766 45.8411 528.842 46.1335 528.801 46.4218C528.761 46.7101 528.608 46.9706 528.376 47.146C525.019 49.6655 522.563 53.1992 521.373 57.2239C520.181 61.2483 520.319 65.5493 521.763 69.49C521.824 69.6559 521.843 69.8341 521.82 70.0092C521.798 70.1844 521.733 70.3514 521.63 70.496C521.529 70.6405 521.394 70.7584 521.238 70.8394C521.08 70.9205 520.905 70.9624 520.729 70.9616" fill="#1F4847"/>
    <path d="M528.479 62.9296C528.188 62.9296 527.91 62.8143 527.704 62.609C527.498 62.4037 527.383 62.1252 527.383 61.8348C527.388 58.1403 528.858 54.5986 531.47 51.9864C534.082 49.3741 537.624 47.9044 541.319 47.8998C541.609 47.8998 541.888 48.0151 542.093 48.2204C542.298 48.4258 542.413 48.7043 542.413 48.9946C542.413 49.285 542.298 49.5634 542.093 49.7688C541.888 49.9741 541.609 50.0894 541.319 50.0894C538.205 50.0941 535.22 51.3331 533.019 53.5347C530.816 55.7364 529.578 58.7212 529.573 61.8348C529.573 62.1252 529.458 62.4037 529.252 62.6091C529.047 62.8144 528.768 62.9297 528.479 62.9297" fill="#1F4847"/>
    <path d="M348.581 263.813C348.32 263.81 348.07 263.715 347.874 263.544C347.677 263.374 347.548 263.139 347.509 262.883C347.47 262.624 347.524 262.363 347.661 262.141C347.798 261.92 348.009 261.756 348.256 261.675C352.266 260.434 355.769 257.933 358.245 254.545C360.722 251.156 362.042 247.059 362.008 242.863C362.008 242.574 362.122 242.296 362.325 242.091C362.529 241.886 362.805 241.769 363.094 241.767C363.384 241.767 363.663 241.882 363.869 242.088C364.074 242.293 364.189 242.572 364.189 242.863C364.226 247.528 362.758 252.084 360.004 255.851C357.249 259.619 353.354 262.398 348.896 263.777C348.791 263.811 348.682 263.829 348.572 263.83" fill="#1F4847"/>
    <path d="M349.012 255.759C348.784 255.758 348.562 255.687 348.375 255.553C348.19 255.42 348.051 255.233 347.978 255.016C347.904 254.8 347.901 254.566 347.967 254.348C348.032 254.129 348.165 253.937 348.346 253.797C351.685 251.256 354.118 247.706 355.282 243.673C356.446 239.641 356.281 235.341 354.81 231.41C354.709 231.138 354.72 230.836 354.842 230.57C354.963 230.306 355.185 230.101 355.459 230C355.731 229.899 356.033 229.911 356.297 230.032C356.561 230.153 356.767 230.375 356.869 230.648C358.504 235.019 358.689 239.801 357.393 244.285C356.098 248.768 353.391 252.715 349.677 255.54C349.487 255.688 349.253 255.767 349.012 255.768" fill="#1F4847"/>
    <path d="M639.346 416.046C639.346 416.046 646.66 419.707 655.367 424.866C663.389 429.622 659.097 434.825 651.608 435.079C644.12 435.332 624.15 432.688 624.15 432.688L597.611 430.594L600.081 412.928L637.472 415.012L639.346 416.046Z" fill="#FFC927"/>
    <path d="M654.947 76.7415C671.09 69.9886 690.963 85.912 697.234 99.4351C702.822 111.478 698.416 129.932 688.362 139.725C677.886 149.78 661.849 150.368 661.849 150.368C661.849 150.368 650.464 135.819 643.22 130.223C639.102 127.319 634.54 125.099 629.713 123.653C622.19 99.5665 638.841 83.4947 654.982 76.7412" fill="#FF8631"/>
    <path d="M638.688 389.311C638.645 388.171 638.592 386.998 638.548 385.807C638.478 384.125 638.408 382.391 638.338 380.631C638.276 379.413 638.224 378.177 638.162 376.926C638.013 373.422 637.829 369.778 637.637 366.082C637.585 365.058 637.532 364.024 637.471 362.981C637.374 361.099 637.26 359.207 637.146 357.306L637.068 355.93C637.068 355.353 636.989 354.775 636.954 354.179C636.603 348.521 636.2 342.854 635.763 337.354C634.887 326.642 633.827 316.587 632.557 308.529C632.031 305.262 631.479 302.328 630.884 299.814C630.735 299.165 630.586 298.553 630.42 297.966C630.07 296.585 629.634 295.228 629.115 293.902C625.051 283.856 619.191 273.835 613.638 265.445C608.771 258.088 603.508 251.001 597.872 244.214L524.851 236.095L552.213 262.476L552.817 263.062L553.79 264L572.612 263.938C574.745 263.931 576.793 264.772 578.306 266.275C579.819 267.778 580.672 269.82 580.679 271.953C580.686 274.085 579.846 276.133 578.343 277.645C576.84 279.159 574.798 280.012 572.664 280.02H570.405L571.859 281.421L571.947 281.544C576.527 287.742 580.515 294.358 583.858 301.304C584.533 302.713 585.207 304.167 585.856 305.682C586.504 307.198 586.985 308.503 587.484 309.966C588.247 312.12 588.956 314.345 589.797 316.526C592.066 322.429 593.589 331.415 594.597 341.514C595.263 348.224 595.709 355.441 595.989 362.614C596.322 371.031 596.436 379.378 596.436 386.77V394.995C596.428 395.058 596.428 395.123 596.436 395.188C596.436 398.498 596.348 401.459 596.287 403.946C596.226 406.433 596.182 408.378 596.138 409.831C596.086 411.583 596.05 412.512 596.05 412.512L597.128 412.599L601.139 412.924H601.209L639.345 416.042H639.503C639.503 416.042 639.284 404.909 638.697 389.275" fill="#971B23"/>
    <path d="M700.517 135.622L694.491 131.505L693.615 130.936L688.604 138.223L689.288 138.688L695.471 142.909C695.95 143.24 696.489 143.473 697.057 143.596C697.627 143.719 698.214 143.728 698.786 143.623C699.358 143.516 699.905 143.299 700.393 142.983C700.881 142.666 701.302 142.257 701.631 141.776C701.959 141.297 702.192 140.757 702.311 140.187C702.431 139.618 702.438 139.03 702.331 138.458C702.223 137.886 702.003 137.342 701.684 136.855C701.365 136.368 700.954 135.949 700.472 135.622" fill="#FF8631"/>
    <path d="M687.145 124.021C687.716 123.949 688.252 123.709 688.686 123.332C689.121 122.955 689.434 122.458 689.586 121.904C689.737 121.349 689.721 120.762 689.54 120.216C689.358 119.671 689.019 119.191 688.564 118.839C688.11 118.486 687.562 118.276 686.988 118.235C686.414 118.194 685.841 118.324 685.342 118.609C684.842 118.894 684.438 119.32 684.181 119.834C683.922 120.348 683.824 120.928 683.895 121.498C683.944 121.877 684.066 122.243 684.254 122.575C684.443 122.907 684.696 123.198 684.998 123.433C685.299 123.667 685.645 123.839 686.013 123.94C686.382 124.041 686.766 124.069 687.145 124.021" fill="#204948"/>
    <path d="M693.653 102.991C695.174 101.929 696.491 100.603 697.543 99.0757C697.543 99.0757 698.532 75.8562 673.334 67.2555C658.172 62.0791 646.969 67.8949 638.5 57.1919C626.667 42.2413 614.851 36.3547 606.093 42.0479C598.298 47.1455 603.202 58.2429 605.822 61.4044C608.44 64.5664 607.88 65.197 604.491 64.2072C601.1 63.2175 592.596 57.717 574.369 56.1667C556.142 54.6165 540.377 63.1737 543.18 73.8678C545.982 84.562 559.961 90.6149 559.961 90.6149C559.961 90.6149 534.921 90.5098 531.267 101.423C527.16 113.685 541.244 117.39 559.742 115.104C577.259 112.941 588.576 114.508 618.25 122.987C626.859 125.448 643.326 126.946 655.913 117.513C655.913 117.513 655.229 110.646 656.666 108.176C662.167 98.6729 670.68 107.65 670.68 107.65C677.424 111.531 688.328 106.888 693.706 102.965" fill="#576295"/>
    <path d="M639.515 434.441C639.395 434.381 639.265 434.342 639.13 434.327L605.777 429.948C605.416 429.899 605.049 429.983 604.743 430.182C604.438 430.382 604.215 430.684 604.113 431.034C604.08 431.13 604.059 431.23 604.052 431.331L603.061 443.06C603.031 443.45 603.151 443.84 603.397 444.145C603.643 444.451 603.996 444.652 604.384 444.706L637.413 449.34H637.597C637.975 449.338 638.338 449.198 638.619 448.946C638.9 448.694 639.079 448.348 639.121 447.973L640.418 435.957C640.457 435.636 640.393 435.311 640.235 435.03C640.077 434.748 639.834 434.523 639.541 434.389L639.515 434.441ZM636.284 446.073L606.25 441.868L606.986 433.18L637.256 437.122L636.284 446.073Z" fill="#00ADA8"/>
    <path d="M498.054 347.515C491.272 348.007 484.673 349.94 478.696 353.183C472.72 356.428 467.504 360.91 463.395 366.328C463.273 366.487 463.183 366.67 463.131 366.865C463.079 367.059 463.066 367.262 463.093 367.461C463.119 367.661 463.186 367.853 463.287 368.027C463.389 368.201 463.524 368.354 463.684 368.474C463.951 368.678 464.278 368.788 464.614 368.79C464.849 368.79 465.081 368.736 465.292 368.631C465.504 368.526 465.688 368.374 465.831 368.185C469.673 363.117 474.55 358.926 480.137 355.888C485.724 352.852 491.895 351.039 498.238 350.572C498.635 350.534 499.003 350.341 499.261 350.035C499.52 349.729 499.648 349.335 499.62 348.936C499.591 348.538 499.408 348.165 499.108 347.9C498.809 347.634 498.418 347.496 498.019 347.515H498.054ZM807.805 411.505C807.624 411.42 807.426 411.372 807.225 411.363C807.024 411.354 806.823 411.386 806.635 411.455C806.446 411.524 806.272 411.629 806.124 411.766C805.977 411.902 805.858 412.068 805.773 412.251C803.106 418.029 799.237 423.172 794.423 427.337C789.609 431.501 783.963 434.59 777.86 436.398C777.505 436.501 777.201 436.728 777 437.039C776.8 437.35 776.719 437.721 776.772 438.086C776.824 438.451 777.006 438.786 777.284 439.028C777.563 439.269 777.921 439.403 778.289 439.403C778.437 439.404 778.585 439.383 778.727 439.341C785.248 437.409 791.283 434.108 796.427 429.658C801.572 425.208 805.707 419.713 808.559 413.537C808.729 413.168 808.744 412.747 808.603 412.366C808.462 411.985 808.176 411.675 807.805 411.505C807.624 411.42 807.426 411.372 807.225 411.363C807.024 411.354 806.823 411.386 806.635 411.455C806.446 411.524 806.272 411.629 806.124 411.766C805.977 411.902 805.858 412.068 805.773 412.251C803.106 418.029 799.237 423.172 794.423 427.337C789.609 431.501 783.963 434.59 777.86 436.398C777.505 436.501 777.201 436.728 777 437.039C776.8 437.35 776.719 437.721 776.772 438.086C776.824 438.451 777.006 438.786 777.284 439.028C777.563 439.269 777.921 439.403 778.289 439.403C778.437 439.404 778.585 439.383 778.727 439.341C785.248 437.409 791.283 434.108 796.427 429.658C801.572 425.208 805.707 419.713 808.559 413.537C808.729 413.168 808.744 412.747 808.603 412.366C808.462 411.985 808.176 411.675 807.805 411.505C807.624 411.42 807.426 411.372 807.225 411.363C807.024 411.354 806.823 411.386 806.635 411.455C806.446 411.524 806.272 411.629 806.124 411.766C805.977 411.902 805.858 412.068 805.773 412.251C803.106 418.029 799.237 423.172 794.423 427.337C789.609 431.501 783.963 434.59 777.86 436.398C777.505 436.501 777.201 436.728 777 437.039C776.8 437.35 776.719 437.721 776.772 438.086C776.824 438.451 777.006 438.786 777.284 439.028C777.563 439.269 777.921 439.403 778.289 439.403C778.437 439.404 778.585 439.383 778.727 439.341C785.248 437.409 791.283 434.108 796.427 429.658C801.572 425.208 805.707 419.713 808.559 413.537C808.729 413.168 808.744 412.747 808.603 412.366C808.462 411.985 808.176 411.675 807.805 411.505C807.624 411.42 807.426 411.372 807.225 411.363C807.024 411.354 806.823 411.386 806.635 411.455C806.446 411.524 806.272 411.629 806.124 411.766C805.977 411.902 805.858 412.068 805.773 412.251C803.106 418.029 799.237 423.172 794.423 427.337C789.609 431.501 783.963 434.59 777.86 436.398C777.505 436.501 777.201 436.728 777 437.039C776.8 437.35 776.719 437.721 776.772 438.086C776.824 438.451 777.006 438.786 777.284 439.028C777.563 439.269 777.921 439.403 778.289 439.403C778.437 439.404 778.585 439.383 778.727 439.341C785.248 437.409 791.283 434.108 796.427 429.658C801.572 425.208 805.707 419.713 808.559 413.537C808.729 413.168 808.744 412.747 808.603 412.366C808.462 411.985 808.176 411.675 807.805 411.505V411.505ZM809.268 350.011C803.485 344.233 796.618 339.655 789.06 336.54C781.503 333.424 773.404 331.832 765.23 331.854H765.01C750.765 331.859 736.955 336.767 725.903 345.754C724.147 347.181 722.469 348.702 720.876 350.309C712.175 359.065 706.264 370.202 703.884 382.313C701.506 394.425 702.767 406.97 707.51 418.366C712.252 429.763 720.263 439.499 730.532 446.348C740.801 453.196 752.869 456.85 765.212 456.85H765.475C782.017 456.794 797.861 450.183 809.537 438.466C821.213 426.748 827.769 410.881 827.766 394.339V394.146C827.754 385.931 826.112 377.802 822.937 370.226C819.763 362.65 815.117 355.779 809.268 350.011V350.011ZM807.385 436.237C801.897 441.786 795.362 446.192 788.159 449.199C780.956 452.206 773.228 453.754 765.422 453.754H765.212C753.475 453.752 742 450.276 732.235 443.762C722.472 437.249 714.854 427.99 710.345 417.154C705.835 406.317 704.635 394.388 706.895 382.87C709.157 371.352 714.777 360.762 723.048 352.434C724.391 351.085 725.78 349.814 727.217 348.624C737.817 339.753 751.198 334.892 765.02 334.891H765.23C776.968 334.889 788.444 338.365 798.21 344.878C807.976 351.391 815.594 360.651 820.103 371.489C824.612 382.328 825.811 394.258 823.548 405.777C821.283 417.295 815.66 427.884 807.385 436.211V436.237ZM807.831 411.476C807.65 411.391 807.452 411.342 807.251 411.333C807.05 411.325 806.85 411.356 806.661 411.425C806.472 411.494 806.299 411.6 806.15 411.737C806.003 411.873 805.884 412.038 805.8 412.22C803.132 418 799.263 423.143 794.449 427.307C789.636 431.471 783.989 434.56 777.886 436.369C777.531 436.472 777.227 436.699 777.027 437.008C776.827 437.32 776.746 437.691 776.798 438.056C776.85 438.422 777.032 438.756 777.31 438.998C777.589 439.24 777.947 439.372 778.315 439.372C778.463 439.374 778.611 439.354 778.753 439.311C785.274 437.379 791.31 434.078 796.453 429.629C801.598 425.179 805.733 419.683 808.585 413.508C808.755 413.139 808.771 412.717 808.629 412.336C808.488 411.955 808.202 411.646 807.831 411.476C807.65 411.391 807.452 411.342 807.251 411.333C807.05 411.325 806.85 411.356 806.661 411.425C806.472 411.494 806.299 411.6 806.15 411.737C806.003 411.873 805.884 412.038 805.8 412.22C803.132 418 799.263 423.143 794.449 427.307C789.636 431.471 783.989 434.56 777.886 436.369C777.531 436.472 777.227 436.699 777.027 437.008C776.827 437.32 776.746 437.691 776.798 438.056C776.85 438.422 777.032 438.756 777.31 438.998C777.589 439.24 777.947 439.372 778.315 439.372C778.463 439.374 778.611 439.354 778.753 439.311C785.274 437.379 791.31 434.078 796.453 429.629C801.598 425.179 805.733 419.683 808.585 413.508C808.755 413.139 808.771 412.717 808.629 412.336C808.488 411.955 808.202 411.646 807.831 411.476C807.65 411.391 807.452 411.342 807.251 411.333C807.05 411.325 806.85 411.356 806.661 411.425C806.472 411.494 806.299 411.6 806.15 411.737C806.003 411.873 805.884 412.038 805.8 412.22C803.132 418 799.263 423.143 794.449 427.307C789.636 431.471 783.989 434.56 777.886 436.369C777.531 436.472 777.227 436.699 777.027 437.008C776.827 437.32 776.746 437.691 776.798 438.056C776.85 438.422 777.032 438.756 777.31 438.998C777.589 439.24 777.947 439.372 778.315 439.372C778.463 439.374 778.611 439.354 778.753 439.311C785.274 437.379 791.31 434.078 796.453 429.629C801.598 425.179 805.733 419.683 808.585 413.508C808.755 413.139 808.771 412.717 808.629 412.336C808.488 411.955 808.202 411.646 807.831 411.476V411.476ZM498.055 347.511C491.272 348.004 484.673 349.937 478.696 353.18C472.72 356.424 467.505 360.906 463.396 366.325C463.274 366.484 463.184 366.667 463.132 366.862C463.08 367.056 463.067 367.259 463.094 367.458C463.12 367.658 463.187 367.85 463.288 368.024C463.39 368.197 463.525 368.35 463.685 368.471C463.952 368.674 464.278 368.785 464.614 368.787C464.85 368.787 465.082 368.733 465.293 368.627C465.505 368.522 465.689 368.371 465.832 368.181C469.674 363.114 474.551 358.922 480.138 355.885C485.725 352.848 491.896 351.036 498.239 350.568C498.636 350.53 499.004 350.338 499.262 350.032C499.521 349.726 499.649 349.331 499.621 348.933C499.592 348.535 499.409 348.161 499.109 347.896C498.81 347.63 498.419 347.493 498.02 347.511C491.238 348.004 484.639 349.937 478.662 353.18C472.686 356.424 467.469 360.906 463.362 366.325C463.238 366.484 463.149 366.667 463.097 366.862C463.045 367.056 463.032 367.259 463.059 367.458C463.086 367.658 463.151 367.85 463.254 368.024C463.355 368.197 463.49 368.35 463.65 368.471C463.917 368.674 464.244 368.785 464.579 368.787C464.815 368.787 465.048 368.733 465.259 368.627C465.47 368.522 465.654 368.371 465.796 368.181C469.638 363.114 474.516 358.922 480.103 355.885C485.691 352.848 491.861 351.036 498.204 350.568C498.602 350.53 498.969 350.338 499.227 350.032C499.486 349.726 499.614 349.331 499.586 348.933C499.557 348.535 499.374 348.161 499.074 347.896C498.775 347.63 498.384 347.493 497.985 347.511C491.202 348.004 484.603 349.937 478.626 353.18C472.651 356.424 467.434 360.906 463.326 366.325C463.204 366.484 463.114 366.667 463.062 366.862C463.01 367.056 462.997 367.259 463.024 367.458C463.05 367.658 463.117 367.85 463.218 368.024C463.319 368.197 463.455 368.35 463.615 368.471C463.882 368.674 464.208 368.785 464.544 368.787C464.78 368.787 465.012 368.733 465.224 368.627C465.435 368.522 465.619 368.371 465.761 368.181C469.604 363.114 474.481 358.922 480.068 355.885C485.655 352.848 491.826 351.036 498.169 350.568C498.566 350.53 498.933 350.338 499.192 350.032C499.451 349.726 499.579 349.331 499.551 348.933C499.522 348.535 499.338 348.161 499.039 347.896C498.74 347.63 498.349 347.493 497.95 347.511H498.055ZM563.867 393.056C563.572 384.371 561.464 375.843 557.677 368.021C553.891 360.199 548.511 353.255 541.883 347.634C539.673 345.722 537.331 343.966 534.877 342.379C524.89 336.026 513.297 332.659 501.462 332.674H501.243C485.258 332.73 469.901 338.91 458.334 349.943C446.766 360.976 439.867 376.023 439.057 391.989C438.995 393.004 438.969 394.02 438.969 395.044V395.386C439.024 411.924 445.632 427.767 457.346 439.443C469.059 451.119 484.923 457.676 501.462 457.679H501.68C517.079 457.626 531.918 451.892 543.351 441.575C554.783 431.258 562.004 417.085 563.631 401.771C563.859 399.577 563.973 397.374 563.973 395.167V395.018C563.973 394.362 563.973 393.714 563.929 393.065L563.867 393.056ZM543.644 437.122C538.153 442.67 531.616 447.075 524.411 450.082C517.207 453.089 509.479 454.638 501.672 454.639H501.462C485.735 454.637 470.649 448.401 459.51 437.299C448.371 426.196 442.087 411.131 442.034 395.404V395.123C442.034 394.099 442.034 393.083 442.113 392.067C442.918 376.903 449.496 362.622 460.495 352.153C471.496 341.684 486.084 335.82 501.269 335.766H501.48C512.634 335.744 523.567 338.885 533.011 344.822C535.491 346.369 537.851 348.103 540.07 350.008C541.234 351.005 542.365 352.04 543.451 353.125C554.076 363.683 560.31 377.871 560.898 392.838C560.898 393.556 560.95 394.283 560.95 395.009C560.998 410.758 554.789 425.88 543.687 437.051L543.644 437.122ZM498.055 347.443C491.272 347.935 484.673 349.868 478.696 353.112C472.72 356.356 467.505 360.838 463.396 366.257C463.274 366.416 463.184 366.598 463.132 366.794C463.08 366.988 463.067 367.19 463.094 367.39C463.12 367.59 463.187 367.781 463.288 367.955C463.39 368.129 463.525 368.281 463.685 368.403C463.952 368.606 464.278 368.717 464.614 368.718C464.85 368.718 465.082 368.664 465.293 368.559C465.505 368.454 465.689 368.301 465.832 368.113C469.674 363.045 474.551 358.854 480.138 355.817C485.725 352.78 491.896 350.967 498.239 350.5C498.636 350.462 499.004 350.269 499.262 349.964C499.521 349.657 499.649 349.263 499.621 348.865C499.592 348.466 499.409 348.093 499.109 347.828C498.81 347.562 498.419 347.424 498.02 347.443C491.238 347.935 484.639 349.868 478.662 353.112C472.686 356.356 467.469 360.838 463.362 366.257C463.238 366.416 463.149 366.598 463.097 366.794C463.045 366.988 463.032 367.19 463.059 367.39C463.086 367.59 463.151 367.781 463.254 367.955C463.355 368.129 463.49 368.281 463.65 368.403C463.917 368.606 464.244 368.717 464.579 368.718C464.815 368.718 465.048 368.664 465.259 368.559C465.47 368.454 465.654 368.301 465.796 368.113C469.638 363.045 474.516 358.854 480.103 355.817C485.691 352.78 491.861 350.967 498.204 350.5C498.602 350.462 498.969 350.269 499.227 349.964C499.486 349.657 499.614 349.263 499.586 348.865C499.557 348.466 499.374 348.093 499.074 347.828C498.775 347.562 498.384 347.424 497.985 347.443C491.202 347.935 484.603 349.868 478.626 353.112C472.651 356.356 467.434 360.838 463.326 366.257C463.204 366.416 463.114 366.598 463.062 366.794C463.01 366.988 462.997 367.19 463.024 367.39C463.05 367.59 463.117 367.781 463.218 367.955C463.319 368.129 463.455 368.281 463.615 368.403C463.882 368.606 464.208 368.717 464.544 368.718C464.78 368.718 465.012 368.664 465.224 368.559C465.435 368.454 465.619 368.301 465.761 368.113C469.604 363.045 474.481 358.854 480.068 355.817C485.655 352.78 491.826 350.967 498.169 350.5C498.566 350.462 498.933 350.269 499.192 349.964C499.451 349.657 499.579 349.263 499.551 348.865C499.522 348.466 499.338 348.093 499.039 347.828C498.74 347.562 498.349 347.424 497.95 347.443H498.055ZM807.738 411.434C807.557 411.348 807.359 411.3 807.158 411.291C806.958 411.283 806.757 411.314 806.568 411.383C806.379 411.452 806.205 411.558 806.058 411.695C805.91 411.83 805.791 411.996 805.706 412.179C803.04 417.958 799.17 423.1 794.356 427.266C789.542 431.429 783.896 434.518 777.793 436.326C777.439 436.429 777.134 436.656 776.934 436.967C776.734 437.278 776.653 437.649 776.705 438.014C776.757 438.379 776.939 438.714 777.217 438.956C777.496 439.197 777.854 439.331 778.222 439.331C778.371 439.333 778.518 439.311 778.66 439.269C785.182 437.337 791.217 434.036 796.36 429.586C801.505 425.137 805.641 419.641 808.492 413.466C808.662 413.097 808.678 412.675 808.536 412.294C808.395 411.912 808.109 411.603 807.738 411.434C807.557 411.348 807.359 411.3 807.158 411.291C806.958 411.283 806.757 411.314 806.568 411.383C806.379 411.452 806.205 411.558 806.058 411.695C805.91 411.83 805.791 411.996 805.706 412.179C803.04 417.958 799.17 423.1 794.356 427.266C789.542 431.429 783.896 434.518 777.793 436.326C777.439 436.429 777.134 436.656 776.934 436.967C776.734 437.278 776.653 437.649 776.705 438.014C776.757 438.379 776.939 438.714 777.217 438.956C777.496 439.197 777.854 439.331 778.222 439.331C778.371 439.333 778.518 439.311 778.66 439.269C785.182 437.337 791.217 434.036 796.36 429.586C801.505 425.137 805.641 419.641 808.492 413.466C808.662 413.097 808.678 412.675 808.536 412.294C808.395 411.912 808.109 411.603 807.738 411.434V411.434ZM809.271 350.009C803.489 344.232 796.621 339.654 789.063 336.539C781.506 333.423 773.408 331.83 765.233 331.852H765.014C750.768 331.857 736.959 336.766 725.907 345.752C724.151 347.18 722.472 348.7 720.879 350.307C712.178 359.063 706.267 370.2 703.887 382.312C701.509 394.423 702.771 406.969 707.513 418.364C712.255 429.761 720.266 439.497 730.535 446.346C740.804 453.194 752.873 456.849 765.216 456.848H765.478C782.02 456.792 797.865 450.181 809.541 438.464C821.217 426.746 827.772 410.879 827.769 394.337V394.145C827.758 385.93 826.116 377.8 822.941 370.224C819.766 362.649 815.12 355.778 809.271 350.009V350.009ZM807.388 436.235C801.9 441.784 795.365 446.19 788.162 449.197C780.959 452.204 773.231 453.752 765.426 453.752H765.216C753.478 453.751 742.004 450.274 732.239 443.76C722.475 437.247 714.858 427.988 710.348 417.152C705.838 406.315 704.638 394.386 706.899 382.868C709.16 371.351 714.78 360.76 723.051 352.432C724.395 351.083 725.783 349.813 727.22 348.622C737.821 339.752 751.201 334.891 765.023 334.889H765.233C776.972 334.887 788.448 338.363 798.213 344.877C807.98 351.39 815.597 360.65 820.107 371.487C824.616 382.326 825.814 394.256 823.551 405.775C821.287 417.293 815.664 427.883 807.388 436.209V436.235ZM807.835 411.474C807.653 411.389 807.456 411.341 807.255 411.332C807.054 411.323 806.854 411.354 806.665 411.424C806.475 411.493 806.302 411.598 806.154 411.735C806.006 411.871 805.887 412.036 805.804 412.219C803.136 417.998 799.266 423.141 794.452 427.305C789.639 431.47 783.992 434.559 777.889 436.367C777.535 436.47 777.23 436.697 777.03 437.007C776.83 437.318 776.749 437.69 776.801 438.054C776.854 438.42 777.035 438.754 777.314 438.997C777.592 439.238 777.95 439.371 778.318 439.371C778.467 439.372 778.615 439.352 778.756 439.31C785.278 437.377 791.313 434.077 796.457 429.627C801.601 425.177 805.737 419.681 808.588 413.506C808.758 413.137 808.774 412.715 808.632 412.334C808.491 411.954 808.205 411.644 807.835 411.474C807.653 411.389 807.456 411.341 807.255 411.332C807.054 411.323 806.854 411.354 806.665 411.424C806.475 411.493 806.302 411.598 806.154 411.735C806.006 411.871 805.887 412.036 805.804 412.219C803.136 417.998 799.266 423.141 794.452 427.305C789.639 431.47 783.992 434.559 777.889 436.367C777.535 436.47 777.23 436.697 777.03 437.007C776.83 437.318 776.749 437.69 776.801 438.054C776.854 438.42 777.035 438.754 777.314 438.997C777.592 439.238 777.95 439.371 778.318 439.371C778.467 439.372 778.615 439.352 778.756 439.31C785.278 437.377 791.313 434.077 796.457 429.627C801.601 425.177 805.737 419.681 808.588 413.506C808.758 413.137 808.774 412.715 808.632 412.334C808.491 411.954 808.205 411.644 807.835 411.474C807.653 411.389 807.456 411.341 807.255 411.332C807.054 411.323 806.854 411.354 806.665 411.424C806.475 411.493 806.302 411.598 806.154 411.735C806.006 411.871 805.887 412.036 805.804 412.219C803.136 417.998 799.266 423.141 794.452 427.305C789.639 431.47 783.992 434.559 777.889 436.367C777.535 436.47 777.23 436.697 777.03 437.007C776.83 437.318 776.749 437.69 776.801 438.054C776.854 438.42 777.035 438.754 777.314 438.997C777.592 439.238 777.95 439.371 778.318 439.371C778.467 439.372 778.615 439.352 778.756 439.31C785.278 437.377 791.313 434.077 796.457 429.627C801.601 425.177 805.737 419.681 808.588 413.506C808.758 413.137 808.774 412.715 808.632 412.334C808.491 411.954 808.205 411.644 807.835 411.474C807.653 411.389 807.456 411.341 807.255 411.332C807.054 411.323 806.854 411.354 806.665 411.424C806.475 411.493 806.302 411.598 806.154 411.735C806.006 411.871 805.887 412.036 805.804 412.219C803.136 417.998 799.266 423.141 794.452 427.305C789.639 431.47 783.992 434.559 777.889 436.367C777.535 436.47 777.23 436.697 777.03 437.007C776.83 437.318 776.749 437.69 776.801 438.054C776.854 438.42 777.035 438.754 777.314 438.997C777.592 439.238 777.95 439.371 778.318 439.371C778.467 439.372 778.615 439.352 778.756 439.31C785.278 437.377 791.313 434.077 796.457 429.627C801.601 425.177 805.737 419.681 808.588 413.506C808.758 413.137 808.774 412.715 808.632 412.334C808.491 411.954 808.205 411.644 807.835 411.474C807.653 411.389 807.456 411.341 807.255 411.332C807.054 411.323 806.854 411.354 806.665 411.424C806.475 411.493 806.302 411.598 806.154 411.735C806.006 411.871 805.887 412.036 805.804 412.219C803.136 417.998 799.266 423.141 794.452 427.305C789.639 431.47 783.992 434.559 777.889 436.367C777.535 436.47 777.23 436.697 777.03 437.007C776.83 437.318 776.749 437.69 776.801 438.054C776.854 438.42 777.035 438.754 777.314 438.997C777.592 439.238 777.95 439.371 778.318 439.371C778.467 439.372 778.615 439.352 778.756 439.31C785.278 437.377 791.313 434.077 796.457 429.627C801.601 425.177 805.737 419.681 808.588 413.506C808.758 413.137 808.774 412.715 808.632 412.334C808.491 411.954 808.205 411.644 807.835 411.474V411.474ZM809.271 350.006C803.489 344.228 796.621 339.65 789.063 336.535C781.506 333.419 773.408 331.827 765.233 331.849H765.014C750.768 331.854 736.959 336.762 725.907 345.749C724.151 347.176 722.472 348.697 720.879 350.304C712.178 359.06 706.267 370.197 703.887 382.308C701.509 394.42 702.771 406.965 707.513 418.361C712.255 429.758 720.266 439.494 730.535 446.343C740.804 453.191 752.873 456.845 765.216 456.844H765.478C782.02 456.789 797.865 450.178 809.541 438.46C821.217 426.743 827.772 410.876 827.769 394.334V394.141C827.758 385.926 826.116 377.797 822.941 370.221C819.766 362.645 815.12 355.774 809.271 350.006V350.006ZM807.388 436.232C801.9 441.781 795.365 446.187 788.162 449.194C780.959 452.201 773.231 453.749 765.426 453.749H765.216C753.478 453.747 742.004 450.271 732.239 443.757C722.475 437.244 714.858 427.985 710.348 417.149C705.838 406.312 704.638 394.383 706.899 382.864C709.16 371.347 714.78 360.757 723.051 352.429C724.395 351.08 725.783 349.809 727.22 348.619C737.821 339.748 751.201 334.887 765.023 334.886H765.233C776.972 334.884 788.448 338.359 798.213 344.873C807.98 351.386 815.597 360.646 820.107 371.484C824.616 382.323 825.814 394.253 823.551 405.772C821.287 417.29 815.664 427.879 807.388 436.206V436.232ZM807.835 411.471C807.653 411.386 807.456 411.337 807.255 411.328C807.054 411.32 806.854 411.351 806.665 411.42C806.475 411.489 806.302 411.595 806.154 411.732C806.006 411.868 805.887 412.033 805.804 412.215C803.136 417.995 799.266 423.138 794.452 427.302C789.639 431.466 783.992 434.555 777.889 436.364C777.535 436.467 777.23 436.694 777.03 437.003C776.83 437.315 776.749 437.686 776.801 438.051C776.854 438.417 777.035 438.751 777.314 438.993C777.592 439.235 777.95 439.367 778.318 439.367C778.467 439.369 778.615 439.349 778.756 439.306C785.278 437.374 791.313 434.073 796.457 429.623C801.601 425.174 805.737 419.678 808.588 413.503C808.758 413.134 808.774 412.712 808.632 412.331C808.491 411.95 808.205 411.64 807.835 411.471V411.471ZM809.271 350.003C803.489 344.225 796.621 339.647 789.063 336.532C781.506 333.416 773.408 331.824 765.233 331.846H765.014C750.768 331.851 736.959 336.759 725.907 345.745C724.151 347.173 722.472 348.693 720.879 350.301C712.178 359.057 706.267 370.193 703.887 382.305C701.509 394.416 702.771 406.962 707.513 418.358C712.255 429.754 720.266 439.49 730.535 446.339C740.804 453.187 752.873 456.842 765.216 456.841H765.478C782.02 456.785 797.865 450.175 809.541 438.457C821.217 426.74 827.772 410.872 827.769 394.33V394.138C827.758 385.923 826.116 377.793 822.941 370.218C819.766 362.642 815.12 355.771 809.271 350.003V350.003ZM807.388 436.228C801.9 441.777 795.365 446.183 788.162 449.19C780.959 452.197 773.231 453.745 765.426 453.745H765.216C753.478 453.744 742.004 450.267 732.239 443.754C722.475 437.241 714.858 427.982 710.348 417.145C705.838 406.309 704.638 394.379 706.899 382.861C709.16 371.344 714.78 360.753 723.051 352.425C724.395 351.076 725.783 349.806 727.22 348.616C737.821 339.745 751.201 334.884 765.023 334.882H765.233C776.972 334.881 788.448 338.356 798.213 344.87C807.98 351.383 815.597 360.643 820.107 371.481C824.616 382.319 825.814 394.249 823.551 405.768C821.287 417.286 815.664 427.876 807.388 436.202V436.228ZM807.835 411.467C807.653 411.382 807.456 411.334 807.255 411.325C807.054 411.316 806.854 411.348 806.665 411.417C806.475 411.486 806.302 411.592 806.154 411.728C806.006 411.864 805.887 412.03 805.804 412.212C803.136 417.991 799.266 423.134 794.452 427.299C789.639 431.463 783.992 434.552 777.889 436.36C777.535 436.463 777.23 436.69 777.03 437C776.83 437.312 776.749 437.683 776.801 438.048C776.854 438.413 777.035 438.748 777.314 438.99C777.592 439.231 777.95 439.364 778.318 439.364C778.467 439.365 778.615 439.345 778.756 439.303C785.278 437.371 791.313 434.07 796.457 429.62C801.601 425.17 805.737 419.675 808.588 413.499C808.758 413.13 808.774 412.708 808.632 412.328C808.491 411.947 808.205 411.637 807.835 411.467V411.467ZM765.233 320.447H764.988C749.324 320.454 734.074 325.48 721.475 334.785C718.399 337.051 715.503 339.551 712.812 342.265C702.508 352.609 695.501 365.775 692.679 380.101C689.855 394.427 691.343 409.267 696.952 422.748C702.561 436.228 712.041 447.743 724.193 455.837C736.345 463.932 750.623 468.242 765.224 468.223H765.478C771.081 468.209 776.664 467.56 782.12 466.288C798.337 462.469 812.788 453.283 823.132 440.221C833.475 427.16 839.104 410.987 839.104 394.326V394.134C839.016 374.586 831.195 355.869 817.35 342.071C803.506 328.272 784.763 320.513 765.216 320.49L765.233 320.447ZM815.464 444.298C808.918 450.897 801.132 456.138 792.553 459.718C783.975 463.298 774.774 465.148 765.478 465.161H765.233C750.387 465.147 735.922 460.469 723.877 451.79C711.834 443.111 702.821 430.869 698.111 416.789C693.401 402.711 693.232 387.509 697.629 373.329C702.025 359.15 710.765 346.71 722.613 337.765C724.995 335.953 727.494 334.3 730.093 332.816C740.722 326.729 752.756 323.519 765.005 323.507H765.242C779.23 323.506 792.906 327.647 804.543 335.408C816.18 343.169 825.26 354.202 830.635 367.117C836.009 380.031 837.439 394.248 834.743 407.975C832.049 421.701 825.349 434.322 815.491 444.246L815.464 444.298ZM765.242 331.843H765.023C750.777 331.848 736.968 336.756 725.916 345.743C724.159 347.17 722.481 348.691 720.888 350.298C712.188 359.054 706.276 370.191 703.897 382.302C701.518 394.414 702.78 406.959 707.523 418.355C712.264 429.752 720.275 439.488 730.545 446.337C740.813 453.185 752.881 456.839 765.224 456.839H765.478C782.02 456.783 797.865 450.172 809.541 438.455C821.217 426.737 827.772 410.87 827.769 394.328V394.135C827.712 377.598 821.103 361.758 809.39 350.084C797.676 338.41 781.814 331.854 765.277 331.852L765.242 331.843ZM824.67 394.135C824.723 409.89 818.519 425.023 807.419 436.207C796.32 447.39 781.235 453.707 765.478 453.772H765.268C753.53 453.771 742.056 450.294 732.291 443.781C722.528 437.268 714.91 428.009 710.4 417.172C705.892 406.336 704.691 394.406 706.951 382.889C709.213 371.371 714.832 360.78 723.104 352.452C724.447 351.103 725.836 349.833 727.272 348.643C737.873 339.772 751.254 334.911 765.075 334.909H765.286C781.012 334.895 796.1 341.125 807.236 352.23C818.371 363.337 824.642 378.409 824.67 394.135V394.135ZM805.812 412.231C803.145 418.009 799.274 423.153 794.461 427.317C789.648 431.481 784.001 434.57 777.899 436.378C777.543 436.482 777.239 436.709 777.039 437.019C776.839 437.329 776.758 437.702 776.81 438.066C776.862 438.432 777.044 438.766 777.323 439.008C777.602 439.25 777.959 439.382 778.328 439.382C778.475 439.384 778.623 439.364 778.765 439.322C785.287 437.389 791.321 434.088 796.466 429.639C801.61 425.188 805.745 419.693 808.598 413.518C808.765 413.149 808.78 412.729 808.639 412.35C808.498 411.97 808.212 411.66 807.844 411.49C807.477 411.321 807.056 411.303 806.676 411.441C806.296 411.58 805.984 411.863 805.812 412.231V412.231ZM807.844 411.486C807.662 411.401 807.464 411.352 807.264 411.343C807.063 411.334 806.862 411.365 806.673 411.435C806.485 411.504 806.311 411.61 806.162 411.746C806.015 411.883 805.895 412.048 805.812 412.231C803.145 418.009 799.274 423.153 794.461 427.317C789.648 431.481 784.001 434.57 777.899 436.378C777.543 436.482 777.239 436.709 777.039 437.019C776.839 437.329 776.758 437.702 776.81 438.066C776.862 438.432 777.044 438.766 777.323 439.008C777.602 439.25 777.959 439.382 778.328 439.382C778.475 439.384 778.623 439.364 778.765 439.322C785.287 437.389 791.321 434.088 796.466 429.639C801.61 425.188 805.745 419.693 808.598 413.518C808.767 413.148 808.783 412.727 808.642 412.346C808.501 411.965 808.214 411.656 807.844 411.486C807.662 411.401 807.464 411.352 807.264 411.343C807.063 411.334 806.862 411.365 806.673 411.435C806.485 411.504 806.311 411.61 806.162 411.746C806.015 411.883 805.895 412.048 805.812 412.231C803.145 418.009 799.274 423.153 794.461 427.317C789.648 431.481 784.001 434.57 777.899 436.378C777.543 436.482 777.239 436.709 777.039 437.019C776.839 437.329 776.758 437.702 776.81 438.066C776.862 438.432 777.044 438.766 777.323 439.008C777.602 439.25 777.959 439.382 778.328 439.382C778.475 439.384 778.623 439.364 778.765 439.322C785.287 437.389 791.321 434.088 796.466 429.639C801.61 425.188 805.745 419.693 808.598 413.518C808.767 413.148 808.783 412.727 808.642 412.346C808.501 411.965 808.214 411.656 807.844 411.486V411.486ZM809.271 350C803.489 344.222 796.621 339.644 789.063 336.529C781.506 333.413 773.408 331.821 765.233 331.843H765.014C750.768 331.848 736.959 336.756 725.907 345.743C724.151 347.17 722.472 348.691 720.879 350.298C712.178 359.054 706.267 370.191 703.887 382.302C701.509 394.414 702.771 406.959 707.513 418.355C712.255 429.752 720.266 439.488 730.535 446.337C740.804 453.185 752.873 456.839 765.216 456.839H765.478C782.02 456.783 797.865 450.172 809.541 438.455C821.217 426.737 827.772 410.87 827.769 394.328V394.135C827.758 385.92 826.116 377.791 822.941 370.215C819.766 362.639 815.12 355.768 809.271 350V350ZM807.388 436.226C801.9 441.775 795.365 446.181 788.162 449.188C780.959 452.195 773.231 453.743 765.426 453.743H765.216C753.478 453.741 742.004 450.265 732.239 443.751C722.475 437.238 714.858 427.979 710.348 417.143C705.838 406.306 704.638 394.377 706.899 382.859C709.16 371.341 714.78 360.751 723.051 352.423C724.395 351.074 725.783 349.803 727.22 348.613C737.821 339.742 751.201 334.881 765.023 334.88H765.233C776.972 334.878 788.448 338.354 798.213 344.867C807.98 351.38 815.597 360.64 820.107 371.478C824.616 382.317 825.814 394.247 823.551 405.766C821.287 417.284 815.664 427.873 807.388 436.2V436.226ZM807.835 411.465C807.653 411.38 807.456 411.331 807.255 411.322C807.054 411.314 806.854 411.345 806.665 411.414C806.475 411.483 806.302 411.589 806.154 411.726C806.006 411.862 805.887 412.027 805.804 412.209C803.136 417.989 799.266 423.132 794.452 427.296C789.639 431.46 783.992 434.549 777.889 436.358C777.535 436.461 777.23 436.688 777.03 436.997C776.83 437.309 776.749 437.68 776.801 438.045C776.854 438.411 777.035 438.745 777.314 438.987C777.592 439.229 777.95 439.361 778.318 439.361C778.467 439.363 778.615 439.343 778.756 439.3C785.278 437.368 791.313 434.067 796.457 429.618C801.601 425.168 805.737 419.672 808.588 413.497C808.758 413.128 808.774 412.706 808.632 412.325C808.491 411.944 808.205 411.635 807.835 411.465C807.653 411.38 807.456 411.331 807.255 411.322C807.054 411.314 806.854 411.345 806.665 411.414C806.475 411.483 806.302 411.589 806.154 411.726C806.006 411.862 805.887 412.027 805.804 412.209C803.136 417.989 799.266 423.132 794.452 427.296C789.639 431.46 783.992 434.549 777.889 436.358C777.535 436.461 777.23 436.688 777.03 436.997C776.83 437.309 776.749 437.68 776.801 438.045C776.854 438.411 777.035 438.745 777.314 438.987C777.592 439.229 777.95 439.361 778.318 439.361C778.467 439.363 778.615 439.343 778.756 439.3C785.278 437.368 791.313 434.067 796.457 429.618C801.601 425.168 805.737 419.672 808.588 413.497C808.758 413.128 808.774 412.706 808.632 412.325C808.491 411.944 808.205 411.635 807.835 411.465C807.653 411.38 807.456 411.331 807.255 411.322C807.054 411.314 806.854 411.345 806.665 411.414C806.475 411.483 806.302 411.589 806.154 411.726C806.006 411.862 805.887 412.027 805.804 412.209C803.136 417.989 799.266 423.132 794.452 427.296C789.639 431.46 783.992 434.549 777.889 436.358C777.535 436.461 777.23 436.688 777.03 436.997C776.83 437.309 776.749 437.68 776.801 438.045C776.854 438.411 777.035 438.745 777.314 438.987C777.592 439.229 777.95 439.361 778.318 439.361C778.467 439.363 778.615 439.343 778.756 439.3C785.278 437.368 791.313 434.067 796.457 429.618C801.601 425.168 805.737 419.672 808.588 413.497C808.758 413.128 808.774 412.706 808.632 412.325C808.491 411.944 808.205 411.635 807.835 411.465V411.465ZM809.271 349.997C803.489 344.219 796.621 339.641 789.063 336.526C781.506 333.41 773.408 331.818 765.233 331.84H765.014C750.768 331.845 736.959 336.753 725.907 345.739C724.151 347.167 722.472 348.687 720.879 350.295C712.178 359.051 706.267 370.187 703.887 382.299C701.509 394.411 702.771 406.956 707.513 418.352C712.255 429.748 720.266 439.485 730.535 446.333C740.804 453.182 752.873 456.836 765.216 456.835H765.478C782.02 456.779 797.865 450.169 809.541 438.451C821.217 426.734 827.772 410.866 827.769 394.324V394.132C827.758 385.917 826.116 377.787 822.941 370.212C819.766 362.636 815.12 355.765 809.271 349.997V349.997ZM807.388 436.223C801.9 441.771 795.365 446.177 788.162 449.184C780.959 452.191 773.231 453.74 765.426 453.74H765.216C753.478 453.738 742.004 450.261 732.239 443.748C722.475 437.235 714.858 427.976 710.348 417.14C705.838 406.303 704.638 394.373 706.899 382.855C709.16 371.338 714.78 360.747 723.051 352.419C724.395 351.07 725.783 349.8 727.22 348.61C737.821 339.739 751.201 334.878 765.023 334.876H765.233C776.972 334.875 788.448 338.35 798.213 344.864C807.98 351.377 815.597 360.637 820.107 371.475C824.616 382.313 825.814 394.243 823.551 405.762C821.287 417.281 815.664 427.87 807.388 436.196V436.223ZM807.835 411.462C807.653 411.376 807.456 411.328 807.255 411.319C807.054 411.31 806.854 411.342 806.665 411.411C806.475 411.48 806.302 411.586 806.154 411.722C806.006 411.858 805.887 412.024 805.804 412.206C803.136 417.985 799.266 423.128 794.452 427.293C789.639 431.457 783.992 434.546 777.889 436.354C777.535 436.457 777.23 436.684 777.03 436.994C776.83 437.306 776.749 437.677 776.801 438.042C776.854 438.407 777.035 438.742 777.314 438.984C777.592 439.225 777.95 439.358 778.318 439.358C778.467 439.36 778.615 439.339 778.756 439.297C785.278 437.365 791.313 434.064 796.457 429.614C801.601 425.164 805.737 419.669 808.588 413.493C808.758 413.125 808.774 412.702 808.632 412.322C808.491 411.941 808.205 411.631 807.835 411.462C807.653 411.376 807.456 411.328 807.255 411.319C807.054 411.31 806.854 411.342 806.665 411.411C806.475 411.48 806.302 411.586 806.154 411.722C806.006 411.858 805.887 412.024 805.804 412.206C803.136 417.985 799.266 423.128 794.452 427.293C789.639 431.457 783.992 434.546 777.889 436.354C777.535 436.457 777.23 436.684 777.03 436.994C776.83 437.306 776.749 437.677 776.801 438.042C776.854 438.407 777.035 438.742 777.314 438.984C777.592 439.225 777.95 439.358 778.318 439.358C778.467 439.36 778.615 439.339 778.756 439.297C785.278 437.365 791.313 434.064 796.457 429.614C801.601 425.164 805.737 419.669 808.588 413.493C808.758 413.125 808.774 412.702 808.632 412.322C808.491 411.941 808.205 411.631 807.835 411.462C807.653 411.376 807.456 411.328 807.255 411.319C807.054 411.31 806.854 411.342 806.665 411.411C806.475 411.48 806.302 411.586 806.154 411.722C806.006 411.858 805.887 412.024 805.804 412.206C803.136 417.985 799.266 423.128 794.452 427.293C789.639 431.457 783.992 434.546 777.889 436.354C777.535 436.457 777.23 436.684 777.03 436.994C776.83 437.306 776.749 437.677 776.801 438.042C776.854 438.407 777.035 438.742 777.314 438.984C777.592 439.225 777.95 439.358 778.318 439.358C778.467 439.36 778.615 439.339 778.756 439.297C785.278 437.365 791.313 434.064 796.457 429.614C801.601 425.164 805.737 419.669 808.588 413.493C808.758 413.125 808.774 412.702 808.632 412.322C808.491 411.941 808.205 411.631 807.835 411.462V411.462ZM498.058 347.497C491.276 347.989 484.677 349.922 478.7 353.166C472.724 356.41 467.508 360.892 463.4 366.311C463.277 366.469 463.187 366.653 463.135 366.848C463.083 367.042 463.07 367.244 463.097 367.444C463.124 367.644 463.19 367.835 463.292 368.009C463.393 368.183 463.528 368.336 463.688 368.457C463.955 368.66 464.282 368.771 464.618 368.772C464.853 368.772 465.086 368.718 465.297 368.613C465.508 368.508 465.693 368.356 465.835 368.167C469.677 363.099 474.554 358.908 480.142 355.871C485.729 352.834 491.9 351.022 498.242 350.554C498.64 350.516 499.007 350.323 499.265 350.018C499.524 349.711 499.653 349.317 499.624 348.919C499.595 348.52 499.412 348.147 499.112 347.882C498.814 347.616 498.423 347.478 498.023 347.497C491.241 347.989 484.642 349.922 478.665 353.166C472.689 356.41 467.472 360.892 463.365 366.311C463.242 366.469 463.152 366.653 463.1 366.848C463.049 367.042 463.035 367.244 463.062 367.444C463.089 367.644 463.155 367.835 463.257 368.009C463.358 368.183 463.493 368.336 463.654 368.457C463.921 368.66 464.247 368.771 464.582 368.772C464.818 368.772 465.051 368.718 465.262 368.613C465.473 368.508 465.657 368.356 465.8 368.167C469.642 363.099 474.519 358.908 480.106 355.871C485.694 352.834 491.864 351.022 498.207 350.554C498.605 350.516 498.972 350.323 499.231 350.018C499.489 349.711 499.617 349.317 499.589 348.919C499.561 348.52 499.377 348.147 499.077 347.882C498.778 347.616 498.387 347.478 497.988 347.497H498.058ZM563.906 393.042C563.61 384.357 561.502 375.829 557.715 368.007C553.929 360.184 548.55 353.241 541.921 347.619C539.711 345.707 537.369 343.951 534.915 342.364C524.929 336.012 513.335 332.645 501.501 332.659H501.281C485.296 332.715 469.94 338.896 458.372 349.929C446.805 360.962 439.906 376.009 439.095 391.974C439.034 392.99 439.008 394.006 439.008 395.03V395.372C439.063 411.91 445.671 427.753 457.384 439.429C469.097 451.105 484.961 457.662 501.501 457.664H501.719C517.118 457.612 531.957 451.877 543.389 441.56C554.821 431.243 562.043 417.07 563.67 401.757C563.898 399.563 564.011 397.359 564.011 395.153V395.004C564.011 394.347 564.011 393.7 563.967 393.051L563.906 393.042ZM543.682 437.107C538.191 442.656 531.654 447.061 524.45 450.068C517.246 453.074 509.517 454.623 501.711 454.624H501.501C485.772 454.623 470.688 448.387 459.549 437.285C448.41 426.182 442.125 411.116 442.072 395.39V395.109C442.072 394.085 442.072 393.068 442.151 392.053C442.957 376.888 449.534 362.607 460.533 352.138C471.533 341.67 486.123 335.806 501.308 335.752H501.518C512.673 335.73 523.606 338.87 533.049 344.807C535.53 346.355 537.89 348.089 540.109 349.993C541.273 350.991 542.403 352.025 543.489 353.111C554.114 363.668 560.348 377.857 560.936 392.823C560.936 393.542 560.989 394.269 560.989 394.995C561.036 410.744 554.827 425.866 543.726 437.036L543.682 437.107ZM498.093 347.429C491.311 347.921 484.712 349.854 478.735 353.097C472.759 356.342 467.543 360.823 463.435 366.242C463.312 366.402 463.222 366.583 463.17 366.779C463.119 366.973 463.105 367.176 463.132 367.375C463.159 367.575 463.225 367.767 463.326 367.941C463.428 368.115 463.563 368.267 463.724 368.388C463.991 368.592 464.317 368.702 464.652 368.704C464.888 368.704 465.121 368.65 465.332 368.544C465.543 368.44 465.727 368.287 465.87 368.099C469.712 363.031 474.589 358.84 480.176 355.802C485.764 352.766 491.934 350.953 498.277 350.485C498.675 350.447 499.042 350.255 499.3 349.949C499.559 349.643 499.687 349.249 499.659 348.85C499.631 348.452 499.448 348.079 499.147 347.814C498.848 347.548 498.457 347.41 498.058 347.429C491.276 347.921 484.677 349.854 478.7 353.097C472.724 356.342 467.508 360.823 463.4 366.242C463.277 366.402 463.187 366.583 463.135 366.779C463.083 366.973 463.07 367.176 463.097 367.375C463.124 367.575 463.19 367.767 463.292 367.941C463.393 368.115 463.528 368.267 463.688 368.388C463.955 368.592 464.282 368.702 464.618 368.704C464.853 368.704 465.086 368.65 465.297 368.544C465.508 368.44 465.693 368.287 465.835 368.099C469.677 363.031 474.554 358.84 480.142 355.802C485.729 352.766 491.9 350.953 498.242 350.485C498.64 350.447 499.007 350.255 499.265 349.949C499.524 349.643 499.653 349.249 499.624 348.85C499.595 348.452 499.412 348.079 499.112 347.814C498.814 347.548 498.423 347.41 498.023 347.429C491.241 347.921 484.642 349.854 478.665 353.097C472.689 356.342 467.472 360.823 463.365 366.242C463.242 366.402 463.152 366.583 463.1 366.779C463.049 366.973 463.035 367.176 463.062 367.375C463.089 367.575 463.155 367.767 463.257 367.941C463.358 368.115 463.493 368.267 463.654 368.388C463.921 368.592 464.247 368.702 464.582 368.704C464.818 368.704 465.051 368.65 465.262 368.544C465.473 368.44 465.657 368.287 465.8 368.099C469.642 363.031 474.519 358.84 480.106 355.802C485.694 352.766 491.864 350.953 498.207 350.485C498.605 350.447 498.972 350.255 499.231 349.949C499.489 349.643 499.617 349.249 499.589 348.85C499.561 348.452 499.377 348.079 499.077 347.814C498.778 347.548 498.387 347.41 497.988 347.429C491.206 347.921 484.607 349.854 478.63 353.097C472.655 356.342 467.437 360.823 463.33 366.242C463.207 366.402 463.117 366.583 463.065 366.779C463.013 366.973 463 367.176 463.027 367.375C463.054 367.575 463.12 367.767 463.222 367.941C463.323 368.115 463.458 368.267 463.618 368.388C463.885 368.592 464.212 368.702 464.548 368.704C464.783 368.704 465.015 368.65 465.227 368.544C465.438 368.44 465.622 368.287 465.764 368.099C469.607 363.031 474.484 358.84 480.072 355.802C485.659 352.766 491.83 350.953 498.172 350.485C498.57 350.447 498.937 350.255 499.195 349.949C499.454 349.643 499.583 349.249 499.554 348.85C499.525 348.452 499.341 348.079 499.042 347.814C498.744 347.548 498.353 347.41 497.953 347.429C491.171 347.921 484.572 349.854 478.595 353.097C472.619 356.342 467.402 360.823 463.295 366.242C463.172 366.402 463.082 366.583 463.03 366.779C462.978 366.973 462.965 367.176 462.992 367.375C463.019 367.575 463.085 367.767 463.187 367.941C463.288 368.115 463.423 368.267 463.584 368.388C463.851 368.592 464.177 368.702 464.512 368.704C464.748 368.704 464.981 368.65 465.192 368.544C465.403 368.44 465.587 368.287 465.73 368.099C469.572 363.031 474.449 358.84 480.036 355.802C485.624 352.766 491.794 350.953 498.137 350.485C498.535 350.447 498.902 350.255 499.161 349.949C499.419 349.643 499.547 349.249 499.519 348.85C499.491 348.452 499.307 348.079 499.007 347.814C498.708 347.548 498.317 347.41 497.918 347.429H498.093ZM563.836 392.974C563.54 384.289 561.432 375.761 557.645 367.938C553.859 360.116 548.48 353.172 541.851 347.551C539.64 345.639 537.299 343.883 534.845 342.296C524.859 335.943 513.265 332.577 501.431 332.591H501.211C485.225 332.647 469.87 338.827 458.302 349.861C446.734 360.893 439.836 375.94 439.024 391.906C438.963 392.921 438.937 393.938 438.937 394.962V395.304C438.993 411.841 445.601 427.684 457.314 439.36C469.027 451.036 484.891 457.593 501.431 457.596H501.649C517.048 457.543 531.887 451.809 543.319 441.492C554.752 431.175 561.973 417.002 563.599 401.688C563.827 399.495 563.941 397.291 563.941 395.084V395.006C563.941 394.349 563.941 393.701 563.897 393.052L563.836 392.974ZM543.612 437.109C538.121 442.658 531.584 447.063 524.38 450.07C517.176 453.076 509.447 454.625 501.641 454.626H501.431C485.702 454.624 470.618 448.388 459.479 437.286C448.34 426.183 442.055 411.118 442.002 395.391V395.11C442.002 394.086 442.002 393.07 442.081 392.054C442.887 376.89 449.464 362.609 460.464 352.14C471.463 341.671 486.053 335.807 501.238 335.753H501.447C512.603 335.731 523.536 338.872 532.979 344.809C535.46 346.356 537.82 348.09 540.039 349.995C541.203 350.993 542.333 352.027 543.419 353.113C554.044 363.67 560.278 377.858 560.867 392.825C560.867 393.544 560.919 394.27 560.919 394.996C560.966 410.746 554.757 425.868 543.655 437.038L543.612 437.109ZM498.023 347.43C491.241 347.922 484.642 349.856 478.665 353.099C472.689 356.343 467.472 360.825 463.365 366.244C463.242 366.404 463.152 366.585 463.1 366.781C463.049 366.975 463.035 367.178 463.062 367.377C463.089 367.577 463.155 367.769 463.257 367.943C463.358 368.116 463.493 368.268 463.654 368.39C463.921 368.593 464.247 368.704 464.582 368.706C464.818 368.706 465.051 368.652 465.262 368.546C465.473 368.441 465.657 368.289 465.8 368.1C469.642 363.033 474.519 358.841 480.106 355.804C485.694 352.767 491.864 350.955 498.207 350.487C498.605 350.449 498.972 350.257 499.231 349.951C499.489 349.645 499.617 349.25 499.589 348.852C499.561 348.453 499.377 348.08 499.077 347.815C498.778 347.549 498.387 347.412 497.988 347.43H498.023ZM563.906 392.975C563.61 384.29 561.502 375.762 557.715 367.94C553.929 360.118 548.55 353.173 541.921 347.553C539.711 345.641 537.369 343.885 534.915 342.298C524.929 335.945 513.335 332.578 501.501 332.593H501.281C485.296 332.648 469.94 338.829 458.372 349.862C446.805 360.895 439.906 375.942 439.095 391.907C439.034 392.923 439.008 393.939 439.008 394.963V395.305C439.063 411.843 445.671 427.686 457.384 439.362C469.097 451.038 484.961 457.595 501.501 457.598H501.719C517.118 457.545 531.957 451.811 543.389 441.494C554.821 431.177 562.043 417.004 563.67 401.69C563.898 399.497 564.011 397.293 564.011 395.086V395.007C564.011 394.351 564.011 393.703 563.967 393.054L563.906 392.975ZM543.682 437.111C538.191 442.66 531.654 447.064 524.45 450.072C517.246 453.078 509.517 454.627 501.711 454.628H501.501C485.772 454.626 470.688 448.39 459.549 437.288C448.41 426.185 442.125 411.12 442.072 395.393V395.112C442.072 394.088 442.072 393.072 442.151 392.056C442.957 376.892 449.534 362.611 460.533 352.142C471.533 341.673 486.123 335.809 501.308 335.755H501.518C512.673 335.733 523.606 338.874 533.049 344.811C535.53 346.358 537.89 348.092 540.109 349.997C541.273 350.995 542.403 352.029 543.489 353.114C554.114 363.672 560.348 377.86 560.936 392.827C560.936 393.545 560.989 394.272 560.989 394.998C561.036 410.747 554.827 425.869 543.726 437.04L543.682 437.111ZM498.093 347.432C491.311 347.924 484.712 349.857 478.735 353.101C472.759 356.345 467.543 360.827 463.435 366.246C463.312 366.405 463.222 366.587 463.17 366.783C463.119 366.977 463.105 367.179 463.132 367.379C463.159 367.579 463.225 367.77 463.326 367.944C463.428 368.118 463.563 368.27 463.724 368.392C463.991 368.595 464.317 368.706 464.652 368.707C464.888 368.707 465.121 368.653 465.332 368.548C465.543 368.443 465.727 368.29 465.87 368.102C469.712 363.034 474.589 358.843 480.176 355.806C485.764 352.769 491.934 350.957 498.277 350.489C498.675 350.451 499.042 350.258 499.3 349.953C499.559 349.646 499.687 349.252 499.659 348.854C499.631 348.455 499.448 348.082 499.147 347.817C498.848 347.551 498.457 347.413 498.058 347.432H498.093ZM575.415 393.809C575.221 383.287 572.774 372.927 568.243 363.43C563.71 353.931 557.196 345.514 549.138 338.744C546.912 336.851 544.571 335.097 542.132 333.488C530.1 325.536 515.992 321.304 501.571 321.322H501.317C482.353 321.407 464.148 328.769 450.456 341.891C436.765 355.011 428.634 372.888 427.744 391.83C427.7 392.845 427.673 393.862 427.673 394.887V395.465C427.69 405.15 429.613 414.739 433.335 423.681C437.056 432.624 442.503 440.746 449.363 447.583C456.223 454.421 464.364 459.84 473.318 463.531C482.272 467.223 491.867 469.116 501.553 469.1H501.807C520.093 469.038 537.707 462.198 551.244 449.903C564.781 437.607 573.277 420.73 575.091 402.533C575.325 400.032 575.433 397.521 575.415 395.009V393.845V393.809ZM521.243 463.292C514.917 465.123 508.366 466.061 501.78 466.077H501.535C482.795 466.073 464.82 458.642 451.547 445.412C438.275 432.182 430.786 414.231 430.722 395.491V394.983C430.722 393.958 430.722 392.942 430.8 391.927C431.683 373.79 439.486 356.684 452.602 344.127C465.719 331.571 483.15 324.522 501.308 324.431H501.553C515.277 324.415 528.706 328.413 540.187 335.932C542.632 337.532 544.974 339.287 547.194 341.187C548.683 342.437 550.117 343.75 551.495 345.129C564.452 358.004 571.92 375.398 572.332 393.661V395.035C572.385 410.425 567.425 425.414 558.2 437.732C548.976 450.05 535.989 459.029 521.208 463.309L521.243 463.292ZM541.983 347.696C539.772 345.784 537.43 344.028 534.976 342.441C524.99 336.089 513.397 332.722 501.561 332.736H501.343C485.357 332.792 470.001 338.972 458.433 350.006C446.865 361.039 439.967 376.086 439.156 392.051C439.095 393.067 439.068 394.083 439.068 395.107V395.449C439.124 411.987 445.732 427.83 457.446 439.506C469.159 451.182 485.023 457.738 501.561 457.741H501.78C517.18 457.689 532.017 451.954 543.45 441.637C554.882 431.32 562.104 417.147 563.73 401.833C563.959 399.639 564.073 397.436 564.072 395.23V395.011C564.072 394.354 564.072 393.706 564.028 393.057C563.733 384.372 561.625 375.845 557.838 368.022C554.053 360.2 548.672 353.256 542.044 347.635L541.983 347.696ZM543.743 437.113C538.253 442.662 531.716 447.067 524.512 450.074C517.307 453.08 509.579 454.629 501.772 454.63H501.561C485.834 454.628 470.748 448.392 459.61 437.29C448.471 426.188 442.187 411.122 442.134 395.396V395.115C442.134 394.091 442.134 393.074 442.212 392.059C443.018 376.894 449.595 362.613 460.594 352.144C471.595 341.675 486.184 335.812 501.369 335.758H501.579C512.733 335.736 523.667 338.876 533.111 344.813C535.591 346.361 537.951 348.095 540.17 349.999C541.335 350.997 542.464 352.031 543.551 353.117C554.176 363.674 560.41 377.863 560.998 392.829C560.998 393.548 561.05 394.275 561.05 395.001C561.097 410.75 554.888 425.872 543.787 437.042L543.743 437.113ZM498.154 347.435C491.372 347.927 484.773 349.86 478.796 353.103C472.821 356.348 467.605 360.829 463.496 366.248C463.374 366.408 463.283 366.589 463.232 366.785C463.179 366.979 463.167 367.182 463.194 367.381C463.221 367.581 463.287 367.773 463.388 367.947C463.489 368.121 463.624 368.273 463.785 368.394C464.051 368.598 464.378 368.708 464.714 368.71C464.95 368.71 465.182 368.656 465.394 368.55C465.605 368.446 465.789 368.293 465.931 368.105C469.773 363.037 474.65 358.845 480.238 355.808C485.825 352.772 491.996 350.959 498.338 350.491C498.736 350.453 499.103 350.261 499.362 349.955C499.621 349.649 499.749 349.255 499.72 348.856C499.692 348.458 499.508 348.085 499.209 347.819C498.91 347.554 498.519 347.416 498.12 347.435C491.337 347.927 484.738 349.86 478.761 353.103C472.785 356.348 467.569 360.829 463.461 366.248C463.338 366.408 463.249 366.589 463.196 366.785C463.145 366.979 463.131 367.182 463.158 367.381C463.185 367.581 463.251 367.773 463.353 367.947C463.455 368.121 463.59 368.273 463.75 368.394C464.017 368.598 464.344 368.708 464.679 368.71C464.914 368.71 465.147 368.656 465.358 368.55C465.569 368.446 465.753 368.293 465.897 368.105C469.739 363.037 474.616 358.845 480.203 355.808C485.79 352.772 491.96 350.959 498.304 350.491C498.701 350.453 499.069 350.261 499.327 349.955C499.585 349.649 499.713 349.255 499.686 348.856C499.657 348.458 499.474 348.085 499.173 347.819C498.874 347.554 498.483 347.416 498.084 347.435C491.302 347.927 484.703 349.86 478.726 353.103C472.751 356.348 467.535 360.829 463.426 366.248C463.303 366.408 463.213 366.589 463.162 366.785C463.109 366.979 463.097 367.182 463.124 367.381C463.151 367.581 463.217 367.773 463.318 367.947C463.419 368.121 463.554 368.273 463.715 368.394C463.981 368.598 464.308 368.708 464.644 368.71C464.88 368.71 465.112 368.656 465.324 368.55C465.535 368.446 465.719 368.293 465.861 368.105C469.703 363.037 474.58 358.845 480.168 355.808C485.756 352.772 491.926 350.959 498.268 350.491C498.666 350.453 499.033 350.261 499.291 349.955C499.551 349.649 499.679 349.255 499.65 348.856C499.621 348.458 499.438 348.085 499.139 347.819C498.84 347.554 498.449 347.416 498.05 347.435H498.154ZM563.967 392.98C563.671 384.295 561.563 375.767 557.776 367.944C553.991 360.122 548.611 353.178 541.983 347.557C539.772 345.645 537.43 343.889 534.976 342.302C524.99 335.949 513.397 332.583 501.561 332.597H501.343C485.357 332.653 470.001 338.833 458.433 349.867C446.865 360.899 439.967 375.946 439.156 391.912C439.095 392.927 439.068 393.944 439.068 394.968V395.31C439.124 411.847 445.732 427.69 457.446 439.366C469.159 451.042 485.023 457.599 501.561 457.602H501.78C517.18 457.549 532.017 451.815 543.45 441.498C554.882 431.181 562.104 417.008 563.73 401.694C563.959 399.501 564.073 397.297 564.072 395.09V395.012C564.072 394.355 564.072 393.707 564.028 393.058L563.967 392.98ZM543.743 437.115C538.253 442.664 531.716 447.069 524.512 450.076C517.307 453.082 509.579 454.631 501.772 454.632H501.561C485.834 454.63 470.748 448.394 459.61 437.292C448.471 426.189 442.187 411.124 442.134 395.397V395.116C442.134 394.092 442.134 393.076 442.212 392.06C443.018 376.896 449.595 362.615 460.594 352.146C471.595 341.677 486.184 335.813 501.369 335.759H501.579C512.733 335.737 523.667 338.878 533.111 344.815C535.591 346.362 537.951 348.096 540.17 350.001C541.335 350.999 542.464 352.033 543.551 353.118C554.176 363.676 560.41 377.864 560.998 392.831C560.998 393.549 561.05 394.276 561.05 395.002C561.097 410.752 554.888 425.874 543.787 437.044L543.743 437.115ZM498.154 347.436C491.372 347.928 484.773 349.862 478.796 353.105C472.821 356.349 467.605 360.831 463.496 366.25C463.374 366.409 463.283 366.591 463.232 366.787C463.179 366.981 463.167 367.184 463.194 367.383C463.221 367.583 463.287 367.775 463.388 367.948C463.489 368.122 463.624 368.274 463.785 368.396C464.051 368.599 464.378 368.71 464.714 368.712C464.95 368.712 465.182 368.658 465.394 368.552C465.605 368.447 465.789 368.295 465.931 368.106C469.773 363.039 474.65 358.847 480.238 355.81C485.825 352.773 491.996 350.961 498.338 350.493C498.736 350.455 499.103 350.263 499.362 349.957C499.621 349.651 499.749 349.256 499.72 348.858C499.692 348.459 499.508 348.086 499.209 347.821C498.91 347.555 498.519 347.418 498.12 347.436C491.337 347.928 484.738 349.862 478.761 353.105C472.785 356.349 467.569 360.831 463.461 366.25C463.338 366.409 463.249 366.591 463.196 366.787C463.145 366.981 463.131 367.184 463.158 367.383C463.185 367.583 463.251 367.775 463.353 367.948C463.455 368.122 463.59 368.274 463.75 368.396C464.017 368.599 464.344 368.71 464.679 368.712C464.914 368.712 465.147 368.658 465.358 368.552C465.569 368.447 465.753 368.295 465.897 368.106C469.739 363.039 474.616 358.847 480.203 355.81C485.79 352.773 491.96 350.961 498.304 350.493C498.701 350.455 499.069 350.263 499.327 349.957C499.585 349.651 499.713 349.256 499.686 348.858C499.657 348.459 499.474 348.086 499.173 347.821C498.874 347.555 498.483 347.418 498.084 347.436C491.302 347.928 484.703 349.862 478.726 353.105C472.751 356.349 467.535 360.831 463.426 366.25C463.303 366.409 463.213 366.591 463.162 366.787C463.109 366.981 463.097 367.184 463.124 367.383C463.151 367.583 463.217 367.775 463.318 367.948C463.419 368.122 463.554 368.274 463.715 368.396C463.981 368.599 464.308 368.71 464.644 368.712C464.88 368.712 465.112 368.658 465.324 368.552C465.535 368.447 465.719 368.295 465.861 368.106C469.703 363.039 474.58 358.847 480.168 355.81C485.756 352.773 491.926 350.961 498.268 350.493C498.666 350.455 499.033 350.263 499.291 349.957C499.551 349.651 499.679 349.256 499.65 348.858C499.621 348.459 499.438 348.086 499.139 347.821C498.84 347.555 498.449 347.418 498.05 347.436H498.154ZM563.967 392.981C563.671 384.296 561.563 375.768 557.776 367.946C553.991 360.124 548.611 353.179 541.983 347.559C539.772 345.647 537.43 343.891 534.976 342.304C524.99 335.951 513.397 332.584 501.561 332.599H501.343C485.357 332.654 470.001 338.835 458.433 349.868C446.865 360.901 439.967 375.948 439.156 391.913C439.095 392.929 439.068 393.945 439.068 394.969V395.311C439.124 411.849 445.732 427.692 457.446 439.368C469.159 451.044 485.023 457.601 501.561 457.603H501.78C517.18 457.551 532.017 451.816 543.45 441.5C554.882 431.183 562.104 417.01 563.73 401.696C563.959 399.503 564.073 397.298 564.072 395.092V395.013C564.072 394.356 564.072 393.709 564.028 393.06L563.967 392.981ZM543.743 437.117C538.253 442.665 531.716 447.07 524.512 450.077C517.307 453.084 509.579 454.633 501.772 454.634H501.561C485.834 454.632 470.748 448.396 459.61 437.294C448.471 426.191 442.187 411.126 442.134 395.399V395.118C442.134 394.094 442.134 393.078 442.212 392.062C443.018 376.898 449.595 362.617 460.594 352.148C471.595 341.679 486.184 335.815 501.369 335.761H501.579C512.733 335.739 523.667 338.879 533.111 344.817C535.591 346.364 537.951 348.098 540.17 350.003C541.335 351 542.464 352.035 543.551 353.12C554.176 363.678 560.41 377.866 560.998 392.833C560.998 393.551 561.05 394.278 561.05 395.004C561.097 410.753 554.888 425.875 543.787 437.046L543.743 437.117ZM498.154 347.438C491.372 347.93 484.773 349.863 478.796 353.107C472.821 356.351 467.605 360.833 463.496 366.252C463.374 366.411 463.283 366.593 463.232 366.789C463.179 366.983 463.167 367.185 463.194 367.384C463.221 367.585 463.287 367.776 463.388 367.95C463.489 368.124 463.624 368.276 463.785 368.398C464.051 368.601 464.378 368.712 464.714 368.713C464.95 368.713 465.182 368.659 465.394 368.554C465.605 368.449 465.789 368.296 465.931 368.108C469.773 363.04 474.65 358.849 480.238 355.811C485.825 352.775 491.996 350.962 498.338 350.495C498.736 350.457 499.103 350.264 499.362 349.959C499.621 349.652 499.749 349.258 499.72 348.86C499.692 348.461 499.508 348.088 499.209 347.823C498.91 347.557 498.519 347.419 498.12 347.438C491.337 347.93 484.738 349.863 478.761 353.107C472.785 356.351 467.569 360.833 463.461 366.252C463.338 366.411 463.249 366.593 463.196 366.789C463.145 366.983 463.131 367.185 463.158 367.384C463.185 367.585 463.251 367.776 463.353 367.95C463.455 368.124 463.59 368.276 463.75 368.398C464.017 368.601 464.344 368.712 464.679 368.713C464.914 368.713 465.147 368.659 465.358 368.554C465.569 368.449 465.753 368.296 465.897 368.108C469.739 363.04 474.616 358.849 480.203 355.811C485.79 352.775 491.96 350.962 498.304 350.495C498.701 350.457 499.069 350.264 499.327 349.959C499.585 349.652 499.713 349.258 499.686 348.86C499.657 348.461 499.474 348.088 499.173 347.823C498.874 347.557 498.483 347.419 498.084 347.438C491.302 347.93 484.703 349.863 478.726 353.107C472.751 356.351 467.535 360.833 463.426 366.252C463.303 366.411 463.213 366.593 463.162 366.789C463.109 366.983 463.097 367.185 463.124 367.384C463.151 367.585 463.217 367.776 463.318 367.95C463.419 368.124 463.554 368.276 463.715 368.398C463.981 368.601 464.308 368.712 464.644 368.713C464.88 368.713 465.112 368.659 465.324 368.554C465.535 368.449 465.719 368.296 465.861 368.108C469.703 363.04 474.58 358.849 480.168 355.811C485.756 352.775 491.926 350.962 498.268 350.495C498.666 350.457 499.033 350.264 499.291 349.959C499.551 349.652 499.679 349.258 499.65 348.86C499.621 348.461 499.438 348.088 499.139 347.823C498.84 347.557 498.449 347.419 498.05 347.438" fill="#00ADA8"/>
    <path d="M759.543 279.169C751.274 281.604 747.104 281.797 746.317 281.797H746.203C745.041 281.712 743.893 282.091 743.012 282.854C742.131 283.614 741.588 284.695 741.504 285.856C741.419 287.017 741.798 288.165 742.56 289.046C743.321 289.928 744.402 290.47 745.563 290.555C746.106 290.555 751.143 290.836 762.038 287.629C772.382 284.591 777.803 274.798 775.605 263.272C773.6 252.876 764.71 246.429 752.385 246.429H752.263C751.746 246.429 749.084 246.49 745.738 246.586C739.284 246.762 730.27 247.033 729.166 247.077C728.14 247.517 726.989 247.572 725.927 247.225C723.57 247.366 719.217 247.568 714.724 247.761L712.972 247.831L708.758 248.005L699.895 248.356C699.206 248.315 698.515 248.438 697.882 248.716C697.249 248.993 696.689 249.417 696.251 249.952C695.813 250.487 695.506 251.118 695.359 251.793C695.212 252.469 695.226 253.17 695.402 253.839C695.472 254.101 700.246 272.232 708.592 297.869L665.623 298.762L656.294 298.972C655.639 298.987 654.995 299.148 654.412 299.445C653.854 299.228 653.258 299.124 652.66 299.138L630.912 299.831L629.668 299.874L583.86 301.303L573.165 301.644L562.366 281.595L560.728 278.53H553.012C552.513 279.47 552.373 280.559 552.617 281.595C552.704 281.967 552.839 282.327 553.02 282.663L564.968 304.876L542.125 333.508L540.198 335.908L534.943 342.433L533.016 344.85L504.357 380.656L501.993 383.608L496.484 390.492C495.984 391.117 495.665 391.868 495.562 392.661C495.459 393.454 495.575 394.262 495.899 394.994C496.222 395.726 496.739 396.355 497.395 396.814C498.051 397.273 498.82 397.543 499.619 397.596L507.729 398.129L511.575 398.383L560.624 401.624L563.689 401.825L571.992 402.369L575.058 402.57L591.515 403.657L595.168 403.902L596.271 403.972L621.461 405.636H621.759C622.414 405.636 623.062 405.489 623.654 405.205C624.245 404.921 624.765 404.509 625.175 403.998L638.707 389.301L640.169 387.715L642.666 385L666.314 359.276L668.574 356.824C668.67 356.719 668.758 356.605 668.846 356.499C669.215 356.282 669.551 356.013 669.844 355.702L673.523 351.787L712.665 310.122C715.293 317.952 718.262 326.255 721.424 334.786L721.687 335.505C721.976 336.267 722.256 337.029 722.564 337.773C723.631 340.532 724.744 343.195 725.874 345.744C726.312 346.734 726.749 347.697 727.187 348.643C742.488 381.558 761.635 396.343 762.546 397.027C763.476 397.723 764.644 398.022 765.793 397.857C766.943 397.693 767.98 397.08 768.678 396.15C769.375 395.221 769.674 394.053 769.509 392.903C769.344 391.753 768.731 390.716 767.802 390.019C767.6 389.861 748.97 375.479 734.413 343.423C733.984 342.494 733.537 341.549 733.161 340.594C732.074 338.094 731.024 335.496 730.008 332.798C729.955 332.675 729.911 332.545 729.859 332.413L728.913 329.89C716.826 297.212 708.444 268.317 705.264 256.817L713.953 256.457C718.849 256.247 723.762 256.029 726.382 255.871C726.9 255.839 727.41 255.717 727.888 255.511C728.395 255.682 728.93 255.756 729.465 255.731C731.12 255.661 744.355 255.284 749.864 255.144L752.219 255.092H752.333C756.24 255.092 765.279 256.055 766.969 264.839C767.995 270.095 766.654 277.041 759.533 279.133L759.543 279.169ZM596.428 395.203H596.367L592.627 394.957L575.407 393.819L572.342 393.618L563.995 393.065L560.92 392.864L511.924 389.631L508.596 389.413L510.741 386.732L540.092 350.034L542.01 347.642L547.204 341.144L549.122 338.753L569.486 313.291L595.99 362.611L604.661 378.728L606.413 381.951L614.164 396.358L596.428 395.203ZM666.567 346.451L663.502 349.71C663.395 349.823 663.296 349.943 663.204 350.069C662.82 350.29 662.472 350.567 662.171 350.892L655.365 358.232L647.999 366.229L647.509 366.763L638.163 376.906L636.21 379.034L633.706 381.748L622.704 393.758L614.488 378.474L612.737 375.163L594.65 341.529L577.85 310.287L587.538 309.98L625.91 308.754L632.611 308.544L652.965 307.895C653.605 307.87 654.232 307.708 654.804 307.422C655.36 307.648 655.958 307.751 656.556 307.729L661.811 307.616L704.029 306.679L666.567 346.451Z" fill="#00ADA8"/>
    <path d="M511.899 389.64C511.614 388.633 511.217 387.66 510.716 386.741C509.287 384.098 507.062 381.972 504.357 380.663C502.423 379.731 500.303 379.251 498.157 379.261H498.104C494.447 379.271 490.935 380.683 488.292 383.208C485.648 385.733 484.074 389.177 483.897 392.828V393.582C483.904 397.362 485.412 400.985 488.089 403.654C490.766 406.322 494.393 407.819 498.174 407.815C501.097 407.803 503.947 406.894 506.34 405.212C508.73 403.53 510.549 401.156 511.548 398.408C512.571 395.594 512.684 392.53 511.873 389.649L511.899 389.64ZM498.165 404.163C496.064 404.163 494.011 403.541 492.264 402.375C490.516 401.21 489.153 399.552 488.346 397.612C487.539 395.673 487.325 393.538 487.73 391.477C488.136 389.416 489.143 387.521 490.623 386.032C491.604 385.036 492.772 384.246 494.061 383.709C495.35 383.169 496.734 382.894 498.131 382.896C499.443 382.893 500.745 383.14 501.967 383.623C503.96 384.395 505.674 385.75 506.887 387.511C508.099 389.272 508.752 391.356 508.763 393.495C508.768 395.093 508.405 396.672 507.703 398.11C506.838 399.906 505.484 401.423 503.798 402.488C502.111 403.551 500.159 404.12 498.165 404.127" fill="#00ADA8"/>
    <path d="M642.656 385.014C641.38 383.403 639.935 381.936 638.346 380.635C637.663 380.085 636.954 379.56 636.218 379.058C631.845 376.128 626.748 374.456 621.489 374.227C616.23 373.999 611.008 375.22 606.397 377.76C601.786 380.299 597.961 384.057 595.342 388.624C592.723 393.191 591.411 398.389 591.549 403.653V403.854C591.758 410.585 594.346 417.025 598.853 422.029C599.422 422.668 600.018 423.28 600.605 423.868C605.904 428.849 612.907 431.616 620.181 431.601H621.178C624.95 431.483 628.662 430.618 632.097 429.056C635.532 427.493 638.624 425.266 641.193 422.502C645.898 417.472 648.635 410.917 648.904 404.034C649.173 397.152 646.954 390.404 642.656 385.022V385.014ZM640.991 416.922C640.256 418.017 639.433 419.052 638.53 420.013C633.991 424.872 627.707 427.73 621.061 427.956C614.416 428.182 607.952 425.761 603.092 421.223C601.75 419.968 600.548 418.57 599.51 417.053C598.01 414.851 596.863 412.428 596.111 409.871C595.555 407.932 595.234 405.932 595.157 403.915C595.153 403.86 595.153 403.805 595.157 403.749C595.057 400.857 595.463 397.97 596.357 395.218C596.374 395.15 596.401 395.086 596.435 395.025C598.214 389.685 601.729 385.092 606.42 381.984C610.273 379.426 614.762 377.992 619.384 377.841H620.26C623.702 377.85 627.106 378.565 630.26 379.942C633.414 381.319 636.253 383.328 638.6 385.846C639.167 386.454 639.702 387.091 640.203 387.756C643.388 391.915 645.187 396.97 645.344 402.207C645.502 407.443 644.01 412.597 641.079 416.939" fill="#00ADA8"/>
    <path d="M649.536 356.303C649.415 356.133 649.26 355.99 649.08 355.883C648.901 355.776 648.701 355.708 648.493 355.681L636.958 354.201L615.465 351.45C615.267 351.418 615.063 351.425 614.867 351.471C614.672 351.518 614.488 351.603 614.325 351.721C614.162 351.839 614.024 351.988 613.919 352.159C613.814 352.332 613.745 352.522 613.713 352.721V352.773L612.54 361.821C612.514 362.024 612.529 362.229 612.583 362.426C612.637 362.623 612.729 362.807 612.855 362.968C612.992 363.126 613.159 363.254 613.347 363.345C613.536 363.435 613.741 363.486 613.95 363.494L637.642 366.121L646.505 367.076H646.671C646.984 367.082 647.291 366.99 647.548 366.814C647.755 366.68 647.923 366.495 648.038 366.278C648.117 366.14 648.173 365.989 648.205 365.833L649.816 357.599V357.512C649.858 357.306 649.857 357.094 649.812 356.889C649.766 356.683 649.679 356.489 649.554 356.32L649.536 356.303ZM645.447 363.871L637.493 362.995L615.833 360.656L616.612 354.682L637.169 357.31L646.497 358.51L645.447 363.871Z" fill="#00ADA8"/>
    <path d="M692.725 200.541C690.45 198.282 688.475 195.743 686.847 192.983C683.344 186.755 672.466 165.752 662.324 150.345C658.267 144.214 654.327 138.959 651.033 135.867C646.196 131.186 640.533 127.444 634.33 124.831C632.779 124.211 631.194 123.678 629.583 123.237C624.33 121.837 618.883 121.304 613.458 121.66C609.349 121.896 605.265 122.468 601.249 123.368C577.985 128.439 546.446 141.639 527.255 173.66C512.103 198.956 511.438 221.554 518.724 235.997L586.981 213.224C586.981 213.224 587.524 207.969 602.746 193.402C617.969 178.838 631.492 179.625 640.987 189.024C651.27 199.245 661.027 206.497 667.876 212.926C672.658 217.366 700.126 240.586 708.787 247.891L711.415 250.098L711.477 250.054L714.674 247.707L729.301 236.899L692.725 200.541Z" fill="#D3D9E5"/>
    <path d="M210.277 334.413C209.905 334.412 209.547 334.275 209.268 334.029C208.988 333.782 208.809 333.443 208.762 333.073L197.726 246.425C197.696 246.219 197.708 246.009 197.761 245.807C197.814 245.605 197.908 245.417 198.037 245.253C198.165 245.09 198.326 244.954 198.509 244.854C198.692 244.754 198.894 244.693 199.101 244.673L240.451 240.644C240.656 240.615 240.865 240.627 241.065 240.681C241.265 240.734 241.452 240.828 241.614 240.957C241.777 241.085 241.912 241.244 242.012 241.426C242.111 241.607 242.173 241.807 242.193 242.013C242.213 242.219 242.192 242.426 242.129 242.625C242.067 242.822 241.965 243.004 241.829 243.161C241.695 243.318 241.53 243.446 241.344 243.537C241.158 243.628 240.955 243.681 240.749 243.692L200.967 247.572L211.802 332.667C211.832 332.87 211.823 333.076 211.772 333.275C211.722 333.473 211.633 333.659 211.509 333.822C211.386 333.986 211.232 334.122 211.055 334.225C210.877 334.328 210.681 334.393 210.479 334.419H210.286" fill="#00ADA8"/>
    <path d="M213.603 262.386C213.2 262.386 212.812 262.226 212.526 261.94L199.081 248.601C198.923 248.463 198.796 248.294 198.706 248.105C198.616 247.916 198.566 247.711 198.559 247.501C198.551 247.292 198.587 247.084 198.663 246.889C198.739 246.694 198.855 246.516 199.002 246.368C199.15 246.219 199.326 246.103 199.521 246.025C199.715 245.946 199.923 245.909 200.132 245.915C200.342 245.921 200.548 245.969 200.737 246.058C200.928 246.146 201.097 246.272 201.237 246.428L214.681 259.768C214.899 259.981 215.048 260.255 215.109 260.553C215.171 260.851 215.142 261.163 215.026 261.445C214.911 261.727 214.713 261.967 214.46 262.137C214.206 262.306 213.908 262.396 213.603 262.395" fill="#00ADA8"/>
    <path d="M484.606 392.814H483.896L442.152 392.106L439.095 392.052L430.766 391.912L427.701 391.86L374.334 390.984L376.41 338.572C376.427 338.212 376.314 337.858 376.094 337.573L357.316 308.372C357.172 308.154 356.975 307.976 356.743 307.854C356.512 307.731 356.255 307.669 355.993 307.671L335.717 308.119H334.271C333.873 308.127 333.494 308.292 333.213 308.576C332.933 308.861 332.776 309.243 332.774 309.642V309.747C332.796 310.136 332.966 310.502 333.25 310.769C333.534 311.035 333.908 311.184 334.298 311.183H335.927L355.195 310.754L372.012 336.882L338.046 336.277L334.963 336.224L226.991 334.298L223.873 334.236L211.287 334.018H209.201L193.734 333.711L172.941 314.801H206.584C206.99 314.801 207.38 314.64 207.667 314.351C207.955 314.064 208.116 313.674 208.116 313.268C208.116 312.861 207.955 312.471 207.667 312.184C207.38 311.897 206.99 311.735 206.584 311.735H168.999C168.839 311.739 168.679 311.766 168.527 311.815C168.289 311.895 168.076 312.033 167.905 312.217L167.8 312.34C167.629 312.567 167.524 312.836 167.493 313.12C163.71 348.592 157.858 402.123 157.298 404.816C157.266 404.904 157.245 404.995 157.236 405.088C157.232 405.146 157.232 405.205 157.236 405.263C157.235 405.433 157.262 405.602 157.315 405.762C157.388 405.969 157.502 406.16 157.649 406.323C157.745 406.421 157.853 406.507 157.972 406.577L187.252 425.154C187.496 425.308 187.779 425.39 188.067 425.391H371.493C371.889 425.391 372.271 425.238 372.556 424.963C372.842 424.689 373.01 424.315 373.026 423.919L374.209 393.999L427.637 394.875L430.693 394.928L439.014 395.068L442.08 395.121L484.121 395.839H484.603C484.805 395.845 485.005 395.813 485.193 395.741C485.382 395.668 485.554 395.559 485.699 395.42C485.844 395.281 485.96 395.112 486.04 394.927C486.12 394.742 486.162 394.543 486.163 394.341C486.168 393.934 486.011 393.542 485.73 393.249C485.448 392.955 485.063 392.784 484.656 392.773L484.606 392.814ZM186.64 421.166L160.363 404.525C161.668 395.486 167.37 342.916 170.164 316.45L191.536 335.885L186.64 421.166ZM370.024 422.323H189.645L194.576 336.789L373.249 339.977L370.024 422.323Z" fill="#00ADA8"/>
    <path d="M284.203 383.486C274.269 382.477 264.338 385.449 256.592 391.75C248.845 398.052 243.914 407.17 242.881 417.101C242.702 418.847 242.643 420.603 242.705 422.357C242.705 423.381 242.811 424.406 242.941 425.423C243.949 433.921 247.823 441.823 253.921 447.827C260.02 453.83 267.983 457.578 276.496 458.451C277.785 458.583 279.08 458.65 280.376 458.653C289.586 458.631 298.472 455.239 305.355 449.118C312.238 442.996 316.644 434.568 317.74 425.423C317.74 425.229 317.793 425.037 317.81 424.844C317.898 423.969 317.95 423.18 317.985 422.357C318.322 412.808 315.02 403.488 308.75 396.279C302.479 389.071 293.706 384.511 284.203 383.521V383.486ZM314.763 424.529C314.763 424.827 314.701 425.124 314.657 425.405C313.566 433.735 309.482 441.384 303.168 446.924C296.852 452.466 288.738 455.522 280.337 455.522C271.935 455.522 263.821 452.466 257.505 446.924C251.192 441.384 247.107 433.735 246.016 425.405C245.893 424.389 245.805 423.372 245.77 422.34C245.708 420.699 245.764 419.057 245.937 417.426C246.824 408.918 250.826 401.039 257.175 395.307C263.524 389.573 271.77 386.392 280.323 386.376C281.514 386.372 282.704 386.434 283.888 386.559C292.397 387.442 300.278 391.443 306.012 397.791C311.747 404.138 314.93 412.384 314.947 420.938V422.34C314.947 423.057 314.859 423.785 314.789 424.511L314.763 424.529ZM284.229 383.503C274.295 382.494 264.364 385.466 256.618 391.767C248.872 398.069 243.94 407.187 242.907 417.119C242.729 418.865 242.67 420.621 242.731 422.374C242.731 423.399 242.837 424.424 242.968 425.44C243.976 433.939 247.849 441.84 253.947 447.844C260.046 453.847 268.009 457.595 276.523 458.469C277.811 458.6 279.106 458.668 280.402 458.67C289.614 458.648 298.499 455.256 305.381 449.135C312.264 443.014 316.67 434.586 317.766 425.44C317.766 425.247 317.819 425.054 317.837 424.861C317.924 423.986 317.977 423.197 318.012 422.374C318.348 412.826 315.046 403.506 308.776 396.297C302.505 389.089 293.733 384.528 284.229 383.539V383.503ZM314.789 424.546C314.789 424.844 314.727 425.142 314.683 425.423C313.592 433.752 309.508 441.401 303.194 446.942C296.879 452.484 288.764 455.538 280.363 455.538C271.961 455.538 263.847 452.484 257.532 446.942C251.218 441.401 247.134 433.752 246.042 425.423C245.919 424.406 245.831 423.39 245.796 422.357C245.734 420.717 245.79 419.075 245.963 417.443C246.85 408.936 250.853 401.057 257.201 395.324C263.551 389.591 271.796 386.41 280.35 386.393C281.54 386.39 282.73 386.451 283.914 386.577C292.423 387.46 300.304 391.461 306.038 397.808C311.774 404.156 314.956 412.401 314.973 420.955V422.357C314.973 423.075 314.885 423.803 314.815 424.529L314.789 424.546ZM284.256 383.521C274.321 382.512 264.391 385.484 256.645 391.785C248.898 398.087 243.966 407.204 242.933 417.137C242.756 418.883 242.697 420.639 242.757 422.392C242.757 423.416 242.863 424.442 242.994 425.457C244.002 433.957 247.875 441.857 253.973 447.861C260.073 453.865 268.035 457.613 276.549 458.486C277.837 458.618 279.132 458.686 280.429 458.687C289.64 458.665 298.525 455.274 305.407 449.153C312.29 443.031 316.696 434.603 317.793 425.457C317.793 425.264 317.845 425.071 317.863 424.879C317.95 424.004 318.003 423.215 318.038 422.392C318.374 412.843 315.073 403.523 308.802 396.315C302.531 389.106 293.759 384.546 284.256 383.556V383.521ZM314.815 424.564C314.815 424.861 314.754 425.159 314.71 425.44C313.619 433.77 309.534 441.418 303.22 446.96C296.905 452.502 288.79 455.557 280.389 455.557C271.988 455.557 263.873 452.502 257.559 446.96C251.244 441.418 247.16 433.77 246.068 425.44C245.945 424.424 245.857 423.408 245.823 422.374C245.76 420.735 245.816 419.093 245.989 417.461C246.876 408.953 250.879 401.074 257.228 395.342C263.577 389.609 271.822 386.428 280.376 386.411C281.567 386.407 282.756 386.468 283.94 386.595C292.449 387.478 300.33 391.478 306.065 397.826C311.8 404.173 314.982 412.419 314.999 420.973V422.374C314.999 423.093 314.912 423.82 314.842 424.546L314.815 424.564ZM284.282 383.539C274.347 382.529 264.418 385.502 256.671 391.803C248.924 398.105 243.993 407.222 242.959 417.155C242.782 418.9 242.723 420.656 242.784 422.41C242.784 423.434 242.889 424.459 243.021 425.475C244.028 433.973 247.901 441.875 253.999 447.879C260.1 453.883 268.061 457.63 276.575 458.503C277.864 458.636 279.159 458.703 280.455 458.705C289.667 458.683 298.551 455.291 305.434 449.171C312.317 443.049 316.722 434.62 317.819 425.475C317.819 425.282 317.872 425.089 317.889 424.897C317.977 424.021 318.029 423.232 318.064 422.41C318.4 412.861 315.1 403.54 308.829 396.332C302.557 389.124 293.785 384.564 284.282 383.573V383.539ZM314.842 424.581C314.842 424.879 314.781 425.177 314.736 425.457C313.645 433.788 309.56 441.436 303.246 446.977C296.931 452.519 288.817 455.575 280.415 455.575C272.014 455.575 263.899 452.519 257.585 446.977C251.27 441.436 247.186 433.788 246.094 425.457C245.971 424.442 245.884 423.425 245.849 422.392C245.786 420.753 245.842 419.11 246.016 417.478C246.902 408.97 250.905 401.091 257.254 395.359C263.603 389.626 271.848 386.445 280.402 386.429C281.594 386.424 282.783 386.486 283.967 386.613C292.475 387.496 300.357 391.495 306.091 397.843C311.826 404.191 315.008 412.436 315.025 420.991V422.392C315.025 423.11 314.938 423.837 314.868 424.564L314.842 424.581ZM317.863 390.598C311.856 383.165 303.776 377.685 294.649 374.853C285.522 372.022 275.759 371.965 266.6 374.691C257.44 377.418 249.297 382.803 243.205 390.166C237.111 397.528 233.344 406.534 232.378 416.042C232.159 418.136 232.083 420.243 232.15 422.348C232.15 423.381 232.229 424.398 232.326 425.414C233.345 436.54 238.2 446.966 246.06 454.907C253.918 462.848 264.294 467.81 275.41 468.944C285.111 469.967 294.891 467.996 303.438 463.295C306.711 461.501 309.767 459.339 312.547 456.849C321.471 448.861 327.094 437.828 328.313 425.913V425.414C328.418 424.389 328.479 423.372 328.505 422.348C328.87 410.794 325.037 399.499 317.714 390.554L317.863 390.598ZM325.238 425.414C325.243 425.478 325.243 425.543 325.238 425.607C324.102 436.747 318.866 447.068 310.548 454.565C302.229 462.061 291.422 466.201 280.223 466.177C269.024 466.152 258.235 461.968 249.949 454.435C241.662 446.902 236.471 436.558 235.382 425.414C235.278 424.398 235.216 423.381 235.181 422.348C234.993 416.302 236.022 410.28 238.205 404.639C240.388 398.999 243.683 393.853 247.893 389.51C252.103 385.167 257.142 381.713 262.712 379.355C268.283 376.997 274.27 375.782 280.319 375.782C286.368 375.782 292.355 376.997 297.925 379.355C303.495 381.713 308.535 385.167 312.745 389.51C316.955 393.853 320.25 398.999 322.433 404.639C324.617 410.28 325.645 416.302 325.457 422.348C325.457 423.364 325.361 424.389 325.256 425.414H325.238ZM284.177 383.513C274.242 382.503 264.312 385.475 256.566 391.777C248.819 398.078 243.888 407.196 242.854 417.128C242.676 418.873 242.617 420.629 242.679 422.384C242.679 423.408 242.784 424.432 242.915 425.449C243.923 433.947 247.796 441.849 253.895 447.853C259.994 453.856 267.957 457.604 276.47 458.477C277.758 458.61 279.053 458.676 280.35 458.679C289.56 458.657 298.446 455.265 305.329 449.144C312.212 443.022 316.617 434.594 317.714 425.449C317.714 425.256 317.766 425.063 317.784 424.871C317.872 423.995 317.924 423.206 317.959 422.384C318.295 412.835 314.994 403.514 308.723 396.306C302.453 389.098 293.68 384.538 284.177 383.547V383.513ZM314.894 422.384C314.894 423.101 314.807 423.829 314.736 424.555C314.736 424.853 314.675 425.151 314.631 425.431C313.54 433.762 309.455 441.41 303.142 446.95C296.826 452.493 288.712 455.548 280.31 455.548C271.909 455.548 263.795 452.493 257.479 446.95C251.166 441.41 247.08 433.762 245.989 425.431C245.867 424.415 245.779 423.399 245.744 422.366C245.682 420.726 245.737 419.084 245.91 417.452C246.798 408.944 250.8 401.065 257.149 395.333C263.498 389.599 271.744 386.418 280.297 386.402C281.488 386.398 282.678 386.46 283.862 386.586C292.371 387.469 300.252 391.469 305.986 397.817C311.721 404.164 314.904 412.41 314.921 420.964V422.366L314.894 422.384ZM284.203 383.53C274.269 382.52 264.338 385.492 256.592 391.794C248.845 398.096 243.914 407.213 242.881 417.145C242.702 418.891 242.643 420.647 242.705 422.4C242.705 423.425 242.811 424.45 242.941 425.467C243.949 433.965 247.823 441.867 253.921 447.871C260.02 453.874 267.983 457.621 276.496 458.495C277.785 458.627 279.08 458.694 280.376 458.697C289.586 458.674 298.472 455.283 305.355 449.161C312.238 443.04 316.644 434.612 317.74 425.467C317.74 425.273 317.793 425.081 317.81 424.887C317.898 424.012 317.95 423.224 317.985 422.4C318.322 412.852 315.02 403.532 308.75 396.323C302.479 389.115 293.706 384.554 284.203 383.565V383.53ZM314.763 424.573C314.763 424.871 314.701 425.168 314.657 425.449C313.566 433.779 309.482 441.428 303.168 446.968C296.852 452.51 288.738 455.566 280.337 455.566C271.935 455.566 263.821 452.51 257.505 446.968C251.192 441.428 247.107 433.779 246.016 425.449C245.893 424.432 245.805 423.416 245.77 422.384C245.708 420.743 245.764 419.101 245.937 417.47C246.824 408.962 250.826 401.083 257.175 395.35C263.524 389.617 271.77 386.436 280.323 386.419C281.514 386.416 282.704 386.478 283.888 386.603C292.397 387.486 300.278 391.487 306.012 397.834C311.747 404.182 314.93 412.427 314.947 420.981V422.384C314.947 423.101 314.859 423.829 314.789 424.555L314.763 424.573ZM284.229 383.547C274.295 382.538 264.364 385.51 256.618 391.812C248.872 398.113 243.94 407.23 242.907 417.163C242.729 418.909 242.67 420.665 242.731 422.418C242.731 423.442 242.837 424.468 242.968 425.484C243.976 433.983 247.849 441.884 253.947 447.887C260.046 453.891 268.009 457.639 276.523 458.513C277.811 458.644 279.106 458.712 280.402 458.713C289.614 458.691 298.499 455.3 305.381 449.179C312.264 443.058 316.67 434.629 317.766 425.484C317.766 425.29 317.819 425.098 317.837 424.905C317.924 424.03 317.977 423.241 318.012 422.418C318.348 412.87 315.046 403.55 308.776 396.341C302.505 389.133 293.733 384.572 284.229 383.583V383.547ZM314.789 424.59C314.789 424.887 314.727 425.185 314.683 425.467C313.592 433.796 309.508 441.445 303.194 446.986C296.879 452.528 288.764 455.583 280.363 455.583C271.961 455.583 263.847 452.528 257.532 446.986C251.218 441.445 247.134 433.796 246.042 425.467C245.919 424.45 245.831 423.434 245.796 422.4C245.734 420.761 245.79 419.119 245.963 417.487C246.85 408.979 250.853 401.1 257.201 395.368C263.551 389.635 271.796 386.454 280.35 386.437C281.54 386.434 282.73 386.494 283.914 386.621C292.423 387.504 300.304 391.504 306.038 397.852C311.774 404.2 314.956 412.445 314.973 420.999V422.4C314.973 423.119 314.885 423.846 314.815 424.573" fill="#00ADA8"/>
    <path d="M336.577 338.152C336.192 338.152 335.822 338.006 335.54 337.745C335.258 337.483 335.084 337.126 335.053 336.743L328.107 252.256L215.399 262.232L227.065 334.43C227.13 334.832 227.033 335.243 226.795 335.573C226.557 335.904 226.198 336.125 225.795 336.19C225.393 336.255 224.982 336.158 224.652 335.92C224.322 335.681 224.1 335.323 224.035 334.921L212.105 261.094C212.074 260.887 212.086 260.677 212.14 260.475C212.193 260.274 212.287 260.086 212.415 259.922C212.544 259.757 212.706 259.621 212.889 259.522C213.072 259.422 213.273 259.361 213.481 259.342L329.363 249.103C329.568 249.078 329.776 249.095 329.974 249.153C330.173 249.212 330.357 249.31 330.516 249.44C330.675 249.571 330.807 249.733 330.902 249.916C330.997 250.098 331.055 250.298 331.072 250.504L338.139 336.511C338.156 336.711 338.133 336.913 338.072 337.105C338.011 337.296 337.912 337.475 337.782 337.628C337.652 337.782 337.493 337.909 337.314 338.001C337.135 338.093 336.94 338.148 336.739 338.166H336.606" fill="#00ADA8"/>
    <path d="M343.938 182.939L322.391 165.675C322.145 165.47 321.836 165.352 321.515 165.342L239.061 163.267C238.663 163.254 238.276 163.4 237.983 163.669C237.689 163.94 237.513 164.314 237.493 164.712V165.719L233.473 238.959C233.459 239.261 233.534 239.561 233.69 239.819C233.846 240.078 234.075 240.285 234.348 240.413L235.733 241.106L240.874 243.733L250.727 248.682C250.925 248.785 251.144 248.843 251.367 248.848L331.053 251.204L336.729 251.37C337.111 251.37 337.479 251.227 337.761 250.969C338.042 250.711 338.218 250.358 338.253 249.978L344.445 184.288C344.47 184.035 344.431 183.779 344.331 183.545C344.232 183.311 344.076 183.106 343.876 182.948L343.938 182.939ZM335.433 248.261L251.709 245.782L236.46 238.162L240.279 168.635L240.401 166.376L242.415 166.429L320.849 168.399L341.38 184.813L335.433 248.261Z" fill="#00ADA8"/>
    <path d="M255.737 180.812C255.382 180.812 255.039 180.688 254.765 180.461L237.931 166.692C237.615 166.434 237.416 166.062 237.376 165.658C237.336 165.252 237.457 164.848 237.716 164.533C237.974 164.218 238.346 164.019 238.751 163.98C239.155 163.939 239.559 164.061 239.875 164.319L256.709 178.096C256.952 178.297 257.128 178.567 257.212 178.872C257.295 179.176 257.283 179.498 257.177 179.796C257.071 180.092 256.876 180.348 256.617 180.532C256.36 180.713 256.052 180.811 255.737 180.812" fill="#00ADA8"/>
    <path d="M518.686 235.997C525.973 250.439 531.64 264.094 559.501 263.149C579.849 262.455 615.26 265.425 620.891 266.214C626.522 267.001 639.398 270.172 636.219 282.242C633.039 294.311 613.884 335.381 613.884 335.381L647.657 338.482C647.657 338.482 673.198 283.731 676.377 271.661C678.479 263.656 679.408 241.882 659.368 233.123C639.328 224.365 586.942 213.268 586.942 213.268L518.686 235.997Z" fill="#C82232"/>
    <path d="M613.885 335.367L647.659 338.467C647.659 338.467 669.39 346.437 672.622 350.44C675.854 354.443 675.065 359.278 667.025 359.304C658.985 359.33 605.092 351.473 605.092 351.473L613.885 335.367Z" fill="#FFC927"/>
    <path d="M729.329 236.892C729.329 236.892 745.313 243.329 748.554 250.152C751.795 256.975 748.826 260.829 743.99 258.832C739.156 256.835 739.454 258.368 739.865 261.18C740.277 263.99 735.898 266.724 732.228 263.807C729.906 261.968 728.811 264.218 728.671 266.225C728.479 268.852 725.878 271.48 721.446 268.659C717.014 265.839 711.032 249.04 711.032 249.04L729.329 236.892Z" fill="#FF8631"/>
    <path d="M579.409 265.214C578.57 264.371 577.58 263.691 576.492 263.209C575.291 262.686 573.993 262.418 572.682 262.42L552.283 262.49H547.641L531.692 262.542C529.152 262.542 526.718 263.551 524.923 265.347C523.127 267.142 522.118 269.577 522.118 272.116C522.118 274.656 523.127 277.09 524.923 278.885C526.718 280.681 529.152 281.69 531.692 281.69L552.599 281.62H572.717C574.609 281.614 576.457 281.046 578.028 279.99C579.597 278.934 580.818 277.436 581.537 275.685C582.255 273.935 582.438 272.01 582.063 270.156C581.687 268.302 580.77 266.6 579.426 265.267L579.409 265.214ZM560.718 278.537H553.002L531.692 278.607C529.966 278.607 528.311 277.921 527.09 276.7C525.869 275.48 525.184 273.824 525.184 272.099C525.184 270.372 525.869 268.718 527.09 267.497C528.311 266.277 529.966 265.591 531.692 265.591L572.691 265.451C574.417 265.451 576.072 266.137 577.293 267.357C578.514 268.578 579.198 270.232 579.198 271.959C579.198 273.684 578.514 275.34 577.293 276.56C576.072 277.781 574.417 278.466 572.691 278.466L560.718 278.537Z" fill="#00ADA8"/>
    <path d="M251.271 248.753H251.166C250.76 248.726 250.382 248.539 250.114 248.233C249.847 247.928 249.712 247.528 249.738 247.123L254.196 179.173C254.225 178.772 254.41 178.398 254.712 178.132C255.012 177.865 255.406 177.726 255.808 177.746L343.047 182.528C343.254 182.529 343.461 182.571 343.652 182.654C343.843 182.737 344.015 182.857 344.158 183.008C344.301 183.159 344.412 183.338 344.483 183.533C344.554 183.728 344.586 183.937 344.575 184.145C344.563 184.352 344.51 184.555 344.418 184.742C344.325 184.928 344.196 185.094 344.037 185.228C343.879 185.363 343.695 185.464 343.496 185.526C343.296 185.588 343.087 185.608 342.88 185.585L257.161 180.89L252.782 247.333C252.758 247.722 252.585 248.086 252.303 248.352C252.02 248.619 251.647 248.769 251.257 248.769" fill="#00ADA8"/>
</svg>
