<svg viewBox="0 -2 34 22" xmlns="http://www.w3.org/2000/svg">
  <path d="M30.0197 0.698092C29.9011 0.491642 29.6815 0.364258 29.4443 0.364258L13.328 0.412576C13.0996 0.412576 12.8844 0.535568 12.7658 0.72884L8.97059 6.97944C8.57526 7.03215 7.86367 7.13757 6.98955 7.32645C6.66889 7.39673 6.34384 7.46262 6.02319 7.52851C4.85477 7.7701 3.74785 7.99412 2.84737 8.34992C1.70531 8.79796 0.958576 9.81703 0.796051 11.1436C0.668667 12.2022 0.510535 14.2799 0.50175 14.3677C0.488573 14.5522 0.550068 14.7323 0.677452 14.8685C0.800444 15.0002 0.976146 15.0793 1.16063 15.0793L4.52533 15.0705C4.68785 15.7558 5.03047 16.3839 5.5444 16.8934C6.26478 17.6094 7.21796 18.0004 8.22825 18.0004C8.23264 18.0004 8.23704 18.0004 8.23704 18.0004C9.25611 17.996 10.2093 17.6006 10.9253 16.8759C11.4348 16.3619 11.7774 15.7338 11.9312 15.0442L22.4909 15.0134C22.6534 15.6987 22.996 16.3268 23.5099 16.8319C24.2303 17.5479 25.1835 17.9389 26.1938 17.9389C26.1982 17.9389 26.2026 17.9389 26.2026 17.9389C27.2216 17.9345 28.1748 17.5347 28.8908 16.8144C29.4004 16.3004 29.743 15.6723 29.8967 14.9827L32.8309 14.9783C33.1823 14.9783 33.4722 14.7015 33.4898 14.3501C33.4942 14.2096 33.6348 10.8537 32.7167 7.31328C31.869 4.00129 30.0944 0.834261 30.0197 0.698092ZM31.2233 6.83449L22.0692 6.87841L22.056 1.70399L29.0533 1.68202C29.475 2.48147 30.5292 4.58111 31.2233 6.83449ZM13.7014 1.72595L20.7382 1.70399L20.7514 6.87841L10.5431 6.92673L13.7014 1.72595ZM9.99845 15.949C9.52845 16.419 8.9047 16.6826 8.24143 16.6826C8.23704 16.6826 8.23704 16.6826 8.23264 16.6826C7.56937 16.6826 6.94563 16.4234 6.47562 15.9578C6.00562 15.4878 5.74207 14.8641 5.74207 14.2008C5.74207 13.5375 5.99683 12.9094 6.46684 12.4394C6.93684 11.9694 7.56058 11.7058 8.22386 11.7058C8.22825 11.7058 8.22825 11.7058 8.23264 11.7058C9.60312 11.7058 10.7188 12.8171 10.7232 14.192C10.7232 14.8509 10.4685 15.4746 9.99845 15.949ZM26.2114 16.6255C26.207 16.6255 26.207 16.6255 26.2026 16.6255C25.5393 16.6255 24.9156 16.3663 24.4456 15.9007C23.9755 15.4307 23.712 14.807 23.712 14.1437C23.712 13.4804 23.9668 12.8523 24.4368 12.3823C24.9068 11.9123 25.5305 11.6487 26.1938 11.6487C26.1982 11.6487 26.1982 11.6487 26.2026 11.6487C27.5731 11.6487 28.6888 12.76 28.6932 14.1349C28.6932 14.7982 28.4384 15.4263 27.9684 15.8963C27.5028 16.3663 26.8746 16.6255 26.2114 16.6255ZM29.9802 13.6737C29.7518 11.7893 28.1441 10.3266 26.2026 10.3266C26.1982 10.3266 26.1938 10.3266 26.1938 10.3266C25.1747 10.331 24.2215 10.7263 23.5055 11.4511C22.895 12.066 22.5216 12.8523 22.425 13.7L12.0102 13.7264C11.7818 11.8464 10.1742 10.3837 8.23264 10.3837C8.22825 10.3837 8.22386 10.3837 8.22386 10.3837C7.20479 10.3881 6.2516 10.7878 5.53562 11.5082C4.92505 12.1231 4.55168 12.905 4.45505 13.7528L1.87662 13.7615C1.93372 13.0456 2.03036 11.9606 2.10942 11.3061C2.21045 10.4627 2.64532 9.84778 3.33495 9.57544C4.13 9.26357 5.17982 9.04833 6.29113 8.81992C6.61618 8.75403 6.94562 8.68814 7.27067 8.61347C8.41713 8.36749 9.27807 8.27085 9.40985 8.25328L31.5791 8.14786C32.1106 10.4452 32.194 12.6327 32.1984 13.6693L29.9802 13.6737Z" />
  <path d="M8.23271 12.6592C8.22832 12.6592 8.22832 12.6592 8.23271 12.6592C7.81981 12.6592 7.43326 12.8217 7.14775 13.1116C6.85784 13.4015 6.69971 13.7881 6.69971 14.1966C6.69971 14.6051 6.86223 14.9916 7.15214 15.2815C7.44205 15.567 7.8242 15.7252 8.23271 15.7252H8.2371C8.64561 15.7252 9.03215 15.5627 9.32206 15.2727C9.61197 14.9828 9.7701 14.5963 9.7701 14.1878C9.76132 13.3444 9.07608 12.6592 8.23271 12.6592ZM8.23271 15.0663C7.99551 15.0663 7.78028 14.9741 7.61336 14.8115C7.44644 14.649 7.3542 14.4294 7.3542 14.1922C7.3542 13.709 7.74513 13.3181 8.22832 13.3137C8.7115 13.3137 9.10243 13.7046 9.10243 14.1878C9.10683 14.671 8.71589 15.0619 8.23271 15.0663Z" />
  <path d="M26.2024 12.6021H26.198C25.7895 12.6021 25.403 12.7646 25.1131 13.0545C24.8232 13.3444 24.665 13.7309 24.665 14.1394C24.6694 14.9828 25.3547 15.6681 26.198 15.6681H26.2024C26.6109 15.6681 26.9975 15.5055 27.2874 15.2156C27.5773 14.9257 27.7354 14.5392 27.7354 14.1307C27.7354 13.7222 27.5729 13.3356 27.283 13.0457C26.9975 12.7602 26.6109 12.6021 26.2024 12.6021ZM26.2068 15.0092C25.7236 15.0092 25.3327 14.6182 25.3283 14.1351C25.3283 13.6519 25.7193 13.2609 26.2024 13.2565C26.2024 13.2565 26.2024 13.2565 26.2068 13.2565C26.4396 13.2565 26.6593 13.3488 26.8218 13.5113C26.9887 13.6738 27.0809 13.8935 27.0809 14.1307C27.0809 14.6182 26.69 15.0092 26.2068 15.0092Z" />
</svg>
