<?xml version="1.0" encoding="UTF-8"?>
<svg xmlns="http://www.w3.org/2000/svg" viewBox="0 0 197.15 169.83">
      <path d="M24.46,102.6c2.69,.07,5.47,1.27,7.72,2.56,4.19-27.48,30.94-51.71,66.59-57.65,32.71-5.44,63.3,6.12,78.07,27.09,1.73-3.03,3.31-5.68,8.75-7.71,4.99-1.87,15.01,6.89,10.35,19.41-3.47,9.31-7.25,11.54-10.03,13.35,2.39,31.84-26.58,62.1-67,68.83-36.11,6.01-69.66-8.71-82.15-33.94-2.86-.84-6.05-1.9-7.75-2.88-4.51-2.57-11.82-7.52-14.17-15.63-2.35-8.1,2.94-13.61,9.62-13.44Z" style="fill: #ffcb57;"/>
      <path d="M118.75,146.1c-24.1,0-36.12-13.25-36.69-13.9-.73-.83-.65-2.09,.17-2.82,.83-.73,2.09-.65,2.82,.17,.03,.04,3.85,4.26,11.35,7.77,6.9,3.23,18.45,6.49,34.24,3.7,29.86-5.27,33.16-29.72,33.29-30.76,.13-1.09,1.12-1.86,2.22-1.75,1.1,.13,1.88,1.12,1.75,2.22-.03,.28-3.7,28.43-36.57,34.23-4.51,.8-8.71,1.14-12.59,1.14Z" style="fill: #f2643a;"/>
      <rect x="142.46" y="85.19" width="7.59" height="10.8" rx="3.8" ry="3.8" transform="translate(305.41 155.92) rotate(170.54)" style="fill: #1b264c;"/>
      <rect x="101.9" y="92.83" width="7.59" height="10.8" rx="3.8" ry="3.8" transform="translate(226.1 177.75) rotate(170.54)" style="fill: #1b264c;"/>
      <path d="M125.82,117.05c-1.18,0-2.33-.46-3.24-1.33-1.2-1.14-1.82-2.82-1.61-4.39,.24-1.86,1.34-5.39,2.31-8.5,.33-1.06,.62-2.01,.83-2.71,.47-1.65,1.7-2.87,3.29-3.26,1.75-.44,3.58,.18,5.03,1.68,.63,.65,6.1,6.33,7.3,7.87,1.12,1.44,1.47,3.48,.91,5.21-.48,1.47-1.6,2.56-3.08,2.98-2.43,.7-9.11,2.05-10.9,2.38-.28,.05-.55,.08-.83,.08Zm2.66-16.33s-.09,0-.13,.01c-.26,.06-.37,.33-.41,.49-.21,.72-.51,1.7-.85,2.79-.83,2.67-1.96,6.32-2.16,7.83-.04,.31,.12,.71,.4,.97,.14,.13,.36,.26,.59,.23,1.69-.31,8.27-1.64,10.54-2.29,.18-.05,.3-.13,.38-.38,.15-.45,.03-1.13-.27-1.51-.9-1.16-5.37-5.84-7.02-7.55,0,0,0,0,0,0-.42-.44-.8-.59-1.06-.59Z" style="fill: #f2643a;"/>
      <path d="M176.84,74.61c-5.79,6.64-37.52-7.85-37.52-7.85,0,0-5.15,12.57-15.46,15.27-10.31,2.69-32.05-9.14-32.05-9.14,0,0,4.69,20.1-9.73,26.29-14.42,6.2-37.8-9.03-37.8-9.03,0,0,2.55,18.03-8.63,15.24C24.46,102.6-7.59,85.64,1.65,60.46c9.25-25.18,45.61-18.44,45.61-18.44,0,0-15.15-23.67,5.48-28.99,20.63-5.32,42.59,13.94,42.59,13.94,0,0-9.49-28.18,16.28-26.94,25.78,1.25,34.58,28.75,34.58,28.75,0,0-3.22-14.16,11.09-12.66s34.76,41.06,19.56,58.48Z" style="fill: #15a59e;"/>
</svg>
