<svg xmlns="http://www.w3.org/2000/svg" width="17" height="17" viewBox="0 0 17 17">
  <path fill="#16A59E" fill-rule="evenodd" d="M5.66667,0 L1.41667,0 C0.63325,0 0,0.63325 0,1.41667 L0,5.66667 C0,6.44867 0.63325,7.08333 1.41667,7.08333 L5.66667,7.08333 C6.45008,7.08333 7.08333,6.44867 7.08333,5.66667 L7.08333,1.41667 C7.08333,0.634667 6.45008,0 5.66667,0 Z M15.5833,0 L11.3333,0 C10.5499,0 9.91667,0.63325 9.91667,1.41667 L9.91667,5.66667 C9.91667,6.44867 10.5499,7.08333 11.3333,7.08333 L15.5833,7.08333 C16.3667,7.08333 17,6.44867 17,5.66667 L17,1.41667 C17,0.634667 16.3667,0 15.5833,0 Z M5.66667,9.91667 L1.41667,9.91667 C0.63325,9.91667 0,10.5499 0,11.3333 L0,15.5833 C0,16.3653 0.63325,17 1.41667,17 L5.66667,17 C6.45008,17 7.08333,16.3653 7.08333,15.5833 L7.08333,11.3333 C7.08333,10.5513 6.45008,9.91667 5.66667,9.91667 Z M15.5833,9.91667 L11.3333,9.91667 C10.5499,9.91667 9.91667,10.5499 9.91667,11.3333 L9.91667,15.5833 C9.91667,16.3653 10.5499,17 11.3333,17 L15.5833,17 C16.3667,17 17,16.3653 17,15.5833 L17,11.3333 C17,10.5513 16.3667,9.91667 15.5833,9.91667 Z"/>
</svg>
