<svg xmlns="http://www.w3.org/2000/svg" viewBox="0 0 135 128" fill="none">
<path opacity=".5" d="M90.411 69.809c-16.117-.336-61.796-6.021-74.713 1.999-21.401 13.287-18.98 42.891-.355 49.832s83.867 8.435 94.969 3.32c24.424-11.255 6.969-54.588-19.901-55.151z" fill="#f4eeea"/>
<path d="M115.279 96.349l4.408 14.418-22.089 6.05-2.249-7.956c-.012.003-4.75 1.711-8.701 1.711-1.977 0-3.756-.426-4.645-1.711-1.249-1.806-1.85-5.759-2.134-9.452.498-.188 5.975-2.309 4.819-3.391-1.18-1.106-4.838-.603-5.024-.577l-.033-4.065-5.103-1.022c-1.512-.3-1.991-2.226-.796-3.2l6.197-5.052S76.963 65.89 84.08 59.368s23.132-10.074 31.733-3.26 13.346 18.543 8.007 28.239-8.541 12.002-8.541 12.002z" fill="#591429"/>
<path d="M81.708 61.906c-.639 5.252 2.733 7.937 10.191 10.029 4.404 1.237 11.167 6.179 11.167 6.179s1.674-4.454 4.287-4.301c2.881.167 4.399 3.469 3.353 6.982-.835 2.807-3.47 4.82-3.47 4.82s2.339 8.962 7.468 11.645c-.023-.355.499-.648.79-.853 2.005-1.42 9.886-7.706 10.856-19.513 1.114-13.544-7.101-25.084-21.534-26.268-14.183-1.163-22.469 6.026-23.108 11.278v.002zm3.269 18.697a1.13 1.13 0 0 0 .982-1.265c-.079-.622-.646-1.06-1.266-.982a1.13 1.13 0 0 0-.982 1.265c.079.622.646 1.06 1.266.982z" fill="#576194"/>
<path d="M80.332 54.698h-.002c-.198 0-20.018-.21-30.776-4.082-5.859-2.109-10.167-4.561-13.172-7.494-4.163-4.068-5.844-9.129-4.995-15.047.696-4.866 2.926-9.002 6.448-11.964 3.212-2.702 7.335-4.251 11.605-4.36 7.177-.193 16.439 3.974 18.868 16.32 4.807 24.422 12.013 25.789 12.085 25.801.217.033.374.229.355.446s-.195.384-.412.384l-.002-.002zM49.958 12.577c-.167 0-.334 0-.501.007-4.082.107-8.021 1.587-11.088 4.165-3.362 2.828-5.491 6.784-6.159 11.445-.806 5.64.792 10.463 4.755 14.335 2.916 2.85 7.127 5.24 12.871 7.306 8.684 3.124 23.416 3.834 28.616 3.989-2.602-1.861-7.432-7.649-10.964-25.594-1.881-9.56-8.732-15.653-17.528-15.653h-.002z" fill="#15a59e"/>
<g fill="#007c8c">
<path d="M92.863 46.477c-.048 0-.093-.007-.138-.024-.165-.057-4.078-1.461-8.708-5.078-4.271-3.336-9.948-9.264-12.743-18.545-1.667-5.535-.863-11.609 2.151-16.246 2.384-3.665 5.81-5.953 9.647-6.441 5.627-.715 10.868 1.272 14.023 5.314 3.257 4.175 3.868 9.777 1.679 15.369-6.321 16.158-5.506 25.101-5.496 25.189.014.143-.045.281-.157.369a.41.41 0 0 1-.257.088v.005zM85.392.829a17.65 17.65 0 0 0-2.215.143c-3.591.455-6.808 2.612-9.054 6.067-2.883 4.432-3.648 10.246-2.053 15.55 2.728 9.06 8.267 14.85 12.433 18.109 3.493 2.736 6.634 4.201 7.902 4.732-.081-2.373.107-10.889 5.589-24.905 2.079-5.314 1.509-10.618-1.559-14.554C93.838 2.642 89.892.829 85.39.829h.002zm10.849 64.603a.46.46 0 0 1-.081-.007c-.169-.033-.3-.169-.329-.341-.01-.057-.92-5.707-.293-13.048.579-6.789 2.632-16.465 9.111-24.002 5.813-6.765 12.435-9.834 18.649-8.647 4.776.913 8.705 4.277 10.258 8.783 1.44 4.179 1.232 8.19-.601 11.595-2.294 4.258-6.989 7.403-13.582 9.095-12.769 3.279-17.347 7.704-22.774 16.377-.076.124-.212.195-.353.195h-.005zm24.412-45.462c-5.172 0-10.544 2.986-15.375 8.604-6.328 7.363-8.338 16.849-8.911 23.509-.458 5.33-.093 9.753.136 11.738 5.203-8.075 10.184-12.567 22.657-15.772 6.36-1.632 10.874-4.637 13.055-8.683 1.72-3.193 1.91-6.972.546-10.928-1.433-4.158-5.212-7.391-9.626-8.235-.82-.157-1.65-.233-2.484-.233h.002zm3.041 21.088h-.043a4.25 4.25 0 0 1-3.005-1.277 4.22 4.22 0 0 1-1.218-3.026 4.24 4.24 0 0 1 1.278-3.002c.813-.796 1.886-1.232 3.028-1.218a4.27 4.27 0 0 1 4.223 4.303 4.27 4.27 0 0 1-4.263 4.22zm0-7.93a3.65 3.65 0 0 0-3.668 3.631c-.009.979.363 1.904 1.05 2.602a3.65 3.65 0 0 0 2.584 1.098h.036a3.67 3.67 0 0 0 3.667-3.631c.02-2.021-1.609-3.681-3.633-3.703h-.039l.003.002z"/>
<path d="M116.464 37.286c-.084 0-.162-.033-.217-.095l-5.566-5.95a.3.3 0 0 1 .217-.503h.003l8.536.083c.091 0 .179.043.234.117l4.333 5.645c.069.088.081.207.033.31s-.148.167-.26.169l-7.304.222-.009.002zm-4.872-5.943l4.998 5.342 6.586-.2-3.889-5.068-7.695-.076v.002z"/>
<path d="M116.464 37.286c-.045 0-.093-.009-.136-.033-.145-.076-.205-.255-.129-.4l2.99-5.828c.077-.145.256-.205.401-.129s.205.255.129.4l-2.99 5.828a.3.3 0 0 1-.265.162z"/>
<path d="M116.523 38.542h-.014a1.52 1.52 0 0 1-1.075-.458 1.51 1.51 0 0 1-.437-1.084 1.52 1.52 0 0 1 1.526-1.511h.017a1.52 1.52 0 0 1 1.075.457c.286.291.441.677.437 1.084a1.53 1.53 0 0 1-1.529 1.511zm0-2.576c-.276 0-.536.107-.734.3a1.04 1.04 0 0 0-.315.739 1.05 1.05 0 0 0 .301.746 1.04 1.04 0 0 0 .739.314h.009c.575 0 1.045-.465 1.052-1.039a1.05 1.05 0 0 0-.301-.746 1.04 1.04 0 0 0-.739-.315h-.012zm-8.555 4.938h-.041c-.176 0-.357-.014-.541-.038a4.27 4.27 0 0 1-2.351-1.129c-.859-.813-1.343-1.954-1.331-3.136a4.27 4.27 0 0 1 4.266-4.22h.043c1.14.012 2.206.465 3.004 1.277a4.22 4.22 0 0 1 1.219 3.026 4.25 4.25 0 0 1-1.145 2.864c-.689.739-1.619 1.21-2.618 1.327a4.52 4.52 0 0 1-.503.029h-.002zm-3.668-4.299c-.009 1.015.408 1.999 1.145 2.697a3.64 3.64 0 0 0 2.022.972 3.93 3.93 0 0 0 .467.033 3.98 3.98 0 0 0 .47-.024 3.67 3.67 0 0 0 2.251-1.141 3.66 3.66 0 0 0 .985-2.464c.019-2.021-1.61-3.684-3.634-3.703h-.036c-2.008 0-3.648 1.62-3.67 3.631v-.002z"/>
<path d="M107.967 36.938c-.121 0-.236-.076-.279-.195-.057-.155.024-.326.179-.381.005 0 .904-.377 1.686-2.273.503-1.22.932-2.778.999-3.021l.029-2.264c-.007-.164.121-.303.286-.307.162-.017.303.122.307.286.024.655-.028 2.271-.031 2.34 0 .021-.004.045-.009.067-.019.072-.472 1.77-1.033 3.126-.896 2.171-1.988 2.588-2.034 2.604a.31.31 0 0 1-.102.019h.002z"/>
<path d="M110.867 29.018c-.162 0-.293-.129-.298-.291a.3.3 0 0 1 .291-.305l2.499-.055h.007c.162 0 .294.129.298.291a.3.3 0 0 1-.29.305l-2.499.055h-.008zm-4.945 7.889c-.124 0-.229-.095-.238-.219l-.007-.195c.009-.855.517-1.637 1.299-1.99.12-.055.263 0 .315.119s0 .26-.119.314c-.613.276-1.014.891-1.018 1.561l.004.155c.01.131-.088.245-.219.255h-.017zm19.872-1.031c-.105 0-.2-.069-.229-.174-.184-.646-.73-1.134-1.393-1.241l-.152-.019a.24.24 0 0 1-.22-.255c.009-.131.124-.231.256-.219l.195.022a2.22 2.22 0 0 1 1.777 1.582.24.24 0 0 1-.165.293c-.021.007-.043.01-.064.01l-.005.002zm-6.331-4.351c-.024 0-.05-.002-.076-.01-.16-.041-.256-.205-.213-.364l.399-1.53c.04-.16.202-.255.364-.212s.256.205.213.365l-.399 1.53c-.035.133-.155.222-.288.222z"/>
<path d="M120.57 30.009h-.007l-1.629-.017a.75.75 0 0 1-.742-.755v-.093a.75.75 0 0 1 .227-.527c.141-.138.327-.215.525-.215h.007l1.626.017a.75.75 0 0 1 .741.755v.093a.75.75 0 0 1-.751.741h.003zm-1.629-.612l1.629.017c.083 0 .152-.069.152-.152v-.093c0-.083-.069-.155-.15-.155l-1.626-.017c-.084 0-.153.069-.153.152v.093c0 .083.069.155.151.155h-.003z"/>
</g>
<g fill="#00ada8">
<path d="M44.745 35.485a.42.42 0 0 1-.417-.415c0-.231.184-.417.415-.419l12.261-.074h.002a.42.42 0 0 1 .417.415c0 .231-.184.417-.415.419l-12.261.074h-.002zm-9.644.057c-.114 0-.227-.048-.305-.131a.43.43 0 0 1-.112-.315l.27-3.033c.141-1.175.794-2.078 1.798-2.476.834-.331 1.869-.546 2.964-.774l.911-.193 1.967-.343 3.612-5.183c.076-.112.205-.179.339-.179l15.623-.095h.002a.42.42 0 0 1 .36.205c.055.091 1.328 2.261 2.146 5.369.87 3.305.749 6.441.744 6.572a.42.42 0 0 1-.415.4l-2.051.012h-.002a.42.42 0 0 1-.417-.415c0-.231.184-.417.415-.419l1.643-.009c.002-.941-.062-3.415-.723-5.928-.649-2.461-1.612-4.344-1.941-4.949l-15.161.09-3.598 5.161c-.069.1-.179.164-.3.176-.01 0-.885.093-2.065.35l-.918.195-2.826.732c-.72.286-1.173.925-1.278 1.799l-.231 2.545 3.248-.019h.002a.42.42 0 0 1 .417.415c0 .231-.184.417-.415.419l-3.701.021h-.002zm9.919-5.194a.42.42 0 0 1-.362-.21c-.074-.131-.074-.291.005-.422l2.821-4.723c.076-.126.21-.203.358-.203l12.278-.024c.153 0 .293.083.367.219a15.93 15.93 0 0 1 1.679 4.77.42.42 0 0 1-.091.341c-.079.095-.196.15-.317.15l-16.732.1h-.002-.002zm3.059-4.723l-2.32 3.884 15.49-.093a15.07 15.07 0 0 0-1.381-3.815l-11.789.024z"/>
<path d="M52.688 30.2a.42.42 0 0 1-.417-.415l-.029-4.596c0-.231.184-.417.415-.419h.002a.42.42 0 0 1 .417.415l.029 4.596c0 .231-.184.417-.415.419h-.002zm6.274-.048c-.207 0-.386-.152-.413-.365l-.582-4.556a.42.42 0 0 1 .36-.467.42.42 0 0 1 .467.36l.582 4.556a.42.42 0 0 1-.36.467l-.053.002-.002.002zm-17.19 8.126a3.38 3.38 0 0 1-2.382-.977c-.644-.636-1.001-1.485-1.006-2.39s.341-1.759.978-2.402 1.486-1.001 2.392-1.005h.021a3.39 3.39 0 0 1 3.388 3.367c.012 1.868-1.5 3.395-3.369 3.407h-.021zm0-5.94h-.014a2.55 2.55 0 0 0-1.803.758c-.479.486-.742 1.127-.737 1.808a2.55 2.55 0 0 0 .758 1.802c.484.479 1.118.736 1.795.736h.017c1.409-.009 2.549-1.16 2.539-2.569a2.56 2.56 0 0 0-2.554-2.538l-.002.002zm0 4.231a1.67 1.67 0 0 1-1.18-.484 1.66 1.66 0 0 1-.498-1.184c-.002-.448.169-.872.484-1.189s.737-.496 1.185-.498h.009a1.67 1.67 0 0 1 1.18.484c.319.315.496.736.498 1.184s-.169.872-.484 1.189-.737.496-1.185.498h-.01zm0-2.523h-.005c-.467.002-.844.384-.839.851s.382.839.844.839h.005c.467-.002.844-.384.839-.851a.84.84 0 0 0-.844-.839zm18.203 4.122a3.38 3.38 0 0 1-2.382-.977 3.36 3.36 0 0 1-1.006-2.39 3.39 3.39 0 0 1 3.369-3.407h.021a3.39 3.39 0 0 1 3.388 3.367c.005.905-.341 1.758-.978 2.402s-1.485 1.001-2.392 1.006h-.022zm-2.554-3.372a2.56 2.56 0 0 0 2.554 2.538h.017a2.55 2.55 0 0 0 1.803-.758c.479-.486.742-1.127.737-1.811a2.56 2.56 0 0 0-2.554-2.538h-.014c-1.409.01-2.549 1.16-2.539 2.569h-.002zm2.555 1.663c-.444 0-.863-.172-1.18-.484s-.496-.736-.498-1.184.169-.872.484-1.189.737-.496 1.185-.498h.01a1.67 1.67 0 0 1 1.18.484c.319.315.496.736.498 1.184.005.925-.744 1.682-1.669 1.689h-.012l.002-.002zm0-2.523h-.005c-.226 0-.436.09-.596.25a.83.83 0 0 0-.243.598.84.84 0 0 0 .844.839h.005c.467-.002.844-.384.839-.851s-.381-.839-.844-.839v.002z"/>
</g>
<g fill="#007c8c">
<path d="M78.744 16.418h-3.45c-.165 0-.298-.133-.298-.298s.134-.298.298-.298h3.45c.165 0 .298.133.298.298s-.134.298-.298.298zm-4.557 0h-.789c-.165 0-.298-.133-.298-.298s.133-.298.298-.298h.789c.165 0 .298.133.298.298s-.133.298-.298.298z"/>
<path d="M92.459 20.64h-1.667c-.164 0-.298-.133-.298-.298s.133-.298.298-.298h1.369v-7.847H79.044v7.847h1.404c.164 0 .298.134.298.298s-.134.298-.298.298h-1.703c-.165 0-.298-.133-.298-.298V11.9c0-.164.134-.298.298-.298h13.713c.165 0 .298.133.298.298v8.442c0 .164-.133.298-.298.298z"/>
<path d="M92.567 20.64a.29.29 0 0 1-.203-.081.3.3 0 0 1-.014-.422l2.115-2.266v-7.57L92.784 12.1a.3.3 0 0 1-.422.014.3.3 0 0 1-.014-.422l2.196-2.352c.084-.091.215-.119.327-.074s.188.155.188.276v8.442a.29.29 0 0 1-.081.203l-2.196 2.352c-.06.062-.138.095-.217.095l.002.005z"/>
<path d="M78.744 12.198a.3.3 0 0 1-.229-.105c-.107-.126-.091-.315.036-.419l2.783-2.352a.3.3 0 0 1 .193-.069h13.236c.164 0 .298.133.298.298s-.134.298-.298.298H81.637l-2.699 2.28c-.055.048-.124.069-.193.069z"/>
<path d="M127.154 50.092c-.151 0-.289-.095-.339-.245-.062-.188.041-.388.227-.45.031-.009 3.109-1.055 5.076-3.81a.36.36 0 0 1 .498-.083.36.36 0 0 1 .084.498c-2.11 2.952-5.301 4.029-5.434 4.075a.37.37 0 0 1-.112.019v-.002zm-1.638 2.816a.36.36 0 0 1-.358-.334.36.36 0 0 1 .334-.381c.031 0 3.162-.243 5.646-2.75.138-.141.365-.141.506 0s.14.364 0 .505c-2.683 2.705-5.969 2.95-6.107 2.959h-.024.003z"/>
</g>
<path d="M76.622 95.639a.43.43 0 0 1-.153-.029l-1.967-.772c-.215-.083-.319-.326-.236-.541s.327-.322.541-.236l1.967.772c.215.083.32.326.236.541-.064.164-.222.264-.389.264zm-3.277 3.379c-.188 0-.36-.129-.405-.322a.42.42 0 0 1 .31-.503l2.292-.541a.42.42 0 0 1 .503.31.42.42 0 0 1-.31.503l-2.291.541c-.033.007-.064.012-.095.012h-.002zm2.292 3.107a.42.42 0 0 1-.246-.079c-.186-.135-.227-.395-.093-.581l.982-1.351c.136-.186.396-.229.582-.093s.227.396.093.581l-.982 1.351a.42.42 0 0 1-.339.172h.002z" fill="#d3d9e5"/>
<path d="M15.388 110.467c.689-.993 1.464-10.996 1.464-10.996s-8.868-7.477-9.478-18.586c-.73-13.279 10.949-23.02 25.073-21.815s15.831 5.819 18.377 10.279.103 16.544.103 16.544l4.216 2.893c1.269.87 1.006 2.812-.446 3.317l-4.738 1.782s.393 7.02-3.493 9.717c-2.051 1.423-6.197 1.556-9.791 1.411l-1.135 10.198-20.151-4.739v-.005z" fill="#ffc927"/>
<path d="M47.333 83.534c.656-.121 1.087-.751.966-1.406s-.751-1.087-1.407-.965-1.087.751-.966 1.406.751 1.087 1.407.965z" fill="#00a69c"/>
<path d="M49.393 98.246a.49.49 0 0 1-.117-.014c-4.9-1.232-5.739-4.468-5.773-4.604a.48.48 0 0 1 .351-.577c.255-.062.513.093.575.348.031.121.775 2.824 5.079 3.908.255.064.41.324.346.579-.055.217-.248.36-.463.36h.002z" fill="#15a59e"/>
<path d="M52.128 68.356c-3.35-8.233-12.461-13.997-22.8-14.354-10.594-.367-21.074 6.343-24.31 14.549s-2.167 29.14-2.167 29.14l30.407 6.676 4.419-30.764 3.035 3.977 3.262-4.368 2.849 4.439 2.155-4.465 4.161 4.099s.634-4.88-1.013-8.926l.002-.002z" fill="#c82232"/>
<g fill="#f88627">
<path opacity=".5" d="M45.686 84.556c-.73-.477-2.871-1.701-3.693-1.701-1.364 0-1.805 1.804-1.149 2.655s3.763 1.832 4.418 1.913c1.445.181 1.643-2.073.424-2.867z"/>
<path d="M11.468 85.171c-.005-.036-.412-3.708 0-7.465.413-3.774 2.683-8.323 2.78-8.514l.427.215c-.024.045-2.327 4.663-2.733 8.352-.405 3.708-.005 7.325 0 7.361l-.475.052zm3.665-7.043l-.474-.043c.486-5.473 4.38-12.052 4.421-12.117l.41.243c-.038.064-3.877 6.553-4.354 11.916h-.002z"/>
</g>
<path d="M40.544 117.034a.79.79 0 0 1-.198-.024l-30.304-7.403c-.448-.11-.722-.56-.613-1.008s.56-.722 1.009-.612l30.304 7.403c.448.11.722.56.613 1.008-.093.381-.434.636-.811.636zm54.526 1.601c-.358 0-.689-.233-.799-.593-.134-.441.117-.905.558-1.039l26.518-8.011c.443-.133.906.117 1.04.558s-.117.905-.558 1.039L95.311 118.6c-.081.024-.162.035-.241.035zm-9.466-94.333c-2.117 0-3.841-1.723-3.841-3.839s1.724-3.839 3.841-3.839 3.841 1.723 3.841 3.839-1.724 3.839-3.841 3.839zm0-7.082a3.25 3.25 0 0 0-3.245 3.243c0 1.79 1.454 3.243 3.245 3.243s3.245-1.454 3.245-3.243-1.454-3.243-3.245-3.243zm0 8.474a5.24 5.24 0 0 1-5.234-5.23c0-2.886 2.346-5.23 5.234-5.23s5.234 2.345 5.234 5.23-2.346 5.23-5.234 5.23zm0-9.862c-2.556 0-4.638 2.078-4.638 4.635a4.64 4.64 0 0 0 4.638 4.635 4.64 4.64 0 0 0 4.638-4.635 4.64 4.64 0 0 0-4.638-4.635z" fill="#007c8c"/>
</svg>
