<svg width="100%" preserveAspectRatio="xMaxYMid meet" viewBox="0 0 910 512" fill="none"
    xmlns="http://www.w3.org/2000/svg">
    <path d="M752.977 144.046C752.569 144.04 752.175 143.894 751.863 143.632C751.551 143.37 751.34 143.007 751.265 142.607C751.191 142.207 751.257 141.794 751.455 141.436C751.651 141.08 751.965 140.803 752.344 140.651C766.688 135.089 772.432 118.43 772.486 118.267C772.655 117.852 772.976 117.516 773.384 117.329C773.792 117.141 774.257 117.117 774.682 117.26C775.108 117.402 775.463 117.702 775.675 118.098C775.888 118.493 775.94 118.955 775.823 119.387C775.57 120.136 769.492 137.789 753.619 143.928C753.417 144.007 753.202 144.047 752.986 144.046" fill="#1F4847"/>
    <path d="M776.312 137.301C775.973 137.301 775.641 137.203 775.356 137.018C775.071 136.834 774.846 136.572 774.705 136.264C774.566 135.955 774.519 135.613 774.57 135.278C774.62 134.943 774.767 134.629 774.991 134.376C785.42 122.638 785.565 103.55 785.565 103.36C785.578 102.898 785.769 102.459 786.097 102.134C786.425 101.808 786.866 101.62 787.328 101.609C787.79 101.622 788.231 101.812 788.557 102.14C788.883 102.467 789.071 102.907 789.083 103.369C789.083 104.2 788.956 123.929 777.632 136.714C777.465 136.899 777.262 137.047 777.034 137.15C776.807 137.252 776.561 137.307 776.312 137.31" fill="#1F4847"/>
    <path d="M680.801 263.042C680.165 262.945 679.584 262.625 679.162 262.141C678.74 261.657 678.504 261.038 678.496 260.396C678.489 259.754 678.709 259.129 679.12 258.635C679.531 258.141 680.104 257.808 680.737 257.696C680.882 257.696 695.299 257.335 703.729 256.604C715.487 255.584 718.426 243.864 719.105 236.965C719.882 229.191 719.548 182.185 719.105 173.463C718.535 162.447 710.06 156.885 704.217 156.461C693.454 155.666 675.03 156.542 674.849 156.551C674.206 156.483 673.609 156.186 673.166 155.717C672.722 155.247 672.46 154.635 672.429 153.99C672.397 153.346 672.597 152.711 672.993 152.201C673.388 151.69 673.954 151.338 674.587 151.206C675.356 151.206 693.526 150.303 704.615 151.116C717.567 152.073 724.016 164.596 724.459 173.183C724.848 180.749 725.291 229.092 724.459 237.498C723.772 244.378 720.416 260.523 704.199 261.931C695.607 262.672 681.479 263.024 680.882 263.042H680.819" fill="#C6CEDB"/>
    <path d="M662.531 307.42C661.811 307.42 661.12 307.135 660.612 306.627C660.103 306.119 659.817 305.43 659.817 304.712L659.754 261.507C659.754 260.788 660.04 260.099 660.549 259.592C661.057 259.083 661.747 258.798 662.467 258.798C663.187 258.798 663.877 259.083 664.386 259.592C664.895 260.099 665.181 260.788 665.181 261.507L665.235 304.712C665.235 305.43 664.949 306.119 664.44 306.627C663.932 307.135 663.241 307.42 662.521 307.42H662.531Z" fill="#C6CEDB"/>
    <path d="M681.886 263.069H680.665C674.108 262.717 574.96 260.857 565.961 260.821C546.66 260.739 546.063 240.532 545.801 231.927C545.448 220.189 546.126 200.812 547.474 183.729C548.432 171.567 552.096 155.341 572.654 154.836C579.419 154.664 601.28 154.836 624.425 154.971C648.023 155.134 672.425 155.296 678.693 155.089C692.685 154.646 702.915 163.811 704.081 177.932C704.579 183.973 704.588 202.104 704.588 218.094C704.588 226.943 704.588 234.591 704.687 238.184C704.703 241.68 704.017 245.144 702.671 248.371C701.324 251.598 699.343 254.524 696.846 256.974C694.883 258.933 692.552 260.487 689.986 261.543C687.42 262.6 684.671 263.14 681.895 263.132L681.886 263.069ZM583.028 160.037C578.388 160.037 574.798 160.037 572.744 160.109C559.883 160.425 554.094 167.332 552.774 184.081C551.435 200.993 550.766 220.126 551.11 231.701C551.535 245.913 554.221 255.394 565.943 255.439C576.272 255.439 674.216 257.335 680.918 257.696C683.164 257.826 685.412 257.478 687.512 256.675C689.612 255.872 691.518 254.632 693.101 253.037C695.066 251.097 696.628 248.788 697.698 246.245C698.767 243.7 699.322 240.971 699.333 238.211C699.243 234.555 699.234 226.871 699.234 217.986C699.234 202.88 699.234 184.09 698.745 178.258C697.841 166.989 690.053 159.946 678.847 160.316C672.516 160.524 648.023 160.316 624.371 160.199C609.095 160.1 593.448 159.991 583.055 159.991" fill="#C6CEDB"/>
    <path d="M735.249 486.975C734.544 486.954 733.875 486.659 733.383 486.153C732.891 485.648 732.617 484.971 732.617 484.266C732.617 482.948 734.68 364.711 734.734 351.429C734.806 334.165 722.433 314.301 704.561 313.398C692.604 312.793 670.191 311.763 669.929 311.754C669.539 311.798 669.145 311.757 668.772 311.633C668.4 311.51 668.059 311.307 667.773 311.04C667.486 310.772 667.262 310.446 667.113 310.083C666.966 309.721 666.899 309.33 666.916 308.939C666.934 308.548 667.037 308.165 667.217 307.818C667.397 307.47 667.652 307.165 667.961 306.925C668.27 306.684 668.628 306.514 669.01 306.424C669.392 306.336 669.789 306.33 670.173 306.409C670.399 306.409 692.866 307.447 704.832 308.052C725.716 309.118 740.17 331.772 740.106 351.447C740.052 364.765 738.017 483.029 737.99 484.348C737.969 485.052 737.673 485.72 737.167 486.21C736.66 486.702 735.982 486.975 735.276 486.975" fill="#C6CEDB"/>
    <path d="M123.552 480.673H123.462C122.756 480.64 122.092 480.334 121.609 479.82C121.126 479.306 120.862 478.624 120.875 477.919C122.051 441.351 123.353 399.879 124.212 388.719C124.538 384.512 124.791 381.189 124.963 377.884C126.148 355.212 129.703 334.689 159.722 332.594C176.68 331.393 298.611 329.822 321.367 331.275C345.118 332.819 355.628 344.747 355.438 369.948C355.339 381.27 355.285 423.987 355.248 479.932C355.248 480.651 354.963 481.34 354.453 481.848C353.945 482.356 353.255 482.641 352.535 482.641C351.815 482.641 351.125 482.356 350.617 481.848C350.107 481.34 349.822 480.651 349.822 479.932C349.822 423.951 349.912 381.243 350.012 369.902C350.183 347.609 341.763 337.966 320.951 336.612C299.199 335.212 176.364 336.765 160.02 337.93C136.396 339.582 131.593 352.214 130.236 378.164C130.055 381.55 129.802 384.9 129.476 389.153C128.617 400.268 127.324 441.667 126.148 478.118C126.118 478.815 125.818 479.475 125.313 479.958C124.807 480.441 124.134 480.71 123.435 480.709" fill="#C6CEDB"/>
    <path d="M215.572 334.652C214.862 334.638 214.186 334.346 213.688 333.84C213.192 333.333 212.913 332.652 212.913 331.944L213.284 287.502C213.298 286.793 213.591 286.118 214.098 285.621C214.605 285.125 215.287 284.847 215.997 284.847C216.707 284.862 217.384 285.153 217.881 285.66C218.378 286.166 218.656 286.847 218.656 287.556L218.286 331.998C218.271 332.707 217.979 333.382 217.472 333.879C216.965 334.374 216.282 334.652 215.572 334.652" fill="#C6CEDB"/>
    <path d="M282.385 333.343C281.665 333.343 280.975 333.058 280.466 332.549C279.957 332.042 279.671 331.353 279.671 330.634L279.617 286.021C279.617 285.302 279.903 284.613 280.412 284.106C280.921 283.598 281.611 283.312 282.331 283.312C283.051 283.312 283.741 283.598 284.249 284.106C284.758 284.613 285.044 285.302 285.044 286.021L285.098 330.625C285.098 331.344 284.812 332.033 284.303 332.54C283.795 333.049 283.105 333.334 282.385 333.334V333.343Z" fill="#C6CEDB"/>
    <path d="M301.831 287.592H300.61C294.071 287.24 194.914 285.38 185.906 285.344C166.605 285.263 166.008 265.055 165.745 256.45C165.393 244.712 166.071 225.336 167.419 208.253C168.377 196.09 172.04 179.865 192.599 179.359C199.364 179.187 221.225 179.359 244.379 179.494C267.977 179.657 292.379 179.82 298.647 179.612C312.621 179.188 322.869 188.334 324.035 202.456C324.533 208.496 324.542 226.627 324.542 242.618C324.542 251.466 324.542 259.114 324.641 262.708C324.657 266.204 323.971 269.667 322.624 272.894C321.278 276.121 319.297 279.047 316.8 281.497C314.837 283.457 312.505 285.009 309.94 286.066C307.374 287.123 304.625 287.663 301.849 287.655L301.831 287.592ZM203.018 184.56C198.378 184.56 194.788 184.56 192.735 184.632C179.873 184.948 174.084 191.855 172.764 208.605C171.425 225.516 170.756 244.649 171.1 256.225C171.525 270.437 174.211 279.917 185.933 279.962C196.28 279.962 294.224 281.859 300.908 282.22C303.144 282.343 305.382 281.994 307.474 281.198C309.567 280.401 311.469 279.174 313.055 277.597C315.018 275.656 316.578 273.347 317.645 270.802C318.714 268.259 319.268 265.529 319.278 262.771C319.187 259.114 319.178 251.43 319.178 242.545C319.178 227.44 319.178 208.65 318.69 202.817C317.786 191.828 310.342 184.858 299.642 184.858H298.819C292.488 185.066 267.995 184.903 244.343 184.74C229.067 184.641 213.42 184.533 203.027 184.533" fill="#C6CEDB"/>
    <path d="M389.473 109.952C388.847 109.952 388.247 109.703 387.804 109.261C387.361 108.819 387.113 108.22 387.113 107.595V69.7444C387.113 69.1194 387.361 68.52 387.804 68.0781C388.247 67.6361 388.847 67.3878 389.473 67.3878C390.099 67.3878 390.7 67.6361 391.143 68.0781C391.585 68.52 391.834 69.1194 391.834 69.7444V107.604C391.834 108.229 391.585 108.828 391.143 109.27C390.7 109.712 390.099 109.961 389.473 109.961" fill="#C6CEDB"/>
    <path d="M400.779 109.906C400.153 109.906 399.553 109.658 399.109 109.216C398.667 108.774 398.418 108.175 398.418 107.55V69.7444C398.418 69.1194 398.667 68.52 399.109 68.0781C399.553 67.6361 400.153 67.3878 400.779 67.3878C401.405 67.3878 402.005 67.6361 402.449 68.0781C402.891 68.52 403.14 69.1194 403.14 69.7444V107.559C403.14 108.184 402.891 108.783 402.449 109.225C402.005 109.667 401.405 109.915 400.779 109.915" fill="#C6CEDB"/>
    <path d="M368.761 163.585C352.119 163.585 340.252 163.522 338.317 163.35C330.864 162.7 327.59 158.285 327.698 149.039C327.744 145.147 327.698 141.138 327.644 137.301C327.572 131.73 327.499 125.978 327.698 120.145C328.024 110.213 332.302 105.428 340.768 105.428H351.911C378.755 105.32 441.606 105.067 448.914 105.428C459.768 106.042 461.378 112.091 462.3 119.947C463.205 128.01 462.78 148.66 462.3 154.258C461.613 162.384 455.969 163.377 451.103 163.377H440.964C416.028 163.477 388.903 163.567 368.761 163.567V163.585ZM332.42 120.227C332.23 125.942 332.302 131.64 332.365 137.147C332.411 141.048 332.465 145.075 332.42 149.03C332.32 157.355 335.223 158.285 338.751 158.601C343.355 159.007 416.824 158.718 440.955 158.601H451.112C456.277 158.601 457.308 157.337 457.606 153.788C458.068 148.371 458.511 128.227 457.606 120.434C456.747 113.085 455.797 110.502 448.643 110.078C441.489 109.654 378.728 109.933 351.929 110.078H340.768C335.82 110.078 332.7 111.775 332.42 120.236" fill="#C6CEDB"/>
    <path d="M317.84 288.251C313.821 288.238 309.806 288.017 305.81 287.592C305.193 287.416 304.658 287.026 304.302 286.493C303.945 285.961 303.789 285.319 303.861 284.681C303.935 284.045 304.231 283.454 304.699 283.014C305.166 282.576 305.775 282.316 306.416 282.283C306.543 282.283 318.798 283.664 326.315 282.283C335.603 280.613 336.074 268.188 336.074 265.714V262.915C336.146 226.41 335.802 204.424 335.043 197.562C333.84 186.637 325.302 185.454 321.693 185.454H307.728C307.094 185.349 306.517 185.023 306.101 184.534C305.685 184.044 305.456 183.423 305.456 182.781C305.456 182.139 305.685 181.518 306.101 181.029C306.517 180.539 307.094 180.213 307.728 180.108H321.693C329.833 180.108 338.995 184.542 340.37 196.975C341.148 204.036 341.51 226.23 341.428 262.888V265.678C341.428 279.89 334.111 286.274 327.264 287.511C324.139 288.009 320.977 288.239 317.813 288.197" fill="#C6CEDB"/>
    <path d="M375.816 482.153C375.106 482.139 374.429 481.847 373.932 481.341C373.435 480.834 373.157 480.153 373.157 479.445C373.401 451.978 373.708 377.361 373.157 372.512L373.048 371.492C372.334 364.81 370.85 350.896 360.612 344.287C349.505 337.117 327.192 337.217 326.957 337.199C326.323 337.094 325.746 336.768 325.33 336.279C324.914 335.789 324.685 335.168 324.685 334.526C324.685 333.884 324.914 333.263 325.33 332.773C325.746 332.284 326.323 331.958 326.957 331.853C327.934 331.853 351.124 331.763 363.56 339.799C375.997 347.835 377.67 364.006 378.412 370.932L378.52 371.925C379.226 378.3 378.565 476.239 378.52 479.499C378.506 480.208 378.214 480.883 377.706 481.38C377.199 481.875 376.517 482.153 375.807 482.153" fill="#C6CEDB"/>
    <path d="M754.333 485.702H754.288C753.583 485.681 752.913 485.386 752.422 484.88C751.93 484.375 751.656 483.698 751.656 482.993C751.656 481.982 753.329 394.299 753.329 384.882C753.329 383.076 753.456 380.692 753.601 377.938C754.243 365.939 755.319 345.84 747.966 334.436C736.027 315.899 711.055 314.174 710.811 314.156C710.183 314.013 709.627 313.653 709.24 313.139C708.854 312.626 708.664 311.991 708.703 311.35C708.742 310.709 709.009 310.102 709.454 309.639C709.9 309.176 710.496 308.885 711.136 308.82C712.276 308.892 739.084 310.752 752.47 331.537C760.755 344.395 759.624 365.568 758.946 378.209C758.801 380.918 758.684 383.202 758.684 384.873C758.684 394.335 757.029 482.063 757.011 483.075C756.99 483.779 756.694 484.447 756.188 484.937C755.681 485.428 755.003 485.702 754.297 485.702" fill="#C6CEDB"/>
    <path d="M197.763 424.881C197.246 424.867 196.744 424.705 196.316 424.414C195.888 424.125 195.552 423.718 195.348 423.243C195.143 422.769 195.079 422.247 195.162 421.736C195.246 421.227 195.473 420.751 195.819 420.367L229.537 384.674C230.048 384.284 230.682 384.087 231.324 384.121C231.967 384.153 232.578 384.413 233.046 384.854C233.515 385.295 233.811 385.887 233.882 386.526C233.954 387.164 233.795 387.807 233.435 388.34L199.717 424.033C199.466 424.295 199.164 424.506 198.831 424.65C198.496 424.794 198.136 424.87 197.772 424.872" fill="#C6CEDB"/>
    <path d="M225.422 420.376C224.877 420.356 224.351 420.173 223.911 419.85C223.473 419.527 223.141 419.08 222.96 418.566C222.78 418.052 222.758 417.496 222.899 416.97C223.039 416.444 223.335 415.973 223.748 415.617C226.1 413.739 245.456 389.749 257.06 375.067C257.535 374.632 258.15 374.379 258.794 374.355C259.439 374.331 260.071 374.536 260.576 374.935C261.083 375.334 261.43 375.9 261.557 376.532C261.683 377.163 261.579 377.818 261.266 378.381C256.174 384.801 230.613 416.981 227.095 419.798C226.621 420.173 226.036 420.379 225.431 420.385" fill="#C6CEDB"/>
    <path d="M719.783 483.282H403.827C401.62 469.946 403.004 456.032 402.923 446.145C402.579 407.645 406.984 377.261 418.534 345.199C429.677 314.246 449.421 294.319 499.185 283.529C522.601 278.464 599.444 277.209 627.157 286.157C671.955 300.603 701.847 320.765 712.502 362.3C719.403 389.216 721.203 437.369 719.801 483.291" fill="#576295"/>
    <path d="M598.286 241.94H526.318V286.184H598.286V241.94Z" fill="#F7931E"/>
    <path d="M624.362 289.506C632.611 305.759 597.427 319.989 563.121 319.989C528.815 319.989 495.087 305.759 500.993 290.689C502.802 286.175 513.837 281.759 526.318 280.676C553.706 278.969 569.986 280.125 598.287 281.172C616.575 283.141 623.078 286.987 624.353 289.497" fill="#F7931E"/>
    <path d="M629.97 217.029C623.883 243.999 601.778 264.541 559.594 264.053C529.981 263.71 503.897 240.523 496.607 211.611C495.213 206.181 494.529 200.594 494.572 194.989C494.943 142.719 541.522 132.552 561.954 133.337C582.386 134.123 618.537 140.497 628.233 175.603C632.159 189.824 632.9 204.162 629.979 217.029" fill="#F7931E"/>
    <path d="M726.657 136.561C693.002 144.064 682.582 147.549 670.499 171.603C655.448 201.535 639.24 212.812 629.961 217.029C632.33 206.6 632.258 195.196 630.069 183.684C627.148 174.655 622.553 163.07 606.553 156.551C589.495 149.581 571.795 160.046 548.243 152.208C542.056 150.24 536.346 147.012 531.474 142.728C531.474 142.728 523.189 153.346 511.44 166.538C501.491 177.698 495.277 179.251 494.517 194.989C494.445 196.451 495.368 205.923 495.368 205.923C495.368 205.923 479.087 203.467 479.087 157.373C479.087 131.432 501.536 83.0083 549.445 78.9633C571.614 77.0942 588.998 79.8662 603.315 60.9048C615.073 45.3385 636.5 25.0228 655.774 25.0228C675.048 25.0228 681.533 32.3725 684.78 41.9435C687.494 49.9073 688.181 55.4873 694.413 53.2571C700.644 51.0269 720.443 30.7653 738.731 29.6367C757.02 28.508 766.254 38.7562 764.961 49.4377C762.247 71.5232 726.548 93.9969 726.548 93.9969C726.548 93.9969 759.643 88.5794 754.216 112.705C751.276 125.789 739.157 133.725 726.548 136.533" fill="#C82232"/>
    <g opacity="0.3">
        <g opacity="0.3">
            <path opacity="0.3" d="M456.765 482.135H456.621C456.284 482.118 455.954 482.034 455.65 481.888C455.346 481.742 455.075 481.537 454.851 481.284C454.628 481.032 454.458 480.738 454.35 480.419C454.242 480.099 454.199 479.763 454.224 479.427L460.754 360.241C460.793 359.572 461.097 358.945 461.597 358.499C462.098 358.053 462.756 357.824 463.427 357.861C464.097 357.898 464.725 358.199 465.173 358.697C465.622 359.196 465.854 359.852 465.819 360.521L459.289 479.707C459.254 480.353 458.972 480.963 458.501 481.408C458.03 481.853 457.405 482.1 456.756 482.099" fill="#1B264C"/>
        </g>
    </g>
    <g opacity="0.3">
        <g opacity="0.3">
            <path opacity="0.3" d="M659.907 441.233C659.279 441.234 658.673 441.002 658.206 440.581C657.739 440.16 657.446 439.582 657.384 438.958L649.289 360.647C649.219 359.979 649.418 359.311 649.843 358.789C650.267 358.268 650.881 357.936 651.55 357.866C652.22 357.797 652.889 357.996 653.412 358.419C653.934 358.843 654.266 359.456 654.336 360.124L662.431 438.434C662.466 438.765 662.435 439.1 662.34 439.418C662.246 439.738 662.089 440.035 661.878 440.293C661.668 440.551 661.409 440.766 661.116 440.924C660.823 441.082 660.502 441.182 660.17 441.215H659.907" fill="#1B264C"/>
        </g>
    </g>
    <path d="M703.322 483.282H697.235C694.141 467.626 687.376 445.676 672.814 418.868C638.445 355.591 541.947 343.357 481.864 375.058C475.847 378.22 470.04 381.767 464.48 385.676C462.671 386.941 460.908 388.241 459.189 389.577C435.574 407.888 420.143 431.888 413.215 461.233C411.516 468.484 410.385 475.856 409.833 483.282H403.881C404.466 475.407 405.676 467.59 407.499 459.906C412.926 436.764 426.493 406.055 459.659 381.947C461.36 380.692 463.133 379.473 464.942 378.272C469.536 375.228 474.282 372.416 479.16 369.848C509.911 353.596 550.73 348.286 588.247 355.618C629.355 363.627 661.264 385.099 678.078 416.114C693.816 445.098 700.518 468.393 703.403 483.345" fill="#00ADA8"/>
    <path d="M676.097 483.282H670.037C669.468 479.535 668.762 475.553 667.885 471.427C663.76 452.041 654.933 425.558 636.292 409.505C615.254 391.365 590.309 380.855 564.161 379.094C537.389 377.288 509.115 384.683 482.38 400.466C475.106 404.739 468.502 410.057 462.78 416.249C460.861 418.339 459.051 420.524 457.353 422.796C447.947 435.22 441.435 450.642 437.889 468.926C436.912 473.937 436.252 478.777 435.809 483.291H429.866C430.319 478.461 431.024 473.251 432.073 467.806C436.36 445.739 445.134 427.175 457.887 412.999C459.614 411.076 461.405 409.234 463.313 407.491C468.208 402.862 473.613 398.799 479.422 395.383C507.189 378.986 536.665 371.32 564.613 373.189C592.055 374.995 618.203 386.047 640.217 405.026C663.543 425.143 672.624 459.292 676.152 483.282" fill="#00ADA8"/>
    <path d="M452.967 414.868C460.039 422.732 472.503 420.367 467.375 407.012C461.713 392.277 450.19 379.148 442.312 371.997C434.434 364.846 428.745 374.137 424.422 379.862C420.098 385.586 417.982 387.004 412.257 384.864C406.531 382.724 403.302 383.058 400.499 392.006C398.283 399.04 400.607 401.18 392.702 399.148C386.877 397.649 380.998 409.324 385.638 414.624C390.938 423.012 406.73 443.301 412.989 448.276C420.153 453.964 424.747 448.023 421.663 440.538C420.542 437.829 419.854 436.475 418.109 432.881C421.726 436.123 425.444 441.829 428.618 444.926C434.597 450.741 443.994 446.47 441.679 439.509C439.183 431.861 430.735 420.186 430.735 420.186C430.735 420.186 438.052 430.055 446.563 436.484C455.074 442.913 461.939 432.114 456.512 424.972C451.085 417.829 439.508 402.019 439.508 402.019C444.315 405.961 448.812 410.265 452.957 414.895" fill="#F7931E"/>
    <path d="M651.496 386.444C664.882 377.153 668.599 373.189 676.893 371.717C685.187 370.245 687.403 373.776 685.938 380.746C684.473 387.717 688.525 384.864 695.453 385.442C702.381 386.02 705.682 387.88 702.824 393.767C699.966 399.654 695.281 402.913 705.113 402.895C714.944 402.877 716.952 407.608 713.099 412.972C709.246 418.335 717.07 420.764 718.417 423.744C719.765 426.723 716.436 434.226 704.109 439.165C691.781 444.104 683.867 448.61 671.277 450.831C658.687 453.052 660.731 442.795 666.655 439.5C672.579 436.204 682.935 430.299 682.935 430.299C682.935 430.299 664.973 440.818 657.013 442.524C649.054 444.231 647.634 434.515 651.758 431.933C655.883 429.351 670.906 418.985 670.906 418.985C670.906 418.985 654.246 427.373 647.064 430.561C639.883 433.748 631.553 424.953 637.549 419.012C642.361 414.236 652.31 406.371 652.31 406.371C652.31 406.371 649.76 408.8 639.141 412.015C628.523 415.229 625.891 405.369 632.674 401.279C639.458 397.189 644.324 391.41 651.532 386.408" fill="#F7931E"/>
    <path d="M535.725 182.781C535.725 183.865 535.403 184.925 534.8 185.826C534.196 186.727 533.339 187.43 532.336 187.845C531.333 188.259 530.228 188.368 529.164 188.156C528.098 187.945 527.121 187.423 526.353 186.656C525.585 185.89 525.062 184.914 524.85 183.85C524.638 182.787 524.747 181.685 525.163 180.684C525.578 179.682 526.281 178.826 527.185 178.224C528.088 177.622 529.148 177.3 530.235 177.3C531.691 177.3 533.087 177.877 534.117 178.906C535.146 179.933 535.725 181.327 535.725 182.781" fill="#1F4847"/>
    <path d="M596.595 182.781C596.595 183.865 596.273 184.925 595.67 185.826C595.067 186.727 594.209 187.43 593.206 187.845C592.203 188.259 591.099 188.368 590.034 188.156C588.969 187.945 587.991 187.423 587.223 186.656C586.455 185.89 585.932 184.914 585.721 183.85C585.508 182.787 585.618 181.685 586.033 180.684C586.449 179.682 587.152 178.826 588.055 178.224C588.958 177.622 590.019 177.3 591.105 177.3C592.561 177.3 593.958 177.877 594.987 178.906C596.017 179.933 596.595 181.327 596.595 182.781" fill="#1F4847"/>
    <path d="M561.05 237.435C560.2 237.435 559.331 237.435 558.436 237.354C544.977 236.523 537.443 229.995 533.509 224.713C530.927 221.275 529.097 217.335 528.136 213.146C528.077 212.615 528.221 212.082 528.54 211.653C528.858 211.223 529.329 210.931 529.854 210.833C530.38 210.736 530.924 210.841 531.375 211.128C531.828 211.414 532.153 211.861 532.288 212.379C532.442 213.191 536.24 231.792 558.698 233.146C581.156 234.5 587.976 215.891 588.256 215.088C588.459 214.585 588.847 214.178 589.34 213.953C589.833 213.728 590.395 213.7 590.909 213.877C591.422 214.053 591.848 214.419 592.098 214.9C592.349 215.381 592.404 215.939 592.254 216.46C592.181 216.677 584.774 237.435 561.05 237.435V237.435Z" fill="#C82232"/>
    <path d="M519.625 175.016C519.27 175.017 518.923 174.905 518.634 174.697C518.346 174.49 518.129 174.197 518.017 173.86C517.905 173.523 517.902 173.16 518.009 172.82C518.116 172.481 518.328 172.185 518.612 171.973C518.974 171.711 527.567 165.508 541.224 170.357C541.438 170.427 541.637 170.54 541.807 170.688C541.978 170.836 542.116 171.017 542.215 171.219C542.315 171.421 542.372 171.642 542.385 171.867C542.397 172.092 542.365 172.318 542.289 172.53C542.213 172.742 542.094 172.937 541.941 173.104C541.788 173.269 541.604 173.403 541.399 173.496C541.193 173.59 540.971 173.642 540.746 173.649C540.52 173.655 540.295 173.616 540.084 173.535C528.155 169.282 520.738 174.628 520.666 174.682C520.375 174.898 520.023 175.015 519.662 175.016" fill="#1F4847"/>
    <path d="M600.665 175.016C600.32 175.018 599.982 174.914 599.697 174.718C590.336 168.217 582.929 174.348 582.612 174.61C582.27 174.88 581.837 175.008 581.403 174.966C580.969 174.925 580.567 174.718 580.282 174.387C579.997 174.058 579.851 173.631 579.874 173.197C579.897 172.761 580.087 172.352 580.405 172.054C580.505 171.973 590.065 163.928 601.624 171.946C601.918 172.152 602.139 172.446 602.253 172.786C602.368 173.125 602.373 173.493 602.265 173.834C602.157 174.176 601.943 174.475 601.654 174.687C601.364 174.899 601.015 175.015 600.656 175.016" fill="#1F4847"/>
    <g opacity="0.3">
        <g opacity="0.3">
            <path opacity="0.3" d="M560.959 335.068C533.771 335.068 509.514 328.747 495.621 317.009C480.833 304.531 485.591 292.856 485.799 292.36C486.041 291.882 486.455 291.514 486.959 291.328C487.463 291.144 488.018 291.158 488.512 291.367C489.007 291.576 489.403 291.964 489.621 292.453C489.839 292.943 489.863 293.496 489.688 294.003C489.525 294.409 486.07 303.438 498.343 313.786C518.242 330.544 560.751 335.609 601.904 326.12C626.451 320.449 635.089 312.188 638.011 306.256C640.724 300.712 638.915 296.323 638.861 296.323C638.654 295.819 638.65 295.254 638.851 294.747C639.051 294.239 639.44 293.83 639.936 293.602C640.433 293.374 640.998 293.347 641.514 293.527C642.03 293.706 642.457 294.077 642.705 294.563C642.822 294.816 645.418 300.739 641.8 308.152C636.97 317.966 623.865 325.406 602.854 330.255C589.115 333.432 575.062 335.049 560.959 335.077" fill="#1B264C"/>
        </g>
    </g>
    <g opacity="0.3">
        <g opacity="0.3">
            <path opacity="0.3" d="M531.655 459.445C531.224 459.443 530.804 459.31 530.451 459.063C530.098 458.817 529.829 458.469 529.679 458.065C529.53 457.662 529.507 457.222 529.614 456.806C529.722 456.39 529.954 456.016 530.28 455.734C530.596 455.463 562.027 428.421 570.664 413.893C570.975 413.468 571.435 413.175 571.951 413.07C572.468 412.966 573.005 413.058 573.457 413.328C573.91 413.597 574.245 414.026 574.398 414.529C574.551 415.033 574.509 415.576 574.282 416.051C565.292 431.166 534.332 457.811 533.02 458.93C532.638 459.258 532.149 459.438 531.646 459.436" fill="#1B264C"/>
        </g>
    </g>
    <g opacity="0.3">
        <g opacity="0.3">
            <path opacity="0.3" d="M531.926 479.941C531.465 479.939 531.018 479.786 530.653 479.506C530.286 479.226 530.022 478.835 529.899 478.392C529.776 477.949 529.802 477.477 529.972 477.049C530.142 476.622 530.446 476.262 530.841 476.023C532.876 474.777 555.098 456.321 564.062 444.42C564.225 444.187 564.433 443.988 564.674 443.836C564.916 443.685 565.185 443.583 565.466 443.538C565.749 443.493 566.036 443.505 566.313 443.574C566.59 443.643 566.849 443.767 567.077 443.939C567.305 444.111 567.495 444.327 567.637 444.574C567.779 444.82 567.87 445.094 567.903 445.377C567.936 445.659 567.912 445.946 567.832 446.219C567.751 446.493 567.616 446.747 567.435 446.967C557.984 459.508 535.101 478.406 533.011 479.67C532.683 479.866 532.308 479.969 531.926 479.968" fill="#1B264C"/>
        </g>
    </g>
    <path d="M597.5 103.703C597.083 103.7 596.681 103.543 596.373 103.262C596.065 102.982 595.872 102.597 595.83 102.183C595.788 101.768 595.901 101.353 596.148 101.017C596.394 100.681 596.757 100.448 597.165 100.362C597.319 100.362 612.921 96.9855 627.6 82.0783C642.678 66.7286 650.781 65.0221 656.697 63.758L657.303 63.6316C657.524 63.571 657.756 63.5561 657.984 63.5879C658.212 63.6197 658.43 63.6974 658.627 63.8164C658.823 63.9354 658.993 64.0931 659.127 64.2799C659.26 64.4667 659.354 64.6787 659.403 64.9029C659.451 65.1271 659.453 65.3589 659.409 65.5841C659.366 65.8093 659.275 66.0231 659.146 66.2125C659.017 66.402 658.849 66.563 658.656 66.6859C658.461 66.8088 658.244 66.891 658.017 66.9273L657.402 67.0627C651.903 68.2456 644.369 69.8618 630.006 84.453C614.567 100.137 598.513 103.541 597.834 103.676C597.723 103.687 597.611 103.687 597.5 103.676" fill="#971B23"/>
    <path d="M625.809 183.142C627.534 180.96 629.975 179.457 632.702 178.897C635.43 178.336 638.267 178.756 640.715 180.081C646.142 182.79 646.883 194.636 639.394 202.32C631.905 210.004 629.653 207.611 629.653 207.611L625.809 183.142Z" fill="#F7931E"/>
    <path d="M595.51 142.592C588.584 142.587 581.721 141.285 575.277 138.755C574.887 138.564 574.585 138.23 574.434 137.824C574.284 137.417 574.296 136.968 574.468 136.57C574.64 136.171 574.96 135.854 575.359 135.685C575.759 135.515 576.209 135.505 576.616 135.658C576.851 135.757 600.132 145.499 619.342 131.911C628.071 125.726 634.293 119.64 639.792 114.267C646.838 107.369 652.41 101.925 659.6 100.362C660.027 100.294 660.465 100.392 660.822 100.635C661.179 100.879 661.429 101.25 661.521 101.672C661.613 102.095 661.538 102.536 661.314 102.905C661.09 103.275 660.732 103.544 660.315 103.658C654.083 105.013 649.081 109.906 642.162 116.678C635.721 123.241 628.745 129.257 621.305 134.664C613.757 139.946 604.735 142.719 595.519 142.592" fill="#971B23"/>
    <path d="M631.779 138.249C631.455 138.247 631.138 138.153 630.866 137.977C630.594 137.801 630.379 137.55 630.245 137.256C630.112 136.961 630.066 136.634 630.114 136.313C630.161 135.994 630.299 135.694 630.513 135.45C635.681 129.773 641.209 124.435 647.064 119.468C660.052 108.453 671.602 102.024 681.38 100.362C681.822 100.288 682.276 100.392 682.641 100.651C683.007 100.91 683.254 101.303 683.33 101.744C683.406 102.186 683.302 102.639 683.044 103.005C682.785 103.37 682.392 103.618 681.949 103.694C659.953 107.441 633.325 137.391 633.054 137.689C632.896 137.869 632.7 138.012 632.482 138.11C632.264 138.208 632.028 138.259 631.788 138.258" fill="#971B23"/>
    <g opacity="0.3">
        <g opacity="0.3">
            <path opacity="0.3" d="M556.256 265.958C540.338 265.958 526.762 256.839 526.156 256.432C525.731 256.103 525.447 255.623 525.364 255.092C525.28 254.561 525.402 254.019 525.705 253.575C526.008 253.13 526.47 252.818 526.996 252.701C527.521 252.585 528.071 252.673 528.534 252.947C528.679 253.046 543.322 262.879 559.024 261.642C559.309 261.605 559.597 261.627 559.874 261.705C560.15 261.784 560.407 261.918 560.63 262.098C560.853 262.28 561.036 262.504 561.169 262.757C561.302 263.011 561.383 263.289 561.404 263.575C561.427 263.861 561.39 264.148 561.298 264.419C561.205 264.69 561.058 264.94 560.866 265.153C560.674 265.366 560.44 265.537 560.18 265.657C559.919 265.777 559.636 265.843 559.349 265.85C558.307 265.928 557.272 265.967 556.247 265.967" fill="#971B23"/>
        </g>
    </g>
    <path d="M555.08 211.178C553.331 211.177 551.634 210.581 550.269 209.49C548.677 208.057 547.667 206.093 547.432 203.966C547.197 201.841 547.753 199.703 548.993 197.959C551.616 194.004 557.314 186.871 557.549 186.573C557.714 186.334 557.926 186.131 558.173 185.977C558.419 185.824 558.695 185.722 558.982 185.679C559.27 185.636 559.563 185.653 559.844 185.728C560.124 185.804 560.387 185.936 560.614 186.117C560.841 186.298 561.029 186.524 561.165 186.78C561.301 187.037 561.383 187.318 561.404 187.607C561.427 187.897 561.389 188.188 561.294 188.461C561.199 188.736 561.048 188.988 560.851 189.201C560.797 189.273 555.035 196.496 552.512 200.298C550.838 202.817 551.743 205.291 552.928 206.248C554.113 207.205 556.139 207.548 558.165 205.535C560.878 202.826 567.128 195.088 567.209 195.007C567.571 194.606 568.074 194.358 568.613 194.315C569.152 194.272 569.687 194.437 570.109 194.776C570.53 195.114 570.805 195.601 570.879 196.135C570.952 196.671 570.817 197.213 570.501 197.652C570.239 197.977 564.016 205.688 561.158 208.487C560.38 209.321 559.442 209.991 558.399 210.456C557.356 210.921 556.231 211.173 555.089 211.196" fill="#C82232"/>
    <g opacity="0.4">
        <g opacity="0.4">
            <path opacity="0.4" d="M522.339 192.858C522.339 193.204 522.236 193.543 522.043 193.831C521.85 194.119 521.576 194.344 521.255 194.476C520.935 194.608 520.582 194.644 520.241 194.576C519.901 194.508 519.588 194.341 519.343 194.097C519.098 193.852 518.931 193.539 518.863 193.199C518.795 192.86 518.83 192.507 518.963 192.188C519.095 191.867 519.321 191.594 519.609 191.401C519.898 191.209 520.237 191.106 520.584 191.106C521.049 191.106 521.496 191.29 521.825 191.619C522.153 191.948 522.339 192.393 522.339 192.858Z" fill="#C82232"/>
        </g>
    </g>
    <g opacity="0.4">
        <g opacity="0.4">
            <path opacity="0.4" d="M526.409 199.025C526.409 199.371 526.306 199.71 526.113 199.998C525.92 200.286 525.646 200.51 525.325 200.643C525.005 200.775 524.652 200.811 524.311 200.743C523.971 200.675 523.658 200.508 523.413 200.263C523.168 200.018 523.001 199.706 522.933 199.366C522.865 199.026 522.901 198.674 523.033 198.355C523.166 198.034 523.391 197.761 523.679 197.568C523.968 197.376 524.307 197.273 524.654 197.273C525.119 197.273 525.566 197.457 525.895 197.786C526.223 198.114 526.409 198.56 526.409 199.025Z" fill="#C82232"/>
        </g>
    </g>
    <g opacity="0.4">
        <g opacity="0.4">
            <path opacity="0.4" d="M533.102 194.853C533.102 195.2 532.999 195.538 532.806 195.826C532.613 196.114 532.339 196.338 532.018 196.471C531.698 196.604 531.345 196.639 531.004 196.571C530.664 196.504 530.351 196.337 530.106 196.092C529.861 195.846 529.694 195.535 529.626 195.194C529.558 194.855 529.593 194.503 529.725 194.183C529.858 193.863 530.084 193.589 530.372 193.397C530.661 193.204 531 193.101 531.347 193.101C531.812 193.101 532.259 193.286 532.588 193.614C532.916 193.943 533.102 194.388 533.102 194.853Z" fill="#C82232"/>
        </g>
    </g>
    <g opacity="0.4">
        <g opacity="0.4">
            <path opacity="0.4" d="M597.228 196.704C597.228 197.051 597.125 197.389 596.932 197.677C596.74 197.966 596.466 198.189 596.145 198.322C595.825 198.455 595.472 198.49 595.132 198.422C594.791 198.355 594.479 198.188 594.233 197.943C593.988 197.697 593.82 197.386 593.752 197.045C593.685 196.706 593.72 196.354 593.853 196.034C593.986 195.714 594.21 195.44 594.499 195.248C594.787 195.055 595.126 194.952 595.474 194.952C595.939 194.952 596.385 195.137 596.714 195.465C597.044 195.794 597.228 196.239 597.228 196.704Z" fill="#C82232"/>
        </g>
    </g>
    <g opacity="0.4">
        <g opacity="0.4">
            <path opacity="0.4" d="M606.725 193.445C606.725 193.791 606.622 194.13 606.429 194.418C606.237 194.706 605.963 194.931 605.642 195.063C605.321 195.195 604.969 195.231 604.629 195.163C604.288 195.095 603.976 194.928 603.73 194.683C603.484 194.439 603.317 194.126 603.249 193.787C603.181 193.446 603.217 193.094 603.35 192.775C603.483 192.454 603.707 192.181 603.995 191.988C604.284 191.796 604.623 191.693 604.97 191.693C605.436 191.693 605.882 191.877 606.211 192.206C606.541 192.534 606.725 192.98 606.725 193.445Z" fill="#C82232"/>
        </g>
    </g>
    <g opacity="0.4">
        <g opacity="0.4">
            <path opacity="0.4" d="M605.007 201.101C605.007 201.448 604.904 201.787 604.711 202.075C604.518 202.363 604.244 202.588 603.923 202.719C603.603 202.852 603.25 202.887 602.909 202.82C602.569 202.752 602.256 202.585 602.011 202.34C601.766 202.095 601.599 201.783 601.531 201.444C601.463 201.103 601.498 200.751 601.63 200.431C601.763 200.111 601.988 199.837 602.277 199.645C602.565 199.453 602.905 199.35 603.252 199.35C603.717 199.35 604.164 199.534 604.493 199.863C604.821 200.191 605.007 200.637 605.007 201.101Z" fill="#C82232"/>
        </g>
    </g>
</svg>
