<svg width="100%" preserveAspectRatio="xMaxYMid meet" viewBox="0 0 910 512" fill="none"
    xmlns="http://www.w3.org/2000/svg">
    <g clip-path="url(#clip0_2:54)">
        <path d="M784.25 131.82C783.799 131.814 783.364 131.652 783.019 131.362C782.674 131.071 782.441 130.67 782.358 130.227C782.276 129.784 782.349 129.326 782.567 128.93C782.784 128.535 783.131 128.228 783.55 128.06C799.41 121.9 805.76 103.45 805.82 103.27C806.007 102.81 806.362 102.438 806.813 102.231C807.264 102.023 807.778 101.996 808.248 102.154C808.719 102.312 809.112 102.644 809.346 103.082C809.581 103.52 809.639 104.031 809.51 104.51C809.23 105.34 802.51 124.89 784.96 131.69C784.737 131.777 784.499 131.821 784.26 131.82" fill="#1F4847"/>
        <path d="M810.05 124.35C809.675 124.35 809.308 124.241 808.993 124.037C808.678 123.833 808.429 123.543 808.274 123.201C808.12 122.859 808.068 122.48 808.124 122.109C808.18 121.738 808.342 121.391 808.59 121.11C820.12 108.11 820.28 86.97 820.28 86.76C820.295 86.2486 820.506 85.7624 820.869 85.4016C821.231 85.0407 821.719 84.8326 822.23 84.82C822.741 84.8352 823.228 85.0458 823.588 85.4086C823.949 85.7713 824.157 86.2585 824.17 86.77C824.17 87.69 824.03 109.54 811.51 123.7C811.325 123.905 811.1 124.069 810.849 124.183C810.598 124.296 810.326 124.357 810.05 124.36" fill="#1F4847"/>
        <path d="M704.45 263.612C703.747 263.505 703.105 263.151 702.638 262.615C702.172 262.078 701.911 261.393 701.902 260.682C701.894 259.971 702.138 259.279 702.592 258.732C703.046 258.184 703.68 257.816 704.38 257.692C704.54 257.692 720.48 257.292 729.8 256.482C742.8 255.352 746.05 242.372 746.8 234.732C747.66 226.122 747.29 174.062 746.8 164.402C746.17 152.202 736.8 146.042 730.34 145.572C718.44 144.692 698.07 145.662 697.87 145.672C697.159 145.596 696.499 145.268 696.009 144.748C695.518 144.228 695.229 143.55 695.194 142.836C695.159 142.122 695.38 141.419 695.818 140.854C696.255 140.288 696.88 139.898 697.58 139.752C698.43 139.752 718.52 138.752 730.78 139.652C745.1 140.712 752.23 154.582 752.72 164.092C753.15 172.472 753.64 226.012 752.72 235.322C751.96 242.942 748.25 260.822 730.32 262.382C720.82 263.202 705.2 263.592 704.54 263.612H704.47" fill="#C6CEDB"/>
        <path d="M684.25 312.762C683.454 312.762 682.691 312.446 682.129 311.883C681.566 311.321 681.25 310.558 681.25 309.762L681.18 261.912C681.18 261.116 681.496 260.353 682.059 259.791C682.621 259.228 683.384 258.912 684.18 258.912C684.976 258.912 685.739 259.228 686.301 259.791C686.864 260.353 687.18 261.116 687.18 261.912L687.24 309.762C687.24 310.558 686.924 311.321 686.361 311.883C685.799 312.446 685.036 312.762 684.24 312.762H684.25Z" fill="#C6CEDB"/>
        <path d="M705.65 263.642C705.203 263.642 704.753 263.642 704.3 263.642C697.05 263.252 587.43 261.192 577.48 261.152C556.14 261.062 555.48 238.682 555.19 229.152C554.8 216.152 555.55 194.692 557.04 175.772C558.1 162.302 562.15 144.332 584.88 143.772C592.36 143.582 616.53 143.772 642.12 143.922C668.21 144.102 695.19 144.282 702.12 144.052C717.59 143.562 728.9 153.712 730.19 169.352C730.74 176.042 730.75 196.122 730.75 213.832C730.75 223.632 730.75 232.102 730.86 236.082C730.877 239.954 730.119 243.79 728.63 247.364C727.141 250.938 724.951 254.178 722.19 256.892C720.02 259.062 717.443 260.782 714.606 261.952C711.769 263.123 708.729 263.721 705.66 263.712L705.65 263.642ZM596.35 149.532C591.22 149.532 587.25 149.532 584.98 149.612C570.76 149.962 564.36 157.612 562.9 176.162C561.42 194.892 560.68 216.082 561.06 228.902C561.53 244.642 564.5 255.142 577.46 255.192C588.88 255.192 697.17 257.292 704.58 257.692C707.063 257.836 709.548 257.45 711.87 256.561C714.192 255.671 716.299 254.298 718.05 252.532C720.222 250.383 721.949 247.826 723.132 245.009C724.314 242.191 724.928 239.168 724.94 236.112C724.84 232.062 724.83 223.552 724.83 213.712C724.83 196.982 724.83 176.172 724.29 169.712C723.29 157.232 714.68 149.432 702.29 149.842C695.29 150.072 668.21 149.842 642.06 149.712C625.17 149.602 607.87 149.482 596.38 149.482" fill="#C6CEDB"/>
        <path d="M764.65 511.622C763.87 511.599 763.13 511.272 762.587 510.712C762.043 510.152 761.74 509.402 761.74 508.622C761.74 507.162 764.02 376.212 764.08 361.502C764.16 342.382 750.48 320.382 730.72 319.382C717.5 318.712 692.72 317.572 692.43 317.562C691.999 317.61 691.563 317.565 691.151 317.428C690.74 317.291 690.362 317.067 690.046 316.771C689.729 316.474 689.481 316.113 689.317 315.711C689.154 315.31 689.08 314.877 689.099 314.444C689.119 314.011 689.233 313.587 689.432 313.202C689.631 312.817 689.912 312.479 690.254 312.213C690.596 311.947 690.992 311.758 691.414 311.659C691.836 311.561 692.275 311.555 692.7 311.642C692.95 311.642 717.79 312.792 731.02 313.462C754.11 314.642 770.09 339.732 770.02 361.522C769.96 376.272 767.71 507.252 767.68 508.712C767.657 509.492 767.33 510.232 766.77 510.775C766.21 511.319 765.46 511.622 764.68 511.622" fill="#C6CEDB"/>
        <path d="M88.34 504.642H88.24C87.4601 504.606 86.7252 504.267 86.1911 503.697C85.6571 503.128 85.3661 502.373 85.38 501.592C86.68 461.092 88.12 415.162 89.07 402.802C89.43 398.142 89.71 394.462 89.9 390.802C91.21 365.692 95.14 342.962 128.33 340.642C147.08 339.312 281.89 337.572 307.05 339.182C333.31 340.892 344.93 354.102 344.72 382.012C344.61 394.552 344.55 441.862 344.51 503.822C344.51 504.618 344.194 505.381 343.631 505.943C343.069 506.506 342.306 506.822 341.51 506.822C340.714 506.822 339.951 506.506 339.389 505.943C338.826 505.381 338.51 504.618 338.51 503.822C338.51 441.822 338.61 394.522 338.72 381.962C338.91 357.272 329.6 346.592 306.59 345.092C282.54 343.542 146.73 345.262 128.66 346.552C102.54 348.382 97.23 362.372 95.73 391.112C95.53 394.862 95.25 398.572 94.89 403.282C93.94 415.592 92.51 461.442 91.21 501.812C91.1765 502.585 90.8457 503.315 90.2867 503.85C89.7276 504.385 88.9836 504.683 88.21 504.682" fill="#C6CEDB"/>
        <path d="M190.08 342.922C189.295 342.906 188.547 342.583 187.997 342.022C187.448 341.461 187.14 340.707 187.14 339.922L187.55 290.702C187.566 289.917 187.889 289.169 188.45 288.619C189.011 288.07 189.765 287.762 190.55 287.762C191.335 287.778 192.083 288.101 192.633 288.662C193.182 289.223 193.49 289.977 193.49 290.762L193.08 339.982C193.064 340.767 192.741 341.515 192.18 342.065C191.62 342.614 190.865 342.922 190.08 342.922" fill="#C6CEDB"/>
        <path d="M263.95 341.472C263.154 341.472 262.391 341.156 261.829 340.593C261.266 340.031 260.95 339.268 260.95 338.472L260.89 289.062C260.89 288.266 261.206 287.503 261.769 286.941C262.331 286.378 263.094 286.062 263.89 286.062C264.686 286.062 265.449 286.378 266.011 286.941C266.574 287.503 266.89 288.266 266.89 289.062L266.95 338.462C266.95 339.258 266.634 340.021 266.071 340.583C265.509 341.146 264.746 341.462 263.95 341.462V341.472Z" fill="#C6CEDB"/>
        <path d="M285.45 290.802C285.003 290.802 284.553 290.802 284.1 290.802C276.87 290.412 167.24 288.352 157.28 288.312C135.94 288.222 135.28 265.842 134.99 256.312C134.6 243.312 135.35 221.852 136.84 202.932C137.9 189.462 141.95 171.492 164.68 170.932C172.16 170.742 196.33 170.932 221.93 171.082C248.02 171.262 275 171.442 281.93 171.212C297.38 170.742 308.71 180.872 310 196.512C310.55 203.202 310.56 223.282 310.56 240.992C310.56 250.792 310.56 259.262 310.67 263.242C310.687 267.114 309.929 270.95 308.44 274.524C306.951 278.098 304.761 281.338 302 284.052C299.83 286.222 297.252 287.941 294.416 289.112C291.579 290.282 288.539 290.88 285.47 290.872L285.45 290.802ZM176.2 176.692C171.07 176.692 167.1 176.692 164.83 176.772C150.61 177.122 144.21 184.772 142.75 203.322C141.27 222.052 140.53 243.242 140.91 256.062C141.38 271.802 144.35 282.302 157.31 282.352C168.75 282.352 277.04 284.452 284.43 284.852C286.902 284.988 289.376 284.602 291.689 283.72C294.003 282.838 296.106 281.479 297.86 279.732C300.03 277.582 301.755 275.025 302.935 272.207C304.116 269.39 304.729 266.367 304.74 263.312C304.64 259.262 304.63 250.752 304.63 240.912C304.63 224.182 304.63 203.372 304.09 196.912C303.09 184.742 294.86 177.022 283.03 177.022H282.12C275.12 177.252 248.04 177.072 221.89 176.892C205 176.782 187.7 176.662 176.21 176.662" fill="#C6CEDB"/>
        <path d="M382.35 94.06C381.658 94.06 380.994 93.785 380.504 93.2956C380.015 92.8061 379.74 92.1422 379.74 91.45V49.53C379.74 48.8378 380.015 48.1739 380.504 47.6845C380.994 47.195 381.658 46.92 382.35 46.92C383.042 46.92 383.706 47.195 384.196 47.6845C384.685 48.1739 384.96 48.8378 384.96 49.53V91.46C384.96 92.1522 384.685 92.8161 384.196 93.3056C383.706 93.795 383.042 94.07 382.35 94.07" fill="#C6CEDB"/>
        <path d="M394.85 94.01C394.158 94.01 393.494 93.735 393.004 93.2456C392.515 92.7561 392.24 92.0922 392.24 91.4V49.53C392.24 48.8378 392.515 48.1739 393.004 47.6845C393.494 47.195 394.158 46.92 394.85 46.92C395.542 46.92 396.206 47.195 396.696 47.6845C397.185 48.1739 397.46 48.8378 397.46 49.53V91.41C397.46 92.1022 397.185 92.7661 396.696 93.2556C396.206 93.745 395.542 94.02 394.85 94.02" fill="#C6CEDB"/>
        <path d="M359.45 153.46C341.05 153.46 327.93 153.39 325.79 153.2C317.55 152.48 313.93 147.59 314.05 137.35C314.1 133.04 314.05 128.6 313.99 124.35C313.91 118.18 313.83 111.81 314.05 105.35C314.41 94.35 319.14 89.05 328.5 89.05H340.82C370.5 88.93 439.99 88.65 448.07 89.05C460.07 89.73 461.85 96.43 462.87 105.13C463.87 114.06 463.4 136.93 462.87 143.13C462.11 152.13 455.87 153.23 450.49 153.23H439.28C411.71 153.34 381.72 153.44 359.45 153.44V153.46ZM319.27 105.44C319.06 111.77 319.14 118.08 319.21 124.18C319.26 128.5 319.32 132.96 319.27 137.34C319.16 146.56 322.37 147.59 326.27 147.94C331.36 148.39 412.59 148.07 439.27 147.94H450.5C456.21 147.94 457.35 146.54 457.68 142.61C458.19 136.61 458.68 114.3 457.68 105.67C456.73 97.53 455.68 94.67 447.77 94.2C439.86 93.73 370.47 94.04 340.84 94.2H328.5C323.03 94.2 319.58 96.08 319.27 105.45" fill="#C6CEDB"/>
        <path d="M303.15 291.532C298.707 291.517 294.268 291.273 289.85 290.802C289.167 290.607 288.576 290.175 288.182 289.585C287.787 288.995 287.615 288.284 287.695 287.578C287.776 286.873 288.104 286.219 288.621 285.732C289.138 285.246 289.811 284.959 290.52 284.922C290.66 284.922 304.21 286.452 312.52 284.922C322.79 283.072 323.31 269.312 323.31 266.572V263.472C323.39 223.042 323.01 198.692 322.17 191.092C320.84 178.992 311.4 177.682 307.41 177.682H291.97C291.269 177.566 290.631 177.205 290.171 176.663C289.711 176.121 289.458 175.433 289.458 174.722C289.458 174.011 289.711 173.323 290.171 172.781C290.631 172.239 291.269 171.878 291.97 171.762H307.41C316.41 171.762 326.54 176.672 328.06 190.442C328.92 198.262 329.32 222.842 329.23 263.442V266.532C329.23 282.272 321.14 289.342 313.57 290.712C310.115 291.264 306.619 291.518 303.12 291.472" fill="#C6CEDB"/>
        <path d="M367.25 506.282C366.465 506.266 365.717 505.943 365.167 505.382C364.618 504.821 364.31 504.067 364.31 503.282C364.58 472.862 364.92 390.222 364.31 384.852L364.19 383.722C363.4 376.322 361.76 360.912 350.44 353.592C338.16 345.652 313.49 345.762 313.23 345.742C312.529 345.626 311.891 345.265 311.431 344.723C310.971 344.181 310.718 343.493 310.718 342.782C310.718 342.071 310.971 341.383 311.431 340.841C311.891 340.299 312.529 339.938 313.23 339.822C314.31 339.822 339.95 339.722 353.7 348.622C367.45 357.522 369.3 375.432 370.12 383.102L370.24 384.202C371.02 391.262 370.29 499.732 370.24 503.342C370.224 504.127 369.901 504.875 369.34 505.425C368.779 505.974 368.025 506.282 367.24 506.282" fill="#C6CEDB"/>
        <path d="M785.75 510.212H785.7C784.92 510.189 784.18 509.862 783.637 509.302C783.093 508.742 782.79 507.992 782.79 507.212C782.79 506.092 784.64 408.982 784.64 398.552C784.64 396.552 784.78 393.912 784.94 390.862C785.65 377.572 786.84 355.312 778.71 342.682C765.51 322.152 737.9 320.242 737.63 320.222C736.936 320.064 736.321 319.665 735.894 319.096C735.467 318.527 735.257 317.824 735.3 317.114C735.343 316.404 735.638 315.732 736.13 315.219C736.623 314.706 737.282 314.384 737.99 314.312C739.25 314.392 768.89 316.452 783.69 339.472C792.85 353.712 791.6 377.162 790.85 391.162C790.69 394.162 790.56 396.692 790.56 398.542C790.56 409.022 788.73 506.182 788.71 507.302C788.687 508.082 788.36 508.822 787.8 509.365C787.24 509.909 786.49 510.212 785.71 510.212" fill="#C6CEDB"/>
        <path d="M170.39 442.852C169.818 442.836 169.263 442.657 168.79 442.335C168.317 442.014 167.945 441.564 167.719 441.038C167.493 440.513 167.422 439.934 167.514 439.369C167.607 438.805 167.858 438.278 168.24 437.852L205.52 398.322C206.085 397.89 206.786 397.672 207.496 397.709C208.207 397.745 208.882 398.033 209.4 398.521C209.918 399.009 210.245 399.665 210.324 400.373C210.403 401.08 210.228 401.792 209.83 402.382L172.55 441.912C172.272 442.203 171.939 442.436 171.57 442.596C171.2 442.755 170.802 442.839 170.4 442.842" fill="#C6CEDB"/>
        <path d="M200.97 437.862C200.368 437.84 199.786 437.637 199.3 437.28C198.815 436.922 198.448 436.427 198.248 435.858C198.049 435.289 198.025 434.673 198.181 434.09C198.336 433.508 198.663 432.986 199.12 432.592C201.72 430.512 223.12 403.942 235.95 387.682C236.475 387.2 237.155 386.92 237.867 386.893C238.58 386.867 239.279 387.094 239.838 387.536C240.398 387.978 240.782 388.605 240.922 389.304C241.061 390.003 240.947 390.729 240.6 391.352C234.97 398.462 206.71 434.102 202.82 437.222C202.296 437.638 201.649 437.866 200.98 437.872" fill="#C6CEDB"/>
        <path d="M747.55 507.532H398.22C395.78 492.762 397.31 477.352 397.22 466.402C396.84 423.762 401.71 390.112 414.48 354.602C426.8 320.322 448.63 298.252 503.65 286.302C529.54 280.692 614.5 279.302 645.14 289.212C694.67 305.212 727.72 327.542 739.5 373.542C747.13 403.352 749.12 456.682 747.57 507.542" fill="#576295"/>
        <path d="M613.22 240.242H533.65V289.242H613.22V240.242Z" fill="#F7931E"/>
        <path d="M642.05 292.922C651.17 310.922 612.27 326.682 574.34 326.682C536.41 326.682 499.12 310.922 505.65 294.232C507.65 289.232 519.85 284.342 533.65 283.142C563.93 281.252 581.93 282.532 613.22 283.692C633.44 285.872 640.63 290.132 642.04 292.912" fill="#F7931E"/>
        <path d="M648.25 212.652C641.52 242.522 617.08 265.272 570.44 264.732C537.7 264.352 508.86 238.672 500.8 206.652C499.259 200.638 498.503 194.45 498.55 188.242C498.96 130.352 550.46 119.092 573.05 119.962C595.64 120.832 635.61 127.892 646.33 166.772C650.67 182.522 651.49 198.402 648.26 212.652" fill="#F7931E"/>
        <path d="M755.15 123.53C717.94 131.84 706.42 135.7 693.06 162.34C676.42 195.49 658.5 207.98 648.24 212.65C650.86 201.1 650.78 188.47 648.36 175.72C645.13 165.72 640.05 152.89 622.36 145.67C603.5 137.95 583.93 149.54 557.89 140.86C551.05 138.68 544.737 135.105 539.35 130.36C539.35 130.36 530.19 142.12 517.2 156.73C506.2 169.09 499.33 170.81 498.49 188.24C498.41 189.86 499.43 200.35 499.43 200.35C499.43 200.35 481.43 197.63 481.43 146.58C481.43 117.85 506.25 64.22 559.22 59.74C583.73 57.67 602.95 60.74 618.78 39.74C631.78 22.5 655.47 0 676.78 0C698.09 0 705.26 8.14 708.85 18.74C711.85 27.56 712.61 33.74 719.5 31.27C726.39 28.8 748.28 6.36 768.5 5.11C788.72 3.86 798.93 15.21 797.5 27.04C794.5 51.5 755.03 76.39 755.03 76.39C755.03 76.39 791.62 70.39 785.62 97.11C782.37 111.6 768.97 120.39 755.03 123.5" fill="#C82232"/>
        <g opacity="0.3">
            <g opacity="0.3">
                <path opacity="0.3" d="M456.75 506.262H456.59C456.218 506.243 455.853 506.15 455.517 505.988C455.181 505.826 454.881 505.599 454.634 505.319C454.387 505.04 454.199 504.714 454.08 504.361C453.96 504.007 453.913 503.634 453.94 503.262L461.16 371.262C461.203 370.521 461.539 369.827 462.092 369.333C462.646 368.839 463.374 368.585 464.115 368.626C464.856 368.667 465.55 369 466.046 369.552C466.542 370.104 466.799 370.831 466.76 371.572L459.54 503.572C459.502 504.288 459.19 504.963 458.669 505.456C458.148 505.949 457.457 506.223 456.74 506.222" fill="#1B264C"/>
            </g>
        </g>
        <g opacity="0.3">
            <g opacity="0.3">
                <path opacity="0.3" d="M681.35 460.962C680.655 460.963 679.985 460.706 679.469 460.24C678.953 459.774 678.629 459.133 678.56 458.442L669.61 371.712C669.533 370.972 669.753 370.232 670.222 369.654C670.691 369.077 671.37 368.709 672.11 368.632C672.85 368.555 673.59 368.775 674.168 369.244C674.745 369.713 675.113 370.392 675.19 371.132L684.14 457.862C684.179 458.229 684.145 458.599 684.04 458.952C683.935 459.306 683.762 459.635 683.529 459.921C683.297 460.207 683.01 460.445 682.686 460.62C682.362 460.795 682.007 460.905 681.64 460.942H681.35" fill="#1B264C"/>
            </g>
        </g>
        <path d="M729.35 507.532H722.62C719.2 490.192 711.72 465.882 695.62 436.192C657.62 366.112 550.93 352.562 484.5 387.672C477.847 391.174 471.427 395.102 465.28 399.432C463.28 400.832 461.33 402.272 459.43 403.752C433.32 424.032 416.26 450.612 408.6 483.112C406.721 491.143 405.471 499.307 404.86 507.532H398.28C398.927 498.81 400.264 490.153 402.28 481.642C408.28 456.012 423.28 422.002 459.95 395.302C461.83 393.912 463.79 392.562 465.79 391.232C470.87 387.86 476.117 384.746 481.51 381.902C515.51 363.902 560.64 358.022 602.12 366.142C647.57 375.012 682.85 398.792 701.44 433.142C718.84 465.242 726.25 491.042 729.44 507.602" fill="#00ADA8"/>
        <path d="M699.25 507.532H692.55C691.92 503.382 691.14 498.972 690.17 494.402C685.61 472.932 675.85 443.602 655.24 425.822C631.98 405.732 604.4 394.092 575.49 392.142C545.89 390.142 514.63 398.332 485.07 415.812C477.028 420.544 469.727 426.434 463.4 433.292C461.279 435.606 459.277 438.026 457.4 440.542C447 454.302 439.8 471.382 435.88 491.632C434.8 497.182 434.07 502.542 433.58 507.542H427.01C427.51 502.192 428.29 496.422 429.45 490.392C434.19 465.952 443.89 445.392 457.99 429.692C459.9 427.562 461.88 425.522 463.99 423.592C469.402 418.465 475.377 413.966 481.8 410.182C512.5 392.022 545.09 383.532 575.99 385.602C606.33 387.602 635.24 399.842 659.58 420.862C685.37 443.142 695.41 480.962 699.31 507.532" fill="#00ADA8"/>
        <path d="M452.55 431.762C460.37 440.472 474.15 437.852 468.48 423.062C462.22 406.742 449.48 392.202 440.77 384.282C432.06 376.362 425.77 386.652 420.99 392.992C416.21 399.332 413.87 400.902 407.54 398.532C401.21 396.162 397.64 396.532 394.54 406.442C392.09 414.232 394.66 416.602 385.92 414.352C379.48 412.692 372.98 425.622 378.11 431.492C383.97 440.782 401.43 463.252 408.35 468.762C416.27 475.062 421.35 468.482 417.94 460.192C416.7 457.192 415.94 455.692 414.01 451.712C418.01 455.302 422.12 461.622 425.63 465.052C432.24 471.492 442.63 466.762 440.07 459.052C437.31 450.582 427.97 437.652 427.97 437.652C427.97 437.652 436.06 448.582 445.47 455.702C454.88 462.822 462.47 450.862 456.47 442.952C450.47 435.042 437.67 417.532 437.67 417.532C442.985 421.897 447.957 426.664 452.54 431.792" fill="#F7931E"/>
        <path d="M672.05 400.282C686.85 389.992 690.96 385.602 700.13 383.972C709.3 382.342 711.75 386.252 710.13 393.972C708.51 401.692 712.99 398.532 720.65 399.172C728.31 399.812 731.96 401.872 728.8 408.392C725.64 414.912 720.46 418.522 731.33 418.502C742.2 418.482 744.42 423.722 740.16 429.662C735.9 435.602 744.55 438.292 746.04 441.592C747.53 444.892 743.85 453.202 730.22 458.672C716.59 464.142 707.84 469.132 693.92 471.592C680 474.052 682.26 462.692 688.81 459.042C695.36 455.392 706.81 448.852 706.81 448.852C706.81 448.852 686.95 460.502 678.15 462.392C669.35 464.282 667.78 453.522 672.34 450.662C676.9 447.802 693.51 436.322 693.51 436.322C693.51 436.322 675.09 445.612 667.15 449.142C659.21 452.672 650 442.932 656.63 436.352C661.95 431.062 672.95 422.352 672.95 422.352C672.95 422.352 670.13 425.042 658.39 428.602C646.65 432.162 643.74 421.242 651.24 416.712C658.74 412.182 664.12 405.782 672.09 400.242" fill="#F7931E"/>
        <path d="M544.05 174.722C544.05 175.923 543.694 177.096 543.027 178.094C542.36 179.092 541.412 179.871 540.303 180.33C539.194 180.789 537.973 180.91 536.796 180.675C535.618 180.441 534.537 179.863 533.688 179.014C532.839 178.165 532.261 177.084 532.027 175.906C531.792 174.729 531.913 173.508 532.372 172.399C532.831 171.29 533.609 170.342 534.608 169.675C535.606 169.008 536.779 168.652 537.98 168.652C539.59 168.652 541.134 169.291 542.272 170.43C543.41 171.568 544.05 173.112 544.05 174.722" fill="#1F4847"/>
        <path d="M611.35 174.722C611.35 175.923 610.994 177.096 610.327 178.094C609.66 179.092 608.712 179.871 607.603 180.33C606.494 180.789 605.273 180.91 604.096 180.675C602.918 180.441 601.837 179.863 600.988 179.014C600.139 178.165 599.561 177.084 599.327 175.906C599.092 174.729 599.213 173.508 599.672 172.399C600.132 171.29 600.909 170.342 601.908 169.675C602.906 169.008 604.079 168.652 605.28 168.652C606.89 168.652 608.434 169.291 609.572 170.43C610.711 171.568 611.35 173.112 611.35 174.722" fill="#1F4847"/>
        <path d="M572.05 235.252C571.11 235.252 570.15 235.252 569.16 235.162C554.28 234.242 545.95 227.012 541.6 221.162C538.745 217.355 536.722 212.991 535.66 208.352C535.594 207.764 535.753 207.173 536.106 206.698C536.458 206.222 536.978 205.898 537.559 205.79C538.141 205.683 538.742 205.799 539.241 206.117C539.741 206.434 540.101 206.929 540.25 207.502C540.42 208.402 544.62 229.002 569.45 230.502C594.28 232.002 601.82 211.392 602.13 210.502C602.354 209.945 602.783 209.495 603.328 209.245C603.874 208.996 604.495 208.965 605.063 209.161C605.63 209.356 606.101 209.762 606.378 210.294C606.655 210.827 606.716 211.445 606.55 212.022C606.47 212.262 598.28 235.252 572.05 235.252Z" fill="#C82232"/>
        <path d="M526.25 166.122C525.857 166.123 525.473 165.999 525.154 165.769C524.835 165.54 524.596 165.215 524.472 164.842C524.348 164.468 524.345 164.066 524.463 163.69C524.581 163.315 524.815 162.987 525.13 162.752C525.53 162.462 535.03 155.592 550.13 160.962C550.367 161.04 550.586 161.165 550.775 161.329C550.963 161.493 551.116 161.693 551.226 161.917C551.336 162.141 551.399 162.385 551.413 162.635C551.427 162.884 551.391 163.134 551.307 163.369C551.223 163.604 551.092 163.82 550.923 164.004C550.754 164.187 550.55 164.336 550.323 164.439C550.096 164.543 549.85 164.6 549.601 164.608C549.351 164.615 549.103 164.572 548.87 164.482C535.68 159.772 527.48 165.692 527.4 165.752C527.079 165.991 526.69 166.121 526.29 166.122" fill="#1F4847"/>
        <path d="M615.85 166.122C615.468 166.124 615.095 166.009 614.78 165.792C604.43 158.592 596.24 165.382 595.89 165.672C595.512 165.971 595.033 166.113 594.553 166.067C594.073 166.021 593.629 165.792 593.314 165.426C592.999 165.061 592.837 164.588 592.863 164.107C592.888 163.625 593.098 163.172 593.45 162.842C593.56 162.752 604.13 153.842 616.91 162.722C617.235 162.95 617.479 163.276 617.606 163.652C617.733 164.028 617.738 164.435 617.619 164.813C617.499 165.192 617.263 165.523 616.943 165.758C616.623 165.993 616.237 166.121 615.84 166.122" fill="#1F4847"/>
        <g opacity="0.3">
            <g opacity="0.3">
                <path opacity="0.3" d="M571.95 343.382C541.89 343.382 515.07 336.382 499.71 323.382C483.36 309.562 488.62 296.632 488.85 296.082C489.118 295.553 489.576 295.145 490.133 294.94C490.69 294.736 491.304 294.751 491.85 294.983C492.397 295.214 492.835 295.644 493.076 296.186C493.317 296.728 493.344 297.341 493.15 297.902C492.97 298.352 489.15 308.352 502.72 319.812C524.72 338.372 571.72 343.982 617.22 333.472C644.36 327.192 653.91 318.042 657.14 311.472C660.14 305.332 658.14 300.472 658.08 300.472C657.851 299.913 657.847 299.288 658.069 298.726C658.29 298.164 658.721 297.71 659.269 297.458C659.818 297.206 660.443 297.176 661.014 297.375C661.584 297.573 662.056 297.984 662.33 298.522C662.46 298.802 665.33 305.362 661.33 313.572C655.99 324.442 641.5 332.682 618.27 338.052C603.08 341.57 587.542 343.361 571.95 343.392" fill="#1B264C"/>
            </g>
        </g>
        <g opacity="0.3">
            <g opacity="0.3">
                <path opacity="0.3" d="M539.55 481.132C539.074 481.13 538.609 480.982 538.219 480.709C537.829 480.436 537.531 480.051 537.366 479.604C537.201 479.157 537.176 478.67 537.294 478.209C537.413 477.748 537.67 477.334 538.03 477.022C538.38 476.722 573.13 446.772 582.68 430.682C583.024 430.212 583.532 429.887 584.103 429.771C584.674 429.655 585.268 429.757 585.768 430.056C586.269 430.354 586.639 430.829 586.808 431.387C586.977 431.945 586.931 432.546 586.68 433.072C576.74 449.812 542.51 479.322 541.06 480.562C540.637 480.925 540.097 481.124 539.54 481.122" fill="#1B264C"/>
            </g>
        </g>
        <g opacity="0.3">
            <g opacity="0.3">
                <path opacity="0.3" d="M539.85 503.832C539.34 503.829 538.846 503.66 538.442 503.35C538.037 503.04 537.745 502.607 537.609 502.116C537.473 501.625 537.502 501.103 537.689 500.629C537.877 500.156 538.214 499.757 538.65 499.492C540.9 498.112 565.47 477.672 575.38 464.492C575.56 464.233 575.79 464.013 576.057 463.845C576.324 463.677 576.622 463.564 576.933 463.515C577.245 463.465 577.563 463.478 577.869 463.555C578.175 463.631 578.462 463.768 578.714 463.959C578.966 464.149 579.176 464.388 579.333 464.662C579.49 464.935 579.59 465.238 579.627 465.551C579.664 465.864 579.637 466.182 579.548 466.484C579.459 466.787 579.31 467.069 579.11 467.312C568.66 481.202 543.36 502.132 541.05 503.532C540.687 503.749 540.272 503.863 539.85 503.862" fill="#1B264C"/>
            </g>
        </g>
        <path d="M612.35 87.14C611.889 87.1364 611.445 86.9625 611.104 86.6517C610.764 86.3409 610.55 85.9151 610.504 85.4561C610.458 84.9972 610.583 84.5374 610.856 84.1653C611.128 83.7931 611.529 83.5348 611.98 83.44C612.15 83.44 629.4 79.7 645.63 63.19C662.3 46.19 671.26 44.3 677.8 42.9L678.47 42.76C678.715 42.6929 678.971 42.6764 679.223 42.7116C679.475 42.7468 679.716 42.8329 679.934 42.9646C680.151 43.0964 680.339 43.2711 680.487 43.478C680.634 43.6849 680.738 43.9196 680.792 44.168C680.845 44.4163 680.848 44.673 680.799 44.9224C680.751 45.1718 680.651 45.4086 680.508 45.6184C680.365 45.8282 680.18 46.0066 679.966 46.1427C679.751 46.2788 679.511 46.3698 679.26 46.41L678.58 46.56C672.5 47.87 664.17 49.66 648.29 65.82C631.22 83.19 613.47 86.96 612.72 87.11C612.597 87.1224 612.473 87.1224 612.35 87.11" fill="#971B23"/>
        <path d="M643.65 175.122C645.557 172.705 648.256 171.04 651.271 170.42C654.287 169.799 657.424 170.264 660.13 171.732C666.13 174.732 666.95 187.852 658.67 196.362C650.39 204.872 647.9 202.222 647.9 202.222L643.65 175.122Z" fill="#F7931E"/>
        <path d="M610.15 130.21C602.493 130.204 594.905 128.762 587.78 125.96C587.349 125.749 587.015 125.379 586.848 124.929C586.682 124.478 586.695 123.981 586.886 123.54C587.076 123.099 587.429 122.748 587.871 122.56C588.313 122.372 588.81 122.361 589.26 122.53C589.52 122.64 615.26 133.43 636.5 118.38C646.15 111.53 653.03 104.79 659.11 98.84C666.9 91.2 673.06 85.17 681.01 83.44C681.482 83.3643 681.966 83.4725 682.361 83.7423C682.756 84.0122 683.032 84.4232 683.134 84.8908C683.235 85.3584 683.153 85.847 682.905 86.2561C682.657 86.6652 682.261 86.9636 681.8 87.09C674.91 88.59 669.38 94.01 661.73 101.51C654.609 108.778 646.896 115.441 638.67 121.43C630.325 127.279 620.35 130.351 610.16 130.21" fill="#971B23"/>
        <path d="M650.25 125.4C649.892 125.398 649.541 125.294 649.241 125.099C648.94 124.904 648.702 124.626 648.554 124.3C648.407 123.973 648.356 123.611 648.409 123.256C648.461 122.902 648.614 122.57 648.85 122.3C654.564 116.013 660.676 110.101 667.15 104.6C681.51 92.4 694.28 85.28 705.09 83.44C705.579 83.3574 706.081 83.4722 706.485 83.7592C706.889 84.0461 707.163 84.4818 707.247 84.9706C707.33 85.4593 707.216 85.9612 706.93 86.3661C706.644 86.7709 706.209 87.0457 705.72 87.13C681.4 91.28 651.96 124.45 651.66 124.78C651.485 124.979 651.269 125.138 651.028 125.246C650.787 125.355 650.525 125.411 650.26 125.41" fill="#971B23"/>
        <g opacity="0.3">
            <g opacity="0.3">
                <path opacity="0.3" d="M566.75 266.842C549.15 266.842 534.14 256.742 533.47 256.292C533 255.927 532.687 255.396 532.595 254.808C532.502 254.22 532.637 253.619 532.972 253.127C533.307 252.635 533.818 252.289 534.399 252.16C534.98 252.031 535.588 252.128 536.1 252.432C536.26 252.542 552.45 263.432 569.81 262.062C570.125 262.021 570.444 262.045 570.75 262.132C571.055 262.219 571.339 262.367 571.586 262.567C571.832 262.768 572.035 263.016 572.182 263.297C572.329 263.578 572.418 263.886 572.442 264.203C572.467 264.519 572.426 264.837 572.324 265.137C572.222 265.438 572.059 265.714 571.847 265.95C571.634 266.186 571.376 266.376 571.088 266.508C570.8 266.641 570.487 266.714 570.17 266.722C569.017 266.809 567.873 266.852 566.74 266.852" fill="#971B23"/>
            </g>
        </g>
        <path d="M565.45 206.172C563.516 206.171 561.64 205.511 560.13 204.302C558.37 202.716 557.254 200.54 556.994 198.185C556.734 195.831 557.349 193.463 558.72 191.532C561.62 187.152 567.92 179.252 568.18 178.922C568.362 178.657 568.596 178.432 568.869 178.262C569.141 178.092 569.446 177.979 569.764 177.932C570.082 177.884 570.406 177.903 570.717 177.986C571.027 178.07 571.317 178.216 571.568 178.417C571.819 178.617 572.027 178.867 572.177 179.151C572.328 179.435 572.418 179.747 572.442 180.067C572.467 180.388 572.425 180.71 572.32 181.013C572.215 181.317 572.048 181.596 571.83 181.832C571.77 181.912 565.4 189.912 562.61 194.122C560.76 196.912 561.76 199.652 563.07 200.712C564.38 201.772 566.62 202.152 568.86 199.922C571.86 196.922 578.77 188.352 578.86 188.262C579.26 187.818 579.816 187.544 580.412 187.496C581.008 187.448 581.6 187.631 582.066 188.006C582.532 188.381 582.836 188.92 582.917 189.512C582.998 190.105 582.849 190.706 582.5 191.192C582.21 191.552 575.33 200.092 572.17 203.192C571.309 204.115 570.272 204.857 569.119 205.372C567.966 205.887 566.722 206.166 565.46 206.192" fill="#C82232"/>
        <g opacity="0.4">
            <g opacity="0.4">
                <path opacity="0.4" d="M529.25 185.882C529.25 186.266 529.136 186.641 528.923 186.96C528.71 187.279 528.407 187.528 528.052 187.674C527.698 187.821 527.308 187.86 526.931 187.785C526.555 187.71 526.209 187.525 525.938 187.254C525.667 186.983 525.482 186.637 525.407 186.26C525.332 185.884 525.371 185.494 525.518 185.14C525.664 184.785 525.913 184.482 526.232 184.269C526.551 184.056 526.926 183.942 527.31 183.942C527.824 183.942 528.318 184.146 528.682 184.51C529.045 184.874 529.25 185.367 529.25 185.882" fill="#C82232"/>
            </g>
        </g>
        <g opacity="0.4">
            <g opacity="0.4">
                <path opacity="0.4" d="M533.75 192.712C533.75 193.096 533.636 193.471 533.423 193.79C533.21 194.109 532.907 194.357 532.552 194.504C532.198 194.651 531.808 194.69 531.431 194.615C531.055 194.54 530.709 194.355 530.438 194.084C530.167 193.812 529.982 193.467 529.907 193.09C529.832 192.714 529.871 192.324 530.018 191.97C530.164 191.615 530.413 191.312 530.732 191.099C531.051 190.886 531.426 190.772 531.81 190.772C532.324 190.772 532.818 190.976 533.182 191.34C533.545 191.704 533.75 192.197 533.75 192.712" fill="#C82232"/>
            </g>
        </g>
        <g opacity="0.4">
            <g opacity="0.4">
                <path opacity="0.4" d="M541.15 188.092C541.15 188.476 541.036 188.851 540.823 189.17C540.61 189.489 540.307 189.737 539.952 189.884C539.598 190.031 539.208 190.07 538.831 189.995C538.455 189.92 538.109 189.735 537.838 189.464C537.567 189.192 537.382 188.847 537.307 188.47C537.232 188.094 537.271 187.704 537.417 187.35C537.564 186.995 537.813 186.692 538.132 186.479C538.451 186.266 538.826 186.152 539.21 186.152C539.724 186.152 540.218 186.356 540.582 186.72C540.945 187.084 541.15 187.577 541.15 188.092" fill="#C82232"/>
            </g>
        </g>
        <g opacity="0.4">
            <g opacity="0.4">
                <path opacity="0.4" d="M612.05 190.142C612.05 190.526 611.936 190.901 611.723 191.22C611.51 191.539 611.207 191.787 610.852 191.934C610.498 192.081 610.108 192.12 609.732 192.045C609.355 191.97 609.01 191.785 608.738 191.514C608.467 191.242 608.282 190.897 608.207 190.52C608.132 190.144 608.171 189.754 608.318 189.4C608.465 189.045 608.713 188.742 609.032 188.529C609.351 188.316 609.726 188.202 610.11 188.202C610.625 188.202 611.118 188.406 611.482 188.77C611.846 189.134 612.05 189.627 612.05 190.142" fill="#C82232"/>
            </g>
        </g>
        <g opacity="0.4">
            <g opacity="0.4">
                <path opacity="0.4" d="M622.55 186.532C622.55 186.916 622.436 187.291 622.223 187.61C622.01 187.929 621.707 188.178 621.352 188.324C620.998 188.471 620.608 188.51 620.232 188.435C619.855 188.36 619.51 188.175 619.238 187.904C618.967 187.633 618.782 187.287 618.707 186.911C618.632 186.534 618.671 186.144 618.818 185.79C618.965 185.435 619.213 185.132 619.532 184.919C619.851 184.706 620.226 184.592 620.61 184.592C621.125 184.592 621.618 184.796 621.982 185.16C622.346 185.524 622.55 186.018 622.55 186.532" fill="#C82232"/>
            </g>
        </g>
        <g opacity="0.4">
            <g opacity="0.4">
                <path opacity="0.4" d="M620.65 195.012C620.65 195.396 620.536 195.771 620.323 196.09C620.11 196.409 619.807 196.658 619.452 196.804C619.098 196.951 618.708 196.99 618.331 196.915C617.955 196.84 617.609 196.655 617.338 196.384C617.067 196.112 616.882 195.767 616.807 195.391C616.732 195.014 616.771 194.624 616.917 194.27C617.064 193.915 617.313 193.612 617.632 193.399C617.951 193.186 618.326 193.072 618.71 193.072C619.224 193.072 619.718 193.276 620.082 193.64C620.445 194.004 620.65 194.498 620.65 195.012" fill="#C82232"/>
            </g>
        </g>
    </g>
    <defs>
        <clipPath id="clip0_2:54">
            <rect width="909.58" height="511.62" fill="white"/>
        </clipPath>
    </defs>
</svg>
