<svg width="20" height="20" viewBox="0 0 20 20" fill="none" xmlns="http://www.w3.org/2000/svg">
<path d="M19.5327 10.1873C19.5327 9.36792 19.4662 8.76998 19.3223 8.1499H9.9657V11.8482H15.4578C15.3471 12.7673 14.7492 14.1514 13.4204 15.0815L13.4018 15.2053L16.3602 17.4972L16.5652 17.5176C18.4475 15.7791 19.5327 13.2213 19.5327 10.1873Z" fill="#4285F4"/>
<path d="M9.96566 19.9312C12.6563 19.9312 14.9152 19.0453 16.5651 17.5173L13.4204 15.0812C12.5789 15.6681 11.4494 16.0777 9.96566 16.0777C7.33032 16.0777 5.0936 14.3393 4.29627 11.9365L4.1794 11.9464L1.10322 14.3271L1.06299 14.439C2.70177 17.6944 6.06795 19.9312 9.96566 19.9312Z" fill="#34A853"/>
<path d="M4.29626 11.9368C4.08588 11.3167 3.96412 10.6523 3.96412 9.96583C3.96412 9.27927 4.08588 8.61492 4.28519 7.99484L4.27962 7.86278L1.16489 5.44385L1.06298 5.49232C0.387557 6.84324 0 8.36026 0 9.96583C0 11.5714 0.387557 13.0884 1.06298 14.4393L4.29626 11.9368Z" fill="#FBBC05"/>
<path d="M9.96566 3.85336C11.837 3.85336 13.0992 4.66168 13.819 5.33718L16.6315 2.59107C14.9042 0.985496 12.6563 0 9.96566 0C6.06795 0 2.70177 2.23672 1.06299 5.49214L4.2852 7.99466C5.0936 5.59183 7.33032 3.85336 9.96566 3.85336Z" fill="#EB4335"/>
</svg>
