<svg width="78" height="75" viewBox="0 0 78 75" fill="none" xmlns="http://www.w3.org/2000/svg"><path d="M16.7136 36.7762C16.7136 36.7762 20.4393 55.8873 29.0952 66.0196C37.751 76.152 58.7667 78.4483 66.8021 66.0196C74.8376 53.5909 71.4384 31.0298 69.5846 25.4648C67.7309 19.8999 65.2567 15.5756 65.2567 15.5756L30.6406 22.9943C30.6406 22.9943 19.8226 28.2473 18.2772 29.176C16.7318 30.1048 16.7136 36.7762 16.7136 36.7762Z" fill="#FFCB57"/><path d="M20.9611 47.8626C20.9611 47.8626 16.6259 47.2387 16.713 51.4904C16.7964 55.4846 19.6007 56.9828 21.7773 57.5234C23.9504 58.0675 24.8827 57.5234 24.8827 57.5234L20.9611 47.8626Z" fill="#FFCB57"/><path d="M71.249 37.6469C71.249 37.6469 73.0411 35.7133 75.4971 36.6638C78.0293 37.6433 77.7826 40.2553 76.7233 43.0704C75.3629 46.6728 71.2526 48.0658 71.2526 48.0658V37.6469H71.249Z" fill="#FFCB57"/><g  fill="#1E4847"><path d="M47.2804 56.4424C47.099 56.4424 46.9467 56.417 46.8306 56.3916C45.5826 56.0905 44.7845 54.643 44.799 52.7022C44.8135 50.482 45.6189 47.0936 45.6515 46.9521L46.7109 47.2061C46.7036 47.2387 45.8982 50.6162 45.8874 52.7094C45.8765 54.3093 46.5041 55.1908 47.0881 55.3323C47.7194 55.4883 48.4848 54.8462 49.0798 53.6671C50.1826 51.4905 50.9336 48.0477 50.9408 48.0151L52.0038 48.2436C51.9711 48.3887 51.2165 51.8533 50.052 54.1569C49.0798 56.0796 47.9733 56.4424 47.2804 56.4424Z"/><path d="M32.9653 54.8607C29.6169 54.8607 27.2625 53.279 25.9384 50.1337C25.0931 48.1203 25.0495 46.2302 25.8114 44.5179C26.6385 42.6569 28.4415 41.0861 30.6363 40.3206C35.824 38.5031 40.522 40.0776 42.3213 44.235C43.0469 45.9146 42.9526 47.8772 42.0493 49.7564C40.9936 51.9548 38.9983 53.6889 36.8398 54.2839C35.4286 54.672 34.1371 54.8643 32.9653 54.8643V54.8607ZM30.9955 41.3473C29.08 42.0184 27.5128 43.3679 26.8054 44.9605C26.1705 46.3899 26.2177 47.9897 26.9432 49.7129C28.5286 53.4785 31.5795 54.5959 36.5532 53.2318C38.4142 52.7203 40.1447 51.2075 41.0698 49.2848C41.8352 47.6922 41.9223 46.0525 41.3237 44.6667C39.7638 41.0643 35.6172 39.7329 30.9991 41.3509L30.9955 41.3473Z"/><path d="M61.2871 49.7201C59.8106 49.7201 58.4429 49.3936 57.2784 48.7443C55.8201 47.9317 54.797 46.6474 54.3907 45.1238C53.3786 41.311 55.1272 37.5817 58.7477 35.844C61.2037 34.6649 63.3985 34.4364 65.2776 35.1656C67.7373 36.1197 68.909 38.4668 69.2972 39.4318C70.0917 41.4017 70.0409 43.6763 69.1594 45.5192C68.3105 47.2895 66.7541 48.5629 64.6573 49.1977C63.5 49.5496 62.3646 49.7238 61.2871 49.7238V49.7201ZM59.2193 36.8234C55.6024 38.5611 54.7172 42.1018 55.4428 44.8444C55.7765 46.096 56.5928 47.1154 57.8081 47.7938C59.5603 48.7697 61.8821 48.9003 64.3417 48.153C66.1374 47.6088 67.4652 46.535 68.1762 45.0476C68.9163 43.4985 68.9598 41.5033 68.2887 39.8381C67.9513 39.0037 66.9464 36.9794 64.8822 36.1813C63.2933 35.5646 61.3887 35.7823 59.2157 36.8271L59.2193 36.8234Z"/><path d="M42.2705 43.981L41.3708 43.3679C41.4615 43.2337 43.6527 40.0812 47.3276 39.4391C51.3798 38.7316 54.8335 41.2638 54.9786 41.3727L54.3292 42.2469C54.2966 42.2252 51.0933 39.8925 47.5126 40.5129C44.2839 41.0752 42.285 43.9556 42.2669 43.9846L42.2705 43.981Z"/><path d="M47.4726 65.8709C43.7505 65.8709 40.9463 64.8261 39.0888 63.7958C36.3644 62.2867 35.0403 60.5127 34.9858 60.4365L35.8638 59.7908C35.8638 59.7908 37.1298 61.4777 39.6657 62.8707C41.9983 64.1513 45.9381 65.4537 51.4377 64.3871C61.4685 62.439 63.8338 53.6345 63.8556 53.5438L64.9113 53.8122C64.8859 53.9065 62.3718 63.3714 51.6445 65.4537C50.1463 65.7439 48.7532 65.8673 47.4726 65.8673V65.8709Z"/><path d="M35.1128 49.8906C36.2508 49.8906 37.1734 48.9681 37.1734 47.83C37.1734 46.692 36.2508 45.7695 35.1128 45.7695C33.9748 45.7695 33.0522 46.692 33.0522 47.83C33.0522 48.9681 33.9748 49.8906 35.1128 49.8906Z"/><path d="M60.3694 44.9822C61.5074 44.9822 62.43 44.0597 62.43 42.9217C62.43 41.7836 61.5074 40.8611 60.3694 40.8611C59.2314 40.8611 58.3088 41.7836 58.3088 42.9217C58.3088 44.0597 59.2314 44.9822 60.3694 44.9822Z"/></g><g fill="#576295"><path d="M34.6486 64.8588H33.9231V67.4962H34.6486V64.8588Z"/><path d="M31.1623 59.7726H30.4368V63.5491H31.1623V59.7726Z"/><path d="M38.9748 66.7822L38.2573 66.8902L38.7087 69.8892L39.4262 69.7812L38.9748 66.7822Z"/><path d="M44.3707 68.5267L43.6501 68.6115L44.077 72.2396L44.7976 72.1548L44.3707 68.5267Z"/><path d="M49.4818 68.7351L48.7839 68.9335L49.9059 72.8801L50.6038 72.6817L49.4818 68.7351Z"/><path d="M54.1343 67.3577L53.4609 67.6279L55.0447 71.5737L55.7181 71.3034L54.1343 67.3577Z"/><path d="M59.0673 66.0608L58.3496 66.1674L58.9829 70.4304L59.7006 70.3238L59.0673 66.0608Z"/><path d="M62.7663 63.1229L62.0715 63.332L63.2174 67.1393L63.9122 66.9302L62.7663 63.1229Z"/><path d="M65.8767 58.5573L65.1567 58.6469L65.6076 62.2721L66.3276 62.1825L65.8767 58.5573Z"/><path d="M67.9157 53.8774L67.1907 53.9046L67.3359 57.7727L68.0609 57.7455L67.9157 53.8774Z"/><path d="M43.0979 57.6496L42.4097 57.8793L43.4883 61.1105L44.1765 60.8808L43.0979 57.6496Z"/><path d="M48.7516 58.4941L48.0562 58.7009L48.8957 61.5245L49.5912 61.3177L48.7516 58.4941Z"/><path d="M53.0431 56.3338L52.3257 56.442L52.8717 60.0651L53.5891 59.957L53.0431 56.3338Z"/><path d="M57.4839 53.9658L56.759 53.9976L56.9095 57.4298L57.6343 57.398L57.4839 53.9658Z"/></g><path d="M18.846 35.5754C18.846 35.5754 14.3076 43.6291 15.8567 45.7658C17.4058 47.9062 21.701 44.0753 23.504 41.7644C24.4146 40.5926 27.792 34.7737 27.792 34.7737C27.792 34.7737 25.2127 41.4778 28.4813 40.5346C31.7499 39.5914 38.766 31.1604 38.766 31.1604C38.766 31.1604 39.1506 35.5174 40.8701 35.5754C42.5897 35.6335 49.9033 27.373 49.9033 27.373" fill="#C82232"/><path d="M65.1001 20.6509C65.1001 20.6509 67.5416 25.1094 68.6698 29.8509C69.1342 31.7954 70.2769 37.364 71.3108 37.5018C72.3447 37.6397 73.1501 32.2525 71.9094 27.0901C70.9263 23.0053 68.746 19.1671 68.746 19.1671L65.1037 20.6545L65.1001 20.6509Z" fill="#C82232"/><path d="M70.3275 20.2735L68.5499 15.728C68.5499 15.728 68.1545 7.22811 64.3998 3.07795C60.645 -1.07221 54.7136 0.114065 45.6225 4.26423C36.5313 8.41439 17.5073 20.981 14.148 22.5627C10.7887 24.1444 9.65317 27.3912 10.8358 29.7601C12.0221 32.1327 15.0767 34.1098 15.0767 34.1098C15.0767 34.1098 2.33597 39.7909 0.950164 40.4113C-0.432014 41.028 1.54149 42.6822 6.09071 41.6592C10.6363 40.6362 37.3185 32.5318 39.8906 31.7409C42.4627 30.9501 70.3275 20.2772 70.3275 20.2772V20.2735Z" fill="#971B23"/><path d="M16.7129 35.1583C16.4807 35.1583 16.2667 35.0095 16.1941 34.7773C16.1034 34.4907 16.2631 34.186 16.5497 34.0953C16.829 34.0083 44.5197 25.2508 55.5916 19.7185C55.8601 19.5843 56.1866 19.6931 56.3208 19.9616C56.4551 20.23 56.3462 20.5565 56.0778 20.6907C44.9296 26.263 17.1555 35.0458 16.8762 35.1329C16.8217 35.151 16.7673 35.1583 16.7129 35.1583Z" fill="#FF862C"/></svg>
