<svg xmlns="http://www.w3.org/2000/svg" width="17" height="16" viewBox="0 0 17 16">
  <path fill="#B6B6B6" d="M5.22217,15.9878 C5.06599,15.9954 4.86775,15.9426 4.74007,15.7754 C4.64783,15.6547 1.60543,11.6578 1.5153,11.5333 C1.25595,11.1779 1.2161,10.8737 1.29089,10.6328 C1.40411,10.2661 2.121,6.27003 0.67741,2.18653 C0.5224,1.75027 2.11982,1.34371 2.61896,2.56777 C2.961,3.40658 3.39348,6.09035 3.79045,6.27358 C4.09711,6.41498 5.40082,6.0043 7.21304,4.15333 L10.8558,0.43114 C11.2015,0.0778 11.7681,0.10238 12.1212,0.48342 C12.4747,0.86529 12.4811,1.46244 12.1347,1.81409 C12.1347,1.81409 9.2667,4.74447 8.9562,5.06282 C8.6458,5.37917 8.5847,5.63806 8.7523,5.82439 C8.9007,5.99097 9.0381,5.98214 9.3566,5.71464 L13.3849,2.06035 C13.7496,1.72878 14.3147,1.78546 14.6484,2.18621 C14.9832,2.58749 14.9574,3.18203 14.5921,3.51191 L10.7617,6.98715 C10.4252,7.2935 10.2805,7.5314 10.4753,7.7351 C10.592,7.8576 10.7959,7.7627 10.9614,7.65 L14.7863,4.74722 C15.1786,4.44963 15.7401,4.55593 16.0425,4.98321 C16.3441,5.41081 16.2722,5.99563 15.8803,6.29406 L12.3557,8.9701 C11.8373,9.3624 11.6858,9.5904 11.8439,9.814 C12.004,10.0427 12.1922,9.9522 12.3375,9.8526 C12.6777,9.6205 15.435,7.7322 15.435,7.7322 C15.8039,7.4805 16.3108,7.6012 16.5684,8.0015 C16.8256,8.401 16.7364,8.93 16.3688,9.1802 L12.9967,11.4873 L12.9963,11.4884 C12.9963,11.4884 12.9963,11.4884 12.9955,11.4888 L10.9733,12.8718 C10.5975,13.147 10.2523,13.4274 9.9293,13.7399 C8.0346,15.5793 5.74026,15.9584 5.22217,15.9878 Z"/>
</svg>
