<svg xmlns="http://www.w3.org/2000/svg" width="11" height="17" viewBox="0 0 11 17">
  <path fill="#B6B6B6" d="M9.37764,1.16455 C8.2967,0.388185 6.93888,0 5.3042,0 C4.06112,0 3.01146,0.272957 2.15904,0.819816 C0.805965,1.67552 0.0872337,3.12909 -1.80854e-07,5.17863 L3.13568,5.17863 C3.13568,4.58077 3.31109,4.00747 3.66003,3.45211 C4.00991,2.89864 4.60348,2.6219 5.44074,2.6219 C6.29222,2.6219 6.87915,2.84669 7.19869,3.29532 C7.52013,3.74584 7.68037,4.24359 7.68037,4.7895 C7.68037,5.26552 7.44143,5.70093 7.15223,6.09573 C6.99388,6.32619 6.78528,6.5387 6.52547,6.73232 C6.52547,6.73232 4.82536,7.81848 4.07913,8.69118 C3.64675,9.19649 3.60788,9.95491 3.569,11.0411 C3.56711,11.1185 3.5965,11.2791 3.86768,11.2791 C4.13982,11.2791 6.0637,11.2791 6.30549,11.2791 C6.54823,11.2791 6.59848,11.1006 6.60133,11.0203 C6.61839,10.6255 6.66201,10.4224 6.73502,10.1939 C6.87156,9.76224 7.24515,9.38633 7.6633,9.06142 L8.52616,8.46923 C9.30558,7.86381 9.92664,7.36796 10.2016,6.97883 C10.67,6.34035 10.9999998,5.55265 10.9999998,4.61761 C10.9991,3.09226 10.4586,1.94281 9.37764,1.16455 Z M5.25394,13.1511 C4.17395,13.118 3.28265,13.8632 3.24851,15.0306 C3.21533,16.1961 4.06206,16.9677 5.143,16.9989 C6.27041,17.032 7.13801,16.3123 7.17309,15.1449 C7.20533,13.9775 6.3823,13.1841 5.25394,13.1511 Z"/>
</svg>
