<svg xmlns="http://www.w3.org/2000/svg" width="298" height="33" viewBox="0 0 298 33">
  <g fill="#D3D9E5">
    <path d="M174.565 21.5635C171.986 21.5635 169.429 20.8064 167.993 19.7846 164.921 17.5974 160.58 17.3673 157.437 19.2254 153.878 21.3284 150.557 21.1503 146.985 18.6588 143.886 16.4964 140.477 16.4989 136.855 18.6662 132.953 21.0018 128.182 20.742 124.703 18.0081 122.902 16.5929 121.91 14.6532 121.904984 12.5452 121.9 10.2813 123.048 8.01503 124.978 6.48353 129.345 3.01725 135.488 3.45517 139.049 5.62747 140.682 6.62208 142.752 7.53752 146.684 5.80561 150.107 4.29638 153.985 2.58674 157.921 5.62252 161.687 8.52718 164.682 8.99479 167.636 7.14165 172.57 4.04154 176.813 2.95044 181.486 7.70328 182.936 9.17788 183.656 11.219 183.513 13.4532 183.35 15.9793 182.092 18.3966 180.148 19.9157 178.635 21.0934 176.594 21.5635 174.565 21.5635zM162.193 16.9888C164.434 16.9888 166.701 17.6593 168.55 18.973 170.91 20.653 176.572 21.4571 179.557 19.1264 181.282 17.778 182.398 15.6329 182.542 13.3864 182.666 11.4417 182.048 9.67271 180.798 8.40099 176.562 4.0935 172.815 5.04605 168.147 7.98039 164.848 10.0537 161.412 9.55395 157.335 6.4093 154.102 3.91536 151.043 4.96193 147.073 6.71115 142.925 8.53955 140.526 7.67854 138.553 6.47363 135.269 4.46957 129.605 4.06629 125.581 7.26041 123.888 8.60635 122.878 10.5782 122.882982 12.5402 122.885 13.812 123.309 15.6552 125.304 17.2238 128.466 19.7103 132.809 19.9404 136.366 17.8127 140.341 15.4325 144.102 15.4424 147.54 17.8423 150.764 20.0913 153.756 20.2596 156.95 18.3693 158.51 17.444 160.342 16.9888 162.193 16.9888zM31.3331 25.1974C28.6472 25.1974 25.9564 24.2276 23.8641 22.8049 20.536 20.546 19.5336 19.8632 13.4003 21.3947 10.0137 22.2408 7.65871 22.4116 5.76593 21.9514 3.72231 21.4541 2.24069 20.2145 1.09723 18.0496.160573 16.2732-.03162 14.2667.554704 12.4011 1.1021 10.6593 2.29422 9.17485 3.8245 8.32869 7.82902 6.1168 10.3276 6.97533 13.4879 8.06148 13.8066 8.17034 14.1326 8.28416 14.4708 8.39549 18.1663 9.62762 20.8839 8.92496 24.9006 7.09904 29.3016 5.09745 32.2211 5.4562 38.4833 8.77156 41.179 10.1991 43.4586 9.32825 45.8696 8.40291 47.9448 7.60871 50.0882 6.78729 52.6184 7.33656 55.494 7.96252 57.5279 9.75627 58.3429 12.3888 59.1361 14.9545 58.5473 17.9037 56.8759 19.7271 54.0635 22.795 51.1513 22.3447 46.2467 21.2809 41.9429 20.3481 41.1692 20.1799 37.2888 23.2082 35.4933 24.616 33.4132 25.1974 31.3331 25.1974zM18.4291 19.5094C20.7403 19.5094 22.1246 20.3456 24.4456 21.9217 27.8468 24.2325 32.9412 25.2667 36.6514 22.367 40.7702 19.1481 41.8845 19.2471 46.4656 20.2417 51.509 21.3353 53.7934 21.5308 56.1096 19.0046 57.5328 17.4534 58.0291 14.9248 57.343 12.7129 56.6472 10.4614 54.8907 8.92249 52.3994 8.38065 50.1709 7.89571 48.2611 8.62806 46.2393 9.40247 43.7189 10.3674 41.1133 11.3669 38.0016 9.71916 32.0216 6.55472 29.416 6.21577 25.3312 8.07385 21.0688 10.0136 18.1688 10.7509 14.1472 9.41237 13.8066 9.29856 13.4757 9.18475 13.157 9.07588 10.0113 7.99468 7.9312 7.27965 4.3281 9.26887 1.84169 10.642.255455 14.1998 2.02416 17.5523 3.94857 21.2017 6.86073 21.9365 13.1522 20.3654 15.4561 19.7865 17.0983 19.5094 18.4291 19.5094z"/>
    <path d="M76.4656 14.7094C74.9523 14.7094 73.6434 14.0587 72.371 13.4253 70.6145 12.5519 69.0988 11.7973 67.1744 12.6756 63.3791 14.4051 60.1336 15.2092 56.6278 13.5045 53.577 12.02 52.2049 12.3317 49.6309 13.1185L49.2951 13.2224C46.7382 14.0067 44.5315 14.6846 41.6559 12.4777 39.6634 10.9487 38.7389 7.47252 40.5951 4.93158 42.9599 1.69293 45.2444 1.91808 49.8936 3.2071 53.6135 4.23882 54.684 3.51637 56.6278 2.20508 56.91 2.01457 57.2093 1.81169 57.5329 1.60386 59.7882.156488 62.8098-1.14738 66.1988 1.64097 69.0063 3.95182 69.9673 4.2883 73.0644 4.02357 73.332 4.0013 73.5923 3.97656 73.8453 3.95429 76.7478 3.69451 78.8473 3.50647 80.8399 5.37445 82.0393 6.49771 82.4699 8.57599 81.9128 10.5479 81.3021 12.7127 79.6794 14.1972 77.4606 14.6203 77.12 14.6797 76.7891 14.7094 76.4656 14.7094zM68.8871 11.2184C70.3201 11.2184 71.5925 11.8517 72.8333 12.4703 74.2857 13.1927 75.6578 13.8781 77.2684 13.5688 79.0833 13.2224 80.4093 12.0126 80.9056 10.251 81.3484 8.68237 81.0296 6.99749 80.1295 6.15628 78.4751 4.60747 76.7672 4.76086 73.9354 5.0157 73.6799 5.03797 73.4172 5.06271 73.1471 5.08497 69.7654 5.37197 68.5587 4.95632 65.537 2.46733 62.6833.116902 60.1701 1.16594 58.09 2.50445 57.7737 2.70733 57.4818 2.90526 57.2044 3.09329 55.1511 4.47881 53.796 5.39424 49.6163 4.23634 45.1738 3.00422 43.4416 2.81866 41.4345 5.56743 39.9431 7.61107 40.6852 10.4019 42.286 11.6291 44.7359 13.5094 46.4292 12.9899 48.9934 12.2031L49.3316 12.0992C52.2511 11.2085 53.8665 10.9809 57.0828 12.5445 59.8076 13.8706 62.5178 13.6356 66.7486 11.7058 67.5053 11.3569 68.2132 11.2184 68.8871 11.2184zM262.886 28.0489C261.479 28.0489 260.263 27.4452 259.08 26.8564 257.448 26.0449 256.039 25.3422 254.249 26.1587 250.721 27.7669 247.704 28.5116 244.447 26.9281 241.61 25.5476 240.335 25.837 237.944 26.5694L237.63 26.6659C235.253 27.3958 233.202 28.0267 230.528 25.9756 228.677 24.5554 227.818 21.3242 229.543 18.9614 231.74 15.9503 233.864 16.1606 238.184 17.3581 241.642 18.3181 242.637 17.6451 244.444 16.4278 244.707 16.2497 244.984 16.0617 245.286 15.8687 247.381 14.5227 250.191 13.3104 253.341 15.9033 255.952 18.0509 256.845 18.3602 259.723 18.1177 259.971 18.0979 260.214 18.0756 260.448 18.0534 263.146 17.8109 265.097 17.6352 266.951 19.3721 268.065 20.4162 268.467 22.3485 267.948 24.1794 267.382 26.1908 265.873 27.5714 263.81 27.9623 263.494 28.0217 263.185 28.0489 262.886 28.0489zM255.842 24.8053C257.176 24.8053 258.355 25.3942 259.511 25.9682 260.861 26.6411 262.136 27.2745 263.635 26.99 265.321 26.6684 266.554 25.5451 267.017 23.9047 267.428 22.4475 267.131 20.8813 266.296 20.097 264.759 18.6571 263.17 18.8006 260.54 19.0356 260.304 19.0579 260.061 19.0777 259.81 19.0999 256.67 19.3671 255.546 18.9787 252.738 16.6678 250.084 14.4832 247.751 15.458 245.816 16.7025 245.522 16.8905 245.25 17.0736 244.994 17.2493 243.087 18.5383 241.827 19.3894 237.941 18.3107 233.813 17.1651 232.202 16.992 230.336 19.5478 228.949 21.4479 229.64 24.0408 231.127 25.1814 233.404 26.9306 234.978 26.4457 237.36 25.7158L237.674 25.6193C240.389 24.7929 241.89 24.5802 244.877 26.035 247.41 27.2671 249.928 27.0494 253.862 25.2556 254.558 24.934 255.215 24.8053 255.842 24.8053z"/>
    <path d="M291.749 23.2341C290.143 23.2341 288.752 22.5414 287.397 21.8684 285.579 20.9629 283.864 20.1093 281.772 21.0643 277.729 22.9075 274.271 23.7636 270.547 21.9501 267.255 20.3493 265.776 20.6858 263.002 21.5319L262.642 21.6433C259.925 22.4771 257.577 23.1995 254.531 20.859 252.427 19.2433 251.449 15.5717 253.409 12.8848 255.913 9.45316 258.341 9.69562 263.284 11.0663 267.797 12.3182 268.661 11.7615 271.233 10.1063L271.413 9.99005C273.804 8.4536 277.013 7.06808 280.604 10.0247 283.421 12.343 284.516 12.2489 287.774 11.9694L288.114 11.9397C288.402 11.9149 288.681 11.8902 288.951 11.8654 292.041 11.5883 294.272 11.3879 296.381 13.3648 297.644 14.5474 298.097 16.742 297.508 18.8252 296.861 21.1138 295.146 22.6824 292.8 23.1302 292.438 23.2044 292.09 23.2341 291.749 23.2341zM283.633 19.6491C285.154 19.6491 286.506 20.3221 287.827 20.9802 289.394 21.7595 290.873 22.4968 292.623 22.1628 294.593 21.7868 296.034 20.473 296.574 18.558 297.055 16.8533 296.705 15.0175 295.722 14.0971 293.929 12.4172 291.983 12.5928 289.037 12.8551 288.764 12.8798 288.484 12.9046 288.195 12.9293L287.854 12.959C284.599 13.2386 283.112 13.3648 279.991 10.7966 277.531 8.77277 275.123 8.78266 271.933 10.8313L271.756 10.9451C269.07 12.672 267.956 13.387 263.031 12.0213 258.338 10.7199 256.361 10.5071 254.195 13.4736 252.573 15.6954 253.38 18.7312 255.122 20.0672 257.776 22.1035 259.701 21.5121 262.367 20.6932L262.73 20.5819C265.837 19.6343 267.554 19.3918 270.972 21.0544 273.911 22.4845 276.828 22.2321 281.38 20.1588 282.173 19.7976 282.923 19.6491 283.633 19.6491zM95.871 23.17C96.2821 22.987 97.1312 22.7098 97.737 22.5193 97.6981 22.1977 97.6421 21.8563 97.428 21.4777 96.5497 19.9264 94.0244 19.0382 94.0244 19.0382 94.0244 19.0382 94.0244 19.0382 96.2311 18.6572 97.8684 18.3751 99.0021 18.8155 100.243 19.7087 100.749 19.152 101.724 18.0733 102.651 17.0465 103.474 16.1336 105.06 15.9901 106.24 16.1632 108.819 16.5393 112.356 17.5092 112.891 17.6725 113.672 17.91 113.276 18.7092 112.702 18.6745 112.125 18.6399 108.493 18.3553 107.67 18.5285 106.848 18.7017 105.829 20.0006 105.354 21.1338 104.985 22.0196 104.668 23.0241 104.5 23.3952 104.544 23.3977 104.588 23.4051 104.632 23.4175L108.298 24.4789C108.627 24.5729 108.816 24.9242 108.724 25.2557 108.631 25.5898 108.286 25.7827 107.96 25.6887L105.335 24.9292 105.33 24.9415 107.853 26.4235C108.147 26.5967 108.249 26.9827 108.079 27.2821 107.909 27.5814 107.529 27.6854 107.235 27.5122L104.513 25.9139 106.009 27.7942C106.223 28.0639 106.182 28.4622 105.916 28.68 105.651 28.8977 105.259 28.8556 105.045 28.586L102.647 25.5724C102.622 25.5403 102.6 25.5056 102.581 25.471 102.437 25.4438 102.301 25.4166 102.172 25.3894 101.503 25.5724 100.564 25.8322 100.231 25.9485 99.2502 26.285 98.4547 26.5893 97.7127 28.1728 97.2723 29.1105 96.9025 29.8676 96.5376 31.8197 96.3454 32.8489 95.5255 32.7029 95.3236 31.7727 95.0851 30.6791 94.7932 27.913 94.6302 26.2405 94.5013 24.9094 94.7178 23.6871 95.871 23.17z"/>
  </g>
</svg>
