<svg xmlns="http://www.w3.org/2000/svg" viewBox="0 0 134 131">
  <g fill="none">
    <path fill="#D3D9E5" d="M84.4137,29.2241 C84.3756,29.2241 84.3375,29.2177 84.2994,29.2028 L83.1113,28.7473 C82.9482,28.6834 82.8656,28.5003 82.927,28.3343 C82.9906,28.1704 83.1727,28.0873 83.3379,28.1491 L84.526,28.6046 C84.6891,28.6685 84.7716,28.8516 84.7102,29.0176 C84.6615,29.1454 84.5408,29.2241 84.4137,29.2241 Z M114.592,40.8027 C114.554,40.8027 114.516,40.7963 114.478,40.7814 L111.962,39.817 C111.799,39.7532 111.716,39.5701 111.778,39.4041 C111.839,39.2401 112.024,39.1571 112.189,39.2188 L114.705,40.1832 C114.868,40.2471 114.95,40.4301 114.889,40.5962 C114.84,40.7239 114.72,40.8027 114.592,40.8027 Z M109.563,38.8719 C109.525,38.8719 109.486,38.8655 109.448,38.8506 L106.932,37.8862 C106.769,37.8224 106.687,37.6393 106.748,37.4732 C106.81,37.3093 106.994,37.2263 107.159,37.288 L109.675,38.2524 C109.838,38.3162 109.921,38.4993 109.859,38.6654 C109.81,38.7931 109.69,38.8719 109.563,38.8719 Z M104.533,36.9432 C104.495,36.9432 104.457,36.9368 104.419,36.9219 L101.903,35.9575 C101.74,35.8937 101.657,35.7106 101.718,35.5445 C101.78,35.3806 101.964,35.2976 102.129,35.3593 L104.645,36.3237 C104.808,36.3875 104.891,36.5706 104.829,36.7367 C104.781,36.8644 104.66,36.9432 104.533,36.9432 Z M99.5031,35.0123 C99.465,35.0123 99.4269,35.006 99.3887,34.9911 L96.8728,34.0267 C96.7097,33.9628 96.6271,33.7798 96.6885,33.6137 C96.75,33.4498 96.9342,33.3668 97.0994,33.4285 L99.6153,34.3929 C99.7784,34.4567 99.861,34.6398 99.7996,34.8058 C99.7509,34.9336 99.6302,35.0123 99.5031,35.0123 Z M94.4733,33.0836 C94.4352,33.0836 94.3971,33.0773 94.3589,33.0624 L91.843,32.098 C91.6799,32.0341 91.5973,31.8511 91.6587,31.685 C91.7202,31.5211 91.9044,31.4381 92.0696,31.4998 L94.5856,32.4642 C94.7486,32.528 94.8312,32.7111 94.7698,32.8772 C94.7211,33.0049 94.6004,33.0836 94.4733,33.0836 Z M89.4435,31.1528 C89.4054,31.1528 89.3673,31.1464 89.3292,31.1315 L86.8132,30.1672 C86.6501,30.1033 86.5675,29.9203 86.629,29.7542 C86.6904,29.5903 86.8746,29.5073 87.0398,29.569 L89.5558,30.5333 C89.7188,30.5972 89.8014,30.7803 89.74,30.9463 C89.6913,31.0762 89.5706,31.1528 89.4435,31.1528 Z M117.674,43.336 C117.621,43.336 117.568,43.3232 117.519,43.2956 C117.367,43.2104 117.312,43.0146 117.396,42.8613 L117.837,42.0694 L116.994,41.7458 C116.831,41.6819 116.748,41.4989 116.81,41.3328 C116.873,41.1689 117.056,41.0859 117.221,41.1476 L118.409,41.6032 C118.496,41.6372 118.563,41.7054 118.595,41.7926 C118.627,41.8799 118.618,41.9757 118.574,42.0566 L117.953,43.17 C117.892,43.2785 117.784,43.336 117.674,43.336 Z M107.405,61.7649 C107.352,61.7649 107.299,61.7522 107.25,61.7245 C107.098,61.6393 107.042,61.4435 107.127,61.2902 L108.411,58.9868 C108.495,58.8314 108.69,58.7782 108.843,58.8634 C108.995,58.9485 109.05,59.1444 108.965,59.2976 L107.682,61.601 C107.623,61.7053 107.515,61.7649 107.405,61.7649 Z M109.971,57.1582 C109.918,57.1582 109.865,57.1454 109.817,57.1178 C109.664,57.0326 109.609,56.8368 109.694,56.6835 L110.977,54.3801 C111.062,54.2268 111.257,54.1715 111.409,54.2567 C111.562,54.3418 111.617,54.5377 111.532,54.6909 L110.249,56.9943 C110.19,57.0986 110.082,57.1582 109.971,57.1582 Z M112.538,52.5515 C112.485,52.5515 112.432,52.5387 112.384,52.511 C112.231,52.4259 112.176,52.23 112.261,52.0768 L113.544,49.7734 C113.629,49.6201 113.824,49.5648 113.976,49.6499 C114.129,49.7351 114.184,49.9309 114.099,50.0842 L112.816,52.3876 C112.758,52.4919 112.65,52.5515 112.538,52.5515 Z M115.107,47.9426 C115.054,47.9426 115.001,47.9299 114.952,47.9022 C114.8,47.817 114.745,47.6212 114.83,47.4679 L116.113,45.1645 C116.198,45.0113 116.393,44.9559 116.545,45.0411 C116.698,45.1262 116.753,45.3221 116.668,45.4754 L115.384,47.7787 C115.325,47.8852 115.217,47.9426 115.107,47.9426 Z M100.363,74.3973 C100.31,74.3973 100.257,74.3845 100.208,74.3568 C100.056,74.2717 100.001,74.0758 100.085,73.9226 L100.706,72.8092 C100.793,72.6559 100.986,72.6006 101.138,72.6857 C101.291,72.7709 101.346,72.9667 101.261,73.12 L100.64,74.2334 C100.583,74.3398 100.475,74.3973 100.363,74.3973 Z M43.6733,24.2386 C43.6564,24.2386 43.6415,24.2386 43.6246,24.2386 C41.1404,24.2131 39.1412,22.1609 39.1687,19.6638 C39.1942,17.1838 41.2103,15.1848 43.6712,15.1848 C43.6881,15.1848 43.703,15.1848 43.7199,15.1848 C44.9228,15.1976 46.0495,15.6808 46.8903,16.5451 C47.731,17.4094 48.1885,18.5504 48.1758,19.7596 C48.1631,20.9688 47.6823,22.1013 46.8225,22.9464 C45.9754,23.7809 44.8593,24.2386 43.6733,24.2386 Z M39.8041,19.6702 C39.7808,21.8139 41.4983,23.5765 43.631,23.6 C43.6458,23.6 43.6585,23.6 43.6733,23.6 C44.692,23.6 45.6513,23.2061 46.3778,22.4909 C47.1169,21.7649 47.5277,20.7921 47.5404,19.7532 C47.551,18.7144 47.1592,17.733 46.4371,16.9922 C45.7149,16.2492 44.747,15.8362 43.7136,15.8234958 C43.7008,15.8234958 43.686,15.8234958 43.6712,15.8234958 C41.5576,15.8213 39.8274,17.5393 39.8041,19.6702 Z"/>
    <path fill="#D3D9E5" d="M36.043,20.228 C35.954,20.228 35.8715,20.1918 35.81,20.1258 L29.9416,13.8075 C29.8548,13.7138 29.8315,13.5776 29.8823,13.4605 C29.9331,13.3434 30.0411,13.271 30.1767,13.2689 L39.1837,13.3647 C39.2811,13.3647 39.3722,13.4115 39.4315,13.4903 L43.9996,19.4829 C44.0716,19.5787 44.0864,19.7064 44.0335,19.815 C43.9827,19.9236 43.8746,19.9938 43.7561,19.9981 L36.0494,20.228 C36.0494,20.228 36.0472,20.228 36.043,20.228 Z M30.9137,13.9161 L36.1764,19.5851 L43.1207,19.3786 L39.0249,14.0034 L30.9137,13.9161 Z"/>
    <path fill="#D3D9E5" d="M36.0431,20.2279 C35.9944,20.2279 35.9457,20.2172 35.8991,20.1917 C35.7424,20.1108 35.681,19.9192 35.7615,19.7617 L38.9212,13.5775 C39.0017,13.42 39.1923,13.3582 39.349,13.4391 C39.5057,13.52 39.5672,13.7116 39.4867,13.8691 L36.3269,20.0533 C36.2697,20.164 36.1575,20.2279 36.0431,20.2279 Z"/>
    <path fill="#D3D9E5" d="M36.1044,21.6244 C36.098,21.6244 36.0917,21.6244 36.0874,21.6244 C35.6385,21.6201 35.2191,21.4392 34.9057,21.1177 C34.5923,20.7963 34.4228,20.3705 34.4271,19.9192 C34.4313,19.4679 34.6113,19.0464 34.9311,18.7314 C35.2467,18.4205 35.6639,18.2502 36.1044,18.2502 C36.1107,18.2502 36.1171,18.2502 36.1213,18.2502 C36.5703,18.2545 36.9896,18.4354 37.3031,18.7569 C37.6165,19.0783 37.7859,19.5041 37.7817,19.9554 C37.7775,20.4067 37.5974,20.8282 37.2777,21.1433 C36.9621,21.4541 36.547,21.6244 36.1044,21.6244 Z M36.1044,18.8889 C35.8291,18.8889 35.5707,18.9953 35.3759,19.189 C35.1768,19.3849 35.0667,19.6467 35.0624,19.9277 C35.0603,20.2066 35.1662,20.4727 35.361,20.6728 C35.5559,20.8729 35.8164,20.9836 36.0938,20.9879 C36.3755,20.9964 36.636,20.8857 36.835,20.6898 C37.0341,20.494 37.1442,20.2322 37.1485,19.9512 C37.1506,19.6723 37.0447,19.4062 36.8499,19.2061 C36.655,19.006 36.3945,18.8953 36.1171,18.891 C36.1129,18.8889 36.1086,18.8889 36.1044,18.8889 Z M27.0783,24.0619 C27.0635,24.0619 27.0465,24.0619 27.0317,24.0619 C26.8453,24.0598 26.6547,24.0449 26.4599,24.0193 C25.5217,23.8873 24.664,23.4722 23.9778,22.8165 C23.0735,21.9544 22.561,20.7388 22.5737,19.485 C22.5864,18.2758 23.0672,17.1433 23.927,16.2982 C24.7868,15.453 25.9177,14.9975 27.1249,15.006 C29.6091,15.0315 31.6083,17.0837 31.5808,19.5808 C31.568,20.7133 31.1381,21.7926 30.3694,22.6228 C29.6408,23.4062 28.6582,23.9065 27.6035,24.03 C27.4277,24.0534 27.2498,24.0619 27.0783,24.0619 Z M27.0783,15.6467 C26.0596,15.6467 25.1003,16.0406 24.3717,16.7559 C23.6326,17.4818 23.2218,18.4546 23.2091,19.4935 C23.1985,20.5707 23.6369,21.6138 24.4141,22.3546 C25.005,22.9187 25.7398,23.2742 26.5446,23.3871 C26.7098,23.4084 26.8771,23.4211 27.0359,23.4233 C27.199,23.4254 27.3621,23.4169 27.5315,23.3977 C28.4358,23.2913 29.2808,22.8612 29.9056,22.1885 C30.5663,21.4754 30.9369,20.5472 30.9454,19.5765 C30.9687,17.4328 29.2512,15.6702 27.1164,15.6467 C27.1058,15.6467 27.0931,15.6467 27.0783,15.6467 Z"/>
    <path fill="#D3D9E5" d="M27.0805,19.8554 C26.9513,19.8554 26.8284,19.7745 26.7818,19.6446 C26.7225,19.4786 26.8073,19.2955 26.9725,19.2359 C26.9767,19.2338 27.9255,18.8357 28.7514,16.8261 C29.283,15.5318 29.7362,13.8799 29.8061,13.6223 C29.8145,13.3668 29.8611,11.8383 29.8378,11.2189 C29.8315,11.0422 29.9691,10.8953 30.1449,10.8889 C30.327,10.8846 30.4668,11.0209 30.4732,11.1976 C30.4986,11.8937 30.4414,13.6095 30.4393,13.6819 C30.4393,13.7053 30.4351,13.7308 30.4287,13.7543 C30.4096,13.8309 29.931,15.6319 29.338,17.0731 C28.3893,19.3785 27.2372,19.8213 27.1885,19.8384 C27.1525,19.849 27.1165,19.8554 27.0805,19.8554 Z"/>
    <path fill="#D3D9E5" d="M30.1449,11.4466 C29.9734,11.4466 29.8315,11.3082 29.8272,11.1337 C29.823,10.957 29.9628,10.8122 30.1386,10.808 L32.7752,10.7505 C32.7773,10.7505 32.7795,10.7505 32.7816,10.7505 C32.9531,10.7505 33.095,10.8889 33.0993,11.0634 C33.1035,11.2401 32.9637,11.3849 32.7879,11.3891 L30.1513,11.4466 C30.1491,11.4466 30.147,11.4466 30.1449,11.4466 Z M24.9182,19.883 C24.753,19.883 24.6153,19.7553 24.6026,19.5871 C24.5984,19.5169 24.5941,19.4466 24.5963,19.3743 C24.6069,18.4397 25.1596,17.5861 26.0088,17.2029 C26.1698,17.1305 26.3562,17.2008 26.4282,17.3625 C26.5002,17.5243 26.4303,17.7117 26.2693,17.784 C25.6467,18.0672 25.238,18.693 25.2316,19.3806 C25.2316,19.4339 25.2337,19.4871 25.2358,19.5382 C25.2486,19.7149 25.1172,19.8681 24.9436,19.8809 C24.9351,19.8809 24.9266,19.883 24.9182,19.883 Z M45.8908,18.8016 C45.7511,18.8016 45.624,18.7101 45.5859,18.5696 C45.4016,17.9075 44.8446,17.4094 44.1712,17.2987 C44.1182,17.2902 44.0674,17.2838 44.0145,17.2795 C43.8387,17.2667 43.7074,17.1135 43.7201,16.9368 C43.7328,16.7601 43.8874,16.6302 44.0611,16.6409 C44.1309,16.6451 44.2008,16.6536 44.2728,16.6664 C45.1898,16.8154 45.9459,17.4945 46.1979,18.395 C46.2445,18.5653 46.1471,18.742 45.9777,18.7888 C45.948,18.7973 45.9184,18.8016 45.8908,18.8016 Z M39.2111,14.1161 C39.1836,14.1161 39.1581,14.1119 39.1306,14.1055 C38.9612,14.0608 38.8595,13.8862 38.904,13.7159 L39.3254,12.0938 C39.3699,11.9234 39.5436,11.8213 39.713,11.866 C39.8824,11.9107 39.9841,12.0852 39.9396,12.2555 L39.5182,13.8777 C39.4822,14.0203 39.353,14.1161 39.2111,14.1161 Z"/>
    <path fill="#D3D9E5" d="M41.0177,12.5089 C41.0156,12.5089 41.0134,12.5089 41.0092,12.5089 L39.1413,12.4897 C38.7453,12.4855 38.4255,12.1577 38.4297,11.7596 L38.4318,11.5084 C38.434,11.3168 38.5102,11.1358 38.6479,10.9996 C38.7855,10.8633 38.9655,10.7952 39.1583,10.7931 L41.0262,10.8123 C41.4222,10.8165 41.742,11.1443 41.7377,11.5424 L41.7356,11.7936 C41.7314,12.1896 41.4095,12.5089 41.0177,12.5089 Z M39.1519,11.4317 C39.1222,11.4317 39.1032,11.4466 39.0947,11.4551 C39.0862,11.4637 39.0693,11.485 39.0693,11.5148 L39.0672,11.766 C39.0672,11.8107 39.1053,11.8511 39.1498,11.8511 L41.0177,11.8703 C41.0643,11.866 41.1024,11.8319 41.1024,11.7872 L41.1045,11.536 C41.1045,11.4913 41.0664,11.4509 41.0219,11.4509 L39.1519,11.4317 Z M35.7741,41.2136 C35.6873,41.2136 35.6026,41.1774 35.5433,41.1136 C35.3082,40.8645 29.7998,34.972 29.7998,31.7405 C29.7998,28.428 32.4809,25.7351 35.7741,25.7351 C39.0673,25.7351 41.7485,28.4302 41.7485,31.7405 C41.7485,34.9698 36.2401,40.8645 36.005,41.1136 C35.9457,41.1774 35.861,41.2136 35.7741,41.2136 Z M35.7741,26.3737 C32.8304,26.3737 30.4351,28.7814 30.4351,31.7405 C30.4351,34.3653 34.7216,39.2615 35.7741,40.4238 C36.8267,39.2615 41.1131,34.3674 41.1131,31.7405 C41.1131,28.7814 38.7179,26.3737 35.7741,26.3737 Z"/>
    <path fill="#D3D9E5" d="M35.774,33.8202 C34.3677,33.8202 33.2241,32.6707 33.2241,31.2572 C33.2241,29.8436 34.3677,28.6941 35.774,28.6941 C37.1802,28.6941 38.3238,29.8436 38.3238,31.2572 C38.3238,32.6707 37.1802,33.8202 35.774,33.8202 Z M35.774,29.3327 C34.7193,29.3327 33.8595,30.1949 33.8595,31.2572 C33.8595,32.3194 34.7172,33.1816 35.774,33.1816 C36.8307,33.1816 37.6885,32.3194 37.6885,31.2572 C37.6885,30.1949 36.8286,29.3327 35.774,29.3327 Z"/>
    <path fill="#DCDFEA" d="M100.363,73.9183 C100.276,73.9183 100.191,73.8821 100.132,73.8183 C99.8971,73.5692 94.3887,67.6767 94.3887,64.4452 C94.3887,61.1328 97.0698,58.4398 100.363,58.4398 C103.656,58.4398 106.337,61.1349 106.337,64.4452 C106.337,67.6746 100.829,73.5692 100.594,73.8183 C100.535,73.8821 100.452,73.9183 100.363,73.9183 Z M100.363,59.0806 C97.4193,59.0806 95.024,61.4883 95.024,64.4473 C95.024,67.0721 99.3105,71.9683 100.363,73.1285 C101.416,71.9662 105.702,67.0721 105.702,64.4473 C105.702,61.4883 103.309,59.0806 100.363,59.0806 Z"/>
    <path fill="#DCDFEA" d="M100.363,66.5251 C98.9568,66.5251 97.8132,65.3755 97.8132,63.962 C97.8132,62.5485 98.9568,61.3989 100.363,61.3989 C101.769,61.3989 102.913,62.5485 102.913,63.962 C102.913,65.3755 101.769,66.5251 100.363,66.5251 Z M100.363,62.0397 C99.3084,62.0397 98.4486,62.9019 98.4486,63.9641 C98.4486,65.0243 99.3063,65.8886 100.363,65.8886 C101.42,65.8886 102.278,65.0264 102.278,63.9641 C102.278,62.9019 101.42,62.0397 100.363,62.0397 Z"/>
    <path fill="#00ADA8" d="M77.5688,19.2954 C77.5688,16.1554 80.1017,13.6094 83.2255,13.6094 C86.3493,13.6094 88.8822,16.1554 88.8822,19.2954 C88.8822,22.4354 83.2255,28.4492 83.2255,28.4492 C83.2255,28.4492 77.5688,22.4354 77.5688,19.2954 Z"/>
    <path fill="#FFF" d="M83.2256,21.056 C84.4584,21.056 85.4577,20.0514 85.4577,18.8122 C85.4577,17.573 84.4584,16.5685 83.2256,16.5685 C81.9928,16.5685 80.9934,17.573 80.9934,18.8122 C80.9934,20.0514 81.9928,21.056 83.2256,21.056 Z"/>
    <path fill="#D3D9E5" d="M118.294,42.2227 C118.208,42.2227 118.123,42.1865 118.064,42.1226 C117.828,41.8735 112.32,35.981 112.32,32.7495 C112.32,29.4371 115.001,26.7441 118.294,26.7441 C121.588,26.7441 124.269,29.4392 124.269,32.7495 C124.269,35.9789 118.76,41.8735 118.525,42.1226 C118.466,42.1865 118.383,42.2227 118.294,42.2227 Z M118.294,27.3828 C115.351,27.3828 112.955,29.7905 112.955,32.7495 C112.955,35.3743 117.242,40.2705 118.294,41.4329 C119.347,40.2705 123.633,35.3764 123.633,32.7495 C123.633,29.7905 121.24,27.3828 118.294,27.3828 Z"/>
    <path fill="#D3D9E5" d="M118.294,34.8293 C116.888,34.8293 115.745,33.6797 115.745,32.2662 C115.745,30.8527 116.888,29.7031 118.294,29.7031 C119.701,29.7031 120.844,30.8527 120.844,32.2662 C120.844,33.6797 119.701,34.8293 118.294,34.8293 Z M118.294,30.3418 C117.24,30.3418 116.38,31.2039 116.38,32.2662 C116.38,33.3263 117.238,34.1906 118.294,34.1906 C119.351,34.1906 120.209,33.3285 120.209,32.2662 C120.209,31.2061 119.351,30.3418 118.294,30.3418 Z"/>
    <path fill="#00ADA8" d="M68.5535,10.1863 C68.5535,10.1863 68.5683,9.73075 68.6509,8.66635 C68.7271,7.67007 68.922,6.95905 68.922,6.95905 L74.2991,5.63068 L76.6795,0 L89.056,0 L92.6816,5.56681 L98.3616,6.89731 C98.3616,6.89731 98.9165,7.74245 99.0562,8.66635 C99.2066,9.6605 99.0562,10.1863 99.0562,10.1863 L68.5535,10.1863 Z"/>
    <polygon fill="#FFF" points="76.241 5.539 90.378 5.539 87.718 1.592 77.967 1.637"/>
    <path fill="#FFF" d="M90.3775,5.85851 L76.2412,5.85851 C76.1332,5.85851 76.0336,5.80316 75.9743,5.71375 C75.915,5.62221 75.9066,5.50939 75.951,5.40933 L77.6792,1.50724 C77.73,1.39228 77.8422,1.31778 77.9672,1.31778 L87.7154,1.27307 C87.7154,1.27307 87.7154,1.27307 87.7176,1.27307 C87.8235,1.27307 87.9209,1.32629 87.9802,1.41357 L90.6401,5.36037 C90.7058,5.45829 90.7121,5.58389 90.6571,5.6882 C90.6041,5.79252 90.4961,5.85851 90.3775,5.85851 Z M76.7304,5.21987 L89.7803,5.21987 L87.5503,1.91171 L78.1768,1.95429 L76.7304,5.21987 Z"/>
    <path fill="#15A59E" d="M82.8423,6.50352 C82.6665,6.50352 82.5247,6.36089 82.5247,6.1842 L82.5247,1.3795 C82.5247,1.20281 82.6665,1.06018 82.8423,1.06018 C83.0181,1.06018 83.16,1.20281 83.16,1.3795 L83.16,6.1842 C83.16,6.36089 83.0181,6.50352 82.8423,6.50352 Z"/>
    <path fill="#FFF" d="M74.1889,12.0725 C75.3223,12.0725 76.241,11.149 76.241,10.0097 C76.241,8.87045 75.3223,7.9469 74.1889,7.9469 C73.0555,7.9469 72.1367,8.87045 72.1367,10.0097 C72.1367,11.149 73.0555,12.0725 74.1889,12.0725 Z"/>
    <path fill="#00ADA8" d="M74.1889,12.3918 C72.8822,12.3918 71.8191,11.3232 71.8191,10.0097 C71.8191,8.69622 72.8822,7.62756 74.1889,7.62756 C75.4956,7.62756 76.5588,8.69622 76.5588,10.0097 C76.5588,11.3232 75.4956,12.3918 74.1889,12.3918 Z M74.1889,8.2662 C73.2317,8.2662 72.4544,9.04747 72.4544,10.0097 C72.4544,10.9719 73.2317,11.7532 74.1889,11.7532 C75.1462,11.7532 75.9234,10.9719 75.9234,10.0097 C75.9234,9.04747 75.1441,8.2662 74.1889,8.2662 Z"/>
    <path fill="#00ADA8" d="M74.1888,11.0996 C73.5916,11.0996 73.1045,10.6099 73.1045,10.0096 C73.1045,9.4093 73.5895,8.91968 74.1888,8.91968 C74.7882,8.91968 75.2732,9.40717 75.2732,10.0096 C75.2732,10.6121 74.7861,11.0996 74.1888,11.0996 Z M74.1888,9.34544 C73.8246,9.34544 73.5281,9.64347 73.5281,10.0096 C73.5281,10.3758 73.8246,10.6738 74.1888,10.6738 C74.5531,10.6738 74.8496,10.3758 74.8496,10.0096 C74.8475,9.64347 74.551,9.34544 74.1888,9.34544 Z"/>
    <path fill="#FFF" d="M95.2377,12.0725 C96.3711,12.0725 97.2898,11.149 97.2898,10.0097 C97.2898,8.87045 96.3711,7.9469 95.2377,7.9469 C94.1043,7.9469 93.1855,8.87045 93.1855,10.0097 C93.1855,11.149 94.1043,12.0725 95.2377,12.0725 Z"/>
    <path fill="#00ADA8" d="M95.2377,12.3918 C93.9311,12.3918 92.8679,11.3232 92.8679,10.0097 C92.8679,8.69622 93.9311,7.62756 95.2377,7.62756 C96.5444,7.62756 97.6076,8.69622 97.6076,10.0097 C97.6076,11.3232 96.5444,12.3918 95.2377,12.3918 Z M95.2377,8.2662 C94.2805,8.2662 93.5033,9.04747 93.5033,10.0097 C93.5033,10.9719 94.2805,11.7532 95.2377,11.7532 C96.195,11.7532 96.9722,10.9719 96.9722,10.0097 C96.9722,9.04747 96.195,8.2662 95.2377,8.2662 Z"/>
    <path fill="#00ADA8" d="M95.2379,11.0996 C94.6407,11.0996 94.1536,10.6099 94.1536,10.0096 C94.1536,9.4093 94.6407,8.91968 95.2379,8.91968 C95.8351,8.91968 96.3222,9.40717 96.3222,10.0096 C96.3222,10.6121 95.8351,11.0996 95.2379,11.0996 Z M95.2379,9.34544 C94.8736,9.34544 94.5771,9.64347 94.5771,10.0096 C94.5771,10.3758 94.8736,10.6738 95.2379,10.6738 C95.6022,10.6738 95.8986,10.3758 95.8986,10.0096 C95.8986,9.64347 95.6022,9.34544 95.2379,9.34544 Z"/>
    <path fill="#D3D9E5" d="M124.652,23.7766 L111.585,23.7766 C111.409,23.7766 111.267,23.634 111.267,23.4573 C111.267,23.2806 111.409,23.1379 111.585,23.1379 L124.652,23.1379 C124.828,23.1379 124.97,23.2806 124.97,23.4573 C124.97,23.634 124.826,23.7766 124.652,23.7766 Z"/>
    <path fill="#D3D9E5" d="M133.682,23.7766 L130.093,23.7766 C129.917,23.7766 129.775,23.634 129.775,23.4573 C129.775,23.2806 129.917,23.138 130.093,23.138 L133.341,23.138 C133.276,22.2992 133.055,20.0193 132.462,17.6967 C131.88,15.4189 130.999,13.6818 130.722,13.1645 L113.434,13.1645 L110.153,17.8394 C110.101,17.916 110.016,17.965 109.925,17.9735 C109.916,17.9735 109.126,18.0522 108.059,18.2822 C107.784,18.3418 107.506,18.3971 107.231,18.4525 C106.274,18.6462 105.371,18.8293 104.677,19.1017 C104.008,19.3657 103.582,19.9575 103.48,20.7707 C103.4,21.42 103.3,22.5653 103.254,23.138 L106.238,23.138 C106.413,23.138 106.555,23.2806 106.555,23.4573 C106.555,23.634 106.413,23.7766 106.238,23.7766 L102.908,23.7766 C102.82,23.7766 102.735,23.7404 102.676,23.6744 C102.616,23.6084 102.584,23.5211 102.593,23.4317 C102.599,23.3572 102.739,21.5924 102.851,20.692 C102.98,19.651 103.563,18.8548 104.446,18.5078 C105.194,18.214 106.123,18.0267 107.106,17.8266 C107.379,17.7712 107.652,17.7159 107.928,17.6563 C108.773,17.4753 109.438,17.3859 109.719,17.354 L113.013,12.6621 C113.072,12.577 113.169,12.5259 113.273,12.5259 L130.912,12.5259 C131.024,12.5259 131.13,12.5855 131.188,12.6834 C131.236,12.7664 132.365,14.7313 133.083,17.5371 C133.841,20.5089 134.002,23.4104 134.004,23.4402 C134.008,23.5275 133.977,23.6127 133.917,23.6765 C133.854,23.7404 133.769,23.7766 133.682,23.7766 Z"/>
    <path fill="#D3D9E5" d="M130.556,19.1295 L111.858,19.1295 C111.744,19.1295 111.638,19.0677 111.581,18.9677 C111.524,18.8676 111.526,18.7441 111.585,18.6462 L114.148,14.3886 C114.205,14.2928 114.309,14.2354 114.419,14.2354 L129.108,14.2801 C129.224,14.2801 129.332,14.346 129.387,14.4482 C130.114,15.8192 130.611,17.2689 130.866,18.7569 C130.883,18.8506 130.855,18.9443 130.796,19.0166 C130.739,19.089 130.65,19.1295 130.556,19.1295 Z M112.422,18.4908 L130.173,18.4908 C129.925,17.2604 129.504,16.0597 128.917,14.9166 L114.601,14.8719 L112.422,18.4908 Z"/>
    <path fill="#D3D9E5" d="M118.76,19.0378 C118.585,19.0378 118.443,18.8952 118.443,18.7185 L118.443,14.5588 C118.443,14.3821 118.585,14.2395 118.76,14.2395 C118.936,14.2395 119.078,14.3821 119.078,14.5588 L119.078,18.7185 C119.078,18.8952 118.936,19.0378 118.76,19.0378 Z M124.9,19.0294 C124.741,19.0294 124.605,18.9102 124.584,18.7484 L124.084,14.6207 C124.063,14.4461 124.188,14.2865 124.362,14.2652 C124.533,14.2439 124.694,14.3695 124.716,14.544 L125.215,18.6718 C125.237,18.8463 125.112,19.006 124.938,19.0273 C124.925,19.0294 124.912,19.0294 124.9,19.0294 Z M108.91,26.2886 C107.261,26.2886 105.918,24.9389 105.918,23.2806 C105.918,21.6222 107.261,20.2726 108.91,20.2726 C110.56,20.2726 111.903,21.6222 111.903,23.2806 C111.903,24.9389 110.56,26.2886 108.91,26.2886 Z M108.91,20.9134 C107.612,20.9134 106.553,21.9756 106.553,23.2827 C106.553,24.5898 107.61,25.6521 108.91,25.6521 C110.209,25.6521 111.268,24.5898 111.268,23.2827 C111.268,21.9756 110.211,20.9134 108.91,20.9134 Z"/>
    <path fill="#D3D9E5" d="M108.911,24.743 C108.11,24.743 107.458,24.0873 107.458,23.2826 C107.458,22.4779 108.11,21.8223 108.911,21.8223 C109.711,21.8223 110.36302,22.4779 110.36302,23.2826 C110.366,24.0873 109.713,24.743 108.911,24.743 Z M108.911,22.4588 C108.459,22.4588 108.093,22.8271 108.093,23.2805 C108.093,23.7339 108.459,24.1022 108.911,24.1022 C109.362,24.1022 109.728016,23.7339 109.728016,23.2805 C109.73,22.8271 109.362,22.4588 108.911,22.4588 Z M127.325,26.2886 C125.675,26.2886 124.332,24.9389 124.332,23.2806 C124.332,21.6222 125.675,20.2726 127.325,20.2726 C128.975,20.2726 130.317,21.6222 130.317,23.2806 C130.317,24.9389 128.975,26.2886 127.325,26.2886 Z M127.325,20.9134 C126.024,20.9134 124.968,21.9756 124.968,23.2827 C124.968,24.5898 126.024,25.6521 127.325,25.6521 C128.623,25.6521 129.682,24.5898 129.682,23.2827 C129.682,21.9756 128.625,20.9134 127.325,20.9134 Z"/>
    <path fill="#D3D9E5" d="M127.325,24.743 C126.524,24.743 125.872,24.0873 125.872,23.2826 C125.872,22.4779 126.524,21.8223 127.325,21.8223 C128.125,21.8223 128.777,22.4779 128.777,23.2826 C128.777,24.0873 128.127,24.743 127.325,24.743 Z M127.325,22.4588 C126.874,22.4588 126.507,22.8271 126.507,23.2805 C126.507,23.7339 126.874,24.1022 127.325,24.1022 C127.776,24.1022 128.142,23.7339 128.142,23.2805 C128.142,22.8271 127.776,22.4588 127.325,22.4588 Z M66.1857,61.3329 C66.1349,61.3329 66.0862,61.3201 66.0375,61.2967 C65.8829,61.2137 65.8236,61.0221 65.9041,60.8645 L66.3806,59.9534 C66.461,59.798 66.6538,59.7363 66.8105,59.8193 C66.9651,59.9023 67.0244,60.0939 66.9439,60.2514 L66.4674,61.1626 C66.4102,61.2711 66.3001,61.3329 66.1857,61.3329 Z M67.8461,58.161 C67.7953,58.161 67.7465,58.1482 67.6978,58.1248 C67.5432,58.0418 67.4839,57.8502 67.5644,57.6926 L68.7483,55.4318 C68.8287,55.2764 69.0215,55.2147 69.1782,55.2977 C69.3328,55.3808 69.3921,55.5723 69.3116,55.7299 L68.1278,57.9907 C68.0706,58.0992 67.9604,58.161 67.8461,58.161 Z M70.2117,53.6394 C70.1608,53.6394 70.1121,53.6266 70.0634,53.6032 C69.9088,53.5202 69.8495,53.3286 69.93,53.1711 L71.1139,50.9103 C71.1943,50.7549 71.3871,50.6931 71.5438,50.7762 C71.6984,50.8592 71.7577,51.0508 71.6772,51.2083 L70.4933,53.4691 C70.4383,53.5777 70.326,53.6394 70.2117,53.6394 Z M72.5794,49.1178 C72.5286,49.1178 72.4798,49.105 72.4311,49.0816 C72.2765,48.9986 72.2172,48.807 72.2977,48.6495 L73.4816,46.3887 C73.562,46.2333 73.7548,46.1716 73.9115,46.2546 C74.0661,46.3376 74.1254,46.5292 74.0449,46.6867 L72.8611,48.9475 C72.8039,49.054 72.6937,49.1178 72.5794,49.1178 Z M74.945,44.5963 C74.8941,44.5963 74.8454,44.5835 74.7967,44.5601 C74.6421,44.477 74.5828,44.2854 74.6633,44.1279 L75.8472,41.8671 C75.9276,41.7117 76.1204,41.65 76.2771,41.733 C76.4317,41.816 76.491,42.0076 76.4105,42.1652 L75.2266,44.4259 C75.1695,44.5324 75.0593,44.5963 74.945,44.5963 Z M77.3106,40.0726 C77.2597,40.0726 77.211,40.0598 77.1623,40.0364 C77.0077,39.9533 76.9484,39.7617 77.0289,39.6042 L78.2127,37.3434 C78.2932,37.188 78.4859,37.1263 78.6427,37.2093 C78.7973,37.2923 78.8566,37.4839 78.7761,37.6415 L77.5922,39.9022 C77.5351,40.0108 77.4249,40.0726 77.3106,40.0726 Z M79.6762,35.551 C79.6253,35.551 79.5766,35.5382 79.5279,35.5148 C79.3733,35.4318 79.314,35.2402 79.3945,35.0826 L80.5783,32.8219 C80.6588,32.6665 80.8515,32.6047 81.0083,32.6877 C81.165,32.7708 81.2222,32.9624 81.1417,33.1199 L79.9578,35.3807 C79.9006,35.4892 79.7905,35.551 79.6762,35.551 Z M82.0417,31.0294 C81.9909,31.0294 81.9422,31.0166 81.8935,30.9932 C81.7389,30.9102 81.6796,30.7186 81.7601,30.5611 L82.9439,28.3003 C83.0244,28.1449 83.2171,28.0831 83.3738,28.1662 C83.5284,28.2492 83.5877,28.4408 83.5073,28.5983 L82.3234,30.8591 C82.2662,30.9677 82.1561,31.0294 82.0417,31.0294 Z"/>
    <path fill="#D3D9E5" d="M100.363,74.3972 C100.316,74.3972 100.268,74.3866 100.223,74.3653 L97.9401,73.2434 C97.7834,73.1668 97.7177,72.9752 97.794,72.8155 C97.8723,72.658 98.0629,72.592 98.2197,72.6686 L100.503,73.7905 C100.659,73.8672 100.725,74.0588 100.649,74.2184 C100.594,74.3312 100.481,74.3972 100.363,74.3972 Z M95.7969,72.1514 C95.7503,72.1514 95.7016,72.1407 95.6571,72.1194 L93.3741,70.9975 C93.2174,70.9209 93.1517,70.7293 93.228,70.5697 C93.3042,70.4121 93.4948,70.3461 93.6537,70.4228 L95.9367,71.5446 C96.0934,71.6213 96.159,71.8129 96.0828,71.9725 C96.0277,72.0875 95.9155,72.1514 95.7969,72.1514 Z M91.233,69.9076 C91.1864,69.9076 91.1377,69.897 91.0932,69.8757 L88.8102,68.7538 C88.6535,68.6772 88.5879,68.4856 88.6641,68.3259 C88.7425,68.1684 88.9309,68.1024 89.0898,68.179 L91.3728,69.3009 C91.5295,69.3775 91.5952,69.5691 91.5189,69.7288 C91.4617,69.8416 91.3495,69.9076 91.233,69.9076 Z M86.667,67.6617 C86.6204,67.6617 86.5717,67.6511 86.5272,67.6298 L84.2442,66.5079 C84.0875,66.4313 84.0219,66.2397 84.0981,66.08 C84.1744,65.9204 84.3671,65.8565 84.5238,65.9331 L86.8068,67.055 C86.9635,67.1316 87.0292,67.3232 86.9529,67.4829 C86.8978,67.5957 86.7835,67.6617 86.667,67.6617 Z M82.101,65.4158 C82.0544,65.4158 82.0057,65.4052 81.9612,65.3839 L79.6782,64.262 C79.5215,64.1854 79.4559,63.9938 79.5321,63.8341 C79.6105,63.6766 79.799,63.6106 79.9578,63.6872 L82.2408,64.8091 C82.3975,64.8858 82.4632,65.0774 82.3869,65.237 C82.3319,65.3498 82.2175,65.4158 82.101,65.4158 Z M77.535,63.1721 C77.4884,63.1721 77.4397,63.1614 77.3953,63.1401 L75.1123,62.0183 C74.9555,61.9416 74.8899,61.75 74.9661,61.5904 C75.0445,61.4307 75.233,61.3669 75.3918,61.4435 L77.6748,62.5654 C77.8315,62.642 77.8972,62.8336 77.8209,62.9933 C77.7659,63.1061 77.6536,63.1721 77.535,63.1721 Z M72.969,60.9262 C72.9224,60.9262 72.8737,60.9155 72.8293,60.8943 L70.5463,59.7724 C70.3895,59.6957 70.3239,59.5042 70.4001,59.3445 C70.4764,59.1848 70.667,59.121 70.8258,59.1976 L73.1088,60.3195 C73.2655,60.3961 73.3312,60.5877 73.2549,60.7474 C73.1999,60.8602 73.0876,60.9262 72.969,60.9262 Z M68.403,58.6803 C68.3564,58.6803 68.3077,58.6697 68.2633,58.6484 L65.9803,57.5265 C65.8235,57.4499 65.7579,57.2583 65.8341,57.0986 C65.9104,56.9411 66.101,56.8751 66.2598,56.9517 L68.5428,58.0736 C68.6995,58.1502 68.7652,58.3418 68.6889,58.5015 C68.6339,58.6143 68.5216,58.6803 68.403,58.6803 Z M63.8392,56.4344 C63.7926,56.4344 63.7439,56.4238 63.6994,56.4025 L61.4164,55.2806 C61.2597,55.204 61.194,55.0124 61.2703,54.8527 C61.3486,54.6931 61.5392,54.6292 61.6959,54.7058 L63.9789,55.8277 C64.1357,55.9044 64.2013,56.0959 64.1251,56.2556 C64.0679,56.3684 63.9556,56.4344 63.8392,56.4344 Z M59.2732,54.1907 C59.2266,54.1907 59.1779,54.18 59.1334,54.1587 L56.8504,53.0369 C56.6937,52.9602 56.628,52.7686 56.7043,52.609 C56.7826,52.4493 56.9711,52.3854 57.13,52.4621 L59.413,53.584 C59.5697,53.6606 59.6353,53.8522 59.5591,54.0118 C59.504,54.1247 59.3897,54.1907 59.2732,54.1907 Z M54.7072,51.9448 C54.6606,51.9448 54.6119,51.9341 54.5674,51.9129 L52.2844,50.791 C52.1277,50.7143 52.062,50.5227 52.1383,50.3631 C52.2166,50.2056 52.4051,50.1396 52.564,50.2162 L54.847,51.3381 C55.0037,51.4147 55.0693,51.6063 54.9931,51.766 C54.938,51.8788 54.8237,51.9448 54.7072,51.9448 Z M50.1412,49.6989 C50.0946,49.6989 50.0459,49.6883 50.0014,49.667 L47.7184,48.5451 C47.5617,48.4685 47.4961,48.2769 47.5723,48.1172 C47.6507,47.9575 47.8413,47.8937 47.998,47.9703 L50.281,49.0922 C50.4377,49.1688 50.5033,49.3604 50.4271,49.5201 C50.372,49.6329 50.2598,49.6989 50.1412,49.6989 Z M45.5752,47.4551 C45.5286,47.4551 45.4799,47.4445 45.4354,47.4232 L43.1524,46.3013 C42.9957,46.2247 42.9301,46.0331 43.0063,45.8734 C43.0825,45.7159 43.2731,45.6499 43.432,45.7266 L45.715,46.8484 C45.8717,46.9251 45.9373,47.1167 45.8611,47.2763 C45.806,47.3892 45.6938,47.4551 45.5752,47.4551 Z M41.0113,45.2093 C40.9647,45.2093 40.916,45.1986 40.8716,45.1773 L38.5886,44.0555 C38.4318,43.9788 38.3662,43.7872 38.4424,43.6276 C38.5208,43.47 38.7093,43.404 38.8681,43.4807 L41.1511,44.6026 C41.3078,44.6792 41.3735,44.8708 41.2972,45.0304 C41.24,45.1433 41.1278,45.2093 41.0113,45.2093 Z M36.4453,42.9634 C36.3987,42.9634 36.35,42.9527 36.3056,42.9314 L35.6342,42.6015 C35.4775,42.5248 35.4118,42.3333 35.4881,42.1736 C35.5664,42.0161 35.757,41.9501 35.9138,42.0267 L36.5851,42.3567 C36.7418,42.4333 36.8075,42.6249 36.7312,42.7846 C36.6762,42.8974 36.5618,42.9634 36.4453,42.9634 Z M120.999,60.6048 C120.954,60.6048 120.91,60.5963 120.867,60.5772 L118.553,59.5213 C118.394,59.4489 118.322,59.2594 118.394,59.0976 C118.466,58.938 118.654,58.8656 118.815,58.938 L121.13,59.9939 C121.289,60.0663 121.361,60.2557 121.289,60.4175 C121.236,60.5346 121.119,60.6048 120.999,60.6048 Z M116.371,58.4931 C116.327,58.4931 116.282,58.4846 116.24,58.4654 L113.925,57.4095 C113.766,57.3371 113.694,57.1477 113.766,56.9859 C113.838,56.8262 114.027,56.7538 114.188,56.8262 L116.503,57.8821 C116.661,57.9545 116.733,58.1439 116.661,58.3057 C116.606,58.4228 116.492,58.4931 116.371,58.4931 Z M111.742,56.3813 C111.697,56.3813 111.653,56.3728 111.61,56.3536 L109.296,55.2977 C109.137,55.2254 109.065,55.0359 109.137,54.8741 C109.209,54.7144 109.397,54.6421 109.558,54.7144 L111.873,55.7703 C112.032,55.8427 112.104,56.0322 112.032,56.194 C111.979,56.311 111.863,56.3813 111.742,56.3813 Z M107.114,54.2695 C107.07,54.2695 107.025,54.261 106.983,54.2419 L104.668,53.186 C104.509,53.1136 104.437,52.9241 104.509,52.7623 C104.581,52.6027 104.77,52.5303 104.931,52.6027 L107.246,53.6586 C107.405,53.7309 107.477,53.9204 107.405,54.0822 C107.352,54.1993 107.235,54.2695 107.114,54.2695 Z M102.487,52.1578 C102.442,52.1578 102.398,52.1492 102.356,52.1301 L100.041,51.0742 C99.8821,51.0018 99.8101,50.8124 99.8821,50.6506 C99.9541,50.4909 100.143,50.4185 100.304,50.4909 L102.618,51.5468 C102.777,51.6192 102.849,51.8086 102.777,51.9704 C102.722,52.0875 102.608,52.1578 102.487,52.1578 Z M97.8574,50.046 C97.813,50.046 97.7685,50.0375 97.7261,50.0183 L95.4114,48.9624 C95.2525,48.8901 95.1805,48.7006 95.2525,48.5388 C95.3245,48.3791 95.513,48.3068 95.674,48.3791 L97.9887,49.435 C98.1476,49.5074 98.2196,49.6969 98.1476,49.8587 C98.0946,49.9757 97.9782,50.046 97.8574,50.046 Z M93.23,47.9342 C93.1856,47.9342 93.1411,47.9257 93.0987,47.9065 L90.784,46.8507 C90.6251,46.7783 90.5531,46.5888 90.6251,46.427 C90.6971,46.2674 90.8856,46.195 91.0466,46.2674 L93.3613,47.3233 C93.5202,47.3956 93.5922,47.5851 93.5202,47.7469 C93.4651,47.864 93.3507,47.9342 93.23,47.9342 Z M88.6005,45.8224 C88.556,45.8224 88.5116,45.8139 88.4692,45.7948 L86.1544,44.7389 C85.9956,44.6665 85.9236,44.477 85.9956,44.3153 C86.0676,44.1556 86.2561,44.0832 86.417,44.1556 L88.7318,45.2115 C88.8906,45.2839 88.9627,45.4733 88.8906,45.6351 C88.8377,45.7522 88.7233,45.8224 88.6005,45.8224 Z M83.9731,43.7107 C83.9286,43.7107 83.8841,43.7022 83.8418,43.683 L81.527,42.6271 C81.3682,42.5547 81.2962,42.3653 81.3682,42.2035 C81.4402,42.0438 81.6287,41.9714 81.7896,42.0438 L84.1044,43.0997 C84.2632,43.1721 84.3352,43.3616 84.2632,43.5233 C84.2103,43.6404 84.0938,43.7107 83.9731,43.7107 Z M79.3457,41.5989 C79.3012,41.5989 79.2567,41.5904 79.2144,41.5712 L76.8996,40.5154 C76.7408,40.443 76.6688,40.2535 76.7408,40.0917 C76.8128,39.9299 77.0013,39.8597 77.1622,39.9321 L79.477,40.9879 C79.6358,41.0603 79.7078,41.2498 79.6358,41.4116 C79.5808,41.5287 79.4664,41.5989 79.3457,41.5989 Z M74.7162,39.4871 C74.6717,39.4871 74.6272,39.4786 74.5849,39.4595 L72.2701,38.4036 C72.1113,38.3312 72.0392,38.1417 72.1113,37.9799 C72.1833,37.8203 72.3717,37.7479 72.5327,37.8203 L74.8475,38.8762 C75.0063,38.9486 75.0783,39.138 75.0063,39.2998 C74.9534,39.4169 74.8369,39.4871 74.7162,39.4871 Z M70.0888,37.3754 C70.0443,37.3754 69.9998,37.3669 69.9574,37.3477 L67.6427,36.2918 C67.4838,36.2194 67.4118,36.03 67.4838,35.8682 C67.5559,35.7085 67.7443,35.6361 67.9053,35.7085 L70.2201,36.7644 C70.3789,36.8368 70.4509,37.0262 70.3789,37.188 C70.3259,37.3051 70.2095,37.3754 70.0888,37.3754 Z M65.4592,35.2636 C65.4148,35.2636 65.3703,35.2551 65.3279,35.2359 L63.0132,34.18 C62.8543,34.1077 62.7823,33.9182 62.8543,33.7564 C62.9263,33.5968 63.1148,33.5244 63.2758,33.5968 L65.5905,34.6526 C65.7494,34.725 65.8214,34.9145 65.7494,35.0763 C65.6964,35.1933 65.5799,35.2636 65.4592,35.2636 Z M60.8318,33.1518 C60.7873,33.1518 60.7429,33.1433 60.7005,33.1242 L58.3857,32.0683 C58.2269,31.9959 58.1549,31.8064 58.2269,31.6446 C58.2989,31.485 58.4874,31.4126 58.6484,31.485 L60.9631,32.5409 C61.122,32.6132 61.194,32.8027 61.122,32.9645 C61.069,33.0816 60.9525,33.1518 60.8318,33.1518 Z M56.2044,31.0401 C56.1599,31.0401 56.1155,31.0315 56.0731,31.0124 L53.7583,29.9565 C53.5995,29.8841 53.5275,29.6947 53.5995,29.5329 C53.6715,29.3732 53.86,29.3008 54.0209,29.3732 L56.3357,30.4291 C56.4945,30.5015 56.5666,30.6909 56.4945,30.8527 C56.4395,30.9698 56.3251,31.0401 56.2044,31.0401 Z"/>
    <path fill="#FFC927" d="M70.593,92.8135 C70.593,92.8135 71.7451,89.1988 73.3589,88.0642 C74.9705,86.9295 76.4064,87.3936 76.1014,89.0008 C75.7499,90.8465 75.0404,90.7699 74.5025,97.2606 C74.2166,100.722 74.4686,105.735 73.4817,110.368 C73.1365,111.983 71.6794,115.524 71.6794,115.524 L74.5025,126.304 L54.7476,130.998 L53.2736,121.595 C53.2736,121.595 47.96,117.674 46.4182,110.832 C46.4182,110.832 56.6345,114.783 58.945,115.289 C60.7748,115.692 62.3801,114.221 63.0261,113.086 C63.6678,111.954 70.593,92.8135 70.593,92.8135 Z"/>
    <path fill="#576194" d="M77.2236,55.0105 L80.4172,56.2452 C82.5901,56.986 83.8926,59.7897 83.0582,61.9397 L63.1042,112.897 C62.2825,115.013 59.8894,116.035 57.8033,115.162 L54.6436,114.032"/>
    <path fill="#576194" d="M28.9165,98.2933 L51.0074,49.8588 C51.882,48.0046 54.0019,47.102 55.9355,47.7619 L78.0687,55.2936 C80.2416,56.0323 81.3619,58.4464 80.5275,60.5965 L60.5735,112.03 C59.7518,114.146 57.3608,115.168 55.2748,114.295 L31.0047,103.764 C28.8805,102.874 27.9296,100.382 28.9165,98.2933 Z"/>
    <path fill="#FFF" d="M56.8229,114.928 C56.2574,114.928 55.692,114.815 55.1519,114.589 L30.8776,104.056 C29.7742,103.594 28.9271,102.717 28.4972,101.591 C28.0673,100.465 28.1139,99.2448 28.6264,98.157 L50.7172,49.7246 C51.6639,47.7193 53.949,46.7464 56.0351,47.4574 L78.1683,54.9891 C79.3034,55.3744 80.2056,56.1876 80.7117,57.2797 C81.2179,58.3697 81.256,59.5895 80.8219,60.7113 L60.87,112.145 C60.4422,113.25 59.6078,114.112 58.5235,114.576 C57.975,114.811 57.3989,114.928 56.8229,114.928 Z M54.6437,47.864 C53.2459,47.864 51.9223,48.6623 51.2933,49.9928 L29.2024,98.4295 C28.7641,99.3597 28.7238,100.401 29.0902,101.363 C29.4566,102.325 30.1809,103.072 31.1254,103.468 L55.3997,114.002 C56.3252,114.389 57.346,114.385 58.2736,113.989 C59.1991,113.593 59.9106,112.856 60.277,111.913 L80.231,60.4793 C80.6016,59.5213 80.5699,58.4825 80.1378,57.5501 C79.7058,56.6198 78.9349,55.9237 77.9671,55.5958 L55.8339,48.0641 C55.44,47.9279 55.0397,47.864 54.6437,47.864 Z"/>
    <polygon fill="#FFF" points="31.881 92.675 63.013 106.131 79.498 62.583 50.431 52.124"/>
    <polygon fill="#576194" points="50.689 51.556 31.491 93.652 32.261 94.006 51.459 51.911"/>
    <path fill="#00ADA8" d="M51.2151,70.8379 C51.2151,67.3212 54.0508,64.4707 57.5494,64.4707 C61.048,64.4707 63.8838,67.3212 63.8838,70.8379 C63.8838,74.3547 57.5494,81.0881 57.5494,81.0881 C57.5494,81.0881 51.2151,74.3547 51.2151,70.8379 Z"/>
    <path fill="#FFF" d="M57.5495,72.8093 C58.9297,72.8093 60.0486,71.6846 60.0486,70.2973 C60.0486,68.9099 58.9297,67.7853 57.5495,67.7853 C56.1694,67.7853 55.0505,68.9099 55.0505,70.2973 C55.0505,71.6846 56.1694,72.8093 57.5495,72.8093 Z"/>
    <path fill="#FFC927" d="M53.733,74.6528 C51.1239,76.2217 39.5628,84.639 39.5628,84.639 C39.5628,84.639 41.9665,81.052 39.9715,79.6172 C37.8262,78.0759 33.9675,82.1185 33.9675,82.1185 C33.9675,82.1185 35.8905,79.4958 34.2894,78.1014 C32.6778,76.6986 29.9839,79.0126 29.9839,79.0126 C29.9839,79.0126 31.496,77.3521 30.0432,76.0642 C28.7535,74.9231 27.7327,75.9279 25.8267,77.3649 C24.8398,78.11 20.602,80.4367 14.8268,88.6475 C12.8551,91.449 12.5861,95.811 10.894,97.2692 C6.47414,101.08 0,106.031 0,106.031 L11.8661,120.469 L26.6886,107.475 C30.9157,106.708 37.1993,105.408 38.9698,104.162 C41.7081,102.236 47.3224,98.7955 49.239,98.3825 C51.1556,97.9696 51.9773,94.804 48.555,94.4038 C46.7019,94.1867 42.4387,95.3724 38.9189,96.5049 C43.3642,91.9152 55.5458,79.317 56.9076,77.7545 C58.5743,75.8343 56.8081,72.805 53.733,74.6528 Z"/>
  </g>
</svg>
