<svg xmlns="http://www.w3.org/2000/svg" xmlns:xlink="http://www.w3.org/1999/xlink" viewBox="0 0 373 54" preserveAspectRatio="none">
  <defs>
    <rect id="home-dot-a" width="374" height="237" x="0" y="0"/>
  </defs>
  <g fill="none" fill-rule="evenodd" transform="translate(-1 -82)">
    <mask id="home-dot-b" fill="#fff">
      <use xlink:href="#home-dot-a"/>
    </mask>
    <g mask="url(#home-dot-b)">
      <g transform="translate(-279)">
        <path stroke="#FFF" stroke-dasharray="6" stroke-width="1.1" d="M0.274,236.817 C15.658,194.328 64.378,104.308 188.145,82.3804 C257.4663,70.0988 317.1677,87.0991 415.051,124.082 C483.676,150.01 589.823,128.938 657.758,80.565 C725.693,32.1924 826.518,-2.1e-05 826.518,-2.1e-05"/>
        <g transform="translate(511 91)">
          <path fill="#FFF" fill-rule="nonzero" d="M67.174 24.032C66.886 22.507 66.012 21.187 64.712 20.314 63.413 19.443 61.843 19.124 60.294 19.415 59.522 19.56 58.803 19.847 58.163 20.258 57.297 18.335 56.653 16.653 56.342 15.812 56.415 15.791 56.501 15.767 56.591 15.741 56.848 16.1 57.195 16.515 57.489 16.631 57.613 16.679 57.738 16.702 57.855 16.698 58.013 16.692 58.161 16.639 58.282 16.539 58.4 16.443 58.483 16.311 58.517 16.172 58.725 16.191 58.937 16.124 59.077 16.017 59.215 15.913 59.296 15.767 59.31 15.607 59.552 15.617 59.758 15.518 59.882 15.329 59.896 15.308 59.904 15.285 59.916 15.263 60.221 15.277 60.591 15.384 60.704 15.796 60.736 15.914 60.87 16.514 60.314 16.722 59.667 16.964 59.374 16.98 59.379 16.98 59.119 16.98 58.909 17.19 58.91 17.447 58.911 17.703 59.121 17.911 59.38 17.909 59.385 17.908 59.392 17.908 59.401 17.909 59.511 17.904 59.9 17.87 60.644 17.591 61.459 17.284 61.856 16.446 61.611 15.549 61.397 14.764 60.702 14.309 59.779 14.33 59.758 14.296 59.736 14.263 59.711 14.229 59.382 13.779 58.547 13.58 58.133 13.507 58.118 13.492 58.103 13.477 58.087 13.464 58.049 13.438 55.292 11.429 53.242 9.893 53.634 9.689 54.121 9.371 54.464 8.927 54.746 8.561 54.909 8.145 54.983 7.7145L55.415 7.7321C55.428 7.7334 55.44 7.7331 55.452 7.7328 55.694 7.7234 55.894 7.5321 55.905 7.2874 55.917 7.0306 55.717 6.8143 55.457 6.8024L55.002 6.7835C54.942 6.2819 54.775 5.8001 54.538 5.3977 54.537 5.396 54.537 5.396 54.537 5.3943 54.518 5.0628 54.387 3.8951 53.453 2.8224 52.37 1.5751 50.644.9111 48.325.8459 46.854.8049 46.011 1.0887 45.748 1.7155 45.55 2.1858 45.737 2.7387 46.263 3.2313 46.345 3.3079 46.43 3.3785 46.518 3.4435 45.925 3.3159 45.177 3.1119 44.599 2.9558 43.277 2.5966 41.91 2.2243 41.032 2.2035 39.995 2.1799 39.132 2.7131 38.838 3.5637 38.704 3.9485 38.414 5.3084 40.254 6.6418 41.875 7.8126 43.88 8.269 45.717 8.201 46.882 8.158 47.974 7.9041 48.862 7.4914 48.925 7.6611 49.004 7.8457 49.096 8.061 49.072 8.063 49.049 8.065 49.027 8.067 47.144 8.331 45.049 9.609 43.931 11.173 42.105 13.729 41.825 16.039 43.199 17.199 43.439 17.402 43.684 17.567 43.93 17.708L43.432 17.769 43.401 17.774C42.847 17.878 42.477 18.474 42.558 19.126 42.598 19.456 42.785 19.765 43.074 19.973 43.29 20.129 43.536 20.209 43.777 20.2 43.826 20.199 43.874 20.192 43.921 20.184L45.523 19.832 46.488 21.035 45.493 22.85C44.62 22.594 43.674 22.534 42.717 22.714 39.682 23.284 37.62 26.053 37.918 29.02L34.127 29.622 33.373 25.617C33.354 25.515 33.3 25.423 33.224 25.356L31.14 23.349C31.023 23.237 30.855 23.192 30.697 23.233L29.351 23.575 28.104 19.695 28.166 19.688C28.289 19.672 28.403 19.608 28.48 19.51 28.556 19.413 28.591 19.287 28.574 19.165L27.844 13.709C27.844 13.709 27.844 13.709 27.844 13.707 27.836 13.648 27.816 13.594 27.788 13.543 27.788 13.543 27.788 13.543 27.788 13.541 27.788 13.541 27.788 13.541 27.788 13.54 27.788 13.54 27.788 13.54 27.787 13.538L27.787 13.536C27.787 13.536 27.787 13.536 27.787 13.534 27.787 13.534 27.787 13.534 27.787 13.533 27.787 13.533 27.787 13.533 27.786 13.531 27.763 13.493 27.734 13.458 27.701 13.429 27.701 13.429 27.701 13.429 27.701 13.428 27.701 13.428 27.701 13.428 27.7 13.426 27.7 13.426 27.7 13.426 27.7 13.424 27.7 13.424 27.7 13.424 27.7 13.423 27.7 13.423 27.7 13.423 27.699 13.421 27.636 13.366 27.559 13.328 27.474 13.313 27.474 13.313 27.474 13.313 27.473 13.313 27.473 13.313 27.473 13.313 27.471 13.313L27.469 13.314C27.469 13.314 27.469 13.314 27.468 13.314 27.468 13.314 27.468 13.314 27.466 13.314 27.466 13.314 27.466 13.314 27.464 13.315L27.462 13.315C27.462 13.315 27.462 13.315 27.461 13.315 27.416 13.309 27.37 13.308 27.324 13.314 27.322 13.314 27.32 13.314 27.319 13.315L19.853 14.391C19.727 14.409 19.614 14.478 19.538 14.581 19.464 14.683 19.433 14.812 19.456 14.936L20.417 20.215C20.425 20.266 20.442 20.315 20.467 20.358 20.467 20.358 20.467 20.358 20.467 20.359 20.5 20.416 20.543 20.466 20.596 20.506 20.653 20.548 20.72 20.579 20.794 20.592 20.794 20.592 20.794 20.592 20.796 20.592 20.843 20.6 20.892 20.602 20.942 20.595L23.386 20.291 18.056 22.021C17.931 22.061 17.831 22.151 17.775 22.268 17.719 22.385 17.717 22.52 17.765 22.639L19.247 26.242 15.423 27.114C15.418 27.115 15.414 27.116 15.41 27.118 15.362 27.13 15.317 27.149 15.277 27.173 15.215 27.212 15.162 27.264 15.122 27.329 15.111 27.347 15.101 27.368 15.093 27.386 15.059 27.465 15.049 27.55 15.059 27.63 15.406 30.501 15.925 34.86 15.947 35.231 15.947 35.25 15.948 35.269 15.95 35.288 15.958 35.357 15.979 35.423 16.015 35.479 16.051 35.538 16.1 35.59 16.161 35.627 16.194 35.649 16.23 35.665 16.269 35.678L19.018 36.63C19.021 36.631 19.025 36.632 19.029 36.633 19.029 36.633 19.029 36.633 19.03 36.633 19.119 36.661 19.212 36.661 19.296 36.639L21.56 36.066C22.164 38.346 24.297 39.887 26.645 39.801 26.898 39.792 27.154 39.765 27.409 39.717 28.744 39.467 29.903 38.715 30.671 37.603 31.438 36.493 31.726 35.153 31.476 33.831 31.459 33.744 31.442 33.659 31.42 33.574L34.294 32.847C34.534 32.786 34.686 32.551 34.64 32.31L34.306 30.538 38.091 29.938C38.793 32.56 41.261 34.331 43.98 34.232 44.276 34.22 44.574 34.188 44.873 34.132 47.447 33.648 49.321 31.582 49.65 29.156 49.717 29.24 49.786 29.321 49.862 29.393 50.323 29.836 50.952 30.06 51.675 30.042 51.691 30.042 51.707 30.042 51.722 30.041 53.288 29.985 54.3 29.04 54.373 27.569 54.422 26.548 54.021 25.922 53.673 25.575L57.023 20.009C57.143 20.282 57.267 20.563 57.397 20.848 57.066 21.148 56.766 21.485 56.506 21.86 55.612 23.144 55.279 24.691 55.564 26.216 56.101 29.069 58.688 31.037 61.55 30.933 61.847 30.921 62.144 30.888 62.444 30.833 65.644 30.228 67.765 27.179 67.174 24.032zM30.675 24.202L31.957 25.435 30.079 25.834 29.639 24.465 30.675 24.202zM21.261 19.614L20.466 15.238 26.981 14.299 27.586 18.825 21.261 19.614zM18.821 22.744L27.221 20.018 28.587 24.265C28.59 24.277 28.594 24.286 28.597 24.298L29.155 26.032 20.893 27.785 18.821 22.744zM19.6 27.11L19.958 27.982 17.994 28.398 16.812 27.745 19.6 27.11zM16.851 34.892C16.791 34.281 16.611 32.69 16.095 28.415L17.491 29.186 18.571 35.487 16.851 34.892zM29.89 37.079C29.264 37.985 28.319 38.596 27.231 38.801 27.022 38.84 26.814 38.864 26.608 38.871 24.698 38.94 22.96 37.687 22.467 35.834L30.505 33.804C30.521 33.87 30.534 33.937 30.547 34.005 30.751 35.08 30.517 36.174 29.89 37.079zM22.329 34.911C22.266 32.923 23.678 31.122 25.713 30.739 25.922 30.699 26.134 30.675 26.343 30.668 27.22 30.635 28.08 30.879 28.818 31.378 29.409 31.777 29.873 32.309 30.184 32.926L22.329 34.911zM31.112 32.691C30.736 31.856 30.131 31.139 29.348 30.609 28.228 29.852 26.875 29.574 25.541 29.824 22.975 30.307 21.216 32.626 21.4 35.144L19.548 35.613 18.458 29.251 32.541 26.263 33.633 32.054 31.112 32.691zM59.047 14.711C59.063 14.735 59.079 14.756 59.091 14.777 58.854 14.784 58.699 14.884 58.612 14.982 58.529 15.074 58.481 15.186 58.465 15.31 58.316 15.275 58.159 15.303 58.023 15.391 57.87 15.49 57.763 15.657 57.725 15.832 57.595 15.716 57.379 15.453 57.175 15.154L58.016 14.316C58.454 14.396 58.936 14.56 59.047 14.711zM53.714 5.8586C54.14 6.5675 54.256 7.6683 53.714 8.37 53.381 8.8 52.817 9.085 52.511 9.217 52.099 8.93 51.221 8.329 50.814 8.128 50.503 7.9721 50.202 7.8613 50.005 7.7955 49.87 7.4817 49.767 7.2424 49.697 7.0356 51.171 6.1223 52.43 5.7515 53.714 5.8586zM40.815 5.8956C39.761 5.1343 39.564 4.3488 39.731 3.8682 39.881 3.4338 40.321 3.1605 40.893 3.1408 40.931 3.1396 40.971 3.1397 41.01 3.1402 41.772 3.1579 43.141 3.5316 44.349 3.8597 46.749 4.513 47.825 4.7745 48.16 4.1061 48.431 3.5751 47.883 3.2283 47.485 2.9744 47.29 2.8509 47.07 2.7109 46.912 2.564 46.661 2.3288 46.594 2.1301 46.615 2.0797 46.617 2.076 46.799 1.7419 48.297 1.7854 52.251 1.8952 53.259 3.8678 53.515 4.9156 52.062 4.8594 50.647 5.3189 49.01 6.3671 47.076 7.6022 43.323 7.7082 40.815 5.8956zM44.702 11.713C45.665 10.366 47.539 9.222 49.16 8.994 49.692 8.918 50.433 8.913 50.933 9.312 52.235 10.347 55.74 12.915 57.041 13.864L56.549 14.26 51.033 10.836C50.845 10.719 50.598 10.75 50.444 10.909L47.401 14.056 43.392 14.405C43.573 13.606 44.015 12.677 44.702 11.713zM43.301 15.348L47.345 14.997C47.797 15.264 51.746 17.605 52.332 17.939 52.732 18.166 52.736 18.778 52.605 19.275 52.46 19.828 51.488 22.19 51.125 23.052 51.073 23.174 51.077 23.31 51.133 23.429 51.19 23.548 51.294 23.636 51.42 23.676 51.889 23.817 52.648 24.123 52.867 24.364 52.88 24.378 52.91 24.412 52.863 24.507 52.803 24.623 52.677 24.708 52.608 24.701 52.375 24.681 51.228 24.275 50.161 23.863L51.409 19.25C51.476 19.003 51.328 18.75 51.08 18.683 51.064 18.679 49.326 18.207 47.489 17.773 47.178 17.701 46.876 17.642 46.584 17.585 45.549 17.384 44.655 17.21 43.813 16.498 43.498 16.229 43.331 15.832 43.301 15.348zM50.576 26.124L51.225 26.934 50.01 27.077C50.062 26.616 50.292 26.317 50.576 26.124zM52.047 26.458L51.519 25.799C51.6 25.789 51.674 25.783 51.738 25.78 51.968 25.767 52.194 25.8 52.402 25.869L52.047 26.458zM47.994 21.41L49.957 21.025 49.384 23.142 47.994 21.41zM43.743 19.276C43.677 19.273 43.513 19.16 43.496 19.016 43.475 18.849 43.545 18.716 43.575 18.694L45.941 18.404C46.094 18.436 46.248 18.465 46.4 18.495 46.525 18.519 46.652 18.545 46.779 18.57 46.762 18.596 46.73 18.62 46.675 18.631L43.743 19.276zM46.863 19.543C47.285 19.464 47.603 19.155 47.702 18.78 48.804 19.046 49.821 19.31 50.381 19.457L50.227 20.024 47.336 20.591 46.549 19.612 46.863 19.543zM47.128 21.829L49.994 25.399C49.683 25.625 49.444 25.912 49.285 26.25 48.733 24.884 47.681 23.807 46.383 23.189L47.128 21.829zM48.619 27.243L43.85 27.808 45.933 24.009C47.239 24.615 48.257 25.776 48.619 27.243zM44.699 33.218C42.01 33.725 39.413 31.984 38.915 29.342 38.417 26.699 40.202 24.136 42.893 23.631 43.145 23.584 43.396 23.555 43.646 23.546 44.123 23.529 44.59 23.58 45.038 23.692L42.592 28.154C42.509 28.307 42.517 28.493 42.615 28.636 42.705 28.768 42.858 28.845 43.019 28.839 43.031 28.838 43.045 28.838 43.057 28.836L48.752 28.162C48.871 30.562 47.167 32.753 44.699 33.218zM53.433 27.526C53.367 28.869 52.29 29.098 51.654 29.111 51.181 29.123 50.797 28.991 50.515 28.721 50.325 28.54 50.188 28.294 50.1 28.004L52.139 27.762C52.15 27.76 52.16 27.757 52.17 27.755 52.254 27.746 52.337 27.715 52.41 27.658 52.496 27.59 52.551 27.497 52.573 27.398L53.161 26.42C53.361 26.711 53.454 27.08 53.433 27.526zM53.634 23.823C53.613 23.795 53.592 23.765 53.568 23.738 53.257 23.395 52.635 23.116 52.184 22.947 52.458 22.286 52.962 21.057 53.272 20.219L56.103 19.718 53.634 23.823zM53.575 19.221C53.737 18.287 53.453 17.501 52.803 17.129 52.326 16.857 49.472 15.169 48.297 14.473L50.855 11.825 55.915 14.965C55.909 14.966 55.9 14.969 55.894 14.97 55.787 14.92 55.659 14.909 55.538 14.952 55.293 15.036 55.162 15.301 55.246 15.544 55.253 15.562 55.707 16.869 56.47 18.708L53.575 19.221zM62.271 29.917C59.58 30.424 56.985 28.683 56.487 26.04 56.246 24.761 56.526 23.462 57.278 22.384 57.439 22.152 57.619 21.938 57.814 21.739 59.219 24.567 61.026 25.738 61.104 25.788 61.189 25.841 61.282 25.864 61.374 25.86 61.522 25.854 61.668 25.78 61.754 25.646 61.895 25.429 61.832 25.142 61.614 25.003 61.597 24.992 59.863 23.866 58.556 21.117 59.123 20.73 59.768 20.461 60.465 20.33 60.719 20.282 60.972 20.253 61.226 20.245 62.275 20.206 63.303 20.497 64.184 21.086 65.275 21.819 66.01 22.927 66.251 24.206 66.747 26.849 64.962 29.411 62.271 29.917zM11.321 31.826L3.584 33.184C3.328 33.228 3.157 33.47 3.201 33.723 3.238 33.934 3.412 34.085 3.617 34.104 3.658 34.108 3.702 34.107 3.744 34.098L11.482 32.741C11.737 32.696 11.909 32.454 11.865 32.201 11.821 31.949 11.577 31.781 11.321 31.826zM9.374 34.811L.818 36.433C.563 36.481.395 36.724.443 36.978.484 37.186.656 37.334.859 37.354.902 37.359.947 37.356.993 37.347L9.549 35.725C9.804 35.677 9.971 35.434 9.924 35.18 9.876 34.927 9.629 34.762 9.374 34.811z"/>
          <path fill="#FFF" fill-rule="nonzero" d="M53.153,7.0331 C53.362,6.9981 53.502,6.8029 53.468,6.5971 C53.433,6.3912 53.236,6.2526 53.028,6.2876 C52.82,6.3225 52.679,6.5177 52.714,6.7236 C52.748,6.9295 52.945,7.068 53.153,7.0331 Z"/>
        </g>
        <g transform="translate(410 108)">
          <path fill="#FFF" fill-rule="nonzero" d="M77.934,20.337 L77.143,14.647 C77.142,14.631 77.139,14.614 77.136,14.599 C77.103,14.405 76.963,14.244 76.773,14.18 L65.489,10.374 L58.69,4.512 C58.624,4.456 58.547,4.416 58.467,4.396 C58.392,4.325 58.295,4.277 58.188,4.257 L38.63,0.839 C38.474,0.811 38.314,0.852 38.193,0.951 L34.713,3.743 C34.654,3.789 34.607,3.847 34.575,3.911 L31.776,6.765 C31.757,6.76 31.736,6.755 31.716,6.751 L23.009,5.339 C22.844,5.312 22.675,5.363 22.554,5.473 L16.805,10.703 C16.628,10.767 16.491,10.917 16.458,11.111 L15.483,16.601 C15.458,16.741 15.49,16.886 15.574,17.003 C15.656,17.12 15.784,17.199 15.925,17.224 L25.82,18.974 C25.727,19.191 25.66,19.425 25.625,19.67 C25.395,21.235 26.501,22.698 28.09,22.933 C29.679,23.165 31.158,22.084 31.388,20.52 C31.414,20.333 31.425,20.146 31.414,19.961 L51.831,23.565 C51.717,23.81 51.639,24.072 51.598,24.346 C51.368,25.911 52.474,27.374 54.062,27.609 C54.154,27.622 54.243,27.631 54.335,27.637 C55.816,27.717 57.143,26.672 57.36,25.198 C57.392,24.981 57.399,24.766 57.381,24.552 L71.199,26.991 C71.375,27.023 71.554,26.967 71.679,26.842 L77.78,20.79 C77.901,20.67 77.956,20.502 77.934,20.337 Z M64.359,10.819 L58.882,15.008 L54.103,7.749 L58.091,5.415 L64.359,10.819 Z M47.778,11.166 L47.574,9.859 L48.152,9.948 C48.334,9.976 48.516,9.886 48.6,9.724 L48.921,9.1 L49.612,9.402 C49.781,9.475 49.975,9.436 50.1,9.304 L50.464,8.918 L51.119,9.345 C51.284,9.452 51.503,9.435 51.648,9.303 L51.676,9.276 L51.884,10.128 C51.236,10.106 50.172,10.148 49.17,10.527 C48.541,10.762 48.091,10.985 47.778,11.166 Z M48.516,13.828 C48.514,13.824 48.515,13.821 48.514,13.817 C48.32,13.195 48.037,12.273 48.001,12.125 C47.996,12.097 47.989,12.073 47.978,12.047 C48.217,11.886 48.681,11.619 49.481,11.317 C50.523,10.925 51.678,10.957 52.154,10.991 C52.501,11.993 52.651,13.212 52.043,13.678 C51.63,13.996 51.345,14.169 51.189,14.254 L48.516,13.828 Z M52.574,14.348 C53.124,13.927 53.307,13.283 53.317,12.633 L53.986,12.582 C54.223,12.565 54.398,12.361 54.379,12.127 C54.36,11.893 54.155,11.718 53.916,11.737 L53.247,11.788 C53.172,11.345 53.05,10.947 52.956,10.681 C52.936,10.623 52.901,10.572 52.862,10.529 C52.86,10.518 52.86,10.507 52.858,10.496 L52.342,8.374 C52.307,8.226 52.193,8.109 52.048,8.066 C51.902,8.022 51.743,8.058 51.63,8.159 L51.309,8.453 L50.632,8.012 C50.457,7.898 50.222,7.925 50.081,8.077 L49.679,8.503 L48.897,8.163 C48.687,8.07 48.445,8.156 48.342,8.357 L47.977,9.064 L47.128,8.933 C46.991,8.912 46.855,8.955 46.758,9.05 C46.662,9.145 46.617,9.28 46.638,9.414 L47.035,11.973 C47.049,12.059 47.09,12.134 47.146,12.195 C47.146,12.196 47.146,12.196 47.146,12.198 C47.148,12.266 47.149,12.315 47.571,13.679 L45.306,13.318 L46.759,6.758 L52.866,7.831 C52.876,7.849 52.886,7.868 52.898,7.885 L57.784,15.305 L52.435,14.452 C52.479,14.418 52.525,14.385 52.574,14.348 Z M44.228,13.145 L42.82,12.921 L44.28,6.322 L45.683,6.567 L44.228,13.145 Z M38.69,1.938 L56.558,5.061 L53.496,6.853 L36.323,3.837 L38.69,1.938 Z M35.276,4.741 L43.208,6.134 L41.745,12.749 L29.361,10.775 L35.276,4.741 Z M23.099,6.44 L30.86,7.699 L27.851,10.77 C27.711,10.914 27.663,11.122 27.727,11.313 C27.792,11.503 27.958,11.641 28.159,11.674 L41.886,13.861 C41.933,13.889 41.987,13.911 42.042,13.922 C42.12,13.938 42.2,13.938 42.274,13.923 L44.511,14.28 C44.518,14.281 44.527,14.284 44.534,14.285 C44.564,14.292 44.593,14.295 44.622,14.298 L58.383,16.489 C58.576,16.521 58.759,16.449 58.877,16.314 C58.952,16.297 59.022,16.263 59.083,16.217 L65.317,11.45 L75.467,14.875 L67.965,20.62 L18.212,10.887 L23.099,6.44 Z M30.308,20.362 C30.165,21.341 29.239,22.018 28.245,21.872 C27.25,21.725 26.559,20.809 26.702,19.83 C26.751,19.5 26.888,19.203 27.088,18.961 C27.105,18.944 27.121,18.925 27.138,18.904 C27.532,18.465 28.134,18.228 28.766,18.32 C29.247,18.391 29.674,18.643 29.966,19.028 C30.057,19.149 30.13,19.277 30.187,19.412 C30.198,19.459 30.216,19.505 30.239,19.547 C30.326,19.805 30.35,20.083 30.308,20.362 Z M56.283,25.036 C56.14,26.015 55.212,26.694 54.22,26.546 C53.225,26.4 52.534,25.484 52.677,24.505 C52.73,24.148 52.884,23.825 53.124,23.564 C53.135,23.553 53.144,23.542 53.155,23.531 C53.227,23.457 53.306,23.389 53.39,23.326 C53.78,23.041 54.262,22.922 54.741,22.995 C55.222,23.066 55.648,23.317 55.941,23.703 C56.016,23.804 56.082,23.911 56.133,24.023 C56.145,24.065 56.162,24.106 56.184,24.142 C56.293,24.424 56.328,24.731 56.283,25.036 Z M71.107,25.882 L57.031,23.398 C56.967,23.282 56.893,23.17 56.812,23.064 C56.347,22.449 55.667,22.047 54.898,21.934 C54.129,21.821 53.362,22.01 52.74,22.464 C52.679,22.509 52.619,22.555 52.562,22.604 L31.109,18.817 C31.032,18.669 30.943,18.525 30.839,18.388 C30.374,17.773 29.694,17.371 28.925,17.258 C28.01,17.125 27.13,17.426 26.506,18.005 L16.653,16.262 L17.441,11.824 L68.007,21.715 C68.161,21.744 68.322,21.709 68.446,21.613 L76.193,15.682 L76.824,20.216 L71.107,25.882 Z"/>
          <path fill="#FFF" fill-rule="nonzero" d="M51.414 12.367C51.633 12.408 51.842 12.266 51.881 12.051 51.922 11.836 51.777 11.629 51.558 11.59 51.34 11.548 51.13 11.69 51.091 11.906 51.051 12.119 51.196 12.326 51.414 12.367zM70.843 21.914C70.526 21.855 70.223 22.059 70.165 22.371 70.107 22.683 70.316 22.983 70.633 23.042 70.95 23.101 71.252 22.896 71.311 22.584 71.369 22.274 71.16 21.973 70.843 21.914zM74.978 18.738C74.661 18.679 74.358 18.884 74.3 19.196 74.241 19.508 74.451 19.808 74.768 19.867 75.084 19.926 75.387 19.721 75.446 19.409 75.504 19.099 75.295 18.797 74.978 18.738zM8.577 8.246L.655 5.878C.393 5.799.118 5.945.041 6.203-.023 6.418.07 6.641.254 6.756.29 6.778.332 6.799.376 6.81L8.299 9.179C8.56 9.257 8.835 9.111 8.913 8.854 8.988 8.597 8.839 8.325 8.577 8.246zM10.686 11.768L1.868 9.262C1.606 9.187 1.333 9.336 1.259 9.596 1.199 9.81 1.292 10.03 1.474 10.144 1.512 10.169 1.556 10.188 1.603 10.201L10.42 12.707C10.683 12.782 10.955 12.633 11.03 12.373 11.102 12.114 10.948 11.843 10.686 11.768z"/>
        </g>
      </g>
    </g>
  </g>
</svg>
