<svg xmlns="http://www.w3.org/2000/svg" width="984" height="305" viewBox="0 0 984 305">
  <g fill="none">
    <polygon fill="#D3D9E5" points="668.86 72.195 616.109 72.195 616.109 124.277 668.86 124.277"/>
    <polygon fill="#D3D9E5" points="636.411 105.571 625.179 105.571 625.179 124.841 636.411 124.841"/>
    <path fill="#FFF" d="M637.028,125.468 L624.557,125.468 L624.557,104.939 L637.028,104.939 L637.028,125.468 Z M625.795,124.208 L635.789,124.208 L635.789,106.199 L625.795,106.199 L625.795,124.208 Z"/>
    <polygon fill="#D3D9E5" points="658.082 79.53 648.35 79.53 648.35 94.632 658.082 94.632"/>
    <path fill="#FFF" d="M658.699,95.2644 L647.728,95.2644 L647.728,78.903 L658.699,78.903 L658.699,95.2644 Z M648.966,94.0046 L657.46,94.0046 L657.46,80.1574 L648.966,80.1574 L648.966,94.0046 Z"/>
    <polygon fill="#FFF" points="658.239 86.451 648.182 86.451 648.182 87.711 658.239 87.711"/>
    <polygon fill="#D3D9E5" points="635.669 79.53 625.937 79.53 625.937 94.632 635.669 94.632"/>
    <path fill="#FFF" d="M636.286,95.2644 L625.314,95.2644 L625.314,78.903 L636.286,78.903 L636.286,95.2644 Z M626.553,94.0046 L635.047,94.0046 L635.047,80.1574 L626.553,80.1574 L626.553,94.0046 Z"/>
    <polygon fill="#FFF" points="635.821 86.451 625.764 86.451 625.764 87.711 635.821 87.711"/>
    <polygon fill="#D3D9E5" points="658.082 105.571 648.35 105.571 648.35 120.673 658.082 120.673"/>
    <path fill="#FFF" d="M658.699,121.3 L647.728,121.3 L647.728,104.939 L658.699,104.939 L658.699,121.3 Z M648.966,120.046 L657.46,120.046 L657.46,106.204 L648.966,106.204 L648.966,120.046 Z"/>
    <polygon fill="#FFF" points="658.239 112.492 648.182 112.492 648.182 113.752 658.239 113.752"/>
    <polygon fill="#D3D9E5" points="671.74 67.453 613.229 67.453 613.229 72.094 671.74 72.094"/>
    <path fill="#FFF" d="M672.488,72.8538 L612.487,72.8538 L612.487,66.6981 L672.488,66.6981 L672.488,72.8538 Z M613.977,71.3335 L670.993,71.3335 L670.993,68.2131 L613.977,68.2131 L613.977,71.3335 Z"/>
    <polygon fill="#D3D9E5" points="624.211 123.06 87.626 123.06 87.626 124.708 624.211 124.708"/>
    <polygon fill="#D3D9E5" points="814.326 123.06 678.007 123.06 678.007 124.708 814.326 124.708"/>
    <path fill="#E8EBEE" d="M532.677,180.32 L321.303,180.32 C319.861,180.32 318.69,179.129 318.69,177.662 C318.69,176.195 319.861,175.004 321.303,175.004 L532.677,175.004 C534.12,175.004 535.29,176.195 535.29,177.662 C535.29,179.129 534.12,180.32 532.677,180.32 Z"/>
    <path fill="#D3D9E5" d="M311.586,124.5 L259.301,124.5 L259.301,45.5737 L311.586,45.5737 L311.586,124.5 Z M260.681,123.097 L310.206,123.097 L310.206,46.9771 L260.681,46.9771 L260.681,123.097 Z"/>
    <path fill="#D3D9E5" d="M326.556 124.5L310.191 124.5 310.191 45.5737 326.556 45.5737 326.556 124.5zM311.571 123.097L325.176 123.097 325.176 46.9771 311.571 46.9771 311.571 123.097zM277.167 94.451L267.439 94.451 267.439 77.3401 277.167 77.3401 277.167 94.451zM268.819 93.0424L275.787 93.0424 275.787 78.7434 268.819 78.7434 268.819 93.0424zM290.997 94.451L281.27 94.451 281.27 77.3401 290.997 77.3401 290.997 94.451zM282.65 93.0424L289.617 93.0424 289.617 78.7434 282.65 78.7434 282.65 93.0424zM304.823 94.451L295.095 94.451 295.095 77.3401 304.823 77.3401 304.823 94.451zM296.475 93.0424L303.443 93.0424 303.443 78.7434 296.475 78.7434 296.475 93.0424zM277.167 73.2258L267.439 73.2258 267.439 56.1147 277.167 56.1147 277.167 73.2258zM268.819 71.8172L275.787 71.8172 275.787 57.5181 268.819 57.5181 268.819 71.8172zM290.997 73.2258L281.27 73.2258 281.27 56.1147 290.997 56.1147 290.997 73.2258zM282.65 71.8172L289.617 71.8172 289.617 57.5181 282.65 57.5181 282.65 71.8172zM304.823 73.2258L295.095 73.2258 295.095 56.1147 304.823 56.1147 304.823 73.2258zM296.475 71.8172L303.443 71.8172 303.443 57.5181 296.475 57.5181 296.475 71.8172z"/>
    <path fill="#D3D9E5" d="M321.706 73.2258L315.323 73.2258 315.323 56.1147 321.706 56.1147 321.706 73.2258zM316.709 71.8172L320.326 71.8172 320.326 57.5181 316.709 57.5181 316.709 71.8172zM321.706 94.3767L315.323 94.3767 315.323 77.2656 321.706 77.2656 321.706 94.3767zM316.709 92.9734L320.326 92.9734 320.326 78.6743 316.709 78.6743 316.709 92.9734zM321.706 115.528L315.323 115.528 315.323 98.4165 321.706 98.4165 321.706 115.528zM316.709 114.124L320.326 114.124 320.326 99.8252 316.709 99.8252 316.709 114.124zM277.167 115.677L267.439 115.677 267.439 98.5653 277.167 98.5653 277.167 115.677zM268.819 114.268L275.787 114.268 275.787 99.9687 268.819 99.9687 268.819 114.268zM290.997 115.677L281.27 115.677 281.27 98.5653 290.997 98.5653 290.997 115.677zM282.65 114.268L289.617 114.268 289.617 99.9687 282.65 99.9687 282.65 114.268zM304.823 115.677L295.095 115.677 295.095 98.5653 304.823 98.5653 304.823 115.677zM296.475 114.268L303.443 114.268 303.443 99.9687 296.475 99.9687 296.475 114.268zM311.539 46.7751L255.94 46.7751 255.94 39.3971 311.539 39.3971 311.539 46.7751zM257.325 45.3665L310.159 45.3665 310.159 40.8004 257.325 40.8004 257.325 45.3665z"/>
    <path fill="#D3D9E5" d="M329.112 46.7751L310.175 46.7751 310.175 39.3971 329.112 39.3971 329.112 46.7751zM311.555 45.3665L327.727 45.3665 327.727 40.8004 311.555 40.8004 311.555 45.3665zM764.335 124.585L719.242 124.585 719.242 56.6143 764.335 56.6143 764.335 124.585zM720.627 123.182L762.955 123.182 762.955 58.0176 720.627 58.0176 720.627 123.182z"/>
    <path fill="#D3D9E5" d="M732.106 119.015L725.447 119.015 725.447 107.682 732.106 107.682 732.106 119.015zM726.827 117.606L730.721 117.606 730.721 109.08 726.827 109.08 726.827 117.606zM758.544 119.015L751.885 119.015 751.885 107.682 758.544 107.682 758.544 119.015zM753.265 117.606L757.159 117.606 757.159 109.08 753.265 109.08 753.265 117.606zM732.106 104.54L725.447 104.54 725.447 93.2073 732.106 93.2073 732.106 104.54zM726.827 103.132L730.721 103.132 730.721 94.6053 726.827 94.6053 726.827 103.132zM740.919 104.54L734.26 104.54 734.26 93.2073 740.919 93.2073 740.919 104.54zM735.64 103.132L739.534 103.132 739.534 94.6053 735.64 94.6053 735.64 103.132zM749.731 104.54L743.072 104.54 743.072 93.2073 749.731 93.2073 749.731 104.54zM744.452 103.132L748.346 103.132 748.346 94.6053 744.452 94.6053 744.452 103.132zM758.544 104.54L751.885 104.54 751.885 93.2073 758.544 93.2073 758.544 104.54zM753.265 103.132L757.159 103.132 757.159 94.6053 753.265 94.6053 753.265 103.132zM732.106 90.0604L725.447 90.0604 725.447 78.7275 732.106 78.7275 732.106 90.0604zM726.827 88.6571L730.721 88.6571 730.721 80.1309 726.827 80.1309 726.827 88.6571zM740.919 90.0604L734.26 90.0604 734.26 78.7275 740.919 78.7275 740.919 90.0604zM735.64 88.6571L739.534 88.6571 739.534 80.1309 735.64 80.1309 735.64 88.6571zM749.731 90.0604L743.072 90.0604 743.072 78.7275 749.731 78.7275 749.731 90.0604zM744.452 88.6571L748.346 88.6571 748.346 80.1309 744.452 80.1309 744.452 88.6571zM758.544 90.0604L751.885 90.0604 751.885 78.7275 758.544 78.7275 758.544 90.0604zM753.265 88.6571L757.159 88.6571 757.159 80.1309 753.265 80.1309 753.265 88.6571zM732.106 75.5858L725.447 75.5858 725.447 64.2529 732.106 64.2529 732.106 75.5858zM726.827 74.1825L730.721 74.1825 730.721 65.6563 726.827 65.6563 726.827 74.1825zM740.919 75.5858L734.26 75.5858 734.26 64.2529 740.919 64.2529 740.919 75.5858zM735.64 74.1825L739.534 74.1825 739.534 65.6563 735.64 65.6563 735.64 74.1825zM749.731 75.5858L743.072 75.5858 743.072 64.2529 749.731 64.2529 749.731 75.5858zM744.452 74.1825L748.346 74.1825 748.346 65.6563 744.452 65.6563 744.452 74.1825zM758.544 75.5858L751.885 75.5858 751.885 64.2529 758.544 64.2529 758.544 75.5858zM753.265 74.1825L757.159 74.1825 757.159 65.6563 753.265 65.6563 753.265 74.1825zM767.414 57.8423L716.169 57.8423 716.169 51.3093 767.414 51.3093 767.414 57.8423zM717.549 56.4336L766.034 56.4336 766.034 52.7073 717.549 52.7073 717.549 56.4336zM748.539 124.5L736.706 124.5 736.706 107.506 748.539 107.506 748.539 124.5zM738.091 123.097L747.16 123.097 747.16 108.915 738.091 108.915 738.091 123.097zM97.4732 29.1913C93.2864 29.1913 89.1362 27.9634 86.8102 26.3049 81.9804 22.8657 75.1592 22.5042 70.2197 25.4225 64.4283 28.8458 59.0288 28.5534 53.2216 24.5029 48.3605 21.1115 43.0081 21.1168 37.3107 24.5242 30.9756 28.3142 23.2292 27.8943 17.5789 23.4504 14.6361 21.1381 13.0105 17.9593 12.999957 14.4989 12.9896 10.7938 14.8661 7.08884 18.0179 4.59048 25.0953-1.02815 35.0474-.315856 40.818 3.2031 43.3688 4.76058 46.6095 6.19049 52.7773 3.46888 58.3179 1.029 64.5955-1.74045 71.0142 3.20841 76.9364 7.77455 81.6302 8.51875 86.2404 5.62172 94.2377.598436 101.122-1.16636 108.716 6.55727 111.089 8.97057 112.271 12.3088 112.036 15.9607 111.769 20.0803 109.72 24.0139 106.552 26.4909 104.101 28.4258 100.777 29.1913 97.4732 29.1913zM77.6891 21.3401C81.3271 21.3401 85.0069 22.4245 88.0071 24.5614 91.7183 27.2032 100.604 28.4737 105.288 24.8165 107.985 22.7062 109.73 19.352 109.96 15.8331 110.154 12.8032 109.192 10.0496 107.248 8.07222 100.599 1.31072 94.7029 2.82038 87.3485 7.43968 81.9648 10.8204 76.3771 10.0178 69.7598 4.90943 64.7053 1.01306 59.8808 2.66622 53.6189 5.42504 46.8761 8.39649 42.9663 6.99316 39.7517 5.03168 34.577 1.87419 25.6546 1.23631 19.309 6.27023 16.6642 8.36991 15.0908 11.4424 15.0960867 14.4989 15.1013 17.3268 16.4028 19.8411 18.8595 21.7707 23.8303 25.6776 30.6568 26.0391 36.2496 22.6902 42.6109 18.8842 48.8885 18.9002 54.4029 22.7487 59.5306 26.3262 64.0833 26.5813 69.1639 23.5833 71.7094 22.0843 74.6836 21.3401 77.6891 21.3401zM519.824 100.102C519.678 100.102 519.531 100.096 519.39 100.091 514.942 99.8464 511.592 96.4178 511.592 92.1122 511.592 91.8676 511.602 91.6178 511.628 91.368 505.492 90.9534 500.62 85.744 500.62 79.4025 500.62 73.4702 504.817 68.5054 510.494 67.5646 510.844 60.6383 516.494 55.1154 523.389 55.1154 528.814 55.1154 533.66 58.6077 535.505 63.732 536.864 63.0835 538.343 62.7433 539.843 62.7433 545.494 62.7433 550.088 67.4157 550.088 73.1619 550.088 77.7706 547.083 81.8211 542.812 83.134 543.183 84.3726 543.371 85.643 543.371 86.9241 543.371 94.148 537.564 100.059 530.424 100.091 530.409 100.091 530.398 100.091 530.382 100.091 528.464 100.091 525.694 99.4052 524.863 99.1873 524.115 99.4265 521.815 100.102 519.824 100.102zM512.59 89.7095C512.836 89.7095 513.071 89.8211 513.228 90.0178 513.39 90.2198 513.447 90.4803 513.395 90.7301 513.29 91.1979 513.238 91.6603 513.238 92.1122 513.238 95.5088 515.919 98.2198 519.479 98.4165 521.173 98.5069 523.551 97.8743 524.57 97.5235 524.727 97.4703 524.894 97.465 525.051 97.5075 525.082 97.5182 528.37 98.4165 530.377 98.4165 530.388 98.4165 530.398 98.4165 530.409 98.4165 536.644 98.3846 541.715 93.2284 541.715 86.9241 541.715 85.542 541.464 84.1706 540.967 82.8417 540.883 82.6131 540.899 82.3526 541.014 82.14 541.129 81.9221 541.333 81.7733 541.568 81.7201 545.541 80.8909 548.426 77.2922 548.426 73.1566 548.426 68.3353 544.568 64.4124 539.828 64.4124 538.286 64.4124 536.765 64.843 535.432 65.6563 535.212 65.7892 534.94 65.8104 534.705 65.7147 534.465 65.619 534.287 65.4117 534.219 65.1619 532.865 60.229 528.412 56.7898 523.384 56.7898 517.174 56.7898 512.125 61.93 512.125 68.245 512.125 68.245 512.125 68.2715 512.125 68.3034 512.125 68.734 511.806 69.0955 511.382 69.138 506.187 69.6696 502.267 74.0815 502.267 79.4025 502.267 85.0902 506.819 89.7201 512.412 89.7201 512.496 89.7095 512.538 89.7042 512.59 89.7095z"/>
    <path fill="#D3D9E5" d="M524.993,124.266 C524.539,124.266 524.167,123.889 524.167,123.427 L524.167,91.3362 C524.167,91.1395 524.235,90.9481 524.361,90.794 L533.722,79.4876 C534.015,79.1314 534.538,79.0889 534.883,79.3866 C535.233,79.6843 535.275,80.2159 534.982,80.5667 L525.814,91.6391 L525.814,123.427 C525.819,123.889 525.448,124.266 524.993,124.266 Z"/>
    <path fill="#D3D9E5" d="M525.077,92.1707 C524.873,92.1707 524.674,92.0962 524.512,91.9474 L514.613,82.5494 C514.278,82.2357 514.262,81.7042 514.571,81.364 C514.879,81.0238 515.402,81.0078 515.736,81.3215 L525.641,90.7248 C525.976,91.0384 525.992,91.57 525.683,91.9102 C525.516,92.0856 525.296,92.1707 525.077,92.1707 Z"/>
    <path fill="#00ADA8" d="M527.215 244.076C526.713 244.076 526.305 243.661 526.299954 243.151 526.295 242.635 526.702 242.215 527.209 242.215L554.85 242.013 554.855 242.013C555.357 242.013 555.764 242.428 555.770045 242.938 555.775 243.454 555.367 243.874 554.86 243.874L527.22 244.076C527.22 244.076 527.22 244.076 527.215 244.076zM515.982 253.33C515.485 253.33 515.078 252.926 515.066817 252.416 515.057 251.9 515.459 251.48 515.966 251.47L546.486 250.906C546.993 250.917 547.406 251.305 547.417183 251.82 547.427 252.336 547.025 252.756 546.518 252.767L515.997 253.33C515.992 253.33 515.987 253.33 515.982 253.33zM519.552 233.891C519.055 233.891 518.647 233.487 518.63678 232.977 518.626 232.461 519.029 232.041 519.536 232.031L550.056 231.467C550.563 231.467 550.976 231.866 550.987183 232.381 550.997 232.897 550.595 233.317 550.088 233.328L519.567 233.891C519.562 233.891 519.557 233.891 519.552 233.891z"/>
    <path fill="#1F4847" d="M461.067,253.426 C456.431,253.426 452.469,252.506 449.218,250.662 C446.045,248.865 443.604,246.409 441.853,243.666 C440.353,244.203 438.711,244.655 436.929,245.011 C418.572,248.674 405.609,229.064 405.484,228.868 C405.243,228.501 405.342,228.006 405.708,227.762 C406.069,227.517 406.555,227.624 406.796,227.99 C406.921,228.182 419.314,246.903 436.631,243.448 C438.22,243.129 439.689,242.736 441.032,242.268 C438.529,237.633 437.844,232.413 438.764,228.272 C439.783,223.69 442.715,220.809 446.609,220.554 C450.911,220.278 454.189,223.095 454.753,227.565 C455.433,232.923 452.03,239.446 443.348,243.087 C444.958,245.5 447.158,247.669 449.981,249.269 C462.912,256.594 485.252,245.745 485.477,245.638 C485.864,245.447 486.334,245.612 486.523,246.01 C486.711,246.409 486.549,246.882 486.157,247.074 C486.099,247.1 480.303,249.939 472.932,251.794 C468.599,252.884 464.632,253.426 461.067,253.426 Z M447.169,222.133 C447.017,222.133 446.866,222.138 446.709,222.149 C443.499,222.356 441.163,224.716 440.29,228.628 C439.428,232.498 440.102,237.399 442.511,241.715 C450.613,238.414 453.812,232.557 453.201,227.773 C452.762,224.349 450.368,222.133 447.169,222.133 Z"/>
    <path fill="#D3D9E5" d="M566.835,124.607 L549.304,124.607 C548.87,124.607 548.52,124.251 548.52,123.809 L548.52,100.734 L546.105,100.734 C545.812,100.734 545.546,100.569 545.41,100.309 C545.274,100.049 545.29,99.7296 545.457,99.485 L557.291,81.8265 C557.338,81.4331 557.667,81.1301 558.069,81.1301 L591.172,81.1301 C591.428,81.1301 591.674,81.2577 591.82,81.4756 L603.952,99.485 C604.114,99.7296 604.135,100.043 603.999,100.309 C603.863,100.569 603.596,100.734 603.304,100.734 L567.619,100.734 L567.619,123.809 C567.619,124.251 567.269,124.607 566.835,124.607 Z M550.088,123.012 L566.051,123.012 L566.051,99.9369 C566.051,99.4957 566.401,99.1395 566.835,99.1395 L568.555,99.1395 L558.069,83.5009 L547.584,99.1395 L549.304,99.1395 C549.738,99.1395 550.088,99.4957 550.088,99.9369 L550.088,123.012 Z M575.737,99.1342 L601.814,99.1342 L590.759,82.7195 L559.449,82.7195 L570.452,99.1342 L575.737,99.1342 Z"/>
    <path fill="#D3D9E5" d="M601.234,124.607 L566.835,124.607 C566.401,124.607 566.051,124.251 566.051,123.809 C566.051,123.368 566.401,123.012 566.835,123.012 L600.449,123.012 L600.449,100.213 C600.449,99.7722 600.8,99.416 601.234,99.416 C601.667,99.416 602.018,99.7722 602.018,100.213 L602.018,123.809 C602.018,124.251 601.667,124.607 601.234,124.607 Z"/>
    <path fill="#D3D9E5" d="M596.389 115.443L591.182 115.443C590.749 115.443 590.398 115.086 590.398 114.645L590.398 106.619C590.398 106.177 590.749 105.821 591.182 105.821L596.389 105.821C596.822 105.821 597.173 106.177 597.173 106.619L597.173 114.645C597.173 115.081 596.822 115.443 596.389 115.443zM591.961 113.848L595.599 113.848 595.599 107.416 591.961 107.416 591.961 113.848zM578.151 115.299L572.945 115.299C572.511 115.299 572.161 114.943 572.161 114.502L572.161 106.47C572.161 106.029 572.511 105.672 572.945 105.672L578.151 105.672C578.585 105.672 578.935 106.029 578.935 106.47L578.935 114.502C578.935 114.943 578.58 115.299 578.151 115.299zM573.724 113.704L577.362 113.704 577.362 107.267 573.724 107.267 573.724 113.704zM588.652 124.681L581.251 124.681C580.817 124.681 580.467 124.325 580.467 123.884L580.467 106.31C580.467 105.869 580.817 105.513 581.251 105.513L588.652 105.513C589.086 105.513 589.436 105.869 589.436 106.31L589.436 123.884C589.436 124.325 589.081 124.681 588.652 124.681zM582.035 123.087L587.868 123.087 587.868 107.108 582.035 107.108 582.035 123.087zM562.073 116.144L553.533 116.144C553.099 116.144 552.749 115.788 552.749 115.347L552.749 106.512C552.749 106.071 553.099 105.715 553.533 105.715L562.073 105.715C562.507 105.715 562.858 106.071 562.858 106.512L562.858 115.347C562.858 115.788 562.507 116.144 562.073 116.144zM554.317 114.55L561.289 114.55 561.289 107.31 554.317 107.31 554.317 114.55z"/>
    <path fill="#D3D9E5" d="M561.807 111.498L553.794 111.498C553.36 111.498 553.01 111.142 553.01 110.701 553.01 110.26 553.36 109.904 553.794 109.904L561.807 109.904C562.241 109.904 562.591 110.26 562.591 110.701 562.591 111.142 562.241 111.498 561.807 111.498zM567.473 100.729L547.966 100.729C547.532 100.729 547.182 100.373 547.182 99.9316 547.182 99.4904 547.532 99.1343 547.966 99.1343L567.473 99.1343C567.907 99.1343 568.257 99.4904 568.257 99.9316 568.257 100.373 567.907 100.729 567.473 100.729z"/>
    <polygon fill="#D3D9E5" points="369.966 60.676 369.966 56.407 364.928 56.407 358.216 50.007 351.29 56.407 346.67 56.407 346.67 60.676 336.608 60.676 336.608 124.277 379.84 124.277 379.84 60.676"/>
    <path fill="#FFF" d="M371.54,100.516 L362.518,100.516 L362.518,87.073 L371.54,87.073 L371.54,100.516 Z M363.563,99.4531 L370.494,99.4531 L370.494,88.1361 L363.563,88.1361 L363.563,99.4531 Z"/>
    <polygon fill="#FFF" points="371.143 93.26 362.9 93.26 362.9 94.324 371.143 94.324"/>
    <path fill="#FFF" d="M353.073,100.516 L344.051,100.516 L344.051,87.073 L353.073,87.073 L353.073,100.516 Z M345.097,99.4531 L352.028,99.4531 L352.028,88.1361 L345.097,88.1361 L345.097,99.4531 Z"/>
    <polygon fill="#FFF" points="352.676 93.26 344.433 93.26 344.433 94.324 352.676 94.324"/>
    <path fill="#FFF" d="M353.073,80.0245 L344.051,80.0245 L344.051,66.5813 L353.073,66.5813 L353.073,80.0245 Z M345.097,78.9614 L352.028,78.9614 L352.028,67.6444 L345.097,67.6444 L345.097,78.9614 Z"/>
    <polygon fill="#FFF" points="352.676 72.774 344.433 72.774 344.433 73.837 352.676 73.837"/>
    <path fill="#FFF" d="M371.54,80.0245 L362.518,80.0245 L362.518,66.5813 L371.54,66.5813 L371.54,80.0245 Z M363.563,78.9614 L370.494,78.9614 L370.494,67.6444 L363.563,67.6444 L363.563,78.9614 Z"/>
    <polygon fill="#FFF" points="371.143 72.774 362.9 72.774 362.9 73.837 371.143 73.837"/>
    <path fill="#FFF" d="M353.073,121.003 L344.051,121.003 L344.051,107.559 L353.073,107.559 L353.073,121.003 Z M345.097,119.94 L352.028,119.94 L352.028,108.623 L345.097,108.623 L345.097,119.94 Z"/>
    <polygon fill="#FFF" points="352.676 113.752 344.433 113.752 344.433 114.815 352.676 114.815"/>
    <polygon fill="#FFF" points="371.441 108.947 362.236 108.947 362.236 125.149 371.441 125.149"/>
    <path fill="#D3D9E5" d="M697.635,124.639 C697.18,124.639 696.809,124.261 696.809,123.799 L696.809,89.6989 C696.809,89.4916 696.882,89.2949 697.018,89.1407 L705.569,79.4078 C705.872,79.0622 706.395,79.0357 706.735,79.344 C707.074,79.6523 707.106,80.1838 706.803,80.5294 L698.46,90.0178 L698.46,123.799 C698.46,124.261 698.089,124.639 697.635,124.639 Z"/>
    <path fill="#D3D9E5" d="M688.879,101.191 C687.29,101.191 685.696,100.915 684.154,100.351 C680.626,99.0703 677.803,96.471 676.199,93.0265 C673.611,87.4769 674.845,80.843 679.162,76.633 C676.737,70.7327 679.293,63.8542 685.032,61.0901 C690.594,58.411 697.263,60.5692 700.331,65.8848 C703.018,64.827 705.945,64.7898 708.674,65.7785 C711.69,66.8735 714.11,69.1008 715.479,72.0456 C717.533,76.4523 716.776,81.6988 713.629,85.3294 C713.634,85.34 713.639,85.3507 713.645,85.356 C716.044,90.5069 713.875,96.6836 708.81,99.1235 C705.245,100.84 701.006,100.277 697.995,97.7468 C697.049,98.5707 696.004,99.2617 694.875,99.8092 C692.967,100.729 690.928,101.191 688.879,101.191 Z M690.076,61.8768 C688.654,61.8768 687.212,62.1851 685.853,62.8442 C680.892,65.2363 678.765,71.2855 681.117,76.33 C681.143,76.3725 681.159,76.4098 681.18,76.447 C681.373,76.8403 681.279,77.3187 680.95,77.6058 C676.847,81.2098 675.603,87.2112 677.923,92.2025 C679.309,95.174 681.75,97.4225 684.797,98.5281 C687.844,99.6338 691.132,99.469 694.059,98.0604 C695.267,97.481 696.364,96.6996 697.326,95.7481 C697.697,95.3813 698.288,95.3813 698.659,95.7534 C701.121,98.2252 704.874,98.879 707.994,97.3747 C712.113,95.3919 713.875,90.3687 711.925,86.1852 C711.847,86.0205 711.763,85.8663 711.674,85.7121 L711.643,85.6484 C711.434,85.2709 711.496,84.7979 711.794,84.4896 C714.784,81.4277 715.573,76.7606 713.76,72.8695 C712.604,70.3924 710.571,68.5214 708.036,67.6018 C705.501,66.6821 702.767,66.8203 700.337,67.9845 C700.117,68.0961 699.866,68.1174 699.631,68.043 C699.38,67.9632 699.171,67.7825 699.056,67.5433 C697.336,63.9712 693.766,61.8768 690.076,61.8768 Z"/>
    <path fill="#D3D9E5" d="M697.635,90.5388 C697.426,90.5388 697.211,90.4591 697.055,90.2943 L686.956,80.0244 C686.632,79.6948 686.632,79.1685 686.956,78.839 C687.28,78.5094 687.797,78.5094 688.122,78.839 L698.22,89.1089 C698.544,89.4385 698.544,89.9647 698.22,90.2943 C698.058,90.4538 697.849,90.5388 697.635,90.5388 Z"/>
    <path fill="#1F4847" d="M558.116 144.2L540.852 144.2C540.345 144.2 539.937 143.785 539.937 143.27 539.937 142.754 540.345 142.34 540.852 142.34L558.116 142.34C558.623 142.34 559.031 142.754 559.031 143.27 559.031 143.785 558.618 144.2 558.116 144.2zM549.481 138.821L532.562 138.821C532.055 138.821 531.647 138.406 531.647 137.891 531.647 137.375 532.055 136.96 532.562 136.96L549.481 136.96C549.988 136.96 550.396 137.375 550.396 137.891 550.396 138.406 549.988 138.821 549.481 138.821zM437.279 60.8617C436.908 60.8617 436.579 60.5906 436.511 60.2079L434.394 48.2316 429.873 59.6763C429.711 60.0856 429.256 60.2823 428.853 60.1175 428.451 59.9527 428.258 59.4902 428.42 59.0809L433.96 45.0634C434.091 44.7339 434.42 44.5319 434.765 44.5691 435.115 44.6063 435.398 44.8721 435.455 45.2229L438.058 59.9314C438.136 60.3673 437.849 60.782 437.426 60.8564 437.373 60.8564 437.326 60.8617 437.279 60.8617zM445.998 62.6477C445.956 62.6477 445.909 62.6424 445.867 62.6371L441.555 61.8929C441.147 61.8238 440.86 61.441 440.907 61.0211L442.329 47.7957C442.376 47.3598 442.762 47.0409 443.191 47.0887 443.62 47.1366 443.933 47.5299 443.886 47.9658L442.548 60.4417 446.129 61.0636C446.557 61.1381 446.845 61.5474 446.772 61.9832 446.704 62.3713 446.374 62.6477 445.998 62.6477zM454.763 65.0291C454.69 65.0291 454.622 65.0184 454.549 64.9972L449.568 63.5513C449.176 63.4397 448.935 63.041 449.014 62.6317L451.68 48.5293C451.763 48.0988 452.171 47.8117 452.599 47.8968 453.023 47.9818 453.305 48.3965 453.221 48.8323L450.692 62.2171 454.983 63.461C455.401 63.5832 455.642 64.0244 455.521 64.4443 455.417 64.8005 455.103 65.0291 454.763 65.0291zM461.36 67.3413C460.544 67.3413 459.881 67.0649 459.379 66.5227 458.328 65.3851 458.103 63.1632 458.647 59.32 459.175 55.5779 460.607 51.3732 463.032 50.7991 463.67 50.6503 464.313 50.8416 464.841 51.3466 466.289 52.7181 466.791 56.1254 466.425 58.5014 466.027 61.0689 464.773 67.0702 461.673 67.3253 461.564 67.336 461.464 67.3413 461.36 67.3413zM460.199 59.5486C459.64 63.5141 460.069 64.9333 460.523 65.433 460.665 65.5871 460.926 65.7891 461.548 65.7413 462.844 65.635 464.214 62.5626 464.878 58.2622 465.238 55.9127 464.595 53.2921 463.775 52.5214 463.56 52.3194 463.44 52.3459 463.388 52.3619 462.269 52.617 460.816 55.1739 460.199 59.5486z"/>
    <path fill="#1F4847" d="M436.265 55.0303C436.234 55.0303 436.197 55.0303 436.166 55.025L431.326 54.3977C430.897 54.3446 430.594 53.9406 430.646 53.5047 430.699 53.0689 431.096 52.7605 431.524 52.8137L436.365 53.4409C436.793 53.4941 437.096 53.8981 437.044 54.3339 436.992 54.7379 436.652 55.0303 436.265 55.0303zM469.843 68.8774C469.686 68.8774 469.53 68.8615 469.368 68.8296 469.017 68.7552 468.516 68.5319 468.129 67.894 467.031 66.0761 467.575 61.8077 468.171 59.5433 469.388 54.9665 471.312 52.6808 473.601 53.138 474.422 53.2974 475.081 53.7705 475.494 54.5094 476.764 56.7473 475.504 60.8987 475.091 62.116 474.375 64.2103 472.488 68.8774 469.843 68.8774zM469.692 59.9579C469.038 62.4084 468.787 65.9273 469.467 67.0542 469.582 67.2402 469.66 67.2562 469.686 67.2615 470.753 67.4847 472.41 65.1034 473.607 61.5844 474.318 59.506 474.882 56.6091 474.135 55.2961 473.946 54.9612 473.68 54.7699 473.304 54.6954 471.746 54.4031 470.418 57.2203 469.692 59.9579zM479.445 71.5779C479.111 71.5779 478.776 71.5141 478.442 71.3812 475.19 70.1001 476.753 63.6204 476.821 63.344 477.109 62.1745 478.708 56.3593 481.912 56.3593 481.933 56.3593 481.949 56.3593 481.97 56.3593 482.686 56.3752 483.303 56.6941 483.747 57.2895 485.002 58.948 484.719 62.5785 484.035 65.4224 483.773 66.5121 482.759 70.1586 480.689 71.2536 480.292 71.4716 479.869 71.5779 479.445 71.5779zM481.912 57.9592C480.517 57.9592 479.032 60.9254 478.337 63.7373 477.804 65.9061 477.642 69.3613 479.006 69.8982 479.346 70.031 479.654 70.0151 479.968 69.8503 481.076 69.2603 482.043 67.0171 482.513 65.0503 483.23 62.0736 483.224 59.2191 482.503 58.2676 482.346 58.0603 482.174 57.9646 481.933 57.9592 481.928 57.9592 481.918 57.9592 481.912 57.9592z"/>
    <path fill="#F2643A" d="M317.623,136.966 C317.691,136.312 318.162,135.786 318.794,135.653 L377.775,123.432 C377.984,123.405 378.167,123.273 378.256,123.076 L396.284,84.2876 C397.863,80.5135 398.772,79.7747 402.807,79.7747 L492.617,79.7747 C494.901,79.7747 496.961,81.162 497.855,83.2989 L515.156,124.676 C515.349,125.144 515.637,125.686 516.212,126.201 L523.979,131.942 C524.993,132.734 525.573,133.505 525.735,134.744 C526.117,137.646 527.711,155.145 528.375,160.684 C528.48,161.577 527.795,162.364 526.911,162.364 L460.827,162.364 L432.748,162.364 L315.36,162.364 C315.057,162.364 317.116,141.962 317.623,136.966 Z"/>
    <path fill="#FFF" d="M445.13 86.8071L405.938 86.5302495C402.933 86.5094 402.604 87.4502 401.851 89.2841L387.221 124.171 445.13 124.686 445.13 86.8071zM451.821 86.5308L488.89 86.669C491.844 86.6796 491.985 87.4291 492.445 88.6411L505.58 124.687 451.821 124.527 451.821 86.5308z"/>
    <path fill="#1B264C" d="M494.227,177.662 C503.312,177.662 510.676,170.173 510.676,160.934 C510.676,151.695 503.312,144.205 494.227,144.205 C485.142,144.205 477.778,151.695 477.778,160.934 C477.778,170.173 485.142,177.662 494.227,177.662 Z"/>
    <path fill="#DCDFEA" d="M494.227,169.816 C499.051,169.816 502.961,165.839 502.961,160.934 C502.961,156.028 499.051,152.051 494.227,152.051 C489.403,152.051 485.493,156.028 485.493,160.934 C485.493,165.839 489.403,169.816 494.227,169.816 Z"/>
    <path fill="#1B264C" d="M362.779,177.662 C371.864,177.662 379.229,170.173 379.229,160.934 C379.229,151.695 371.864,144.205 362.779,144.205 C353.695,144.205 346.33,151.695 346.33,160.934 C346.33,170.173 353.695,177.662 362.779,177.662 Z"/>
    <path fill="#DCDFEA" d="M362.779,169.816 C367.603,169.816 371.513,165.839 371.513,160.934 C371.513,156.028 367.603,152.051 362.779,152.051 C357.955,152.051 354.045,156.028 354.045,160.934 C354.045,165.839 357.955,169.816 362.779,169.816 Z"/>
    <path fill="#F68627" d="M430.333,112.859 C435.177,112.859 439.104,108.866 439.104,103.939 C439.104,99.0132 435.177,95.0198 430.333,95.0198 C425.489,95.0198 421.562,99.0132 421.562,103.939 C421.562,108.866 425.489,112.859 430.333,112.859 Z"/>
    <path fill="#F68627" d="M419.999,103.955 L424.536,104.498 C425.137,104.567 425.681,104.131 425.749,103.52 C425.816,102.908 425.388,102.355 424.787,102.281 L420.25,101.739 C419.649,101.67 419.105,102.106 419.037,102.717 C418.969,103.333 419.398,103.886 419.999,103.955 Z"/>
    <path fill="#C82232" d="M442.94,99.7402 C442.94,99.7402 445.501,97.9542 443.755,94.9243 C442.01,91.8943 439.569,93.0106 439.569,93.0106 C439.569,93.0106 438.988,89.8797 435.194,89.7628 C431.399,89.6458 431.221,91.8625 431.221,91.8625 C431.221,91.8625 429.266,89.8372 426.695,92.0485 C424.123,94.2598 424.964,96.9495 424.964,96.9495 C424.964,96.9495 428.749,96.2 430.641,99.9475 C431.744,102.127 432.141,104.391 433.484,105.258 C433.484,105.258 434.446,108.165 436.746,109.372 C439.041,110.579 442.14,108.867 441.936,106.087 C441.921,105.837 441.889,105.614 441.848,105.407 C442.856,104.981 443.808,104.179 444.111,102.669 C444.519,100.623 442.94,99.7402 442.94,99.7402 Z"/>
    <polygon fill="#F68627" points="426.109 109.26 427.907 116.458 437.457 116.968 435.032 108.484"/>
    <path fill="#F68627" d="M422.759,122.884 C422.759,122.884 408.526,119.961 404.804,105.077 C402.389,95.4238 405.421,89.3534 406.712,85.6909 C408.003,82.0285 409.111,78.6318 410.564,76.851 C411.709,75.4477 412.629,76.1972 411.092,80.0829 C411.092,80.0829 413.476,75.9049 414.871,75.5859 C416.267,75.267 414.15,80.96 414.15,80.96 C414.15,80.96 416.497,75.8464 417.699,76.3673 C418.901,76.8882 414.971,83.6923 414.971,83.6923 C414.971,83.6923 418.488,80.9281 419.936,82.2251 C421.384,83.5221 415.53,86.2597 415.53,86.2597 C415.53,86.2597 409.461,95.5886 412.958,103.961 C416.12,111.541 424.823,112.864 424.823,112.864 L422.759,122.884 Z"/>
    <path fill="#127A8B" d="M441.304044,124.687 C441.304044,124.687 441.304044,122.454 441.304044,121.593 C441.304044,120.732 441.351,117.537 438.367,114.199 C436.657,112.285 432.784,112.195 425.32,111.711 C421.551,111.466 417.286,109.468 417.286,109.468 L412.681,118.664 C412.681,118.664 418.227,121.875 421.342,122.369 L421.342,124.469 L441.304044,124.687 Z"/>
    <path fill="#FFF" d="M437.656 134.069L422.262 134.069C421.713 134.069 421.264 133.617 421.264 133.053 421.264 132.49 421.708 132.038 422.262 132.038L437.656 132.038C438.205 132.038 438.654 132.49 438.654 133.053 438.654 133.617 438.205 134.069 437.656 134.069zM321.768 152.758L316.139 152.758 316.139 151.344 321.768 151.344C323.216 151.344 324.398 149.904 324.398 148.139L324.398 145.449C324.398 143.679 323.216 142.244 321.768 142.244L317.022 142.244 317.022 140.83 321.768 140.83C323.985 140.83 325.788 142.903 325.788 145.449L325.788 148.139C325.788 150.685 323.985 152.758 321.768 152.758zM528.297 150.653L521.935 150.653C520.77 150.653 519.756 149.808 519.526 148.649L519.515 148.575 519.055 143.732C518.925 143.01 519.113 142.271 519.573 141.702 520.043 141.122 520.733 140.788 521.47 140.788L527.241 140.788 527.241 142.308 521.47 142.308C521.183 142.308 520.911 142.441 520.728 142.664 520.545 142.893 520.472 143.185 520.529 143.472L520.54 143.546 521 148.384C521.099 148.819 521.491 149.133 521.935 149.133L528.297 149.133 528.297 150.653z"/>
    <path fill="#F68627" d="M430.652,101.675 C430.652,101.675 432.329,99.7188 433.903,101.027 C435.649,102.478 433.202,105.662 433.202,105.662"/>
    <path fill="#FFF" d="M421.567,107.496 C421.567,107.496 422.973,108.171 424.829,106.9 C426.182,105.97 426.376,107.203 425.858,107.74 C425.189,108.437 423.846,109.037 422.163,108.835 L421.567,107.496 Z"/>
    <path fill="#576295" d="M424.959,102.1 C425.372,102.1 425.707,101.76 425.707,101.34 C425.707,100.92 425.372,100.58 424.959,100.58 C424.547,100.58 424.212,100.92 424.212,101.34 C424.212,101.76 424.547,102.1 424.959,102.1 Z"/>
    <path fill="#D3D9E5" d="M465.019 110.69C464.778 110.69 464.533 110.6 464.339 110.419 463.937 110.036 463.916 109.399 464.292 108.989L477.01 95.1367C477.386 94.7274 478.013 94.7061 478.416 95.0889 478.818 95.4716 478.839 96.1095 478.463 96.5188L465.745 110.371C465.552 110.579 465.285 110.69 465.019 110.69zM468.584 114.672C468.343 114.672 468.103 114.587 467.915 114.406 467.507 114.029 467.481 113.391 467.852 112.976L477.004 102.781C477.376 102.366 478.003 102.339 478.41 102.717 478.818 103.094 478.844 103.732 478.473 104.147L469.321 114.342C469.122 114.56 468.856 114.672 468.584 114.672z"/>
    <path fill="#FFCA28" d="M79.5859 216.036L79.5859 239.276C79.5859 239.276 100.86 253.219 115.767 253.378 130.021 253.533 132.561 246.335 132.561 246.335L128.286 227.087 79.5859 216.036zM218.764 80.9926C218.764 80.9926 195.896 36.0914 189.812 30.0422 183.728 23.993 182.766 30.2442 185.296 34.7093 187.826 39.1744 191.882 45.1333 191.882 45.1333 191.882 45.1333 183.817 33.4123 178.679 28.2455 173.588 23.1212 171.57 27.3365 174.649 33.7844 176.797 38.2867 182.562 48.8755 182.562 48.8755 182.562 48.8755 168.852 28.3305 163.954 26.3425 159.057 24.3544 158.947 29.4628 161.587 33.492 164.226 37.5213 174.497 54.6429 174.497 54.6429 174.497 54.6429 162.972 42.0768 158.565 39.1213 154.164 36.1658 153.025 40.9605 156.846 45.7605 160.672 50.5552 171.779 66.3639 171.779 66.3639 171.779 66.3639 167.273 64.732 160.154 62.5686 153.035 60.4051 150.014 65.0191 157.191 70.1965 164.367 75.3686 180.268 87.685 180.268 87.685L185.395 94.8239 218.764 80.9926z"/>
    <path fill="#FFF" d="M193.163,281.387 C212.732,265.062 235.172,240.414 247.199,200.196 C266.873,134.404 220.683,71.6743 220.683,71.6743 L174.811,90.7043 C174.811,90.7043 211.295,137.051 195.447,187.555 C185.929,217.886 167.179,230.787 142.827,239.282"/>
    <path fill="#F68632" d="M193.163,282.758 C192.771,282.758 192.389,282.588 192.122,282.259 C191.652,281.674 191.736,280.807 192.311,280.329 C218.78,258.243 236.311,231.904 245.913,199.797 C255.965,166.186 248.281,133.367 240.064,111.759 C232.323,91.4005 222.695,76.9207 220.212,73.3539 L176.949,91.2995 C179.599,94.9513 186.556,105.221 192.321,119.674 C198.918,136.217 205.038,161.493 196.733,187.97 C192.154,202.561 185.239,213.894 175.6,222.628 C167.425,230.032 157.149,235.736 143.266,240.573 C142.56,240.818 141.797,240.435 141.557,239.723 C141.316,239.005 141.693,238.229 142.393,237.979 C155.926,233.264 165.909,227.731 173.807,220.581 C183.08,212.183 189.739,201.243 194.166,187.135 C202.221,161.466 196.267,136.881 189.859,120.78 C182.881,103.249 173.854,91.6769 173.765,91.5599 C173.499,91.2197 173.405,90.7785 173.514,90.3586 C173.624,89.9387 173.917,89.5985 174.309,89.4337 L220.181,70.4037 C220.751,70.1698 221.399,70.3506 221.77,70.8502 C221.885,71.0097 233.536,86.9619 242.584,110.765 C250.952,132.777 258.772,166.234 248.495,200.589 C238.737,233.227 220.918,260.002 194.025,282.439 C193.764,282.657 193.461,282.758 193.163,282.758 Z"/>
    <path fill="#F68632" d="M176.578 103.988C176.123 103.988 175.705 103.685 175.574 103.217 175.412 102.654 175.736 102.064 176.29 101.899L233.933 85.0111C234.487 84.8463 235.067 85.1759 235.229 85.7394 235.391 86.3028 235.067 86.8929 234.513 87.0577L176.87 103.945C176.771 103.972 176.672 103.988 176.578 103.988zM218.707 187.635C218.456 187.635 218.205 187.544 218.001 187.358 217.954 187.316 213.475 183.186 209.931 181.426 207.181 180.06 206.089 178.928 206.282 177.641 206.512 176.116 208.462 175.627 210.135 175.366 213.564 174.835 217.374 174.819 222.319 175.324 219.627 173.788 214.865 171.608 211.483 170.821 210.746 170.651 208.797 170.194 208.932 168.695 209.021 167.738 209.842 166.707 215.215 165.655 218.791 164.953 223.312 164.464 227.948 164.273 228.518 164.251 229.009 164.703 229.035 165.293 229.056 165.878 228.612 166.372 228.032 166.399 219.93 166.734 214.081 167.898 211.839 168.727 211.875 168.738 211.912 168.743 211.948 168.754 214.714 169.397 218.367 170.938 220.866 172.166 226.579 174.973 226.417 175.94 226.307 176.578 226.082 177.907 224.42 177.711 223.876 177.641 218.231 176.961 214.086 176.908 210.448 177.471 209.283 177.652 208.729 177.865 208.478 177.998 208.708 178.253 209.314 178.758 210.846 179.523 214.656 181.415 219.214 185.62 219.407 185.796 219.836 186.189 219.867 186.864 219.475 187.3 219.271 187.518 218.989 187.635 218.707 187.635zM131.38 276.061C122.667 276.061 113.828 274.11 108.068 271.978 87.7504 264.457 78.875 254.628 78.5039 254.208 77.9655 253.602 78.0125 252.666 78.6084 252.119 79.2043 251.571 80.1242 251.619 80.6626 252.225 80.7463 252.321 89.4857 261.947 109.061 269.193 118.485 272.685 136.492 275.704 147.474 269.735 148.179 269.352 149.063 269.623 149.444 270.341 149.821 271.064 149.554 271.957 148.849 272.345 143.893 275.045 137.668 276.061 131.38 276.061z"/>
    <path fill="#F68632" d="M1.45299,299.672 C1.23346,299.672 1.0087,299.619 0.794394,299.513 C0.0782986,299.141 -0.203958,298.259 0.156703,297.53 C0.250789,297.339 2.61338,292.682 11.2797,282.546 C37.7334,251.614 78.1693,239.537 78.5718,239.42 C79.0684,239.271 79.6015,239.409 79.9778,239.771 C80.2026,239.988 102.585,261.416 126.796,261.416 C132.363,261.416 143.94,261.416 148.028,256.398 C149.423,254.686 149.852,252.501 149.34,249.716 C148.373,244.496 142.132,240.584 142.069,240.547 C141.384,240.121 141.165,239.212 141.583,238.516 C142.001,237.82 142.895,237.596 143.58,238.022 C143.883,238.208 150.992,242.673 152.199,249.174 C152.878,252.82 152.225,255.888 150.27,258.29 C145.31,264.377 133.267,264.377 126.796,264.377 C103.437,264.377 82.5286,246.139 78.6031,242.508 C72.9162,244.331 37.3466,256.584 13.475,284.491 C5.10665,294.277 2.77019,298.827 2.74928,298.875 C2.49316,299.375 1.98092,299.672 1.45299,299.672 Z"/>
    <path fill="#F68627" d="M191.621 75.4376C191.412 75.4376 191.197 75.3739 191.014 75.2357 183.88 70.0317 176.651 69.9467 176.583 69.9467 176.008 69.9467 175.537 69.4683 175.537 68.8835 175.537 68.2988 176.008 67.8204 176.583 67.8204 176.902 67.8204 184.528 67.8842 192.232 73.5081 192.703 73.8483 192.807 74.5127 192.473 74.9911 192.264 75.2835 191.945 75.4376 191.621 75.4376zM195.065 61.5692C187.784 61.5692 180.712 57.2475 180.383 57.0402 179.891 56.7372 179.735 56.0834 180.033 55.5784 180.33 55.0787 180.973 54.9139 181.47 55.2223 181.554 55.2754 189.828 60.32 197.104 59.3047 197.674 59.2197 198.201 59.6343 198.28 60.2137 198.358 60.7931 197.961 61.33 197.386 61.4097 196.618 61.5161 195.844 61.5692 195.065 61.5692z" opacity=".5"/>
    <path fill="#FFCA28" d="M145.027,151.324 C145.027,151.324 160.154,176.796 153.27,205.293 C146.386,233.796 130.073,238.798 115.375,241.652 C100.682,244.507 66.1629,235.013 60.8575,188.225 C55.5521,141.437 80.1764,131.656 88.6023,129.902 C97.0281,128.148 132.383,125.187 145.027,151.324 Z"/>
    <path fill="#1F4847" d="M105.266,107.124 C119.269,104.222 124.695,104.387 124.496,110.17 C124.303,115.953 109.578,121.859 109.578,121.859 C109.578,121.859 120.534,116.368 134.919,117.474 C142.634,118.069 155.717,123.326 158.398,126.957 C161.848,131.624 158.968,135.924 154.556,134.516 C138.896,129.524 137.004,130.167 137.004,130.167 C137.004,130.167 159.125,138.795 170.493,155.672 C177.273,165.74 165.094,163.433 157.29,158.526 C149.486,153.62 135.865,146.237 135.865,146.237 C135.865,146.237 137.234,146.651 141.071,156.187 C144.113,163.757 137.579,163.81 134.652,161.386 C131.725,158.962 116.98,146.157 116.98,146.157 C116.98,146.157 121.647,155.241 120.367,160.764 C119.645,163.869 115.746,162.837 111.789,160.759 C108.7,159.138 105.574,156.884 103.897,155.459 C100.065,152.206 91.4929,146.21 91.4929,146.21 C91.4929,146.21 96.9551,158.691 93.2753,162.704 C89.5903,166.718 84.2588,166.606 78.1589,161.641 C73.878,158.16 67.7468,154.162 67.7468,154.162 C67.7468,154.162 74.3327,191.972 73.5905,197.038 C72.3988,205.15 66.7432,203.024 62.6086,198.473 C54.9825,190.075 45.8353,175.855 44.2881,159.292 C43.4831,150.659 45.2551,138.763 50.2939,134.393 C60.3035,125.708 72.7751,129.519 72.7751,129.519 C72.7751,129.519 76.6012,113.067 105.266,107.124 Z"/>
    <path fill="#BD2231" d="M125.996 196.204C124.292 196.204 122.458 195.502 121.025 193.875 118.548 191.069 114.241 185.259 114.058 185.014L115.856 183.637C115.898 183.696 120.288 189.618 122.698 192.35 124.512 194.402 126.906 194.136 128.03 193.291 129.227 192.387 129.885 190.521 128.657 188.384 127.136 185.737 122.426 179.31 122.379 179.247L124.188 177.875C124.386 178.141 129.023 184.472 130.606 187.225 132.53 190.569 131.317 193.668 129.378 195.13 128.463 195.816 127.266 196.204 125.996 196.204zM125.447 219.087C122.667 219.087 119.53 218.338 117.779 215.452 116.985 214.144 117.105 212.491 118.077 211.242 118.976 210.088 120.774 209.142 123.1 209.95 125.724 210.854 130.423 209.168 132.504 207.606 134.302 206.255 136.602 206.133 138.097 207.308 139.367 208.307 139.712 209.971 139.006 211.762 137.741 214.978 134.417 217.45 129.875 218.54 128.84 218.784 127.214 219.087 125.447 219.087zM121.423 211.948C120.686 211.948 120.142 212.278 119.839 212.671 119.541 213.054 119.342 213.671 119.692 214.245 121.788 217.695 127.151 216.839 129.362 216.307 131.166 215.871 135.515 214.479 136.915 210.912 137.14 210.343 137.286 209.567 136.722 209.121 136.142 208.669 134.94 208.626 133.842 209.45 131.37 211.305 125.866 213.325 122.379 212.119 122.034 211.996 121.715 211.948 121.423 211.948z"/>
    <path fill="#1F4847" d="M136.105 177.758C138.129 177.758 139.769 176.09 139.769 174.032 139.769 171.974 138.129 170.306 136.105 170.306 134.081 170.306 132.441 171.974 132.441 174.032 132.441 176.09 134.081 177.758 136.105 177.758zM101.461 183.797C103.484 183.797 105.125 182.129 105.125 180.071 105.125 178.013 103.484 176.344 101.461 176.344 99.4371 176.344 97.7966 178.013 97.7966 180.071 97.7966 182.129 99.4371 183.797 101.461 183.797z"/>
    <path fill="#FFCA28" d="M147.066 166.734C147.066 166.734 150.657 163.109 154.624 164.15 158.591 165.192 164.111 171.98 161.038 177.923 157.964 183.871 149.753 187.736 149.753 187.736M57.0785 188.353C57.0785 188.353 51.9143 186.8 48.8878 192.392 45.8614 197.984 51.632 204.209 56.6342 205.724 60.3088 206.835 67.0725 204.82 67.0725 204.82L57.0785 188.353z"/>
    <path fill="#F68627" d="M105.972,187.699 C102.553,187.56 95.6485,187.842 93.2388,190.622 C90.8292,193.402 93.2388,196.05 97.5354,196.076 C101.832,196.103 108.214,195.475 110.101,192.812 C111.988,190.154 108.747,187.81 105.972,187.699 Z" opacity=".5"/>
    <path fill="#00ADA8" d="M60.2409 183.329C60.1521 183.138 58.0769 178.513 57.3138 170.917 56.5507 163.358 58.401 158.303 58.4794 158.091L59.4569 158.468C59.436 158.516 57.6222 163.518 58.354 170.806 59.1014 178.226 61.1713 182.835 61.1922 182.877L60.2409 183.329zM52.2017 165.607C52.1912 165.272 52.0135 157.346 55.526 149.883L56.4669 150.34C53.0693 157.57 53.2418 165.501 53.2471 165.58L52.2017 165.607zM107.357 127.664L107.127 126.627C107.231 126.601 117.967 124.198 127.46 125.107L127.36 126.165C118.041 125.277 107.461 127.637 107.357 127.664zM117.685 131.576L117.56 130.518C117.889 130.476 125.662 129.54 129.294 130.534L129.023 131.56C125.578 130.625 117.764 131.566 117.685 131.576z"/>
    <path fill="#F68627" d="M106.651,240.493 C106.604,240.493 106.557,240.488 106.515,240.483 C95.0891,238.952 86.4071,232.148 86.0412,231.856 C85.5864,231.494 85.5028,230.824 85.8582,230.362 C86.2137,229.9 86.867,229.814 87.327,230.176 C87.4106,230.245 95.9411,236.916 106.787,238.373 C107.362,238.447 107.764,238.984 107.686,239.563 C107.613,240.105 107.169,240.493 106.651,240.493 Z" opacity=".5"/>
    <path fill="#1F4847" d="M108.478,89.0538 C107.985,89.0538 107.515,88.7591 107.319,88.2652 L95.0919,57.8445 C94.8334,57.1913 95.1389,56.4506 95.7734,56.1877 C96.4156,55.9248 97.1441,56.2355 97.4026,56.8807 L109.63,87.3014 C109.888,87.9546 109.583,88.6954 108.948,88.9582 C108.799,89.0299 108.635,89.0538 108.478,89.0538 Z"/>
    <path fill="#1F4847" d="M103.105,73.5368 C102.611,73.5368 102.141,73.2421 101.945,72.7482 C101.687,72.095 101.992,71.3542 102.627,71.0913 L107.757,68.9565 C108.392,68.6936 109.128,69.0043 109.387,69.6495 C109.645,70.3027 109.34,71.0435 108.705,71.3064 L103.575,73.4412 C103.426,73.5049 103.269,73.5368 103.105,73.5368 Z"/>
    <path fill="#1F4847" d="M114.784 87.6836C114.282 87.6836 113.805 87.3729 113.617 86.8631L101.734 55.0485C101.491 54.3873 101.813 53.6545 102.463 53.4076 103.105 53.1527 103.833 53.4872 104.076 54.1484L115.959 85.963C116.201 86.6241 115.88 87.357 115.23 87.6039 115.081 87.6517 114.933 87.6836 114.784 87.6836zM122.953 84.5053C122.765 84.5053 122.569 84.4575 122.397 84.3699 122.091 84.2185 121.864 83.9397 121.762 83.6131L111.862 51.8941C111.666 51.2648 111.979 50.5797 112.582 50.3328L119.796 47.3298C120.439 47.0669 121.167 47.3776 121.425 48.0228 121.684 48.676 121.378 49.4167 120.744 49.6796L114.595 52.2366 123.76 81.5739 130.488 79.1125C131.138 78.8815 131.859 79.2161 132.086 79.8773 132.321 80.5384 131.984 81.2712 131.334 81.5022L123.384 84.4097C123.235 84.4814 123.094 84.5053 122.953 84.5053z"/>
    <path fill="#1F4847" d="M119.287 68.3113C118.731 68.3113 118.222 67.9289 118.073 67.3554 117.901 66.6783 118.3 65.9773 118.974 65.8021L123.447 64.631C124.112 64.4478 124.802 64.8621 124.974 65.5471 125.146 66.2322 124.747 66.9253 124.073 67.1005L119.601 68.2715C119.491 68.2954 119.389 68.3113 119.287 68.3113zM133.661 60.4094C133.269 60.4094 132.877 60.2182 132.635 59.8678L124.387 47.9909C123.987 47.4173 124.12 46.6208 124.684 46.2145 125.248 45.8083 126.032 45.9437 126.431 46.5172L134.679 58.3941C135.078 58.9676 134.945 59.7642 134.381 60.1705 134.162 60.3298 133.903 60.4094 133.661 60.4094z"/>
    <path fill="#1F4847" d="M139.206 78.8339C138.665 78.8339 138.164 78.4754 138.007 77.9178L132.799 59.7801C132.775 59.7004 132.759 59.6207 132.752 59.5411L131.334 44.3984C131.271 43.6974 131.773 43.0761 132.462 43.0123 133.151 42.9486 133.762 43.4584 133.825 44.1594L135.235 59.1827 140.412 77.2089C140.608 77.886 140.224 78.587 139.558 78.7861 139.441 78.818 139.323 78.8339 139.206 78.8339zM258.735 209.291C258.589 209.291 258.442 209.248 258.312 209.163 257.946 208.924 257.841 208.43 258.077 208.063 262.812 200.6 263.758 185.567 263.769 185.413 263.795 184.972 264.166 184.642 264.6 184.663 265.034 184.69 265.363 185.067 265.337 185.509 265.3 186.141 264.354 201.11 259.399 208.924 259.247 209.163 258.991 209.291 258.735 209.291zM268.389 197.777C268.332 197.777 268.274 197.772 268.217 197.756 267.794 197.66 267.532 197.229 267.626 196.799 269.435 188.74 270.245 176.414 270.25 176.291 270.276 175.85 270.653 175.521 271.081 175.547 271.515 175.574 271.839 175.956 271.813 176.398 271.803 176.52 270.987 188.974 269.153 197.155 269.069 197.527 268.75 197.777 268.389 197.777z"/>
    <path fill="#E8EBEE" d="M947.505,304.01 L570.572,304.01 C569.13,304.01 567.959,302.819 567.959,301.352 C567.959,299.885 569.13,298.694 570.572,298.694 L947.505,298.694 C948.948,298.694 950.119,299.885 950.119,301.352 C950.119,302.819 948.948,304.01 947.505,304.01 Z"/>
    <path fill="#1F4847" d="M793.994 61.7417C793.676 61.7417 793.372 61.5397 793.257 61.2155 791.282 55.666 793.064 49.5477 797.69 45.9915 798.035 45.7257 798.526 45.7948 798.788 46.1457 799.049 46.4965 798.981 46.9962 798.636 47.262 794.559 50.3929 792.991 55.7829 794.732 60.6733 794.878 61.0879 794.669 61.545 794.261 61.6938 794.172 61.7257 794.083 61.7417 793.994 61.7417zM798.62 56.8833C798.186 56.8833 797.836 56.5272 797.836 56.086 797.836 51.3497 801.626 47.4958 806.288 47.4958 806.722 47.4958 807.072 47.852 807.072 48.2932 807.072 48.7344 806.722 49.0905 806.288 49.0905 802.493 49.0905 799.404 52.2321 799.404 56.086 799.404 56.5272 799.054 56.8833 798.62 56.8833zM691.243 178.797C690.908 178.797 690.6 178.579 690.495 178.239 690.364 177.819 690.594 177.373 691.007 177.24 695.884 175.688 699.146 171.148 699.125 165.95 699.125 165.508 699.475 165.152 699.904 165.147 699.904 165.147 699.904 165.147 699.909 165.147 700.343 165.147 700.693089 165.503 700.693089 165.939 700.714 171.845 697.013 176.995 691.478 178.76 691.399 178.787 691.321 178.797 691.243 178.797zM691.535 173.912C691.3 173.912 691.065 173.806 690.913 173.599 690.652 173.248 690.715 172.748 691.06 172.482 695.116 169.325 696.647 163.924 694.875 159.044 694.724 158.63 694.933 158.173 695.341 158.018 695.743 157.864 696.198 158.077 696.349 158.491 698.362 164.03 696.621 170.159 692.016 173.747 691.87 173.859 691.697 173.912 691.535 173.912z"/>
    <path fill="#FFCA28" d="M864.794,271.082 C864.794,271.082 869.158,273.304 874.354,276.435 C879.142,279.321 876.581,282.479 872.112,282.633 C867.642,282.787 855.709,281.139 855.709,281.139 L839.872,279.869 L841.346,269.147 L863.66,270.412 L864.794,271.082 Z"/>
    <path fill="#F68632" d="M874.093,65.133 C883.726,61.0346 895.586,70.6985 899.328,78.9058 C902.663,86.2149 900.034,97.4149 894.034,103.337 C887.803,109.481 878.212,109.811 878.212,109.811 C878.212,109.811 871.443,100.982 867.094,97.601 C863.56,94.8953 859.013,93.5983 859.013,93.5983 C854.523,78.9803 864.459,69.2314 874.093,65.133 Z"/>
    <path fill="#971B23" d="M835.214,210.67 C834.373,208.437 833.745,206.167 832.862,204.089 C829.25,195.568 824.525,189.365 824.525,189.365 L796.472,161.851 L840.049,166.779 C840.049,166.779 852.667,181.822 858.678,196.934 C863.712,209.596 864.872,271.077 864.872,271.077 L838.925,268.924 C838.92,268.924 840.624,224.98 835.214,210.67 Z"/>
    <path fill="#F68632" d="M897.196,98.021 L901.289,100.865 C902.486,101.699 902.794,103.379 901.968,104.596 C901.147,105.814 899.496,106.127 898.299,105.287 L894.206,102.444"/>
    <path fill="#204948" d="M893.307,93.8269 C894.258,93.7046 894.927,92.8222 894.812,91.8548 C894.692,90.8873 893.824,90.2069 892.873,90.3291 C891.922,90.4514 891.253,91.3338 891.368,92.3013 C891.488,93.2634 892.356,93.9438 893.307,93.8269 Z"/>
    <path fill="#576295" d="M897.175,81.0641 C898.785,79.868 899.496,78.688 899.496,78.688 C899.496,78.688 900.087,64.5962 885.049,59.3762 C876.001,56.2347 869.315,59.7643 864.261,53.2685 C857.199,44.1947 850.122,40.6226 844.931,44.0778 C840.279,47.1715 843.207,53.9064 844.769,55.82 C846.332,57.7337 845.998,58.1217 843.975,57.5211 C841.952,56.9204 836.877,53.5822 825.999,52.6413 C815.122,51.7004 805.713,56.8938 807.386,63.3842 C809.059,69.8746 817.401,73.5477 817.401,73.5477 C817.401,73.5477 802.457,73.484 800.277,80.1073 C797.826,87.5598 806.231,89.7977 817.27,88.4103 C827.703,87.0973 834.478,88.0488 852.187,93.205 C857.325,94.6987 868.024,93.4123 873.45,90.2814 C873.45,90.2814 874.14,85.7365 875.4,84.5671 C880.041,80.2508 883.433,83.892 883.433,83.892 C887.463,86.2575 893.971,83.4455 897.175,81.0641 Z"/>
    <path fill="#00ADA8" d="M863.748,291.292 C863.706,291.292 863.665,291.287 863.623,291.282 L843.907,288.475 C843.426,288.406 843.081,287.965 843.123,287.475 L843.713,280.358 C843.734,280.103 843.854,279.869 844.053,279.715 C844.246,279.555 844.497,279.481 844.743,279.518 L864.642,282.149 C865.133,282.213 865.489,282.67 865.431,283.17 L864.658,290.463 C864.632,290.713 864.506,290.941 864.313,291.095 C864.146,291.223 863.947,291.292 863.748,291.292 Z M845.015,286.753 L862.938,289.304 L863.518,283.871 L845.454,281.485 L845.015,286.753 Z"/>
    <path fill="#FFF" d="M825.706242,258.277 C825.785,282.527 806.518,302.253 782.672,302.338244 C758.827,302.418 739.43,282.824 739.345764,258.574 C739.268,234.324 758.534,214.598 782.38,214.512756 C806.23,214.433 825.628,234.027 825.706242,258.277 Z M818.911213,258.303 C818.979,278.736 802.744,295.358 782.646,295.428215 C762.554,295.497 746.209,278.986 746.140787,258.553 C746.073,238.12 762.308,221.498 782.406,221.428746 C802.498,221.354 818.843,237.87 818.911213,258.303 Z M760.505,241.447 C765.172,235.196 772.354,230.991 780.529,230.396 L760.505,241.447 Z M964.953,269.142 C961.712,276.265 955.581,281.937 947.725,284.302 L964.953,269.142 Z M983.085242,257.745 C983.164,281.995 963.897,301.721 940.051,301.806244 C916.206,301.886 896.809,282.293 896.724764,258.043 C896.647,233.793 915.913,214.067 939.759,213.980724 C963.609,213.896 983.002,233.49 983.085242,257.745 Z M976.290213,257.766 C976.358,278.2 960.123,294.822 940.025,294.891215 C919.933,294.96 903.588,278.449 903.519787,258.016 C903.452,237.583 919.687,220.961 939.785,220.891746 C959.877,220.817 976.222,237.333 976.290213,257.766 Z"/>
    <path fill="#00ADA8" d="M782.521,303.268 C770.797,303.268 759.773,298.644 751.452,290.24 C743.094,281.798 738.473,270.551 738.430739,258.574 C738.348,233.846 758.064,213.663 782.38,213.583 C782.427,213.583 782.479,213.583 782.531,213.583 C806.779,213.583 826.543,233.596 826.621267,258.277 C826.705,283.005 806.988,303.189 782.673,303.268 C782.626,303.268 782.573,303.268 782.521,303.268 Z M782.531,215.443 C782.484,215.443 782.437,215.443 782.385,215.443 C759.078,215.523 740.182,234.867 740.260753,258.569 C740.297,270.051 744.73,280.831 752.743,288.921 C760.719,296.98 771.288,301.408 782.526,301.408 C782.573,301.408 782.626,301.408 782.673,301.408 C805.98,301.328 824.875,281.984 824.797241,258.282 C824.713,234.633 805.771,215.443 782.531,215.443 Z M939.9,302.731 C928.176,302.731 917.152,298.107 908.831,289.703 C900.473,281.262 895.852,270.014 895.810712,258.038 C895.769,246.061 900.321,234.782 908.622,226.287 C916.922,217.793 927.983,213.089 939.759,213.046 C939.811,213.046 939.863,213.046 939.91,213.046 C951.635,213.046 962.658,217.671 970.98,226.075 C979.338,234.516 983.958,245.764 984.000288,257.74 C984.042,269.716 979.489,280.996 971.189,289.49 C962.888,297.99 951.828,302.689 940.052,302.731 C939.999,302.731 939.947,302.731 939.9,302.731 Z M939.91,214.906 C939.863,214.906 939.811,214.906 939.764,214.906 C928.474,214.944 917.874,219.451 909.918,227.6 C901.963,235.744 897.603,246.556 897.639766,258.038 C897.677,269.519 902.109,280.299 910.117,288.39 C918.093,296.448 928.662,300.876 939.9,300.876 C939.947,300.876 939.999,300.876 940.046,300.876 C951.337,300.839 961.937,296.331 969.892,288.183 C977.848,280.039 982.207,269.227 982.171221,257.751 C982.134,246.269 977.702,235.489 969.689,227.398 C961.717,219.34 951.143,214.906 939.91,214.906 Z M782.521,296.358 C772.605,296.358 763.275,292.446 756.24,285.339 C749.173,278.2 745.258,268.685 745.225799,258.553 C745.159,237.636 761.833,220.562 782.401,220.493 C782.443,220.493 782.484,220.493 782.526,220.493 C803.037,220.493 819.753,237.423 819.826207,258.298 C819.894,279.215 803.22,296.284 782.652,296.358 C782.61,296.358 782.563,296.358 782.521,296.358 Z M782.526,222.354 C782.484,222.354 782.448,222.354 782.406,222.354 C762.847,222.423 746.988,238.657 747.055782,258.548 C747.087,268.185 750.809,277.227 757.531,284.02 C764.221,290.782 773.097,294.498 782.521,294.498 C782.563,294.498 782.605,294.498 782.646,294.498 C802.206,294.434 818.064,278.194 817.996218,258.309 C817.929,238.455 802.028,222.354 782.526,222.354 Z M939.905,295.821 C919.395,295.821 902.679,278.891 902.605793,258.016 C902.538,237.099 919.212,220.025 939.78,219.956 C939.822,219.956 939.863,219.956 939.905,219.956 C960.416,219.956 977.137,236.887 977.205186,257.761 C977.236,267.893 973.389,277.429 966.369,284.621 C959.35,291.808 949.993,295.789 940.031,295.821 C939.989,295.821 939.947,295.821 939.905,295.821 Z M939.905,221.817 C939.863,221.817 939.827,221.817 939.785,221.817 C920.226,221.881 904.367,238.12 904.434782,258.011 C904.503,277.86 920.403,293.961 939.905,293.961 C939.947,293.961 939.984,293.961 940.025,293.961 C949.502,293.929 958.393,290.144 965.073,283.308 C971.748,276.472 975.412,267.404 975.376263,257.766 C975.308,237.923 959.407,221.817 939.905,221.817 Z M947.72,285.232 C947.322,285.232 946.962,284.972 946.841,284.568 C946.7,284.074 946.977,283.558 947.458,283.414 C954.813,281.203 960.886,275.861 964.117,268.759 C964.331,268.291 964.875,268.089 965.329,268.307 C965.789,268.525 965.988,269.078 965.774,269.541 C962.319,277.131 955.832,282.84 947.97,285.2 C947.897,285.222 947.808,285.232 947.72,285.232 Z M760.505,242.378 C760.312,242.378 760.118,242.314 759.951,242.186 C759.548,241.878 759.47,241.293 759.778,240.884 C764.749,234.224 772.292,230.061 780.467,229.466 C780.969,229.418 781.408,229.817 781.444,230.327 C781.481,230.837 781.099,231.284 780.597,231.321 C772.95,231.879 765.894,235.77 761.237,242.006 C761.054,242.25 760.782,242.378 760.505,242.378 Z"/>
    <path fill="#00ADA8" d="M854.277,265.012 C854.214,265.012 854.146,265.012 854.078,265.006 L781.376,260.132 C780.305,260.058 779.364,259.388 778.93,258.388 C778.496,257.389 778.648,256.23 779.317,255.38 L820.072,203.579 L813.026,190.258 C812.273,188.833 812.796,187.058 814.197,186.292 C815.597,185.527 817.343,186.059 818.096,187.483 L825.44,201.368 L872.702,199.837 C873.068,199.826 873.418,199.885 873.742,199.996 C874.087,199.837 874.469,199.741 874.871,199.736 L905.737,199.039 C900.823,183.661 898.011,172.807 897.975,172.647 C897.572,171.084 898.492,169.484 900.029,169.075 C900.322,168.995 900.619,168.963 900.912,168.985 C902.522,168.921 913.002,168.501 916.426,168.299 C916.766,168.278 917.1,168.32 917.414,168.411 C917.706,168.294 918.025,168.219 918.36,168.203 C919.369,168.161 931.244,167.81 932.149,167.81 C932.175,167.81 932.196,167.81 932.222,167.81 C939.717,167.81 945.122,171.807 946.34,178.255 C947.699,185.394 944.374,191.459 938.06,193.346 C931.511,195.302 928.464,195.148 928.134,195.127 C926.55,195.01 925.354,193.607 925.468,191.996 C925.583,190.38 926.963,189.174 928.547,189.285 C928.547,189.285 928.558,189.285 928.584,189.285 C928.913,189.285 931.375,189.237 936.429,187.728 C940.506,186.51 941.301,182.609 940.679,179.361 C939.702,174.194 934.386,173.647 932.159,173.662 C931.474,173.662 919.802,173.997 918.59,174.05 C918.266,174.061 917.947,174.024 917.654,173.934 C917.377,174.045 917.074,174.12 916.755,174.136 C914.272,174.284 908.345,174.534 904.482,174.694 C906.51,182.066 911.68,200.081 919.081,220.227 C923.681,232.74 929.561,241.543 933.691,246.726 C938.17,252.35 941.604,255.045 941.635,255.072 C942.895,256.05 943.141,257.889 942.179,259.17 C941.217,260.451 939.419,260.706 938.154,259.733 C937.543,259.266 923.111,247.933 913.687,222.274 C911.784,217.091 910.023,212.052 908.429,207.289 L883.177,234.622 C882.994,234.824 882.785,234.989 882.565,235.127 C882.518,235.186 882.471,235.244 882.419,235.297 L856.504,263.927 C856.269,264.22 855.976,264.47 855.631,264.661 C855.208,264.9 854.737,265.012 854.277,265.012 Z M787.262,254.657 L849.28,258.814 L823.035,209.182 L787.262,254.657 Z M828.487,207.13 L854.894,257.075 L878.19,231.337 C878.379,231.125 878.593,230.949 878.823,230.811 C878.875,230.747 878.927,230.678 878.985,230.614 L902.684,204.966 L874.997,205.594 C874.647,205.604 874.302,205.546 873.983,205.429 C873.648,205.583 873.272,205.679 872.88,205.689 L828.487,207.13 Z"/>
    <path fill="#00ADA8" d="M780.524 266.048C775.841 266.048 772.02 262.178 772.003956 257.41 771.989 252.631 775.799 248.73 780.498 248.714 780.509 248.714 780.519 248.714 780.524 248.714 785.208 248.714 789.029 252.584 789.04405 257.352 789.06 262.131 785.25 266.032 780.551 266.048 780.54 266.048 780.535 266.048 780.524 266.048zM780.524 250.93C780.519 250.93 780.509 250.93 780.504 250.93 777.007 250.941 774.168 253.849 774.178968 257.405 774.189 260.956 777.038 263.837 780.524 263.837 780.53 263.837 780.54 263.837 780.545 263.837 784.042 263.826 786.88 260.919 786.870026 257.362 786.854 253.812 784.011 250.93 780.524 250.93zM853.352 280.501C844.168 280.501 836.542 273.065 836.228 263.661 836.071 259.01 837.707 254.572 840.833 251.17 843.959 247.768 848.198 245.806 852.777 245.652 857.356 245.503 861.715 247.156 865.06 250.335 868.405 253.514 870.334 257.825 870.486 262.481 870.805 272.087 863.382 280.167 853.937 280.491 853.744 280.496 853.545 280.501 853.352 280.501zM853.373 247.853C853.2 247.853 853.028 247.858 852.85 247.863 848.856 248.002 845.151 249.713 842.422 252.685 839.694 255.656 838.267 259.526 838.403 263.592 838.68 271.98 845.611 278.561 853.864 278.285 862.112 277.998 868.594 270.944 868.311 262.561 868.175 258.5 866.492 254.731 863.57 251.956 860.779 249.293 857.173 247.853 853.373 247.853zM869.148 241.325C869.116 241.325 869.08 241.325 869.048 241.32L849.609 239.188C849.364 239.162 849.139 239.034 848.987 238.837 848.836 238.641 848.768 238.391 848.799 238.141L849.499 232.65C849.562 232.14 850.022 231.778 850.524 231.847L870.235 234.42C870.486 234.452 870.711 234.59 870.862 234.798 871.014 235.005 871.066 235.265 871.019 235.521L870.047 240.57C869.963 241.012 869.582 241.325 869.148 241.325zM850.738 237.439L868.411 239.374 869.033 236.137 851.198 233.809 850.738 237.439z"/>
    <path fill="#D3D9E5" d="M833.51,147.983 C833.51,147.983 833.835,144.767 842.919,135.953 C852.003,127.14 860.074,127.592 865.74,133.312 C871.876,139.51 877.699,143.916 881.792,147.818 C885.184,151.023 907.765,170.377 907.765,170.377 L918.48,162.33 L896.637,140.264 C896.124,139.743 893.48,136.325 893.135,135.677 C890.296,130.361 878.635,107.541 871.741,101.014 C864.041,93.7207 855.453,90.4569 842.03,93.4283 C828.148,96.5007 809.32,104.517 797.873,123.951 C788.83,139.302 788.433,153.011 792.782,161.782 L833.51,147.983 Z"/>
    <path fill="#00ADA8" d="M608.719,221.514 C608.264,221.514 607.872,221.168 607.815,220.7 L601.229,168.113 C601.197,167.863 601.265,167.613 601.422,167.417 C601.579,167.22 601.804,167.098 602.049,167.071 L626.726,164.626 C627.228,164.583 627.677,164.95 627.724,165.46 C627.771,165.971 627.405,166.428 626.904,166.476 L603.163,168.831 L609.628,220.472 C609.691,220.982 609.336,221.445 608.839,221.514 C608.797,221.514 608.761,221.514 608.719,221.514 Z"/>
    <path fill="#00ADA8" d="M611.484 178.718C611.249 178.718 611.014 178.627 610.836 178.441L602.023 169.426C601.668 169.059 601.668 168.474 602.028 168.108 602.389 167.746 602.964 167.746 603.32 168.113L612.132 177.128C612.488 177.495 612.488 178.08 612.127 178.447 611.954 178.627 611.719 178.718 611.484 178.718zM595.443 276.727C595.275 276.727 595.103 276.68 594.951 276.584L577.477 265.309C577.409 265.267 577.347 265.219 577.295 265.161 577.2 265.06 577.127 264.943 577.085 264.81 577.044 264.677 577.028 264.539 577.044 264.395 577.049 264.342 577.059 264.289 577.075 264.241 577.425 262.609 580.901 230.12 583.164 208.592 583.18 208.421 583.243 208.251 583.353 208.108 583.368 208.092 583.379 208.071 583.394 208.055 583.504 207.932 583.64 207.847 583.786 207.799 583.865 207.773 583.954 207.757 584.042 207.757 584.053 207.757 584.063 207.757 584.074 207.757L606.513 207.752C607.02 207.752 607.428 208.166 607.428 208.682 607.428 209.198 607.02 209.612 606.513 209.612L586.431 209.617 598.84 221.089 705.24 223.018 695.21 207.162 682.764 207.438C682.252 207.449 681.839 207.039 681.829 206.529 681.818 206.013 682.221 205.588 682.723 205.578L695.68 205.291C695.989 205.291 696.297 205.445 696.47 205.716L707.66 223.406C707.791 223.582 707.864 223.794 707.854 224.018L706.615 255.826 772.417 256.969C772.925 256.98 773.327 257.4 773.317183 257.915 773.306 258.431 772.883 258.862 772.386 258.83L706.542 257.687 705.836 275.845C705.815 276.345 705.413 276.738 704.922 276.738L595.443 276.738C595.453 276.727 595.448 276.727 595.443 276.727zM596.415 274.867L704.059 274.867 706.004 224.889 599.358 222.954 596.415 274.867zM578.946 264.055L594.617 274.165 597.549 222.402 584.79 210.606C583.112 226.659 579.73 258.569 578.946 264.055z"/>
    <path fill="#00ADA8" d="M650.556 303.3C649.573 303.3 648.585 303.247 647.587 303.146 631.801 301.493 620.281 287.093 621.907 271.039 622.691 263.263 626.412 256.262004 632.371 251.329 638.335 246.396 645.825 244.121 653.478 244.918 669.263 246.571 680.783 260.972 679.158 277.025 677.637 292.068 665.108 303.3 650.556 303.3zM650.483 246.63C644.315 246.63 638.382 248.767 633.532 252.78 627.949 257.399 624.468 263.954 623.731 271.236 622.21 286.269 632.998 299.754 647.78 301.301 662.562 302.843 675.823 291.877 677.344 276.844 678.865 261.811 668.077 248.326 653.295 246.779 652.354 246.678 651.413 246.63 650.483 246.63zM650.577 296.895C649.798 296.895 649.019 296.852 648.235 296.772 635.905 295.481 626.909 284.233 628.179 271.698 629.449 259.159 640.51 250.005 652.84 251.302 658.814 251.93 664.188 254.88 667.977 259.616 671.767 264.352 673.513 270.306 672.901 276.376 672.284 282.452 669.383 287.916 664.726 291.77 660.67 295.114 655.72 296.895 650.577 296.895zM650.519 253.035C640.076 253.035 631.091 261.094 629.998 271.885 628.833 283.403 637.096 293.737 648.423 294.917 653.912 295.497 659.285 293.859 663.566 290.319 667.841 286.779 670.512 281.761 671.077 276.18 671.641 270.598 670.037 265.134 666.556 260.78 663.074 256.432 658.14 253.716 652.652 253.142 651.931 253.073 651.22 253.035 650.519 253.035zM684.076 223.778C683.606 223.778 683.203 223.411 683.167 222.922L679.022 171.658 611.756 177.702 618.718 221.519C618.797 222.024 618.462 222.502 617.96 222.588 617.464 222.673 616.993 222.327 616.91 221.817L609.79 177.011C609.749 176.756 609.817 176.496 609.973 176.294 610.13 176.092 610.36 175.959 610.616 175.937L679.774 169.724C680.015 169.702 680.261 169.777 680.443 169.941 680.632 170.101 680.747 170.329 680.768 170.574L684.986 222.774C685.027 223.284 684.651 223.736 684.149 223.778 684.128 223.778 684.102 223.778 684.076 223.778z"/>
    <polygon fill="#FFF" points="633.192 168.65 684.218 170.186 687.913 130.308 675.055 119.831 625.848 118.576 623.412 163.658"/>
    <path fill="#00ADA8" d="M684.217,171.116 C684.207,171.116 684.196,171.116 684.191,171.116 L633.165,169.58 C633.03,169.575 632.899,169.543 632.784,169.479 L623.004,164.482 C622.68,164.318 622.482,163.972 622.502,163.6 L624.938,118.523 C624.964,118.018 625.377,117.62 625.874,117.646 L675.081,118.901 C675.279,118.906 675.473,118.975 675.629,119.103 L688.488,129.58 C688.728,129.777 688.854,130.08 688.827,130.393 L685.132,170.271 C685.08,170.75 684.688,171.116 684.217,171.116 Z M633.422,167.725 L683.386,169.229 L686.956,130.723 L674.725,120.756 L626.715,119.528 L624.363,163.095 L633.422,167.725 Z"/>
    <path fill="#00ADA8" d="M635.33,128.57 C635.115,128.57 634.896,128.49 634.723,128.336 L625.2,119.698 C624.823,119.358 624.792,118.768 625.126,118.385 C625.461,118.002 626.041,117.971 626.418,118.311 L635.941,126.949 C636.317,127.289 636.349,127.879 636.014,128.262 C635.831,128.464 635.58,128.57 635.33,128.57 Z"/>
    <path fill="#C82232" d="M792.776,161.782 C797.125,170.547 800.507,178.835 817.134,178.255 C829.276,177.835 850.409,179.637 853.77,180.116 C857.131,180.594 864.815,182.518 862.917,189.843 C861.02,197.168 849.588,222.093 849.588,222.093 L869.744,223.975 C869.744,223.975 884.985,190.747 886.883,183.422 C888.137,178.563 888.691,165.343 876.732,160.038 C864.72,154.712 833.51,147.988 833.51,147.988 L792.776,161.782 Z"/>
    <path fill="#FFCA28" d="M849.588,222.093 L869.744,223.975 C869.744,223.975 882.712,228.812 884.64,231.241 C886.569,233.676 886.099,236.605 881.3,236.62104 C876.502,236.637 844.34,231.869 844.34,231.869 L849.588,222.093 Z"/>
    <path fill="#F68632" d="M918.48,162.329 C918.48,162.329 927.632,165.928 929.561,170.069 C931.495,174.21 930.11,176.857 927.23,175.645 C924.35,174.433 924.042,175.969 924.287,177.676 C924.533,179.382 921.418,179.882 920.21,178.664 C919.008,177.447 917.335,179.164 917.335,180.381 C917.341,181.599 915.668,183.56 913.023,181.859 C910.378,180.158 907.561,169.702 907.561,169.702 L918.48,162.329 Z"/>
    <path fill="#FFF" d="M825.006,188.509 L800.539,188.594041 C797.899,188.605 795.735,186.415 795.724958,183.73 C795.714,181.046 797.868,178.845 800.507,178.834 L824.975,178.748966 C827.614,178.739 829.778,180.929 829.789035,183.613 C829.799,186.298 827.646,188.498 825.006,188.509 Z"/>
    <path fill="#00ADA8" d="M800.523 189.524C799.007 189.524 797.58 188.924 796.503 187.834 795.416 186.739 794.814971 185.282 794.814971 183.736 794.805 180.53 797.361 177.92 800.507 177.91L824.975 177.824C824.98 177.824 824.985 177.824 824.996 177.824 826.511 177.824 827.938 178.425 829.015 179.515 830.102 180.61 830.698 182.066 830.704029 183.613 830.714 186.819 828.158 189.434 825.011 189.445L800.544 189.53C800.533 189.524 800.528 189.524 800.523 189.524zM824.99 179.68C824.985 179.68 824.98 179.68 824.98 179.68L800.512 179.765C798.369 179.77 796.634 181.551 796.643957 183.725 796.65 184.772 797.057 185.761 797.794 186.51 798.531 187.26 799.493 187.68 800.539 187.664L825.006 187.579C827.149 187.573 828.885 185.793 828.874052 183.619 828.869 182.571 828.461 181.583 827.724 180.833 826.987 180.089 826.02 179.68 824.99 179.68zM633.191 170.55C633.171 170.55 633.15 170.55 633.129 170.55 632.627 170.518 632.245 170.071 632.277 169.561L634.937 128.322C634.969 127.812 635.397 127.429 635.899 127.456L687.96 130.358C688.461 130.385 688.848 130.826 688.822 131.336 688.796 131.847 688.367 132.24 687.86 132.213L636.704 129.364 634.101 169.689C634.07 170.172 633.672 170.55 633.191 170.55z"/>
  </g>
</svg>
