<svg preserveAspectRatio="xMaxYMid meet" viewBox="0 0 291 212" fill="none"
    xmlns="http://www.w3.org/2000/svg">
    <path d="M80.4462 168.446L79.3291 172.607C79.3291 172.607 87.0536 176.345 89.878 177.302C92.7024 178.259 91.2288 175.257 90.2147 173.932C89.2006 172.607 86.7446 169.83 86.7446 169.83L80.4462 168.446Z" fill="#00ADA8"/>
    <path d="M65.4915 141.429C65.4915 141.429 76.2583 142.272 81.0792 144.08C85.904 145.883 86.3992 146.536 85.5832 149.131C84.5255 152.493 79.1064 170.123 79.1064 170.123L88.3164 171.923C88.3164 171.923 95.4071 152.6 96.8411 146.192C98.3147 139.622 92.5114 136.422 87.9203 134.258C83.8362 132.336 71.0413 128.083 71.0413 128.083L55.9805 132.324" fill="#1B264C"/>
    <path d="M91.6125 43.4665C91.4224 43.4665 91.2362 43.3835 91.1094 43.2371C90.9708 43.0789 90.9153 42.8692 90.9589 42.6636L95.9501 18.3133C96.0016 18.0562 96.1997 17.8545 96.4572 17.7951C96.7146 17.7358 96.98 17.8347 97.1385 18.0404L112.354 37.996C112.481 38.1622 112.524 38.3837 112.465 38.5854C112.405 38.7871 112.255 38.9533 112.061 39.0245L106.836 41.0062C106.551 41.1169 106.226 41.0141 106.051 40.7649L101.734 34.6061L98.7349 35.1243L97.4118 42.5528C97.3603 42.8534 97.1068 43.0828 96.7978 43.1026L91.664 43.4626C91.6442 43.4665 91.6283 43.4665 91.6125 43.4665ZM96.9602 20.0221L92.4444 42.0702L96.1799 41.8092L97.4911 34.4321C97.5386 34.1552 97.7565 33.9376 98.0337 33.8902L101.912 33.2177C102.169 33.1742 102.427 33.281 102.573 33.4946L106.836 39.5743L110.738 38.0949L96.9602 20.0221Z" fill="#00ADA8"/>
    <path d="M114.702 37.1814C114.413 37.1814 114.152 36.9955 114.065 36.7107L108.166 17.5817C108.063 17.2534 108.23 16.9014 108.546 16.7669L113.181 14.8287C113.355 14.7575 113.554 14.7614 113.724 14.8405C113.894 14.9196 114.025 15.07 114.08 15.2519L118.509 29.8439L124.701 28.5623C125.053 28.4911 125.406 28.7126 125.489 29.0646L126.697 34.1831C126.741 34.3611 126.705 34.547 126.606 34.7013C126.507 34.8555 126.348 34.9584 126.17 34.994L114.829 37.1695C114.789 37.1774 114.746 37.1814 114.702 37.1814ZM109.624 17.7676L115.17 35.7455L125.239 33.8152L124.34 30.006L118.188 31.2797C117.844 31.3509 117.511 31.1492 117.412 30.8209L113.015 16.3476L109.624 17.7676Z" fill="#00ADA8"/>
    <path d="M129.138 34.8674C128.837 34.8674 128.567 34.6657 128.492 34.3651L123.386 14.5439C123.295 14.1958 123.501 13.8359 123.845 13.737L128.373 12.4198C128.547 12.3684 128.738 12.3921 128.896 12.4831C129.054 12.574 129.169 12.7283 129.209 12.9063L132.667 27.3677L138.95 26.3947C139.302 26.3393 139.631 26.5687 139.706 26.9168L140.812 32.0906C140.851 32.2686 140.812 32.4546 140.712 32.6049C140.613 32.7552 140.455 32.858 140.277 32.8897L129.26 34.8595C129.217 34.8635 129.177 34.8674 129.138 34.8674ZM124.844 14.8406L129.633 33.4316L139.358 31.6911L138.53 27.8108L132.263 28.7838C131.918 28.8352 131.59 28.6177 131.51 28.2775L128.072 13.8991L124.844 14.8406Z" fill="#00ADA8"/>
    <path d="M148.529 31.5447C146.801 31.5447 145.209 31.0938 143.767 30.1919C141.153 28.5583 139.243 25.5125 138.388 21.6163C137.053 15.5406 139.881 9.68248 144.821 8.27827C149.998 6.80681 155.663 11.6603 157.271 16.9844C158.416 20.7778 158.19 24.6225 156.669 27.2648C155.504 29.2901 153.65 30.6191 151.159 31.2164C150.256 31.4379 149.376 31.5447 148.529 31.5447ZM146.742 9.35418C146.219 9.35418 145.704 9.42142 145.193 9.56777C140.931 10.7782 138.518 15.9481 139.699 21.3315C140.475 24.8757 142.175 27.6208 144.48 29.0606C146.31 30.2077 148.457 30.4965 150.854 29.919C152.973 29.4087 154.542 28.2933 155.516 26.6003C156.855 24.2705 157.037 20.8173 155.996 17.372C154.756 13.2781 150.691 9.35418 146.742 9.35418Z" fill="#00ADA8"/>
    <path d="M148.647 26.2047C147.677 26.2047 146.694 25.916 145.799 25.3503C144.258 24.3812 143.133 22.7397 142.721 20.845C141.992 17.5223 143.561 14.3144 146.29 13.5352C149.162 12.7243 152.28 15.3666 153.155 18.2739C153.539 19.5436 154.015 21.9604 152.906 23.8828C152.26 24.9983 151.194 25.738 149.745 26.0782C149.38 26.1612 149.016 26.2047 148.647 26.2047ZM144.024 20.5562C144.361 22.0791 145.288 23.4517 146.512 24.2191C147.455 24.8124 148.465 25.0062 149.436 24.7768C150.513 24.5236 151.289 23.9975 151.741 23.2144C152.367 22.1305 152.414 20.4692 151.872 18.6615C151.186 16.395 148.762 14.2234 146.655 14.8207C144.603 15.4061 143.45 17.9258 144.024 20.5562Z" fill="#00ADA8"/>
    <path d="M97.6343 31.8494C97.4402 31.8494 97.2541 31.7664 97.1273 31.616C96.9847 31.4499 96.9332 31.2245 96.9886 31.0109L97.876 27.6328C97.9394 27.3915 98.1335 27.2056 98.3751 27.1502C98.6207 27.0949 98.8742 27.1819 99.0327 27.3718L101.576 30.4017C101.734 30.5916 101.778 30.8526 101.683 31.0821C101.588 31.3115 101.378 31.4697 101.128 31.4934L97.6938 31.8376C97.6819 31.8494 97.6581 31.8494 97.6343 31.8494ZM98.8425 29.2229L98.5296 30.4175L99.7457 30.2949L98.8425 29.2229Z" fill="#00ADA8"/>
    <path d="M163.157 22.9533C162.824 22.9533 162.539 22.708 162.496 22.3758L159.612 1.75953C159.584 1.5578 159.647 1.35211 159.79 1.20576C159.933 1.0594 160.131 0.980292 160.337 1.00007L166.794 1.58153C167.138 1.61318 167.404 1.90193 167.404 2.24606V22.0949C167.404 22.4509 167.126 22.7436 166.77 22.7634L163.201 22.9493C163.181 22.9533 163.169 22.9533 163.157 22.9533ZM161.054 2.40824L163.736 21.5847L166.061 21.462V2.85917L161.054 2.40824Z" fill="#00ADA8"/>
    <path d="M166.674 33.744C164.369 33.744 162.491 31.869 162.491 29.5669C162.491 27.2648 164.369 25.3899 166.674 25.3899C168.98 25.3899 170.857 27.2648 170.857 29.5669C170.857 31.869 168.98 33.744 166.674 33.744ZM166.674 26.7229C165.106 26.7229 163.826 27.9966 163.826 29.5669C163.826 31.1373 165.102 32.407 166.674 32.407C168.247 32.407 169.522 31.1333 169.522 29.5669C169.522 28.0005 168.243 26.7229 166.674 26.7229Z" fill="#00ADA8"/>
    <path d="M151.864 173.347C151.864 173.347 156.871 177.223 158.194 178.9C159.054 179.992 159.272 181.451 156.713 180.791C154.154 180.126 142.23 176.044 142.23 176.044L144.069 171.491L151.864 173.347Z" fill="#1B264C"/>
    <path d="M138.11 134.752C138.11 134.752 150.477 138.811 157.338 143.134C164.199 147.462 164.381 149.803 164.469 152.331C164.56 154.854 162.302 158.102 160.947 160.262C159.592 162.425 152.288 174.43 152.288 174.43L142.761 171.491C142.761 171.491 150.568 157.829 151.289 155.938C152.01 154.044 152.913 152.422 150.477 151.251C148.041 150.08 135.943 148.727 135.943 148.727L138.11 134.752Z" fill="#BC432F"/>
    <path opacity="0.5" d="M289.02 212H4.88889C3.83122 212 2.97559 211.146 2.97559 210.09C2.97559 209.034 3.83122 208.179 4.88889 208.179H289.016C290.074 208.179 290.929 209.034 290.929 210.09C290.929 211.146 290.074 212 289.02 212Z" fill="#E8EBEE"/>
    <path d="M0.669496 124.464C0.301097 124.464 0.00400044 124.168 3.91562e-05 123.8C-0.00392213 123.432 0.293174 123.127 0.665535 123.127L19.0103 122.997H19.0142C19.3826 122.997 19.6797 123.293 19.6837 123.661C19.6876 124.029 19.3905 124.334 19.0182 124.334L0.673458 124.464H0.669496Z" fill="#C6CEDB"/>
    <path d="M6.2116 118.669C5.84717 118.669 5.55007 118.377 5.54215 118.013C5.53422 117.645 5.83132 117.34 6.19972 117.332L26.4538 116.969C26.8341 116.976 27.1272 117.257 27.1351 117.625C27.143 117.993 26.8459 118.298 26.4775 118.305L6.22349 118.669C6.22349 118.669 6.21953 118.669 6.2116 118.669Z" fill="#C6CEDB"/>
    <path d="M3.84637 131.339C3.48193 131.339 3.18484 131.046 3.17691 130.682C3.16899 130.314 3.46609 130.01 3.83449 130.002L24.0885 129.638C24.4649 129.634 24.762 129.927 24.7699 130.295C24.7778 130.662 24.4807 130.967 24.1123 130.975L3.85825 131.339C3.85429 131.339 3.85033 131.339 3.84637 131.339Z" fill="#C6CEDB"/>
    <path d="M200.477 144.729C200.477 144.729 211.244 145.176 216.065 146.983C220.889 148.787 221.385 149.835 220.569 152.43C219.511 155.792 215.601 169.221 215.601 169.221L224.811 171.021C224.811 171.021 230.392 155.895 231.826 149.487C233.3 142.917 227.497 139.717 222.906 137.553C218.822 135.631 206.027 131.379 206.027 131.379L190.966 135.619" fill="#2F3B66"/>
    <path d="M215.76 163.917L227.152 167.089L221.456 178.43C221.456 178.43 224.526 180.356 227.152 181.665C229.779 182.974 228.436 184.62 226.32 184.137C224.201 183.655 212.539 180.633 212.539 180.633L215.76 163.917Z" fill="#BC432F"/>
    <path d="M28.4462 210.758C13.3735 210.758 1.11328 198.516 1.11328 183.465C1.11328 168.414 13.3735 156.172 28.4462 156.172C43.5188 156.172 55.779 168.414 55.779 183.465C55.779 198.516 43.5188 210.758 28.4462 210.758ZM28.4462 157.509C14.1142 157.509 2.4522 169.154 2.4522 183.465C2.4522 197.776 14.1142 209.421 28.4462 209.421C42.7781 209.421 54.4401 197.776 54.4401 183.465C54.4401 169.154 42.7781 157.509 28.4462 157.509Z" fill="#D3D9E5"/>
    <path d="M137.335 98.1518L140.199 90.2091C140.199 90.2091 134.803 85.953 134.039 81.4397C132.692 73.5049 140.313 66.6935 149.516 66.5115C160.627 66.29 162.782 77.5712 163.186 79.7111C163.59 81.8511 163.538 87.7567 160.381 90.8657C157.224 93.9748 150.946 93.7533 150.946 93.7533L147.079 102.313L137.335 98.1518Z" fill="#FFCB57"/>
    <path d="M150.406 77.243C150.002 77.4645 149.495 77.3142 149.273 76.9107L148.873 76.179C148.651 75.7755 148.802 75.2692 149.206 75.0477C149.61 74.8262 150.117 74.9765 150.339 75.3799L150.739 76.1117C150.961 76.5152 150.81 77.0215 150.406 77.243Z" fill="#1B264C"/>
    <path d="M157.532 74.0666C157.18 74.2604 156.736 74.1299 156.542 73.7779L156.193 73.1371C155.999 72.785 156.13 72.342 156.483 72.1482C156.835 71.9544 157.279 72.0849 157.473 72.4369L157.822 73.0738C158.016 73.4298 157.885 73.8728 157.532 74.0666Z" fill="#1B264C"/>
    <path d="M155.965 86.5264C155.164 86.5264 154.261 86.4315 153.271 86.1783C149.223 85.1459 148.248 82.1041 148.208 81.9776C148.129 81.7244 148.272 81.4594 148.525 81.3803C148.779 81.3051 149.044 81.4436 149.123 81.6967C149.159 81.8114 150.007 84.3627 153.509 85.2527C157.252 86.206 159.577 84.7069 159.601 84.695C159.823 84.5486 160.116 84.608 160.263 84.8295C160.409 85.051 160.35 85.3437 160.128 85.4901C160.045 85.5415 158.52 86.5264 155.965 86.5264Z" fill="#FF6333"/>
    <path d="M130.046 82.4286C132.212 85.4348 135.203 88.3303 138.455 87.1515C142.951 85.5258 141.062 74.838 141.062 74.838C141.062 74.838 143.046 76.4439 145.982 74.0627C148.917 71.6814 149.816 69.1895 149.816 69.1895C149.816 69.1895 156.289 71.3136 161.157 68.4577C166.026 65.6018 170.043 60.4715 168.759 55.3649C167.476 50.2583 163.724 51.8761 162.033 52.5169C160.341 53.1537 157.402 55.2502 157.402 55.2502C157.402 55.2502 158.06 50.6538 156.705 47.7742C155.35 44.8946 151.254 45.48 148.307 47.4696C145.36 49.4593 142.69 57.3664 142.69 57.3664C142.69 57.3664 139.374 53.66 136.388 53.4306C133.401 53.2012 129.067 58.1061 127.72 64.518C126.413 70.744 127.879 79.4224 130.046 82.4286Z" fill="#C82232"/>
    <path d="M154.415 76.8988C154.415 76.8988 156.269 80.5221 157.092 81.1708C157.916 81.8195 159.113 81.0165 159.81 80.1661C160.507 79.3156 159.362 78.3228 158.217 77.4645C157.073 76.6061 156.3 75.8981 155.793 75.5698C154.842 74.9566 153.733 75.7754 154.415 76.8988Z" fill="#FFCB57"/>
    <path d="M157.77 81.8827C157.43 81.8827 157.097 81.7799 156.796 81.5465C155.924 80.8622 154.221 77.5752 153.995 77.1321C153.599 76.4636 153.647 75.7358 154.122 75.277C154.613 74.7984 155.409 74.7549 156.051 75.1702C156.336 75.3561 156.681 75.6369 157.117 75.9929C157.513 76.3173 157.96 76.6812 158.503 77.0886C159.624 77.9312 160.389 78.6511 160.488 79.4501C160.531 79.814 160.424 80.17 160.179 80.4706C159.541 81.2499 158.626 81.8827 157.77 81.8827ZM155.124 75.8347C154.982 75.8347 154.867 75.8822 154.791 75.9573C154.637 76.1077 154.649 76.3608 154.823 76.6496L154.839 76.6812C155.536 78.0459 156.847 80.3717 157.386 80.795C157.96 81.2459 158.951 80.4627 159.438 79.8615C159.545 79.7309 159.549 79.636 159.541 79.5569C159.474 78.9992 158.392 78.1883 157.929 77.8402C157.374 77.4209 156.895 77.0332 156.515 76.7247C156.103 76.3885 155.774 76.1235 155.532 75.9653C155.39 75.8743 155.247 75.8347 155.124 75.8347Z" fill="#FF6333"/>
    <path opacity="0.5" d="M145.427 93.1759C145.379 93.1759 145.328 93.168 145.276 93.1522C143.537 92.5826 140.273 90.6997 140.135 90.6167C139.905 90.4861 139.83 90.1934 139.96 89.964C140.091 89.7346 140.384 89.6594 140.614 89.79C140.646 89.8097 143.926 91.7044 145.57 92.2424C145.819 92.3254 145.958 92.5944 145.875 92.8436C145.815 93.0493 145.629 93.1759 145.427 93.1759Z" fill="#FF862C"/>
    <path d="M81.9241 193.168C76.5644 193.168 72.207 188.817 72.207 183.465C72.207 178.113 76.5644 173.762 81.9241 173.762C87.2837 173.762 91.6411 178.113 91.6411 183.465C91.6411 188.813 87.2797 193.168 81.9241 193.168ZM81.9241 175.099C77.3052 175.099 73.5459 178.853 73.5459 183.465C73.5459 188.077 77.3052 191.831 81.9241 191.831C86.5429 191.831 90.3022 188.077 90.3022 183.465C90.3022 178.853 86.5429 175.099 81.9241 175.099Z" fill="#576194"/>
    <path d="M28.4465 193.168C23.0869 193.168 18.7295 188.817 18.7295 183.465C18.7295 178.113 23.0869 173.762 28.4465 173.762C33.8061 173.762 38.1636 178.113 38.1636 183.465C38.1636 188.813 33.8061 193.168 28.4465 193.168ZM28.4465 175.099C23.8277 175.099 20.0684 178.853 20.0684 183.465C20.0684 188.077 23.8277 191.831 28.4465 191.831C33.0654 191.831 36.8246 188.077 36.8246 183.465C36.8246 178.853 33.0654 175.099 28.4465 175.099Z" fill="#576194"/>
    <path d="M14.2375 170.681C14.0712 170.681 13.9048 170.621 13.778 170.499C13.5087 170.246 13.4968 169.822 13.7543 169.553C17.3234 165.796 22.1284 163.569 27.29 163.28C27.6703 163.26 27.9753 163.541 27.9951 163.909C28.0149 164.277 27.7336 164.593 27.3652 164.613C22.5444 164.882 18.0562 166.967 14.7248 170.475C14.5941 170.614 14.4158 170.681 14.2375 170.681Z" fill="#576194"/>
    <path d="M277.449 198.994C277.255 198.994 277.065 198.911 276.93 198.749C276.696 198.464 276.736 198.041 277.025 197.808C280.761 194.754 283.157 190.431 283.779 185.633C283.827 185.269 284.159 185.008 284.528 185.055C284.892 185.103 285.154 185.439 285.106 185.803C284.441 190.937 281.874 195.565 277.873 198.84C277.75 198.943 277.6 198.994 277.449 198.994Z" fill="#576194"/>
    <path d="M213.985 193.168C208.625 193.168 204.268 188.817 204.268 183.465C204.268 178.113 208.625 173.762 213.985 173.762C219.344 173.762 223.702 178.113 223.702 183.465C223.702 188.813 219.344 193.168 213.985 193.168ZM213.985 175.099C209.366 175.099 205.606 178.853 205.606 183.465C205.606 188.077 209.366 191.831 213.985 191.831C218.603 191.831 222.363 188.077 222.363 183.465C222.363 178.853 218.607 175.099 213.985 175.099Z" fill="#576194"/>
    <path d="M28.4462 210.758C13.3735 210.758 1.11328 198.516 1.11328 183.465C1.11328 168.414 13.3735 156.172 28.4462 156.172C43.5188 156.172 55.779 168.414 55.779 183.465C55.779 198.516 43.5188 210.758 28.4462 210.758ZM28.4462 157.509C14.1142 157.509 2.4522 169.154 2.4522 183.465C2.4522 197.776 14.1142 209.421 28.4462 209.421C42.7781 209.421 54.4401 197.776 54.4401 183.465C54.4401 169.154 42.7781 157.509 28.4462 157.509Z" fill="#576194"/>
    <path d="M263.668 210.758C248.595 210.758 236.335 198.516 236.335 183.465C236.335 168.414 248.595 156.172 263.668 156.172C278.741 156.172 291.001 168.414 291.001 183.465C291.001 198.516 278.741 210.758 263.668 210.758ZM263.668 157.509C249.336 157.509 237.674 169.154 237.674 183.465C237.674 197.776 249.336 209.421 263.668 209.421C278 209.421 289.662 197.776 289.662 183.465C289.662 169.154 278 157.509 263.668 157.509Z" fill="#576194"/>
    <path d="M111.835 147.323C111.202 147.323 110.687 146.809 110.687 146.176V136.766H102.483C101.849 136.766 101.334 136.252 101.334 135.619C101.334 134.986 101.849 134.472 102.483 134.472H111.835C112.469 134.472 112.984 134.986 112.984 135.619V146.176C112.984 146.809 112.469 147.323 111.835 147.323Z" fill="#576194"/>
    <path d="M181.97 147.323C181.336 147.323 180.821 146.809 180.821 146.176V136.766H174.97C174.336 136.766 173.821 136.252 173.821 135.619C173.821 134.986 174.336 134.472 174.97 134.472H181.97C182.603 134.472 183.118 134.986 183.118 135.619V146.176C183.118 146.809 182.603 147.323 181.97 147.323Z" fill="#576194"/>
    <path d="M209.081 184.992H28.4464C27.8681 184.992 27.3412 184.668 27.0798 184.149C26.8183 183.635 26.8738 183.018 27.2184 182.551L54.8088 145.381C55.098 144.994 55.5535 144.764 56.0368 144.764H247.862C248.706 144.764 249.391 145.448 249.391 146.291C249.391 147.134 248.706 147.818 247.862 147.818H56.8092L31.4847 181.934H208.523L247.454 148.965C248.1 148.419 249.062 148.498 249.609 149.143C250.156 149.788 250.076 150.749 249.431 151.295L210.071 184.624C209.794 184.861 209.446 184.992 209.081 184.992Z" fill="#576194"/>
    <path d="M263.252 184.992C262.824 184.992 262.4 184.814 262.095 184.466C258.906 180.799 253.079 173.189 249.902 163.399C246 151.382 244.939 132.826 244.895 132.039C244.871 131.62 245.022 131.208 245.311 130.904C245.6 130.599 246 130.425 246.42 130.425H258.177C261.156 130.425 263.774 131.41 265.549 133.194C266.963 134.618 267.736 136.446 267.72 138.34C267.68 143.661 264.226 146.967 258.7 146.967H253.135C252.291 146.967 251.605 146.283 251.605 145.44C251.605 144.598 252.291 143.914 253.135 143.914H258.7C263.592 143.914 264.642 140.872 264.662 138.321C264.67 137.245 264.214 136.188 263.378 135.35C262.182 134.147 260.336 133.483 258.177 133.483H248.056C248.409 138.297 249.68 152.822 252.81 162.453C255.82 171.729 261.366 178.968 264.404 182.46C264.959 183.097 264.892 184.062 264.254 184.616C263.965 184.869 263.608 184.992 263.252 184.992Z" fill="#576194"/>
    <path d="M210.4 184.992C209.83 184.992 209.279 184.671 209.018 184.122L192.17 148.755L150.398 184.624C150.042 184.928 149.567 185.055 149.103 184.964C148.644 184.873 148.247 184.576 148.038 184.157L129.538 147.758C129.158 147.007 129.455 146.085 130.212 145.705C130.964 145.326 131.887 145.622 132.268 146.378L149.884 181.036L191.695 145.136C192.055 144.827 192.543 144.701 193.01 144.8C193.477 144.898 193.87 145.207 194.076 145.638L211.787 182.808C212.151 183.572 211.826 184.482 211.062 184.845C210.844 184.944 210.618 184.992 210.4 184.992Z" fill="#576194"/>
    <path d="M81.9236 184.992C81.8484 184.992 81.7731 184.988 81.7018 184.976C81.274 184.913 80.8897 184.671 80.6521 184.311L57.2726 149.135C56.8051 148.431 56.9992 147.485 57.7004 147.019C58.4055 146.552 59.3522 146.746 59.8197 147.446L82.2564 181.206L124.915 145.971C125.565 145.433 126.532 145.524 127.07 146.172C127.609 146.821 127.518 147.786 126.868 148.324L82.9021 184.644C82.6208 184.869 82.2762 184.992 81.9236 184.992Z" fill="#576194"/>
    <path d="M149.733 192.219C144.373 192.219 140.016 187.868 140.016 182.516C140.016 177.164 144.373 172.813 149.733 172.813C155.092 172.813 159.45 177.164 159.45 182.516C159.454 187.864 155.092 192.219 149.733 192.219ZM149.733 174.146C145.114 174.146 141.355 177.9 141.355 182.512C141.355 187.124 145.114 190.878 149.733 190.878C154.352 190.878 158.111 187.124 158.111 182.512C158.115 177.9 154.355 174.146 149.733 174.146Z" fill="#576194"/>
    <path d="M118.094 131.41C118.094 131.41 116.125 133.78 118.086 141.362C120.047 148.945 140.044 192.025 140.044 192.025L152.292 187.868C152.292 187.868 141.533 150.939 140.487 145.52C139.442 140.1 138.111 134.753 138.111 134.753L118.094 131.41Z" fill="#FF6333"/>
    <path d="M140.979 191.712L152.292 187.864C152.292 187.864 158.622 188.678 160.928 189.406C163.229 190.134 162.987 191.613 160.928 192.021C158.868 192.432 143.161 197.203 143.161 197.203L140.979 191.712Z" fill="#1B264C"/>
    <path d="M176.024 128.72C176.024 128.72 178.92 130.71 180.12 132.43C181.324 134.151 180.358 135.536 179.815 135.619C179.296 135.702 178.333 135.013 178.333 135.013C178.333 135.013 178.219 136.236 177.822 136.833C177.41 137.454 175.996 136.43 175.996 136.43C175.996 136.43 176.503 138.518 174.97 137.909C174.004 137.525 170.712 132.794 170.712 132.794L176.024 128.72Z" fill="#FFCB57"/>
    <path d="M136.577 96.4115C136.577 96.4115 144.48 93.1482 151.412 99.9992C154.268 102.823 158.733 111.399 164.794 117.091C172.423 124.255 177.097 129.333 177.097 129.333L171.056 134.582C171.056 134.582 161.121 127.557 157.006 123.562C152.89 119.567 150.03 115.125 150.03 115.125L140.531 135.033L115.056 131.121C115.056 131.121 123.687 112.831 126.322 108.005C128.956 103.179 131.78 98.1915 136.577 96.4115Z" fill="#D3D9E5"/>
    <path d="M247.842 124.528C248.246 124.836 254.275 128.784 255.305 131.153C256.335 133.522 253.416 132.565 253.416 132.565C253.416 132.565 253.582 133.582 252.366 134.013C251.15 134.444 250.552 133.582 250.552 133.582C250.552 133.582 250.278 134.61 249.411 134.61C248.547 134.61 244.103 128.906 244.103 128.906L247.842 124.528Z" fill="#7F404D"/>
    <path d="M102.463 126.023C102.463 126.023 107.117 128.281 109.91 130.536C112.703 132.795 112.303 135.104 111.372 135.377C110.441 135.65 107.914 133.293 106.452 132.245C104.99 131.197 105.248 131.43 105.386 132.51C105.521 133.59 106.872 135.821 105.386 135.575C104.269 135.389 100.07 129.717 100.07 129.717L102.463 126.023Z" fill="#F2643A"/>
    <path d="M210.166 86.8865L196.575 88.7891C196.575 88.7891 193.798 80.7357 194.867 73.4496C195.826 66.9388 199.569 61.5751 203.4 59.0079C212.297 53.039 223.503 55.3055 228.685 58.553C233.319 61.4603 237.035 66.7133 238.394 71.456C239.721 76.0879 239.519 81.8788 239.519 81.8788L210.166 86.8865Z" fill="#1B264C"/>
    <path d="M202.996 94.3309L206.553 88.5835C206.553 88.5835 201.475 87.5709 199.609 80.2966C197.747 73.0264 200.964 67.6152 205.535 65.586C210.106 63.5568 218.235 62.295 222.976 67.5757C227.718 72.8563 227.825 79.023 225.67 82.6541C223.381 86.5147 218.742 89.43 218.742 89.43L213.105 99.0696L202.996 94.3309Z" fill="#9B6565"/>
    <path d="M205.056 71.7923C204.553 72.7456 204.771 73.3192 205.056 73.426C205.436 73.5723 205.987 73.0858 206.296 72.4173C206.629 71.7013 206.767 70.9538 206.407 70.8232C205.951 70.661 205.436 71.0645 205.056 71.7923Z" fill="#1B264C"/>
    <path d="M213.549 71.4679C212.97 72.4923 213.22 73.1094 213.549 73.2281C213.988 73.3823 214.618 72.8602 214.975 72.1442C215.359 71.3729 215.517 70.566 215.101 70.4275C214.582 70.2495 213.988 70.6847 213.549 71.4679Z" fill="#1B264C"/>
    <path d="M206.09 78.5445C205.579 78.5445 205.068 78.5049 204.719 78.3783C204.216 78.1964 203.899 77.7929 203.852 77.2708C203.796 76.717 204.07 76.1435 204.509 75.8784C204.799 75.7044 206.577 74.3674 207.698 73.513C207.908 73.3509 208.209 73.3944 208.368 73.604C208.526 73.8136 208.487 74.1143 208.277 74.2725C207.987 74.494 205.428 76.4401 205.001 76.6972C204.89 76.7645 204.783 76.9781 204.799 77.1798C204.814 77.3301 204.89 77.425 205.044 77.4804C205.563 77.6703 206.969 77.5793 207.734 77.4765C207.999 77.4448 208.237 77.6268 208.273 77.8878C208.308 78.1489 208.122 78.3902 207.861 78.4258C207.726 78.4416 206.91 78.5445 206.09 78.5445Z" fill="#1B264C"/>
    <path d="M208.098 83.125C206.966 83.125 205.825 82.9193 204.811 82.4446C203.931 82.0332 203.159 81.4636 202.513 80.7556C202.335 80.5618 202.351 80.2572 202.545 80.0832C202.739 79.9052 203.04 79.921 203.218 80.1148C203.777 80.7279 204.45 81.2224 205.215 81.5823C207.71 82.7492 211.267 82.057 212.781 80.6528C212.975 80.4748 213.276 80.4827 213.458 80.6805C213.636 80.8743 213.624 81.1749 213.43 81.3568C212.297 82.4011 210.218 83.125 208.098 83.125Z" fill="#1B264C"/>
    <path d="M200.037 64.9414L202.968 69.5892L204.755 67.4571L206.751 69.3004L208.914 66.1518L211.03 68.4223L213.157 65.8472L215.351 68.1454L217.344 65.3607L219.463 68.1217L224.557 62.2952L200.037 64.9414Z" fill="#1B264C"/>
    <path d="M224.601 72.0415C224.601 72.0415 225.512 69.7868 227.259 69.9371C229.006 70.0874 229.81 71.7725 229.461 73.6474C229.112 75.5223 226.304 76.9701 226.304 76.9701L224.601 72.0415Z" fill="#9B6565"/>
    <path opacity="0.5" d="M210.27 89.8175C208.131 89.8175 206.716 89.1767 206.629 89.1372C206.391 89.0264 206.285 88.7416 206.395 88.5043C206.506 88.2669 206.792 88.1601 207.029 88.2709C207.057 88.2828 209.81 89.5129 213.355 88.3698C213.605 88.2867 213.874 88.4252 213.958 88.6783C214.037 88.9275 213.902 89.1965 213.649 89.2796C212.409 89.6791 211.264 89.8175 210.27 89.8175Z" fill="#1B264C"/>
    <path opacity="0.3" d="M213.691 74.4543C215.089 74.1023 216.29 73.683 216.773 74.66C217.256 75.6371 216.349 76.2778 215.101 76.3688C213.857 76.4558 213.018 76.6615 212.483 75.9575C211.948 75.2534 212.618 74.7273 213.691 74.4543Z" fill="#F2643A"/>
    <path d="M189.06 131.442C189.06 131.442 188.486 135.722 189.757 138.764C192.522 145.385 201.697 155.654 203.249 159.071C205.361 163.715 205.535 181.373 205.535 181.373L215.767 180.146C215.767 180.146 215.929 156.168 214.076 151.75C212.222 147.331 206.597 129.428 206.597 129.428L189.06 131.442Z" fill="#576295"/>
    <path d="M203.499 174.506H216.944L216.136 188.935C216.136 188.935 221.824 190.779 223.991 192.021C226.158 193.263 224.894 194.703 223.27 194.703C221.646 194.703 205.068 193.623 205.068 193.623L203.499 174.506Z" fill="#FF6333"/>
    <path d="M192.614 106.534C192.614 106.534 195.878 96.1543 200.758 94.1488C204.521 92.6022 211.695 91.1189 219.277 101.249C223.971 107.523 227.12 110.458 234.476 115.552C241.832 120.643 249.549 124.314 249.549 124.314L244.471 129.863C244.471 129.863 232.733 126.513 227.239 122.728C221.741 118.942 213.066 111.957 213.066 111.957L208.237 132.122L186.065 132.225C186.058 132.221 186.735 118.645 192.614 106.534Z" fill="#FF6333"/>
    <path d="M65.4248 182.314L74.0485 181.368L74.1713 184.992C74.1713 184.992 79.8597 186.835 82.0265 188.077C84.1934 189.319 82.9297 190.759 81.3056 190.759C79.6815 190.759 66.6092 189.699 66.6092 189.699L65.4248 182.314Z" fill="#00ADA8"/>
    <path d="M42.4297 57.3981C42.4297 57.3981 43.832 49.3644 45.0481 45.7253C46.2642 42.0862 46.8544 43.6368 46.6445 45.9508C46.4345 48.2648 46.6603 50.4917 46.6603 50.4917C46.6603 50.4917 48.0428 45.2388 49.2471 43.5735C50.4513 41.9082 50.6454 43.5023 50.4394 44.6969C50.2334 45.8915 49.4174 50.1437 49.4174 50.1437C49.4174 50.1437 51.3743 44.7008 52.4082 43.708C53.4421 42.7152 53.5371 44.4319 53.2796 45.7649C53.0222 47.0979 51.2317 52.1096 51.2317 52.1096C51.2317 52.1096 53.7233 51.3224 54.884 51.0574C56.0446 50.7884 56.4526 51.7615 55.292 52.6475C54.0719 53.585 51.0613 56.1442 51.0613 56.1442L47.7735 59.8149L42.4297 57.3981Z" fill="#F2643A"/>
    <path d="M86.2968 69.7353C86.2968 69.7353 87.5288 69.0312 88.5349 69.5969C89.5371 70.1625 90.5512 72.3697 89.2915 73.7344C88.0318 75.099 85.5283 75.5302 85.5283 75.5302" fill="#F2643A"/>
    <path d="M47.928 126.853C47.928 126.853 47.619 132.371 48.7559 135.468C51.5565 143.11 55.7792 154.32 57.0983 159.336C58.3937 164.269 64.3792 183.469 64.3792 183.469L74.6112 182.243C74.6112 182.243 71.3867 160.606 70.3053 154.763C69.4615 150.203 65.5953 126.133 65.5953 126.133L47.928 126.853Z" fill="#1B264C"/>
    <path d="M97.8203 113.887C93.1816 106.993 89.2085 97.887 86.3524 95.0667C80.862 89.6397 66.0944 87.1675 61.0952 85.7277C57.2765 84.5054 52.7607 83.9596 48.9499 79.7627C47.6863 78.3664 46.688 75.6015 46.8702 73.0977C47.2981 67.2198 50.1224 57.8926 50.1224 57.8926L40.7976 56.4014C40.7976 56.4014 36.3768 68.1453 36.3372 76.3293C36.3094 82.1954 38.4921 84.9129 40.4292 87.5314C43.4318 91.5937 50.3839 97.3847 50.3839 97.3847C48.1339 104.489 43.5903 127.059 43.5903 127.059L78.9685 130.817L82.6961 109.963C82.6961 109.963 86.8238 116.589 90.5553 120.944C95.0474 126.185 101.164 131.414 101.164 131.414L106.428 126.751C106.424 126.743 101.16 118.851 97.8203 113.887Z" fill="#00ADA8"/>
    <path d="M86.8428 65.4792C86.8428 65.4792 89.1285 73.3626 85.2227 80.4589C81.3169 87.5551 76.5316 87.7054 72.3406 87.3969C68.1495 87.0923 59.4585 82.0569 61.3599 69.2014C63.2613 56.3459 70.6452 55.5271 73.0576 55.6735C75.47 55.8198 85.2781 57.5998 86.8428 65.4792Z" fill="#F2643A"/>
    <path d="M79.2095 50.8162C83.2223 50.7489 84.676 51.4965 84.2126 53.0234C83.7451 54.5502 79.3283 55.0565 79.3283 55.0565C79.3283 55.0565 82.6954 54.388 86.518 55.725C88.57 56.4449 91.743 58.7945 92.2144 59.9574C92.8165 61.4526 91.7271 62.3901 90.6299 61.6939C86.7359 59.2256 86.1774 59.2612 86.1774 59.2612C86.1774 59.2612 91.5647 63.1653 93.4424 68.4895C94.5634 71.6658 91.4221 70.1666 89.6554 68.2917C87.8887 66.4168 84.7196 63.462 84.7196 63.462C84.7196 63.462 85.0603 63.6717 85.4208 66.492C85.706 68.7308 83.9274 68.2719 83.3094 67.4096C82.6875 66.5513 79.6016 62.0657 79.6016 62.0657C79.6016 62.0657 80.2196 64.8267 79.4788 66.2032C79.0629 66.9785 78.0765 66.4207 77.1496 65.5782C76.4286 64.9216 75.7394 64.0949 75.3868 63.5925C74.5787 62.4494 72.6813 60.2264 72.6813 60.2264C72.6813 60.2264 73.2715 63.9485 71.9841 64.7515C70.6967 65.5545 69.2587 65.1352 67.9555 63.371C67.0444 62.1329 65.6658 60.6219 65.6658 60.6219C65.6658 60.6219 63.911 66.1399 63.3485 67.4373C62.4453 69.51 61.459 75.0715 60.6588 73.5565C59.1891 70.7639 58.7336 63.7705 60.5162 60.7999C60.5162 60.7999 59.2367 62.4969 57.6205 63.8022C56.1944 64.9493 55.8696 63.3987 57.6324 59.7913C58.385 58.2486 60.8846 55.3492 62.5642 54.5502C65.8996 52.964 68.9062 54.8548 68.9062 54.8548C68.9062 54.8548 72.0831 50.9348 79.2095 50.8162Z" fill="#1F4847"/>
    <path d="M75.5303 78.1092L76.4057 76.5981C76.4057 76.5981 79.7966 79.5767 81.9238 80.2214C81.9238 80.2214 80.0976 81.0877 75.5303 78.1092Z" fill="#1F4847"/>
    <path d="M74.4451 76.0405L74.2589 77.9669C74.2589 77.9669 71.5296 79.0784 69.747 79.0705C68.214 79.0626 66.0947 78.315 66.0947 78.315C66.0947 78.315 69.8183 77.7177 71.2087 77.1955C72.611 76.6655 74.4451 76.0405 74.4451 76.0405Z" fill="#1F4847"/>
    <path d="M75.7201 75.728C74.9754 75.728 74.1475 75.2296 73.8662 74.2605C73.5731 73.2558 73.177 71.2781 73.1611 71.195L74.1 71.0091C74.1039 71.0289 74.504 73.0264 74.7853 73.9955C74.9714 74.6284 75.5141 74.8262 75.839 74.7668C76.1559 74.7075 76.5045 74.4148 76.453 73.7938C76.3856 72.9592 75.9657 70.7994 75.9618 70.7757L76.9006 70.5938C76.9204 70.6847 77.3364 72.8326 77.4077 73.7186C77.5027 74.8815 76.754 75.5659 76.0172 75.7043C75.9182 75.7201 75.8192 75.728 75.7201 75.728Z" fill="#BD2231"/>
    <path d="M74.3813 82.9509C74.3258 82.9509 74.2664 82.9509 74.2109 82.947C71.7827 82.8758 71.1528 81.6535 70.9983 81.1314C70.8557 80.6607 71.03 80.1583 71.438 79.8577C71.9055 79.5136 72.5472 79.5175 73.082 79.8735C73.6762 80.2691 75.023 80.1623 75.6528 79.9131C76.3065 79.656 77.0155 79.8142 77.38 80.2928C77.6969 80.7042 77.6691 81.2619 77.3087 81.7406C76.7264 82.5119 75.6687 82.9509 74.3813 82.9509ZM72.2263 80.5539C72.1115 80.5539 72.0362 80.6014 72.0045 80.6211C71.9649 80.6528 71.8738 80.7319 71.9094 80.8545C72.1154 81.5388 72.9631 81.9542 74.2347 81.9898C74.7299 82.0016 75.946 81.9542 76.5362 81.163C76.6036 81.0721 76.6749 80.9455 76.6115 80.8664C76.5362 80.7714 76.2906 80.6805 75.9935 80.7991C75.1379 81.1354 73.4623 81.2738 72.5432 80.6646C72.4244 80.5816 72.3135 80.5539 72.2263 80.5539Z" fill="#BD2231"/>
    <path d="M80.3551 71.4084C80.9239 71.4084 81.3851 70.948 81.3851 70.38C81.3851 69.812 80.9239 69.3516 80.3551 69.3516C79.7863 69.3516 79.3252 69.812 79.3252 70.38C79.3252 70.948 79.7863 71.4084 80.3551 71.4084Z" fill="#1F4847"/>
    <path d="M70.5231 70.5066C71.0919 70.5066 71.553 70.0461 71.553 69.4781C71.553 68.9102 71.0919 68.4497 70.5231 68.4497C69.9543 68.4497 69.4932 68.9102 69.4932 69.4781C69.4932 70.0461 69.9543 70.5066 70.5231 70.5066Z" fill="#1F4847"/>
    <path d="M60.3264 68.968C60.3264 68.968 59.035 68.1808 57.8149 69.4506C56.5948 70.7203 57.7159 72.797 58.9637 73.5643C59.8827 74.126 61.8594 74.0825 61.8594 74.0825L60.3264 68.968Z" fill="#F2643A"/>
    <path d="M65.2506 81.8352L64.0107 88.1008C67.3699 91.5025 70.9588 92.1671 74.6864 91.1623L76.5284 84.5091L65.2506 81.8352Z" fill="#F2643A"/>
</svg>
