<svg xmlns="http://www.w3.org/2000/svg" width="349" height="150" viewBox="0 0 349 150">
  <g fill="none">
    <polygon fill="#D3D9E5" points="66.238 15.43 41.686 15.43 41.686 39.671 66.238 39.671"/>
    <polygon fill="#D3D9E5" points="51.135 30.965 45.907 30.965 45.907 39.934 51.135 39.934"/>
    <path fill="#FFF" d="M51.4223,40.2256 L45.6174,40.2256 L45.6174,30.6704 L51.4223,30.6704 L51.4223,40.2256 Z M46.194,39.6392 L50.8457,39.6392 L50.8457,31.2568 L46.194,31.2568 L46.194,39.6392 Z"/>
    <polygon fill="#D3D9E5" points="61.222 18.844 56.692 18.844 56.692 25.873 61.222 25.873"/>
    <path fill="#FFF" d="M61.5089,26.1675 L56.4023,26.1675 L56.4023,18.5521 L61.5089,18.5521 L61.5089,26.1675 Z M56.9789,25.5812 L60.9324,25.5812 L60.9324,19.136 L56.9789,19.136 L56.9789,25.5812 Z"/>
    <polygon fill="#FFF" points="61.295 22.065 56.614 22.065 56.614 22.652 61.295 22.652"/>
    <polygon fill="#D3D9E5" points="50.79 18.844 46.26 18.844 46.26 25.873 50.79 25.873"/>
    <path fill="#FFF" d="M51.0768,26.1675 L45.9702,26.1675 L45.9702,18.5521 L51.0768,18.5521 L51.0768,26.1675 Z M46.5468,25.5812 L50.5002,25.5812 L50.5002,19.136 L46.5468,19.136 L46.5468,25.5812 Z"/>
    <polygon fill="#FFF" points="50.861 22.065 46.18 22.065 46.18 22.652 50.861 22.652"/>
    <polygon fill="#D3D9E5" points="61.222 30.965 56.692 30.965 56.692 37.994 61.222 37.994"/>
    <path fill="#FFF" d="M61.5089,38.2858 L56.4023,38.2858 L56.4023,30.6704 L61.5089,30.6704 L61.5089,38.2858 Z M56.9789,37.7019 L60.9324,37.7019 L60.9324,31.2593 L56.9789,31.2593 L56.9789,37.7019 Z"/>
    <polygon fill="#FFF" points="61.295 34.186 56.614 34.186 56.614 34.772 61.295 34.772"/>
    <polygon fill="#D3D9E5" points="67.579 13.223 40.346 13.223 40.346 15.383 67.579 15.383"/>
    <path fill="#FFF" d="M67.927,15.7365 L40,15.7365 L40,12.8713 L67.927,12.8713 L67.927,15.7365 Z M40.6934,15.0288 L67.2312,15.0288 L67.2312,13.5765 L40.6934,13.5765 L40.6934,15.0288 Z"/>
    <polygon fill="#D3D9E5" points="190.538 39.105 10.785 39.105 10.785 39.872 190.538 39.872"/>
    <polygon fill="#D3D9E5" points="249.026 39.105 185.577 39.105 185.577 39.872 249.026 39.872"/>
    <path fill="#E8EBEE" d="M220.6,55.7563 L134.216,55.7563 C133.545,55.7563 133,55.2021 133,54.5193 C133,53.8364 133.545,53.2822 134.216,53.2822 L220.6,53.2822 C221.271,53.2822 221.816,53.8364 221.816,54.5193 C221.816,55.2021 221.271,55.7563 220.6,55.7563 Z"/>
    <path fill="#D3D9E5" d="M105.027,39.7752 L80.6912,39.7752 L80.6912,3.03894 L105.027,3.03894 L105.027,39.7752 Z M81.3334,39.122 L104.385,39.122 L104.385,3.69212 L81.3334,3.69212 L81.3334,39.122 Z"/>
    <path fill="#D3D9E5" d="M111.995 39.7752L104.378 39.7752 104.378 3.03894 111.995 3.03894 111.995 39.7752zM105.02 39.122L111.353 39.122 111.353 3.69212 105.02 3.69212 105.02 39.122zM89.0066 25.7887L84.479 25.7887 84.479 17.8245 89.0066 17.8245 89.0066 25.7887zM85.1213 25.1331L88.3643 25.1331 88.3643 18.4776 85.1213 18.4776 85.1213 25.1331zM95.4441 25.7887L90.9165 25.7887 90.9165 17.8245 95.4441 17.8245 95.4441 25.7887zM91.5588 25.1331L94.8018 25.1331 94.8018 18.4776 91.5588 18.4776 91.5588 25.1331zM101.879 25.7887L97.3516 25.7887 97.3516 17.8245 101.879 17.8245 101.879 25.7887zM97.9938 25.1331L101.237 25.1331 101.237 18.4776 97.9938 18.4776 97.9938 25.1331zM89.0066 15.9096L84.479 15.9096 84.479 7.94531 89.0066 7.94531 89.0066 15.9096zM85.1213 15.254L88.3643 15.254 88.3643 8.59849 85.1213 8.59849 85.1213 15.254zM95.4441 15.9096L90.9165 15.9096 90.9165 7.94531 95.4441 7.94531 95.4441 15.9096zM91.5588 15.254L94.8018 15.254 94.8018 8.59849 91.5588 8.59849 91.5588 15.254zM101.879 15.9096L97.3516 15.9096 97.3516 7.94531 101.879 7.94531 101.879 15.9096zM97.9938 15.254L101.237 15.254 101.237 8.59849 97.9938 8.59849 97.9938 15.254z"/>
    <path fill="#D3D9E5" d="M109.737 15.9096L106.767 15.9096 106.767 7.94531 109.737 7.94531 109.737 15.9096zM107.412 15.254L109.095 15.254 109.095 8.59849 107.412 8.59849 107.412 15.254zM109.737 25.7541L106.767 25.7541 106.767 17.7898 109.737 17.7898 109.737 25.7541zM107.412 25.1009L109.095 25.1009 109.095 18.4455 107.412 18.4455 107.412 25.1009zM109.737 35.5988L106.767 35.5988 106.767 27.6345 109.737 27.6345 109.737 35.5988zM107.412 34.9457L109.095 34.9457 109.095 28.2902 107.412 28.2902 107.412 34.9457zM89.0066 35.6682L84.479 35.6682 84.479 27.7039 89.0066 27.7039 89.0066 35.6682zM85.1213 35.0126L88.3643 35.0126 88.3643 28.357 85.1213 28.357 85.1213 35.0126zM95.4441 35.6682L90.9165 35.6682 90.9165 27.7039 95.4441 27.7039 95.4441 35.6682zM91.5588 35.0126L94.8018 35.0126 94.8018 28.357 91.5588 28.357 91.5588 35.0126zM101.879 35.6682L97.3516 35.6682 97.3516 27.7039 101.879 27.7039 101.879 35.6682zM97.9938 35.0126L101.237 35.0126 101.237 28.357 97.9938 28.357 97.9938 35.0126zM105.005 3.59816L79.1267 3.59816 79.1267.164062 105.005.164062 105.005 3.59816zM79.7714 2.94251L104.363 2.94251 104.363.817229 79.7714.817229 79.7714 2.94251z"/>
    <path fill="#D3D9E5" d="M113.185 3.59816L104.371 3.59816 104.371.164062 113.185.164062 113.185 3.59816zM105.013 2.94251L112.54 2.94251 112.54.817229 105.013.817229 105.013 2.94251zM268.758 39.8148L247.77 39.8148 247.77 8.17773 268.758 8.17773 268.758 39.8148zM248.414 39.1616L268.116 39.1616 268.116 8.83091 248.414 8.83091 248.414 39.1616z"/>
    <path fill="#D3D9E5" d="M253.757 37.2219L250.657 37.2219 250.657 31.947 253.757 31.947 253.757 37.2219zM251.3 36.5662L253.112 36.5662 253.112 32.5977 251.3 32.5977 251.3 36.5662zM266.062 37.2219L262.963 37.2219 262.963 31.947 266.062 31.947 266.062 37.2219zM263.605 36.5662L265.418 36.5662 265.418 32.5977 263.605 32.5977 263.605 36.5662zM253.757 30.4848L250.657 30.4848 250.657 25.21 253.757 25.21 253.757 30.4848zM251.3 29.8292L253.112 29.8292 253.112 25.8607 251.3 25.8607 251.3 29.8292zM257.859 30.4848L254.759 30.4848 254.759 25.21 257.859 25.21 257.859 30.4848zM255.402 29.8292L257.214 29.8292 257.214 25.8607 255.402 25.8607 255.402 29.8292zM261.961 30.4848L258.861 30.4848 258.861 25.21 261.961 25.21 261.961 30.4848zM259.503 29.8292L261.316 29.8292 261.316 25.8607 259.503 25.8607 259.503 29.8292zM266.062 30.4848L262.963 30.4848 262.963 25.21 266.062 25.21 266.062 30.4848zM263.605 29.8292L265.418 29.8292 265.418 25.8607 263.605 25.8607 263.605 29.8292zM253.757 23.7451L250.657 23.7451 250.657 18.4702 253.757 18.4702 253.757 23.7451zM251.3 23.0919L253.112 23.0919 253.112 19.1234 251.3 19.1234 251.3 23.0919zM257.859 23.7451L254.759 23.7451 254.759 18.4702 257.859 18.4702 257.859 23.7451zM255.402 23.0919L257.214 23.0919 257.214 19.1234 255.402 19.1234 255.402 23.0919zM261.961 23.7451L258.861 23.7451 258.861 18.4702 261.961 18.4702 261.961 23.7451zM259.503 23.0919L261.316 23.0919 261.316 19.1234 259.503 19.1234 259.503 23.0919zM266.062 23.7451L262.963 23.7451 262.963 18.4702 266.062 18.4702 266.062 23.7451zM263.605 23.0919L265.418 23.0919 265.418 19.1234 263.605 19.1234 263.605 23.0919zM253.757 17.008L250.657 17.008 250.657 11.7332 253.757 11.7332 253.757 17.008zM251.3 16.3548L253.112 16.3548 253.112 12.3863 251.3 12.3863 251.3 16.3548zM257.859 17.008L254.759 17.008 254.759 11.7332 257.859 11.7332 257.859 17.008zM255.402 16.3548L257.214 16.3548 257.214 12.3863 255.402 12.3863 255.402 16.3548zM261.961 17.008L258.861 17.008 258.861 11.7332 261.961 11.7332 261.961 17.008zM259.503 16.3548L261.316 16.3548 261.316 12.3863 259.503 12.3863 259.503 16.3548zM266.062 17.008L262.963 17.008 262.963 11.7332 266.062 11.7332 266.062 17.008zM263.605 16.3548L265.418 16.3548 265.418 12.3863 263.605 12.3863 263.605 16.3548zM270.191 8.74937L246.339 8.74937 246.339 5.70862 270.191 5.70862 270.191 8.74937zM246.981 8.09371L269.549 8.09371 269.549 6.35932 246.981 6.35932 246.981 8.09371zM261.406 39.7752L255.898 39.7752 255.898 31.8654 261.406 31.8654 261.406 39.7752zM256.543 39.122L260.764 39.122 260.764 32.521 256.543 32.521 256.543 39.122zM153.951 28.4189C153.883 28.4189 153.815 28.4165 153.749 28.414 151.679 28.3002 150.119 26.7043 150.119 24.7003 150.119 24.5865 150.124 24.4702 150.136 24.3539 147.28 24.1609 145.012 21.7363 145.012 18.7846 145.012 16.0235 146.966 13.7126 149.608 13.2747 149.771 10.0509 152.401 7.48022 155.61 7.48022 158.135 7.48022 160.391 9.10573 161.249 11.4908 161.882 11.189 162.571 11.0306 163.269 11.0306 165.899 11.0306 168.037 13.2054 168.037 15.88 168.037 18.025 166.638 19.9103 164.651 20.5215 164.823 21.0979 164.911 21.6892 164.911 22.2855 164.911 25.6479 162.208 28.3991 158.885 28.414 158.877 28.414 158.873 28.414 158.865 28.414 157.972 28.414 156.683 28.0948 156.296 27.9934 155.948 28.1047 154.878 28.4189 153.951 28.4189zM150.584 23.582C150.698 23.582 150.808 23.6339 150.881 23.7255 150.956 23.8195 150.983 23.9407 150.958 24.057 150.91 24.2747 150.885 24.49 150.885 24.7003 150.885 26.2813 152.133 27.5431 153.79 27.6346 154.579 27.6767 155.685 27.3823 156.16 27.219 156.233 27.1942 156.311 27.1918 156.384 27.2116 156.398 27.2165 157.929 27.6346 158.863 27.6346 158.868 27.6346 158.873 27.6346 158.877 27.6346 161.78 27.6198 164.14 25.2199 164.14 22.2855 164.14 21.6422 164.023 21.0039 163.792 20.3854 163.753 20.279 163.76 20.1578 163.814 20.0588 163.867 19.9573 163.962 19.8881 164.072 19.8633 165.921 19.4774 167.264 17.8024 167.264 15.8775 167.264 13.6334 165.468 11.8075 163.261 11.8075 162.544 11.8075 161.836 12.0079 161.215 12.3865 161.113 12.4483 160.987 12.4582 160.877 12.4137 160.765 12.3691 160.683 12.2726 160.651 12.1564 160.021 9.86035 157.948 8.25958 155.608 8.25958 152.717 8.25958 150.367 10.6521 150.367 13.5914 150.367 13.5914 150.367 13.6037 150.367 13.6186 150.367 13.819 150.219 13.9872 150.022 14.007 147.603 14.2544 145.779 16.308 145.779 18.7846 145.779 21.4319 147.898 23.5869 150.501 23.5869 150.54 23.582 150.559 23.5795 150.584 23.582z"/>
    <path fill="#D3D9E5" d="M156.357,39.6665 C156.145,39.6665 155.972,39.4909 155.972,39.2756 L155.972,24.3392 C155.972,24.2476 156.004,24.1586 156.062,24.0868 L160.42,18.8243 C160.556,18.6585 160.799,18.6387 160.96,18.7773 C161.123,18.9158 161.142,19.1633 161.006,19.3266 L156.739,24.4802 L156.739,39.2756 C156.741,39.4909 156.568,39.6665 156.357,39.6665 Z"/>
    <path fill="#D3D9E5" d="M156.396,24.7275 C156.301,24.7275 156.208,24.6929 156.133,24.6236 L151.525,20.2493 C151.369,20.1034 151.362,19.856 151.506,19.6976 C151.649,19.5393 151.892,19.5318 152.048,19.6778 L156.658,24.0546 C156.814,24.2006 156.821,24.448 156.678,24.6063 C156.6,24.688 156.498,24.7275 156.396,24.7275 Z"/>
    <path fill="#00ADA8" d="M156.391 110.431C156.157 110.431 155.967 110.238 155.964965 110.001 155.962 109.761 156.152 109.565 156.388 109.565L169.253 109.471 169.256 109.471C169.489 109.471 169.679 109.664 169.681035 109.902 169.684 110.142 169.494 110.337 169.258 110.337L156.393 110.431C156.393 110.431 156.393 110.431 156.391 110.431zM151.162 114.739C150.931 114.739 150.742 114.551 150.736902 114.313 150.732 114.073 150.919 113.878 151.155 113.873L165.361 113.611C165.597 113.616 165.789 113.796 165.794097 114.036 165.799 114.276 165.611 114.472 165.375 114.477L151.17 114.739C151.167 114.739 151.165 114.739 151.162 114.739zM152.824 105.691C152.593 105.691 152.403 105.503 152.398902 105.265 152.394 105.025 152.581 104.83 152.817 104.825L167.023 104.563C167.259 104.563 167.451 104.748 167.456063 104.988 167.46 105.228 167.273 105.424 167.037 105.429L152.832 105.691C152.829 105.691 152.827 105.691 152.824 105.691z"/>
    <path fill="#1F4847" d="M155.932,90.3088 C153.774,90.3088 151.93,89.8808 150.417,89.0222 C148.94,88.186 147.804,87.0429 146.989,85.7663 C146.291,86.0161 145.527,86.2265 144.697,86.3922 C136.153,88.0969 130.119,78.9698 130.061,78.8782 C129.949,78.7075 129.995,78.4774 130.166,78.3636 C130.333,78.2498 130.56,78.2993 130.672,78.47 C130.73,78.5591 136.498,87.273 144.559,85.6648 C145.298,85.5164 145.982,85.3333 146.607,85.1156 C145.442,82.9581 145.123,80.5285 145.551,78.6011 C146.026,76.4684 147.39,75.1274 149.203,75.0087 C151.205,74.88 152.731,76.1913 152.993,78.2721 C153.31,80.766 151.726,83.8018 147.685,85.4966 C148.434,86.6198 149.458,87.6293 150.772,88.374 C156.791,91.7834 167.189,86.7337 167.294,86.6842 C167.474,86.5951 167.693,86.6718 167.78,86.8574 C167.868,87.0429 167.793,87.2631 167.61,87.3522 C167.583,87.3646 164.885,88.6858 161.455,89.5492 C159.438,90.0564 157.591,90.3088 155.932,90.3088 Z M149.463,75.7435 C149.393,75.7435 149.322,75.746 149.249,75.7509 C147.755,75.8474 146.668,76.9459 146.262,78.7669 C145.86,80.5681 146.174,82.8492 147.296,84.8583 C151.067,83.3218 152.555,80.5953 152.271,78.3686 C152.066,76.7752 150.952,75.7435 149.463,75.7435 Z"/>
    <path fill="#D3D9E5" d="M179.832,39.8247 L171.672,39.8247 C171.47,39.8247 171.307,39.659 171.307,39.4536 L171.307,28.7133 L170.183,28.7133 C170.047,28.7133 169.923,28.6366 169.86,28.5154 C169.796,28.3941 169.804,28.2457 169.882,28.1319 L175.39,19.9127 C175.412,19.7296 175.565,19.5886 175.752,19.5886 L191.16,19.5886 C191.279,19.5886 191.393,19.648 191.461,19.7494 L197.108,28.1319 C197.183,28.2457 197.193,28.3917 197.13,28.5154 C197.067,28.6366 196.942,28.7133 196.806,28.7133 L180.197,28.7133 L180.197,39.4536 C180.197,39.659 180.034,39.8247 179.832,39.8247 Z M172.037,39.0825 L179.467,39.0825 L179.467,28.3422 C179.467,28.1368 179.63,27.9711 179.832,27.9711 L180.632,27.9711 L175.752,20.6921 L170.872,27.9711 L171.672,27.9711 C171.874,27.9711 172.037,28.1368 172.037,28.3422 L172.037,39.0825 Z M183.975,27.9686 L196.113,27.9686 L190.967,20.3284 L176.394,20.3284 L181.516,27.9686 L183.975,27.9686 Z"/>
    <path fill="#D3D9E5" d="M195.843,39.8247 L179.832,39.8247 C179.63,39.8247 179.467,39.6589 179.467,39.4535 C179.467,39.2482 179.63,39.0824 179.832,39.0824 L195.478,39.0824 L195.478,28.4709 C195.478,28.2655 195.641,28.0997 195.843,28.0997 C196.045,28.0997 196.208,28.2655 196.208,28.4709 L196.208,39.4535 C196.208,39.6589 196.045,39.8247 195.843,39.8247 Z"/>
    <path fill="#D3D9E5" d="M193.587 35.5592L191.164 35.5592C190.962 35.5592 190.799 35.3935 190.799 35.1881L190.799 31.4522C190.799 31.2468 190.962 31.0811 191.164 31.0811L193.587 31.0811C193.789 31.0811 193.952 31.2468 193.952 31.4522L193.952 35.1881C193.952 35.391 193.789 35.5592 193.587 35.5592zM191.527 34.817L193.22 34.817 193.22 31.8233 191.527 31.8233 191.527 34.817zM185.099 35.4924L182.676 35.4924C182.474 35.4924 182.311 35.3267 182.311 35.1213L182.311 31.3828C182.311 31.1775 182.474 31.0117 182.676 31.0117L185.099 31.0117C185.301 31.0117 185.464 31.1775 185.464 31.3828L185.464 35.1213C185.464 35.3267 185.299 35.4924 185.099 35.4924zM183.038 34.7502L184.732 34.7502 184.732 31.754 183.038 31.754 183.038 34.7502zM189.987 39.8594L186.542 39.8594C186.34 39.8594 186.177 39.6936 186.177 39.4882L186.177 31.3086C186.177 31.1033 186.34 30.9375 186.542 30.9375L189.987 30.9375C190.189 30.9375 190.352 31.1033 190.352 31.3086L190.352 39.4882C190.352 39.6936 190.186 39.8594 189.987 39.8594zM186.907 39.1171L189.622 39.1171 189.622 31.6798 186.907 31.6798 186.907 39.1171zM177.615 35.8858L173.64 35.8858C173.438 35.8858 173.275 35.72 173.275 35.5147L173.275 31.4026C173.275 31.1973 173.438 31.0315 173.64 31.0315L177.615 31.0315C177.817 31.0315 177.98 31.1973 177.98 31.4026L177.98 35.5147C177.98 35.72 177.817 35.8858 177.615 35.8858zM174.005 35.1435L177.25 35.1435 177.25 31.7737 174.005 31.7737 174.005 35.1435z"/>
    <path fill="#D3D9E5" d="M177.492 33.7235L173.762 33.7235C173.56 33.7235 173.397 33.5577 173.397 33.3523 173.397 33.147 173.56 32.9812 173.762 32.9812L177.492 32.9812C177.693 32.9812 177.856 33.147 177.856 33.3523 177.856 33.5577 177.693 33.7235 177.492 33.7235zM180.129 28.7108L171.049 28.7108C170.847 28.7108 170.684 28.545 170.684 28.3396 170.684 28.1343 170.847 27.9685 171.049 27.9685L180.129 27.9685C180.331 27.9685 180.494 28.1343 180.494 28.3396 180.494 28.545 180.331 28.7108 180.129 28.7108z"/>
    <polygon fill="#D3D9E5" points="132.2 10.068 132.2 8.081 129.855 8.081 126.731 5.103 123.507 8.081 121.357 8.081 121.357 10.068 116.673 10.068 116.673 39.671 136.796 39.671 136.796 10.068"/>
    <path fill="#FFF" d="M132.932,28.6119 L128.733,28.6119 L128.733,22.3547 L132.932,22.3547 L132.932,28.6119 Z M129.22,28.117 L132.446,28.117 L132.446,22.8496 L129.22,22.8496 L129.22,28.117 Z"/>
    <polygon fill="#FFF" points="132.747 25.235 128.911 25.235 128.911 25.73 132.747 25.73"/>
    <path fill="#FFF" d="M124.337,28.6119 L120.138,28.6119 L120.138,22.3547 L124.337,22.3547 L124.337,28.6119 Z M120.624,28.117 L123.85,28.117 L123.85,22.8496 L120.624,22.8496 L120.624,28.117 Z"/>
    <polygon fill="#FFF" points="124.152 25.235 120.315 25.235 120.315 25.73 124.152 25.73"/>
    <path fill="#FFF" d="M124.337,19.074 L120.138,19.074 L120.138,12.8169 L124.337,12.8169 L124.337,19.074 Z M120.624,18.5792 L123.85,18.5792 L123.85,13.3117 L120.624,13.3117 L120.624,18.5792 Z"/>
    <polygon fill="#FFF" points="124.152 15.699 120.315 15.699 120.315 16.194 124.152 16.194"/>
    <path fill="#FFF" d="M132.932,19.074 L128.733,19.074 L128.733,12.8169 L132.932,12.8169 L132.932,19.074 Z M129.22,18.5792 L132.446,18.5792 L132.446,13.3117 L129.22,13.3117 L129.22,18.5792 Z"/>
    <polygon fill="#FFF" points="132.747 15.699 128.911 15.699 128.911 16.194 132.747 16.194"/>
    <path fill="#FFF" d="M124.337,38.1473 L120.138,38.1473 L120.138,31.8901 L124.337,31.8901 L124.337,38.1473 Z M120.624,37.6525 L123.85,37.6525 L123.85,32.385 L120.624,32.385 L120.624,37.6525 Z"/>
    <polygon fill="#FFF" points="124.152 34.773 120.315 34.773 120.315 35.267 124.152 35.267"/>
    <polygon fill="#FFF" points="132.886 32.536 128.602 32.536 128.602 40.077 132.886 40.077"/>
    <path fill="#D3D9E5" d="M237.712,39.8396 C237.501,39.8396 237.328,39.6639 237.328,39.4487 L237.328,23.5769 C237.328,23.4805 237.362,23.3889 237.425,23.3172 L241.405,18.787 C241.547,18.6262 241.79,18.6138 241.948,18.7573 C242.106,18.9008 242.121,19.1482 241.98,19.309 L238.097,23.7254 L238.097,39.4487 C238.097,39.6639 237.924,39.8396 237.712,39.8396 Z"/>
    <path fill="#D3D9E5" d="M233.637,28.926 C232.898,28.926 232.156,28.7973 231.438,28.5351 C229.796,27.9388 228.482,26.729 227.735,25.1257 C226.531,22.5427 227.105,19.4549 229.114,17.4954 C227.986,14.7491 229.175,11.5476 231.847,10.261 C234.435,9.01403 237.539,10.0185 238.968,12.4927 C240.218,12.0003 241.581,11.983 242.85,12.4432 C244.254,12.9529 245.381,13.9895 246.018,15.3602 C246.974,17.4113 246.621,19.8533 245.157,21.5431 C245.159,21.5481 245.162,21.553 245.164,21.5555 C246.281,23.953 245.271,26.8279 242.914,27.9636 C241.255,28.7627 239.281,28.5005 237.88,27.3228 C237.44,27.7062 236.953,28.0279 236.428,28.2827 C235.54,28.7108 234.591,28.926 233.637,28.926 Z M234.194,10.6272 C233.533,10.6272 232.861,10.7707 232.229,11.0775 C229.92,12.1908 228.93,15.0064 230.024,17.3544 C230.036,17.3742 230.044,17.3915 230.054,17.4088 C230.144,17.5919 230.1,17.8146 229.946,17.9482 C228.037,19.6257 227.458,22.419 228.538,24.7422 C229.183,26.1253 230.319,27.1718 231.737,27.6864 C233.155,28.2011 234.686,28.1244 236.048,27.4687 C236.61,27.199 237.121,26.8353 237.569,26.3925 C237.741,26.2218 238.016,26.2218 238.189,26.3949 C239.335,27.5454 241.082,27.8497 242.534,27.1496 C244.451,26.2267 245.271,23.8886 244.364,21.9415 C244.327,21.8648 244.288,21.793 244.247,21.7213 L244.232,21.6916 C244.135,21.5159 244.164,21.2957 244.303,21.1522 C245.694,19.7271 246.062,17.5548 245.218,15.7437 C244.68,14.5908 243.734,13.7199 242.554,13.2918 C241.374,12.8638 240.101,12.9281 238.97,13.47 C238.868,13.5219 238.751,13.5318 238.642,13.4972 C238.525,13.4601 238.427,13.376 238.374,13.2646 C237.574,11.602 235.912,10.6272 234.194,10.6272 Z"/>
    <path fill="#D3D9E5" d="M237.712,23.9679 C237.615,23.9679 237.515,23.9308 237.442,23.8541 L232.742,19.074 C232.591,18.9206 232.591,18.6757 232.742,18.5223 C232.893,18.3689 233.133,18.3689 233.284,18.5223 L237.985,23.3024 C238.136,23.4558 238.136,23.7007 237.985,23.8541 C237.909,23.9283 237.812,23.9679 237.712,23.9679 Z"/>
    <path fill="#F2643A" d="M232.812 49.6216L225.495 49.6216C225.28 49.6216 225.107 49.4459 225.107 49.2274 225.107 49.0088 225.28 48.8331 225.495 48.8331L232.812 48.8331C233.027 48.8331 233.2 49.0088 233.2 49.2274 233.2 49.4459 233.025 49.6216 232.812 49.6216zM229.152 47.3417L221.981 47.3417C221.766 47.3417 221.593 47.166 221.593 46.9475 221.593 46.7289 221.766 46.5532 221.981 46.5532L229.152 46.5532C229.367 46.5532 229.54 46.7289 229.54 46.9475 229.54 47.166 229.367 47.3417 229.152 47.3417z"/>
    <path fill="#1F4847" d="M180.686 7.01514C180.529 7.01514 180.389 6.90024 180.361 6.73803L179.463 1.66207 177.547 6.51273C177.478 6.68621 177.286 6.76957 177.115 6.69973 176.945 6.62989 176.863 6.43387 176.931 6.2604L179.28.319298C179.335.179614 179.474.0940022 179.621.109773 179.769.125544 179.889.238188 179.913.386885L181.016 6.62087C181.05 6.80562 180.928 6.98135 180.748 7.01289 180.726 7.01289 180.706 7.01514 180.686 7.01514zM184.382 7.77211C184.364 7.77211 184.344 7.76985 184.326 7.76759L182.499 7.45219C182.326 7.4229 182.204 7.26068 182.224 7.0827L182.826 1.47731C182.846 1.29257 183.01 1.1574 183.192 1.17767 183.374 1.19795 183.507 1.36467 183.487 1.54941L182.919 6.83713 184.437 7.10073C184.619 7.13227 184.74 7.30574 184.709 7.49048 184.681 7.65495 184.541 7.77211 184.382 7.77211zM188.097 8.7815C188.066 8.7815 188.037 8.777 188.006 8.76799L185.895 8.15519C185.729 8.10788 185.627 7.93891 185.66 7.76543L186.79 1.78835C186.825 1.60586 186.998 1.4842 187.18 1.52025 187.359 1.5563 187.479 1.73203 187.443 1.91677L186.371 7.5897 188.19 8.11689C188.367 8.16871 188.469 8.3557 188.418 8.53368 188.374 8.68463 188.241 8.7815 188.097 8.7815zM190.893 9.76147C190.547 9.76147 190.266 9.6443 190.053 9.4145 189.608 8.93237 189.512 7.99065 189.743 6.36178 189.967 4.77571 190.574 2.99363 191.601 2.75031 191.872 2.68723 192.144 2.76833 192.368 2.98236 192.982 3.56362 193.194 5.00776 193.039 6.01482 192.871 7.10299 192.339 9.64656 191.025 9.7547 190.979 9.75921 190.937 9.76147 190.893 9.76147zM190.401 6.45865C190.164 8.13935 190.345 8.74088 190.538 8.95265 190.598 9.01799 190.709 9.1036 190.972 9.08333 191.522 9.03827 192.102 7.73607 192.383 5.91344 192.536 4.91764 192.264 3.80694 191.916 3.48026 191.825 3.39465 191.774 3.40591 191.752 3.41267 191.278 3.52081 190.662 4.60448 190.401 6.45865z"/>
    <path fill="#1F4847" d="M180.257 4.54355C180.243 4.54355 180.228 4.54355 180.214 4.54129L178.163 4.27545C177.981 4.25293 177.853 4.08171 177.875 3.89697 177.897 3.71223 178.066 3.58156 178.247 3.60409L180.299 3.86993C180.48 3.89246 180.609 4.06368 180.587 4.24842 180.565 4.41964 180.421 4.54355 180.257 4.54355zM194.488 10.4125C194.422 10.4125 194.355 10.4058 194.287 10.3923 194.138 10.3607 193.926 10.2661 193.762 9.99575 193.296 9.22525 193.527 7.41614 193.779 6.4564 194.296 4.51662 195.111 3.54786 196.081 3.74162 196.429 3.8092 196.708 4.00971 196.883 4.32287 197.421 5.27135 196.888 7.03089 196.712 7.54681 196.409 8.43447 195.609 10.4125 194.488 10.4125zM194.424 6.63212C194.147 7.67073 194.041 9.16216 194.329 9.63978 194.377 9.71864 194.411 9.7254 194.422 9.72765 194.874 9.82227 195.576 8.81296 196.083 7.32152 196.385 6.44062 196.624 5.21278 196.307 4.65631 196.227 4.51437 196.114 4.43326 195.955 4.40172 195.295 4.27781 194.732 5.47186 194.424 6.63212zM198.558 11.557C198.416 11.557 198.274 11.53 198.132 11.4736 196.754 10.9307 197.417 8.18433 197.446 8.06718 197.568 7.57153 198.245 5.10681 199.603 5.10681 199.612 5.10681 199.619 5.10681 199.628 5.10681 199.931 5.11357 200.193 5.24875 200.381 5.50108 200.913 6.204 200.793 7.74276 200.503 8.94809 200.392 9.40995 199.962 10.9555 199.085 11.4196 198.917 11.5119 198.737 11.557 198.558 11.557zM199.603 5.78494C199.012 5.78494 198.383 7.04209 198.088 8.2339 197.862 9.1531 197.793 10.6175 198.372 10.8451 198.516 10.9014 198.646 10.8946 198.779 10.8248 199.249 10.5747 199.659 9.62397 199.858 8.79038 200.162 7.52873 200.16 6.3189 199.854 5.91562 199.787 5.82775 199.714 5.7872 199.612 5.78494 199.61 5.78494 199.606 5.78494 199.603 5.78494z"/>
    <path fill="#F2643A" d="M129.972,39.2708 C130.001,38.9937 130.2,38.7706 130.468,38.7143 L155.467,33.5348 C155.555,33.5235 155.633,33.4672 155.67,33.3838 L163.311,16.944 C163.98,15.3444 164.366,15.0312 166.076,15.0312 L204.141,15.0312 C205.109,15.0312 205.982,15.6193 206.36,16.525 L213.693,34.0619 C213.775,34.2602 213.897,34.49 214.141,34.7085 L217.433,37.1417 C217.863,37.4774 218.109,37.8041 218.177,38.329 C218.339,39.5592 219.015,46.9759 219.296,49.3234 C219.34,49.7019 219.05,50.0354 218.676,50.0354 L190.667,50.0354 L178.766,50.0354 L129.013,50.0354 C128.884,50.0354 129.757,41.3885 129.972,39.2708 Z"/>
    <path fill="#FFF" d="M184.014 18.0116L167.403 17.894251C166.129 17.8854 165.99 18.2842 165.671 19.0615L159.47 33.8476 184.014 34.0662 184.014 18.0116zM186.85 17.8945L202.561 17.9531C203.813 17.9576 203.873 18.2753 204.067 18.789L209.635 34.0663 186.85 33.9987 186.85 17.8945z"/>
    <path fill="#1B264C" d="M204.823,56.5193 C208.673,56.5193 211.795,53.3449 211.795,49.4292 C211.795,45.5135 208.673,42.3391 204.823,42.3391 C200.972,42.3391 197.851,45.5135 197.851,49.4292 C197.851,53.3449 200.972,56.5193 204.823,56.5193 Z"/>
    <path fill="#DCDFEA" d="M204.823,53.1939 C206.867,53.1939 208.525,51.5084 208.525,49.4292 C208.525,47.3501 206.867,45.6646 204.823,45.6646 C202.778,45.6646 201.121,47.3501 201.121,49.4292 C201.121,51.5084 202.778,53.1939 204.823,53.1939 Z"/>
    <path fill="#1B264C" d="M149.111,56.5193 C152.961,56.5193 156.082,53.3449 156.082,49.4292 C156.082,45.5135 152.961,42.3391 149.111,42.3391 C145.26,42.3391 142.139,45.5135 142.139,49.4292 C142.139,53.3449 145.26,56.5193 149.111,56.5193 Z"/>
    <path fill="#DCDFEA" d="M149.111,53.1939 C151.155,53.1939 152.812,51.5084 152.812,49.4292 C152.812,47.3501 151.155,45.6646 149.111,45.6646 C147.066,45.6646 145.409,47.3501 145.409,49.4292 C145.409,51.5084 147.066,53.1939 149.111,53.1939 Z"/>
    <path fill="#F68627" d="M177.742,29.0534 C179.795,29.0534 181.459,27.3608 181.459,25.2729 C181.459,23.185 179.795,21.4924 177.742,21.4924 C175.689,21.4924 174.025,23.185 174.025,25.2729 C174.025,27.3608 175.689,29.0534 177.742,29.0534 Z"/>
    <path fill="#F68627" d="M173.362,25.2797 L175.285,25.5095 C175.54,25.5388 175.77,25.354 175.799,25.095 C175.828,24.8359 175.646,24.6016 175.392,24.57 L173.469,24.3402 C173.214,24.3109 172.983,24.4957 172.955,24.7548 C172.926,25.0161 173.108,25.2504 173.362,25.2797 Z"/>
    <path fill="#C82232" d="M183.086,23.4933 C183.086,23.4933 184.171,22.7363 183.431,21.4521 C182.691,20.1679 181.657,20.641 181.657,20.641 C181.657,20.641 181.411,19.314 179.802,19.2645 C178.194,19.2149 178.119,20.1544 178.119,20.1544 C178.119,20.1544 177.29,19.296 176.2,20.2332 C175.11,21.1705 175.467,22.3105 175.467,22.3105 C175.467,22.3105 177.071,21.9928 177.873,23.5811 C178.34,24.5048 178.509,25.4646 179.078,25.8318 C179.078,25.8318 179.486,27.0642 180.46,27.5756 C181.433,28.087 182.747,27.3616 182.66,26.1833 C182.654,26.0774 182.64,25.9828 182.623,25.8949 C183.05,25.7147 183.453,25.3745 183.582,24.7346 C183.755,23.8672 183.086,23.4933 183.086,23.4933 Z"/>
    <polygon fill="#F68627" points="175.952 27.528 176.714 30.579 180.761 30.795 179.734 27.199"/>
    <path fill="#F68627" d="M174.532,33.3026 C174.532,33.3026 168.5,32.0635 166.922,25.7552 C165.899,21.6638 167.184,19.091 167.731,17.5387 C168.278,15.9864 168.748,14.5468 169.364,13.792 C169.849,13.1973 170.239,13.5149 169.587,15.1618 C169.587,15.1618 170.598,13.391 171.189,13.2558 C171.781,13.1207 170.883,15.5336 170.883,15.5336 C170.883,15.5336 171.878,13.3662 172.388,13.587 C172.897,13.8078 171.231,16.6916 171.231,16.6916 C171.231,16.6916 172.722,15.5201 173.336,16.0698 C173.949,16.6195 171.468,17.7798 171.468,17.7798 C171.468,17.7798 168.896,21.7337 170.378,25.2821 C171.719,28.4948 175.407,29.0558 175.407,29.0558 L174.532,33.3026 Z"/>
    <path fill="#127A8B" d="M182.392019,34.0664 C182.392019,34.0664 182.392019,33.1202 182.392019,32.7552 C182.392019,32.3902 182.412,31.0362 181.147,29.6213 C180.423,28.8103 178.781,28.772 175.618,28.567 C174.02,28.4633 172.213,27.6162 172.213,27.6162 L170.261,31.5138 C170.261,31.5138 172.612,32.8746 173.932,33.0842 L173.932,33.9741 L182.392019,34.0664 Z"/>
    <path fill="#FFF" d="M180.846 38.0428L174.322 38.0428C174.089 38.0428 173.898 37.8513 173.898 37.6125 173.898 37.3737 174.087 37.1821 174.322 37.1821L180.846 37.1821C181.078 37.1821 181.269 37.3737 181.269 37.6125 181.269 37.8513 181.078 38.0428 180.846 38.0428zM131.729 45.9642L129.343 45.9642 129.343 45.3649 131.729 45.3649C132.343 45.3649 132.843 44.7543 132.843 44.0064L132.843 42.8664C132.843 42.1161 132.343 41.5078 131.729 41.5078L129.717 41.5078 129.717 40.9086 131.729 40.9086C132.668 40.9086 133.433 41.7872 133.433 42.8664L133.433 44.0064C133.433 45.0855 132.668 45.9642 131.729 45.9642zM219.263 45.0721L216.567 45.0721C216.073 45.0721 215.643 44.7138 215.545 44.2227L215.541 44.1912 215.346 42.1387C215.291 41.8323 215.37 41.5192 215.565 41.2781 215.765 41.0326 216.057 40.8906 216.37 40.8906L218.815 40.8906 218.815 41.535 216.37 41.535C216.248 41.535 216.133 41.5913 216.055 41.6859 215.977 41.7828 215.946 41.9067 215.971 42.0284L215.975 42.0599 216.17 44.1101C216.212 44.2948 216.378 44.4277 216.567 44.4277L219.263 44.4277 219.263 45.0721z"/>
    <path fill="#F68627" d="M177.877,24.3132 C177.877,24.3132 178.589,23.484 179.255,24.0383 C179.995,24.6534 178.959,26.003 178.959,26.003"/>
    <path fill="#FFF" d="M174.027,26.7802 C174.027,26.7802 174.623,27.0663 175.409,26.5279 C175.983,26.1336 176.065,26.6563 175.846,26.8839 C175.562,27.179 174.993,27.4336 174.279,27.348 L174.027,26.7802 Z"/>
    <path fill="#576295" d="M175.465,24.4935 C175.64,24.4935 175.782,24.3492 175.782,24.1713 C175.782,23.9934 175.64,23.8491 175.465,23.8491 C175.29,23.8491 175.148,23.9934 175.148,24.1713 C175.148,24.3492 175.29,24.4935 175.465,24.4935 Z"/>
    <path fill="#D3D9E5" d="M192.443 28.1342C192.342 28.1342 192.237 28.0959 192.155 28.0193 191.985 27.8571 191.976 27.5867 192.136 27.4132L197.526 21.542C197.685 21.3685 197.951 21.3595 198.121 21.5218 198.292 21.684 198.301 21.9543 198.141 22.1278L192.751 27.999C192.669 28.0869 192.556 28.1342 192.443 28.1342zM193.955 29.8218C193.853 29.8218 193.751 29.7858 193.671 29.7092 193.498 29.5492 193.487 29.2788 193.644 29.1031L197.523 24.7819C197.681 24.6062 197.947 24.5949 198.119 24.7549 198.292 24.9148 198.303 25.1852 198.146 25.3609L194.267 29.6821C194.183 29.7745 194.07 29.8218 193.955 29.8218z"/>
    <path fill="#E8EBEE" d="M347.014,143.327 L171.571,143.327 C170.9,143.327 170.355,142.773 170.355,142.09 C170.355,141.407 170.9,140.853 171.571,140.853 L347.014,140.853 C347.685,140.853 348.23,141.407 348.23,142.09 C348.23,142.773 347.685,143.327 347.014,143.327 Z"/>
    <path fill="#1F4847" d="M254.982 31.5643C254.834 31.5643 254.693 31.4703 254.639 31.3194 253.719 28.7364 254.549 25.8887 256.702 24.2335 256.863 24.1098 257.091 24.1419 257.213 24.3052 257.335 24.4685 257.303 24.7011 257.143 24.8248 255.245 26.282 254.515 28.7908 255.325 31.067 255.393 31.26 255.296 31.4728 255.106 31.5421 255.065 31.5569 255.023 31.5643 254.982 31.5643zM257.135 29.303C256.933 29.303 256.77 29.1372 256.77 28.9318 256.77 26.7274 258.534 24.9336 260.704 24.9336 260.906 24.9336 261.069 25.0994 261.069 25.3047 261.069 25.5101 260.906 25.6758 260.704 25.6758 258.938 25.6758 257.5 27.1381 257.5 28.9318 257.5 29.1372 257.337 29.303 257.135 29.303zM217.156 86.0476C217.001 86.0476 216.857 85.9461 216.809 85.7878 216.748 85.5923 216.855 85.3845 217.047 85.3226 219.317 84.6002 220.835 82.4873 220.825 80.0676 220.825 79.8622 220.988 79.6964 221.188 79.694 221.188 79.694 221.188 79.694 221.19 79.694 221.392 79.694 221.555043 79.8597 221.555043 80.0626 221.565 82.8114 219.842 85.2088 217.266 86.0303 217.229 86.0426 217.193 86.0476 217.156 86.0476zM217.293 83.7738C217.183 83.7738 217.074 83.7243 217.003 83.6278 216.882 83.4645 216.911 83.232 217.071 83.1082 218.959 81.6386 219.672 79.1248 218.847 76.8536 218.777 76.6606 218.874 76.4478 219.064 76.376 219.251 76.3043 219.463 76.4033 219.534 76.5962 220.47 79.1743 219.66 82.027 217.517 83.6971 217.449 83.7491 217.368 83.7738 217.293 83.7738z"/>
    <path fill="#FFCA28" d="M287.935,129.001 C287.935,129.001 289.967,130.036 292.385,131.493 C294.614,132.836 293.422,134.306 291.341,134.378 C289.261,134.449 283.707,133.682 283.707,133.682 L276.335,133.091 L277.022,128.101 L287.408,128.69 L287.935,129.001 Z"/>
    <path fill="#F68632" d="M292.264,33.1429 C296.748,31.2353 302.268,35.7333 304.01,39.5534 C305.562,42.9554 304.338,48.1684 301.545,50.9246 C298.645,53.7847 294.181,53.9381 294.181,53.9381 C294.181,53.9381 291.03,49.8286 289.006,48.255 C287.361,46.9957 285.245,46.392 285.245,46.392 C283.155,39.588 287.78,35.0504 292.264,33.1429 Z"/>
    <path fill="#971B23" d="M274.168,100.883 C273.776,99.8434 273.484,98.7869 273.073,97.8195 C271.392,93.8535 269.193,90.9661 269.193,90.9661 L256.135,78.1599 L276.418,80.4535 C276.418,80.4535 282.291,87.4553 285.089,94.4893 C287.432,100.383 287.972,128.999 287.972,128.999 L275.895,127.997 C275.893,127.997 276.686,107.543 274.168,100.883 Z"/>
    <path fill="#F68632" d="M303.017,48.4504 L304.922,49.7741 C305.479,50.1625 305.622,50.9443 305.238,51.5109 C304.856,52.0775 304.087,52.2234 303.53,51.8325 L301.625,50.5089"/>
    <path fill="#204948" d="M301.207,46.4983 C301.65,46.4414 301.961,46.0306 301.908,45.5803 C301.852,45.13 301.448,44.8134 301.005,44.8703 C300.562,44.9272 300.251,45.3379 300.304,45.7882 C300.36,46.236 300.764,46.5527 301.207,46.4983 Z"/>
    <path fill="#576295" d="M303.007,40.5579 C303.757,40.0012 304.087,39.4519 304.087,39.4519 C304.087,39.4519 304.362,32.8929 297.363,30.4633 C293.152,29.0011 290.04,30.6439 287.687,27.6205 C284.4,23.3971 281.106,21.7345 278.691,23.3427 C276.525,24.7826 277.888,27.9174 278.615,28.8081 C279.343,29.6988 279.187,29.8794 278.245,29.5998 C277.304,29.3202 274.941,27.7665 269.879,27.3285 C264.816,26.8906 260.437,29.3079 261.215,32.3288 C261.994,35.3498 265.877,37.0594 265.877,37.0594 C265.877,37.0594 258.921,37.0297 257.906,40.1125 C256.765,43.5813 260.677,44.6229 265.816,43.9771 C270.672,43.366 273.825,43.8089 282.067,46.2088 C284.459,46.9041 289.439,46.3053 291.964,44.848 C291.964,44.848 292.285,42.7326 292.872,42.1883 C295.032,40.1793 296.611,41.8741 296.611,41.8741 C298.487,42.9751 301.516,41.6663 303.007,40.5579 Z"/>
    <path fill="#00ADA8" d="M287.449,138.408 C287.429,138.408 287.41,138.406 287.391,138.403 L278.214,137.097 C277.99,137.065 277.829,136.859 277.849,136.632 L278.124,133.319 C278.133,133.2 278.189,133.091 278.282,133.019 C278.372,132.945 278.489,132.91 278.603,132.928 L287.865,134.152 C288.094,134.182 288.259,134.395 288.232,134.627 L287.872,138.022 C287.86,138.138 287.802,138.245 287.712,138.316 C287.634,138.376 287.541,138.408 287.449,138.408 Z M278.729,136.295 L287.072,137.483 L287.342,134.954 L278.934,133.843 L278.729,136.295 Z"/>
    <path fill="#FFF" d="M269.742114,123.041 C269.779,134.328 260.811,143.51 249.712,143.549112 C238.614,143.586 229.585,134.467 229.545892,123.18 C229.51,111.893 238.477,102.711 249.576,102.670888 C260.677,102.634 269.706,111.754 269.742114,123.041 Z M266.580095,123.053 C266.611,132.564 259.055,140.301 249.7,140.3331 C240.348,140.365 232.741,132.68 232.708899,123.17 C232.677,113.659 240.234,105.922 249.588,105.889888 C258.94,105.856 266.548,113.543 266.580095,123.053 Z M239.395,115.208 C241.567,112.298 244.91,110.341 248.715,110.064 L239.395,115.208 Z M334.554,128.098 C333.046,131.414 330.192,134.053 326.536,135.154 L334.554,128.098 Z M342.994114,122.794 C343.031,134.081 334.063,143.262 322.964,143.302112 C311.865,143.339 302.837,134.219 302.797886,122.932 C302.761,111.645 311.729,102.464 322.828,102.423869 C333.929,102.384 342.955,111.504 342.994114,122.794 Z M339.831101,122.804 C339.863,132.314 332.306,140.051 322.952,140.0831 C313.6,140.115 305.992,132.43 305.960899,122.92 C305.929,113.409 313.486,105.673 322.84,105.639888 C332.192,105.606 339.8,113.293 339.831101,122.804 Z"/>
    <path fill="#00ADA8" d="M249.642,143.982 C244.185,143.982 239.054,141.83 235.181,137.918 C231.291,133.989 229.14,128.754 229.119882,123.18 C229.082,111.67 238.258,102.276 249.576,102.238 C249.598,102.238 249.622,102.238 249.647,102.238 C260.933,102.238 270.132,111.554 270.168124,123.041 C270.207,134.551 261.03,143.945 249.712,143.982 C249.691,143.982 249.666,143.982 249.642,143.982 Z M249.647,103.104 C249.625,103.104 249.603,103.104 249.579,103.104 C238.73,103.141 229.936,112.145 229.97189,123.177 C229.989,128.521 232.052,133.539 235.782,137.305 C239.494,141.055 244.414,143.116 249.644,143.116 C249.666,143.116 249.691,143.116 249.712,143.116 C260.561,143.079 269.355,134.076 269.31911,123.044 C269.28,112.036 260.463,103.104 249.647,103.104 Z M322.894,143.732 C317.437,143.732 312.306,141.58 308.432,137.668 C304.542,133.739 302.392,128.504 302.371873,122.93 C302.353,117.355 304.472,112.105 308.335,108.152 C312.199,104.198 317.347,102.008 322.828,101.989 C322.852,101.989 322.877,101.989 322.898,101.989 C328.355,101.989 333.486,104.141 337.359,108.053 C341.25,111.982 343.4,117.217 343.420127,122.791 C343.439,128.365 341.32,133.616 337.457,137.569 C333.593,141.525 328.445,143.713 322.964,143.732 C322.94,143.732 322.915,143.732 322.894,143.732 Z M322.898,102.854 C322.877,102.854 322.852,102.854 322.83,102.854 C317.575,102.872 312.641,104.97 308.939,108.763 C305.236,112.553 303.207,117.586 303.223894,122.93 C303.241,128.274 305.304,133.291 309.031,137.057 C312.744,140.808 317.663,142.869 322.894,142.869 C322.915,142.869 322.94,142.869 322.962,142.869 C328.217,142.852 333.151,140.753 336.853,136.961 C340.556,133.17 342.585,128.138 342.568106,122.796 C342.551,117.452 340.488,112.434 336.759,108.669 C333.048,104.918 328.127,102.854 322.898,102.854 Z M249.642,140.766 C245.027,140.766 240.684,138.945 237.409,135.637 C234.12,132.314 232.298,127.885 232.282907,123.17 C232.252,113.434 240.013,105.487 249.586,105.455 C249.605,105.455 249.625,105.455 249.644,105.455 C259.191,105.455 266.971,113.335 267.005099,123.051 C267.037,132.787 259.276,140.731 249.703,140.766 C249.683,140.766 249.661,140.766 249.642,140.766 Z M249.644,106.321 C249.625,106.321 249.608,106.321 249.588,106.321 C240.484,106.353 233.103,113.909 233.134896,123.167 C233.149,127.653 234.882,131.861 238.01,135.023 C241.124,138.17 245.255,139.9 249.642,139.9 C249.661,139.9 249.681,139.9 249.7,139.9 C258.804,139.87 266.185,132.312 266.154097,123.056 C266.122,113.815 258.721,106.321 249.644,106.321 Z M322.896,140.516 C313.349,140.516 305.569,132.636 305.534901,122.92 C305.503,113.184 313.264,105.237 322.838,105.205 C322.857,105.205 322.877,105.205 322.896,105.205 C332.443,105.205 340.225,113.085 340.257093,122.801 C340.272,127.517 338.481,131.955 335.214,135.303 C331.946,138.648 327.591,140.501 322.954,140.516 C322.935,140.516 322.915,140.516 322.896,140.516 Z M322.896,106.071 C322.877,106.071 322.859,106.071 322.84,106.071 C313.736,106.101 306.355,113.659 306.385903,122.917 C306.418,132.156 313.819,139.65 322.896,139.65 C322.915,139.65 322.932,139.65 322.952,139.65 C327.363,139.635 331.501,137.874 334.61,134.692 C337.717,131.51 339.423,127.289 339.406126,122.804 C339.374,113.568 331.973,106.071 322.896,106.071 Z M326.533,135.587 C326.348,135.587 326.18,135.466 326.124,135.278 C326.059,135.048 326.188,134.808 326.411,134.741 C329.835,133.712 332.662,131.226 334.165,127.92 C334.265,127.702 334.518,127.608 334.73,127.71 C334.944,127.811 335.036,128.069 334.936,128.284 C333.328,131.817 330.309,134.474 326.65,135.573 C326.616,135.583 326.574,135.587 326.533,135.587 Z M239.395,115.641 C239.305,115.641 239.215,115.611 239.137,115.552 C238.949,115.408 238.913,115.136 239.056,114.946 C241.37,111.846 244.881,109.908 248.686,109.631 C248.919,109.609 249.124,109.794 249.141,110.032 C249.158,110.269 248.98,110.477 248.747,110.495 C245.187,110.754 241.903,112.566 239.735,115.468 C239.65,115.581 239.523,115.641 239.395,115.641 Z"/>
    <path fill="#00ADA8" d="M283.041,126.176 C283.011,126.176 282.98,126.176 282.948,126.173 L249.109,123.905 C248.61,123.87 248.173,123.558 247.971,123.093 C247.769,122.628 247.839,122.089 248.151,121.693 L267.12,97.5822 L263.84,91.3819 C263.49,90.7189 263.733,89.8925 264.385,89.5362 C265.037,89.1799 265.85,89.4274 266.2,90.0904 L269.618,96.5529 L291.616,95.8404 C291.787,95.8354 291.95,95.8626 292.101,95.9146 C292.261,95.8404 292.439,95.7958 292.626,95.7933 L306.992,95.4692 C304.705,88.3115 303.396,83.2593 303.379,83.1851 C303.192,82.4577 303.62,81.713 304.336,81.5224 C304.472,81.4853 304.611,81.4705 304.747,81.4804 C305.496,81.4507 310.374,81.2552 311.968,81.1612 C312.126,81.1513 312.281,81.1711 312.427,81.2132 C312.564,81.1587 312.712,81.1241 312.868,81.1167 C313.337,81.0969 318.865,80.9336 319.286,80.9336 C319.298,80.9336 319.308,80.9336 319.32,80.9336 C322.808,80.9336 325.324,82.7942 325.891,85.7953 C326.523,89.1181 324.976,91.9411 322.037,92.8194 C318.989,93.7299 317.57,93.6582 317.417,93.6483 C316.68,93.5938 316.123,92.9407 316.176,92.191 C316.23,91.4388 316.872,90.8772 317.609,90.9292 C317.609,90.9292 317.614,90.9292 317.626,90.9292 C317.78,90.9292 318.926,90.9069 321.278,90.2042 C323.176,89.6377 323.546,87.8216 323.256,86.3099 C322.801,83.905 320.327,83.6502 319.291,83.6576 C318.972,83.6576 313.539,83.8135 312.975,83.8382 C312.824,83.8432 312.676,83.8259 312.539,83.7838 C312.41,83.8358 312.269,83.8704 312.121,83.8778 C310.965,83.9471 308.206,84.0634 306.408,84.1376 C307.352,87.5693 309.758,95.9542 313.203,105.331 C315.344,111.155 318.081,115.253 320.003,117.665 C322.088,120.283 323.687,121.537 323.701,121.549 C324.288,122.005 324.402,122.861 323.954,123.457 C323.507,124.053 322.67,124.172 322.081,123.719 C321.796,123.501 315.079,118.226 310.693,106.284 C309.807,103.871 308.987,101.526 308.245,99.3091 L296.492,112.031 C296.407,112.125 296.31,112.202 296.207,112.266 C296.185,112.293 296.164,112.321 296.139,112.345 L284.077,125.671 C283.968,125.807 283.831,125.924 283.671,126.013 C283.474,126.124 283.255,126.176 283.041,126.176 Z M251.849,121.356 L280.715,123.291 L268.499,100.19 L251.849,121.356 Z M271.037,99.2349 L283.328,122.482 L294.171,110.502 C294.259,110.403 294.358,110.322 294.465,110.257 C294.49,110.228 294.514,110.195 294.541,110.166 L305.571,98.2279 L292.685,98.5199 C292.522,98.5248 292.361,98.4976 292.213,98.4432 C292.057,98.5149 291.882,98.5595 291.699,98.5644 L271.037,99.2349 Z"/>
    <path fill="#00ADA8" d="M248.712 126.658C246.533 126.658 244.754 124.857 244.746979 122.638 244.74 120.414 246.513 118.598 248.7 118.59 248.705 118.59 248.71 118.59 248.712 118.59 250.892 118.59 252.671 120.391 252.678021 122.611 252.685 124.835 250.912 126.651 248.725 126.658 248.72 126.658 248.717 126.658 248.712 126.658zM248.712 119.622C248.71 119.622 248.705 119.622 248.703 119.622 247.075 119.627 245.754 120.98 245.758986 122.635 245.764 124.288 247.09 125.629 248.712 125.629 248.715 125.629 248.72 125.629 248.722 125.629 250.35 125.624 251.671 124.271 251.666014 122.616 251.659 120.963 250.335 119.622 248.712 119.622zM282.61 133.386C278.335 133.386 274.786 129.924 274.64 125.547 274.567 123.383 275.328 121.317 276.783 119.733 278.238 118.15 280.211 117.237 282.342 117.165 284.473 117.096 286.502 117.865 288.059 119.345 289.616 120.824 290.514 122.831 290.585 124.998 290.733 129.469 287.278 133.23 282.882 133.381 282.792 133.383 282.7 133.386 282.61 133.386zM282.619 118.189C282.539 118.189 282.459 118.192 282.376 118.194 280.517 118.259 278.793 119.055 277.523 120.438 276.253 121.821 275.588 123.622 275.652 125.515 275.781 129.419 279.007 132.482 282.848 132.354 286.687 132.22 289.704 128.937 289.573 125.035 289.509 123.145 288.726 121.391 287.366 120.099 286.067 118.86 284.388 118.189 282.619 118.189zM289.962 115.151C289.947 115.151 289.93 115.151 289.916 115.148L280.868 114.156C280.754 114.144 280.649 114.085 280.578 113.993 280.508 113.901 280.476 113.785 280.491 113.669L280.817 111.113C280.846 110.876 281.06 110.707 281.294 110.74L290.468 111.937C290.585 111.952 290.689 112.016 290.76 112.113 290.831 112.209 290.855 112.33 290.833 112.449L290.38 114.8C290.342 115.005 290.164 115.151 289.962 115.151zM281.393 113.342L289.619 114.243 289.908 112.736 281.607 111.652 281.393 113.342z"/>
    <path fill="#D3D9E5" d="M273.375,71.7048 C273.375,71.7048 273.525,70.208 277.754,66.1058 C281.982,62.0037 285.738,62.214 288.376,64.8762 C291.232,67.761 293.942,69.8121 295.847,71.6281 C297.426,73.1201 307.936,82.1284 307.936,82.1284 L312.924,78.3826 L302.756,68.1124 C302.518,67.8699 301.287,66.279 301.126,65.9772 C299.805,63.503 294.378,52.8815 291.169,49.8433 C287.585,46.4487 283.588,44.9296 277.34,46.3126 C270.878,47.7427 262.115,51.4737 256.787,60.5192 C252.578,67.6645 252.393,74.0454 254.418,78.1277 L273.375,71.7048 Z"/>
    <path fill="#00ADA8" d="M178.746,105.93 C178.534,105.93 178.352,105.769 178.325,105.551 L175.26,81.0746 C175.245,80.9583 175.277,80.842 175.35,80.7504 C175.423,80.6589 175.527,80.602 175.642,80.5896 L187.127,79.4515 C187.361,79.4317 187.57,79.6024 187.592,79.84 C187.614,80.0775 187.443,80.2902 187.21,80.3125 L176.16,81.4086 L179.169,105.445 C179.198,105.682 179.033,105.898 178.802,105.93 C178.782,105.93 178.765,105.93 178.746,105.93 Z"/>
    <path fill="#00ADA8" d="M180.033 86.0106C179.924 86.0106 179.814 85.9685 179.731 85.8819L175.63 81.6857C175.464 81.515 175.464 81.2429 175.632 81.0722 175.8 80.9039 176.068 80.9039 176.233 81.0746L180.335 85.2708C180.5 85.4415 180.5 85.7137 180.332 85.8844 180.252 85.9685 180.143 86.0106 180.033 86.0106zM172.567 131.629C172.489 131.629 172.408 131.607 172.338 131.562L164.205 126.315C164.173 126.295 164.144 126.272 164.12 126.245 164.076 126.198 164.042 126.144 164.022 126.082 164.003 126.02 163.995 125.956 164.003 125.889 164.005 125.864 164.01 125.84 164.017 125.817 164.18 125.058 165.798 109.936 166.852 99.9154 166.859 99.8362 166.888 99.757 166.939 99.6902 166.947 99.6828 166.951 99.6729 166.959 99.6655 167.01 99.6086 167.073 99.569 167.141 99.5467 167.178 99.5343 167.219 99.5269 167.26 99.5269 167.265 99.5269 167.27 99.5269 167.275 99.5269L177.719 99.5244C177.955 99.5244 178.145 99.7174 178.145 99.9574 178.145 100.197 177.955 100.39 177.719 100.39L168.372 100.393 174.148 105.732 223.672 106.63 219.003 99.2498 213.21 99.3785C212.972 99.3834 212.78 99.1929 212.775 98.9554 212.77 98.7154 212.957 98.5175 213.191 98.5125L219.222 98.3789C219.365 98.3789 219.509 98.4507 219.589 98.5768L224.798 106.811C224.859 106.892 224.893 106.991 224.888 107.095L224.312 121.901 254.939 122.433C255.175 122.438 255.362 122.633 255.358063 122.873 255.353 123.113 255.156 123.313 254.925 123.299L224.277 122.767 223.949 131.218C223.939 131.451 223.752 131.634 223.523 131.634L172.567 131.634C172.571 131.629 172.569 131.629 172.567 131.629zM173.019 130.763L223.122 130.763 224.027 107.501 174.389 106.601 173.019 130.763zM164.888 125.731L172.182 130.436 173.547 106.343 167.608 100.853C166.827 108.325 165.253 123.177 164.888 125.731z"/>
    <path fill="#00ADA8" d="M202.219 143.997C201.761 143.997 201.302 143.972 200.837 143.925 193.49 143.156 188.128 136.453 188.884 128.981 189.249 125.362 190.981 122.103 193.755 119.807 196.531 117.511 200.017 116.452 203.579 116.823 210.926 117.593 216.288 124.295 215.531 131.767 214.824 138.769 208.992 143.997 202.219 143.997zM202.185 117.62C199.314 117.62 196.553 118.615 194.295 120.483 191.697 122.633 190.076 125.683 189.733 129.073 189.025 136.07 194.047 142.347 200.927 143.067 207.807 143.784 213.979 138.68 214.687 131.683 215.395 124.686 210.374 118.409 203.494 117.689 203.056 117.642 202.618 117.62 202.185 117.62zM202.229 141.016C201.866 141.016 201.504 140.996 201.139 140.959 195.399 140.357 191.212 135.122 191.804 129.288 192.395 123.452 197.543 119.191 203.282 119.795 206.063 120.087 208.564 121.46 210.328 123.664 212.091 125.869 212.904 128.64 212.619 131.465 212.332 134.293 210.982 136.837 208.814 138.631 206.926 140.187 204.622 141.016 202.229 141.016zM202.202 120.601C197.341 120.601 193.159 124.352 192.65 129.375 192.108 134.736 195.954 139.546 201.226 140.095 203.781 140.365 206.282 139.603 208.274 137.955 210.264 136.307 211.508 133.972 211.77 131.374 212.033 128.776 211.286 126.233 209.666 124.206 208.046 122.182 205.749 120.918 203.194 120.651 202.859 120.619 202.528 120.601 202.202 120.601zM213.821 106.984C213.602 106.984 213.414 106.813 213.397 106.585L211.468 82.7247 180.159 85.5378 183.4 105.932C183.437 106.167 183.281 106.39 183.047 106.43 182.816 106.469 182.597 106.308 182.558 106.071L179.245 85.2162C179.225 85.0975 179.257 84.9762 179.33 84.8822 179.403 84.7882 179.51 84.7263 179.629 84.7164L211.819 81.8242C211.93 81.8143 212.045 81.8489 212.13 81.9256 212.218 81.9998 212.271 82.1062 212.281 82.22L214.244 106.516C214.264 106.754 214.088 106.964 213.855 106.984 213.845 106.984 213.833 106.984 213.821 106.984z"/>
    <polygon fill="#FFF" points="193.691 81.482 214.181 82.099 215.665 66.085 210.502 61.878 190.742 61.374 189.763 79.478"/>
    <path fill="#00ADA8" d="M214.181,82.4726 C214.177,82.4726 214.173,82.4726 214.17,82.4726 L193.68,81.8557 C193.625,81.8535 193.573,81.8407 193.527,81.8151 L189.6,79.8086 C189.469,79.7424 189.39,79.6036 189.398,79.4542 L190.376,61.3527 C190.387,61.1499 190.553,60.9898 190.752,61.0005 L210.512,61.5043 C210.592,61.5064 210.669,61.5342 210.732,61.5854 L215.896,65.7927 C215.992,65.8717 216.043,65.9934 216.032,66.1193 L214.548,82.1332 C214.527,82.3253 214.37,82.4726 214.181,82.4726 Z M193.783,81.1107 L213.847,81.7148 L215.281,66.2516 L210.369,62.2492 L191.09,61.7562 L190.145,79.2514 L193.783,81.1107 Z"/>
    <path fill="#00ADA8" d="M194.677,66 C194.602,66 194.524,65.9696 194.463,65.9109 L191.107,62.6185 C190.975,62.4888 190.964,62.2639 191.082,62.1181 C191.199,61.9722 191.404,61.96 191.537,62.0897 L194.893,65.3821 C195.025,65.5117 195.036,65.7366 194.918,65.8825 C194.854,65.9595 194.766,66 194.677,66 Z"/>
    <path fill="#C82232" d="M254.415,78.1278 C256.439,82.2077 258.013,86.0649 265.752,85.7952 C271.404,85.5997 281.24,86.4385 282.804,86.6611 C284.369,86.8838 287.945,87.7795 287.062,91.1888 C286.179,94.5982 280.858,106.199 280.858,106.199 L290.239,107.075 C290.239,107.075 297.334,91.6094 298.217,88.2001 C298.801,85.9387 299.058,79.7855 293.492,77.3163 C287.901,74.8372 273.374,71.7074 273.374,71.7074 L254.415,78.1278 Z"/>
    <path fill="#FFCA28" d="M280.858,106.199 L290.239,107.075 C290.239,107.075 296.275,109.327 297.173,110.457 C298.071,111.591 297.852,112.954 295.618,112.961022 C293.385,112.969 278.416,110.749 278.416,110.749 L280.858,106.199 Z"/>
    <path fill="#F68632" d="M312.924,78.3826 C312.924,78.3826 317.184,80.0576 318.081,81.9849 C318.981,83.9123 318.337,85.1444 316.996,84.5803 C315.656,84.0162 315.512,84.7312 315.626,85.5254 C315.741,86.3197 314.291,86.5522 313.729,85.9856 C313.169,85.4191 312.391,86.2182 312.391,86.7848 C312.393,87.3514 311.615,88.2643 310.384,87.4726 C309.153,86.6809 307.841,81.8142 307.841,81.8142 L312.924,78.3826 Z"/>
    <path fill="#00ADA8" d="M194.357,82 C194.348,82 194.34,82 194.332,82 C194.137,81.9874 193.989,81.8113 194.001,81.61 L195.036,65.3423 C195.048,65.141 195.215,64.99 195.41,65.0005 L215.664,66.1454 C215.859,66.1559 216.01,66.33 216,66.5313 C215.989,66.7326 215.823,66.8877 215.625,66.8772 L195.723,65.7533 L194.71,81.6603 C194.698,81.8511 194.544,82 194.357,82 Z"/>
    <path fill="#FFF" d="M269.416,90.5677 L258.028,90.6073183 C256.799,90.6123 255.792,89.5929 255.786988,88.3435 C255.783,87.094 256.785,86.0697 258.013,86.0647 L269.402,86.0251817 C270.63,86.0202 271.638,87.0396 271.642019,88.289 C271.647,89.5385 270.645,90.5628 269.416,90.5677 Z"/>
    <path fill="#00ADA8" d="M258.021,91.0404 C257.315,91.0404 256.651,90.7608 256.15,90.2536 C255.644,89.7439 255.363984,89.066 255.363984,88.346 C255.359,86.8541 256.549,85.6393 258.013,85.6343 L269.402,85.5947 C269.404,85.5947 269.407,85.5947 269.412,85.5947 C270.117,85.5947 270.781,85.8743 271.282,86.3815 C271.788,86.8912 272.066,87.5691 272.068016,88.2891 C272.073,89.781 270.883,90.9984 269.419,91.0033 L258.03,91.0429 C258.026,91.0404 258.023,91.0404 258.021,91.0404 Z M269.409,86.4582 C269.407,86.4582 269.404,86.4582 269.404,86.4582 L258.016,86.4978 C257.018,86.5003 256.211,87.3291 256.215977,88.3411 C256.218,88.8285 256.408,89.2887 256.751,89.6375 C257.094,89.9864 257.541,90.1819 258.028,90.1745 L269.416,90.1349 C270.414,90.1324 271.222,89.3035 271.217023,88.2916 C271.214,87.8042 271.025,87.344 270.682,86.9951 C270.338,86.6487 269.888,86.4582 269.409,86.4582 Z"/>
    <path fill="#FFCA28" d="M37.043 110.499L37.043 121.316C37.043 121.316 46.9448 127.806 53.8834 127.88 60.5179 127.952 61.7002 124.602 61.7002 124.602L59.7101 115.643 37.043 110.499zM101.823 47.6431C101.823 47.6431 91.1795 26.744 88.3476 23.9284 85.5157 21.1128 85.0681 24.0224 86.2456 26.1007 87.4231 28.179 89.311 30.9525 89.311 30.9525 89.311 30.9525 85.5571 25.497 83.1656 23.0922 80.7959 20.7071 79.8568 22.6691 81.2898 25.6702 82.2897 27.7658 84.9732 32.6943 84.9732 32.6943 84.9732 32.6943 78.5917 23.1317 76.3121 22.2064 74.0325 21.2811 73.9814 23.6587 75.21 25.5341 76.4386 27.4095 81.2192 35.3788 81.2192 35.3788 81.2192 35.3788 75.8547 29.5299 73.8038 28.1543 71.7553 26.7786 71.225 29.0103 73.0034 31.2445 74.7843 33.4762 79.9542 40.8343 79.9542 40.8343 79.9542 40.8343 77.857 40.0747 74.5434 39.0677 71.2298 38.0608 69.8236 40.2083 73.164 42.6181 76.5043 45.0255 83.9052 50.7581 83.9052 50.7581L86.2918 54.0809 101.823 47.6431z"/>
    <path fill="#FFF" d="M89.9072,140.916 C99.0159,133.318 109.46,121.845 115.058,103.126 C124.216,72.5035 102.716,43.306 102.716,43.306 L81.3653,52.1635 C81.3653,52.1635 98.3469,73.7356 90.9704,97.2425 C86.5401,111.36 77.8133,117.365 66.4785,121.318"/>
    <path fill="#F68632" d="M89.9072,141.554 C89.7247,141.554 89.5471,141.475 89.423,141.322 C89.2041,141.05 89.243,140.646 89.5106,140.424 C101.831,130.144 109.991,117.884 114.46,102.94 C119.138,87.2963 115.562,72.0209 111.737,61.9635 C108.134,52.4875 103.653,45.7479 102.497,44.0877 L82.3604,52.4405 C83.5938,54.1402 86.832,58.9203 89.5155,65.6475 C92.5858,73.3471 95.4347,85.1117 91.5688,97.4354 C89.4376,104.227 86.2189,109.502 81.7327,113.567 C77.9277,117.013 73.1446,119.668 66.6829,121.92 C66.3544,122.033 65.9992,121.855 65.8873,121.524 C65.7754,121.19 65.9506,120.829 66.2766,120.712 C72.5753,118.518 77.2221,115.942 80.8982,112.614 C85.2141,108.705 88.3136,103.613 90.3743,97.047 C94.1233,85.0993 91.3523,73.6563 88.3696,66.1621 C85.1217,58.0024 80.9201,52.6161 80.8787,52.5617 C80.7547,52.4034 80.7109,52.198 80.762,52.0026 C80.813,51.8071 80.9493,51.6487 81.1318,51.5721 L102.483,42.7146 C102.748,42.6057 103.05,42.6899 103.222,42.9224 C103.276,42.9966 108.699,50.4216 112.91,61.5008 C116.805,71.7463 120.445,87.3186 115.662,103.309 C111.119,118.5 102.826,130.963 90.3086,141.406 C90.1869,141.507 90.0458,141.554 89.9072,141.554 Z"/>
    <path fill="#F68632" d="M82.1875 58.3464C81.9758 58.3464 81.7812 58.2053 81.7204 57.9876 81.645 57.7254 81.7958 57.4507 82.0537 57.374L108.883 49.5137C109.141 49.437 109.411 49.5904 109.487 49.8526 109.562 50.1149 109.411 50.3895 109.154 50.4662L82.3237 58.3266C82.2775 58.339 82.2313 58.3464 82.1875 58.3464zM101.796 97.2795C101.68 97.2795 101.563 97.2375 101.468 97.1509 101.446 97.1311 99.3611 95.2087 97.7117 94.3898 96.432 93.7539 95.9235 93.2269 96.0135 92.6282 96.1205 91.9181 97.028 91.6905 97.8065 91.5693 99.4025 91.3218 101.176 91.3144 103.478 91.5495 102.225 90.8344 100.008 89.82 98.4342 89.4539 98.0912 89.3747 97.1837 89.1619 97.247 88.4642 97.2883 88.0189 97.6703 87.5389 100.171 87.049 101.835 86.7224 103.94 86.4948 106.098 86.4057 106.363 86.3958 106.592 86.6061 106.604 86.8808 106.614 87.1529 106.407 87.383 106.137 87.3954 102.366 87.5513 99.6434 88.0931 98.5997 88.479 98.6167 88.484 98.6337 88.4865 98.6507 88.4914 99.9377 88.7908 101.638 89.5083 102.801 90.0798 105.46 91.3862 105.385 91.8365 105.334 92.1333 105.229 92.7519 104.456 92.6603 104.203 92.6282 101.575 92.3115 99.6458 92.2867 97.9525 92.549 97.41 92.6331 97.1521 92.7321 97.0353 92.7939 97.1424 92.9127 97.4246 93.1477 98.1374 93.504 99.911 94.3848 102.032 96.3419 102.122 96.4235 102.322 96.6066 102.337 96.9208 102.154 97.1237 102.059 97.2251 101.928 97.2795 101.796 97.2795zM61.1506 138.437C57.0949 138.437 52.9809 137.529 50.2999 136.537 40.8433 133.036 36.7123 128.461 36.5395 128.266 36.2889 127.984 36.3108 127.548 36.5882 127.293 36.8655 127.039 37.2937 127.061 37.5443 127.343 37.5832 127.387 41.651 131.868 50.7621 135.24 55.1486 136.866 63.5299 138.271 68.6414 135.493 68.9698 135.315 69.381 135.441 69.5586 135.775 69.7338 136.111 69.6097 136.527 69.2812 136.708 66.9749 137.964 64.0773 138.437 61.1506 138.437z"/>
    <path fill="#F68632" d="M0.676292,149.427 C0.574111,149.427 0.469497,149.402 0.369749,149.353 C0.0364439,149.18 -0.0949317,148.769 0.0729371,148.43 C0.116729,148.341 1.21639,146.174 5.25011,141.456 C17.5629,127.058 36.3837,121.437 36.571,121.383 C36.8022,121.313 37.0503,121.378 37.2255,121.546 C37.3301,121.647 47.7477,131.621 59.0168,131.621 C61.6078,131.621 66.9967,131.621 68.8992,129.285 C69.5488,128.488 69.7483,127.472 69.5098,126.175 C69.0597,123.746 66.1549,121.925 66.1257,121.907 C65.807,121.709 65.7048,121.286 65.8994,120.962 C66.0941,120.638 66.5101,120.534 66.8288,120.732 C66.9699,120.819 70.2786,122.897 70.8406,125.923 C71.1569,127.62 70.8528,129.048 69.9429,130.166 C67.6341,132.999 62.0287,132.999 59.0168,132.999 C48.1443,132.999 38.4127,124.51 36.5856,122.82 C33.9387,123.669 17.3829,129.372 6.27192,142.361 C2.37688,146.916 1.28938,149.034 1.27965,149.056 C1.16044,149.289 0.922013,149.427 0.676292,149.427 Z"/>
    <path fill="#F68627" d="M89.1893 45.0576C89.092 45.0576 88.9923 45.0279 88.9071 44.9636 85.5862 42.5414 82.2216 42.5019 82.1899 42.5019 81.9223 42.5019 81.7034 42.2792 81.7034 42.007 81.7034 41.7349 81.9223 41.5122 82.1899 41.5122 82.3384 41.5122 85.8879 41.5419 89.474 44.1595 89.6929 44.3179 89.7416 44.6271 89.5859 44.8498 89.4886 44.9859 89.3402 45.0576 89.1893 45.0576zM90.7928 38.6026C87.4038 38.6026 84.1121 36.5911 83.9588 36.4946 83.7301 36.3536 83.6572 36.0493 83.7958 35.8142 83.9345 35.5817 84.2338 35.505 84.4649 35.6485 84.5038 35.6732 88.3551 38.0212 91.7416 37.5486 92.0068 37.5091 92.2525 37.702 92.289 37.9717 92.3255 38.2414 92.1406 38.4913 91.873 38.5284 91.5154 38.5779 91.1553 38.6026 90.7928 38.6026z" opacity=".5"/>
    <path fill="#FFCA28" d="M67.5027,80.3787 C67.5027,80.3787 74.5434,92.2348 71.3393,105.499 C68.1352,118.765 60.5422,121.093 53.7009,122.422 C46.8621,123.75 30.7954,119.332 28.326,97.5542 C25.8566,75.7768 37.3179,71.2243 41.2397,70.4078 C45.1615,69.5914 61.6175,68.2133 67.5027,80.3787 Z"/>
    <path fill="#1F4847" d="M48.9957,59.806 C55.5134,58.4551 58.0387,58.5318 57.9463,61.2237 C57.8563,63.9156 51.0028,66.6643 51.0028,66.6643 C51.0028,66.6643 56.1021,64.1085 62.7974,64.6232 C66.3884,64.9003 72.4779,67.3472 73.726,69.0371 C75.3317,71.2094 73.9911,73.2109 71.9378,72.5553 C64.6489,70.2321 63.7682,70.5314 63.7682,70.5314 C63.7682,70.5314 74.0641,74.547 79.3556,82.4024 C82.5111,87.0885 76.8425,86.0147 73.2102,83.731 C69.5779,81.4474 63.2378,78.0108 63.2378,78.0108 C63.2378,78.0108 63.8752,78.2038 65.6609,82.6424 C67.0769,86.1656 64.0358,86.1903 62.6734,85.0621 C61.311,83.9339 54.4478,77.9737 54.4478,77.9737 C54.4478,77.9737 56.6204,82.202 56.0243,84.7727 C55.6886,86.2176 53.8736,85.7376 52.0319,84.7702 C50.5941,84.0156 49.1392,82.9665 48.3583,82.3035 C46.575,80.7893 42.5851,77.9984 42.5851,77.9984 C42.5851,77.9984 45.1274,83.8077 43.4147,85.6757 C41.6995,87.5437 39.2179,87.4918 36.3788,85.1809 C34.3862,83.5603 31.5325,81.6998 31.5325,81.6998 C31.5325,81.6998 34.5979,99.2984 34.2524,101.656 C33.6977,105.432 31.0654,104.442 29.1409,102.324 C25.5914,98.4151 21.3338,91.7968 20.6137,84.0873 C20.239,80.0693 21.0638,74.5321 23.4091,72.4984 C28.068,68.4556 33.8729,70.2296 33.8729,70.2296 C33.8729,70.2296 35.6538,62.5721 48.9957,59.806 Z"/>
    <path fill="#BD2231" d="M58.6446 101.268C57.8515 101.268 56.9975 100.941 56.3309 100.184 55.1777 98.8778 53.173 96.1735 53.0879 96.0597L53.9248 95.4189C53.9443 95.4461 55.9879 98.2023 57.1094 99.4741 57.9537 100.429 59.0679 100.305 59.591 99.912 60.1481 99.4914 60.4547 98.623 59.8829 97.6284 59.175 96.3962 56.9829 93.405 56.961 93.3753L57.8028 92.7369C57.8953 92.8606 60.0532 95.8074 60.7904 97.089 61.6857 98.6452 61.1213 100.088 60.2187 100.768 59.7929 101.087 59.2358 101.268 58.6446 101.268zM58.389 111.919C57.0947 111.919 55.635 111.57 54.82 110.227 54.4502 109.618 54.5062 108.849 54.9587 108.267 55.3771 107.73 56.214 107.29 57.2967 107.666 58.518 108.087 60.7051 107.302 61.6734 106.575 62.5103 105.946 63.5808 105.89 64.2766 106.436 64.8678 106.902 65.0284 107.676 64.6999 108.51 64.1112 110.007 62.5639 111.157 60.4497 111.664 59.968 111.778 59.2114 111.919 58.389 111.919zM56.5157 108.596C56.1727 108.596 55.9197 108.75 55.7786 108.933 55.6399 109.111 55.5474 109.398 55.7104 109.665 56.686 111.271 59.1822 110.873 60.2113 110.625 61.0506 110.422 63.0748 109.774 63.7268 108.114 63.8314 107.849 63.8995 107.488 63.6368 107.28 63.3667 107.07 62.8071 107.05 62.2962 107.433 61.1455 108.297 58.5837 109.237 56.9609 108.675 56.8004 108.619 56.652 108.596 56.5157 108.596z"/>
    <path fill="#1F4847" d="M63.3497 92.6826C64.2916 92.6826 65.0552 91.9061 65.0552 90.9482 65.0552 89.9904 64.2916 89.2139 63.3497 89.2139 62.4078 89.2139 61.6443 89.9904 61.6443 90.9482 61.6443 91.9061 62.4078 92.6826 63.3497 92.6826zM47.2245 95.4932C48.1664 95.4932 48.9299 94.7167 48.9299 93.7588 48.9299 92.8009 48.1664 92.0244 47.2245 92.0244 46.2826 92.0244 45.519 92.8009 45.519 93.7588 45.519 94.7167 46.2826 95.4932 47.2245 95.4932z"/>
    <path fill="#FFCA28" d="M68.4514 87.5512C68.4514 87.5512 70.1228 85.8639 71.9694 86.3488 73.8159 86.8337 76.3851 89.9932 74.9545 92.7593 73.524 95.5279 69.7019 97.3266 69.7019 97.3266M26.5671 97.6137C26.5671 97.6137 24.1634 96.8912 22.7548 99.494 21.3462 102.097 24.0321 104.994 26.3603 105.699 28.0707 106.216 31.2188 105.278 31.2188 105.278L26.5671 97.6137z"/>
    <path fill="#F68627" d="M49.3244,97.3092 C47.7333,97.2449 44.5195,97.376 43.3979,98.67 C42.2764,99.964 43.3979,101.196 45.3977,101.208 C47.3976,101.221 50.3681,100.929 51.2464,99.6894 C52.1247,98.4523 50.6163,97.3612 49.3244,97.3092 Z" opacity=".5"/>
    <path fill="#00ADA8" d="M28.039 95.2755C27.9976 95.1865 27.0317 93.034 26.6765 89.4984 26.3213 85.9802 27.1826 83.6273 27.2191 83.5283L27.674 83.704C27.6643 83.7262 26.8201 86.0544 27.1607 89.4465 27.5086 92.9004 28.472 95.0454 28.4817 95.0652L28.039 95.2755zM24.297 87.0268C24.2921 86.8709 24.2094 83.182 25.8443 79.7083L26.2822 79.921C24.7008 83.2859 24.7811 86.9773 24.7835 87.0144L24.297 87.0268zM49.9689 69.3661L49.8618 68.8837C49.9105 68.8713 54.9076 67.753 59.3257 68.1761L59.2795 68.6685C54.9417 68.2553 50.0175 69.3537 49.9689 69.3661zM54.7764 71.1873L54.718 70.6949C54.8713 70.6751 58.489 70.2397 60.1798 70.7023L60.0533 71.1798C58.45 70.7444 54.8129 71.1823 54.7764 71.1873z"/>
    <path fill="#F68627" d="M49.6405,121.882 C49.6186,121.882 49.5967,121.88 49.5773,121.878 C44.259,121.165 40.218,117.998 40.0477,117.862 C39.836,117.694 39.7971,117.382 39.9625,117.167 C40.1279,116.952 40.4321,116.912 40.6462,117.08 C40.6851,117.112 44.6555,120.217 49.7038,120.895 C49.9714,120.93 50.1587,121.18 50.1222,121.449 C50.0882,121.702 49.8814,121.882 49.6405,121.882 Z" opacity=".5"/>
    <path fill="#1F4847" d="M50.4906,51.3954 C50.261,51.3954 50.0422,51.2582 49.9511,51.0283 L44.2601,36.8691 C44.1398,36.5651 44.2819,36.2203 44.5772,36.0979 C44.8762,35.9756 45.2152,36.1202 45.3356,36.4205 L51.0266,50.5797 C51.1469,50.8838 51.0047,51.2286 50.7094,51.3509 C50.6401,51.3843 50.5636,51.3954 50.4906,51.3954 Z"/>
    <path fill="#1F4847" d="M47.9896,44.1729 C47.7599,44.1729 47.5411,44.0358 47.45,43.8059 C47.3297,43.5019 47.4719,43.1571 47.7672,43.0347 L50.1551,42.0411 C50.4505,41.9187 50.7932,42.0633 50.9135,42.3636 C51.0338,42.6676 50.8916,43.0125 50.5963,43.1348 L48.2083,44.1285 C48.1391,44.1581 48.0661,44.1729 47.9896,44.1729 Z"/>
    <path fill="#1F4847" d="M53.4255 50.7575C53.1921 50.7575 52.9697 50.6129 52.8822 50.3757L47.3516 35.5676C47.2386 35.2599 47.3881 34.9188 47.6907 34.8039 47.9896 34.6852 48.3287 34.8409 48.4417 35.1487L53.9723 49.9567C54.0853 50.2644 53.9359 50.6055 53.6333 50.7205 53.564 50.7427 53.4947 50.7575 53.4255 50.7575zM57.228 49.2781C57.1405 49.2781 57.0494 49.2559 56.9692 49.2151 56.827 49.1447 56.7213 49.0149 56.6739 48.8629L52.0656 34.0993C51.9745 33.8064 52.1203 33.4876 52.4011 33.3726L55.7588 31.9749C56.0577 31.8525 56.3968 31.9971 56.5171 32.2975 56.6374 32.6015 56.4952 32.9463 56.1999 33.0686L53.338 34.2588 57.6035 47.9138 60.7352 46.7681C61.0378 46.6606 61.3732 46.8163 61.479 47.124 61.5883 47.4318 61.4316 47.7729 61.129 47.8804L57.4285 49.2336C57.3593 49.267 57.2936 49.2781 57.228 49.2781z"/>
    <path fill="#1F4847" d="M55.5217 41.7407C55.2629 41.7407 55.0259 41.5628 54.9566 41.2958 54.8764 40.9806 55.0624 40.6544 55.3759 40.5728L57.4576 40.0278C57.7675 39.9425 58.0883 40.1353 58.1685 40.4542 58.2487 40.773 58.0628 41.0956 57.7492 41.1772L55.6675 41.7222C55.6165 41.7333 55.5691 41.7407 55.5217 41.7407zM62.2117 38.063C62.0294 38.063 61.8471 37.974 61.7341 37.8108L57.8951 32.2828C57.7091 32.0158 57.7711 31.6451 58.0336 31.456 58.2961 31.2669 58.6607 31.3299 58.8466 31.5969L62.6856 37.1249C62.8715 37.3919 62.8096 37.7626 62.5471 37.9517 62.445 38.0259 62.3247 38.063 62.2117 38.063z"/>
    <path fill="#1F4847" d="M64.7927 46.6385C64.5411 46.6385 64.3078 46.4716 64.2349 46.2121L61.8104 37.7699C61.7995 37.7328 61.7922 37.6957 61.7886 37.6587L61.1287 30.6105C61.0995 30.2843 61.3328 29.9951 61.6537 29.9654 61.9745 29.9357 62.2589 30.173 62.288 30.4993L62.9443 37.4918 65.3541 45.8821C65.4452 46.1973 65.2666 46.5235 64.9567 46.6162 64.902 46.631 64.8473 46.6385 64.7927 46.6385zM120.428 107.359C120.359 107.359 120.291 107.339 120.23 107.3 120.06 107.188 120.011 106.958 120.121 106.788 122.325 103.314 122.766 96.317 122.77 96.2453 122.783 96.0399 122.955 95.8866 123.157 95.8964 123.359 95.9088 123.512 96.0845 123.5 96.2898 123.483 96.5843 123.043 103.551 120.736 107.188 120.666 107.3 120.547 107.359 120.428 107.359zM124.921 102C124.894 102 124.868 101.998 124.841 101.99 124.644 101.946 124.522 101.745 124.566 101.545 125.408 97.7941 125.785 92.0566 125.787 91.9997 125.8 91.7943 125.975 91.6409 126.174 91.6533 126.376 91.6657 126.527 91.8438 126.515 92.0492 126.51 92.1061 126.13 97.9029 125.276 101.711 125.238 101.884 125.089 102 124.921 102z"/>
  </g>
</svg>
