<svg viewBox="0 0 309 52" fill="none" xmlns="http://www.w3.org/2000/svg">
<path d="M64.495 51.7116C61.3736 51.7116 58.2759 50.8105 56.5376 49.5963C52.7736 46.9669 47.4578 46.6922 43.608 48.9256C39.302 51.422 35.2863 51.2093 30.9656 48.252C27.1661 45.6522 22.9905 45.6552 18.5542 48.258C13.8308 51.0321 8.05596 50.7248 3.8448 47.478C1.67407 45.8029 0.474692 43.5074 0.468769 41.011C0.462846 38.3285 1.85176 35.646 4.18241 33.832C9.47153 29.7137 16.9136 30.2336 21.2284 32.8157C23.2303 34.0122 25.7683 35.1171 30.5865 33.0314C34.7326 31.2381 39.4353 29.2055 44.1914 32.8039C48.8023 36.2929 52.4775 36.8543 56.0993 34.6208C62.0755 30.9368 67.2136 29.6398 72.8699 35.2826C74.6201 37.0286 75.4878 39.4452 75.316 42.0893C75.1206 45.085 73.5984 47.9507 71.25 49.7499C69.4198 51.1532 66.95 51.7116 64.495 51.7116ZM49.439 46.3938C52.1517 46.3938 54.897 47.1885 57.1328 48.7513C60.0232 50.7691 66.9589 51.7352 70.6162 48.9345C72.7337 47.3126 74.1018 44.7305 74.2795 42.0243C74.4335 39.6816 73.6724 37.5485 72.1355 36.0152C66.9441 30.8363 62.3598 31.9796 56.6442 35.5041C52.6581 37.9592 48.5032 37.3654 43.5665 33.6311C39.5982 30.6295 35.8549 31.8821 31.0012 33.9827C25.9845 36.1541 23.0823 35.1319 20.6954 33.705C16.6767 31.3001 9.74694 30.8156 4.81912 34.6503C2.74019 36.2693 1.49935 38.6475 1.50527 41.014C1.50823 42.5472 2.02648 44.7748 4.47855 46.6626C8.35211 49.6494 13.6708 49.9271 18.0271 47.3717C22.8394 44.5473 27.3882 44.5562 31.549 47.4042C35.4996 50.1074 39.1658 50.3083 43.0838 48.0364C44.9821 46.9344 47.2002 46.3938 49.439 46.3938Z" fill="white" fill-opacity="0.8"/>
<path d="M126.278 22.8435C123.033 22.8435 119.784 21.6913 117.255 20.0073C113.171 17.2864 111.939 16.4651 104.423 18.3057C97.4813 20.0044 92.5772 19.9423 89.5831 14.3705C88.4578 12.2788 88.2268 9.91538 88.9316 7.71736C89.5891 5.66706 91.0194 3.9181 92.8555 2.9225C97.6856 0.307921 100.703 1.32421 104.524 2.61229C104.912 2.74228 105.308 2.87818 105.72 3.01113C110.257 4.4942 113.583 3.65221 118.502 1.45715C123.817 -0.915168 127.35 -0.486791 134.932 3.45132C138.263 5.1796 141.059 4.13081 144.017 3.01704C146.526 2.07461 149.12 1.09968 152.167 1.74963C155.626 2.48821 158.069 4.60055 159.047 7.70259C160 10.7278 159.292 14.2021 157.287 16.3469C154.077 19.7828 150.914 19.5406 144.461 18.1668C139.3 17.0678 138.225 16.8403 133.463 20.4919C131.292 22.1551 128.787 22.8435 126.278 22.8435ZM110.562 16.2879C113.355 16.2879 115.028 17.2775 117.832 19.1476C122.008 21.9306 128.265 23.1714 132.829 19.6735C137.801 15.8624 139.146 15.9806 144.678 17.1564C150.864 18.4741 153.669 18.7045 156.529 15.6438C158.288 13.7619 158.904 10.6953 158.057 8.01575C157.196 5.28595 155.028 3.41882 151.951 2.76296C149.203 2.17801 146.754 3.0968 144.384 3.98605C141.34 5.12938 138.195 6.31111 134.455 4.37012C127.137 0.567902 123.942 0.166115 118.928 2.40254C113.766 4.70691 110.257 5.58434 105.4 3.99492C104.986 3.85902 104.586 3.72312 104.195 3.59313C100.336 2.29027 97.7863 1.43056 93.3531 3.83243C90.2791 5.49867 88.3127 9.81493 90.4982 13.883C92.8733 18.2997 96.4507 19.1949 104.177 17.3012C106.967 16.6187 108.951 16.2879 110.562 16.2879Z" fill="white" fill-opacity="0.8"/>
<path d="M180.246 25.4463C178.427 25.4463 176.846 24.6752 175.312 23.9248C173.239 22.9115 171.279 21.9572 168.886 23.0267C164.298 25.0799 160.375 26.0312 156.149 24.0164C152.394 22.2261 150.708 22.6013 147.546 23.5466L147.137 23.6707C143.93 24.6368 141.395 25.399 137.942 22.8022C135.561 21.0118 134.456 16.9378 136.674 13.9569L137.092 14.2642L136.674 13.9569C139.508 10.1458 142.262 10.4176 147.865 11.9421C152.447 13.1888 153.765 12.3143 156.16 10.7308C156.504 10.5033 156.868 10.264 157.262 10.0159C159.975 8.30825 163.605 6.76905 167.672 10.0513C171.122 12.8372 172.303 13.239 176.112 12.9229C176.437 12.8963 176.754 12.8668 177.062 12.8402C180.566 12.5329 183.098 12.3084 185.485 14.5035C186.912 15.8152 187.421 18.2495 186.758 20.5598C186.026 23.1005 184.087 24.8406 181.433 25.337C181.025 25.4108 180.631 25.4463 180.246 25.4463ZM171.012 21.517C172.736 21.517 174.267 22.2645 175.765 22.9971C177.551 23.8687 179.239 24.6929 181.238 24.3207C183.492 23.8982 185.138 22.424 185.757 20.2733C186.308 18.3589 185.905 16.2967 184.78 15.2627C182.727 13.3779 180.509 13.5729 177.148 13.8683C176.837 13.8949 176.52 13.9244 176.192 13.951C172.12 14.2878 170.66 13.7974 167.011 10.8519C164.201 8.58301 161.447 8.59187 157.807 10.8874C157.422 11.1296 157.064 11.366 156.726 11.5905C154.253 13.2272 152.622 14.3085 147.587 12.9377C142.233 11.4812 139.976 11.2448 137.5 14.5714C135.644 17.0678 136.568 20.4771 138.561 21.9749C141.593 24.2586 143.791 23.5969 146.832 22.681L147.244 22.5569C150.765 21.5023 152.716 21.2334 156.593 23.0828C159.945 24.6841 163.271 24.4004 168.459 22.0813C169.363 21.6795 170.209 21.517 171.012 21.517Z" fill="white" fill-opacity="0.8"/>
<path d="M301.843 49.6639C300.146 49.6639 298.674 48.946 297.241 48.2458C295.322 47.3093 293.509 46.423 291.297 47.4127C287.024 49.3242 283.369 50.2134 279.428 48.3315C275.951 46.6741 274.387 47.0198 271.458 47.8972L271.076 48.0124C268.204 48.8781 265.722 49.6255 262.497 47.2C260.273 45.5249 259.236 41.7138 261.312 38.9279C263.96 35.368 266.527 35.6191 271.751 37.0431C275.992 38.1982 277.215 37.3887 279.43 35.9204C279.75 35.7077 280.088 35.4861 280.455 35.2557C282.987 33.6604 286.378 32.2246 290.175 35.2911C293.37 37.8732 294.469 38.2455 297.993 37.953C298.295 37.9264 298.591 37.9028 298.878 37.8762C302.145 37.5896 304.505 37.3798 306.735 39.4301C308.07 40.6562 308.55 42.934 307.928 45.0965C307.244 47.4718 305.429 49.0996 302.95 49.5635C302.571 49.6314 302.201 49.6639 301.843 49.6639ZM293.263 45.9385C294.871 45.9385 296.302 46.6357 297.697 47.3182C299.352 48.1277 300.916 48.8899 302.761 48.5442C304.843 48.1543 306.362 46.7953 306.933 44.81C307.443 43.0433 307.072 41.1437 306.033 40.1894C304.138 38.4493 302.082 38.6295 298.967 38.9043C298.68 38.9309 298.384 38.9545 298.079 38.9811C294.279 39.2972 292.92 38.8393 289.52 36.0947C286.923 33.9971 284.376 34.009 281.006 36.1302C280.648 36.3576 280.316 36.5763 280.002 36.7831C277.695 38.3105 276.173 39.3179 271.476 38.0416C266.516 36.6915 264.428 36.4729 262.142 39.5454C260.43 41.8468 261.283 44.9931 263.119 46.3758C265.923 48.4851 267.958 47.8736 270.771 47.0257L271.153 46.9105C274.438 45.9267 276.253 45.6756 279.869 47.4009C282.975 48.881 286.058 48.621 290.865 46.4703C291.72 46.0892 292.511 45.9385 293.263 45.9385Z" fill="white" fill-opacity="0.8"/>
<path d="M206.634 40.8042C207.135 40.5856 208.168 40.2547 208.906 40.0272C208.858 39.6432 208.79 39.2355 208.53 38.7834C207.461 36.934 204.387 35.8734 204.387 35.8734C204.387 35.8734 204.387 35.8734 207.073 35.4185C209.066 35.0817 210.446 35.6075 211.956 36.6741C212.572 36.0093 213.76 34.7212 214.888 33.4952C215.889 32.4051 217.82 32.2337 219.256 32.4405C222.395 32.8896 226.701 34.0477 227.353 34.2426C228.303 34.5263 227.821 35.4805 227.122 35.4391C226.42 35.3978 221.998 35.058 220.997 35.2648C219.996 35.4716 218.756 37.0227 218.178 38.3757C217.728 39.4334 217.343 40.6329 217.139 41.076C217.192 41.079 217.245 41.0878 217.299 41.1026L221.761 42.37C222.161 42.4823 222.392 42.9018 222.28 43.2977C222.167 43.6965 221.747 43.9269 221.35 43.8147L218.154 42.9077L218.148 42.9225L221.22 44.6921C221.578 44.8989 221.702 45.3598 221.495 45.7172C221.288 46.0747 220.826 46.1988 220.467 45.992L217.153 44.0835L218.975 46.3288C219.235 46.6508 219.185 47.1265 218.862 47.3864C218.539 47.6464 218.063 47.5962 217.802 47.2742L214.882 43.6758C214.852 43.6374 214.826 43.596 214.802 43.5547C214.627 43.5222 214.462 43.4897 214.305 43.4572C213.49 43.6758 212.347 43.986 211.941 44.1249C210.748 44.5267 209.779 44.89 208.876 46.7808C208.34 47.9005 207.89 48.8045 207.446 51.1355C207.212 52.3645 206.214 52.1902 205.968 51.0793C205.678 49.7735 205.323 46.4706 205.124 44.4735C204.967 42.8811 205.228 41.4217 206.634 40.8042Z" fill="#1E4847"/>
</svg>
