<svg xmlns="http://www.w3.org/2000/svg" width="238" height="153" viewBox="0 0 238 153">
  <g fill="none">
    <path fill="#1E4847" d="M126.878 11.0977C126.692 11.0977 126.515 10.9794 126.447 10.7897 125.292 7.5417 126.334 3.95774 129.04 1.87955 129.241 1.72399 129.529 1.76444 129.682 1.96977 129.834 2.1751 129.795 2.46754 129.593 2.62309 127.208 4.45551 126.291 7.61014 127.309 10.4723 127.395 10.715 127.273 10.9825 127.034 11.0697 126.982 11.0883 126.93 11.0977 126.878 11.0977zM129.584 8.25708C129.33 8.25708 129.125 8.04865 129.125 7.79044 129.125 5.01857 131.341 2.76001 134.068 2.76001 134.322 2.76001 134.527 2.96844 134.527 3.22665 134.527 3.48486 134.322 3.6933 134.068 3.6933 131.849 3.6933 130.042 5.53188 130.042 7.79044 130.042 8.04553 129.837 8.25708 129.584 8.25708zM66.7847 79.6064C66.5891 79.6064 66.4087 79.4789 66.3476 79.2798 66.2712 79.034 66.4057 78.7727 66.6472 78.6949 69.4993 77.7865 71.4069 75.1296 71.3946 72.087 71.3946 71.8287 71.5994 71.6203 71.8501 71.6172 72.1008 71.6296 72.3087 71.8256 72.3117513 72.0807 72.3239 75.5372 70.1596 78.5518 66.9223 79.5847 66.8765 79.6002 66.8306 79.6064 66.7847 79.6064zM66.956 76.7502C66.8184 76.7502 66.6808 76.688 66.5922 76.5667 66.4393 76.3614 66.476 76.0689 66.6778 75.9134 69.0501 74.0654 69.9458 70.9047 68.9094 68.0488 68.8208 67.8061 68.943 67.5386 69.1815 67.4483 69.4199 67.3581 69.6829 67.4826 69.7715 67.7252 70.9485 70.9669 69.9305 74.5539 67.2372 76.6538 67.1485 76.7191 67.0507 76.7502 66.956 76.7502z"/>
    <path fill="#FFC927" d="M168.284,133.617 C168.284,133.617 170.836,134.917 173.875,136.75 C176.675,138.439 175.177,140.287 172.563,140.377 C169.95,140.467 162.971,139.503 162.971,139.503 L153.708,138.759 L154.571,132.484 L167.62,133.225 L168.284,133.617 Z"/>
    <path fill="#FF862C" d="M173.722,13.0854 C179.356,10.6867 186.292,16.3427 188.481,21.1462 C190.431,25.4239 188.894,31.9789 185.384,35.4446 C181.74,39.041 176.131,39.2339 176.131,39.2339 C176.131,39.2339 172.172,34.0664 169.629,32.0878 C167.562,30.5042 164.903,29.7451 164.903,29.7451 C162.277,21.1897 168.088,15.4809 173.722,13.0854 Z"/>
    <path fill="#960C20" d="M150.985,98.2603 C150.493,96.9537 150.126,95.6253 149.609,94.4088 C147.497,89.4218 144.734,85.7912 144.734,85.7912 L128.327,69.6885 L153.813,72.5724 C153.813,72.5724 161.192,81.3767 164.708,90.2214 C167.651,97.6319 168.33,133.614 168.33,133.614 L153.155,132.354 C153.152,132.357 154.149,106.635 150.985,98.2603 Z"/>
    <path fill="#FF862C" d="M187.234,32.3335 L189.627,33.9979 C190.327,34.4864 190.508,35.4695 190.025,36.1819 C189.545,36.8944 188.579,37.0779 187.879,36.5864 L185.485,34.9219"/>
    <path fill="#1E4847" d="M184.96,29.8758 C185.516,29.8042 185.907,29.2878 185.84,28.7215 C185.77,28.1553 185.262,27.7571 184.706,27.8286 C184.149,27.9002 183.758,28.4166 183.825,28.9829 C183.896,29.546 184.403,29.9473 184.96,29.8758 Z"/>
    <path fill="#576194" d="M187.222,22.4064 C188.163,21.7064 188.579,21.0157 188.579,21.0157 C188.579,21.0157 188.924,12.7683 180.13,9.71319 C174.838,7.87455 170.928,9.9403 167.972,6.13857 C163.842,0.827973 159.703,-1.26266 156.668,0.759532 C153.947,2.57018 155.659,6.5119 156.573,7.63189 C157.487,8.75187 157.291,8.97898 156.108,8.62743 C154.925,8.27588 151.957,6.32213 145.596,5.77147 C139.234,5.22081 133.732,8.26033 134.71,12.0589 C135.688,15.8576 140.567,18.0073 140.567,18.0073 C140.567,18.0073 131.827,17.97 130.552,21.8464 C129.119,26.2081 134.034,27.5179 140.491,26.7059 C146.592,25.9374 150.554,26.4943 160.911,29.512 C163.916,30.3863 170.173,29.6334 173.346,27.801 C173.346,27.801 173.75,25.141 174.487,24.4566 C177.201,21.9304 179.185,24.0615 179.185,24.0615 C181.542,25.449 185.348,23.8001 187.222,22.4064 Z"/>
    <path fill="#00ADA8" d="M167.673,145.448 C167.648,145.448 167.624,145.445 167.599,145.442 L156.068,143.796 C155.787,143.756 155.585,143.498 155.61,143.211 L155.955,139.046 C155.968,138.896 156.038,138.76 156.154,138.669 C156.267,138.576 156.414,138.536 156.558,138.554 L168.195,140.094 C168.483,140.132 168.691,140.399 168.657,140.692 L168.205,144.96 C168.189,145.106 168.116,145.24 168.003,145.33 C167.905,145.408 167.789,145.448 167.673,145.448 Z M156.717,142.791 L167.199,144.285 L167.538,141.105 L156.973,139.708 L156.717,142.791 Z"/>
    <path fill="#FFF" d="M145.42414,126.126 C145.47,140.319 134.202,151.864 120.256,151.913144 C106.311,151.96 94.9665,140.493 94.9174609,126.3 C94.8718,112.108 106.14,100.562 120.085,100.512837 C134.034,100.463 145.378,111.933 145.42414,126.126 Z M141.450126,126.138 C141.49,138.097 131.995,147.826 120.241,147.866124 C108.49,147.906 98.9314,138.243 98.891476,126.285 C98.8519,114.326 108.347,104.597 120.101,104.556876 C131.851,104.517 141.41,114.179 141.450126,126.138 Z M107.292,116.273 C110.022,112.615 114.222,110.154 119.003,109.805 L107.292,116.273 Z M226.86,132.485 C224.965,136.654 221.379,139.973 216.785,141.358 L226.86,132.485 Z M237.46514,125.812 C237.511,140.004 226.243,151.549 212.297,151.599144 C198.352,151.646 187.007,140.179 186.957866,125.986 C186.913,111.793 198.18,100.248 212.126,100.197844 C226.075,100.149 237.416,111.619 237.46514,125.812 Z M233.491126,125.824 C233.531,137.783 224.036,147.511 212.282,147.552124 C200.531,147.592 190.972,137.929 190.93188,125.97 C190.893,114.011 200.387,104.283 212.141,104.24287 C223.892,104.202 233.451,113.865 233.491126,125.824 Z"/>
    <path fill="#00ADA8" d="M120.168,152.458 C113.311,152.458 106.864,149.751 101.998,144.833 C97.1098,139.892 94.4074,133.309 94.382845,126.3 C94.3341,111.828 105.865,100.015 120.086,99.9682 C120.116,99.9682 120.147,99.9682 120.174,99.9682 C127.031,99.9682 133.478,102.675 138.345,107.593 C143.233,112.534 145.935,119.117 145.959156,126.126 C146.008,140.598 134.478,152.411 120.257,152.458 C120.229,152.458 120.199,152.458 120.168,152.458 Z M120.174,101.057 C120.147,101.057 120.116,101.057 120.089,101.057 C106.458,101.104 95.407,112.425 95.4527575,126.297 C95.4743,133.017 98.0666,139.326 102.75,144.061 C107.415,148.777 113.596,151.369 120.168,151.369 C120.196,151.369 120.226,151.369 120.254,151.369 C133.884,151.322 144.935,140.001 144.889143,126.129 C144.868,119.409 142.276,113.1 137.589,108.365 C132.928,103.649 126.744,101.057 120.174,101.057 Z M212.209,152.144 C205.352,152.144 198.905,149.437 194.039,144.518 C189.151,139.578 186.448,132.995 186.423826,125.986 C186.399,118.977 189.062,112.375 193.916,107.404 C198.771,102.429 205.239,99.6789 212.126,99.6538299 C219.007,99.6291 225.5,102.339 230.385,107.279 C235.273,112.219 237.976,118.802 238.000156,125.812 C238.049,140.284 226.518,152.097 212.298,152.144 C212.267,152.144 212.236,152.144 212.209,152.144 Z M212.215,100.743 C212.187,100.743 212.157,100.743 212.129,100.743 C205.526,100.765 199.327,103.403 194.674,108.172 C190.022,112.938 187.472,119.266 187.493859,125.986 C187.515,132.706 190.107,139.015 194.794,143.75 C199.458,148.466 205.64,151.058 212.212,151.058 C212.239,151.058 212.27,151.058 212.298,151.058 C225.928,151.011 236.979,139.69 236.933143,125.818 C236.912,119.098 234.32,112.789 229.633,108.054 C224.968,103.334 218.784,100.743 212.215,100.743 Z M120.168,148.41 C114.369,148.41 108.912,146.121 104.798,141.961 C100.665,137.783 98.3753,132.214 98.3568786,126.285 C98.3172,114.043 108.069,104.05 120.098,104.009 C120.122,104.009 120.147,104.009 120.171,104.009 C132.166,104.009 141.943,113.918 141.985119,126.135 C142.004,132.065 139.754,137.646 135.648,141.855 C131.543,146.061 126.071,148.392 120.244,148.41 C120.22,148.41 120.193,148.41 120.168,148.41 Z M120.171,105.101 C120.147,105.101 120.125,105.101 120.101,105.101 C108.662,105.142 99.3871,114.643 99.4267724,126.285 C99.4452,131.925 101.622,137.217 105.553,141.193 C109.466,145.15 114.656,147.325 120.168,147.325 C120.193,147.325 120.217,147.325 120.241,147.325 C125.784,147.306 130.983,145.091 134.89,141.09 C138.794,137.089 140.937,131.782 140.915168,126.141 C140.876,114.525 131.577,105.101 120.171,105.101 Z M212.209,148.099 C200.214,148.099 190.437,138.191 190.397877,125.973 C190.358,113.731 200.11,103.739 212.139,103.698 C212.163,103.698 212.187,103.698 212.212,103.698 C224.207,103.698 233.986,113.607 234.026107,125.824 C234.044,131.754 231.795,137.335 227.689,141.544 C223.584,145.75 218.112,148.081 212.285,148.099 C212.261,148.099 212.233,148.099 212.209,148.099 Z M212.212,104.787 C212.187,104.787 212.166,104.787 212.142,104.787 C200.703,104.825 191.428,114.329 191.467871,125.97 C191.507,137.587 200.803,147.01 212.209,147.01 C212.233,147.01 212.255,147.01 212.279,147.01 C217.821,146.992 223.021,144.777 226.928,140.776 C230.832,136.775 232.975,131.468 232.953168,125.827 C232.916,114.211 223.617,104.787 212.212,104.787 Z M216.782,141.899 C216.55,141.899 216.339,141.746 216.268,141.51 C216.186,141.221 216.348,140.919 216.629,140.835 C220.93,139.541 224.482,136.414 226.372,132.258 C226.497,131.984 226.812,131.866 227.081,131.993 C227.35,132.121 227.466,132.444 227.341,132.715 C225.32,137.158 221.526,140.499 216.929,141.88 C216.883,141.893 216.834,141.899 216.782,141.899 Z M107.292,116.818 C107.179,116.818 107.066,116.78 106.968,116.706 C106.733,116.525 106.687,116.183 106.864,115.943 C109.775,112.045 114.183,109.609 118.964,109.261 C119.257,109.233 119.514,109.466 119.535,109.765 C119.557,110.064 119.334,110.325 119.04,110.347 C114.568,110.673 110.441,112.951 107.717,116.6 C107.613,116.743 107.454,116.818 107.292,116.818 Z"/>
    <path fill="#00ADA8" d="M162.133,130.067 C162.094,130.067 162.057,130.067 162.017,130.064 L119.499,127.211 C118.872,127.168 118.322,126.776 118.068,126.191 C117.814,125.606 117.903,124.928 118.294,124.43 L142.129,94.1129 L138.008,86.3165 C137.568,85.4828 137.874,84.4437 138.693,83.9957 C139.512,83.5477 140.533,83.8588 140.973,84.6926 L145.268,92.8186 L172.909,91.9227 C173.123,91.9133 173.328,91.9507 173.517,92.016 C173.719,91.9227 173.942,91.8667 174.178,91.8636 L192.229,91.456 C189.355,82.4557 187.711,76.1029 187.689,76.0096 C187.454,75.0949 187.992,74.1585 188.891,73.919 C189.062,73.8723 189.236,73.8536 189.407,73.8661 C190.349,73.8287 196.478,73.5861 198.48,73.4647 C198.682,73.4523 198.874,73.4772 199.058,73.5332 C199.229,73.4647 199.416,73.4212 199.611,73.4119 C200.195,73.387 207.137,73.1816 207.678,73.1816 C207.694,73.1816 207.706,73.1816 207.721,73.1816 C212.105,73.1816 215.266,75.5212 215.978,79.2949 C216.773,83.473 214.829,87.0227 211.136,88.1272 C207.305,89.2752 205.523,89.1849 205.331,89.1694 C204.404,89.1009 203.704,88.2796 203.772,87.337 C203.839,86.3912 204.643,85.6819 205.572,85.7503 C205.569,85.7503 205.578,85.7503 205.594,85.7503 C205.786,85.7503 207.226,85.7223 210.182,84.8388 C212.566,84.1264 213.031,81.8428 212.667,79.942 C212.096,76.918 208.993,76.5976 207.685,76.6069 C207.275,76.6069 200.452,76.806 199.749,76.834 C199.556,76.8403 199.373,76.8185 199.199,76.7656 C199.036,76.8309 198.859,76.8745 198.676,76.8838 C197.224,76.9709 193.757,77.1171 191.498,77.2105 C192.684,81.5255 195.708,92.0689 200.036,103.86 C205.211,117.953 213.144,124.187 213.224,124.25 C213.963,124.822 214.11,125.895 213.548,126.651 C212.985,127.404 211.931,127.554 211.188,126.981 C210.83,126.707 202.39,120.075 196.878,105.061 C195.766,102.027 194.735,99.0781 193.803,96.2906 L179.035,112.288 C178.928,112.406 178.806,112.502 178.677,112.583 C178.65,112.617 178.622,112.652 178.592,112.683 L163.436,129.439 C163.298,129.61 163.127,129.756 162.925,129.868 C162.678,130.002 162.402,130.067 162.133,130.067 Z M122.941,124.007 L159.211,126.44 L143.862,97.3919 L122.941,124.007 Z M147.051,96.1879 L162.494,125.419 L176.119,110.356 C176.229,110.231 176.354,110.129 176.489,110.048 C176.519,110.01 176.55,109.97 176.583,109.933 L190.443,94.9217 L174.251,95.2888 C174.043,95.2982 173.844,95.2608 173.658,95.1924 C173.462,95.2826 173.242,95.3386 173.013,95.3448 L147.051,96.1879 Z"/>
    <path fill="#00ADA8" d="M119 130.671C116.261 130.671 114.027 128.406 114.017987 125.615 114.015 124.262 114.528 122.986 115.467 122.025 116.405 121.064 117.655 120.532 118.985 120.529 118.991 120.529 118.997 120.529 119.003 120.529 121.742 120.529 123.977 122.794 123.986013 125.584 123.989 126.937 123.476 128.213 122.537 129.174 121.599 130.136 120.348 130.668 119.019 130.671 119.01 130.671 119.003 130.671 119 130.671zM119.013 129.376L119.016 130.024 119.013 129.376C120.003 129.373 120.935 128.978 121.632 128.263 122.332 127.547 122.715 126.598 122.711031 125.587 122.705 123.509 121.042 121.823 119 121.823 118.997 121.823 118.991 121.823 118.988 121.823 117.998 121.826 117.065 122.221 116.368 122.937 115.668 123.652 115.286 124.601 115.288982 125.612 115.295 127.69 116.961 129.376 119 129.376 119.003 129.376 119.006 129.376 119.013 129.376zM161.592 139.13C156.221 139.13 151.761 134.778 151.578 129.274 151.486 126.552 152.443 123.954 154.271 121.963 156.099 119.972 158.578 118.824 161.256 118.734 163.934 118.644 166.483 119.614 168.44 121.475 170.396 123.335 171.524 125.858 171.613 128.583 171.799 134.205 167.459 138.934 161.935 139.124 161.822 139.127 161.705 139.13 161.592 139.13zM161.605 120.022C161.504 120.022 161.403 120.025 161.299 120.028 158.963 120.109 156.796 121.111 155.2 122.85 153.605 124.589 152.77 126.854 152.849 129.234 153.012 134.143 157.071 137.994 161.892 137.833 166.716 137.665 170.506 133.536 170.341 128.63 170.262 126.253 169.277 124.047 167.569 122.424 165.936 120.868 163.827 120.022 161.605 120.022zM170.83 116.201C170.812 116.201 170.791 116.201 170.772 116.198L159.403 114.951C159.26 114.935 159.128 114.86 159.04 114.745 158.951 114.63 158.911 114.484 158.93 114.338L159.339 111.124C159.376 110.825 159.645 110.614 159.938 110.654L171.466 112.157C171.613 112.176 171.744 112.257 171.833 112.378 171.922 112.499 171.952 112.652 171.925 112.801L171.356 115.756C171.307 116.021 171.084 116.201 170.83 116.201zM160.064 113.93L170.399 115.063 170.763 113.168 160.333 111.805 160.064 113.93z"/>
    <path fill="#D3D9E5" d="M149.988,61.5714 C149.988,61.5714 150.178,59.6892 155.491,54.5311 C160.804,49.373 165.524,49.6374 168.837,52.9849 C172.426,56.6124 175.832,59.1914 178.225,61.4749 C180.209,63.3509 193.415,74.6782 193.415,74.6782 L199.682,69.9681 L186.907,57.0541 C186.607,56.7493 185.06,54.7488 184.859,54.3693 C183.199,51.2583 176.379,37.9025 172.347,34.0822 C167.844,29.8138 162.821,27.9036 154.971,29.6427 C146.852,31.4409 135.841,36.1323 129.146,47.5063 C123.858,56.491 123.625,64.5144 126.169,69.6477 L149.988,61.5714 Z"/>
    <path fill="#00ADA8" d="M18.5221 104.606C18.2562 104.606 18.0269 104.404 17.9933 104.13L14.1416 73.3529C14.1232 73.2066 14.163 73.0604 14.2547 72.9453 14.3464 72.8302 14.4778 72.7586 14.6215 72.7431L29.0533 71.312C29.3468 71.2871 29.6096 71.5018 29.6371 71.8004 29.6647 72.0991 29.4507 72.3667 29.1572 72.3947L15.2726 73.7729 19.054 103.997C19.0907 104.295 18.8829 104.566 18.5924 104.606 18.568 104.606 18.5466 104.606 18.5221 104.606zM34.082 50.2117C33.9566 50.2117 33.8282 50.165 33.7274 50.0748L28.1576 45.0195C27.9375 44.8204 27.9192 44.4751 28.1148 44.2511 28.3105 44.0271 28.6498 44.0085 28.8699 44.2076L34.4397 49.2628C34.6597 49.4619 34.6781 49.8072 34.4825 50.0312 34.3785 50.1494 34.2318 50.2117 34.082 50.2117z"/>
    <path fill="#00ADA8" d="M20.1392 79.5591C20.0017 79.5591 19.8641 79.5062 19.7602 79.3973L14.6062 74.1212C14.3983 73.9065 14.3983 73.5643 14.6093 73.3497 14.8202 73.1381 15.1564 73.1381 15.3643 73.3528L20.5183 78.6289C20.7262 78.8436 20.7262 79.1858 20.5152 79.4004 20.4113 79.5062 20.2768 79.5591 20.1392 79.5591zM10.7577 136.921C10.666 136.921 10.5743 136.896 10.4887 136.846 10.4887 136.843 10.4887 136.846 10.4887 136.846 10.4826 136.843 10.4765 136.84 10.4704 136.834L.25416 130.239C.211363 130.214.174666 130.183.144097 130.148.0921293 130.092.0523879 130.024.0279325 129.952.00347711 129.875-.00568022 129.794.00349054 129.71.00654746 129.679.0126606 129.647.0218313 129.616.226645 128.661 2.25949 109.643 3.58313 97.0467 3.5923 96.9471 3.62898 96.8507 3.69012 96.7698 3.69929 96.7573 3.71155 96.7449 3.72072 96.7324 3.72072 96.7293 3.72072 96.7324 3.72072 96.7324 3.78491 96.6609 3.86439 96.6142 3.94693 96.5862 3.99278 96.5707 4.04475 96.5613 4.09671 96.5613 4.10283 96.5613 4.10892 96.5613 4.11504 96.5613L17.2384 96.5582C17.5349 96.5582 17.7734 96.8009 17.7734 97.1026 17.7734 97.4044 17.5349 97.6471 17.2384 97.6471L5.49371 97.6502 12.7508 104.364 74.9776 105.493 69.1113 96.2129 61.8328 96.3747C61.5393 96.3716 61.2917 96.1413 61.2856 95.8427 61.2795 95.5409 61.5148 95.292 61.8083 95.2858L69.3864 95.1178C69.576 95.1085 69.7472 95.208 69.848 95.3667L76.3929 105.717C76.4724 105.82 76.5121 105.944 76.506 106.075L75.7815 124.692 114.265 125.36C114.562 125.367 114.797 125.612 114.791112 125.914 114.785 126.216 114.543 126.452 114.247 126.449L75.7387 125.78 75.326 136.408C75.3138 136.7 75.0784 136.93 74.7911 136.93L10.7638 136.93C10.7638 136.921 10.7608 136.921 10.7577 136.921zM11.3263 135.832L74.2806 135.832 75.4177 106.582 13.0474 105.45 11.3263 135.832zM1.11009 129.504L10.2747 135.422 11.9897 105.126 4.52771 98.2226C3.54338 107.621 1.56863 126.297 1.11009 129.504z"/>
    <path fill="#00ADA8" d="M42.9898 152.476C42.4151 152.476 41.8373 152.445 41.2534 152.386 36.7812 151.916 32.7583 149.704 29.9215 146.154 27.0846 142.605 25.7763 138.143 26.2348 133.592 26.6933 129.04 28.8699 124.943 32.3547 122.056 35.8427 119.169 40.2263 117.838 44.6955 118.304 53.9274 119.272 60.6649 127.7 59.7141 137.095 58.8276 145.902 51.5002 152.476 42.9898 152.476zM42.947 119.306C39.3398 119.306 35.8702 120.557 33.0334 122.905 29.7686 125.609 27.7327 129.445 27.3017 133.707 26.8706 137.969 28.0965 142.147 30.7529 145.47 33.4094 148.792 37.1786 150.864 41.3665 151.303 50.0115 152.205 57.7669 145.787 58.6565 136.989 59.546 128.191 53.2366 120.298 44.5916 119.393 44.0413 119.334 43.4911 119.306 42.947 119.306zM43.002 148.727C42.5465 148.727 42.091 148.702 41.6325 148.655 34.4212 147.9 29.1603 141.317 29.9031 133.981 30.2638 130.425 31.9604 127.227 34.6841 124.971 37.4078 122.716 40.8316 121.677 44.3256 122.041 47.8197 122.408 50.9622 124.134 53.1785 126.906 55.3947 129.678 56.4158 133.163 56.0581 136.715 55.6974 140.271 54.0008 143.469 51.2771 145.725 48.9049 147.682 46.01 148.727 43.002 148.727zM42.9531 123.058C40.1896 123.058 37.5301 124.016 35.3567 125.814 32.853 127.886 31.294 130.823 30.9639 134.09 30.2822 140.831 35.1152 146.879 41.7395 147.57 44.9493 147.909 48.0918 146.951 50.5954 144.879 53.0959 142.807 54.658 139.87 54.9882 136.603 55.3183 133.337 54.3798 130.139 52.3439 127.591 50.308 125.046 47.4223 123.456 44.2125 123.12 43.7907 123.08 43.3719 123.058 42.9531 123.058zM62.5942 105.935C62.319 105.935 62.0837 105.72 62.0623 105.434L59.6381 75.4314 20.2986 78.9686 24.3704 104.613C24.4162 104.908 24.2206 105.188 23.9271 105.238 23.6367 105.288 23.3616 105.086 23.3127 104.787L19.1492 78.5642C19.1247 78.4149 19.1644 78.2624 19.2561 78.1442 19.3479 78.026 19.4824 77.9482 19.6321 77.9358L60.0783 74.299C60.2189 74.2865 60.3626 74.3301 60.4696 74.4265 60.5796 74.5198 60.6469 74.6536 60.6592 74.7967L63.1261 105.347C63.1505 105.646 62.9304 105.91 62.637 105.935 62.6247 105.935 62.6095 105.935 62.5942 105.935z"/>
    <path fill="#00ADA8" d="M62.6765,75.1106 C62.6703,75.1106 62.6673,75.1106 62.6612,75.1106 L32.8226,74.2115 C32.8104,74.2115 32.8012,74.2115 32.789,74.2115 C32.7156,74.2053 32.6453,74.1835 32.5841,74.1493 L26.8769,71.2311 C26.6874,71.1347 26.5712,70.9324 26.5834,70.7147 L28.0079,44.3297 C28.0232,44.0404 28.2586,43.8164 28.5429,43.8164 C28.546,43.8164 28.5521,43.8164 28.5551,43.8164 L57.333,44.5506 C57.4491,44.5537 57.5622,44.5942 57.6539,44.6688 L65.1679,50.7945 C65.1831,50.807 65.2015,50.8225 65.2167,50.8381 C65.2351,50.8567 65.2504,50.8723 65.2657,50.8941 C65.336,50.9905 65.3788,51.1087 65.3758577,51.2363 C65.3758577,51.2456 65.3758577,51.255 65.3758577,51.2643 C65.3758577,51.2674 65.3758577,51.2705 65.3758577,51.2767 L63.2145,74.6128 C63.1809,74.899 62.9516,75.1106 62.6765,75.1106 Z M33.4034,73.1413 L62.1874,74.0062 L64.2508,51.7403 L34.8891,50.1039 L33.4034,73.1413 Z M27.6686,70.4191 L32.3518,72.8146 L33.8558,49.4972 C33.8742,49.1985 34.1248,48.9652 34.4183,48.9901 L63.1992,50.5954 L57.122,45.6395 L29.0442,44.9208 L27.6686,70.4191 Z"/>
    <path fill="#C82332" d="M126.163,69.6508 C128.706,74.7809 130.684,79.631 140.408,79.2919 C147.509,79.0462 159.868,80.1008 161.834,80.3808 C163.799,80.6608 168.293,81.787 167.183,86.074 C166.074,90.361 159.388,104.949 159.388,104.949 L171.176,106.05 C171.176,106.05 180.09,86.6029 181.199,82.3159 C181.933,79.4724 182.257,71.7352 175.263,68.6304 C168.238,65.5131 149.985,61.5776 149.985,61.5776 L126.163,69.6508 Z"/>
    <path fill="#FFC927" d="M159.391,104.945 L171.179,106.047 C171.179,106.047 178.763,108.878 179.891,110.3 C181.019,111.724 180.744,113.439 177.938,113.448022 C175.131,113.457 156.322,110.667 156.322,110.667 L159.391,104.945 Z"/>
    <path fill="#FF862C" d="M199.682,69.9712 C199.682,69.9712 205.035,72.0774 206.163,74.5009 C207.294,76.9245 206.484,78.4738 204.799,77.7645 C203.115,77.0551 202.934,77.9542 203.078,78.9529 C203.222,79.9516 201.4,80.244 200.694,79.5316 C199.991,78.8191 199.012,79.824 199.012,80.5364 C199.015,81.2489 198.037,82.3969 196.49,81.4013 C194.944,80.4058 193.296,74.2863 193.296,74.2863 L199.682,69.9712 Z"/>
    <path fill="#FFF" d="M145.014,85.29 L130.705,85.3398224 C129.161,85.346 127.896,84.0643 127.889979,82.4932 C127.884,80.9221 129.143,79.6341 130.687,79.6279 L144.996,79.5780776 C146.54,79.5719 147.805,80.8537 147.812021,82.4248 C147.818,83.9958 146.558,85.2869 145.014,85.29 Z"/>
    <path fill="#00ADA8" d="M130.696,85.8841 C129.81,85.8841 128.975,85.5325 128.345,84.8948 C127.709,84.2539 127.357982,83.4015 127.357982,82.4961 C127.352,80.6202 128.847,79.0926 130.687,79.0864 L144.996,79.0366 C144.999,79.0366 145.002,79.0366 145.009,79.0366 C145.895,79.0366 146.73,79.3882 147.362,80.0259 C147.998,80.6668 148.347,81.5193 148.350018,82.4246 C148.356,84.3006 146.861,85.8312 145.021,85.8374 L130.711,85.8872 C130.702,85.8841 130.699,85.8841 130.696,85.8841 Z M145.006,80.1255 C145.002,80.1255 144.999,80.1255 144.999,80.1255 L130.69,80.1753 C129.437,80.1784 128.422,81.2206 128.427974,82.493 C128.431,83.1059 128.669,83.6846 129.1,84.1232 C129.531,84.5588 130.106,84.8014 130.705,84.7983293 L145.015,84.7486 C146.268,84.7454 147.283,83.7032 147.277026,82.4308 C147.274,81.8179 147.035,81.2393 146.604,80.8006 C146.173,80.3619 145.608,80.1255 145.006,80.1255 Z"/>
  </g>
</svg>
