<svg width="774" height="92" viewBox="0 0 774 92" fill="none" xmlns="http://www.w3.org/2000/svg">
<g clip-path="url(#clip0)">
<path d="M192.985 41.7812C186.726 41.7812 180.513 39.9803 177.027 37.5534C169.479 32.2983 158.819 31.7492 151.098 36.2131C142.463 41.2025 134.41 40.7774 125.745 34.8668C118.125 29.6708 109.751 29.6767 100.855 34.8787C91.3823 40.4231 79.8015 39.809 71.3563 33.3198C67.0031 29.9719 64.5979 25.384 64.586 20.3946C64.5741 15.0332 67.3594 9.6718 72.0334 6.04636C82.6403 -2.18469 97.5647 -1.14548 106.218 4.01516C110.232 6.40654 115.322 8.61487 124.985 4.4462C133.299 0.862093 142.73 -3.20029 152.268 3.99155C161.515 10.9649 168.885 12.0868 176.148 7.62289C188.133 0.259821 198.437 -2.33231 209.78 8.94553C213.29 12.4352 215.03 17.2651 214.686 22.5498C214.294 28.5371 211.241 34.2646 206.532 37.8605C202.862 40.6652 197.909 41.7812 192.985 41.7812ZM162.792 31.1528C168.232 31.1528 173.737 32.7412 178.221 35.8647C184.017 39.8976 197.926 41.8284 205.261 36.2308C209.507 32.9892 212.251 27.8285 212.607 22.4199C212.916 17.7375 211.39 13.4744 208.308 10.4099C197.897 0.0590637 188.703 2.34415 177.241 9.38838C169.247 14.2951 160.915 13.1083 151.015 5.64484C143.057 -0.35426 135.55 2.1493 125.816 6.34749C115.756 10.6874 109.935 8.64439 105.149 5.79246C97.0896 0.986091 83.1926 0.017732 73.3102 7.68194C69.1411 10.9177 66.6527 15.6709 66.6646 20.4005C66.6705 23.465 67.7098 27.9171 72.6273 31.6902C80.3954 37.6597 91.0616 38.2148 99.7978 33.1073C109.448 27.4624 118.571 27.4802 126.915 33.1722C134.837 38.575 142.19 38.9765 150.047 34.4358C153.854 32.2334 158.302 31.1528 162.792 31.1528Z" fill="white" fill-opacity="0.8"/>
<path d="M340.952 73.365C334.443 73.365 327.928 71.0622 322.857 67.6966C314.667 62.2584 312.196 60.6169 297.123 64.2955C283.202 67.6907 273.368 67.5667 267.363 56.4306C265.107 52.2501 264.643 47.5264 266.057 43.1333C267.375 39.0355 270.244 35.54 273.926 33.5501C283.612 28.3245 289.664 30.3557 297.325 32.9301C298.103 33.1899 298.899 33.4616 299.724 33.7273C308.823 36.6914 315.492 35.0086 325.357 30.6214C336.017 25.88 343.102 26.7362 358.306 34.6071C364.987 38.0613 370.593 35.9651 376.526 33.7391C381.557 31.8555 386.759 29.907 392.87 31.206C399.807 32.6821 404.707 36.904 406.666 43.1038C408.579 49.1502 407.159 56.094 403.139 60.3808C396.701 67.2478 390.358 66.7637 377.417 64.018C367.066 61.8215 364.91 61.3668 355.36 68.6649C351.007 71.9893 345.983 73.365 340.952 73.365ZM309.435 60.2627C315.035 60.2627 318.39 62.2407 324.015 65.9783C332.389 71.5405 344.937 74.0204 354.089 67.0294C364.061 59.4124 366.757 59.6486 377.851 61.9986C390.257 64.6321 395.881 65.0926 401.618 58.9755C405.146 55.2142 406.381 49.0852 404.683 43.7297C402.955 38.2738 398.607 34.5421 392.437 33.2313C386.925 32.0622 382.014 33.8985 377.263 35.6758C371.158 37.9609 364.851 40.3227 357.35 36.4434C342.675 28.8441 336.267 28.0411 326.212 32.5109C315.861 37.1165 308.823 38.8702 299.083 35.6935C298.252 35.4219 297.45 35.1503 296.666 34.8905C288.928 32.2865 283.814 30.5683 274.924 35.3688C268.759 38.699 264.816 47.3256 269.199 55.4563C273.962 64.2837 281.136 66.0728 296.63 62.2879C302.225 60.924 306.204 60.2627 309.435 60.2627Z" fill="white" fill-opacity="0.8"/>
<path d="M449.177 78.567C445.531 78.567 442.36 77.0259 439.283 75.5261C435.126 73.5008 431.194 71.5936 426.396 73.7311C417.196 77.8348 409.327 79.7361 400.853 75.7092C393.322 72.1309 389.943 72.8808 383.6 74.7703L382.781 75.0183C376.349 76.9491 371.265 78.4725 364.34 73.2824C359.565 69.7041 357.35 61.5617 361.798 55.6039L362.636 56.218L361.798 55.6039C367.482 47.9869 373.005 48.5302 384.241 51.5769C393.429 54.0687 396.072 52.3209 400.876 49.156C401.565 48.7014 402.296 48.2231 403.086 47.7271C408.526 44.3143 415.807 41.2379 423.961 47.798C430.88 53.366 433.249 54.1691 440.887 53.5373C441.54 53.4841 442.176 53.4251 442.793 53.3719C449.819 52.7579 454.897 52.3091 459.683 56.6963C462.546 59.3179 463.567 64.1833 462.237 68.8007C460.77 73.8787 456.88 77.3565 451.559 78.3485C450.739 78.4961 449.95 78.567 449.177 78.567ZM430.66 70.7138C434.116 70.7138 437.187 72.2077 440.192 73.6721C443.773 75.4139 447.158 77.0613 451.167 76.3173C455.687 75.473 458.989 72.5266 460.23 68.228C461.334 64.4018 460.527 60.2804 458.27 58.2137C454.154 54.4466 449.706 54.8363 442.965 55.4268C442.342 55.4799 441.706 55.5389 441.047 55.5921C432.881 56.2652 429.953 55.2851 422.637 49.3981C417 44.8634 411.477 44.8811 404.178 49.469C403.406 49.9532 402.688 50.4255 402.011 50.8743C397.052 54.1455 393.779 56.3065 383.683 53.5668C372.946 50.6558 368.42 50.1835 363.455 56.8321C359.732 61.8215 361.585 68.6354 365.581 71.6291C371.663 76.1933 376.07 74.8707 382.169 73.0403L382.994 72.7923C390.056 70.6843 393.969 70.147 401.743 73.8433C408.466 77.0436 415.136 76.4768 425.541 71.8416C427.352 71.0386 429.051 70.7138 430.66 70.7138Z" fill="white" fill-opacity="0.8"/>
<path d="M689.02 52.2028C685.617 52.2028 682.666 50.768 679.791 49.3686C675.943 47.4968 672.308 45.7254 667.872 47.7035C659.302 51.5238 651.973 53.3011 644.069 49.5398C637.096 46.2273 633.961 46.9182 628.087 48.6718L627.321 48.9021C621.56 50.6322 616.583 52.126 610.116 47.2784C605.656 43.9304 603.577 36.3135 607.74 30.7454C613.05 23.6303 618.199 24.1322 628.675 26.9782C637.179 29.287 639.632 27.6691 644.075 24.7345C644.716 24.3093 645.393 23.8665 646.129 23.4059C651.207 20.2174 658.007 17.3478 665.621 23.4768C672.029 28.6374 674.232 29.3814 681.3 28.7969C681.905 28.7437 682.499 28.6965 683.075 28.6433C689.626 28.0706 694.359 27.6514 698.831 31.7492C701.51 34.1996 702.472 38.7521 701.225 43.0743C699.853 47.8216 696.212 51.075 691.241 52.0021C690.481 52.1379 689.739 52.2028 689.02 52.2028ZM671.815 44.7571C675.04 44.7571 677.909 46.1506 680.706 47.5145C684.026 49.1324 687.161 50.6558 690.861 49.965C695.036 49.1855 698.083 46.4694 699.229 42.5015C700.251 38.9705 699.508 35.1739 697.424 33.2667C693.623 29.7888 689.501 30.149 683.254 30.6982C682.678 30.7513 682.084 30.7985 681.472 30.8517C673.852 31.4835 671.126 30.5683 664.308 25.0829C659.1 20.8906 653.993 20.9142 647.234 25.1537C646.515 25.6084 645.85 26.0453 645.221 26.4586C640.594 29.5113 637.542 31.5248 628.123 28.974C618.175 26.2756 613.988 25.8386 609.403 31.9795C605.971 36.5792 607.681 42.8676 611.363 45.631C616.987 49.8469 621.067 48.6246 626.709 46.93L627.475 46.6997C634.062 44.7335 637.702 44.2316 644.954 47.6799C651.183 50.6381 657.366 50.1185 667.005 45.8199C668.721 45.0582 670.307 44.7571 671.815 44.7571Z" fill="white" fill-opacity="0.8"/>
<path d="M759.48 40.7066C755.59 40.7066 752.211 39.0592 748.921 37.459C744.455 35.2861 740.232 33.2313 735.059 35.5341C725.224 39.9154 716.827 41.9525 707.782 37.6539C699.699 33.81 696.064 34.6189 689.258 36.6442L688.379 36.9099C681.514 38.9706 676.092 40.6003 668.71 35.0618C663.632 31.2474 661.268 22.5794 666.002 16.2378C672.059 8.12485 677.951 8.7035 689.947 11.9569C701.023 14.9624 703.149 13.6221 709.468 9.65414L709.908 9.37663C715.704 5.73347 723.478 2.4505 732.167 9.44748C739.086 15.0155 741.996 14.7735 749.77 14.1239L750.601 14.0531C751.302 13.994 751.985 13.935 752.644 13.876C760.145 13.2205 765.567 12.7423 770.669 17.4128C773.71 20.1998 774.802 25.3782 773.377 30.2967C771.815 35.7054 767.67 39.4135 761.998 40.4645C761.143 40.6357 760.299 40.7066 759.48 40.7066ZM739.656 32.4519C743.344 32.4519 746.622 34.0462 749.829 35.6109C753.678 37.4827 757.306 39.2481 761.624 38.4451C766.494 37.5358 770.051 34.365 771.387 29.7358C772.575 25.6144 771.708 21.1741 769.267 18.9421C764.843 14.8856 760.062 15.3049 752.834 15.9426C752.169 16.0016 751.486 16.0607 750.779 16.1197L749.948 16.1906C742.037 16.8519 738.432 17.153 730.86 11.0594C724.797 6.18222 718.864 6.19994 711.018 11.1303L710.579 11.4078C704.058 15.5056 701.362 17.2003 689.401 13.9586C677.873 10.8351 673.015 10.3273 667.67 17.4778C663.662 22.851 665.657 30.1904 669.963 33.4203C676.502 38.327 681.235 36.904 687.78 34.9378L688.664 34.6721C696.207 32.4224 700.382 31.8496 708.679 35.7939C715.9 39.2245 723.057 38.6282 734.21 33.6565C736.134 32.7944 737.94 32.4519 739.656 32.4519Z" fill="white" fill-opacity="0.8"/>
<path d="M4.50763 69.651C5.51131 69.2141 7.58398 68.5527 9.06277 68.0981C8.96775 67.3305 8.83115 66.5156 8.30853 65.6122C6.16459 61.9159 0 59.7962 0 59.7962C0 59.7962 0 59.7962 5.38659 58.8869C9.38347 58.2137 12.151 59.2648 15.1798 61.3963C16.4151 60.0678 18.7966 57.4934 21.0594 55.0429C23.0667 52.8641 26.9389 52.5217 29.8193 52.935C36.1145 53.8325 44.7497 56.1471 46.0562 56.5368C47.9626 57.1037 46.9946 59.0109 45.593 58.9282C44.1855 58.8455 35.3187 58.1665 33.3113 58.5798C31.304 58.9931 28.8156 62.0931 27.6575 64.7974C26.7548 66.9112 25.9827 69.3085 25.5729 70.1942C25.6798 70.2001 25.7867 70.2178 25.8936 70.2474L34.8436 72.7804C35.6453 73.0048 36.1086 73.8433 35.8829 74.6345C35.6572 75.4316 34.8139 75.8922 34.0181 75.6678L27.61 73.8551L27.5981 73.8846L33.7567 77.4215C34.4754 77.8348 34.7248 78.7559 34.3091 79.4704C33.8933 80.1848 32.9669 80.4328 32.2483 80.0195L25.6026 76.2051L29.2551 80.6927C29.7777 81.3363 29.6767 82.2869 29.0294 82.8065C28.382 83.3261 27.4259 83.2257 26.9032 82.5821L21.0475 75.3903C20.9881 75.3135 20.9346 75.2309 20.8871 75.1482C20.5367 75.0833 20.2042 75.0183 19.8894 74.9534C18.2562 75.3903 15.9638 76.0103 15.1502 76.2878C12.7568 77.0908 10.8147 77.8171 9.00338 81.5961C7.92844 83.8339 7.02573 85.6407 6.13489 90.2995C5.66572 92.7558 3.66431 92.4074 3.17138 90.1873C2.58936 87.5774 1.87669 80.9761 1.47879 76.9845C1.16403 73.802 1.68665 70.8851 4.50763 69.651Z" fill="#1F4847"/>
</g>
<defs>
<clipPath id="clip0">
<rect width="774" height="92" fill="white"/>
</clipPath>
</defs>
</svg>
