<svg width="233" height="241" viewBox="0 0 233 241" fill="none" xmlns="http://www.w3.org/2000/svg">
<path d="M135.95 51.4644C129.982 51.4644 125.146 56.2957 125.146 62.2686C125.146 68.2371 135.95 79.6571 135.95 79.6571C135.95 79.6571 146.755 68.2326 146.755 62.2686C146.755 56.2957 141.919 51.4644 135.95 51.4644ZM135.95 65.6079C133.595 65.6079 131.685 63.7023 131.685 61.3473C131.685 58.9923 133.595 57.0822 135.95 57.0822C138.305 57.0822 140.216 58.9923 140.216 61.3473C140.216 63.7023 138.305 65.6079 135.95 65.6079Z" fill="#00ADA8"/>
<path d="M166.189 42.0668C165.924 40.3095 164.863 38.7051 164.863 38.7051L154.014 36.1748L147.087 25.5952H123.446L118.898 36.2916L108.628 38.8174C108.628 38.8174 108.255 40.1702 108.111 42.0623C107.954 44.0848 107.927 44.9522 107.927 44.9522H114.785C114.772 44.8443 114.767 44.7319 114.767 44.6196C114.767 42.4533 116.525 40.6961 118.691 40.6961C120.857 40.6961 122.61 42.4533 122.61 44.6196C122.61 44.7319 122.606 44.8398 122.592 44.9522H154.989C154.975 44.8443 154.971 44.7319 154.971 44.6196C154.971 42.4533 156.728 40.6961 158.89 40.6961C161.052 40.6961 162.809 42.4533 162.809 44.6196C162.809 44.7319 162.805 44.8398 162.791 44.9522H166.18C166.189 44.9522 166.477 43.9544 166.189 42.0668ZM122.61 36.7366C122.404 36.7366 122.215 36.6332 122.102 36.4579C121.99 36.2872 121.972 36.0714 122.058 35.8827L125.356 28.4626C125.455 28.2424 125.667 28.1075 125.905 28.103L134.611 28.0626V36.7321H122.61V36.7366ZM150.148 36.413C150.045 36.6107 149.838 36.7366 149.609 36.7366H135.824V28.0581L144.526 28.0176C144.71 28.0131 144.917 28.1165 145.033 28.2828L150.112 35.7838C150.243 35.9726 150.256 36.2152 150.148 36.413Z" fill="#00ADA8"/>
<path d="M118.692 46.7362C117.527 46.7362 116.579 45.7879 116.579 44.6239C116.579 43.4599 117.527 42.5071 118.692 42.5071C119.856 42.5071 120.808 43.4554 120.808 44.6239C120.804 45.7879 119.856 46.7362 118.692 46.7362ZM118.692 43.4059C118.022 43.4059 117.478 43.9497 117.478 44.6239C117.478 45.298 118.022 45.8374 118.692 45.8374C119.361 45.8374 119.91 45.2935 119.91 44.6239C119.91 43.9542 119.361 43.4059 118.692 43.4059Z" fill="#00ADA8"/>
<path d="M118.691 49.2125C116.156 49.2125 114.098 47.1496 114.098 44.6193C114.098 42.089 116.161 40.0261 118.691 40.0261C121.221 40.0261 123.284 42.089 123.284 44.6193C123.284 47.1496 121.221 49.2125 118.691 49.2125ZM118.691 41.3744C116.902 41.3744 115.446 42.8306 115.446 44.6193C115.446 46.408 116.902 47.8642 118.691 47.8642C120.48 47.8642 121.936 46.408 121.936 44.6193C121.936 42.8306 120.48 41.3744 118.691 41.3744Z" fill="#00ADA8"/>
<path d="M158.894 49.2125C156.359 49.2125 154.301 47.1496 154.301 44.6193C154.301 42.089 156.364 40.0261 158.894 40.0261C161.425 40.0261 163.488 42.089 163.488 44.6193C163.488 47.1496 161.429 49.2125 158.894 49.2125ZM158.894 41.3744C157.105 41.3744 155.649 42.8306 155.649 44.6193C155.649 46.408 157.105 47.8642 158.894 47.8642C160.683 47.8642 162.139 46.408 162.139 44.6193C162.139 42.8306 160.683 41.3744 158.894 41.3744Z" fill="#00ADA8"/>
<path d="M158.894 46.7362C157.73 46.7362 156.777 45.7879 156.777 44.6239C156.777 43.4599 157.726 42.5071 158.894 42.5071C160.063 42.5071 161.011 43.4554 161.011 44.6239C161.011 45.7879 160.063 46.7362 158.894 46.7362ZM158.894 43.4059C158.225 43.4059 157.676 43.9497 157.676 44.6239C157.676 45.298 158.22 45.8374 158.894 45.8374C159.568 45.8374 160.112 45.2935 160.112 44.6239C160.112 43.9542 159.564 43.4059 158.894 43.4059Z" fill="#00ADA8"/>
<path d="M138.472 81.2927C138.391 81.2927 138.31 81.2793 138.234 81.2478L135.712 80.286C135.366 80.1557 135.191 79.7647 135.321 79.4141C135.452 79.0636 135.843 78.8928 136.193 79.0231L138.715 79.9849C139.061 80.1152 139.236 80.5062 139.106 80.8568C138.998 81.1265 138.742 81.2927 138.472 81.2927Z" fill="#C6CEDB"/>
<path d="M195.651 103.113C195.57 103.113 195.49 103.099 195.409 103.068L190.645 101.247C190.298 101.113 190.123 100.726 190.253 100.376C190.384 100.03 190.775 99.8542 191.125 99.9846L195.89 101.805C196.236 101.94 196.411 102.326 196.281 102.677C196.177 102.951 195.921 103.113 195.651 103.113ZM186.123 99.4767C186.042 99.4767 185.961 99.4632 185.88 99.4318L181.116 97.6116C180.77 97.4813 180.595 97.0903 180.725 96.7397C180.86 96.3936 181.246 96.2184 181.597 96.3487L186.361 98.1689C186.707 98.2992 186.883 98.6902 186.752 99.0408C186.649 99.3104 186.393 99.4767 186.123 99.4767ZM176.59 95.8408C176.509 95.8408 176.428 95.8274 176.347 95.7959L171.583 93.9757C171.237 93.8454 171.062 93.4544 171.192 93.1038C171.323 92.7533 171.714 92.5825 172.064 92.7128L176.828 94.533C177.174 94.6633 177.35 95.0543 177.219 95.4049C177.121 95.6746 176.864 95.8408 176.59 95.8408ZM167.062 92.205C166.981 92.205 166.9 92.1915 166.819 92.16L162.055 90.3398C161.709 90.2095 161.534 89.8185 161.664 89.4679C161.794 89.1219 162.185 88.9466 162.536 89.0769L167.3 90.8971C167.646 91.0275 167.821 91.4185 167.691 91.769C167.588 92.0387 167.331 92.205 167.062 92.205ZM157.533 88.5646C157.453 88.5646 157.372 88.5511 157.291 88.5196L152.527 86.6994C152.18 86.5691 152.005 86.1781 152.136 85.8276C152.27 85.4815 152.657 85.3017 153.007 85.4366L157.772 87.2567C158.118 87.3871 158.293 87.7781 158.163 88.1286C158.059 88.4028 157.803 88.5646 157.533 88.5646ZM148.001 84.9287C147.92 84.9287 147.839 84.9152 147.758 84.8838L142.994 83.0636C142.648 82.9332 142.472 82.5422 142.603 82.1917C142.733 81.8456 143.124 81.6703 143.475 81.8007L148.239 83.6209C148.585 83.7512 148.76 84.1422 148.63 84.4927C148.531 84.7624 148.275 84.9287 148.001 84.9287Z" fill="#C6CEDB"/>
<path d="M201.615 108.245C201.503 108.245 201.39 108.218 201.287 108.16C200.963 107.975 200.847 107.566 201.026 107.243L201.961 105.571L200.172 104.888C199.826 104.757 199.651 104.366 199.781 104.016C199.916 103.67 200.303 103.495 200.653 103.625L203.175 104.587C203.359 104.659 203.503 104.802 203.57 104.987C203.638 105.171 203.62 105.373 203.525 105.544L202.208 107.894C202.083 108.124 201.853 108.245 201.615 108.245Z" fill="#C6CEDB"/>
<path d="M173.566 158.316C173.453 158.316 173.341 158.289 173.238 158.231C172.914 158.046 172.797 157.637 172.977 157.314L175.782 152.307C175.966 151.983 176.375 151.867 176.698 152.046C177.022 152.231 177.139 152.64 176.959 152.963L174.155 157.97C174.033 158.195 173.804 158.316 173.566 158.316ZM179.179 148.303C179.067 148.303 178.955 148.276 178.851 148.217C178.528 148.033 178.411 147.624 178.591 147.3L181.395 142.294C181.575 141.97 181.988 141.853 182.312 142.033C182.636 142.217 182.753 142.626 182.573 142.95L179.768 147.957C179.642 148.177 179.413 148.303 179.179 148.303ZM184.789 138.289C184.676 138.289 184.564 138.262 184.46 138.204C184.137 138.02 184.02 137.611 184.2 137.287L187.004 132.28C187.184 131.957 187.598 131.84 187.921 132.02C188.245 132.204 188.362 132.613 188.182 132.937L185.377 137.943C185.252 138.163 185.022 138.289 184.789 138.289ZM190.398 128.276C190.285 128.276 190.173 128.249 190.07 128.191C189.746 128.006 189.629 127.597 189.809 127.274L192.614 122.267C192.793 121.944 193.207 121.827 193.53 122.006C193.854 122.191 193.971 122.6 193.791 122.923L190.986 127.93C190.861 128.15 190.631 128.276 190.398 128.276ZM196.007 118.258C195.895 118.258 195.782 118.231 195.679 118.173C195.355 117.989 195.238 117.58 195.418 117.256L198.223 112.249C198.402 111.926 198.816 111.809 199.14 111.989C199.463 112.173 199.58 112.582 199.4 112.906L196.596 117.912C196.474 118.137 196.245 118.258 196.007 118.258Z" fill="#C6CEDB"/>
<path d="M169.444 165.678C169.331 165.678 169.219 165.651 169.116 165.592C168.792 165.408 168.675 164.999 168.855 164.676L170.172 162.325C170.356 162.001 170.765 161.885 171.089 162.064C171.412 162.249 171.529 162.658 171.349 162.981L170.032 165.332C169.907 165.552 169.677 165.678 169.444 165.678Z" fill="#C6CEDB"/>
<path d="M52.5548 67.4684C52.5233 67.4684 52.4918 67.4684 52.4604 67.4684C47.6782 67.4189 43.8309 63.4864 43.8804 58.709C43.9298 53.9585 47.8131 50.1294 52.5503 50.1294C52.5817 50.1294 52.6132 50.1294 52.6402 50.1294C57.4223 50.1788 61.2696 54.1113 61.2202 58.8888C61.1977 61.2033 60.2718 63.3696 58.6179 64.992C56.9864 66.592 54.838 67.4684 52.5548 67.4684ZM44.559 58.718L45.2332 58.727C45.1928 62.7629 48.4423 66.0841 52.4784 66.1246C52.5053 66.1246 52.5323 66.1246 52.5548 66.1246C54.4829 66.1246 56.2987 65.383 57.674 64.0347C59.0718 62.6685 59.8539 60.8348 59.8718 58.8798C59.9123 54.8439 56.6628 51.5226 52.6267 51.4822C52.5997 51.4822 52.5727 51.4822 52.5503 51.4822C48.5502 51.4822 45.2737 54.7181 45.2287 58.727L44.559 58.718Z" fill="#C6CEDB"/>
<path d="M37.9836 59.8506C37.7949 59.8506 37.6196 59.7742 37.4892 59.6349L26.2799 47.6306C26.0956 47.4329 26.0462 47.1452 26.1541 46.898C26.2619 46.6553 26.5046 46.498 26.7698 46.498C26.7698 46.498 26.7743 46.498 26.7788 46.498L43.9838 46.6778C44.1906 46.6778 44.3838 46.7767 44.5097 46.943L53.2335 58.3315C53.3863 58.5338 53.4178 58.8034 53.3054 59.0326C53.1976 59.2618 52.9683 59.4102 52.7166 59.4191L37.9971 59.8551C37.9971 59.8506 37.9881 59.8506 37.9836 59.8506ZM28.3384 47.8598L38.2623 58.4933L51.3638 58.1023L43.6422 48.0216L28.3384 47.8598Z" fill="#C6CEDB"/>
<path d="M37.9834 59.8506C37.88 59.8506 37.7766 59.8282 37.6778 59.7742C37.3452 59.6034 37.2148 59.1989 37.3856 58.8664L43.4218 47.1138C43.5925 46.7812 43.997 46.6509 44.3296 46.8217C44.6622 46.9924 44.7926 47.3969 44.6218 47.7295L38.5857 59.4821C38.4598 59.7158 38.2261 59.8506 37.9834 59.8506Z" fill="#C6CEDB"/>
<path d="M38.1004 62.5022C38.0869 62.5022 38.0779 62.5022 38.0644 62.5022C36.2621 62.4842 34.8059 61.0011 34.8284 59.1944C34.8464 57.4012 36.3116 55.9585 38.1004 55.9585C38.1139 55.9585 38.1229 55.9585 38.1363 55.9585C39.0083 55.9675 39.8263 56.318 40.442 56.9427C41.0533 57.5675 41.3859 58.3944 41.3769 59.2663C41.3679 60.1382 41.0173 60.9562 40.3926 61.5674C39.7724 62.1696 38.9633 62.5022 38.1004 62.5022ZM36.1767 59.2124C36.1722 59.7247 36.3655 60.2101 36.7251 60.5786C37.0846 60.9472 37.5655 61.1494 38.0779 61.1584C38.0824 61.1584 38.0914 61.1584 38.0959 61.1584C39.1476 61.1584 40.0061 60.309 40.0196 59.2573C40.024 58.745 39.8308 58.2596 39.4712 57.891C39.1117 57.5225 38.6307 57.3203 38.1184 57.3113C38.1139 57.3113 38.1049 57.3113 38.1004 57.3113C37.0487 57.3068 36.1857 58.1562 36.1767 59.2124Z" fill="#C6CEDB"/>
<path d="M20.8548 67.1355C20.8279 67.1355 20.7964 67.1355 20.7694 67.1355C20.4144 67.1311 20.0458 67.1041 19.6728 67.0546C17.866 66.803 16.2165 66.0075 14.8951 64.7536C13.1512 63.0997 12.1669 60.7761 12.1939 58.3762C12.2433 53.5942 16.194 49.7381 20.9537 49.7966C23.2684 49.819 25.4392 50.7448 27.0573 52.3987C28.6753 54.0526 29.5562 56.2414 29.5337 58.5559C29.5113 60.7222 28.6843 62.7896 27.2011 64.3805C25.7988 65.8816 23.9066 66.8389 21.8751 67.0771C21.529 67.1176 21.1874 67.1355 20.8548 67.1355ZM13.5378 58.3896C13.5153 60.4166 14.3468 62.3806 15.821 63.7738C16.9401 64.8345 18.3334 65.5086 19.8525 65.7198C20.1672 65.7603 20.4818 65.7828 20.7829 65.7873C21.0796 65.7918 21.3987 65.7738 21.7178 65.7378C23.4302 65.5356 25.0257 64.7266 26.2078 63.4592C27.4573 62.1154 28.1584 60.3716 28.1764 58.5424C28.2168 54.5066 24.9673 51.1853 20.9312 51.1448C20.9043 51.1448 20.8773 51.1448 20.8548 51.1448C16.8592 51.1448 13.5827 54.3807 13.5378 58.3896Z" fill="#C6CEDB"/>
<path d="M20.8594 59.1401C20.5852 59.1401 20.3246 58.9694 20.2257 58.6952C20.0998 58.3447 20.2796 57.9581 20.6302 57.8323C20.6392 57.8278 22.4235 57.0773 23.9921 53.2931C25.0033 50.8482 25.8618 47.7336 26.0011 47.2213C26.0191 46.7134 26.1045 43.8371 26.064 42.6685C26.0506 42.2955 26.3427 41.9854 26.7158 41.9719C27.0888 41.9405 27.3989 42.2506 27.4124 42.6236C27.4618 43.9494 27.354 47.2123 27.3495 47.3471C27.3495 47.3965 27.3405 47.4505 27.327 47.4954C27.2866 47.6392 26.3742 51.0684 25.2416 53.8099C23.4482 58.1424 21.3313 59.0143 21.0931 59.0997C21.0167 59.1267 20.9358 59.1401 20.8594 59.1401Z" fill="#C6CEDB"/>
<path d="M26.7154 43.1676C26.3513 43.1676 26.0502 42.8755 26.0412 42.5069C26.0322 42.1339 26.3289 41.8283 26.7019 41.8193L31.7403 41.7114C31.7448 41.7114 31.7492 41.7114 31.7537 41.7114C32.1178 41.7114 32.4189 42.0036 32.4279 42.3721C32.4369 42.7451 32.1403 43.0507 31.7672 43.0597L26.7289 43.1676C26.7244 43.1676 26.7199 43.1676 26.7154 43.1676Z" fill="#C6CEDB"/>
<path d="M16.7335 59.0819C16.4414 59.0819 16.1942 58.8571 16.1717 58.5605C16.1627 58.4302 16.1582 58.2954 16.1582 58.1605C16.1762 56.4033 17.2234 54.7988 18.8279 54.0752C19.1111 53.9449 19.4437 54.0752 19.5695 54.3539C19.6999 54.637 19.5695 54.9696 19.2909 55.0954C18.0863 55.6392 17.2953 56.8482 17.2818 58.1695C17.2818 58.2729 17.2818 58.3762 17.2908 58.4751C17.3133 58.7852 17.0841 59.0549 16.774 59.0774C16.765 59.0819 16.747 59.0819 16.7335 59.0819Z" fill="#C6CEDB"/>
<path d="M56.7886 57.0278C56.5414 57.0278 56.3167 56.866 56.2493 56.6188C55.8897 55.347 54.8155 54.3852 53.5076 54.1739C53.4087 54.156 53.3054 54.147 53.2065 54.138C52.8964 54.1155 52.6627 53.8459 52.6896 53.5358C52.7121 53.2256 52.9863 52.9874 53.2919 53.0189C53.4222 53.0279 53.5571 53.0459 53.6919 53.0638C55.4268 53.347 56.856 54.6189 57.3325 56.3132C57.4179 56.6143 57.2426 56.9244 56.9459 57.0053C56.892 57.0188 56.8381 57.0278 56.7886 57.0278Z" fill="#C6CEDB"/>
<path d="M44.0333 48.2372C43.9793 48.2372 43.9209 48.2282 43.8625 48.2148C43.5029 48.1204 43.2872 47.7518 43.3815 47.3923L44.1861 44.3092C44.2804 43.9497 44.649 43.7339 45.0086 43.8283C45.3681 43.9227 45.5839 44.2912 45.4895 44.6508L44.685 47.7339C44.6085 48.035 44.3344 48.2372 44.0333 48.2372Z" fill="#C6CEDB"/>
<path d="M47.3997 45.181C47.3952 45.181 47.3862 45.181 47.3817 45.181L43.9839 45.1451C43.1434 45.1361 42.4647 44.444 42.4737 43.6035L42.4782 43.2979C42.4872 42.462 43.1704 41.7878 44.0019 41.7878C44.0064 41.7878 44.0108 41.7878 44.0198 41.7878L47.4177 41.8238C48.2582 41.8328 48.9368 42.5249 48.9278 43.3653L48.9233 43.6709C48.9189 44.0799 48.7571 44.4575 48.4649 44.7451C48.1773 45.0237 47.7997 45.181 47.3997 45.181ZM44.0019 43.1361C43.9075 43.1361 43.8266 43.217 43.8221 43.3114L43.8176 43.617C43.8176 43.7114 43.8985 43.7968 43.9929 43.7968L47.3907 43.8327C47.4447 43.8507 47.4986 43.8013 47.5166 43.7833C47.5345 43.7653 47.5705 43.7204 47.5705 43.6575L47.575 43.3519C47.575 43.2575 47.4941 43.1721 47.3997 43.1721L44.0019 43.1361C44.0064 43.1361 44.0019 43.1361 44.0019 43.1361Z" fill="#C6CEDB"/>
<path d="M37.4663 99.7237C37.282 99.7237 37.1022 99.6473 36.9764 99.5125C36.5269 99.0361 25.9873 87.8228 25.9873 81.6567C25.9873 75.3287 31.138 70.1782 37.4663 70.1782C43.7946 70.1782 48.9453 75.3287 48.9453 81.6567C48.9453 87.8228 38.4056 99.0361 37.9562 99.5125C37.8303 99.6473 37.6506 99.7237 37.4663 99.7237ZM37.4663 71.5265C31.8796 71.5265 27.3357 76.0703 27.3357 81.6567C27.3357 86.5824 35.3763 95.7553 37.4663 98.0519C39.5562 95.7508 47.5969 86.5779 47.5969 81.6567C47.5969 76.0703 43.053 71.5265 37.4663 71.5265Z" fill="#C6CEDB"/>
<path d="M37.4662 85.6747C34.7426 85.6747 32.5312 83.459 32.5312 80.7399C32.5312 78.0209 34.747 75.8052 37.4662 75.8052C40.1854 75.8052 42.4012 78.0209 42.4012 80.7399C42.4012 83.459 40.1899 85.6747 37.4662 85.6747ZM37.4662 77.149C35.4886 77.149 33.8796 78.7579 33.8796 80.7354C33.8796 82.7129 35.4886 84.3219 37.4662 84.3219C39.4438 84.3219 41.0528 82.7129 41.0528 80.7354C41.0528 78.7579 39.4438 77.149 37.4662 77.149Z" fill="#C6CEDB"/>
<path d="M208.497 185.551C208.312 185.551 208.132 185.475 208.007 185.34C207.557 184.864 197.018 173.65 197.018 167.484C197.018 161.156 202.168 156.006 208.497 156.006C214.825 156.006 219.976 161.156 219.976 167.484C219.976 173.65 209.436 184.864 208.986 185.34C208.861 185.475 208.685 185.551 208.497 185.551ZM208.497 157.354C202.91 157.354 198.366 161.898 198.366 167.484C198.366 172.41 206.407 181.583 208.497 183.88C210.587 181.583 218.627 172.406 218.627 167.484C218.627 161.902 214.083 157.354 208.497 157.354Z" fill="#C6CEDB"/>
<path d="M208.497 171.507C205.773 171.507 203.562 169.291 203.562 166.572C203.562 163.853 205.777 161.637 208.497 161.637C211.216 161.637 213.431 163.853 213.431 166.572C213.431 169.291 211.22 171.507 208.497 171.507ZM208.497 162.981C206.519 162.981 204.91 164.59 204.91 166.567C204.91 168.545 206.519 170.154 208.497 170.154C210.474 170.154 212.083 168.545 212.083 166.567C212.083 164.59 210.479 162.981 208.497 162.981Z" fill="#C6CEDB"/>
<path d="M202.937 105.895C202.753 105.895 202.573 105.818 202.447 105.683C201.998 105.207 191.458 93.9937 191.458 87.8276C191.458 81.4996 196.609 76.3491 202.937 76.3491C209.265 76.3491 214.416 81.4996 214.416 87.8276C214.416 93.9937 203.876 105.207 203.427 105.683C203.297 105.818 203.121 105.895 202.937 105.895ZM202.937 77.6974C197.35 77.6974 192.806 82.2411 192.806 87.8276C192.806 92.7533 200.847 101.926 202.937 104.223C205.027 101.926 213.068 92.7488 213.068 87.8276C213.068 82.2411 208.524 77.6974 202.937 77.6974Z" fill="#C6CEDB"/>
<path d="M202.937 91.8453C200.213 91.8453 198.002 89.6296 198.002 86.9106C198.002 84.1915 200.218 81.9758 202.937 81.9758C205.656 81.9758 207.872 84.1915 207.872 86.9106C207.872 89.6296 205.656 91.8453 202.937 91.8453ZM202.937 83.3196C200.959 83.3196 199.35 84.9286 199.35 86.9061C199.35 88.8836 200.959 90.4925 202.937 90.4925C204.915 90.4925 206.524 88.8836 206.524 86.9061C206.524 84.9286 204.915 83.3196 202.937 83.3196Z" fill="#C6CEDB"/>
<path d="M215.077 70.848H190.119C189.745 70.848 189.444 70.5469 189.444 70.1739C189.444 69.8009 189.745 69.4998 190.119 69.4998H215.077C215.45 69.4998 215.751 69.8009 215.751 70.1739C215.751 70.5469 215.45 70.848 215.077 70.848Z" fill="#C6CEDB"/>
<path d="M232.326 70.848H225.472C225.099 70.848 224.798 70.5469 224.798 70.1739C224.798 69.8009 225.099 69.4998 225.472 69.4998H231.602C231.472 67.8548 231.045 63.5898 229.93 59.2438C228.838 54.9832 227.18 51.7068 226.631 50.6821H193.687L187.439 59.5359C187.327 59.6977 187.147 59.8011 186.954 59.819C186.94 59.819 185.435 59.9673 183.394 60.4033C182.868 60.5157 182.338 60.6235 181.812 60.7269C179.987 61.0954 178.266 61.4415 176.94 61.9583C175.686 62.4482 174.891 63.5538 174.697 65.0729C174.545 66.2773 174.365 68.3852 174.27 69.4953H179.898C180.271 69.4953 180.572 69.7964 180.572 70.1694C180.572 70.5424 180.271 70.8436 179.898 70.8436H173.538C173.349 70.8436 173.169 70.7671 173.043 70.6278C172.918 70.4885 172.85 70.3042 172.868 70.1155C172.877 69.9717 173.147 66.6189 173.358 64.9066C173.61 62.9021 174.733 61.3696 176.446 60.6999C177.879 60.1381 179.655 59.7831 181.538 59.4011C182.059 59.2977 182.581 59.1898 183.107 59.0775C184.693 58.7404 185.947 58.5696 186.504 58.5067L192.779 49.617C192.905 49.4372 193.111 49.3293 193.332 49.3293H227.022C227.261 49.3293 227.485 49.4552 227.607 49.6619C227.697 49.8192 229.863 53.5585 231.234 58.9022C232.686 64.556 232.991 70.075 232.996 70.129C233.005 70.3132 232.937 70.493 232.811 70.6278C232.686 70.7627 232.51 70.848 232.326 70.848Z" fill="#C6CEDB"/>
<path d="M226.352 62.0165H190.639C190.396 62.0165 190.172 61.8862 190.05 61.675C189.929 61.4637 189.933 61.2031 190.059 60.9963L194.954 52.9066C195.075 52.7044 195.295 52.583 195.529 52.583L223.584 52.6684C223.831 52.6684 224.06 52.8077 224.177 53.0235C225.566 55.6346 226.519 58.3986 227.009 61.23C227.045 61.4278 226.986 61.6255 226.86 61.7784C226.743 61.9267 226.555 62.0165 226.352 62.0165ZM191.835 60.6683H225.539C225.071 58.3807 224.28 56.147 223.184 54.0077L195.916 53.9268L191.835 60.6683Z" fill="#C6CEDB"/>
<path d="M203.822 61.8414C203.449 61.8414 203.147 61.5403 203.147 61.1673V53.2618C203.147 52.8888 203.449 52.5876 203.822 52.5876C204.195 52.5876 204.496 52.8888 204.496 53.2618V61.1673C204.496 61.5403 204.195 61.8414 203.822 61.8414Z" fill="#C6CEDB"/>
<path d="M215.552 61.8279C215.215 61.8279 214.928 61.5763 214.883 61.2347L213.93 53.3921C213.885 53.0236 214.15 52.6865 214.519 52.6416C214.883 52.6011 215.224 52.8618 215.269 53.2303L216.222 61.0729C216.267 61.4414 216.002 61.7785 215.633 61.8234C215.606 61.8234 215.579 61.8279 215.552 61.8279Z" fill="#C6CEDB"/>
<path d="M185.012 75.6165C181.826 75.6165 179.232 73.0233 179.232 69.8368C179.232 66.6503 181.826 64.0571 185.012 64.0571C188.199 64.0571 190.792 66.6503 190.792 69.8368C190.792 73.0233 188.199 75.6165 185.012 75.6165ZM185.012 65.4054C182.567 65.4054 180.581 67.3919 180.581 69.8368C180.581 72.2817 182.567 74.2682 185.012 74.2682C187.457 74.2682 189.444 72.2817 189.444 69.8368C189.444 67.3919 187.457 65.4054 185.012 65.4054Z" fill="#C6CEDB"/>
<path d="M185.012 72.6815C183.443 72.6815 182.167 71.4051 182.167 69.8366C182.167 68.2681 183.443 66.9917 185.012 66.9917C186.581 66.9917 187.857 68.2681 187.857 69.8366C187.857 71.4051 186.581 72.6815 185.012 72.6815ZM185.012 68.34C184.19 68.34 183.515 69.0096 183.515 69.8366C183.515 70.6591 184.185 71.3332 185.012 71.3332C185.835 71.3332 186.509 70.6636 186.509 69.8366C186.509 69.0141 185.835 68.34 185.012 68.34Z" fill="#C6CEDB"/>
<path d="M220.181 75.6165C216.995 75.6165 214.401 73.0233 214.401 69.8368C214.401 66.6503 216.995 64.0571 220.181 64.0571C223.368 64.0571 225.961 66.6503 225.961 69.8368C225.966 73.0233 223.372 75.6165 220.181 75.6165ZM220.181 65.4054C217.736 65.4054 215.75 67.3919 215.75 69.8368C215.75 72.2817 217.736 74.2682 220.181 74.2682C222.626 74.2682 224.613 72.2817 224.613 69.8368C224.617 67.3919 222.626 65.4054 220.181 65.4054Z" fill="#C6CEDB"/>
<path d="M220.181 72.6815C218.612 72.6815 217.336 71.4051 217.336 69.8366C217.336 68.2681 218.612 66.9917 220.181 66.9917C221.75 66.9917 223.026 68.2681 223.026 69.8366C223.026 71.4051 221.75 72.6815 220.181 72.6815ZM220.181 68.34C219.358 68.34 218.684 69.0096 218.684 69.8366C218.684 70.6591 219.354 71.3332 220.181 71.3332C221.003 71.3332 221.678 70.6636 221.678 69.8366C221.678 69.0141 221.008 68.34 220.181 68.34Z" fill="#C6CEDB"/>
<path d="M103.405 142.208C103.298 142.208 103.194 142.182 103.091 142.132C102.763 141.961 102.637 141.552 102.808 141.22L105.226 136.622C105.396 136.294 105.805 136.164 106.138 136.339C106.466 136.51 106.592 136.919 106.421 137.251L104.003 141.849C103.882 142.074 103.648 142.208 103.405 142.208ZM108.336 132.838C108.228 132.838 108.125 132.811 108.021 132.761C107.693 132.591 107.567 132.182 107.738 131.849L110.246 127.076C110.417 126.748 110.826 126.618 111.158 126.793C111.487 126.964 111.612 127.373 111.442 127.705L108.934 132.478C108.812 132.708 108.579 132.838 108.336 132.838ZM113.356 123.292C113.248 123.292 113.145 123.265 113.042 123.216C112.714 123.045 112.588 122.636 112.758 122.303L115.271 117.53C115.442 117.202 115.851 117.072 116.183 117.247C116.511 117.418 116.637 117.827 116.466 118.159L113.954 122.932C113.833 123.157 113.599 123.292 113.356 123.292ZM118.377 113.742C118.269 113.742 118.165 113.715 118.062 113.665C117.734 113.494 117.608 113.085 117.779 112.753L120.291 107.98C120.462 107.652 120.871 107.521 121.204 107.697C121.532 107.868 121.658 108.277 121.487 108.609L118.974 113.382C118.853 113.611 118.619 113.742 118.377 113.742ZM123.397 104.196C123.289 104.196 123.186 104.169 123.082 104.119C122.754 103.949 122.628 103.54 122.799 103.207L125.312 98.434C125.482 98.1059 125.891 97.9801 126.224 98.1509C126.552 98.3217 126.678 98.7306 126.507 99.0632L123.995 103.836C123.873 104.065 123.64 104.196 123.397 104.196ZM128.417 94.6498C128.309 94.6498 128.206 94.6229 128.103 94.5734C127.775 94.4026 127.649 93.9937 127.82 93.6611L130.332 88.8881C130.503 88.5601 130.912 88.4297 131.244 88.605C131.573 88.7758 131.698 89.1848 131.528 89.5173L129.015 94.2903C128.894 94.5195 128.66 94.6498 128.417 94.6498ZM133.442 85.1039C133.334 85.1039 133.231 85.077 133.128 85.0275C132.8 84.8568 132.674 84.4478 132.844 84.1152L135.357 79.3422C135.528 79.0142 135.937 78.8838 136.269 79.0591C136.597 79.2299 136.723 79.6389 136.552 79.9715L134.04 84.7444C133.919 84.9736 133.68 85.1039 133.442 85.1039Z" fill="#C6CEDB"/>
<path d="M208.496 185.61C208.393 185.61 208.29 185.587 208.195 185.538L203.377 183.116C203.044 182.949 202.91 182.545 203.076 182.212C203.242 181.88 203.651 181.745 203.979 181.911L208.797 184.334C209.13 184.5 209.265 184.904 209.099 185.237C208.982 185.471 208.744 185.61 208.496 185.61ZM198.86 180.77C198.757 180.77 198.653 180.747 198.559 180.698L193.741 178.275C193.408 178.109 193.273 177.704 193.44 177.372C193.606 177.039 194.015 176.904 194.343 177.071L199.161 179.493C199.494 179.659 199.629 180.064 199.462 180.397C199.341 180.63 199.103 180.77 198.86 180.77ZM189.219 175.929C189.116 175.929 189.013 175.907 188.918 175.857L184.1 173.435C183.767 173.269 183.633 172.864 183.799 172.532C183.965 172.199 184.37 172.064 184.702 172.23L189.52 174.653C189.853 174.819 189.988 175.224 189.822 175.556C189.705 175.79 189.467 175.929 189.219 175.929ZM179.579 171.084C179.475 171.084 179.372 171.062 179.277 171.012L174.459 168.595C174.127 168.428 173.992 168.024 174.158 167.691C174.325 167.359 174.734 167.224 175.062 167.39L179.88 169.808C180.212 169.974 180.347 170.379 180.181 170.711C180.064 170.95 179.826 171.084 179.579 171.084ZM169.938 166.244C169.835 166.244 169.731 166.222 169.637 166.172L164.819 163.754C164.486 163.588 164.351 163.183 164.518 162.851C164.684 162.518 165.093 162.383 165.421 162.55L170.239 164.968C170.572 165.134 170.706 165.538 170.54 165.871C170.423 166.109 170.185 166.244 169.938 166.244ZM160.302 161.404C160.198 161.404 160.095 161.381 160.001 161.332L155.182 158.909C154.85 158.743 154.715 158.339 154.881 158.006C155.048 157.673 155.457 157.539 155.785 157.705L160.603 160.127C160.935 160.294 161.07 160.698 160.904 161.031C160.783 161.269 160.544 161.404 160.302 161.404ZM150.661 156.563C150.558 156.563 150.454 156.541 150.36 156.491L145.542 154.069C145.209 153.903 145.074 153.498 145.241 153.166C145.407 152.833 145.816 152.698 146.144 152.864L150.962 155.287C151.295 155.453 151.429 155.858 151.263 156.19C151.146 156.428 150.908 156.563 150.661 156.563ZM141.02 151.723C140.917 151.723 140.813 151.7 140.719 151.651L135.901 149.229C135.568 149.062 135.434 148.658 135.6 148.325C135.766 147.993 136.175 147.858 136.503 148.024L141.321 150.447C141.654 150.613 141.789 151.017 141.622 151.35C141.506 151.588 141.267 151.723 141.02 151.723ZM131.379 146.883C131.276 146.883 131.173 146.86 131.078 146.811L126.26 144.393C125.928 144.226 125.793 143.822 125.959 143.489C126.125 143.157 126.53 143.022 126.862 143.188L131.681 145.606C132.013 145.772 132.148 146.177 131.982 146.51C131.865 146.748 131.627 146.883 131.379 146.883ZM121.743 142.042C121.64 142.042 121.536 142.02 121.442 141.97L116.624 139.552C116.291 139.386 116.157 138.982 116.323 138.649C116.489 138.316 116.894 138.182 117.226 138.348L122.044 140.766C122.377 140.932 122.512 141.337 122.345 141.669C122.224 141.907 121.99 142.042 121.743 142.042ZM112.102 137.202C111.999 137.202 111.896 137.179 111.801 137.13L106.983 134.708C106.651 134.541 106.516 134.137 106.682 133.804C106.848 133.472 107.257 133.337 107.586 133.503L112.404 135.925C112.736 136.092 112.871 136.496 112.705 136.829C112.588 137.067 112.35 137.202 112.102 137.202ZM102.462 132.361C102.358 132.361 102.255 132.339 102.161 132.29L97.3425 129.867C97.0099 129.701 96.8751 129.296 97.0414 128.964C97.2077 128.631 97.6167 128.496 97.9448 128.663L102.763 131.085C103.095 131.251 103.23 131.656 103.064 131.988C102.947 132.227 102.709 132.361 102.462 132.361ZM92.821 127.521C92.7177 127.521 92.6143 127.499 92.5199 127.449L87.7018 125.031C87.3692 124.865 87.2344 124.461 87.4007 124.128C87.5669 123.795 87.9759 123.661 88.304 123.827L93.1222 126.245C93.4548 126.411 93.5896 126.816 93.4233 127.148C93.3064 127.386 93.0682 127.521 92.821 127.521ZM83.1848 122.681C83.0814 122.681 82.9781 122.658 82.8837 122.609L78.0655 120.191C77.733 120.025 77.5981 119.62 77.7644 119.288C77.9307 118.955 78.3397 118.82 78.6678 118.986L83.4859 121.404C83.8185 121.571 83.9534 121.975 83.7871 122.308C83.6657 122.546 83.432 122.681 83.1848 122.681ZM73.5441 117.84C73.4407 117.84 73.3373 117.818 73.2429 117.769L68.4248 115.351C68.0922 115.184 67.9574 114.78 68.1237 114.447C68.29 114.115 68.699 113.98 69.0271 114.146L73.8452 116.564C74.1778 116.73 74.3126 117.135 74.1463 117.467C74.0295 117.701 73.7913 117.84 73.5441 117.84ZM63.9033 113C63.8 113 63.6966 112.978 63.6022 112.928L58.7841 110.506C58.4515 110.339 58.3167 109.935 58.483 109.602C58.6492 109.27 59.0538 109.135 59.3864 109.301L64.2045 111.724C64.5371 111.89 64.6719 112.294 64.5056 112.627C64.3887 112.861 64.1505 113 63.9033 113ZM54.2626 108.16C54.1592 108.16 54.0559 108.137 53.9615 108.088L49.1434 105.665C48.8108 105.499 48.6759 105.095 48.8422 104.762C49.0085 104.429 49.413 104.295 49.7456 104.461L54.5637 106.883C54.8963 107.05 55.0312 107.454 54.8649 107.787C54.748 108.02 54.5098 108.16 54.2626 108.16ZM44.6264 103.315C44.523 103.315 44.4196 103.292 44.3252 103.243L39.5071 100.825C39.1745 100.659 39.0397 100.254 39.206 99.9217C39.3723 99.5891 39.7813 99.4542 40.1094 99.6205L44.9275 102.038C45.2601 102.205 45.3949 102.609 45.2286 102.942C45.1118 103.18 44.8736 103.315 44.6264 103.315Z" fill="#C6CEDB"/>
<path d="M211.795 142.46C211.701 142.46 211.602 142.437 211.508 142.397L206.636 140.087C206.299 139.93 206.155 139.525 206.317 139.188C206.474 138.851 206.878 138.707 207.215 138.869L212.088 141.179C212.425 141.336 212.568 141.741 212.407 142.078C212.29 142.316 212.047 142.46 211.795 142.46ZM202.047 137.844C201.952 137.844 201.854 137.822 201.759 137.781L196.883 135.471C196.546 135.314 196.402 134.909 196.563 134.572C196.721 134.235 197.125 134.091 197.462 134.253L202.339 136.563C202.676 136.721 202.82 137.125 202.658 137.462C202.541 137.7 202.298 137.844 202.047 137.844ZM192.298 133.224C192.204 133.224 192.105 133.202 192.011 133.161L187.134 130.851C186.797 130.694 186.653 130.289 186.815 129.952C186.972 129.615 187.377 129.471 187.714 129.633L192.59 131.943C192.927 132.1 193.071 132.505 192.909 132.842C192.793 133.085 192.55 133.224 192.298 133.224ZM182.55 128.608C182.455 128.608 182.356 128.586 182.262 128.546L177.385 126.235C177.048 126.078 176.904 125.674 177.066 125.337C177.224 125 177.628 124.856 177.965 125.017L182.842 127.328C183.179 127.485 183.323 127.889 183.161 128.226C183.044 128.465 182.801 128.608 182.55 128.608ZM172.801 123.993C172.707 123.993 172.608 123.97 172.513 123.93L167.641 121.62C167.304 121.462 167.16 121.058 167.322 120.721C167.479 120.384 167.884 120.24 168.221 120.402L173.093 122.712C173.43 122.869 173.574 123.274 173.412 123.611C173.295 123.849 173.053 123.993 172.801 123.993ZM163.052 119.377C162.958 119.377 162.859 119.355 162.765 119.314L157.888 117.004C157.551 116.847 157.407 116.442 157.569 116.105C157.726 115.768 158.131 115.624 158.468 115.786L163.34 118.096C163.677 118.254 163.821 118.658 163.659 118.995C163.547 119.233 163.304 119.377 163.052 119.377ZM153.304 114.757C153.209 114.757 153.111 114.735 153.016 114.694L148.144 112.384C147.807 112.227 147.663 111.822 147.825 111.485C147.982 111.148 148.387 111.004 148.724 111.166L153.596 113.476C153.933 113.633 154.077 114.038 153.915 114.375C153.798 114.618 153.556 114.757 153.304 114.757ZM143.555 110.141C143.461 110.141 143.362 110.119 143.268 110.078L138.391 107.768C138.054 107.611 137.91 107.207 138.072 106.87C138.229 106.532 138.634 106.389 138.971 106.55L143.847 108.86C144.184 109.018 144.328 109.422 144.166 109.759C144.05 110.002 143.807 110.141 143.555 110.141ZM133.807 105.526C133.712 105.526 133.613 105.503 133.519 105.463L128.642 103.153C128.305 102.995 128.162 102.591 128.323 102.254C128.481 101.917 128.885 101.773 129.222 101.935L134.099 104.245C134.436 104.402 134.58 104.807 134.418 105.144C134.301 105.382 134.058 105.526 133.807 105.526ZM124.058 100.91C123.964 100.91 123.865 100.888 123.77 100.847L118.894 98.5371C118.557 98.3798 118.413 97.9753 118.575 97.6382C118.732 97.3012 119.137 97.1573 119.474 97.3191L124.35 99.6292C124.687 99.7865 124.831 100.191 124.669 100.528C124.552 100.766 124.31 100.91 124.058 100.91ZM114.305 96.2944C114.211 96.2944 114.112 96.272 114.017 96.2315L109.145 93.9214C108.808 93.7641 108.664 93.3597 108.826 93.0226C108.983 92.6855 109.388 92.5417 109.725 92.7035L114.597 95.0136C114.934 95.1709 115.078 95.5753 114.916 95.9124C114.804 96.1506 114.561 96.2944 114.305 96.2944ZM104.556 91.6743C104.462 91.6743 104.363 91.6518 104.269 91.6114L99.3966 89.3013C99.0595 89.144 98.9157 88.7395 99.0775 88.4024C99.2348 88.0654 99.6393 87.9216 99.9764 88.0834L104.848 90.3934C105.186 90.5507 105.329 90.9552 105.168 91.2923C105.051 91.535 104.813 91.6743 104.556 91.6743ZM94.8077 87.0587C94.7134 87.0587 94.6145 87.0362 94.5201 86.9957L89.6435 84.6857C89.3065 84.5284 89.1626 84.1239 89.3244 83.7868C89.4817 83.4497 89.8862 83.3059 90.2233 83.4677L95.0999 85.7778C95.437 85.9351 95.5808 86.3396 95.419 86.6766C95.3021 86.9193 95.0639 87.0587 94.8077 87.0587ZM85.0591 82.443C84.9648 82.443 84.8659 82.4205 84.7715 82.3801L79.8949 80.07C79.5579 79.9127 79.414 79.5082 79.5758 79.1712C79.7331 78.8341 80.1377 78.6903 80.4747 78.8521L85.3513 81.1621C85.6884 81.3194 85.8322 81.7239 85.6704 82.061C85.5535 82.2992 85.3108 82.443 85.0591 82.443ZM75.3105 77.8274C75.2162 77.8274 75.1173 77.8049 75.0229 77.7644L70.1464 75.4544C69.8093 75.2971 69.6654 74.8926 69.8272 74.5555C69.9845 74.2184 70.3891 74.0746 70.7261 74.2364L75.6027 76.5465C75.9398 76.7038 76.0836 77.1083 75.9218 77.4454C75.8049 77.6835 75.5622 77.8274 75.3105 77.8274Z" fill="#C6CEDB"/>
<path d="M117.024 14.7907C116.71 14.7907 116.404 14.6244 116.238 14.3278L112.354 7.30324C112.116 6.87179 112.273 6.32348 112.705 6.08528C113.136 5.84709 113.685 6.00439 113.923 6.43584L117.806 13.4604C118.044 13.8919 117.887 14.4402 117.456 14.6784C117.321 14.7548 117.172 14.7907 117.024 14.7907Z" fill="#F2643A"/>
<path d="M135.218 11.2762C134.723 11.2762 134.323 10.8762 134.323 10.3818V0.894365C134.323 0.399992 134.723 0 135.218 0C135.712 0 136.112 0.399992 136.112 0.894365V10.3818C136.117 10.8762 135.717 11.2762 135.218 11.2762Z" fill="#F2643A"/>
<path d="M154.975 13.739C154.809 13.739 154.643 13.6941 154.495 13.5997C154.077 13.3346 153.955 12.7818 154.22 12.3638L159.807 3.58193C160.072 3.16396 160.63 3.04262 161.043 3.30778C161.461 3.57294 161.582 4.12574 161.317 4.54371L155.731 13.3256C155.56 13.5907 155.272 13.739 154.975 13.739Z" fill="#F2643A"/>
<path d="M18.6118 162.456C18.5624 162.456 18.5174 162.451 18.468 162.442C18.0859 162.366 17.8387 161.988 17.9196 161.606C19.6321 153.31 25.421 147.988 25.6637 147.768C25.9513 147.503 26.4008 147.525 26.6615 147.818C26.9221 148.11 26.9042 148.555 26.612 148.815C26.5536 148.865 20.9175 154.06 19.304 161.889C19.2365 162.226 18.9399 162.456 18.6118 162.456Z" fill="#C6CEDB"/>
<path d="M17.0793 153.103C16.9939 153.103 16.9085 153.089 16.8276 153.058C16.4636 152.919 16.2793 152.51 16.4186 152.146C19.5827 143.836 26.3605 140.209 26.6436 140.06C26.9897 139.876 27.4167 140.011 27.5965 140.357C27.7762 140.703 27.6459 141.13 27.2998 141.314C27.2324 141.35 20.7019 144.86 17.74 152.649C17.6321 152.932 17.3625 153.103 17.0793 153.103Z" fill="#C6CEDB"/>
<path d="M133.599 171.44C133.599 171.44 135.779 164.635 138.83 162.501C141.882 160.366 144.597 161.242 144.022 164.267C143.356 167.741 142.013 167.597 140.997 179.817C140.453 186.334 140.934 195.772 139.064 204.495C138.412 207.533 135.653 214.203 135.653 214.203L140.997 234.499L103.086 240.009L100.82 225.636C100.82 225.636 90.7617 218.252 87.8447 205.372C87.8447 205.372 107.18 212.81 111.553 213.763C115.019 214.518 118.057 211.749 119.275 209.614C120.493 207.47 133.599 171.44 133.599 171.44Z" fill="#FFC927"/>
<path d="M146.148 100.268L152.193 102.591C156.306 103.985 158.769 109.261 157.191 113.31L119.428 209.246C117.873 213.227 113.347 215.156 109.397 213.506L103.419 211.376" fill="#576295"/>
<path d="M54.7254 181.754L96.5334 90.569C98.1919 87.0769 102.201 85.378 105.859 86.6185L147.744 100.798C151.856 102.191 153.978 106.735 152.4 110.78L114.637 207.614C113.082 211.596 108.556 213.524 104.61 211.879L58.6761 192.055C54.658 190.378 52.8602 185.686 54.7254 181.754Z" fill="#576295"/>
<path d="M107.541 213.178C106.457 213.178 105.37 212.962 104.336 212.531L58.3931 192.702C56.2762 191.821 54.6537 190.149 53.8312 188.001C53.0087 185.853 53.0941 183.529 54.0784 181.453L95.8863 90.2726C97.7021 86.4479 102.084 84.5918 106.084 85.9491L147.969 100.129C150.144 100.866 151.874 102.416 152.845 104.497C153.816 106.578 153.892 108.901 153.057 111.041L115.294 207.875C114.471 209.983 112.876 211.628 110.795 212.513C109.747 212.953 108.646 213.178 107.541 213.178ZM103.419 86.9198C100.817 86.9198 98.3448 88.3985 97.1762 90.8703L55.3683 182.055C54.5503 183.781 54.4739 185.713 55.1615 187.493C55.8447 189.277 57.1931 190.662 58.9549 191.394L104.898 211.223C106.619 211.942 108.525 211.933 110.251 211.201C111.977 210.468 113.303 209.102 113.986 207.354L151.749 110.519C152.441 108.744 152.378 106.816 151.573 105.09C150.769 103.364 149.331 102.075 147.524 101.463L105.639 87.2839C104.902 87.0412 104.156 86.9198 103.419 86.9198Z" fill="white"/>
<path d="M60.3389 171.179L119.257 196.509L150.454 114.524L95.441 94.8296L60.3389 171.179Z" fill="white"/>
<path d="M95.8083 93.6868L59.4834 172.951L61.1995 173.737L97.5244 94.4732L95.8083 93.6868Z" fill="#576295"/>
<path d="M96.9238 130.065C96.9238 123.445 102.29 118.079 108.911 118.079C115.531 118.079 120.902 123.445 120.902 130.065C120.902 136.685 108.915 149.363 108.915 149.363C108.915 149.363 96.9238 136.685 96.9238 130.065Z" fill="#00ADA8"/>
<path d="M108.911 133.773C111.522 133.773 113.639 131.656 113.639 129.045C113.639 126.434 111.522 124.317 108.911 124.317C106.3 124.317 104.183 126.434 104.183 129.045C104.183 131.656 106.3 133.773 108.911 133.773Z" fill="white"/>
<path d="M101.693 137.247C96.7534 140.2 74.8741 156.047 74.8741 156.047C74.8741 156.047 79.4225 149.292 75.6471 146.591C71.5886 143.687 64.285 151.301 64.285 151.301C64.285 151.301 67.9256 146.366 64.8963 143.741C61.849 141.099 56.7477 145.458 56.7477 145.458C56.7477 145.458 59.6107 142.33 56.8601 139.908C54.4196 137.759 52.4869 139.651 48.8778 142.357C47.0081 143.759 38.9899 148.137 28.0637 163.602C24.3333 168.878 23.8254 177.089 20.6208 179.835C12.252 187.003 0 196.324 0 196.324L22.4591 223.506L50.5138 199.044C58.5141 197.601 70.4065 195.151 73.755 192.805C78.9371 189.179 89.5621 182.702 93.1892 181.925C96.8163 181.147 98.3714 175.188 91.8948 174.437C88.3846 174.028 81.3327 175.215 74.6718 177.35C83.0856 168.707 105.122 146.033 107.698 143.09C110.857 139.472 107.509 133.768 101.693 137.247Z" fill="#FFC927"/>
<path d="M44.9003 150.024C44.5677 150.024 44.2756 149.79 44.2082 149.453C44.1318 149.071 44.379 148.698 44.7655 148.622L50.1994 147.534C50.5769 147.458 50.9544 147.705 51.0309 148.092C51.1073 148.474 50.8601 148.847 50.4735 148.923L45.0397 150.011C44.9947 150.02 44.9453 150.024 44.9003 150.024Z" fill="#F88627"/>
<path d="M50.3345 154.806C50.0064 154.806 49.7142 154.577 49.6423 154.244C49.5614 153.862 49.8086 153.485 50.1906 153.404L56.856 152.002C57.2425 151.921 57.6156 152.168 57.6965 152.55C57.7774 152.932 57.5302 153.31 57.1481 153.39L50.4828 154.793C50.4288 154.802 50.3794 154.806 50.3345 154.806Z" fill="#F88627"/>
</svg>
