<svg xmlns="http://www.w3.org/2000/svg" width="745" height="71" viewBox="0 0 745 71">
  <g fill="#D3D9E5">
    <path d="M732.037,50.076 C728.587,50.076 725.597,48.5877 722.686,47.1418 C718.781,45.1963 715.096,43.3624 710.601,45.4142 C701.914,49.3744 694.486,51.2136 686.484,47.3172 C679.412,43.878 676.234,44.601 670.275,46.4189 L669.501,46.6581 C663.663,48.4495 658.619,50.0016 652.075,44.973 C647.553,41.5019 645.452,33.6136 649.665,27.8408 C655.044,20.468 660.26,20.989 670.881,23.9338 C680.577,26.6235 682.433,25.4275 687.958,21.8714 L688.345,21.6215 C693.483,18.3205 700.377,15.3438 708.092,21.6959 C714.145,26.6767 716.497,26.4747 723.496,25.874 L724.228,25.8102 C724.845,25.7571 725.446,25.7039 726.026,25.6508 C732.664,25.0554 737.457,24.6248 741.989,28.872 C744.702,31.4129 745.674,36.1278 744.409,40.6036 C743.019,45.5206 739.334,48.8907 734.295,49.8528 C733.516,50.0123 732.769,50.076 732.037,50.076 Z M714.6,42.3737 C717.867,42.3737 720.773,43.8196 723.611,45.2335 C726.977,46.9079 730.155,48.492 733.913,47.7744 C738.147,46.9664 741.242,44.1438 742.402,40.0295 C743.437,36.3671 742.684,32.4229 740.573,30.4455 C736.72,26.8361 732.539,27.2136 726.209,27.777 C725.623,27.8302 725.022,27.8833 724.4,27.9365 L723.668,28.0003 C716.675,28.6009 713.481,28.872 706.775,23.3544 C701.49,19.0062 696.316,19.0275 689.463,23.4288 L689.082,23.6733 C683.311,27.3837 680.917,28.9199 670.338,25.9856 C660.255,23.1896 656.005,22.7325 651.353,29.1059 C647.867,33.8793 649.602,40.4016 653.345,43.2721 C659.047,47.6468 663.182,46.3764 668.911,44.6169 L669.689,44.3777 C676.364,42.3418 680.055,41.8209 687.398,45.393 C693.713,48.4654 699.98,47.9232 709.759,43.4687 C711.463,42.6927 713.073,42.3737 714.6,42.3737 Z"/>
    <path d="M670.024 60.4205C667.003 60.4205 664.39 59.1235 661.849 57.8584 658.342 56.1149 655.316 54.6052 651.468 56.3594 643.889 59.8146 637.408 61.4146 630.409 58.0125 624.314 55.0464 621.575 55.6683 616.437 57.2418L615.763 57.4491C610.656 59.0172 606.25 60.3727 600.505 55.966 596.528 52.9149 594.683 45.9726 598.389 40.8962 603.109 34.4271 607.672 34.8789 616.955 37.4517 624.382 39.5141 626.52 38.0683 630.404 35.453 630.968 35.0703 631.564 34.6663 632.212 34.2516 636.713 31.3599 642.75 28.7553 649.519 34.3261 655.127 38.94 657.046 39.6045 663.229 39.0836 663.762 39.041 664.285 38.9932 664.787 38.9454 670.584 38.4244 674.776 38.047 678.759 41.7786 681.153 44.0218 682.015 48.1733 680.902 52.1069 679.684 56.4285 676.443 59.3946 672.011 60.2345 671.331 60.3621 670.667 60.4205 670.024 60.4205zM654.892 53.4517C657.757 53.4517 660.292 54.7169 662.774 55.9501 665.675 57.3959 668.414 58.7567 671.634 58.1454 675.256 57.4544 677.907 55.0411 678.9 51.5168 679.783 48.3859 679.145 45.0211 677.352 43.3361 674.049 40.2424 670.636 40.5507 664.985 41.0557 664.478 41.1035 663.956 41.146 663.417 41.1939 656.669 41.768 654.254 40.9334 648.223 35.9686 642.52 31.2749 637.507 33.3693 633.352 36.043 632.719 36.447 632.134 36.8404 631.585 37.2178 627.487 39.9872 624.78 41.8158 616.432 39.4982 607.562 37.037 604.102 36.665 600.093 42.156 597.113 46.2384 598.598 51.8092 601.791 54.2597 606.684 58.0179 610.066 56.976 615.183 55.4079L615.857 55.2006C621.69 53.4252 624.915 52.968 631.334 56.0936 636.775 58.7408 642.185 58.273 650.637 54.4192 652.132 53.7281 653.544 53.4517 654.892 53.4517zM172.541 54.294C166.77 54.294 160.989 52.2103 156.494 49.1538 149.343 44.3006 147.19 42.8335 134.013 46.1239 126.737 47.9418 121.677 48.3086 117.61 47.3199 113.22 46.2514 110.037 43.5883 107.58 38.9371 105.567 35.1205 105.155 30.8095 106.414 26.8015 107.59 23.0593 110.152 19.8699 113.439 18.052 122.043 13.2998 127.411 15.1443 134.201 17.4779 134.886 17.7118 135.586 17.9563 136.313 18.1955 144.252 20.8427 150.091 19.3331 158.721 15.4101 168.176 11.1098 174.448 11.8805 187.903 19.0035 193.694 22.0706 198.592 20.1995 203.772 18.2115 208.23 16.5051 212.835 14.7403 218.271 15.9204 224.45 17.2653 228.819 21.1191 230.571 26.775 232.274 32.2873 231.01 38.6235 227.419 42.5411 221.376 49.1325 215.12 48.1651 204.582 45.8794 195.335 43.8754 193.673 43.5139 185.336 50.0202 181.479 53.0448 177.01 54.294 172.541 54.294zM144.817 42.0734C149.782 42.0734 152.757 43.87 157.743 47.2561 165.05 52.2209 175.996 54.4428 183.967 48.2129 192.816 41.2973 195.21 41.5099 205.052 43.6468 215.888 45.9963 220.796 46.4162 225.772 40.989 228.83 37.6561 229.896 32.2235 228.422 27.4713 226.927 22.6341 223.153 19.3277 217.801 18.1636 213.013 17.1218 208.91 18.6952 204.566 20.359 199.151 22.4321 193.553 24.5796 186.868 21.0394 174.02 14.2407 168.422 13.5124 159.646 17.5045 150.488 21.6719 144.258 23.256 135.617 20.3802 134.886 20.1357 134.175 19.8912 133.49 19.6573 126.731 17.3344 122.262 15.7982 114.521 20.0719 109.179 23.0221 105.771 30.666 109.571 37.8687 113.706 45.7093 119.963 47.288 133.479 43.9126 138.429 42.6687 141.958 42.0734 144.817 42.0734z"/>
    <path d="M269.506 31.7609C266.255 31.7609 263.443 30.3629 260.709 29.0021 256.935 27.1256 253.679 25.5044 249.544 27.3914 241.39 31.107 234.417 32.8346 226.885 29.1722 220.331 25.9828 217.383 26.6526 211.853 28.3429L211.131 28.5662C205.638 30.2512 200.897 31.7077 194.719 26.9662 190.438 23.6811 188.452 16.2127 192.44 10.7536 197.52 3.79541 202.428 4.27913 212.417 7.04857 220.409 9.26518 222.709 7.71302 226.885 4.89574 227.492 4.48644 228.135 4.05056 228.83 3.60405 233.675.494413 240.167-2.30692 247.448 3.68378 253.48 8.64857 255.545 9.37149 262.199 8.80272 262.774 8.75488 263.333 8.70172 263.877 8.65388 270.113 8.09574 274.623 7.69176 278.904 11.705 281.481 14.1183 282.406 18.5835 281.209 22.82 279.897 27.4712 276.411 30.6605 271.644 31.5695 270.912 31.6971 270.201 31.7609 269.506 31.7609zM253.224 24.2605C256.303 24.2605 259.037 25.6213 261.702 26.9502 264.823 28.5024 267.771 29.9748 271.231 29.3104 275.13 28.5662 277.979 25.9668 279.045 22.1821 279.997 18.812 279.312 15.1921 277.378 13.3848 273.824 10.0572 270.154 10.3868 264.07 10.9343 263.521 10.9821 262.957 11.0353 262.377 11.0831 255.111 11.6997 252.519 10.8067 246.027 5.4592 239.895.409363 234.496 2.66318 230.027 5.53893 229.347 5.97481 228.72 6.40006 228.124 6.80405 223.713 9.78079 220.801 11.7476 211.821 9.25986 202.277 6.61269 198.555 6.21402 194.243 12.1197 191.039 16.5104 192.633 22.5064 196.072 25.1429 201.336 29.1828 204.974 28.0665 210.483 26.3761L211.21 26.1529C217.482 24.2393 220.953 23.7502 227.863 27.1097 233.717 29.9589 239.54 29.4539 248.63 25.3077 250.255 24.5582 251.776 24.2605 253.224 24.2605zM480.269 46.4867C474.729 46.4867 469.235 44.8601 466.151 42.6648 459.55 37.9657 450.225 37.4714 443.471 41.4634 435.824 45.9817 428.689 45.599 421.016 40.2461 414.357 35.6003 407.034 35.6056 399.251 40.2621 390.867 45.28 380.617 44.7219 373.142 38.8481 369.274 35.8076 367.142 31.6401 367.13097 27.1112 367.121 22.2474 369.588 17.3783 373.733 14.0879 383.115 6.64069 396.314 7.58156 403.966 12.2487 407.473 14.3856 411.921 16.3524 420.368 12.6314 427.722 9.38887 436.054 5.71577 444.512 12.2381 452.603 18.4786 459.037 19.4833 465.383 15.5019 475.983 8.84136 485.099 6.49717 495.14 16.7085 498.255 19.8766 499.802 24.262 499.494 29.062 499.144 34.4893 496.442 39.6827 492.265 42.9465 489.014 45.4767 484.629 46.4867 480.269 46.4867zM453.69 36.6581C458.504 36.6581 463.376 38.0986 467.348 40.9212 472.418 44.5305 484.582 46.2581 490.995 41.2508 494.701 38.3538 497.1 33.7451 497.409 28.9185 497.675 24.7404 496.348 20.9398 493.661 18.2075 484.561 8.95299 476.511 10.9995 466.481 17.3039 459.393 21.7584 452.012 20.6846 443.252 13.9284 436.305 8.57027 429.735 10.8188 421.204 14.5769 412.292 18.5052 407.139 16.6553 402.9 14.0666 395.843 9.76097 383.675 8.89452 375.029 15.757 371.391 18.6487 369.222 22.8853 369.232958 27.1006 369.238 29.8328 370.147 33.793 374.433 37.1631 381.229 42.5053 390.559 42.9996 398.201 38.4282 406.741 33.3146 414.822 33.3358 422.208 38.492 429.134 43.3239 435.563 43.6854 442.426 39.6242 445.776 37.6362 449.712 36.6581 453.69 36.6581zM3.96725 49.9383C4.85061 49.5449 6.67484 48.9496 7.97636 48.5403 7.89273 47.8493 7.7725 47.1157 7.31252 46.3024 5.42559 42.9695 0 41.0612 0 41.0612 0 41.0612 0 41.0612 4.7409 40.2426 8.25864 39.6366 10.6944 40.5828 13.3602 42.5017 14.4474 41.3057 16.5433 38.9881 18.5348 36.7821 20.3015 34.8206 23.7095 34.5123 26.2446 34.8844 31.7852 35.6924 39.3852 37.7761 40.5352 38.127 42.213 38.6373 41.361 40.3542 40.1274 40.2798 38.8886 40.2054 31.0848 39.5941 29.318 39.9662 27.5513 40.3383 25.3613 43.129 24.342 45.5635 23.5475 47.4665 22.868 49.6247 22.5074 50.422 22.6014 50.4273 22.6955 50.4433 22.7896 50.4699L30.6666 52.7503C31.3723 52.9523 31.78 53.7071 31.5814 54.4194 31.3827 55.137 30.6405 55.5516 29.9401 55.3496L24.3002 53.7177 24.2897 53.7443 29.7101 56.9284C30.3425 57.3005 30.5621 58.1297 30.1962 58.7729 29.8303 59.4161 29.0149 59.6393 28.3825 59.2672L22.5334 55.8333 25.748 59.8732C26.208 60.4526 26.1192 61.3085 25.5494 61.7762 24.9797 62.244 24.1382 62.1537 23.6782 61.5742L18.5244 55.0998C18.4721 55.0307 18.4251 54.9563 18.3833 54.8818 18.0749 54.8234 17.7821 54.7649 17.5051 54.7064 16.0677 55.0998 14.0501 55.6579 13.334 55.9078 11.2275 56.6307 9.51833 57.2845 7.9241 60.6865 6.97802 62.7012 6.18354 64.3277 5.3995 68.5218 4.98657 70.7331 3.22502 70.4195 2.79118 68.4208 2.27894 66.0713 1.65172 60.1284 1.30151 56.535 1.02448 53.6752 1.48967 51.0493 3.96725 49.9383z"/>
  </g>
</svg>
