<svg xmlns="http://www.w3.org/2000/svg" viewBox="0 0 229 195">
  <g fill="none">
    <path fill="#E8EBEF" d="M159.938,91.2823 C131.269,90.6835 50.0128,80.55 27.036,94.8456 C-11.0324,118.527 -6.72715,171.293 26.404,183.665 C59.5352,196.036 175.59,198.699 195.339,189.581 C238.785,169.522 207.733,92.2804 159.938,91.2823 Z" opacity=".5"/>
    <path fill="#591429" d="M192.378,140.706 L200.221,166.405 L160.927,177.188 L156.927,163.007 C156.906,163.011 148.477,166.056 141.449,166.056 C137.933,166.056 134.769,165.296 133.186,163.007 C130.964,159.788 129.895,152.742 129.39,146.159 C130.277,145.823 140.02,142.043 137.963,140.115 C135.863,138.145 129.356,139.041 129.025,139.087 C128.902,134.87 128.966,131.842 128.966,131.842 L119.889,130.02 C117.2,129.485 116.347,126.053 118.472,124.316 L129.496,115.312 C129.496,115.312 124.22,86.4152 136.881,74.791 C149.542,63.171 178.029,56.8344 193.328,68.981 C208.628,81.1319 217.068,102.032 207.571,119.313 C198.075,136.594 192.378,140.706 192.378,140.706 Z"/>
    <path fill="#FFC927" d="M28.686,163.746 C29.9119,161.975 31.2904,144.145 31.2904,144.145 C31.2904,144.145 15.5159,130.818 14.43,111.018 C13.1321,87.3493 33.9075,69.9873 59.0305,72.1363 C84.1535,74.2854 87.1905,82.5077 91.7205,90.4582 C96.2506,98.4087 91.9029,119.946 91.9029,119.946 L99.4021,125.102 C101.659,126.652 101.192,130.113 98.6089,131.013 L90.1808,134.19 C90.1808,134.19 90.8807,146.702 83.9669,151.51 C80.3191,154.045 72.9429,154.283 66.5508,154.024 L64.5318,172.202 L28.686,163.746 Z"/>
    <path fill="#576194" d="M132.66,79.3183 C131.523,88.6788 137.521,93.4653 150.789,97.1942 C158.623,99.3984 170.652,108.207 170.652,108.207 C170.652,108.207 173.63,100.269 178.279,100.541 C183.402,100.838 186.104,106.725 184.242,112.985 C182.758,117.988 178.071,121.577 178.071,121.577 C178.071,121.577 182.232,137.55 191.356,142.332 C191.313,141.699 192.242,141.177 192.759,140.812 C196.327,138.28 210.345,127.077 212.072,106.032 C214.052,81.892 199.44,61.3235 173.766,59.2127 C148.537,57.1443 133.797,69.9577 132.66,79.3183 Z"/>
    <path fill="#1E4847" d="M85.5107,115.746 C86.6772,115.529 87.4449,114.408 87.2286,113.24 C87.0123,112.072 85.8925,111.303 84.726,111.52 C83.5596,111.736 82.7918,112.858 83.0082,114.025 C83.2245,115.193 84.3443,115.962 85.5107,115.746 Z"/>
    <path fill="#576194" d="M138.476,112.645 C139.583,112.505 140.363,111.494 140.223,110.39 C140.083,109.281 139.074,108.5 137.971,108.64 C136.864,108.78 136.083,109.791 136.223,110.895 C136.359,111.999 137.368,112.785 138.476,112.645 Z"/>
    <path fill="#FF6333" d="M89.1756,141.967 C89.1077,141.967 89.0356,141.958 88.9678,141.941 C80.2513,139.746 78.7582,133.982 78.6988,133.736 C78.5885,133.282 78.8685,132.819 79.3223,132.708 C79.7762,132.598 80.2343,132.874 80.3446,133.328 C80.3997,133.545 81.7231,138.361 89.3834,140.293 C89.8373,140.408 90.113,140.871 89.9985,141.325 C89.9009,141.712 89.5531,141.967 89.1756,141.967 Z"/>
    <path fill="#C82332" d="M94.0406,88.6915 C88.0811,74.0179 71.8739,63.7442 53.4823,63.1072 C34.6369,62.4531 15.995,74.4129 10.2392,89.0398 C4.48331,103.667 6.38355,140.977 6.38355,140.977 L60.4725,152.877 L68.3322,98.0436 L73.7317,105.132 L79.5343,97.347 L84.603,105.259 L88.4374,97.3003 L95.839,104.605 C95.839,104.601 96.9673,95.9073 94.0406,88.6915 Z"/>
    <path fill="#D3D9E5" d="M101.383 66.4836C93.4426 66.4836 84.4971 66.0037 77.7317 64.3006 58.3136 59.4165 49.173 50.0942 49.7795 35.7985 50.0679 29.0117 52.562 23.0148 56.9945 18.4535 61.0367 14.2956 66.483 11.5987 72.3321 10.8597 82.1769 9.61534 95.4574 14.0663 100.484 30.7063 110.188 62.8354 120.042 63.9906 120.139 63.9948 120.589 64.0076 120.949 64.3643 120.962366 64.8145 120.975 65.2647 120.64 65.6427 120.194 65.6852 119.575 65.7404 111.257 66.4836 101.383 66.4836zM75.6872 12.342C74.6523 12.342 73.6046 12.4099 72.54 12.5416 67.0683 13.2338 61.9784 15.7524 58.2033 19.6384 54.0678 23.894 51.7391 29.5086 51.4677 35.875 51.1411 43.5707 53.932 49.8436 59.7685 54.5154 64.0865 57.9725 70.0968 60.6396 78.1431 62.6612 89.8839 65.613 108.954 64.7635 116.657 64.2539 112.636 61.5443 105.667 53.7339 98.8634 31.1989 95.3174 19.4643 86.4058 12.342 75.6872 12.342zM147.15 75.4745C147.065 75.4745 146.98 75.4618 146.895 75.4363 146.624 75.3514 140.177 73.2788 132.448 67.6345 125.318 62.4275 115.762 53.0797 110.71 38.1046 107.69 29.1517 108.67 19.1881 113.331 11.4457 117.022 5.31294 122.498 1.3844 128.75.373595 137.899-1.10439 146.564 1.86007 151.938 8.30288 157.486 14.9538 158.797 24.085 155.531 33.3563 146.191 59.8623 147.977 74.3703 147.994 74.5147 148.032 74.8035 147.922 75.0881 147.701 75.2749 147.54 75.4066 147.345 75.4745 147.15 75.4745zM133.471 1.68169C132.016 1.68169 130.527 1.80061 129.013 2.04694 123.265 2.9728 118.205 6.62104 114.778 12.3206 110.371 19.6383 109.45 29.0753 112.313 37.5609 120.529 61.9094 141.004 71.3336 146.195 73.3722 145.949 69.1591 145.971 55.3817 153.932 32.7915 156.994 24.102 155.794 15.5696 150.636 9.39013 146.458 4.37858 140.355 1.68169 133.471 1.68169zM160.816 84.831C160.761 84.831 160.706 84.8267 160.651 84.814 160.307 84.746 160.04 84.47 159.98 84.1217 159.963 84.0325 158.483 74.8206 159.501 62.8651 160.447 51.8015 163.785 36.0321 174.326 23.7369 183.797 12.6902 194.605 7.67869 204.746 9.61961 212.555 11.1146 218.985 16.6315 221.522 24.0129 223.876 30.855 223.532 37.4252 220.534 43.0016 216.788 49.9668 209.128 55.11 198.384 57.8748 177.719 63.1922 170.309 70.3655 161.524 84.4317 161.38 84.6823 161.104 84.831 160.816 84.831zM200.437 10.9065C192.094 10.9065 183.42 15.7396 175.615 24.8411 158.861 44.3734 160.489 73.2577 161.363 81.548 169.74 68.6326 177.884 61.4041 197.972 56.2355 208.246 53.5938 215.537 48.7394 219.053 42.1989 221.823 37.0472 222.124 30.9484 219.931 24.565 217.624 17.8589 211.541 12.6478 204.437 11.2845 203.113 11.0296 201.777 10.9065 200.437 10.9065z"/>
    <path fill="#00ADA8" d="M207.491,47.3845 C207.465,47.3845 207.444,47.3845 207.419,47.3845 C203.601,47.3463 200.522,44.2035 200.56,40.3811 L201.048,40.3854 L200.56,40.3811 C200.577,38.5294 201.315,36.7923 202.638,35.497 C203.957,34.2016 205.709,33.4881 207.554,33.5136 C209.404,33.5306 211.138,34.2696 212.432,35.5947 C213.726,36.9197 214.43,38.6653 214.413,40.517 C214.396,42.3687 213.658,44.1058 212.335,45.4011 C211.037,46.6795 209.315,47.3845 207.491,47.3845 Z M207.486,34.4904 C205.921,34.4904 204.445,35.0935 203.321,36.1935 C202.184,37.3062 201.552,38.797 201.535,40.3896 C201.502,43.6726 204.144,46.3737 207.427,46.4035221 C209.018,46.4077 210.515,45.8131 211.652,44.7004 C212.788,43.5876 213.42,42.0969 213.437,40.5043 C213.454,38.9116 212.848,37.4124 211.737,36.2742 C210.625,35.136 209.136,34.5032 207.546,34.4862 C207.529,34.4904 207.508,34.4904 207.486,34.4904 Z"/>
    <path fill="#00ADA8" d="M195.759,41.2475 C195.623,41.2475 195.496,41.1922 195.402,41.0903 L186.372,31.4155 C186.24,31.2711 186.202,31.063 186.283,30.8846 C186.363,30.7062 186.529,30.5916 186.737,30.5916 L200.59,30.7275 C200.738,30.7275 200.882,30.7997 200.971,30.9186 L208,40.0965 C208.11,40.2409 208.131,40.4363 208.055,40.6061 C207.979,40.776 207.813,40.878 207.627,40.8865 L195.775,41.2475 C195.767,41.2475 195.763,41.2475 195.759,41.2475 Z M187.861,31.5854 L195.962,40.2621 L206.642,39.9351 L200.339,31.7043 L187.861,31.5854 Z"/>
    <path fill="#00ADA8" d="M195.758,41.2474 C195.682,41.2474 195.606,41.2304 195.538,41.1922 C195.296,41.069 195.203,40.7717 195.326,40.5339 L200.178,31.0544 C200.301,30.8123 200.594,30.7189 200.835,30.842 C201.077,30.9652 201.171,31.2625 201.048,31.5003 L196.195,40.9798 C196.106,41.1497 195.932,41.2474 195.758,41.2474 Z"/>
    <path fill="#00ADA8" d="M195.852 43.3881C195.843 43.3881 195.835 43.3881 195.826 43.3881 195.139 43.3796 194.49 43.1078 194.011 42.6151 193.527 42.1224 193.264 41.4726 193.273 40.7804 193.285 39.3661 194.443 38.2236 195.852 38.2236 195.86 38.2236 195.869 38.2236 195.877 38.2236 197.298 38.2364 198.447 39.4086 198.43 40.8313 198.418 42.2456 197.264 43.3881 195.852 43.3881zM195.852 39.1962C194.974 39.1962 194.257 39.9055 194.248 40.7846 194.244 41.2136 194.405 41.617 194.706 41.9228 195.007 42.2286 195.406 42.3985 195.835 42.4027 195.839 42.4027 195.843 42.4027 195.852 42.4027 196.73 42.4027 197.446 41.6935 197.455 40.8143 197.463 39.931 196.751 39.2005 195.869 39.192 195.86 39.1962 195.856 39.1962 195.852 39.1962zM181.973 47.1297C181.952 47.1297 181.927 47.1297 181.905 47.1297 181.621 47.1255 181.324 47.1042 181.027 47.066 179.585 46.8664 178.266 46.2293 177.21 45.227 175.819 43.9062 175.03 42.046 175.047 40.1263 175.085 36.3252 178.185 33.2588 181.973 33.2588 181.994 33.2588 182.02 33.2588 182.041 33.2588 185.859 33.297 188.938 36.4398 188.9 40.2622 188.883 41.995 188.221 43.6514 187.042 44.9212 185.922 46.1232 184.412 46.8919 182.788 47.0788 182.508 47.117 182.236 47.1297 181.973 47.1297zM181.969 34.2399C178.716 34.2399 176.052 36.873 176.018 40.139 176.001 41.7869 176.68 43.3838 177.876 44.522 178.784 45.3842 179.916 45.932 181.155 46.1019 181.409 46.1359 181.664 46.1529 181.91 46.1571 182.16 46.1614 182.414 46.1444 182.669 46.1189 184.06 45.9533 185.358 45.295 186.321 44.2629 187.335 43.1715 187.903 41.7487 187.92 40.258 187.954 36.975 185.311 34.2738 182.028 34.2399 182.011 34.2399 181.99 34.2399 181.969 34.2399z"/>
    <path fill="#00ADA8" d="M181.969,40.6826 C181.77,40.6826 181.583,40.5595 181.511,40.3599 C181.418,40.105 181.549,39.8247 181.804,39.7313 C181.812,39.727 183.267,39.1197 184.54,36.0406 C185.358,34.0572 186.05,31.5259 186.16,31.131 C186.173,30.7402 186.24,28.4001 186.206,27.4488 C186.198,27.1769 186.406,26.9519 186.677,26.9434 C186.94,26.9476 187.174,27.143 187.182,27.4148 C187.22,28.4808 187.135,31.1097 187.131,31.2202 C187.131,31.2584 187.123,31.2924 187.114,31.3306 C187.084,31.4453 186.351,34.2101 185.439,36.4143 C183.984,39.9479 182.211,40.6274 182.135,40.6529 C182.084,40.6741 182.024,40.6826 181.969,40.6826 Z"/>
    <path fill="#00ADA8" d="M186.677 27.8013C186.414 27.8013 186.194 27.5889 186.19 27.3213 186.185 27.0495 186.397 26.8287 186.669 26.8202L190.724 26.731C190.991 26.7183 191.216 26.9391 191.224 27.2109 191.229 27.4827 191.016 27.7036 190.745 27.7121L186.69 27.8013C186.686 27.8013 186.682 27.8013 186.677 27.8013zM178.648 40.7294C178.393 40.7294 178.181 40.534 178.16 40.2792 178.152 40.173 178.147 40.0626 178.147 39.9521 178.16 38.5209 179.013 37.2128 180.315 36.6224 180.561 36.512 180.849 36.6224 180.96 36.8688 181.07 37.1151 180.964 37.4039 180.718 37.5143 179.759 37.9475 179.136 38.9074 179.123 39.9606 179.123 40.0413 179.123 40.122 179.132 40.2027 179.153 40.4703 178.953 40.7081 178.682 40.7294 178.673 40.7294 178.661 40.7294 178.648 40.7294zM210.901 39.0518C210.689 39.0518 210.494 38.9117 210.43 38.6951 210.146 37.68 209.289 36.9198 208.25 36.7499 208.169 36.7372 208.089 36.7287 208.012 36.7244 207.745 36.7074 207.542 36.4696 207.559 36.202 207.576 35.9302 207.813 35.7306 208.08 35.7476 208.186 35.7561 208.297 35.7688 208.403 35.7858 209.815 36.0152 210.977 37.0514 211.368 38.4317 211.44 38.6908 211.291 38.9626 211.028 39.0348 210.986 39.0476 210.943 39.0518 210.901 39.0518zM200.624 31.8826C200.581 31.8826 200.543 31.8783 200.501 31.8656 200.238 31.7977 200.085 31.5301 200.153 31.271L200.798 28.7865C200.865 28.5232 201.133 28.366 201.396 28.4382 201.659 28.5062 201.811 28.7737 201.743 29.0328L201.099 31.5173C201.039 31.7339 200.84 31.8826 200.624 31.8826z"/>
    <path fill="#00ADA8" d="M202.354 29.4151C202.35 29.4151 202.346 29.4151 202.341 29.4151L199.843 29.3896C199.13 29.3811 198.558 28.795 198.561979 28.0815 198.566 27.7248 198.702 27.402 198.952 27.1599 199.198 26.9178 199.525 26.7734 199.868 26.7904L202.367 26.8159C203.079 26.8244 203.652 27.4105 203.648021 28.124 203.639 28.8417 203.058 29.4151 202.354 29.4151zM199.847 28.4128L202.346 28.4383C202.346 28.4383 202.346 28.4383 202.35 28.4383 202.519 28.4383 202.664 28.2939 202.664 28.124 202.664 27.9414 202.524 27.797 202.35 27.7927L199.851 27.7672C199.767 27.7715 199.69 27.797 199.627 27.8564 199.563 27.9159 199.533 27.9966 199.533 28.0773 199.538 28.2641 199.678 28.4085 199.847 28.4128zM69.3968 43.6981C69.1254 43.6981 68.9048 43.4772 68.9048 43.2054 68.9048 42.9336 69.1254 42.7127 69.3968 42.7127L86.4693 42.666C86.7407 42.666 86.9613 42.8869 86.9613 43.1587 86.9613 43.4305 86.7407 43.6513 86.4693 43.6513L69.3968 43.6981z"/>
    <path fill="#00ADA8" d="M55.9637,43.7364 C55.828,43.7364 55.6965,43.6812 55.6032,43.5792 C55.5099,43.4773 55.4632,43.3456 55.4717,43.2055 C55.4802,43.0908 55.688,40.3684 55.8577,38.9797 C56.0528,37.3743 56.952,36.1426 58.3178,35.6032 C59.4715,35.1488 60.9137,34.8515 62.4364,34.5415 C62.8563,34.4565 63.2805,34.3673 63.7046,34.2781 C65.0111,33.9936 66.0375,33.8577 66.4786,33.8025 L71.5558,26.5527 C71.6492,26.4211 71.7976,26.3446 71.9588,26.3446 L93.7182,26.2852 C93.8921,26.2852 94.0533,26.3786 94.1424,26.5272 C94.2187,26.6547 95.9748,29.6786 97.0988,34.0021 C98.2949,38.6059 98.1125,42.9677 98.1041,43.1503 C98.0913,43.4136 97.875,43.6175 97.612,43.6217 L94.7532,43.6302 C94.4817,43.6302 94.2612,43.4093 94.2612,43.1375 C94.2612,42.8657 94.4817,42.6449 94.7532,42.6449 L97.1327,42.6364 C97.1455,41.392 97.0861,37.8499 96.1487,34.2484 C95.2367,30.7403 93.8667,28.0647 93.4341,27.2662 L72.2218,27.3257 L67.1615,34.55 C67.081,34.6689 66.9495,34.7411 66.8095,34.7581 C66.7968,34.7581 65.5752,34.8812 63.921,35.2422 C63.4926,35.3357 63.0642,35.4206 62.64,35.5098 C61.1597,35.8113 59.7599,36.1001 58.6868,36.5248 C57.6519,36.9326 56.9944,37.8499 56.8417,39.1028 C56.7187,40.1051 56.5703,41.8719 56.5024,42.7553 L61.1215,42.7426 C61.393,42.7426 61.6135,42.9634 61.6135,43.2352 C61.6135,43.507 61.393,43.7279 61.1215,43.7279 L55.9637,43.7364 Z"/>
    <path fill="#00ADA8" d="M69.7998,36.5291 C69.6216,36.5291 69.4604,36.4357 69.3714,36.2785 C69.2823,36.1256 69.2865,35.9345 69.3756,35.7816 L73.3245,29.2029 C73.4136,29.0543 73.5748,28.9651 73.7445,28.9651 L90.8424,28.9863 C91.0248,28.9863 91.1902,29.0883 91.275,29.2454 C92.4033,31.3562 93.1795,33.5901 93.5825,35.8836 C93.6079,36.028 93.5697,36.1724 93.4764,36.2828 C93.3831,36.3932 93.2474,36.4569 93.0989,36.4612 L69.7998,36.5291 Z M74.0286,29.9547 L70.6735,35.5438 L92.5136,35.4843 C92.1276,33.5902 91.4701,31.7384 90.554,29.9759 L74.0286,29.9547 Z"/>
    <path fill="#00ADA8" d="M80.4846 36.3591C80.2131 36.3591 79.9925 36.1382 79.9925 35.8664L79.9756 29.4534C79.9756 29.1815 80.1962 28.9607 80.4676 28.9607 80.7391 28.9607 80.9596 29.1815 80.9596 29.4534L80.9766 35.8664C80.9766 36.1382 80.756 36.3591 80.4846 36.3591zM89.2177 36.321C88.9716 36.321 88.7596 36.1383 88.7299 35.8878L87.9409 29.5257C87.907 29.2538 88.0979 29.0118 88.3693 28.9778 88.6365 28.9438 88.8826 29.1349 88.9165 29.4067L89.7054 35.7689C89.7394 36.0407 89.5485 36.2827 89.277 36.3167 89.2601 36.321 89.2389 36.321 89.2177 36.321zM65.2571 47.58C62.7079 47.58 60.6338 45.5075 60.6252713 42.955 60.621 41.7148 61.1003 40.5511 61.9741 39.672 62.8479 38.7929 64.0101 38.3087 65.2444 38.3044 65.2486 38.3044 65.2529 38.3044 65.2571 38.3044 66.4872 38.3044 67.6494 38.7844 68.5231 39.655 69.4012 40.5299 69.8847 41.6894 69.888926 42.9295 69.8974 45.4862 67.8233 47.5716 65.2698 47.58 65.2656 47.58 65.2614 47.58 65.2571 47.58zM65.2571 39.2898C65.2529 39.2898 65.2486 39.2898 65.2444 39.2898 64.2688 39.294 63.3569 39.6762 62.6697 40.3685 61.9826 41.0608 61.6051 41.9782 61.6092653 42.955 61.6136 44.9639 63.2508 46.599 65.2571 46.599 65.2614 46.599 65.2656 46.599 65.2656 46.599 67.2761 46.5947 68.9091 44.9511 68.9049081 42.938 68.9007 41.9612 68.5189 41.0481 67.8275 40.36 67.1404 39.6678 66.2284 39.2898 65.2571 39.2898z"/>
    <path fill="#00ADA8" d="M65.2572 45.1975C64.0186 45.1975 63.0091 44.1909 63.0049 42.9508 63.0049 42.3477 63.2339 41.7828 63.6581 41.3581 64.0823 40.9334 64.6464 40.6956 65.2487 40.6956 65.8595 40.6956 66.4151 40.9249 66.8393 41.3496 67.2635 41.7743 67.5010131 42.3392 67.5010131 42.9423 67.5052 44.1824 66.5 45.1975 65.2572 45.2017 65.2614 45.1975 65.2614 45.1975 65.2572 45.1975zM65.2572 41.6766C64.9136 41.6766 64.5955 41.8083 64.358 42.0504 64.1204 42.2925 63.9889 42.611 63.9889 42.9465 63.9889 43.643 64.5573 44.2121 65.2572 44.2121L65.2614 44.2121C65.9613 44.2121 66.5254 43.6388 66.5254 42.938 66.5254 42.5982 66.3939 42.2797 66.1522 42.0419 65.9104 41.8083 65.5965 41.6766 65.2572 41.6766zM90.6094 47.5122C88.0602 47.5122 85.9861 45.4396 85.9775713 42.8871 85.9733 41.647 86.4526 40.4833 87.3264 39.6041 88.2002 38.725 89.3624 38.2408 90.5967 38.2366 90.6009 38.2366 90.6052 38.2366 90.6094 38.2366 91.8395 38.2366 93.0017 38.7165 93.8754 39.5871 94.7535 40.462 95.237 41.6215 95.241226 42.8616 95.2497 45.4184 93.1756 47.5037 90.6221 47.5122 90.6221 47.5122 90.6136 47.5122 90.6094 47.5122zM90.6136 39.2219C90.6094 39.2219 90.6052 39.2219 90.6009 39.2219 89.6254 39.2261 88.7134 39.6084 88.0263 40.3006 87.3391 40.9929 86.9616 41.9103 86.9658637 42.8871 86.9701 44.9002 88.5989 46.5523 90.6221 46.5311 92.6326 46.5269 94.2657 44.8832 94.2614085 42.8701 94.2572 41.8933 93.8754 40.9802 93.1841 40.2922 92.4969 39.5956 91.5807 39.2219 90.6136 39.2219z"/>
    <path fill="#00ADA8" d="M90.6136 45.1253C89.3751 45.1253 88.3656 44.1187 88.3612869 42.8786 88.3571 41.6384 89.3624 40.6234 90.6052 40.6191L90.6094 40.6191C91.8479 40.6191 92.8574 41.6257 92.8617131 42.8658 92.8659 44.106 91.8607 45.121 90.6179 45.1253 90.6136 45.1253 90.6136 45.1253 90.6136 45.1253zM89.3453769 42.8786C89.3453769 43.5751 89.9138 44.1442 90.6136 44.1442L90.6179 44.1442C91.3177 44.1442 91.8819 43.5709 91.8819 42.8701 91.8819 42.1736 91.3135 41.6045 90.6136 41.6045L90.6094 41.6045C89.9095 41.6045 89.3412 42.1778 89.3453769 42.8786zM122.934 26.6885L117.335 26.6885C117.064 26.6885 116.848 26.4677 116.848 26.2001 116.848 25.9325 117.068 25.7117 117.335 25.7117L122.934 25.7117C123.206 25.7117 123.422 25.9325 123.422 26.2001 123.422 26.4677 123.206 26.6885 122.934 26.6885zM115.541 26.6885L114.26 26.6885C113.989 26.6885 113.772 26.4677 113.772 26.2001 113.772 25.9325 113.993 25.7117 114.26 25.7117L115.541 25.7117C115.813 25.7117 116.029 25.9325 116.029 26.2001 116.029 26.4677 115.808 26.6885 115.541 26.6885z"/>
    <path fill="#00ADA8" d="M145.19,33.552 L141.712,33.552 C141.44,33.552 141.224,33.3311 141.224,33.0636 C141.224,32.796 141.444,32.5752 141.712,32.5752 L144.702,32.5752 L144.702,19.8255 L123.422,19.8255 L123.422,32.5752 L125.988,32.5752 C126.259,32.5752 126.476,32.796 126.476,33.0636 C126.476,33.3311 126.259,33.552 125.988,33.552 L122.934,33.552 C122.663,33.552 122.446,33.3311 122.446,33.0636 L122.446,19.337 C122.446,19.0652 122.667,18.8486 122.934,18.8486 L145.19,18.8486 C145.461,18.8486 145.678,19.0695 145.678,19.337 L145.678,33.0636 C145.678,33.3311 145.461,33.552 145.19,33.552 Z"/>
    <path fill="#00ADA8" d="M145.368,33.5518 C145.25,33.5518 145.131,33.5094 145.033,33.4202 C144.838,33.2375 144.826,32.9275 145.008,32.7279 L148.439,29.0457 L148.439,16.7547 L145.721,19.6681 C145.538,19.8678 145.229,19.8763 145.029,19.6936 C144.834,19.511 144.821,19.201 145.004,19.0014 L148.567,15.179 C148.702,15.0303 148.914,14.9836 149.101,15.0558 C149.288,15.128 149.411,15.3107 149.411,15.5103 L149.411,29.241 C149.411,29.3642 149.364,29.4831 149.279,29.5766 L145.716,33.3989 C145.627,33.5009 145.5,33.5518 145.368,33.5518 Z"/>
    <path fill="#00ADA8" d="M122.934 19.8253C122.794 19.8253 122.659 19.7659 122.561 19.6512 122.387 19.4431 122.413 19.1373 122.62 18.9632L127.138 15.1408C127.227 15.0643 127.337 15.0261 127.452 15.0261L148.931 15.0261C149.203 15.0261 149.419 15.247 149.419 15.5145 149.419 15.7821 149.198 16.0029 148.931 16.0029L127.63 16.0029 123.248 19.7106C123.159 19.7871 123.049 19.8253 122.934 19.8253zM134.064 33.5773C133.89 33.5773 133.75 33.4371 133.75 33.263L133.75 27.9967C133.75 27.8225 133.89 27.6824 134.064 27.6824 134.238 27.6824 134.378 27.8225 134.378 27.9967L134.378 33.263C134.378 33.4329 134.238 33.5773 134.064 33.5773z"/>
    <path fill="#00ADA8" d="M134.064,33.5771 C133.984,33.5771 133.903,33.5474 133.844,33.4837 C133.721,33.3605 133.721,33.1609 133.844,33.0378 L137.564,29.3131 C137.687,29.1899 137.886,29.1899 138.009,29.3131 C138.132,29.4362 138.132,29.6359 138.009,29.759 L134.289,33.4837 C134.225,33.5432 134.145,33.5771 134.064,33.5771 Z"/>
    <path fill="#00ADA8" d="M139.328,33.5773 L134.068,33.5773 C133.894,33.5773 133.754,33.4371 133.754,33.263 C133.754,33.0889 133.894,32.9487 134.068,32.9487 L139.328,32.9487 C139.502,32.9487 139.642,33.0889 139.642,33.263 C139.642,33.4329 139.502,33.5773 139.328,33.5773 Z"/>
    <path fill="#00ADA8" d="M137.784,37.302 C137.704,37.302 137.623,37.2723 137.564,37.2086 L133.844,33.4839 C133.721,33.3607 133.721,33.1611 133.844,33.0379 C133.967,32.9148 134.166,32.9148 134.289,33.0379 L138.009,36.7626 C138.132,36.8858 138.132,37.0854 138.009,37.2086 C137.945,37.268 137.865,37.302 137.784,37.302 Z"/>
    <path fill="#00ADA8" d="M134.064,38.8437 C133.89,38.8437 133.75,38.7035 133.75,38.5294 L133.75,33.263 C133.75,33.0889 133.89,32.9487 134.064,32.9487 C134.238,32.9487 134.378,33.0889 134.378,33.263 L134.378,38.5294 C134.378,38.7035 134.238,38.8437 134.064,38.8437 Z"/>
    <path fill="#00ADA8" d="M130.345,37.302 C130.264,37.302 130.183,37.2723 130.124,37.2086 C130.001,37.0854 130.001,36.8858 130.124,36.7626 L133.844,33.0379 C133.967,32.9148 134.166,32.9148 134.289,33.0379 C134.412,33.1611 134.412,33.3607 134.289,33.4839 L130.569,37.2086 C130.506,37.268 130.425,37.302 130.345,37.302 Z"/>
    <path fill="#00ADA8" d="M134.064,33.5773 L128.805,33.5773 C128.631,33.5773 128.491,33.4371 128.491,33.263 C128.491,33.0889 128.631,32.9487 128.805,32.9487 L134.064,32.9487 C134.238,32.9487 134.378,33.0889 134.378,33.263 C134.378,33.4329 134.238,33.5773 134.064,33.5773 Z"/>
    <path fill="#00ADA8" d="M134.064,33.5771 C133.984,33.5771 133.903,33.5474 133.844,33.4837 L130.124,29.759 C130.001,29.6359 130.001,29.4362 130.124,29.3131 C130.247,29.1899 130.446,29.1899 130.569,29.3131 L134.289,33.0378 C134.412,33.1609 134.412,33.3605 134.289,33.4837 C134.226,33.5432 134.145,33.5771 134.064,33.5771 Z"/>
    <path fill="#D3D9E5" d="M123.613 85.2386C123.528 85.2386 123.443 85.2259 123.358 85.1919 115.753 82.4271 111.524 76.2136 111.346 75.9503 111.117 75.6105 111.21 75.1476 111.55 74.9182 111.889 74.6889 112.351 74.7781 112.58 75.1221 112.623 75.1816 116.729 81.1997 123.867 83.7946 124.253 83.9348 124.452 84.3595 124.313 84.746 124.198 85.0475 123.914 85.2386 123.613 85.2386zM114.587 85.396C114.464 85.396 114.341 85.3663 114.226 85.3026 106.808 81.1617 104.314 74.2432 104.212 73.9502 104.076 73.5637 104.28 73.139 104.666 73.0031 105.052 72.8672 105.476 73.071 105.612 73.4575 105.641 73.5424 108.051 80.1509 114.952 84.003 115.308 84.2026 115.44 84.657 115.24 85.0138 115.1 85.2559 114.85 85.396 114.587 85.396zM219.015 58.2612C218.748 58.2612 218.502 58.0914 218.413 57.8238 218.303 57.4883 218.485 57.1315 218.816 57.0211 218.871 57.0041 224.347 55.1396 227.851 50.23 228.054 49.9455 228.453 49.8775 228.737 50.0814 229.021 50.2852 229.089 50.6845 228.886 50.969 225.132 56.2311 219.457 58.1508 219.215 58.2315 219.147 58.2485 219.079 58.2612 219.015 58.2612zM216.101 63.2812C215.771 63.2812 215.491 63.0221 215.469 62.6866 215.444 62.3341 215.711 62.0326 216.063 62.0071 216.118 62.0028 221.688 61.5739 226.107 57.106 226.353 56.8554 226.756 56.8554 227.007 57.1017 227.257 57.348 227.257 57.7515 227.011 58.0021 222.239 62.8225 216.394 63.26 216.148 63.277 216.127 63.2812 216.114 63.2812 216.101 63.2812zM123.613 139.444C123.524 139.444 123.431 139.427 123.342 139.393L119.842 138.017C119.461 137.869 119.274 137.435 119.423 137.053 119.571 136.671 120.004 136.48 120.385 136.633L123.885 138.009C124.266 138.157 124.453 138.591 124.305 138.973 124.186 139.266 123.906 139.444 123.613 139.444zM117.785 145.466C117.45 145.466 117.145 145.237 117.064 144.893 116.971 144.494 117.217 144.095 117.616 143.997L121.692 143.033C122.09 142.935 122.489 143.186 122.587 143.585 122.684 143.984 122.434 144.383 122.035 144.481L117.959 145.445C117.9 145.458 117.845 145.466 117.785 145.466zM121.861 151.005C121.708 151.005 121.556 150.958 121.424 150.865 121.093 150.622 121.021 150.159 121.259 149.828L123.006 147.42C123.248 147.089 123.71 147.012 124.041 147.254 124.372 147.497 124.444 147.96 124.207 148.291L122.459 150.699C122.315 150.898 122.09 151.005 121.861 151.005z"/>
    <path fill="#F88627" d="M82.5799,117.568 C81.2819,116.718 77.473,114.534996 76.0096,114.534996 C73.5834,114.531 72.7987,117.75 73.9652,119.266 C75.1316,120.783 80.6584,122.532 81.8249,122.677 C84.3953,123 84.7473,118.982 82.5799,117.568 Z" opacity=".5"/>
    <path fill="#F88627" d="M21.7128 118.663C21.7043 118.599 20.979 112.055 21.7128 105.357 22.4466 98.6296 26.4846 90.5219 26.6585 90.1821L27.4178 90.5644C27.3753 90.6451 23.2779 98.8759 22.5569 105.45 21.8358 112.055 22.5484 118.506 22.5569 118.57L21.7128 118.663zM28.232 106.104L27.3879 106.028C28.2532 96.2725 35.1798 84.5463 35.2519 84.4316L35.9814 84.8648C35.9093 84.9838 29.0803 96.5485 28.232 106.104z"/>
    <path fill="#D3D9E5" d="M73.4349 175.455C73.3161 175.455 73.2016 175.442 73.0828 175.412L19.1763 162.217C18.3789 162.021 17.8911 161.219 18.0862 160.42 18.2813 159.622 19.083 159.133 19.8804 159.329L73.7869 172.524C74.5844 172.72 75.0721 173.522 74.877 174.321 74.7116 175 74.1008 175.455 73.4349 175.455zM156.43 180.433C155.794 180.433 155.204 180.016 155.009 179.375 154.772 178.589 155.217 177.761 156.002 177.523L203.173 163.245C203.957 163.007 204.784 163.453 205.022 164.238 205.259 165.024 204.814 165.852 204.029 166.09L156.859 180.369C156.719 180.411 156.574 180.433 156.43 180.433z"/>
    <path fill="#00ADA8" d="M134.073,41.3792 C129.645,41.3792 126.043,37.7735 126.043,33.3395 C126.043,28.9056 129.645,25.2998 134.073,25.2998 C138.501,25.2998 142.102,28.9056 142.102,33.3395 C142.102,37.7735 138.497,41.3792 134.073,41.3792 Z M134.073,26.2681 C130.179,26.2681 127.011,29.4407 127.011,33.3395 C127.011,37.2383 130.179,40.4109 134.073,40.4109 C137.967,40.4109 141.135,37.2383 141.135,33.3395 C141.135,29.4407 137.967,26.2681 134.073,26.2681 Z"/>
    <path fill="#00ADA8" d="M134.149,39.0051 C130.989,39.0051 128.415,36.4313 128.415,33.263 C128.415,30.0947 130.985,27.521 134.149,27.521 C137.313,27.521 139.884,30.0947 139.884,33.263 C139.884,36.4313 137.313,39.0051 134.149,39.0051 Z M134.149,28.2133 C131.367,28.2133 129.106,30.477 129.106,33.263 C129.106,36.0491 131.367,38.3128 134.149,38.3128 C136.932,38.3128 139.192,36.0491 139.192,33.263 C139.192,30.477 136.932,28.2133 134.149,28.2133 Z"/>
  </g>
</svg>
