<svg width="315" height="328" viewBox="0 0 315 328" fill="none" xmlns="http://www.w3.org/2000/svg">
<path d="M42.0661 53.8566C40.0188 53.8566 37.8742 53.39 35.6261 52.2658C30.6409 49.7699 28.6782 46.3627 28.0354 44.9159C26.8252 45.3794 24.041 46.3753 20.614 47.1206C14.4812 48.4578 9.49288 48.3388 5.78375 46.7698C3.61408 45.8523 2.40698 44.5088 2.19691 42.7802C1.93981 40.657 3.23158 38.0765 6.03459 35.1078C7.13824 33.9366 8.25443 32.947 9.05394 32.28C7.29814 31.8415 4.30386 30.8488 2.02132 28.8321C0.547698 27.5325 -0.176556 25.5658 0.0366479 23.4363C0.368996 20.1012 2.79262 16.8913 6.68673 14.6334C9.62143 12.933 13.6535 12.4726 18.3471 13.3056C20.6548 13.7128 22.5799 14.3297 23.6521 14.718C23.8058 12.3192 24.7872 6.40049 30.6315 5.33888C36.4726 4.28353 42.9221 6.92973 45.0667 7.91931C45.3551 7.08318 45.9069 5.68649 46.7723 4.29606C48.6159 1.33984 50.9956 -0.141408 53.6544 0.0151714C58.5675 0.309541 62.7281 4.17706 64.255 5.78043C65.2709 4.29293 67.751 1.12689 70.9491 0.34086C73.9935 -0.398196 79.7312 -0.564172 83.9639 6.64162C87.8078 13.1866 85.193 20.4958 85.0801 20.8058C84.9986 21.025 84.8136 21.1879 84.5847 21.2348C80.5213 22.1117 76.7087 19.1868 75.2006 17.8214C74.5234 18.9519 73.056 20.8684 70.6292 21.4728C68.2432 22.0647 65.6032 20.4425 64.4087 19.572C63.5464 20.9373 61.336 23.7495 57.7743 23.7495C54.7455 23.7495 52.9395 21.7265 52.0271 20.264C51.5725 21.6419 50.9454 23.8685 50.6539 26.3519C50.61 26.7245 50.2714 26.9938 49.8983 26.9469C49.5252 26.903 49.2586 26.5648 49.3025 26.1922C49.8042 21.8925 51.2339 18.4352 51.2935 18.2911C51.4001 18.0375 51.6478 17.8746 51.9206 17.8746C51.9268 17.8746 51.9331 17.8746 51.9362 17.8746C52.2153 17.8809 52.463 18.0594 52.5602 18.3225C52.5633 18.3319 52.9521 19.3841 53.8112 20.4081C54.9117 21.7234 56.2442 22.3904 57.7711 22.3904C61.5179 22.3904 63.5747 18.2943 63.5966 18.2536C63.6907 18.0657 63.8663 17.9279 64.0732 17.8872C64.2801 17.8465 64.4933 17.8997 64.6532 18.0375C64.6846 18.0657 67.845 20.762 70.2969 20.1513C73.0717 19.4592 74.3791 16.4654 74.3917 16.4341C74.4826 16.2243 74.6739 16.0708 74.8996 16.0301C75.1254 15.9894 75.3574 16.0677 75.5141 16.2337C75.5549 16.2775 79.6685 20.5897 83.9169 19.9697C84.3684 18.4634 85.842 12.5228 82.7881 7.32431C79.0006 0.876367 73.9464 1.00476 71.2688 1.65613C67.7008 2.53298 64.9605 7.18339 64.9323 7.23036C64.8194 7.42139 64.6219 7.54665 64.4024 7.56544C64.1767 7.58423 63.9635 7.49342 63.8224 7.32431C63.7753 7.26794 59.0535 1.69371 53.5698 1.3649C53.4694 1.35863 53.3722 1.3555 53.275 1.3555C48.2553 1.3555 46.1546 8.96213 46.1358 9.04042C46.0825 9.23771 45.9414 9.40369 45.7533 9.48511C45.5652 9.56653 45.3488 9.56027 45.1638 9.46632C45.0855 9.42561 37.385 5.4892 30.8729 6.66354C28.3144 7.12702 26.5492 8.74919 25.6243 11.4831C24.9063 13.6063 24.9847 15.6324 24.9847 15.6543C24.9941 15.8861 24.8844 16.1084 24.6931 16.2431C24.5019 16.3777 24.2541 16.4028 24.0409 16.312C23.9406 16.2681 13.8197 12.0624 7.36712 15.8015C2.37876 18.692 1.52279 22.1931 1.38797 23.5647C1.21866 25.2777 1.76108 26.7871 2.92116 27.808C5.98754 30.52 10.6561 31.2246 10.7031 31.2309C10.9759 31.2716 11.1954 31.4689 11.2643 31.7351C11.3333 32.0012 11.233 32.2831 11.0135 32.4459C8.79371 34.0994 3.13123 39.1538 3.54823 42.6111C3.6956 43.8387 4.60174 44.7875 6.31364 45.5141C14.5722 49.0058 28.0228 43.4535 28.1577 43.4002C28.3364 43.3251 28.537 43.3313 28.7126 43.4128C28.8882 43.4942 29.0199 43.6476 29.0732 43.8324C29.0857 43.8731 30.4402 48.1415 36.2343 51.0445C42.8499 54.3577 48.4309 51.4735 53.4757 47.8659C56.7145 45.5516 58.1819 43.4973 58.1944 43.4754C58.4107 43.1685 58.834 43.0933 59.1413 43.3094C59.4486 43.5255 59.5238 43.9483 59.3075 44.2552C59.2448 44.346 57.7084 46.5068 54.2658 48.9682C50.7197 51.5142 46.6469 53.8566 42.0661 53.8566Z" fill="#FF6333"/>
<path d="M69.7483 48.3669C66.0455 48.3669 62.1545 47.0422 58.367 44.4336C54.9651 42.0912 52.0963 38.2487 51.3156 37.1526C49.218 37.0963 46.4683 36.5983 44.5871 34.6568C42.4613 32.4678 42.1447 29.4771 42.7717 27.4823C43.2891 25.8413 44.4147 24.7359 45.8632 24.4572C47.2804 24.1879 48.7947 24.6106 50.3687 25.7192C50.676 25.9353 50.748 26.358 50.5348 26.6649C50.3185 26.9718 49.8953 27.0439 49.588 26.8309C48.3276 25.9447 47.1612 25.5971 46.1234 25.7944C45.1828 25.976 44.4334 26.7432 44.0729 27.8957C43.5681 29.5053 43.8346 31.9291 45.5684 33.7173C47.227 35.4303 49.8074 35.7967 51.6793 35.8029C51.9019 35.8029 52.1119 35.9157 52.2405 36.1004C52.2718 36.1474 55.4417 40.7696 59.1446 43.3187C64.8196 47.227 70.4569 48.0725 75.4453 45.7614C79.3112 43.9701 81.4746 40.0055 82.6064 36.9929C83.8606 33.6672 84.171 30.7329 84.1741 30.7016C84.1961 30.498 84.3058 30.3164 84.4751 30.2036C84.4939 30.1911 86.3595 28.9447 87.7829 27.0094C88.5856 25.9165 88.9681 24.1127 88.711 22.6189C88.5918 21.9237 88.2814 20.9842 87.4944 20.4487C86.0271 19.456 85.1837 20.4926 85.0301 20.7118C84.8137 21.0156 84.3904 21.0907 84.0863 20.8809C83.779 20.6679 83.7007 20.2514 83.9107 19.9414C84.3748 19.265 86.0553 17.8307 88.2595 19.3245C89.197 19.9602 89.8177 21.0187 90.0529 22.3872C90.3727 24.2411 89.9024 26.4238 88.8834 27.8111C87.6293 29.5209 86.0992 30.711 85.4941 31.1494C85.3781 32.0168 84.9768 34.5565 83.8951 37.4345C82.1393 42.1099 79.4178 45.4138 76.019 46.9889C74.0281 47.9128 71.9211 48.3669 69.7483 48.3669Z" fill="#FF6333"/>
<path d="M71.7988 36.9146C70.482 36.9146 69.5758 35.6494 69.0334 34.8916C68.1681 33.6828 66.1646 29.7088 66.0799 29.5397C65.9106 29.2046 66.0454 28.7975 66.3809 28.6284C66.7164 28.4624 67.1271 28.5971 67.2933 28.929C67.3121 28.9697 69.3313 32.975 70.1371 34.0993C71.1561 35.5241 71.6421 35.7935 72.3977 35.3582C73.1439 34.926 73.0373 34.0554 72.6516 32.8842L72.6329 32.831C72.4667 32.3237 71.1498 29.762 70.3597 28.2651C70.1841 27.9332 70.3127 27.5229 70.645 27.3476C70.9774 27.1722 71.3881 27.3006 71.5637 27.6325C71.78 28.0397 73.6707 31.6284 73.9278 32.4113L73.9434 32.4646C74.2131 33.2851 74.9342 35.4678 73.078 36.5388C72.614 36.8018 72.1876 36.9146 71.7988 36.9146Z" fill="#FF6333"/>
<path d="M61.2452 28.8571C62.0435 28.8571 62.6906 28.2107 62.6906 27.4134C62.6906 26.6161 62.0435 25.9697 61.2452 25.9697C60.4469 25.9697 59.7998 26.6161 59.7998 27.4134C59.7998 28.2107 60.4469 28.8571 61.2452 28.8571Z" fill="#FF6333"/>
<path d="M77.0509 27.1034C77.8492 27.1034 78.4963 26.4571 78.4963 25.6597C78.4963 24.8624 77.8492 24.2161 77.0509 24.2161C76.2526 24.2161 75.6055 24.8624 75.6055 25.6597C75.6055 26.4571 76.2526 27.1034 77.0509 27.1034Z" fill="#FF6333"/>
<path d="M70.407 42.7393C69.0462 42.7393 67.6761 42.5013 66.6226 41.9595C64.7163 40.9824 63.923 40.0712 64.2679 39.2569C64.6128 38.4396 65.9297 38.3864 67.0553 38.759L67.0772 38.7653C68.0993 39.1035 71.2128 40.1338 74.1632 38.4521C75.6054 37.6285 76.2074 38.3269 76.3548 38.5617C76.869 39.3634 76.2983 40.7194 75.085 41.5868C74.091 42.3008 72.2568 42.7393 70.407 42.7393ZM65.2242 39.6484C65.2681 39.7705 65.5409 40.259 67.0898 41.0545C69.1842 42.1286 73.0344 41.7998 74.4924 40.7601C75.411 40.1056 75.6149 39.2976 75.4957 39.1129C75.4706 39.0722 75.2104 39.0315 74.668 39.3384C71.3194 41.2455 67.883 40.1087 66.7543 39.7329L66.8954 39.2413L66.7355 39.7235C65.9391 39.4636 65.3747 39.5544 65.2242 39.6484Z" fill="#FF6333"/>
<path d="M30.1014 16.9635C30.0951 16.9635 30.0889 16.9635 30.0795 16.9635C29.7973 16.9509 29.5778 16.7161 29.5904 16.4342C29.5935 16.381 29.8757 10.9884 35.0804 10.6815C37.2281 10.5562 38.8271 11.0166 39.8304 12.05C40.6049 12.8485 40.7115 13.6878 40.7209 13.7786C40.7491 14.0573 40.5453 14.3079 40.2662 14.3361C39.984 14.3674 39.7364 14.1607 39.7082 13.882C39.6956 13.788 39.357 11.4519 35.1431 11.6961C33.3434 11.8026 32.0391 12.6293 31.2583 14.1575C30.6626 15.3256 30.6093 16.4624 30.6093 16.4749C30.5968 16.7505 30.3711 16.9635 30.1014 16.9635Z" fill="#FF6333"/>
<path d="M25.3454 36.6609C23.7275 36.6609 21.8652 36.1567 20.6236 34.2402C19.9275 33.1598 19.7237 32.0544 20.0216 30.952C20.6768 28.5188 23.5676 27.0219 23.6899 26.9593C23.9407 26.8309 24.248 26.9311 24.3766 27.1816C24.5051 27.4321 24.4048 27.739 24.154 27.8674C24.1289 27.88 21.5422 29.2266 21.0061 31.2214C20.7866 32.045 20.9402 32.8498 21.4826 33.6891C22.3668 35.0576 23.7463 35.7183 25.5868 35.6526C27.0228 35.6025 28.2111 35.1108 28.2236 35.1077C28.4839 34.9981 28.7817 35.1202 28.8915 35.3801C29.0012 35.64 28.8789 35.9375 28.6187 36.0471C28.5936 36.0565 27.1168 36.6609 25.3454 36.6609Z" fill="#FF6333"/>
<path d="M67.9518 14.5488C66.4844 14.5488 65.5815 13.9382 65.525 13.9006C65.293 13.7409 65.2366 13.4215 65.3965 13.1929C65.5564 12.9611 65.8762 12.9048 66.1051 13.0645C66.1678 13.1052 67.6978 14.1042 70.0399 13.0488C72.8398 11.7899 72.5388 8.49863 72.5231 8.36084C72.4949 8.08213 72.6987 7.83161 72.9777 7.80342C73.2599 7.77524 73.5076 7.97566 73.5389 8.25437C73.5421 8.29508 73.9371 12.4131 70.46 13.9789C69.5132 14.4017 68.6666 14.5488 67.9518 14.5488Z" fill="#FF6333"/>
<path d="M35.6797 37.8167C35.5292 37.8167 35.3819 37.7509 35.2816 37.6256C35.106 37.4064 35.1405 37.0839 35.3599 36.9085C35.3913 36.8803 36.2566 36.1381 36.0403 34.5348C35.7801 32.6057 33.6575 32.1923 33.6355 32.1861C33.3596 32.136 33.1746 31.8698 33.2279 31.5911C33.2812 31.3155 33.5446 31.1307 33.8236 31.184C33.9396 31.2059 36.6956 31.7445 37.053 34.397C37.3508 36.5953 36.0528 37.657 35.9995 37.7008C35.9023 37.7822 35.7926 37.8167 35.6797 37.8167Z" fill="#FF6333"/>
<path d="M49.2468 33.2256C49.228 33.2256 49.2092 33.2256 49.1935 33.2225C46.2682 32.9124 45.6787 31.8602 45.6787 30.2694C45.6787 28.8727 46.8796 28.403 47.513 28.3497C47.7951 28.3278 48.0397 28.5345 48.0647 28.8132C48.0898 29.0919 47.8829 29.3393 47.6039 29.3644C47.4502 29.38 46.7009 29.4959 46.7009 30.2694C46.7009 31.1619 46.7009 31.9323 49.3033 32.211C49.5823 32.2392 49.7861 32.4928 49.7579 32.7715C49.7265 33.0314 49.5039 33.2256 49.2468 33.2256Z" fill="#FF6333"/>
<path d="M85.3657 27.4448C85.2246 27.4448 85.0835 27.3853 84.9832 27.2726C84.7982 27.0596 84.8202 26.7402 85.0302 26.5523C85.4159 26.2141 86.4066 25.1368 86.369 24.238C86.3314 23.3831 85.5758 23.2297 85.4441 23.2109C85.234 23.2422 85.0177 23.142 84.9142 22.9447C84.7825 22.6942 84.8797 22.3873 85.1306 22.2557C85.4598 22.0835 86.0492 22.2933 86.3627 22.4749C86.9898 22.8351 87.3535 23.4489 87.388 24.1942C87.4538 25.7412 85.883 27.163 85.7043 27.3195C85.604 27.401 85.4849 27.4448 85.3657 27.4448Z" fill="#FF6333"/>
<path d="M73.6271 187.654C73.2822 187.654 73 187.372 73 187.027V161.627C73 161.283 73.2822 161.001 73.6271 161.001C73.9719 161.001 74.2541 161.283 74.2541 161.627V187.027C74.2541 187.372 73.9751 187.654 73.6271 187.654Z" fill="#FF6333"/>
<path d="M78.6223 174.952H74.2579C73.913 174.952 73.6309 174.67 73.6309 174.325C73.6309 173.981 73.913 173.699 74.2579 173.699H78.6223C78.9672 173.699 79.2494 173.981 79.2494 174.325C79.2494 174.67 78.9703 174.952 78.6223 174.952Z" fill="#FF6333"/>
<path d="M78.6214 188.543C78.6152 188.543 78.6121 188.543 78.6058 188.543C78.2609 188.533 77.985 188.248 77.9944 187.901L78.6528 161.611C78.6622 161.267 78.9538 160.988 79.2955 161C79.6404 161.01 79.9164 161.295 79.9069 161.642L79.2485 187.932C79.2422 188.273 78.9632 188.543 78.6214 188.543Z" fill="#FF6333"/>
<path d="M92.1444 188.984C92.135 188.984 92.1256 188.984 92.1162 188.984L85.4723 188.699C85.303 188.693 85.1431 188.615 85.0302 188.489C84.9174 188.361 84.8609 188.195 84.8766 188.023L86.9491 162.387C86.9742 162.062 87.2469 161.811 87.573 161.811H93.7058C94.0507 161.811 94.3329 162.093 94.3329 162.438C94.3329 162.782 94.0507 163.064 93.7058 163.064H88.1499L86.1778 187.475L92.1695 187.731C92.5144 187.747 92.784 188.038 92.7684 188.383C92.7558 188.721 92.4799 188.984 92.1444 188.984Z" fill="#FF6333"/>
<path d="M91.1722 176.517C91.144 176.517 91.1158 176.514 91.0876 176.511L86.9239 175.941C86.5821 175.894 86.3407 175.578 86.3877 175.237C86.4347 174.895 86.7514 174.654 87.0931 174.701L91.2569 175.271C91.5987 175.318 91.8401 175.634 91.793 175.976C91.7491 176.292 91.4795 176.517 91.1722 176.517Z" fill="#FF6333"/>
<path d="M100.353 174.645C100.068 174.645 99.8109 174.451 99.7419 174.16L97.2117 163.212C97.1333 162.873 97.3434 162.538 97.682 162.46C98.0175 162.382 98.3561 162.592 98.4345 162.93L100.965 173.878C101.043 174.216 100.833 174.551 100.494 174.629C100.447 174.642 100.4 174.645 100.353 174.645Z" fill="#FF6333"/>
<path d="M99.0046 189.479C98.9827 189.479 98.9607 189.479 98.9388 189.476C98.5939 189.442 98.3431 189.132 98.3807 188.787L99.8951 174.263C99.8982 174.222 99.9076 174.184 99.917 174.147L103.316 162.892C103.416 162.56 103.764 162.375 104.096 162.472C104.429 162.573 104.617 162.92 104.517 163.252L101.137 174.451L99.6255 188.919C99.5941 189.238 99.3213 189.479 99.0046 189.479Z" fill="#FF6333"/>
<path d="M100.748 21.5854C100.787 21.5064 100.851 21.4366 100.935 21.3914C101.163 21.2638 101.463 21.3458 101.601 21.5755C101.744 21.811 105.029 27.4379 100.251 34.7308C100.11 34.9487 99.8085 35.0035 99.5817 34.856C99.3563 34.7056 99.2847 34.4076 99.4286 34.1912C103.878 27.4057 100.898 22.2558 100.771 22.0393C100.682 21.8948 100.679 21.7236 100.748 21.5854Z" fill="#F2643A"/>
<path d="M101.782 11.9543C101.81 11.8982 101.849 11.848 101.903 11.8052C102.104 11.6409 102.409 11.6774 102.584 11.8825C109.289 19.8199 106.569 29.9854 106.541 30.0868C106.473 30.3334 106.207 30.475 105.95 30.4C105.695 30.3221 105.541 30.0537 105.61 29.8042C105.637 29.7056 108.218 20.0105 101.851 12.4746C101.721 12.3201 101.702 12.1169 101.782 11.9543Z" fill="#F2643A"/>
<path d="M85.8499 75.0467C85.8499 75.0467 86.26 69.8334 91.704 69.0077C97.4747 68.1308 109.359 69.9038 112.384 74.5443C115.405 79.1847 113.098 85.7038 118.199 88.7634C123.3 91.8197 128.142 90.1043 127.6 96.409C127.059 102.714 122.233 104.813 126.062 107.837C129.891 110.865 132.669 116.174 130.545 119.746C128.418 123.317 125.697 126.034 122.807 125.356C119.917 124.678 117.424 124.882 116.062 126.534C114.7 128.185 107.286 131.469 104.476 129.318C101.666 127.167 100.807 126.563 98.0643 126.921C95.3215 127.279 93.3637 122.777 92.8735 121.711C91.4252 118.558 89.9256 116.785 89.9256 116.785C89.9256 116.785 83.4532 83.79 84.3439 82.4427C85.2315 81.0921 85.8499 75.0467 85.8499 75.0467Z" fill="#F2643A"/>
<path d="M87.1702 67.6603C83.8283 64.4472 78.567 60.1715 69.8804 62.1045C61.1939 64.0375 59.736 70.2334 55.4199 70.2334C50.4342 70.2334 40.4628 70.2334 40.0655 77.4405C39.7354 83.4636 41.0267 87.1471 36.5056 89.3842C32.824 91.2052 30.9335 99.414 36.5056 105.171C42.0777 110.929 45.4101 105.613 46.775 109.05C47.9446 111.995 50.1298 116.808 54.1543 116.213C58.1787 115.617 58.5504 114.222 61.7194 116.261C64.8883 118.296 71.1717 115.387 71.1717 115.387L86.9972 81.4985C86.994 81.5017 92.3161 72.6112 87.1702 67.6603Z" fill="#F2643A"/>
<path d="M63.7572 114.628C63.6579 114.628 63.5553 114.59 63.4816 114.51C63.3983 114.424 61.4566 112.366 61.0593 111.022C60.8382 110.276 60.8189 109.124 61.4277 108.138C61.9308 107.319 62.7767 106.781 63.8693 106.58C65.6829 106.247 66.1251 102.765 66.1443 101.449C66.1475 101.241 66.3173 101.075 66.5256 101.075C66.5256 101.075 66.5288 101.075 66.532 101.075C66.7435 101.078 66.9101 101.251 66.9069 101.459C66.9037 101.677 66.8076 106.813 64.0071 107.325C63.1196 107.488 62.4691 107.895 62.075 108.535C61.5976 109.309 61.6232 110.241 61.7866 110.804C62.0718 111.777 63.5041 113.428 64.0296 113.985C64.1737 114.139 64.1673 114.379 64.0167 114.523C63.9462 114.593 63.8533 114.628 63.7572 114.628Z" fill="#FFC927"/>
<path d="M98.2567 124.482C98.1093 124.482 97.9683 124.396 97.9074 124.252C97.8241 124.06 97.9138 123.836 98.1093 123.752C98.1413 123.74 101.259 122.373 101.307 119.326C101.336 117.329 100.836 116.67 99.4967 114.91C99.1442 114.449 98.7469 113.924 98.2919 113.287C95.9753 110.045 97.7152 107.181 97.7889 107.059C97.901 106.88 98.1349 106.826 98.3144 106.938C98.4938 107.05 98.5483 107.284 98.4361 107.463C98.3656 107.575 96.9013 110.033 98.9135 112.846C99.3621 113.473 99.7562 113.991 100.105 114.449C101.48 116.254 102.105 117.08 102.073 119.339C102.018 122.888 98.5611 124.393 98.4137 124.457C98.356 124.473 98.308 124.482 98.2567 124.482Z" fill="#FFC927"/>
<path d="M56.3783 112.193C56.2629 112.193 56.1476 112.142 56.0739 112.042C54.5102 109.972 54.5775 108.061 54.9044 106.823C55.3626 105.098 56.5994 103.744 57.5318 103.344C60.329 102.144 60.8161 100.515 60.768 97.7369C60.6687 92.1203 62.5496 91.8931 65.3981 91.5475C65.5967 91.5219 65.805 91.4995 66.0197 91.4707C68.5798 91.1378 69.6372 91.0034 71.3194 86.923C71.5533 86.3565 71.7584 85.8445 71.941 85.3804C73.1362 82.3849 73.5816 81.2648 75.9655 80.6887C78.9133 79.9782 82.909 82.5897 84.4886 83.7482L84.5559 83.7963C84.7289 83.9147 84.7738 84.1515 84.6552 84.3243C84.5367 84.4971 84.2996 84.5419 84.1265 84.4235C84.1137 84.4139 84.0849 84.3947 84.04 84.3595C82.8737 83.505 78.8589 80.7719 76.1449 81.428C74.1455 81.9112 73.8283 82.7049 72.6492 85.662C72.4633 86.1261 72.2582 86.6413 72.0243 87.211C70.2524 91.5187 68.9323 91.8611 66.119 92.2227C65.9043 92.2515 65.6929 92.2771 65.491 92.2995C62.713 92.6356 61.4441 92.7892 61.5306 97.7209C61.6011 101.651 60.2265 103.014 57.833 104.038C57.1761 104.32 56.0643 105.431 55.6413 107.015C55.3562 108.09 55.3049 109.754 56.6827 111.582C56.8077 111.748 56.7756 111.988 56.609 112.113C56.5385 112.167 56.4584 112.193 56.3783 112.193Z" fill="#FFC927"/>
<path d="M37.2071 98.0313C37.0821 98.0313 36.9571 97.9705 36.8866 97.8553C36.0504 96.5464 35.8901 94.8406 36.4509 93.1732C37.1302 91.141 38.7387 89.5216 40.8598 88.7343C43.7756 87.6494 43.8974 86.1741 44.1954 82.6089C44.2755 81.652 44.3652 80.5671 44.5286 79.3189C44.833 76.9827 45.586 75.4081 46.8324 74.5024C48.5915 73.2255 51.1837 73.3791 54.5321 74.0032C59.7229 74.9729 61.7768 73.3599 64.6894 69.1259C67.2687 65.3751 72.8056 63.9957 78.4642 65.6887C85.225 67.7113 87.2052 73.2223 87.2853 73.4559C87.3526 73.6543 87.2501 73.8688 87.0514 73.9392C86.8527 74.0096 86.6381 73.904 86.5676 73.7056C86.5483 73.6511 84.6194 68.3258 78.2463 66.4184C72.9017 64.8214 67.7077 66.0823 65.3174 69.5579C61.5685 75.0113 58.8065 75.5777 54.3943 74.7521C51.2382 74.1632 48.8222 74 47.2842 75.1169C46.2172 75.8914 45.5636 77.2995 45.288 79.415C45.1278 80.6439 45.0381 81.7224 44.958 82.6697C44.6632 86.2285 44.4998 88.1903 41.129 89.4448C39.2257 90.1553 37.7838 91.6018 37.1782 93.4132C36.6944 94.8598 36.8226 96.3287 37.5339 97.4456C37.646 97.6217 37.5948 97.8585 37.4185 97.9705C37.3512 98.0089 37.2776 98.0313 37.2071 98.0313Z" fill="#FFC927"/>
<path d="M44.5449 103.635C44.3943 103.635 44.2501 103.546 44.1924 103.398C43.3241 101.254 43.2247 99.4748 43.8944 98.105C44.4519 96.9657 45.5478 96.1368 47.0666 95.7048C49.5562 94.9975 50.0432 93.0613 50.1906 91.4483C50.2163 91.1635 50.2483 90.9363 50.2835 90.6867C50.3925 89.9346 50.5239 89.0001 50.6168 85.4861C50.7386 80.692 53.7409 80.724 57.9063 80.7656L58.6881 80.772C61.8795 80.7976 65.4874 80.82 67.599 75.5843C69.5728 70.6941 72.9051 68.9596 77.7755 70.2781C82.178 71.4686 85.9782 75.7827 86.1352 75.9651C86.273 76.1251 86.2569 76.3651 86.0967 76.5028C85.9397 76.6404 85.6994 76.6244 85.5584 76.4644C85.52 76.4228 81.7487 72.1407 77.5736 71.011C73.0749 69.7949 70.1303 71.3374 68.3007 75.8659C65.9937 81.5785 61.9372 81.5497 58.6785 81.5273L57.8935 81.5209C53.6223 81.4761 51.4787 81.4537 51.373 85.4989C51.2801 89.0577 51.1423 90.0178 51.0333 90.7891C50.9981 91.0259 50.9692 91.2403 50.9436 91.5123C50.8539 92.498 50.5783 95.4904 47.2684 96.4313C46.3584 96.6873 45.1537 97.2441 44.5737 98.4347C44.0034 99.5996 44.1123 101.171 44.8941 103.107C44.9742 103.302 44.8781 103.523 44.6826 103.603C44.641 103.626 44.5929 103.635 44.5449 103.635Z" fill="#FFC927"/>
<path d="M50.2165 108.782C50.0595 108.782 49.9153 108.686 49.8577 108.532C47.6756 102.547 49.3514 100.381 52.9849 98.6588C56.3045 97.0843 56.2564 96.6522 55.9296 93.8423C55.8719 93.3335 55.8046 92.7542 55.747 92.0854C55.3464 87.3617 59.0825 86.7408 62.3828 86.1967C62.8827 86.1135 63.4017 86.0271 63.8856 85.9311C67.3942 85.2302 67.7979 84.8238 70.0376 79.6968C72.4888 74.0835 75.4014 74.4835 77.9712 74.8419C81.3388 75.306 85.3857 79.8025 85.5555 79.9945C85.6965 80.1513 85.6805 80.3913 85.5235 80.5321C85.3664 80.6697 85.1261 80.6569 84.9851 80.5001C84.9467 80.4553 80.9543 76.0197 77.8654 75.594C75.3405 75.2452 72.9566 74.9155 70.7361 80.0009C68.3971 85.3582 67.8331 85.9215 64.0362 86.6768C63.5363 86.776 63.014 86.8624 62.5078 86.9456C59.2459 87.4833 56.1635 87.9953 56.5063 92.0181C56.5608 92.6774 56.6281 93.2471 56.6858 93.7527C57.0382 96.8123 56.9838 97.6027 53.3118 99.3437C49.9217 100.95 48.5696 102.771 50.5722 108.269C50.6427 108.468 50.5433 108.686 50.3447 108.756C50.303 108.775 50.2582 108.782 50.2165 108.782Z" fill="#FFC927"/>
<path d="M125.482 123.346C125.428 123.346 125.373 123.333 125.322 123.311C125.133 123.221 125.05 122.994 125.139 122.805C125.149 122.786 126.027 120.888 126.697 117.489C127.353 114.145 126.665 112.161 124.152 110.161C121.406 107.975 121.576 106.09 121.948 104.49C122.086 103.901 122.268 103.216 122.477 102.419C122.8 101.193 123.169 99.8075 123.483 98.3577C124.361 94.3413 121.576 93.7012 118.353 92.962C117.956 92.8691 117.558 92.7795 117.171 92.6803C113.316 91.7074 112.46 89.3296 111.989 83.1209C111.554 77.4019 107.109 73.2607 100.099 72.0445C93.0719 70.8252 89.2204 72.8702 89.182 72.8894C88.9993 72.9886 88.7654 72.9214 88.6661 72.739C88.5636 72.5534 88.6309 72.323 88.8167 72.2238C88.9801 72.1342 92.9181 70.0251 100.23 71.2957C107.606 72.5758 112.284 76.9763 112.749 83.0633C113.229 89.3872 114.136 91.1282 117.356 91.941C117.741 92.0371 118.132 92.1267 118.523 92.2163C121.682 92.9396 125.264 93.762 124.226 98.5145C123.906 99.9803 123.537 101.376 123.21 102.608C123.002 103.395 122.823 104.077 122.685 104.656C122.336 106.151 122.22 107.648 124.62 109.559C127.36 111.738 128.151 114.001 127.437 117.627C126.748 121.128 125.86 123.042 125.822 123.119C125.761 123.263 125.626 123.346 125.482 123.346Z" fill="#FFC927"/>
<path d="M118.911 124.482C118.853 124.482 118.792 124.469 118.738 124.441C118.552 124.345 118.478 124.114 118.574 123.929L118.786 123.525C120.019 121.173 122.083 117.237 119.308 114.98L118.856 114.616C117.071 113.175 115.386 111.815 115.194 110.327C114.893 108.007 115.312 107.117 116.322 104.97C116.613 104.349 116.943 103.645 117.331 102.755C117.805 101.67 117.844 100.649 117.453 99.7212C116.927 98.4859 115.803 97.7882 115.219 97.5706L115.002 97.4906C113.656 96.9945 111.153 96.0664 108.571 93.6278C106.245 91.4291 106.104 89.3169 105.796 84.686L105.738 83.8411C105.399 78.8454 102.774 77.2484 98.6442 76.2915C94.7126 75.3794 90.089 76.9252 90.0441 76.9412C89.8455 77.0084 89.6276 76.9028 89.5603 76.7044C89.493 76.506 89.5987 76.2883 89.7974 76.2211C89.9961 76.1539 94.6678 74.589 98.814 75.5523C101.265 76.1187 102.89 76.8644 104.078 77.9685C105.53 79.3126 106.318 81.2169 106.494 83.7931L106.552 84.638C106.853 89.1953 106.978 91.0803 109.09 93.0773C111.557 95.4103 113.877 96.268 115.261 96.7801L115.482 96.8601C116.347 97.1833 117.565 98.0506 118.148 99.4268C118.625 100.553 118.584 101.776 118.026 103.059C117.635 103.958 117.302 104.666 117.007 105.293C116.011 107.415 115.674 108.132 115.947 110.231C116.101 111.418 117.744 112.743 119.334 114.027L119.789 114.395C123.047 117.045 120.715 121.493 119.459 123.881L119.25 124.281C119.18 124.405 119.048 124.482 118.911 124.482Z" fill="#FFC927"/>
<path d="M111.595 126.915C111.522 126.915 111.448 126.892 111.384 126.851C111.208 126.735 111.163 126.498 111.278 126.322C111.294 126.3 112.781 124.05 113.938 120.011C114.812 116.965 113.588 116.011 110.903 113.924C108.558 112.1 109.247 110.11 110.044 107.805C110.141 107.524 110.24 107.239 110.339 106.941C111.089 104.659 111.14 102.49 110.493 100.489C110.153 99.4396 108.868 98.6812 106.92 97.529C105.892 96.921 104.725 96.2329 103.386 95.3272C100.313 93.247 100.067 89.2498 99.8711 86.0366C99.8006 84.8717 99.7334 83.7708 99.5315 82.9771C98.8618 80.3496 92.9277 79.0151 89.9926 79.7608C89.7876 79.8152 89.5825 79.6904 89.5312 79.4855C89.48 79.2807 89.6017 79.0759 89.8068 79.0247C92.8219 78.2598 99.429 79.4887 100.272 82.7915C100.493 83.6524 100.56 84.7885 100.634 85.9918C100.82 89.0385 101.05 92.8309 103.815 94.6999C105.139 95.5928 106.292 96.2777 107.311 96.8794C109.407 98.1179 110.791 98.9372 111.22 100.259C111.919 102.416 111.868 104.743 111.067 107.181C110.967 107.482 110.868 107.773 110.769 108.055C110.009 110.25 109.458 111.835 111.374 113.326C114.066 115.419 115.69 116.68 114.671 120.223C113.476 124.386 111.973 126.652 111.909 126.748C111.839 126.854 111.72 126.915 111.595 126.915Z" fill="#FFC927"/>
<path d="M104.991 127.302C104.918 127.302 104.844 127.282 104.78 127.238C104.604 127.122 104.559 126.886 104.674 126.71C104.697 126.678 106.789 123.544 107.718 121.819C109.823 117.905 107.869 116.267 105.165 113.998C102.922 112.119 103.87 109.617 104.783 107.2C105.113 106.327 105.456 105.424 105.661 104.534C106.232 102.07 104.604 101.245 101.903 99.8748C101.252 99.5451 100.579 99.2027 99.8648 98.7995C97.0002 97.1833 95.4398 93.2277 95.2283 87.035C95.1931 86.0301 94.799 85.2364 94.0524 84.6796C92.8797 83.8027 90.8514 83.5595 88.8905 84.0619C88.6854 84.1131 88.4803 83.9915 88.4259 83.7867C88.3714 83.5819 88.4963 83.3771 88.7014 83.3226C90.8803 82.7658 93.1584 83.0602 94.5106 84.0683C95.4366 84.7596 95.9461 85.7773 95.9909 87.0062C96.1896 92.8308 97.6603 96.6776 100.24 98.1338C100.938 98.5274 101.605 98.8667 102.249 99.1931C104.966 100.572 107.109 101.661 106.405 104.704C106.187 105.645 105.837 106.57 105.498 107.469C104.601 109.837 103.828 111.882 105.658 113.415C108.414 115.726 110.794 117.72 108.394 122.181C107.449 123.938 105.402 127.004 105.315 127.135C105.235 127.241 105.113 127.302 104.991 127.302Z" fill="#FFC927"/>
<path d="M64.5968 92.034C64.5968 92.034 63.7093 104.618 68.4643 112.225C72.8732 119.275 83.838 122.21 91.2364 117.339C101.317 110.702 103.698 100.387 103.698 100.387C103.698 100.387 99.2501 98.6971 97.3628 95.1063C94.9244 90.469 97.4782 85.8029 93.1173 83.7739C91.3646 82.9578 86.2828 84.5132 80.951 82.0361C77.6475 80.5032 74.6548 80.5096 73.2001 84.2796C71.7454 88.0496 69.9062 90.4594 69.1051 90.9907C68.3073 91.5219 64.5968 92.034 64.5968 92.034Z" fill="#FFC49C"/>
<path d="M78.7431 101.088C78.6053 101.088 78.4643 101.075 78.3265 101.046L69.5759 99.2349C69.028 99.1197 68.5602 98.7964 68.2654 98.3196C67.9706 97.8427 67.8841 97.2827 68.0251 96.7386L69.0376 92.8598C69.3132 91.8037 70.3674 91.1572 71.4343 91.394L79.8646 93.2438C80.9347 93.4775 81.6204 94.5048 81.425 95.5801L80.7329 99.4205C80.6336 99.9614 80.3292 100.432 79.871 100.739C79.5313 100.969 79.1404 101.088 78.7431 101.088ZM70.9954 92.3574C70.5436 92.3574 70.1367 92.6582 70.0181 93.1126L69.0056 96.9914C68.9351 97.2635 68.9768 97.5419 69.1241 97.7787C69.2715 98.0156 69.5054 98.1788 69.7778 98.2364L78.5284 100.048C78.7976 100.102 79.0731 100.051 79.3006 99.8974C79.5281 99.7437 79.6819 99.5101 79.73 99.2381L80.4221 95.3977C80.5182 94.86 80.1754 94.348 79.6435 94.2295L71.2133 92.3797C71.1428 92.3637 71.0691 92.3574 70.9954 92.3574Z" fill="#BD2231"/>
<path d="M96.5101 104.304C96.3948 104.304 96.2794 104.295 96.1641 104.275L88.1728 102.912C87.0834 102.726 86.3368 101.686 86.5131 100.598C86.7021 99.4206 86.9617 97.7756 87.1507 96.569C87.2372 96.0186 87.5352 95.5385 87.9934 95.2185C88.4516 94.8985 89.0059 94.7833 89.557 94.8953L97.4842 96.4954C98.5448 96.7099 99.2497 97.7148 99.0863 98.7805L98.5127 102.582C98.4326 103.127 98.141 103.6 97.6957 103.923C97.3432 104.173 96.9331 104.304 96.5101 104.304ZM88.1504 96.7227C87.9646 97.9292 87.7018 99.5774 87.5128 100.758C87.4263 101.302 87.798 101.821 88.3427 101.914L96.3339 103.277C96.603 103.322 96.8754 103.261 97.0965 103.101C97.3176 102.941 97.465 102.704 97.5034 102.432L98.077 98.6301C98.1571 98.0956 97.8046 97.5964 97.2759 97.4875L89.3488 95.8874C89.0764 95.833 88.7976 95.8906 88.5702 96.0506C88.3427 96.2106 88.1921 96.4474 88.1504 96.7227Z" fill="#BD2231"/>
<path d="M86.7764 100.016C86.7604 99.9965 85.2159 98.1371 83.71 97.7178C82.2617 97.3146 80.7941 98.2299 80.7781 98.2395L80.2334 97.385C80.3103 97.337 82.0982 96.2169 83.9823 96.7417C85.8023 97.2474 87.4909 99.286 87.5614 99.3724L86.7764 100.016Z" fill="#BD2231"/>
<path d="M80.0092 107.559C79.221 107.559 78.4136 107.287 77.8945 106.535C77.0133 105.258 77.949 104.083 78.5674 103.309C79.4934 102.147 82.4028 99.2988 82.5277 99.1772C82.7552 98.9563 83.1173 98.9595 83.3416 99.1868C83.5627 99.414 83.5595 99.7756 83.332 99.9996C83.3032 100.028 80.3489 102.918 79.4709 104.019C78.7436 104.931 78.4969 105.389 78.8397 105.885C79.3716 106.66 80.5187 106.368 80.743 106.304C82.0759 105.914 83.8094 104.999 83.8254 104.989C84.1074 104.842 84.4535 104.947 84.6009 105.226C84.7483 105.504 84.6425 105.853 84.3638 106C84.2901 106.039 82.5085 106.98 81.0634 107.405C80.7398 107.501 80.3777 107.559 80.0092 107.559Z" fill="#F2643A"/>
<path d="M81.1205 113.361C80.3611 113.361 79.5889 113.262 78.807 113.06C75.9201 112.321 73.738 110.334 72.6582 107.457C72.5461 107.159 72.6966 106.829 72.9946 106.717C73.2926 106.605 73.6227 106.756 73.7348 107.053C74.6768 109.566 76.5801 111.307 79.0922 111.947C81.7196 112.619 84.2189 111.988 86.7278 110.02C86.9777 109.825 87.3398 109.866 87.5352 110.116C87.7307 110.366 87.689 110.727 87.4391 110.922C85.3628 112.558 83.2769 113.361 81.1205 113.361Z" fill="#F2643A"/>
<path d="M74.9202 97.1929C75.5644 97.1929 76.0866 96.6713 76.0866 96.028C76.0866 95.3846 75.5644 94.863 74.9202 94.863C74.2761 94.863 73.7539 95.3846 73.7539 96.028C73.7539 96.6713 74.2761 97.1929 74.9202 97.1929Z" fill="#1F4847"/>
<path d="M92.8704 100.755C93.5146 100.755 94.0368 100.233 94.0368 99.59C94.0368 98.9466 93.5146 98.425 92.8704 98.425C92.2263 98.425 91.7041 98.9466 91.7041 99.59C91.7041 100.233 92.2263 100.755 92.8704 100.755Z" fill="#1F4847"/>
<path d="M197.859 95.8311C197.859 95.8311 201.966 92.5667 204.933 94.1701C207.9 95.7734 208.625 100.187 205.238 103.038C201.854 105.887 196.91 106.514 196.91 106.514" fill="#FF8632"/>
<path d="M153.144 94.6439C153.144 94.6439 152.974 113.132 163.343 124.221C173.715 135.311 186.179 128.331 189.918 123.837C193.657 119.344 199.14 109.359 199.188 90.8963C199.201 86.1566 195.26 69.7549 178.973 69.0989C162.686 68.446 155.031 76.1044 153.144 94.6439Z" fill="#FF8632"/>
<path d="M154.31 98.465C154.31 98.465 150.824 96.164 147.357 98.8138C145.23 100.44 145.537 104.187 147.107 106.111C148.953 108.373 151.792 110.178 155.717 108.94" fill="#FF8632"/>
<path d="M174.712 114.979C173.61 114.979 172.501 114.79 171.668 114.422C169.947 113.66 169.489 111.974 169.931 110.773C170.175 110.111 170.867 107.752 171.421 105.858C171.597 105.256 171.764 104.686 171.905 104.203C172.261 103 173.212 102.161 174.331 102.062C175.266 101.976 176.115 102.459 176.545 103.313C177.054 104.328 177.73 106.792 178.438 109.445C178.631 110.172 178.8 110.799 178.884 111.062C179.316 112.422 178.826 114.092 177.054 114.655C176.362 114.87 175.539 114.979 174.712 114.979ZM173.251 104.597C173.11 105.077 172.943 105.647 172.767 106.245C172.177 108.261 171.508 110.546 171.245 111.254C171.021 111.858 171.293 112.722 172.235 113.142C173.376 113.647 175.346 113.724 176.631 113.318C177.961 112.895 177.596 111.625 177.551 111.481C177.458 111.186 177.295 110.575 177.089 109.804C176.602 107.973 175.782 104.91 175.295 103.938C175.061 103.474 174.67 103.435 174.456 103.454C174.049 103.49 173.485 103.81 173.251 104.597Z" fill="#C82232"/>
<path d="M175.837 122.173C168.56 122.173 164.85 116.166 164.689 115.904L165.888 115.18L165.289 115.542L165.888 115.18C165.923 115.238 169.566 121.098 176.41 120.762C183.194 120.435 185.225 114.659 185.308 114.416L186.635 114.857C186.612 114.928 184.235 121.786 176.474 122.157C176.263 122.17 176.048 122.173 175.837 122.173Z" fill="#BD2231"/>
<path d="M160.263 104.37C160.177 104.37 160.087 104.35 160.004 104.306C159.725 104.162 159.619 103.822 159.764 103.544C159.84 103.393 161.693 99.8923 164.817 99.8923C164.836 99.8923 164.855 99.8923 164.877 99.8923C167.957 99.9371 169.671 102.072 169.745 102.161C169.937 102.408 169.895 102.763 169.649 102.955C169.402 103.147 169.046 103.105 168.854 102.859C168.841 102.843 167.386 101.057 164.861 101.022C164.849 101.022 164.833 101.022 164.82 101.022C162.388 101.022 160.789 104.03 160.773 104.062C160.664 104.258 160.469 104.37 160.263 104.37Z" fill="#1F4847"/>
<path d="M179.835 102.824C179.774 102.824 179.71 102.814 179.649 102.792C179.354 102.689 179.197 102.373 179.3 102.078C179.338 101.969 180.258 99.3835 183.869 98.8234C187.81 98.2121 190.579 101.147 190.694 101.272C190.906 101.502 190.893 101.861 190.662 102.072C190.434 102.283 190.076 102.27 189.861 102.04C189.839 102.014 187.374 99.4219 184.042 99.9403C181.136 100.392 180.399 102.363 180.37 102.446C180.287 102.677 180.069 102.824 179.835 102.824Z" fill="#1F4847"/>
<path d="M161.373 65.9816C157.797 68.545 152.218 73.3935 149.296 81.8712C146.752 89.2512 149.033 94.9414 153.006 96.2631C156.98 97.5849 162.536 87.5294 162.536 87.5294C162.536 87.5294 158.492 96.8456 163.205 97.9017C167.919 98.9578 173.821 88.0511 173.821 88.0511C173.821 88.0511 170.261 95.1494 174.074 97.4921C177.887 99.8315 185.657 85.9325 185.657 85.9325C185.657 85.9325 183.417 97.9177 187.211 98.1673C191.005 98.417 195.068 90.3521 195.068 90.3521C195.068 90.3521 192.975 96.9864 196.199 96.4488C199.419 95.9111 203.921 92.7748 204.696 84.5563C205.558 75.445 198.599 65.5975 190.435 62.6788C183.305 60.1281 170.517 59.4241 161.373 65.9816Z" fill="#C82232"/>
<path d="M164.97 105.874C166.315 105.874 167.406 104.785 167.406 103.441C167.406 102.098 166.315 101.009 164.97 101.009C163.625 101.009 162.535 102.098 162.535 103.441C162.535 104.785 163.625 105.874 164.97 105.874Z" fill="#1F4847"/>
<path d="M185.237 104.76C186.582 104.76 187.672 103.671 187.672 102.328C187.672 100.984 186.582 99.8955 185.237 99.8955C183.892 99.8955 182.802 100.984 182.802 102.328C182.802 103.671 183.892 104.76 185.237 104.76Z" fill="#1F4847"/>
<path opacity="0.5" d="M189.611 109.097C187.592 110.057 184.25 110.169 182.36 108.994C180.479 107.823 180.988 106.347 183.75 106.171C186.516 105.995 189.508 106.123 189.874 106.684C190.236 107.244 190.899 108.482 189.611 109.097Z" fill="#C82232"/>
<path opacity="0.5" d="M161.462 107.308C163.538 106.479 166.499 105.829 168.149 107.308C169.799 108.786 169.062 110.591 166.29 110.591C163.519 110.591 161.369 110.281 161.045 109.698C160.718 109.116 160.135 107.839 161.462 107.308Z" fill="#C82232"/>
<path d="M119.527 168.83C118.065 160.407 118.774 150.505 128.322 140.968C137.874 131.428 152.45 132.433 160.239 140.968C168.028 149.503 171.8 168.078 171.8 171.841C171.8 175.608 162.751 188.157 143.148 186.653C123.548 185.145 121.789 181.881 119.527 168.83Z" fill="#FFCB57"/>
<path d="M121.907 153.264C121.664 152.502 122.029 150.441 118.267 149.958C114.506 149.474 111.106 152.784 112.199 157.856C113.291 162.929 119.725 165.594 119.725 165.594L121.907 153.264Z" fill="#FFCB57"/>
<path d="M164.51 149.906C165.147 148.479 168.778 146.546 171.799 148.537C174.882 150.566 175.455 154.4 173.613 159.511C171.678 164.884 166.202 165.594 166.202 165.594L164.51 149.906Z" fill="#FFCB57"/>
<path d="M115.252 174.603C115.223 183.398 117.639 189.789 122.414 191.546C127.188 193.303 128.947 191.421 131.712 192.801C134.477 194.18 136.361 199.579 139.127 200.456C141.892 201.336 144.154 200.958 146.163 198.574C148.172 196.19 148.3 194.682 152.068 196.19C155.84 197.697 160.111 196.942 161.492 193.93C162.873 190.919 163.376 187.027 167.022 186.022C170.665 185.017 173.684 183.385 174.437 178.87C175.19 174.351 174.661 166.427 171.797 160.48C169.509 155.728 166.654 151.83 166.654 151.83C166.654 151.83 166.663 156.787 166.596 159.971C166.522 163.437 165.955 165.687 163.655 167.982C161.277 170.353 146.288 171.838 140.633 171.966C134.977 172.091 126.925 171.339 124.801 169.457C123.336 168.161 122.074 165.278 121.532 161.549C120.799 156.486 120.779 152.191 120.779 152.191C120.779 152.191 115.284 165.428 115.252 174.603Z" fill="#971B23"/>
<path d="M126.868 154.16C126.48 154.16 126.108 154.051 125.81 153.878C125.173 153.507 124.865 152.841 125.025 152.188C125.487 150.316 128.226 148.742 130.498 148.444C132.863 148.137 135.968 148.409 137.576 149.714C138.451 150.422 138.871 151.049 138.903 151.679C138.928 152.16 138.72 152.611 138.271 153.062C137.589 153.744 136.474 153.318 135.295 152.867C134.872 152.707 134.436 152.537 134.039 152.432C132.795 152.102 129.662 152.291 128.268 153.593C127.842 154 127.342 154.16 126.868 154.16ZM132.315 149.289C131.725 149.289 131.152 149.327 130.626 149.394C128.543 149.666 126.278 151.135 125.961 152.416C125.878 152.758 126.169 152.972 126.297 153.046C126.65 153.251 127.195 153.286 127.614 152.892C129.345 151.273 132.879 151.126 134.289 151.503C134.734 151.622 135.195 151.798 135.641 151.967C136.362 152.243 137.352 152.624 137.595 152.38C137.919 152.057 137.954 151.862 137.948 151.727C137.935 151.5 137.759 151.094 136.974 150.457C135.939 149.622 134.067 149.289 132.315 149.289Z" fill="#971B23"/>
<path d="M149.46 153.741C148.973 153.741 148.56 153.6 148.268 153.312C147.727 152.774 147.762 151.888 148.371 150.94C150.027 148.348 155.93 147.417 159.073 149.25C161.595 150.719 161.399 151.939 161.197 152.396C160.867 153.142 159.896 153.478 158.938 153.177C158.788 153.129 158.621 153.075 158.435 153.014C156.878 152.499 153.978 151.539 151.96 152.851C151.053 153.44 150.175 153.741 149.46 153.741ZM155.026 149.25C152.556 149.25 150.005 150.163 149.178 151.455C148.845 151.98 148.752 152.441 148.944 152.63C149.188 152.87 150.079 152.928 151.434 152.044C153.837 150.479 157.025 151.532 158.736 152.099C158.916 152.156 159.076 152.211 159.223 152.256C159.733 152.412 160.207 152.249 160.316 152.003C160.473 151.651 159.999 150.895 158.586 150.073C157.596 149.5 156.324 149.25 155.026 149.25Z" fill="#971B23"/>
<path d="M132.715 158.573C133.869 158.573 134.804 157.639 134.804 156.486C134.804 155.334 133.869 154.4 132.715 154.4C131.561 154.4 130.626 155.334 130.626 156.486C130.626 157.639 131.561 158.573 132.715 158.573Z" fill="#1E4847"/>
<path d="M155.491 157.853C156.644 157.853 157.58 156.919 157.58 155.766C157.58 154.614 156.644 153.68 155.491 153.68C154.337 153.68 153.401 154.614 153.401 155.766C153.401 156.919 154.337 157.853 155.491 157.853Z" fill="#1E4847"/>
<path d="M142.978 167.751C142.802 167.751 142.629 167.742 142.459 167.719C141.328 167.575 140.392 166.967 139.754 165.959C138.024 163.22 141.414 159.258 141.558 159.091L142.526 159.93C141.712 160.871 139.818 163.668 140.837 165.278C141.27 165.962 141.869 166.359 142.619 166.452C143.811 166.599 145.336 165.962 146.595 164.778L147.473 165.71C146.089 167.012 144.445 167.751 142.978 167.751Z" fill="#1E4847"/>
<path d="M143.744 184.592C140.021 184.592 136.531 183.033 134.308 180.287C132.901 178.549 132.51 177.064 133.205 176.111C133.724 175.4 134.99 174.802 138.088 175.986C142.472 177.663 147.204 177.353 150.149 175.195C151.738 174.031 153.177 173.765 154.093 174.463C154.943 175.109 155.096 176.421 154.504 177.973C153.209 181.363 149.979 183.776 145.862 184.428C145.154 184.537 144.442 184.592 143.744 184.592ZM135.131 176.594C134.618 176.594 134.343 176.725 134.243 176.863C134.003 177.193 134.231 178.156 135.307 179.484C137.659 182.393 141.629 183.804 145.663 183.161C149.319 182.582 152.177 180.47 153.308 177.513C153.725 176.418 153.616 175.701 153.321 175.477C152.982 175.218 152.107 175.352 150.912 176.226C147.624 178.633 142.411 179.007 137.633 177.18C136.483 176.741 135.673 176.594 135.131 176.594Z" fill="#FF6333"/>
<path d="M134.144 138.657C134.131 138.657 134.115 138.657 134.102 138.654C133.84 138.632 133.644 138.401 133.663 138.136C133.679 137.953 134.096 133.639 139.303 129.712C139.514 129.552 139.815 129.594 139.976 129.805C140.136 130.016 140.094 130.317 139.883 130.477C135.041 134.129 134.625 138.177 134.621 138.216C134.602 138.472 134.391 138.657 134.144 138.657Z" fill="#971B23"/>
<path d="M141.18 137.291C141.161 137.291 141.142 137.291 141.123 137.288C140.86 137.256 140.671 137.019 140.703 136.756C140.728 136.526 141.462 131.056 149.037 127.975C149.284 127.875 149.562 127.994 149.665 128.237C149.764 128.483 149.646 128.762 149.402 128.864C142.379 131.722 141.686 136.663 141.658 136.871C141.626 137.112 141.417 137.291 141.18 137.291Z" fill="#971B23"/>
<path d="M148.364 137.745C148.303 137.745 148.243 137.732 148.185 137.71C147.938 137.611 147.82 137.332 147.919 137.086C148.018 136.84 150.434 131.053 158.227 130.49C158.49 130.471 158.723 130.669 158.739 130.935C158.759 131.201 158.56 131.428 158.294 131.447C151.12 131.965 148.899 137.22 148.806 137.444C148.733 137.633 148.553 137.745 148.364 137.745Z" fill="#971B23"/>
<path d="M70.7454 151.129C70.5371 151.129 70.3641 150.969 70.3449 150.761L69.6944 142.603C69.6784 142.382 69.8418 142.19 70.0629 142.171C70.2904 142.149 70.4763 142.318 70.4955 142.539L71.1459 150.697C71.162 150.918 70.9985 151.11 70.7775 151.129C70.7678 151.129 70.755 151.129 70.7454 151.129Z" fill="#15A59E"/>
<path d="M75.5548 150.307C75.353 150.307 75.1767 150.153 75.1575 149.945L74.3693 141.928C74.3469 141.707 74.5071 141.512 74.7281 141.49C74.9428 141.467 75.1447 141.627 75.1671 141.848L75.9553 149.865C75.9778 150.086 75.8176 150.281 75.5965 150.303C75.5837 150.307 75.5676 150.307 75.5548 150.307Z" fill="#15A59E"/>
<path d="M70.5268 146.7C70.3281 146.7 70.1583 146.553 70.1295 146.351C70.1006 146.133 70.2544 145.932 70.4755 145.903L75.0607 145.298C75.2786 145.272 75.4804 145.423 75.5093 145.644C75.5381 145.864 75.3843 146.063 75.1632 146.092L70.578 146.697C70.562 146.697 70.5428 146.7 70.5268 146.7Z" fill="#15A59E"/>
<path d="M79.0219 146.079C78.8232 146.079 78.6534 145.932 78.6246 145.73C78.5957 145.513 78.7495 145.311 78.9706 145.282L82.1139 144.866C82.3318 144.837 82.5337 144.991 82.5625 145.212C82.5914 145.429 82.4376 145.631 82.2165 145.66L79.0732 146.076C79.0571 146.079 79.0379 146.079 79.0219 146.079Z" fill="#15A59E"/>
<path d="M79.124 149.775C79.0279 149.775 78.9349 149.74 78.8612 149.676C78.7811 149.606 78.7299 149.507 78.7235 149.401L78.2332 141.771C78.2204 141.567 78.3646 141.384 78.5697 141.352L81.8508 140.824C82.0686 140.789 82.2737 140.936 82.309 141.157C82.3442 141.374 82.1968 141.579 81.9757 141.615L79.0535 142.085L79.4925 148.946L82.5813 148.706C82.8024 148.687 82.9947 148.854 83.0107 149.074C83.0267 149.295 82.8633 149.487 82.6422 149.503L79.1496 149.775C79.1464 149.775 79.1336 149.775 79.124 149.775Z" fill="#15A59E"/>
<path d="M85.831 149.282C85.738 149.282 85.6483 149.25 85.5778 149.193C85.4945 149.126 85.4432 149.026 85.4336 148.921L84.6935 141.253C84.671 141.032 84.8344 140.837 85.0523 140.817C85.2702 140.798 85.4689 140.958 85.4881 141.176L86.1898 148.444L88.766 148.175C88.9903 148.149 89.1826 148.313 89.205 148.53C89.2274 148.751 89.0672 148.946 88.8493 148.969L85.8726 149.282C85.8598 149.282 85.8438 149.282 85.831 149.282Z" fill="#15A59E"/>
<path d="M90.6976 148.694C90.6111 148.694 90.5278 148.668 90.4605 148.614C90.3708 148.546 90.3131 148.447 90.3003 148.335L89.4416 140.264C89.4192 140.043 89.5762 139.848 89.7973 139.822C90.0119 139.797 90.2138 139.957 90.2394 140.178L91.0533 147.817L94.0108 147.244C94.2319 147.202 94.4369 147.343 94.4818 147.561C94.5234 147.778 94.3825 147.986 94.1646 148.031L90.7777 148.687C90.7489 148.69 90.7233 148.694 90.6976 148.694Z" fill="#15A59E"/>
<path d="M98.2279 147.718C97.7569 147.718 97.3275 147.574 96.9494 147.292C96.1099 146.661 95.5588 145.353 95.3089 143.404C95.0622 141.499 95.3506 139.906 96.1003 139.029C96.4752 138.593 96.9558 138.353 97.4909 138.341C97.5134 138.341 97.5358 138.341 97.5582 138.341C99.4166 138.341 100.327 140.469 100.564 142.482C100.702 143.676 101.128 147.305 98.6124 147.689C98.4778 147.708 98.3529 147.718 98.2279 147.718ZM97.5518 139.141C97.539 139.141 97.5262 139.141 97.5134 139.141C97.2026 139.15 96.9398 139.281 96.7123 139.55C96.1292 140.232 95.8953 141.669 96.1067 143.301C96.3278 145.004 96.786 146.162 97.4365 146.652C97.7377 146.879 98.0837 146.959 98.4906 146.898C99.6698 146.719 100.086 145.304 99.7691 142.575C99.5801 140.984 98.888 139.141 97.5518 139.141Z" fill="#15A59E"/>
<path d="M156.776 232.428C156.148 236.601 153.931 248.561 158.449 258.933C162.967 269.305 174.121 276.253 184.986 274.378C195.851 272.499 205.672 259.832 205.253 245.92C204.836 232.012 198.985 225.96 198.985 225.96C198.985 225.96 186.031 225.125 177.046 225.96C168.062 226.792 156.776 232.428 156.776 232.428Z" fill="#FF6333"/>
<path d="M174.992 251.899C174.944 251.899 174.896 251.899 174.848 251.895C174.088 251.86 173.432 251.559 172.996 251.047C171.753 249.578 171.746 247.895 172.977 246.314C174.233 244.704 177.962 240.368 178.123 240.182C178.372 239.891 178.811 239.859 179.103 240.109C179.395 240.358 179.427 240.797 179.177 241.088C179.138 241.133 175.309 245.581 174.076 247.165C173.243 248.234 173.239 249.182 174.056 250.151C174.239 250.366 174.54 250.494 174.909 250.51C175.636 250.545 176.463 250.161 177.171 249.46C178.677 247.972 182.605 243.959 182.647 243.92C182.916 243.645 183.355 243.642 183.631 243.911C183.906 244.179 183.909 244.618 183.64 244.893C183.602 244.935 179.664 248.954 178.148 250.452C177.209 251.374 176.065 251.899 174.992 251.899Z" fill="#1B264C"/>
<path d="M166.537 242.806C167.739 242.806 168.713 241.834 168.713 240.633C168.713 239.433 167.739 238.46 166.537 238.46C165.335 238.46 164.361 239.433 164.361 240.633C164.361 241.834 165.335 242.806 166.537 242.806Z" fill="#1B264C"/>
<path d="M191.064 240.63C192.266 240.63 193.24 239.657 193.24 238.457C193.24 237.257 192.266 236.284 191.064 236.284C189.863 236.284 188.889 237.257 188.889 238.457C188.889 239.657 189.863 240.63 191.064 240.63Z" fill="#1B264C"/>
<path d="M163.163 238.08C163.044 238.08 162.922 238.051 162.813 237.987C162.48 237.795 162.371 237.369 162.563 237.036C163.022 236.252 164.015 235.622 165.223 235.35C166.575 235.046 167.924 235.266 168.933 235.954C169.251 236.172 169.331 236.604 169.116 236.918C168.898 237.235 168.466 237.315 168.152 237.1C167.459 236.63 166.505 236.483 165.531 236.703C164.608 236.911 163.98 237.372 163.768 237.734C163.637 237.955 163.403 238.08 163.163 238.08Z" fill="#1B264C"/>
<path d="M187.691 235.871C187.495 235.871 187.3 235.788 187.162 235.628C186.912 235.337 186.947 234.898 187.239 234.649C188.873 233.25 191.472 232.313 193.868 233.871C194.189 234.079 194.282 234.511 194.07 234.831C193.859 235.151 193.429 235.244 193.109 235.033C191.356 233.894 189.395 234.63 188.146 235.702C188.011 235.817 187.851 235.871 187.691 235.871Z" fill="#1B264C"/>
<path d="M160.618 230.44C160.618 230.44 158.997 240.634 158.693 242.81C158.337 245.367 154.812 246.004 154.812 242.81C154.812 239.616 155.687 230.168 155.687 230.168L160.618 230.44Z" fill="#1B264C"/>
<path d="M195.807 225.586C195.807 225.586 198.979 234.844 200.392 237.139C201.805 239.434 204.977 238.582 204.272 235.664C203.567 232.745 200.091 224.501 200.091 224.501L195.807 225.586Z" fill="#1B264C"/>
<path d="M151.326 227.771C155.876 224.782 169.202 220.855 178.027 220.174C186.851 219.492 197.566 219.87 203.506 222.075C209.447 224.28 201.382 228.079 197.656 228.991C193.929 229.903 187.793 231.65 181.574 232.268C172.743 233.141 158.795 233.474 153.691 232.562C148.59 231.647 148.436 229.669 151.326 227.771Z" fill="#9B6565"/>
<path d="M156.735 226.21C156.735 226.21 156.78 218.292 156.735 212.311C156.687 205.779 161.849 203.698 164.146 204.767C166.443 205.836 169.978 207.321 172.349 208.573C174.473 209.693 177.161 210.496 178.872 208.253C180.583 206.009 182.288 203.98 183.57 202.377C184.851 200.773 190.85 199.493 192.775 205.369C194.701 211.245 197.268 223.208 197.268 223.208L156.735 226.21Z" fill="#9B6565"/>
<path d="M157.741 245.917C157.741 245.917 154.166 243.581 152.249 244.97C150.333 246.359 150.718 249.857 152.634 252.126C154.55 254.395 158.639 254.395 158.639 254.395L157.741 245.917Z" fill="#FF6333"/>
<path d="M204.109 246.231L202.702 238.771C202.702 238.771 205.128 236.108 208.066 237.881C211.007 239.654 208.454 246.17 204.109 246.231Z" fill="#FF6333"/>
<path opacity="0.5" d="M191.392 242.128C193.385 241.542 198.005 240.31 199.62 242.266C201.232 244.218 198.371 245.255 196.137 245.69C193.904 246.122 189.716 246.007 189.418 244.775C189.123 243.536 189.675 242.63 191.392 242.128Z" fill="#C82232"/>
<path opacity="0.5" d="M161.615 244.97C163.852 244.176 167.572 243.584 169.433 244.093C171.295 244.599 170.045 246.18 168.715 246.829C167.386 247.479 163.755 247.572 162.544 247.479C161.333 247.386 159.987 245.546 161.615 244.97Z" fill="#C82232"/>
<path d="M180.254 266.729C175.675 266.729 172.397 264.716 172.346 264.684L173.028 263.599C173.32 263.781 180.228 267.99 187.921 263.196L188.601 264.281C185.637 266.131 182.75 266.729 180.254 266.729Z" fill="#BD2231"/>
<path d="M180.218 263.801C175.64 263.801 172.362 261.788 172.311 261.756L172.993 260.671C173.285 260.853 180.193 265.062 187.886 260.268L188.565 261.352C185.605 263.202 182.718 263.801 180.218 263.801Z" fill="#BD2231"/>
<path d="M155.193 267.184C155.193 267.184 159.955 264.409 163.723 259.26C167.491 254.107 171.458 252.721 175.03 254.107C178.6 255.493 179.212 256.12 181.593 254.446C183.973 252.772 188.462 250.42 191.987 254.005C195.524 257.599 197.421 261.445 203.57 260.85C203.57 260.85 201.055 264.764 196.848 265.996C191.298 267.619 186.079 265.811 183.054 262.405C180.712 259.765 179.241 259.362 177.866 261.884C177.443 262.661 175.62 266.486 169.869 268.716C164.12 270.947 157.971 267.779 155.193 267.184Z" fill="#1B264C"/>
<path d="M168.266 226.84C163.313 226.84 160.583 226.338 160.525 226.325C160.266 226.274 160.096 226.024 160.144 225.761C160.195 225.502 160.448 225.329 160.708 225.381C160.74 225.387 163.88 225.976 169.529 225.88C174.739 225.79 183.201 225.086 193.935 222.219C194.192 222.151 194.454 222.302 194.525 222.558C194.592 222.814 194.442 223.076 194.185 223.147C182.964 226.145 174.082 226.84 168.266 226.84Z" fill="#971B23"/>
<path d="M176.719 213.459C171.98 213.459 168.353 209.817 168.196 209.66C168.01 209.472 168.013 209.168 168.202 208.982C168.391 208.796 168.696 208.8 168.882 208.988C168.917 209.024 172.39 212.499 176.726 212.499C176.812 212.499 176.899 212.499 176.985 212.496C176.992 212.496 176.995 212.496 177.001 212.496C177.261 212.496 177.472 212.701 177.482 212.96C177.491 213.226 177.283 213.446 177.017 213.456C176.918 213.459 176.818 213.459 176.719 213.459Z" fill="#971B23"/>
<path d="M37.6042 242.353C34.9384 242.353 32.3974 240.609 31.0965 238.887C30.9684 238.718 30.9684 238.487 31.0933 238.314L32.3333 236.618C32.4135 236.509 32.532 236.442 32.6634 236.426C32.798 236.41 32.9293 236.449 33.0319 236.535C33.0671 236.564 36.6622 239.54 38.495 237.924C39.5171 237.021 39.5332 236.125 38.5527 234.829C38.1297 234.272 37.569 233.837 36.9217 233.331C35.8676 232.512 34.6756 231.584 33.6246 229.805C32.1155 227.241 32.2532 224.418 33.9931 222.249C35.6176 220.223 38.0817 219.522 40.7507 220.325C43.1763 221.055 44.3074 224.022 44.3554 224.146C44.4388 224.37 44.3426 224.623 44.1312 224.739L42.0901 225.83C41.978 225.891 41.8466 225.903 41.7248 225.865C41.6031 225.827 41.5005 225.743 41.4396 225.631C41.4172 225.593 40.5585 224.038 39.2704 223.695C38.7065 223.548 38.1457 223.65 37.5594 224.012C36.9089 224.415 36.5821 224.953 36.5629 225.654C36.5212 227.065 37.7869 229.001 39.5716 230.253C42.606 232.384 44.0831 236.333 42.795 238.874C41.4621 241.505 39.5267 242.206 38.1361 242.328C37.9567 242.347 37.7805 242.353 37.6042 242.353ZM32.0802 238.583C33.41 240.161 35.8035 241.572 38.0464 241.374C39.7158 241.227 41.0231 240.238 41.9331 238.442C43.0001 236.34 41.6351 232.88 39.0141 231.04C37.3287 229.856 35.5407 227.657 35.5984 225.628C35.6273 224.61 36.1303 223.769 37.0499 223.199C37.8638 222.693 38.6969 222.549 39.5203 222.77C40.7507 223.1 41.6255 224.172 42.0324 224.771L43.2821 224.102C42.92 223.346 41.9747 221.698 40.4688 221.247C37.3543 220.309 35.5407 221.849 34.7365 222.85C33.2562 224.697 33.1472 227.113 34.4449 229.318C35.3998 230.941 36.518 231.808 37.5017 232.573C38.1746 233.095 38.809 233.591 39.3089 234.25C40.6001 235.952 40.5393 237.389 39.1198 238.641C37.0884 240.436 33.9258 238.414 32.8076 237.585L32.0802 238.583Z" fill="#15A59E"/>
<path d="M62.5357 244.846C62.5229 244.846 62.51 244.846 62.494 244.846L58.8605 244.539C58.6554 244.523 58.4856 244.376 58.4343 244.177L56.8514 237.85L51.3338 236.858L47.0915 243.079C46.9793 243.246 46.7743 243.323 46.5788 243.275L43.9738 242.628C43.8232 242.59 43.7015 242.484 43.6438 242.343C43.5861 242.203 43.5989 242.039 43.6822 241.908C43.9418 241.492 50.0714 231.696 51.2025 230.096C52.3367 228.489 56.2266 222.969 56.2266 222.969C56.3324 222.818 56.515 222.741 56.7008 222.77C56.8835 222.802 57.0309 222.937 57.0821 223.113L62.9971 244.238C63.0387 244.388 63.0035 244.552 62.9041 244.673C62.8144 244.782 62.6799 244.846 62.5357 244.846ZM59.2866 243.608L61.8884 243.828L56.4317 224.342C55.3038 225.945 52.8526 229.424 51.9907 230.643C51.0294 232.003 46.2039 239.694 44.8518 241.851L46.4891 242.257L50.7186 236.055C50.8244 235.898 51.0134 235.818 51.1993 235.853L57.3289 236.957C57.5147 236.992 57.6653 237.13 57.7102 237.312L59.2866 243.608Z" fill="#15A59E"/>
<path d="M57.0376 234.973C57.0152 234.973 56.996 234.973 56.9736 234.97L52.2954 234.352C52.132 234.33 51.9911 234.228 51.9206 234.077C51.8533 233.927 51.8661 233.751 51.9558 233.613L55.0671 228.88C55.1696 228.723 55.3554 228.643 55.5413 228.669C55.7271 228.697 55.8777 228.829 55.9322 229.008L57.499 234.359C57.5439 234.516 57.5087 234.682 57.4029 234.807C57.31 234.912 57.1754 234.973 57.0376 234.973ZM53.183 233.498L56.3712 233.92L55.3042 230.272L53.183 233.498Z" fill="#15A59E"/>
<path d="M74.0165 246.075C73.9876 246.075 73.9556 246.072 73.9236 246.066L65.7977 244.478C65.5446 244.427 65.3748 244.187 65.4164 243.931L68.5181 224.991C68.5405 224.86 68.6174 224.742 68.7296 224.668C68.8417 224.594 68.9795 224.572 69.1109 224.604L71.9946 225.324C72.2382 225.385 72.3952 225.622 72.3503 225.871L69.7101 241.287L74.7919 241.972C74.9265 241.991 75.045 242.065 75.1219 242.174C75.1988 242.286 75.2245 242.424 75.1956 242.555L74.4843 245.701C74.4362 245.922 74.2376 246.075 74.0165 246.075ZM66.4418 243.627L73.6512 245.035L74.1447 242.856L69.0916 242.174C68.9635 242.158 68.8449 242.088 68.768 241.982C68.6911 241.876 68.6591 241.745 68.6815 241.617L71.3314 226.15L69.3864 225.663L66.4418 243.627Z" fill="#15A59E"/>
<path d="M84.2989 249.074C83.8342 249.074 83.3761 249.032 82.9339 248.949C79.6784 248.341 77.3746 245.566 77.5669 242.494C77.7303 239.902 79.4669 228.048 79.5406 227.545C79.5599 227.417 79.6304 227.302 79.7329 227.225C79.8386 227.148 79.97 227.12 80.0982 227.142L83.0076 227.648C83.2671 227.692 83.4433 227.939 83.3985 228.198C83.3825 228.3 81.7131 238.353 81.3574 241.038C81.1684 242.472 81.3574 243.566 81.9214 244.289C82.4725 244.997 83.2959 245.227 83.8919 245.297C85.0582 245.438 87.0865 245.198 87.5799 242.094C88.0125 239.361 89.5729 229.494 89.5729 229.494C89.5954 229.363 89.6691 229.245 89.7812 229.171C89.8934 229.097 90.0312 229.072 90.1625 229.104L93.0239 229.808C93.2642 229.869 93.4212 230.099 93.3827 230.345C93.3667 230.454 91.7422 241.3 91.0885 244.43C90.4765 247.397 87.2787 249.074 84.2989 249.074ZM80.4218 228.172C80.0853 230.483 78.6723 240.295 78.5281 242.555C78.3647 245.144 80.3321 247.486 83.1101 248.005C85.6286 248.475 89.5249 247.269 90.1561 244.235C90.7297 241.486 92.0658 232.691 92.3734 230.637L90.4445 230.163C90.1177 232.227 88.9065 239.889 88.5316 242.244C87.8715 246.402 84.7314 246.36 83.783 246.251C82.6679 246.12 81.7643 245.646 81.1652 244.881C80.4378 243.947 80.1815 242.612 80.4058 240.913C80.7166 238.548 82.0367 230.541 82.3731 228.512L80.4218 228.172Z" fill="#15A59E"/>
<path d="M100.938 250.847C100.912 250.847 100.887 250.844 100.861 250.841L98.0318 250.396C97.9069 250.376 97.7915 250.306 97.7178 250.204C97.6441 250.101 97.6121 249.973 97.6313 249.845L99.9832 234.951L95.68 234.272C95.4172 234.231 95.2378 233.984 95.2794 233.725L95.8017 230.413C95.8434 230.154 96.0869 229.978 96.3432 230.013L109.054 231.815C109.182 231.834 109.298 231.901 109.375 232.003C109.452 232.106 109.484 232.237 109.464 232.362L108.942 235.674C108.9 235.937 108.654 236.116 108.394 236.074L103.796 235.351L101.415 250.441C101.374 250.677 101.172 250.847 100.938 250.847ZM98.6599 249.522L100.538 249.816L102.918 234.727C102.96 234.464 103.21 234.285 103.466 234.327L108.064 235.05L108.436 232.695L96.6797 231.027L96.3048 233.399L100.608 234.077C100.871 234.119 101.05 234.365 101.009 234.624L98.6599 249.522Z" fill="#15A59E"/>
<path d="M294.181 236.243C291.227 236.243 288.388 235.043 288.221 234.969C287.978 234.864 287.866 234.582 287.971 234.339C288.077 234.096 288.359 233.984 288.603 234.086C288.657 234.108 293.995 236.365 297.28 234.611C300.628 232.822 302.233 229.26 302.249 229.225C302.355 228.981 302.64 228.873 302.884 228.981C303.127 229.09 303.236 229.372 303.127 229.615C303.057 229.775 301.365 233.516 297.731 235.459C296.648 236.035 295.405 236.243 294.181 236.243Z" fill="#F2643A"/>
<path d="M299.657 238.938C299.455 238.938 299.266 238.81 299.199 238.608C299.116 238.355 299.254 238.086 299.507 238.003C305.069 236.185 308.555 226.722 308.591 226.626C308.68 226.376 308.959 226.245 309.206 226.338C309.456 226.428 309.584 226.703 309.494 226.952C309.347 227.359 305.813 236.953 299.805 238.915C299.757 238.931 299.705 238.938 299.657 238.938Z" fill="#F2643A"/>
<path d="M239.968 215.343C239.968 215.343 243.569 234.261 251.089 240.984C258.613 247.708 269.343 244.358 273.329 239.666C279.972 231.847 279.978 222.419 279.978 222.419L276.341 193.053L257.831 194.276L237.212 201.297L239.968 215.343Z" fill="#9B6565"/>
<path d="M249.129 192.112C249.129 192.112 243.839 186.691 234.793 189.101C225.748 191.51 220.624 200.843 220.323 209.576C220.022 218.307 221.528 229.172 221.528 229.172L243.88 228.932C242.163 219.67 242.086 212.405 243.111 206.863L254.146 206.562V201.14L256.979 205.957H263.48L261.333 198.43L267.348 204.753L275.275 205.048C278.245 211.084 279.517 217.286 279.565 226.045L295.384 224.65C295.384 224.65 295.891 197.454 284.532 186.387C275.541 177.627 268.921 177.051 262.407 177.957C255.896 178.863 250.199 185.788 249.129 192.112Z" fill="#1B264C"/>
<path d="M252.157 221.645C253.054 221.645 253.781 220.762 253.781 219.673C253.781 218.585 253.054 217.702 252.157 217.702C251.26 217.702 250.532 218.585 250.532 219.673C250.532 220.762 251.26 221.645 252.157 221.645Z" fill="#1B264C"/>
<path d="M268.309 221.645C269.206 221.645 269.934 220.762 269.934 219.673C269.934 218.585 269.206 217.702 268.309 217.702C267.412 217.702 266.685 218.585 266.685 219.673C266.685 220.762 267.412 221.645 268.309 221.645Z" fill="#1B264C"/>
<path d="M257.928 229.137C257.428 229.137 257.014 228.935 256.742 228.666C256.066 228.004 255.88 226.637 256.838 225.309C258.139 223.504 259.19 222.042 259.19 222.042L260.231 222.787C260.231 222.787 259.18 224.25 257.879 226.055C257.319 226.833 257.402 227.514 257.642 227.748C257.841 227.943 258.213 227.87 258.639 227.55C260.286 226.317 262.019 224.141 262.038 224.119L263.041 224.912C262.968 225.005 261.189 227.239 259.408 228.574C258.87 228.983 258.363 229.137 257.928 229.137Z" fill="#1B264C"/>
<path d="M248.077 217.292C247.635 217.292 247.276 216.934 247.276 216.492C247.276 215.971 248.042 212.172 251.128 211.66C252.48 211.436 253.739 211.938 254.771 213.119C255.492 213.945 255.851 214.831 255.867 214.87C256.03 215.279 255.832 215.747 255.418 215.91C255.008 216.073 254.54 215.875 254.377 215.462C254.367 215.44 253.319 212.918 251.391 213.238C249.366 213.574 248.898 216.39 248.878 216.531C248.856 216.956 248.507 217.292 248.077 217.292ZM248.878 216.492C248.878 216.502 248.878 216.512 248.878 216.521C248.878 216.512 248.878 216.502 248.878 216.492Z" fill="#1B264C"/>
<path d="M264.416 217.078C264.326 217.078 264.237 217.062 264.15 217.033C263.734 216.886 263.513 216.428 263.66 216.012C263.724 215.833 265.23 211.65 268.296 211.612C268.312 211.612 268.328 211.612 268.344 211.612C271.388 211.612 272.773 215.343 272.83 215.5C272.981 215.916 272.766 216.374 272.35 216.524C271.933 216.675 271.475 216.46 271.324 216.044C271.315 216.019 270.261 213.209 268.341 213.209C268.332 213.209 268.325 213.209 268.316 213.209C266.387 213.234 265.179 216.508 265.169 216.54C265.057 216.87 264.746 217.078 264.416 217.078Z" fill="#1B264C"/>
<path d="M260.599 237.506C258.603 237.506 256.61 236.798 255.123 235.707C253.48 234.504 253.954 233.422 254.137 233.118C254.723 232.155 256.293 231.947 257.712 232.641C258.827 233.188 261.378 233.096 262.858 232.449C263.993 231.956 265.681 232.113 266.29 233.128C266.585 233.624 266.825 234.661 265.098 236.014C263.759 237.064 262.179 237.506 260.599 237.506ZM255.883 234.677C258.155 236.341 261.779 236.99 264.307 235.009C265.114 234.379 265.278 233.931 265.188 233.787C265.015 233.496 264.111 233.304 263.371 233.627C261.516 234.433 258.606 234.51 257.149 233.793C256.194 233.323 255.383 233.541 255.236 233.784C255.149 233.921 255.345 234.283 255.883 234.677Z" fill="#BD2130"/>
<path opacity="0.3" d="M269.45 222.278C271.664 221.722 273.567 221.056 274.333 222.602C275.099 224.147 273.66 225.165 271.689 225.306C269.719 225.447 268.389 225.773 267.54 224.656C266.688 223.539 267.748 222.707 269.45 222.278Z" fill="#F2643A"/>
<path opacity="0.3" d="M252.477 225.22C253.564 225.13 254.002 223.696 253.217 223.085C252.432 222.474 250.295 222.413 248.597 222.736C247.097 223.021 246.332 224.522 247.681 224.957C249.033 225.393 250.907 225.348 252.477 225.22Z" fill="#F2643A"/>
<path d="M269.081 197.335C268.94 197.335 268.806 197.261 268.732 197.133C266.358 192.951 262.375 190.608 262.333 190.586C262.141 190.473 262.077 190.23 262.189 190.038C262.301 189.846 262.545 189.782 262.737 189.894C262.907 189.993 266.95 192.371 269.43 196.74C269.539 196.932 269.472 197.175 269.28 197.284C269.216 197.319 269.148 197.335 269.081 197.335Z" fill="#15A59E"/>
<path d="M274.541 199.476C274.371 199.476 274.214 199.367 274.16 199.198C272.561 194.192 268.072 191.168 268.027 191.136C267.841 191.014 267.793 190.765 267.915 190.582C268.036 190.4 268.286 190.349 268.469 190.47C268.664 190.598 273.237 193.674 274.922 198.955C274.99 199.166 274.874 199.39 274.663 199.457C274.621 199.47 274.579 199.476 274.541 199.476Z" fill="#15A59E"/>
<path d="M229.458 204.325C229.432 204.325 229.41 204.322 229.384 204.318C229.166 204.277 229.022 204.069 229.064 203.851C230.381 196.734 233.495 195.3 233.627 195.242C233.828 195.153 234.066 195.245 234.155 195.45C234.245 195.652 234.152 195.885 233.95 195.975C233.902 195.997 231.076 197.377 229.852 203.995C229.817 204.19 229.647 204.325 229.458 204.325Z" fill="#15A59E"/>
<path d="M224.978 209.634C224.969 209.634 224.959 209.634 224.953 209.634C224.732 209.618 224.565 209.429 224.581 209.208C225.004 202.923 227.529 198.596 227.638 198.417C227.75 198.228 227.997 198.164 228.186 198.276C228.375 198.388 228.439 198.634 228.327 198.823C228.301 198.865 225.789 203.176 225.382 209.263C225.363 209.471 225.187 209.634 224.978 209.634Z" fill="#15A59E"/>
<path d="M203.392 211.266C203.276 211.198 203.19 211.085 203.165 210.944C201.319 201.571 192.765 196.993 189.544 195.27C189.307 195.154 189.222 194.856 189.345 194.62C189.471 194.386 189.76 194.299 189.996 194.422C193.326 196.205 202.174 200.937 204.106 210.757C204.158 211.017 203.988 211.27 203.727 211.321C203.605 211.346 203.489 211.323 203.392 211.266Z" fill="#15A59E"/>
<path d="M208.721 212.799C208.577 212.715 208.481 212.555 208.483 212.374C208.642 203.333 200.538 196.341 200.455 196.274C200.251 196.103 200.228 195.8 200.399 195.596C200.57 195.392 200.876 195.371 201.077 195.541C201.424 195.836 209.611 202.888 209.445 212.392C209.442 212.658 209.222 212.87 208.958 212.864C208.869 212.863 208.79 212.839 208.721 212.799Z" fill="#15A59E"/>
<path d="M219.807 102.328C219.637 102.328 219.48 102.222 219.426 102.052L217.019 94.6979C216.952 94.4867 217.064 94.2627 217.276 94.1923C217.487 94.1251 217.712 94.2403 217.782 94.4483L220.188 101.803C220.256 102.014 220.144 102.238 219.932 102.308C219.89 102.321 219.849 102.328 219.807 102.328Z" fill="#15A59E"/>
<path d="M222.544 101.489C222.374 101.489 222.214 101.38 222.162 101.207L219.756 93.5555C219.689 93.3443 219.807 93.1202 220.019 93.053C220.23 92.9858 220.455 93.1042 220.522 93.3155L222.928 100.967C222.996 101.179 222.877 101.403 222.665 101.47C222.624 101.483 222.582 101.489 222.544 101.489Z" fill="#15A59E"/>
<path d="M218.606 98.6504C218.436 98.6504 218.279 98.5416 218.225 98.372C218.158 98.1607 218.276 97.9367 218.484 97.8695C218.577 97.8407 220.734 97.1558 221.262 96.999C221.474 96.935 221.698 97.0566 221.762 97.2678C221.826 97.4791 221.705 97.7031 221.493 97.7671C220.971 97.9239 218.75 98.628 218.728 98.6344C218.686 98.644 218.648 98.6504 218.606 98.6504Z" fill="#15A59E"/>
<path d="M224.572 101.335C224.364 101.335 224.187 101.172 224.171 100.961L223.607 92.3361C223.595 92.1473 223.716 91.9777 223.896 91.9265C224.075 91.8753 224.271 91.9553 224.36 92.1217L228.337 99.5625C228.443 99.7577 228.366 100.001 228.173 100.103C227.978 100.209 227.734 100.132 227.632 99.9401L224.527 94.1347L224.972 100.91C224.985 101.131 224.819 101.319 224.597 101.335C224.588 101.335 224.578 101.335 224.572 101.335Z" fill="#15A59E"/>
<path d="M224.338 97.796C224.168 97.796 224.008 97.6872 223.956 97.5144C223.889 97.3032 224.008 97.0792 224.219 97.012L226.263 96.3719C226.475 96.3079 226.699 96.4231 226.766 96.6343C226.834 96.8455 226.715 97.0696 226.504 97.1368L224.459 97.7768C224.418 97.7928 224.379 97.796 224.338 97.796Z" fill="#15A59E"/>
<path d="M230.814 100.004C230.612 100.004 230.439 99.8506 230.416 99.6458L229.458 90.7361C229.436 90.5153 229.593 90.32 229.814 90.2944C230.035 90.2688 230.23 90.4289 230.256 90.6497L231.214 99.5594C231.236 99.7802 231.079 99.9755 230.858 100.001C230.839 100.001 230.826 100.004 230.814 100.004Z" fill="#15A59E"/>
<path d="M233.377 99.4473C233.178 99.4473 233.005 99.3001 232.98 99.0953L232.031 91.3217C232.005 91.1008 232.159 90.9024 232.38 90.8768C232.598 90.8512 232.8 91.0048 232.826 91.2256L233.774 98.9993C233.8 99.2201 233.646 99.4185 233.425 99.4441C233.409 99.4473 233.393 99.4473 233.377 99.4473Z" fill="#15A59E"/>
<path d="M230.295 95.178C230.096 95.178 229.923 95.0308 229.897 94.8259C229.872 94.6083 230.025 94.4067 230.247 94.3811L232.771 94.0707C232.989 94.0451 233.191 94.1987 233.217 94.4195C233.242 94.6371 233.089 94.8387 232.868 94.8643L230.343 95.1748C230.327 95.178 230.311 95.178 230.295 95.178Z" fill="#15A59E"/>
<path d="M235.059 99.7354C235.039 99.7354 235.023 99.7354 235.004 99.7322C234.786 99.7034 234.629 99.5017 234.661 99.2841L235.911 89.9392C235.937 89.7535 236.087 89.6095 236.273 89.5935C236.459 89.5775 236.632 89.6927 236.69 89.8719L239.529 98.8009C239.596 99.0121 239.477 99.2361 239.269 99.3033C239.058 99.3705 238.833 99.2521 238.766 99.0441L236.469 91.8178L235.456 99.3897C235.427 99.5882 235.257 99.7354 235.059 99.7354Z" fill="#15A59E"/>
<path d="M235.521 96.2852C235.322 96.2852 235.152 96.138 235.124 95.9396C235.095 95.722 235.249 95.5203 235.466 95.4883L238.02 95.1459C238.238 95.1203 238.44 95.2707 238.472 95.4883C238.504 95.706 238.347 95.9076 238.129 95.9396L235.575 96.282C235.556 96.2852 235.537 96.2852 235.521 96.2852Z" fill="#15A59E"/>
<path d="M242.736 98.0679C242.541 98.0679 242.367 97.9239 242.339 97.7255L241.182 89.651C241.15 89.4334 241.304 89.2286 241.522 89.1998C241.736 89.1678 241.945 89.3214 241.973 89.539L243.13 97.6135C243.162 97.8311 243.008 98.0359 242.79 98.0647C242.774 98.0679 242.755 98.0679 242.736 98.0679Z" fill="#15A59E"/>
<path d="M245.751 98.4423C245.546 98.4423 245.37 98.2855 245.354 98.0775L244.604 89.4462C244.585 89.2254 244.748 89.0334 244.969 89.0142C245.194 89.0014 245.383 89.1582 245.402 89.379L246.152 98.0103C246.171 98.2311 246.007 98.4231 245.786 98.4423C245.774 98.4423 245.764 98.4423 245.751 98.4423Z" fill="#15A59E"/>
<path d="M242.197 94.3044C241.989 94.3044 241.813 94.1411 241.797 93.9299C241.781 93.7091 241.951 93.5203 242.172 93.5043L245.411 93.2899C245.629 93.2739 245.821 93.4435 245.837 93.6643C245.853 93.8851 245.684 94.0739 245.463 94.0899L242.223 94.3044C242.213 94.3012 242.207 94.3044 242.197 94.3044Z" fill="#15A59E"/>
<path d="M247.994 98.4264C247.978 98.4264 247.962 98.4264 247.943 98.4232C247.722 98.3976 247.568 98.196 247.594 97.9784L248.664 89.3502C248.686 89.1614 248.84 89.0142 249.029 89.0014C249.221 88.9854 249.394 89.107 249.446 89.2926L251.881 97.8727C251.942 98.084 251.817 98.308 251.605 98.3656C251.394 98.4264 251.169 98.3016 251.112 98.0904L249.218 91.4113L248.391 98.0776C248.366 98.2792 248.193 98.4264 247.994 98.4264Z" fill="#15A59E"/>
<path d="M248.388 95.1588C248.222 95.1588 248.081 95.0275 248.068 94.8579C248.058 94.6819 248.193 94.5283 248.369 94.5187L250.548 94.3843C250.734 94.3779 250.878 94.5091 250.888 94.6851C250.897 94.8611 250.763 95.0147 250.586 95.0243L248.408 95.1588C248.401 95.1588 248.395 95.1588 248.388 95.1588Z" fill="#15A59E"/>
<path d="M131.537 48.1095C131.428 48.1095 131.323 48.1055 131.222 48.1015C130.972 48.0894 130.77 47.8919 130.746 47.6419L129.002 28.1831C128.982 27.9695 129.099 27.7719 129.293 27.6792C129.337 27.6591 130.407 27.1753 131.771 27.3285C133.03 27.4696 134.79 28.1912 136.005 30.8236C137.603 34.2784 135.157 37.1446 133.034 38.62C135.153 39.3215 137.773 40.9823 137.305 43.9332C136.78 47.263 133.466 48.1095 131.537 48.1095ZM130.04 28.4814L131.706 47.0937C132.853 47.0493 135.852 46.6583 136.308 43.776C136.856 40.3051 131.715 39.3134 131.666 39.3013C131.456 39.261 131.291 39.0917 131.258 38.882C131.226 38.6724 131.331 38.4588 131.525 38.362C131.751 38.2451 137.022 35.4313 135.089 31.2428C134.269 29.4731 133.115 28.4895 131.658 28.3283C130.98 28.2557 130.391 28.3807 130.04 28.4814Z" fill="#15A59E"/>
<path d="M143.419 45.485C142.886 45.485 142.365 45.3237 141.885 45.0053C139.968 43.7354 138.967 40.3008 138.664 37.5112C138.006 31.4321 138.652 27.9652 140.585 27.2073C141.562 26.8244 142.559 26.8768 143.463 27.3605C145.154 28.2635 146.446 30.5734 147.201 34.0322C148.779 41.2683 146.579 44.6626 144.214 45.364C143.948 45.4487 143.681 45.485 143.419 45.485ZM141.877 27.9652C141.574 27.9652 141.264 28.0257 140.953 28.1506C139.56 28.6949 139.092 32.069 139.669 37.4064C140.012 40.5749 141.126 43.292 142.446 44.1668C142.918 44.4812 143.403 44.5578 143.927 44.4046C146.03 43.7798 147.556 40.3935 146.216 34.2539C145.538 31.1378 144.391 29.0053 142.987 28.2555C142.628 28.062 142.256 27.9652 141.877 27.9652Z" fill="#15A59E"/>
<path d="M151.754 45.4891C151.507 45.4891 151.294 45.3118 151.257 45.0618L148.472 26.5544C148.436 26.3125 148.581 26.0787 148.815 26.0021C149.05 25.9255 149.304 26.0263 149.421 26.244L157.227 40.954L155.027 25.7401C154.987 25.466 155.18 25.208 155.455 25.1677C155.729 25.1274 155.988 25.3209 156.028 25.595L158.643 43.6832C158.68 43.925 158.534 44.1588 158.3 44.2354C158.066 44.312 157.812 44.2072 157.699 43.9936L149.917 29.3279L152.262 44.9167C152.303 45.1908 152.113 45.4488 151.838 45.4891C151.806 45.4851 151.778 45.4891 151.754 45.4891Z" fill="#15A59E"/>
<path d="M159.944 25.9296C159.689 25.9296 159.467 25.7361 159.443 25.4741C159.415 25.1959 159.617 24.95 159.895 24.9218L168.439 24.0752C168.714 24.0511 168.964 24.2486 168.992 24.5267C169.021 24.8049 168.819 25.0508 168.54 25.079L159.996 25.9256C159.976 25.9296 159.96 25.9296 159.944 25.9296Z" fill="#15A59E"/>
<path d="M163.906 43.9131C163.898 43.9131 163.89 43.9131 163.886 43.9131C162.712 43.901 160.674 43.2238 160.217 38.7813C160.189 38.5032 160.391 38.2573 160.67 38.2291C160.94 38.1928 161.194 38.4024 161.222 38.6805C161.501 41.3936 162.449 42.8972 163.894 42.9093C163.898 42.9093 163.902 42.9093 163.906 42.9093C164.306 42.9093 164.661 42.744 164.956 42.4175C165.541 41.7685 165.82 40.5631 165.678 39.2651C165.38 36.5077 163.576 25.704 163.559 25.5951C163.515 25.321 163.701 25.059 163.975 25.0146C164.254 24.9743 164.512 25.1557 164.556 25.4298C164.629 25.8773 166.381 36.3747 166.683 39.1603C166.857 40.7607 166.49 42.2321 165.707 43.0988C165.214 43.6309 164.593 43.9131 163.906 43.9131Z" fill="#15A59E"/>
<path d="M175.631 42.1312C175.341 42.1312 175.054 42.0708 174.772 41.9538C173.266 41.3209 171.983 38.9425 171.248 35.4273C169.803 28.5016 170.687 23.6036 173.504 22.9465C173.997 22.8296 174.497 22.9506 174.986 23.3013C177.197 24.8775 178.961 31.3033 179.195 33.585C179.49 36.4552 179.341 40.2003 176.947 41.72C176.523 41.9942 176.075 42.1312 175.631 42.1312ZM173.868 23.914C173.823 23.914 173.779 23.9181 173.734 23.9302C171.571 24.4341 170.954 29.0781 172.237 35.2257C172.883 38.3177 174.005 40.5389 175.163 41.0267C175.567 41.196 175.974 41.1436 176.406 40.8694C178.469 39.5593 178.408 35.8062 178.19 33.6898C177.928 31.1542 176.148 25.3733 174.396 24.1237C174.211 23.9826 174.033 23.914 173.868 23.914Z" fill="#15A59E"/>
<path d="M185.705 41.1594C183.578 41.1594 182.291 39.7525 181.887 36.9709C181.403 33.6653 180.228 23.1599 180.216 23.0551C180.184 22.7769 180.386 22.531 180.66 22.4988C180.935 22.4706 181.185 22.6681 181.217 22.9422C181.229 23.047 182.404 33.5363 182.884 36.8258C183.332 39.8815 184.733 40.204 185.907 40.1476C186.222 40.1314 186.484 39.9944 186.706 39.7243C187.243 39.0793 187.441 37.7933 187.239 36.2897C186.896 33.7258 185.79 23.1599 185.778 23.0551C185.75 22.7769 185.952 22.531 186.226 22.5028C186.5 22.4706 186.751 22.6762 186.779 22.9503C186.791 23.0551 187.893 33.6089 188.236 36.1566C188.482 37.9908 188.216 39.4864 187.477 40.3693C187.074 40.853 186.549 41.1231 185.952 41.1554C185.871 41.1594 185.786 41.1594 185.705 41.1594Z" fill="#15A59E"/>
<path d="M199.392 39.1399C199.238 39.1399 199.085 39.0674 198.984 38.9343L191.001 28.0943C190.835 27.8686 190.884 27.5542 191.11 27.3889C191.332 27.2236 191.65 27.272 191.816 27.4977L199.799 38.3377C199.965 38.5635 199.916 38.8779 199.69 39.0432C199.597 39.1077 199.492 39.1399 199.392 39.1399Z" fill="#15A59E"/>
<path d="M191.005 40.6396C190.755 40.6396 190.537 40.4501 190.505 40.1961L189.04 27.8605C189.04 27.8565 189.04 27.8484 189.04 27.8444L188.422 22.6481C188.398 22.4305 188.515 22.2249 188.713 22.1321C188.858 22.0636 192.289 20.5156 194.589 22.3377C195.481 23.0432 195.949 24.0188 195.901 25.079C195.857 26.0707 195.352 27.0019 194.585 27.5098C193.645 28.1306 191.239 28.2596 190.109 28.2878L191.51 40.0752C191.542 40.3533 191.344 40.6033 191.07 40.6355C191.046 40.6396 191.025 40.6396 191.005 40.6396ZM189.467 22.9182L189.988 27.2881C191.381 27.2599 193.403 27.0865 194.028 26.6753C194.525 26.3488 194.864 25.7079 194.892 25.0427C194.924 24.313 194.593 23.6358 193.96 23.1359C192.507 21.979 190.303 22.6119 189.467 22.9182Z" fill="#15A59E"/>
<path d="M202.787 38.0801C202.783 38.0801 202.779 38.0801 202.775 38.0801C202.496 38.072 202.278 37.8422 202.282 37.5641L202.763 19.492C202.771 19.2139 203.005 18.9922 203.279 19.0002C203.558 19.0083 203.776 19.2381 203.772 19.5162L203.291 37.5883C203.283 37.8624 203.057 38.0801 202.787 38.0801Z" fill="#15A59E"/>
<path d="M202.616 41.2446C203.073 41.2446 203.444 40.8746 203.444 40.4182C203.444 39.9618 203.073 39.5918 202.616 39.5918C202.16 39.5918 201.789 39.9618 201.789 40.4182C201.789 40.8746 202.16 41.2446 202.616 41.2446Z" fill="#15A59E"/>
<path d="M207.73 38.7572C207.718 38.7572 207.702 38.7572 207.69 38.7572C207.412 38.737 207.206 38.4911 207.226 38.217L208.695 19.4677C208.715 19.1895 208.961 18.9799 209.236 19.0041C209.514 19.0243 209.72 19.2702 209.7 19.5443L208.231 38.2936C208.215 38.5556 207.993 38.7572 207.73 38.7572Z" fill="#15A59E"/>
<path d="M207.565 41.9216C208.022 41.9216 208.392 41.5516 208.392 41.0952C208.392 40.6388 208.022 40.2688 207.565 40.2688C207.108 40.2688 206.737 40.6388 206.737 41.0952C206.737 41.5516 207.108 41.9216 207.565 41.9216Z" fill="#15A59E"/>
<path d="M213.987 253.46C213.824 253.4 213.698 253.251 213.675 253.065C213.643 252.801 213.83 252.563 214.094 252.531L218.25 252.037C218.514 252.005 218.753 252.192 218.785 252.456C218.817 252.721 218.63 252.958 218.365 252.99L214.21 253.485C214.13 253.496 214.056 253.486 213.987 253.46Z" fill="#F2643A"/>
<path d="M217.698 263.809C217.692 263.806 217.686 263.804 217.677 263.801L212.216 261.513C211.971 261.409 211.857 261.128 211.96 260.886C212.064 260.641 212.337 260.521 212.587 260.63L218.048 262.918C218.293 263.022 218.408 263.303 218.305 263.545C218.21 263.783 217.939 263.897 217.698 263.809Z" fill="#F2643A"/>
<path d="M213.322 271.85C213.283 271.836 213.243 271.814 213.209 271.788L208.37 268.29C208.154 268.135 208.107 267.835 208.262 267.619C208.417 267.404 208.718 267.358 208.934 267.513L213.773 271.01C213.989 271.165 214.035 271.466 213.88 271.681C213.749 271.861 213.521 271.924 213.322 271.85Z" fill="#F2643A"/>
<path d="M98.2529 277.855L100.032 326.797L96.7518 322.788L93.3518 326.681L92.2615 322.655L87.3733 327.709L85.5164 307.637L84.4941 278.931L98.2529 277.855Z" fill="#1B264C"/>
<path d="M44.167 282.918L47.91 326.681L50.9897 321.027L53.4096 326.681L55.8229 321.764L59.7633 326.681V322.668V309.13L59.2715 281.729L46.121 282.621L44.167 282.918Z" fill="#1B264C"/>
<path d="M51.7012 280.763C51.7012 280.763 51.6979 297.359 53.0308 304.551C54.0304 309.944 62.888 314.581 73.1109 314.397C83.3337 314.212 90.0724 311.13 92.2625 304.202C94.4527 297.275 92.2625 276.611 92.2625 276.611L51.7012 280.763Z" fill="#FF8632"/>
<path d="M43.5352 283.038L98.4861 277.748C98.4861 277.748 95.3837 264.074 82.9674 259.88C70.5545 255.686 57.0448 258.784 50.6556 266.446C44.2663 274.1 43.5352 283.038 43.5352 283.038Z" fill="#00ADA8"/>
<path d="M70.7227 280.42C70.7227 280.42 84.5494 265.715 93.9828 263.344C103.416 260.972 105.972 264.255 106.884 266.261C107.797 268.268 107.227 270.885 105.134 273.286C103.607 275.037 99.5828 277.716 99.5828 277.716L70.7227 280.42Z" fill="#127A8B"/>
<path d="M62.1919 290.373C63.3032 290.373 64.2041 289.685 64.2041 288.838C64.2041 287.99 63.3032 287.303 62.1919 287.303C61.0806 287.303 60.1797 287.99 60.1797 288.838C60.1797 289.685 61.0806 290.373 62.1919 290.373Z" fill="#1E6B67"/>
<path d="M81.2075 290.046C82.3188 290.046 83.2197 289.359 83.2197 288.511C83.2197 287.663 82.3188 286.976 81.2075 286.976C80.0962 286.976 79.1953 287.663 79.1953 288.511C79.1953 289.359 80.0962 290.046 81.2075 290.046Z" fill="#1E6B67"/>
<path d="M71.7456 307.934C68.8534 307.934 66.2621 306.952 64.3858 305.136C63.4346 304.212 63.5608 303.152 64.0817 302.557C64.6381 301.921 65.7121 301.678 66.6859 302.444C71.4026 306.154 76.9346 302.541 77.1675 302.386C78.6071 301.426 79.665 301.762 80.1761 302.399C80.7552 303.123 80.684 304.231 80.0144 304.868C78.1801 306.612 75.3656 307.75 72.4799 307.911C72.2341 307.927 71.9882 307.934 71.7456 307.934ZM65.3983 302.939C65.1525 302.939 64.9454 303.042 64.8128 303.194C64.5831 303.456 64.5281 303.921 65.0619 304.438C68.9666 308.221 75.9447 307.397 79.3447 304.166C79.6812 303.846 79.6553 303.297 79.4191 303.003C79.1086 302.612 78.468 302.683 77.7078 303.187C75.3688 304.748 70.2898 306.509 66.0842 303.2C65.8448 303.016 65.6086 302.939 65.3983 302.939Z" fill="#1F4847"/>
<path d="M47.5341 288.75C47.5341 288.75 45.4572 286.45 42.8885 288.524C41.5201 289.629 41.7207 293.284 43.5711 294.822C45.001 296.011 47.5341 298.473 47.5341 298.473V288.75Z" fill="#FF8632"/>
<path d="M96.5225 285.901C96.5225 285.901 98.0591 283.593 100.139 284.569C102.504 285.681 102.103 289.309 100.505 291.267C99.0264 293.08 97.1727 294.292 97.1727 294.292L96.5225 285.901Z" fill="#FF8632"/>
<path d="M71.5905 300.315C70.1897 300.315 69.0057 299.759 68.5786 298.951C68.4525 298.948 68.3295 298.941 68.2131 298.935C67.207 298.88 66.4952 298.534 66.1038 297.907C65.6768 297.226 65.6865 296.263 66.1361 295.19C66.7282 293.768 69.3583 288.744 69.4683 288.531L70.3288 288.98C70.3029 289.031 67.6081 294.179 67.0323 295.562C66.7152 296.324 66.6764 296.99 66.9255 297.39C67.1423 297.733 67.5919 297.927 68.2681 297.966C68.4719 297.978 68.6951 297.985 68.9313 297.991L69.313 298.001L69.3939 298.373C69.4942 298.841 70.4032 299.342 71.5905 299.342C72.8004 299.342 73.7062 298.835 73.7936 298.36L73.8647 297.966L74.2627 297.959C74.9873 297.949 75.437 297.949 75.7152 297.962C76.0031 297.978 76.2296 297.849 76.3978 297.584C76.7472 297.028 76.7149 296.046 76.3202 295.3C75.7087 294.143 73.8971 289.128 73.8194 288.915L74.7317 288.585C74.7512 288.637 76.5984 293.749 77.1775 294.847C77.7371 295.907 77.7533 297.245 77.2163 298.101C76.8637 298.66 76.3137 298.954 75.6764 298.932C75.4596 298.922 75.1264 298.922 74.612 298.925C74.2012 299.749 73.0139 300.315 71.5905 300.315Z" fill="#1F4847"/>
<path d="M57.3714 287.041C57.2452 287.041 57.1158 286.999 57.0091 286.912C56.7665 286.711 56.7309 286.353 56.9282 286.11C57.0156 286.007 59.086 283.538 62.8128 283.758C63.1266 283.777 63.3692 284.046 63.3498 284.362C63.3304 284.676 63.0684 284.918 62.7449 284.899C59.6166 284.711 57.8826 286.747 57.8114 286.834C57.6982 286.97 57.5364 287.041 57.3714 287.041Z" fill="#1F4847"/>
<path d="M85.6208 287.044C85.4202 287.044 85.2228 286.938 85.1193 286.75C83.78 284.33 81.1854 284.637 81.0754 284.65C80.7616 284.689 80.477 284.472 80.4349 284.159C80.3928 283.845 80.6096 283.561 80.9234 283.519C81.0657 283.5 84.3979 283.08 86.1222 286.198C86.2742 286.472 86.174 286.821 85.899 286.973C85.8116 287.022 85.7146 287.044 85.6208 287.044Z" fill="#1F4847"/>
<path d="M244.42 168.464C244.285 168.499 244.141 168.472 244.025 168.396C243.899 168.311 243.82 168.172 243.814 168.02L242.747 147.014C242.737 146.822 242.839 146.646 243.01 146.558C243.178 146.472 243.383 146.489 243.533 146.607L260.22 159.732C260.342 159.828 260.41 159.974 260.405 160.125C260.402 160.279 260.324 160.42 260.2 160.508L256.337 163.235C256.156 163.362 255.91 163.352 255.742 163.209L250.863 159.043L248.419 160.149L248.913 166.572C248.93 166.795 248.793 167 248.583 167.068L244.453 168.449C244.442 168.458 244.429 168.461 244.42 168.464ZM243.768 148.031L244.749 167.334L247.914 166.276L247.421 159.893C247.405 159.69 247.519 159.497 247.705 159.415L250.739 158.044C250.913 157.966 251.111 157.995 251.256 158.117L256.083 162.237L259.106 160.1L243.768 148.031Z" fill="#FF6333"/>
<path d="M262.002 158.428C261.798 158.48 261.579 158.397 261.468 158.212L252.586 143.79C252.454 143.577 252.506 143.3 252.704 143.149L256.09 140.579C256.199 140.497 256.338 140.465 256.475 140.489C256.608 140.515 256.726 140.598 256.799 140.712L263.555 151.792L268.423 149.4C268.661 149.285 268.945 149.375 269.065 149.607L271.139 153.547C271.199 153.665 271.211 153.802 271.17 153.926C271.129 154.05 271.038 154.154 270.916 154.212L262.087 158.396C262.057 158.41 262.03 158.42 262.002 158.428ZM253.64 143.655L262.063 157.334L270.041 153.554L268.425 150.48L263.584 152.859C263.358 152.971 263.084 152.892 262.955 152.678L256.247 141.679L253.64 143.655Z" fill="#FF6333"/>
<path d="M273.223 153.052C273.013 153.106 272.789 153.014 272.678 152.819L264.411 138.088C264.282 137.858 264.36 137.567 264.587 137.435L268.013 135.398C268.13 135.332 268.265 135.313 268.391 135.348C268.518 135.385 268.627 135.47 268.69 135.587L274.617 146.768L279.626 144.612C279.861 144.512 280.13 144.609 280.248 144.832L282.138 148.412C282.199 148.53 282.211 148.667 282.167 148.795C282.123 148.92 282.032 149.023 281.91 149.078L273.303 153.024C273.279 153.034 273.251 153.044 273.223 153.052ZM265.488 138.027L273.307 151.955L281.042 148.408L279.601 145.677L274.594 147.832C274.356 147.93 274.091 147.838 273.973 147.615L268.074 136.487L265.488 138.027Z" fill="#FF6333"/>
<path d="M288.573 145.474C287.173 145.836 285.788 145.803 284.431 145.376C281.968 144.598 279.774 142.522 278.259 139.529C275.9 134.872 276.963 129.522 280.675 127.348C284.564 125.071 290.181 127.828 292.601 131.815C294.33 134.662 294.955 137.835 294.277 140.303C293.757 142.186 292.536 143.653 290.641 144.66C289.949 145.022 289.259 145.297 288.573 145.474ZM279.124 139.089C280.521 141.845 282.511 143.75 284.723 144.45C286.488 145.008 288.325 144.787 290.185 143.8C291.833 142.923 292.894 141.661 293.341 140.044C293.952 137.83 293.366 134.941 291.772 132.316C289.63 128.785 284.529 126.215 281.164 128.182C277.894 130.099 276.997 134.889 279.124 139.089Z" fill="#FF6333"/>
<path d="M287.518 141.015C286.744 141.215 285.904 141.185 285.078 140.921C283.646 140.463 282.412 139.384 281.688 137.956C280.421 135.456 281.007 132.575 283.02 131.394C285.13 130.158 288.163 131.627 289.461 133.768C290.031 134.705 290.912 136.54 290.421 138.299C290.136 139.317 289.446 140.123 288.363 140.69C288.091 140.83 287.809 140.94 287.518 141.015ZM282.551 137.519C283.15 138.699 284.206 139.628 285.371 140.001C286.274 140.288 287.155 140.231 287.908 139.836C288.743 139.397 289.276 138.795 289.483 138.044C289.769 137.016 289.457 135.641 288.627 134.277C287.584 132.558 285.119 131.292 283.505 132.237C281.937 133.152 281.518 135.473 282.551 137.519Z" fill="#FF6333"/>
<path d="M247.065 157.608C246.939 157.641 246.804 157.622 246.693 157.554C246.555 157.473 246.467 157.325 246.46 157.167L246.285 153.982C246.275 153.791 246.379 153.61 246.55 153.523C246.722 153.438 246.928 153.458 247.076 153.58L249.647 155.679C249.778 155.786 249.844 155.949 249.821 156.118C249.798 156.288 249.694 156.428 249.541 156.498L247.148 157.583C247.117 157.591 247.093 157.601 247.065 157.608ZM247.313 155.024L247.388 156.403L248.426 155.932L247.313 155.024Z" fill="#FF6333"/>
<path d="M298.984 136.437C298.752 136.496 298.507 136.376 298.416 136.153L291.69 119.873C291.635 119.737 291.641 119.581 291.715 119.452C291.789 119.323 291.916 119.234 292.06 119.21L297.47 118.319C297.717 118.279 297.957 118.433 298.02 118.674L302.222 134.936C302.286 135.186 302.145 135.443 301.898 135.52L299.012 136.429C299 136.433 298.993 136.434 298.984 136.437ZM292.817 120.069L299.141 135.375L301.162 134.739L297.186 119.354L292.817 120.069Z" fill="#FF6333"/>
<path d="M304.147 144.533C302.299 145.011 300.411 143.897 299.934 142.054C299.458 140.212 300.574 138.321 302.419 137.845C304.263 137.368 306.155 138.481 306.631 140.324C307.107 142.167 305.995 144.056 304.147 144.533ZM302.66 138.78C301.332 139.123 300.531 140.482 300.873 141.808C301.216 143.135 302.576 143.935 303.904 143.592C305.232 143.249 306.033 141.89 305.691 140.564C305.348 139.237 303.991 138.436 302.66 138.78Z" fill="#FF6333"/>
<path d="M27.8389 269.137C27.7135 268.949 27.7355 268.686 27.9032 268.514C28.0978 268.316 28.415 268.306 28.6095 268.494L35.7213 275.366C35.9167 275.549 35.9163 275.869 35.7216 276.067C35.527 276.266 35.2098 276.275 35.0153 276.087L27.9035 269.215C27.878 269.189 27.8571 269.164 27.8389 269.137Z" fill="#F2643A"/>
<path d="M23.332 280.179C23.2563 280.066 23.2304 279.919 23.2702 279.774C23.3469 279.511 23.619 279.354 23.8843 279.422L31.8086 281.477C32.0712 281.546 32.2212 281.813 32.1463 282.078C32.0697 282.342 31.7975 282.498 31.5322 282.431L23.6079 280.376C23.4912 280.345 23.395 280.273 23.332 280.179Z" fill="#F2643A"/>
<path d="M25.0421 291.763C25.0116 291.718 24.9912 291.669 24.9745 291.614C24.9118 291.354 25.0715 291.087 25.3338 291.014L32.2045 289.156C32.4686 289.086 32.7332 289.237 32.7987 289.496C32.8615 289.757 32.7017 290.024 32.4395 290.097L25.5687 291.955C25.3638 292.012 25.153 291.929 25.0421 291.763Z" fill="#F2643A"/>
<path d="M276.572 177.01C276.341 177.01 276.119 176.867 276.031 176.64L272.039 166.173C271.923 165.873 272.076 165.54 272.371 165.43C272.672 165.319 273.004 165.467 273.115 165.762L277.108 176.23C277.223 176.53 277.071 176.862 276.775 176.973C276.71 176.996 276.641 177.01 276.572 177.01Z" fill="#15A59E"/>
<path d="M280.93 175.441C280.708 175.441 280.496 175.311 280.399 175.094L276.24 165.536C276.11 165.245 276.244 164.904 276.54 164.779C276.831 164.65 277.173 164.788 277.298 165.079L281.457 174.638C281.586 174.928 281.452 175.27 281.156 175.394C281.087 175.427 281.009 175.441 280.93 175.441Z" fill="#15A59E"/>
<path d="M274.603 171.952C274.354 171.952 274.123 171.785 274.049 171.536C273.961 171.232 274.137 170.908 274.442 170.821L278.716 169.584C279.026 169.492 279.345 169.672 279.432 169.976C279.52 170.281 279.345 170.604 279.04 170.691L274.765 171.928C274.71 171.947 274.654 171.952 274.603 171.952Z" fill="#15A59E"/>
<path d="M284.603 174.314C284.363 174.314 284.141 174.167 284.058 173.927L280.726 164.299C280.62 163.999 280.782 163.671 281.082 163.565C281.382 163.463 281.71 163.62 281.817 163.92L285.148 173.548C285.255 173.848 285.093 174.176 284.793 174.282C284.732 174.305 284.668 174.314 284.603 174.314Z" fill="#15A59E"/>
<path d="M290.56 173.918C290.301 173.918 290.065 173.742 290.001 173.484L287.112 162.079C287.034 161.77 287.223 161.456 287.533 161.378C287.838 161.299 288.157 161.488 288.235 161.798L291.123 173.202C291.202 173.512 291.013 173.825 290.703 173.904C290.652 173.913 290.606 173.918 290.56 173.918Z" fill="#15A59E"/>
<path d="M294.904 173.235C294.64 173.235 294.405 173.055 294.34 172.787L291.688 161.341C291.614 161.031 291.808 160.722 292.122 160.648C292.436 160.579 292.741 160.768 292.815 161.082L295.468 172.528C295.541 172.838 295.347 173.147 295.033 173.221C294.992 173.23 294.945 173.235 294.904 173.235Z" fill="#15A59E"/>
<path d="M289.113 168.217C288.836 168.217 288.586 168.014 288.544 167.733C288.494 167.419 288.711 167.124 289.025 167.073L293.489 166.367C293.803 166.311 294.099 166.533 294.15 166.847C294.201 167.161 293.983 167.456 293.669 167.507L289.205 168.213C289.173 168.213 289.145 168.217 289.113 168.217Z" fill="#15A59E"/>
<path d="M298.928 172.053C298.669 172.053 298.438 171.882 298.369 171.619L295.961 162.328C295.883 162.019 296.068 161.705 296.377 161.627C296.687 161.548 297.001 161.733 297.08 162.042L299.487 171.333C299.566 171.642 299.381 171.956 299.071 172.034C299.025 172.044 298.974 172.053 298.928 172.053Z" fill="#15A59E"/>
<path d="M305.855 170.959C305.592 170.959 305.356 170.779 305.291 170.511L302.847 160.025C302.773 159.716 302.967 159.406 303.277 159.333C303.586 159.263 303.896 159.453 303.97 159.762L306.414 170.248C306.488 170.557 306.294 170.867 305.984 170.94C305.943 170.954 305.901 170.959 305.855 170.959Z" fill="#15A59E"/>
<path d="M310.523 170.765C310.264 170.765 310.028 170.59 309.963 170.332L307.075 158.927C306.997 158.618 307.186 158.304 307.496 158.225C307.805 158.147 308.12 158.336 308.198 158.645L311.086 170.05C311.165 170.359 310.975 170.673 310.666 170.752C310.615 170.761 310.569 170.765 310.523 170.765Z" fill="#15A59E"/>
<path d="M304.612 165.582C304.353 165.582 304.113 165.407 304.053 165.139C303.979 164.83 304.169 164.516 304.478 164.442L308.803 163.39C309.113 163.316 309.427 163.505 309.501 163.814C309.575 164.124 309.386 164.437 309.076 164.511L304.751 165.564C304.705 165.577 304.658 165.582 304.612 165.582Z" fill="#15A59E"/>
<path d="M314.311 169.621C314.052 169.621 313.816 169.445 313.752 169.182L311.178 158.714C311.099 158.405 311.293 158.091 311.603 158.017C311.912 157.939 312.227 158.133 312.301 158.442L314.874 168.91C314.953 169.219 314.759 169.533 314.449 169.607C314.403 169.616 314.357 169.621 314.311 169.621Z" fill="#15A59E"/>
<path d="M287.891 47.6616C287.891 47.6616 294.36 60.4776 289.938 73.9236C285.516 87.3695 277.343 89.1672 270.044 89.9887C262.745 90.8102 246.195 84.953 245.321 62.2532C244.447 39.5535 256.869 35.7739 261.055 35.2471C265.245 34.7203 282.665 34.6208 287.891 47.6616Z" fill="#FF6333"/>
<path d="M270.052 24.9175C276.927 23.514 279.663 24.3281 279.357 27.1021C279.047 29.876 271.623 32.1636 271.623 32.1636C271.623 32.1636 277.188 29.9312 284.189 31.0032C287.943 31.5779 294.154 34.5986 295.335 36.4442C296.85 38.8203 295.283 40.7764 293.173 39.9365C285.69 36.9489 284.742 37.1884 284.742 37.1884C284.742 37.1884 295.253 42.1652 300.199 50.708C303.146 55.8027 297.271 54.2371 293.631 51.5847C289.99 48.9324 283.595 44.8728 283.595 44.8728C283.595 44.8728 284.251 45.1233 285.775 49.8533C286.984 53.6072 283.783 53.3898 282.44 52.1115C281.098 50.8369 274.348 44.1213 274.348 44.1213C274.348 44.1213 276.3 48.6635 275.47 51.2716C275.001 52.7378 273.131 52.0931 271.269 50.9475C269.816 50.0523 268.37 48.8513 267.599 48.1035C265.843 46.3979 261.867 43.193 261.867 43.193C261.867 43.193 264.08 49.4002 262.129 51.1906C260.178 52.9809 257.571 52.7304 254.767 50.1149C252.802 48.2804 249.943 46.129 249.943 46.129C249.943 46.129 248.708 56.1748 248.158 58.584C247.277 62.4373 247.369 72.3063 245.514 69.9634C242.087 65.6385 239.056 53.7656 241.162 48.0888C241.162 48.0888 239.513 51.419 237.156 54.1782C235.08 56.6095 234.021 54.0455 235.887 47.2784C236.684 44.3829 240.04 38.6029 242.67 36.6874C247.893 32.8857 253.665 35.1696 253.665 35.1696C253.665 35.1696 257.851 27.4115 270.052 24.9175Z" fill="#1E6B67"/>
<path d="M272.526 72.9992L273.541 70.1221C273.541 70.1221 280.327 74.1485 284.189 74.5722C284.189 74.5722 281.33 76.6462 272.526 72.9992Z" fill="#1F4847"/>
<path d="M269.996 69.7937L270.299 73.1607C270.299 73.1607 265.969 75.9531 262.904 76.5057C260.263 76.9809 256.383 76.3841 256.383 76.3841C256.383 76.3841 262.586 74.1627 264.803 72.8181C267.046 71.4514 269.996 69.7937 269.996 69.7937Z" fill="#1F4847"/>
<path d="M271.519 68.615C270.464 68.615 269.306 68.0367 268.675 66.7916C267.853 65.1707 266.54 61.9142 266.484 61.7742L267.51 61.3616C267.524 61.3948 268.86 64.7102 269.66 66.2905C270.261 67.4767 271.43 67.6609 272.068 67.4104C272.751 67.1415 273.297 66.3569 272.983 65.2038C272.592 63.7782 271.168 60.1828 271.154 60.146L272.183 59.7371C272.242 59.8881 273.647 63.4245 274.053 64.9091C274.543 66.7142 273.581 67.9998 272.478 68.4345C272.183 68.5561 271.858 68.615 271.519 68.615Z" fill="#BD2231"/>
<path d="M270.181 81.5856C267.378 81.5856 266.312 80.1932 265.965 79.5153C265.626 78.8559 265.744 78.0676 266.267 77.504C266.751 76.9846 267.665 76.5978 268.775 77.0693C270.029 77.6034 272.39 76.9661 273.463 76.2957C274.393 75.7137 275.525 75.7394 276.215 76.362C276.801 76.8888 276.908 77.7029 276.495 78.5355C275.757 80.0348 274.039 81.0994 271.774 81.453C271.191 81.5451 270.66 81.5856 270.181 81.5856ZM267.791 77.9644C267.473 77.9644 267.23 78.0934 267.079 78.2555C266.917 78.4286 266.799 78.7196 266.95 79.007C267.249 79.5853 268.3 80.8746 271.608 80.3589C272.508 80.2189 274.688 79.7106 275.506 78.0455C275.636 77.7803 275.739 77.4119 275.477 77.1798C275.211 76.9403 274.621 76.8777 274.053 77.2314C272.773 78.0308 270.004 78.7933 268.344 78.086C268.141 78.0013 267.957 77.9644 267.791 77.9644Z" fill="#BD2231"/>
<path d="M278.324 59.9655C279.318 59.9655 280.124 59.1607 280.124 58.1678C280.124 57.175 279.318 56.3701 278.324 56.3701C277.33 56.3701 276.524 57.175 276.524 58.1678C276.524 59.1607 277.33 59.9655 278.324 59.9655Z" fill="#1F4847"/>
<path d="M261.141 61.5717C262.135 61.5717 262.941 60.7668 262.941 59.774C262.941 58.7811 262.135 57.9763 261.141 57.9763C260.147 57.9763 259.341 58.7811 259.341 59.774C259.341 60.7668 260.147 61.5717 261.141 61.5717Z" fill="#1F4847"/>
<path d="M288.323 55.1469C288.323 55.1469 290.215 53.537 292.118 54.1854C294.022 54.8338 296.474 58.3039 294.752 61.0484C293.026 63.7928 288.865 65.3437 288.865 65.3437" fill="#FF6333"/>
<path d="M243.467 62.172C243.467 62.172 240.996 61.2327 239.307 63.8077C237.618 66.3827 240.214 69.5913 242.608 70.5086C244.367 71.1827 247.753 70.4644 247.753 70.4644L243.467 62.172Z" fill="#FF6333"/>
<path d="M243.402 12.1839C243.43 11.9442 243.63 11.7479 243.885 11.7281C244.181 11.7065 244.445 11.924 244.473 12.2133L245.489 22.793C245.521 23.0793 245.299 23.3362 245.004 23.3578C244.708 23.3795 244.444 23.1619 244.416 22.8727L243.4 12.2929C243.397 12.2538 243.398 12.2186 243.402 12.1839Z" fill="#15A59E"/>
<path d="M232.072 17.9251C232.089 17.78 232.169 17.6431 232.3 17.5551C232.543 17.3974 232.87 17.4647 233.038 17.7077L238.024 25.006C238.189 25.2485 238.127 25.5701 237.883 25.7312C237.641 25.8888 237.313 25.8215 237.145 25.5785L232.16 18.2803C232.086 18.1725 232.058 18.046 232.072 17.9251Z" fill="#15A59E"/>
<path d="M225.369 28.4829C225.376 28.4248 225.393 28.3714 225.417 28.3156C225.546 28.0615 225.859 27.9599 226.12 28.0877L232.952 31.466C233.214 31.5972 233.323 31.9066 233.198 32.1611C233.069 32.4151 232.756 32.5167 232.494 32.3889L225.663 29.0107C225.458 28.9111 225.345 28.695 225.369 28.4829Z" fill="#15A59E"/>
</svg>
