<svg xmlns="http://www.w3.org/2000/svg" viewBox="0 0 1668 283" preserveAspectRatio="none">
  <g fill="none" fill-rule="evenodd" transform="translate(-7)">
    <path stroke="#FFF" stroke-dasharray="8" stroke-width="1.1" d="M1674,0.5802 C1634.45,80.599 1519,246.58 1271.23,262.381 C1132.449,271.231 1019,224.72 835,130.58 C706,64.58 493,82.58 349,162.58 C204.9999,242.58 0,283.58 0,283.58"/>
    <g fill="#FFF" fill-rule="nonzero" transform="translate(1285 201)">
      <path d="M98.76 35.247C98.43 33.01 97.24 31.037 95.39 29.691 93.55 28.347 91.29 27.79 89.02 28.123 87.88 28.289 86.82 28.666 85.86 29.226 84.71 26.375 83.88 23.89 83.47 22.647 83.58 22.621 83.71 22.59 83.84 22.558 84.19 23.096 84.67 23.721 85.1 23.906 85.27 23.984 85.45 24.024 85.62 24.025 85.85 24.026 86.07 23.958 86.26 23.819 86.43 23.686 86.56 23.499 86.62 23.298 86.92 23.338 87.23 23.253 87.44 23.106 87.65 22.962 87.78 22.755 87.81 22.523 88.16 22.551 88.46 22.419 88.65 22.151 88.68 22.121 88.69 22.089 88.71 22.056 89.15 22.096 89.68 22.272 89.82 22.879 89.86 23.053 90.02 23.934 89.2 24.204 88.25 24.519 87.82 24.525 87.83 24.524 87.45 24.509 87.13 24.803 87.12 25.177 87.1 25.55 87.4 25.865 87.77 25.877 87.78 25.876 87.79 25.877 87.8 25.878 87.96 25.878 88.53 25.851 89.63 25.488 90.84 25.09 91.46 23.892 91.16 22.572 90.89 21.418 89.91 20.714 88.56 20.691 88.53 20.639 88.5 20.59 88.47 20.539 88.02 19.866 86.81 19.526 86.22 19.396 86.19 19.374 86.17 19.351 86.15 19.332 86.1 19.291 82.2 16.205 79.31 13.85 79.89 13.575 80.62 13.141 81.14 12.515 81.57 11.998 81.84 11.402 81.97 10.78L82.6 10.831C82.61 10.833 82.63 10.834 82.65 10.834 83 10.834 83.31 10.568 83.34 10.212 83.37 9.839 83.09 9.512 82.71 9.48L82.05 9.426C81.99 8.692 81.78 7.981 81.46 7.381 81.46 7.379 81.46 7.379 81.46 7.376 81.45 6.892 81.32 5.185 80.03 3.569 78.52 1.69 76.05.622 72.68.391 70.54.246 69.3.609 68.88 1.506 68.56 2.179 68.8 2.995 69.54 3.743 69.65 3.859 69.77 3.967 69.9 4.067 69.04 3.847 67.96 3.506 67.13 3.245 65.23 2.645 63.26 2.023 61.98 1.941 60.47 1.846 59.19 2.572 58.71 3.793 58.49 4.345 57.99 6.308 60.59 8.356 62.88 10.156 65.77 10.937 68.45 10.946 70.15 10.952 71.75 10.646 73.07 10.097 73.15 10.348 73.26 10.621 73.38 10.939 73.34 10.941 73.31 10.943 73.28 10.945 70.52 11.219 67.4 12.956 65.68 15.168 62.87 18.782 62.33 22.128 64.26 23.898 64.6 24.207 64.94 24.462 65.29 24.681L64.56 24.741 64.52 24.746C63.71 24.864 63.13 25.711 63.21 26.665 63.25 27.147 63.51 27.608 63.91 27.927 64.22 28.168 64.57 28.298 64.92 28.299 65 28.3 65.07 28.294 65.14 28.285L67.49 27.866 68.82 29.674 67.27 32.257C66.01 31.833 64.64 31.691 63.23 31.897 58.78 32.549 55.62 36.459 55.88 40.796L50.33 41.45 49.46 35.577C49.44 35.426 49.37 35.29 49.26 35.188L46.35 32.144C46.18 31.974 45.94 31.899 45.71 31.949L43.73 32.368 42.14 26.647 42.23 26.641C42.41 26.625 42.58 26.538 42.7 26.4 42.81 26.262 42.87 26.082 42.85 25.903L42.11 17.917C42.11 17.917 42.11 17.917 42.11 17.915 42.1 17.828 42.08 17.748 42.04 17.673 42.04 17.673 42.04 17.673 42.04 17.67 42.04 17.67 42.04 17.67 42.04 17.668 42.04 17.668 42.04 17.668 42.04 17.665L42.04 17.663C42.04 17.663 42.04 17.663 42.04 17.661 42.04 17.661 42.04 17.661 42.04 17.658 42.04 17.658 42.04 17.658 42.04 17.656 42 17.599 41.97 17.547 41.92 17.502 41.92 17.502 41.92 17.502 41.92 17.5 41.92 17.5 41.92 17.5 41.92 17.497 41.92 17.497 41.92 17.497 41.92 17.495 41.92 17.495 41.92 17.495 41.92 17.492 41.92 17.492 41.92 17.492 41.92 17.49 41.83 17.406 41.72 17.347 41.6 17.32 41.6 17.32 41.6 17.32 41.59 17.32 41.59 17.32 41.59 17.32 41.59 17.32L41.59 17.321C41.59 17.321 41.59 17.321 41.59 17.321 41.59 17.321 41.59 17.321 41.58 17.321 41.58 17.321 41.58 17.321 41.58 17.322L41.58 17.322C41.58 17.322 41.58 17.322 41.58 17.322 41.51 17.31 41.44 17.306 41.38 17.312 41.37 17.313 41.37 17.313 41.37 17.313L30.44 18.443C30.25 18.461 30.08 18.556 29.97 18.701 29.85 18.846 29.8 19.031 29.83 19.214L30.92 26.954C30.93 27.028 30.95 27.101 30.98 27.165 30.98 27.165 30.98 27.165 30.98 27.167 31.03 27.252 31.09 27.327 31.16 27.388 31.24 27.453 31.34 27.501 31.45 27.525 31.45 27.525 31.45 27.525 31.45 27.525 31.52 27.539 31.59 27.545 31.66 27.538L35.24 27.238 27.38 29.445C27.19 29.496 27.04 29.621 26.95 29.788 26.86 29.955 26.85 30.152 26.92 30.327L28.86 35.659 23.25 36.705C23.24 36.706 23.23 36.707 23.23 36.71 23.16 36.724 23.09 36.75 23.03 36.783 22.94 36.835 22.86 36.908 22.79 37.001 22.78 37.026 22.76 37.055 22.75 37.082 22.69 37.194 22.68 37.318 22.68 37.434 23.02 41.634 23.52 48.01 23.53 48.551 23.53 48.579 23.53 48.607 23.53 48.634 23.54 48.736 23.57 48.833 23.62 48.917 23.67 49.004 23.73 49.083 23.82 49.14 23.87 49.174 23.92 49.201 23.98 49.221L27.92 50.768C27.93 50.77 27.93 50.772 27.94 50.773 27.94 50.773 27.94 50.773 27.94 50.773 28.07 50.82 28.2 50.825 28.33 50.797L31.66 50.096C32.4 53.45 35.42 55.818 38.84 55.8310288 39.21 55.832 39.58 55.807 39.96 55.752 41.91 55.466 43.65 54.441 44.83 52.867 46.01 51.295 46.51 49.361 46.22 47.423 46.2 47.295 46.18 47.17 46.15 47.045L50.38 46.155C50.73 46.08 50.97 45.746 50.92 45.394L50.53 42.795 56.08 42.142C56.95 46.001 60.44 48.723 64.4 48.738 64.83 48.738 65.27 48.708 65.71 48.645 69.48 48.091 72.33 45.193 72.95 41.681 73.04 41.807 73.14 41.928 73.24 42.038 73.89 42.709 74.79 43.072 75.85 43.089 75.87 43.089 75.89 43.091 75.92 43.091 78.2 43.1 79.73 41.784 79.92 39.647 80.05 38.164 79.5 37.228 79.02 36.702L84.22 28.797C84.38 29.201 84.54 29.617 84.71 30.04 84.21 30.458 83.76 30.93 83.36 31.46 81.98 33.277 81.41 35.51 81.73 37.747 82.35 41.931 86 44.947 90.17 44.963 90.6 44.964 91.04 44.934 91.48 44.87 96.17 44.177 99.44 39.863 98.76 35.247zM45.62 33.359L47.41 35.229 44.66 35.699 44.09 33.68 45.62 33.359zM32.18 26.128L31.28 19.713 40.82 18.727 41.44 25.35 32.18 26.128zM28.45 30.543L40.84 27.066 42.57 33.328C42.58 33.345 42.58 33.359 42.59 33.376L43.3 35.934 31.17 38.001 28.45 30.543zM29.33 36.944L29.8 38.233 26.91 38.724 25.23 37.704 29.33 36.944zM24.87 48.111C24.82 47.218 24.65 44.891 24.15 38.638L26.13 39.843 27.34 49.079 24.87 48.111zM43.72 52.057C42.76 53.34 41.35 54.175 39.75 54.409 39.44 54.453 39.14 54.477 38.84 54.475 36.05 54.464 33.6 52.537 32.99 49.812L44.81 47.326C44.83 47.424 44.84 47.522 44.86 47.621 45.09 49.199 44.69 50.777 43.72 52.057zM32.84 48.459C32.87 45.562 35.03 43.023 38.01 42.584 38.32 42.538 38.63 42.516 38.93 42.5169674 40.21 42.521 41.45 42.927 42.49 43.696 43.33 44.311 43.98 45.113 44.39 46.03L32.84 48.459zM45.76 45.741C45.26 44.504 44.42 43.424 43.31 42.608 41.73 41.44 39.77 40.957 37.81 41.243 34.05 41.795 31.36 45.068 31.48 48.745L28.75 49.319 27.54 39.994 48.21 36.468 49.46 44.962 45.76 45.741zM87.48 21.203C87.5 21.238 87.52 21.27 87.54 21.301 87.19 21.297 86.96 21.434 86.83 21.572 86.7 21.701 86.62 21.861 86.59 22.041 86.38 21.98 86.15 22.012 85.94 22.133 85.72 22.268 85.55 22.505 85.49 22.756 85.3 22.581 85 22.184 84.72 21.738L86 20.567C86.63 20.71 87.32 20.976 87.48 21.203zM80.23 8.004C80.81 9.061 80.91 10.67 80.08 11.659 79.57 12.266 78.74 12.649 78.28 12.822 77.7 12.381 76.46 11.453 75.87 11.138 75.43 10.893 75 10.714 74.72 10.606 74.54 10.142 74.4 9.787 74.31 9.482 76.51 8.239 78.37 7.773 80.23 8.004zM61.45 7.303C59.96 6.133 59.72 4.978 59.99 4.288 60.23 3.664 60.89 3.292 61.72 3.297 61.78 3.298 61.84 3.3 61.9 3.303 63 3.374 64.98 3.998 66.71 4.546 70.17 5.637 71.72 6.081 72.25 5.128 72.67 4.371 71.9 3.834 71.33 3.441 71.05 3.25 70.74 3.033 70.52 2.81 70.17 2.453 70.08 2.16 70.12 2.087 70.12 2.082 70.4 1.606 72.58 1.757 78.33 2.149 79.68 5.079 80 6.619 77.88 6.453 75.8 7.039 73.35 8.469 70.46 10.154 65 10.088 61.45 7.303zM66.77 15.999C68.25 14.094 71.04 12.539 73.42 12.301 74.2 12.222 75.28 12.259 75.98 12.868 77.81 14.451 82.77 18.394 84.6 19.852L83.87 20.4 76.04 15.093C75.77 14.911 75.41 14.942 75.17 15.165L70.56 19.567 64.7 19.84C65.01 18.688 65.71 17.362 66.77 15.999zM64.52 21.208L70.42 20.934C71.07 21.349 76.68 24.988 77.51 25.508 78.08 25.863 78.05 26.753 77.83 27.469 77.59 28.266 76.03 31.648 75.45 32.882 75.37 33.055 75.37 33.254 75.44 33.43 75.52 33.607 75.67 33.741 75.85 33.806 76.52 34.04 77.61 34.53 77.91 34.893 77.93 34.913 77.97 34.966 77.9 35.101 77.81 35.266 77.62 35.383 77.52 35.368 77.18 35.325 75.53 34.667 74 34.005L76.09 27.363C76.2 27.007 76 26.631 75.65 26.518 75.62 26.511 73.12 25.723 70.47 24.984 70.02 24.86 69.59 24.757 69.16 24.657 67.67 24.304 66.38 23.998 65.19 22.913 64.75 22.502 64.53 21.914 64.52 21.208zM74.48 37.321L75.37 38.538 73.6 38.676C73.7 38.007 74.05 37.585 74.48 37.321zM76.6 37.893L75.87 36.903C75.99 36.893 76.09 36.889 76.19 36.888 76.52 36.883 76.85 36.944 77.15 37.057L76.6 37.893zM70.99 30.308L73.87 29.862 72.92 32.91 70.99 30.308zM64.93 26.952C64.83 26.944 64.6 26.77 64.58 26.559 64.56 26.316 64.67 26.126 64.72 26.095L68.18 25.812C68.4 25.867 68.62 25.919 68.84 25.971 69.02 26.014 69.21 26.058 69.39 26.103 69.36 26.139 69.32 26.173 69.24 26.185L64.93 26.952zM69.46 27.524C70.07 27.433 70.56 27.003 70.72 26.462 72.31 26.913 73.78 27.358 74.58 27.605L74.32 28.421 70.08 29.077 68.99 27.605 69.46 27.524zM69.71 30.868L73.67 36.232C73.21 36.542 72.84 36.945 72.59 37.429 71.87 35.409 70.4 33.779 68.54 32.803L69.71 30.868zM71.56 38.836L64.59 39.378 67.84 33.97C69.71 34.929 71.12 36.679 71.56 38.836zM65.51 47.304C61.56 47.884 57.88 45.199 57.31 41.323 56.74 37.447 59.49 33.82 63.44 33.242 63.81 33.188 64.17 33.161 64.54 33.1628965 65.23 33.165 65.91 33.268 66.56 33.457L62.73 39.809C62.6 40.026 62.61 40.297 62.74 40.512 62.86 40.709 63.08 40.83 63.32 40.83 63.33 40.831 63.35 40.83 63.37 40.828L71.7 40.182C71.73 43.681 69.13 46.772 65.51 47.304zM78.55 39.529C78.38 41.48 76.8 41.751 75.87 41.733 75.18 41.722 74.63 41.508 74.24 41.099 73.97 40.823 73.78 40.458 73.67 40.03L76.66 39.797C76.67 39.795 76.69 39.791 76.7 39.789 76.82 39.781 76.95 39.74 77.06 39.661 77.19 39.567 77.27 39.435 77.31 39.292L78.22 37.903C78.5 38.338 78.61 38.881 78.55 39.529zM79.06 34.15C79.03 34.108 79 34.064 78.97 34.023 78.54 33.505 77.65 33.063 77 32.791 77.44 31.844 78.25 30.084 78.75 28.883L82.9 28.319 79.06 34.15zM79.25 27.448C79.54 26.098 79.17 24.936 78.24 24.358 77.57 23.934 73.51 21.308 71.84 20.227L75.72 16.522 82.9 21.389C82.89 21.39 82.88 21.394 82.87 21.395 82.72 21.317 82.53 21.292 82.35 21.348 81.99 21.456 81.78 21.834 81.89 22.192 81.9 22.219 82.49 24.149 83.49 26.87L79.25 27.448zM91.28 43.527C87.33 44.107 83.66 41.421 83.09 37.545 82.81 35.669 83.29 33.794 84.45 32.268 84.7 31.941 84.97 31.64 85.27 31.361 87.15 35.561 89.71 37.371 89.82 37.447 89.94 37.53 90.08 37.568 90.21 37.569 90.43 37.569 90.64 37.469 90.78 37.279 90.99 36.972 90.92 36.55 90.61 36.335 90.59 36.318 88.13 34.578 86.39 30.499 87.23 29.969 88.19 29.615 89.21 29.465 89.58 29.41 89.95 29.383 90.32 29.387 91.85 29.391 93.33 29.874 94.58 30.783 96.12 31.914 97.13 33.57 97.41 35.446 97.97 39.322 95.23 42.948 91.28 43.527zM17 43.324L5.66 44.848C5.28 44.898 5.02 45.24 5.07 45.611 5.11 45.919 5.35 46.149 5.65 46.19 5.71 46.197 5.77 46.199 5.84 46.189L17.18 44.665C17.55 44.615 17.82 44.273 17.77 43.902 17.72 43.532 17.37 43.274 17 43.324zM13.99 47.556L1.44 49.416C1.07 49.471.81 49.815.86 50.187.91 50.493 1.15 50.718 1.44 50.759 1.51 50.769 1.57 50.768 1.64 50.757L14.19 48.897C14.56 48.842 14.82 48.498 14.77 48.126 14.71 47.753 14.36 47.499 13.99 47.556z"/>
      <path d="M79.35,9.681 C79.65,9.642 79.87,9.366 79.83,9.064 C79.79,8.763 79.51,8.549 79.21,8.588 C78.9,8.627 78.69,8.903 78.72,9.204 C78.76,9.506 79.04,9.719 79.35,9.681 Z"/>
    </g>
    <g fill="#FFF" fill-rule="nonzero" transform="translate(1145 228)">
      <path d="M115.82,21.003 L113.6,12.934 C113.6,12.911 113.59,12.887 113.58,12.866 C113.5,12.592 113.27,12.386 112.98,12.329 L95.96,8.971 L85.03,1.793 C84.92,1.724 84.8,1.681 84.68,1.667 C84.56,1.579 84.41,1.528 84.25,1.52 L55.35,0.29 C55.12,0.28 54.9,0.37 54.74,0.535 L50.24,5.228 C50.17,5.306 50.11,5.399 50.08,5.497 L46.58,10.15 C46.55,10.147 46.51,10.143 46.49,10.142 L33.64,9.753 C33.4,9.745 33.16,9.85 33.01,10.034 L25.7,18.677 C25.45,18.803 25.28,19.046 25.27,19.333 L24.9,27.448 C24.9,27.654 24.97,27.858 25.11,28.011 C25.25,28.165 25.45,28.255 25.66,28.264 L40.29,28.916 C40.19,29.247 40.14,29.598 40.14,29.959 C40.1,32.262 41.98,34.166 44.32,34.204 C46.66,34.238 48.59,32.397 48.62,30.093 C48.63,29.819 48.6,29.546 48.55,29.281 L78.73,30.616 C78.61,30.991 78.55,31.384 78.54,31.789 C78.51,34.092 80.38,35.996 82.72,36.033 C82.86,36.035 82.99,36.031 83.12,36.022 C85.27,35.858 86.99,34.096 87.03,31.925 C87.03,31.607 87,31.295 86.93,30.99 L107.36,31.892 C107.62,31.905 107.86,31.79 108.02,31.586 L115.69,21.686 C115.84,21.49 115.89,21.238 115.82,21.003 Z M94.41,9.829 L87.29,16.919 L79.01,7.339 L84.33,3.211 L94.41,9.829 Z M70.52,13.474 L69.98,11.625 L70.83,11.644 C71.1,11.65 71.35,11.485 71.44,11.234 L71.78,10.273 L72.84,10.578 C73.1,10.652 73.37,10.558 73.53,10.344 L73.98,9.718 L75.01,10.21 C75.26,10.333 75.58,10.267 75.76,10.048 L75.8,10.005 L76.26,11.196 C75.32,11.286 73.79,11.549 72.41,12.287 C71.55,12.746 70.94,13.152 70.52,13.474 Z M72.09,17.179 C72.09,17.174 72.09,17.169 72.09,17.163 C71.69,16.301 71.11,15.024 71.03,14.817 C71.02,14.778 71,14.743 70.98,14.709 C71.3,14.431 71.92,13.957 73.01,13.369 C74.44,12.604 76.12,12.432 76.81,12.392 C77.5,13.772 77.95,15.506 77.16,16.294 C76.62,16.831 76.25,17.135 76.04,17.288 L72.09,17.179 Z M78.06,17.161 C78.77,16.449 78.91,15.484 78.8,14.542 L79.76,14.342 C80.1,14.272 80.31,13.944 80.24,13.61 C80.17,13.276 79.84,13.062 79.5,13.135 L78.54,13.335 C78.35,12.709 78.1,12.158 77.91,11.791 C77.87,11.712 77.81,11.644 77.75,11.59 C77.74,11.574 77.74,11.558 77.74,11.543 L76.59,8.574 C76.51,8.368 76.32,8.221 76.1,8.186 C75.88,8.15 75.66,8.232 75.52,8.4 L75.11,8.886 L74.05,8.377 C73.77,8.245 73.44,8.329 73.27,8.574 L72.77,9.267 L71.57,8.923 C71.25,8.83 70.92,8.999 70.81,9.309 L70.41,10.4 L69.16,10.371 C68.96,10.367 68.77,10.455 68.65,10.611 C68.53,10.766 68.49,10.969 68.55,11.159 L69.6,14.78 C69.64,14.901 69.71,15.003 69.81,15.079 C69.81,15.082 69.81,15.082 69.81,15.084 C69.82,15.182 69.83,15.252 70.7,17.143 L67.36,17.051 L68.22,7.299 L77.24,7.691 C77.26,7.715 77.28,7.742 77.3,7.763 L85.76,17.555 L77.87,17.338 C77.93,17.279 77.99,17.224 78.06,17.161 Z M65.77,17.006 L63.7,16.948 L64.55,7.139 L66.63,7.228 L65.77,17.006 Z M55.65,1.868 L82.05,2.99 L77.97,6.159 L52.59,5.058 L55.65,1.868 Z M51.25,6.563 L62.97,7.071 L62.11,16.904 L43.85,16.401 L51.25,6.563 Z M33.98,11.326 L45.43,11.674 L41.66,16.68 C41.49,16.915 41.46,17.225 41.59,17.488 C41.72,17.75 41.98,17.918 42.28,17.927 L62.52,18.485 C62.6,18.516 62.68,18.536 62.76,18.542 C62.88,18.551 62.99,18.536 63.1,18.5 L66.4,18.591 C66.41,18.591 66.42,18.594 66.43,18.595 C66.47,18.599 66.52,18.597 66.56,18.596 L86.85,19.152 C87.14,19.161 87.39,19.023 87.53,18.805 C87.64,18.767 87.73,18.704 87.81,18.626 L95.91,10.558 L111.22,13.581 L101.48,23.303 L27.76,18.677 L33.98,11.326 Z M47.03,30.069 C47.01,31.511 45.8,32.664 44.34,32.642 C42.87,32.619 41.7,31.427 41.72,29.985 C41.73,29.499 41.87,29.044 42.12,28.657 C42.14,28.629 42.16,28.598 42.18,28.565 C42.66,27.856 43.49,27.399 44.42,27.413 C45.13,27.424 45.79,27.707 46.29,28.208 C46.44,28.365 46.57,28.536 46.68,28.72 C46.7,28.786 46.74,28.85 46.78,28.906 C46.95,29.262 47.04,29.659 47.03,30.069 Z M85.44,31.896 C85.42,33.338 84.21,34.494 82.75,34.469 C81.28,34.446 80.11,33.254 80.13,31.813 C80.14,31.288 80.3,30.791 80.6,30.369 C80.61,30.351 80.62,30.333 80.64,30.316 C80.73,30.196 80.83,30.081 80.94,29.975 C81.45,29.489 82.12,29.226 82.83,29.24 C83.53,29.252 84.2,29.534 84.69,30.036 C84.82,30.168 84.94,30.31 85.03,30.462 C85.06,30.52 85.09,30.576 85.13,30.624 C85.34,31.01 85.45,31.447 85.44,31.896 Z M107.01,30.308 L86.21,29.388 C86.09,29.233 85.97,29.085 85.83,28.948 C85.04,28.147 83.98,27.695 82.85,27.678 C81.72,27.661 80.65,28.079 79.83,28.853 C79.75,28.929 79.68,29.007 79.6,29.089 L47.9,27.687 C47.76,27.487 47.6,27.296 47.43,27.118 C46.64,26.317 45.58,25.866 44.45,25.848 C43.1,25.829 41.89,26.431 41.09,27.386 L26.53,26.736 L26.83,20.176 L101.75,24.877 C101.97,24.889 102.2,24.807 102.36,24.645 L112.43,14.609 L114.2,21.038 L107.01,30.308 Z"/>
      <path d="M76.01 14.519C76.33 14.537 76.6 14.293 76.62 13.974 76.64 13.656 76.39 13.384 76.07 13.369 75.74 13.351 75.47 13.596 75.45 13.914 75.43 14.23 75.68 14.501 76.01 14.519zM105.88 24.625C105.41 24.6 105.01 24.953 104.99 25.415 104.96 25.877 105.32 26.27 105.79 26.295 106.26 26.32 106.66 25.967 106.68 25.505 106.71 25.046 106.35 24.651 105.88 24.625zM111.25 19.255C110.78 19.229 110.38 19.583 110.36 20.044 110.33 20.506 110.69 20.899 111.16 20.924 111.63 20.95 112.03 20.596 112.05 20.135 112.08 19.675 111.72 19.28 111.25 19.255zM13.35 16.689L1.452 14.769C1.059 14.706.689 14.969.627 15.356.575 15.678.752 15.984 1.039 16.114 1.097 16.14 1.16 16.161 1.226 16.17L13.12 18.089C13.51 18.153 13.88 17.889 13.95 17.503 14 17.118 13.74 16.752 13.35 16.689zM17.06 21.377L3.847 19.428C3.453 19.37 3.088 19.636 3.03 20.027 2.984 20.347 3.16 20.647 3.444 20.777 3.504 20.806 3.571 20.825 3.642 20.834L16.85 22.783C17.25 22.842 17.61 22.575 17.67 22.185 17.73 21.797 17.45 21.435 17.06 21.377z"/>
    </g>
  </g>
</svg>
