<svg preserveAspectRatio="xMaxYMid meet" viewBox="0 0 240 230" fill="none"
    xmlns="http://www.w3.org/2000/svg">
    <path opacity="0.5" d="M161.034 125.438C132.169 124.835 50.3552 114.619 27.2209 129.031C-11.1085 152.905 -6.77379 206.1 26.5846 218.572C59.9472 231.045 176.793 233.729 196.678 224.537C240.422 204.314 209.157 126.449 161.034 125.438Z" fill="#E8EBEE"/>
    <path d="M205.573 173.127L213.47 199.035L173.906 209.906L169.879 195.61C169.857 195.614 161.372 198.684 154.295 198.684C150.755 198.684 147.569 197.918 145.976 195.61C143.738 192.365 142.662 185.261 142.153 178.625C143.046 178.287 152.856 174.476 150.785 172.532C148.671 170.545 142.119 171.449 141.786 171.496C141.662 167.244 141.726 164.192 141.726 164.192L132.587 162.355C129.879 161.815 129.021 158.356 131.161 156.605L142.26 147.528C142.26 147.528 136.947 118.395 149.696 106.677C162.444 94.9621 191.125 88.5739 206.53 100.819C221.934 113.069 230.433 134.139 220.871 151.561C211.309 168.983 205.573 173.127 205.573 173.127Z" fill="#591429"/>
    <path d="M145.446 111.236C144.302 120.673 150.34 125.498 163.699 129.258C171.587 131.48 183.699 140.36 183.699 140.36C183.699 140.36 186.697 132.358 191.378 132.632C196.537 132.931 199.257 138.866 197.382 145.177C195.887 150.22 191.168 153.838 191.168 153.838C191.168 153.838 195.358 169.942 204.544 174.763C204.501 174.125 205.437 173.598 205.958 173.23C209.549 170.678 223.664 159.383 225.402 138.168C227.397 113.831 212.684 93.0951 186.834 90.9672C161.436 88.882 146.591 101.8 145.446 111.236Z" fill="#576194"/>
    <path d="M151.302 144.834C152.416 144.693 153.202 143.674 153.061 142.561C152.92 141.443 151.904 140.655 150.793 140.797C149.679 140.938 148.893 141.957 149.034 143.07C149.175 144.183 150.187 144.976 151.302 144.834Z" fill="#576194"/>
    <path d="M142.982 98.2844H142.978C142.623 98.2801 107.125 97.9076 87.856 90.95C77.3629 87.1608 69.6457 82.755 64.2647 77.4843C56.808 70.1756 53.7972 61.0814 55.3176 50.4459C56.5646 41.7028 60.5577 34.2699 66.8655 28.9479C72.6181 24.0925 80.0022 21.3095 87.651 21.1125C100.506 20.7657 117.093 28.2543 121.445 50.4373C130.055 94.3196 142.961 96.7773 143.089 96.7987C143.477 96.8586 143.759 97.2097 143.725 97.5993C143.691 97.9847 143.371 98.2844 142.982 98.2844ZM88.582 22.5982C88.283 22.5982 87.9841 22.6025 87.6851 22.6111C80.3737 22.8038 73.3185 25.4626 67.8264 30.0954C61.8048 35.1776 57.991 42.2851 56.7952 50.66C55.3517 60.7946 58.2131 69.4606 65.311 76.4182C70.534 81.539 78.0761 85.8335 88.3642 89.5456C103.918 95.1588 130.302 96.4348 139.617 96.7131C134.957 93.3691 126.305 82.9691 119.98 50.7242C116.606 33.5463 104.332 22.5982 88.582 22.5982Z" fill="#15A59E"/>
    <path d="M165.424 83.513C165.339 83.513 165.258 83.5001 165.177 83.4702C164.882 83.3674 157.874 80.8455 149.58 74.346C141.931 68.3518 131.763 57.6991 126.757 41.0222C123.772 31.076 125.212 20.1621 130.61 11.8301C134.88 5.24497 141.017 1.13462 147.889 0.256887C157.968 -1.0276 167.355 2.54327 173.005 9.8049C178.839 17.3063 179.932 27.3724 176.011 37.4213C164.69 66.455 166.15 82.5239 166.167 82.6823C166.193 82.9392 166.086 83.1876 165.886 83.346C165.753 83.4573 165.591 83.513 165.424 83.513ZM152.044 1.48999C150.746 1.48999 149.422 1.57563 148.077 1.74689C141.645 2.56468 135.884 6.43955 131.861 12.6479C126.698 20.6117 125.327 31.0589 128.184 40.5897C133.07 56.8685 142.99 67.2728 150.451 73.13C156.708 78.0453 162.332 80.6785 164.604 81.6333C164.459 77.3689 164.797 62.0663 174.615 36.8819C178.339 27.3338 177.318 17.803 171.822 10.7297C167.18 4.74831 160.112 1.48999 152.044 1.48999Z" fill="#C6CEDB"/>
    <path d="M171.476 117.573C171.429 117.573 171.378 117.569 171.331 117.561C171.028 117.501 170.793 117.257 170.742 116.948C170.725 116.846 169.093 106.694 170.217 93.5021C171.254 81.3038 174.931 63.9162 186.535 50.3734C196.947 38.2179 208.807 32.7031 219.936 34.8354C228.482 36.4753 235.524 42.5209 238.304 50.6174C240.884 58.1274 240.512 65.3334 237.228 71.4518C233.12 79.1031 224.711 84.7548 212.902 87.7947C190.033 93.6863 181.833 101.637 172.113 117.222C171.972 117.445 171.733 117.573 171.476 117.573ZM215.2 35.8844C205.937 35.8844 196.315 41.2493 187.662 51.3453C176.328 64.5755 172.728 81.6207 171.703 93.5878C170.883 103.166 171.536 111.112 171.946 114.679C181.265 100.169 190.186 92.0978 212.526 86.339C223.916 83.4061 232.001 78.007 235.908 70.7368C238.988 64.9994 239.329 58.2088 236.886 51.1013C234.32 43.6298 227.551 37.8197 219.646 36.304C218.181 36.0257 216.695 35.8844 215.2 35.8844Z" fill="#C6CEDB"/>
    <path d="M220.645 73.7764C220.619 73.7764 220.593 73.7764 220.568 73.7764C218.526 73.755 216.617 72.9415 215.187 71.4815C213.756 70.0214 212.983 68.0904 213.004 66.0438C213.026 63.9972 213.837 62.0833 215.293 60.649C216.75 59.2189 218.672 58.4354 220.717 58.4611C224.928 58.5039 228.323 61.972 228.281 66.1937C228.242 70.3939 224.826 73.7764 220.645 73.7764ZM220.645 59.5315C218.915 59.5315 217.284 60.1994 216.045 61.4154C214.794 62.6485 214.093 64.2969 214.076 66.0567C214.059 67.8164 214.725 69.4777 215.955 70.7322C217.185 71.9867 218.83 72.6889 220.585 72.706C220.606 72.706 220.627 72.706 220.649 72.706C224.24 72.706 227.183 69.7945 227.217 66.1808C227.251 62.55 224.334 59.5657 220.709 59.5272C220.687 59.5315 220.666 59.5315 220.645 59.5315Z" fill="#C6CEDB"/>
    <path d="M207.696 66.9988C207.546 66.9988 207.405 66.9389 207.307 66.8275L197.339 56.1363C197.194 55.9779 197.156 55.751 197.241 55.554C197.327 55.3614 197.519 55.2329 197.728 55.2329H197.732L213.021 55.3828C213.184 55.3828 213.342 55.4598 213.44 55.5926L221.2 65.7357C221.324 65.8941 221.345 66.1082 221.26 66.2923C221.174 66.4765 220.995 66.5921 220.794 66.5963L207.713 66.9945C207.704 66.9988 207.7 66.9988 207.696 66.9988ZM198.971 56.3204L207.922 65.9198L219.722 65.5602L212.757 56.4532L198.971 56.3204Z" fill="#C6CEDB"/>
    <path d="M207.696 66.9987C207.615 66.9987 207.529 66.9816 207.452 66.9388C207.192 66.8018 207.085 66.4806 207.222 66.2195L212.577 55.7466C212.714 55.4854 213.034 55.3784 213.295 55.5154C213.555 55.6524 213.662 55.9735 213.525 56.2347L208.17 66.7076C208.076 66.8917 207.888 66.9987 207.696 66.9987Z" fill="#C6CEDB"/>
    <path d="M207.803 69.2553C207.794 69.2553 207.786 69.2553 207.777 69.2553C207.047 69.2467 206.364 68.9556 205.851 68.4332C205.339 67.9108 205.061 67.2172 205.07 66.4851C205.078 65.7529 205.368 65.0678 205.89 64.554C206.406 64.0488 207.081 63.7705 207.803 63.7705C207.811 63.7705 207.82 63.7705 207.833 63.7705C208.563 63.7791 209.246 64.0702 209.759 64.5926C210.271 65.1149 210.549 65.8086 210.54 66.5407C210.519 68.0436 209.297 69.2553 207.803 69.2553ZM207.798 64.6268C207.303 64.6268 206.838 64.8195 206.483 65.1663C206.124 65.5174 205.924 65.9927 205.919 66.4936C205.915 66.9946 206.107 67.4741 206.457 67.8338C206.808 68.1934 207.282 68.3947 207.781 68.3989C207.786 68.3989 207.794 68.3989 207.798 68.3989C208.828 68.3989 209.669 67.564 209.682 66.5322C209.686 66.0269 209.494 65.5517 209.144 65.192C208.794 64.8323 208.32 64.6311 207.82 64.6268C207.811 64.6268 207.807 64.6268 207.798 64.6268Z" fill="#C6CEDB"/>
    <path d="M192.479 73.4982C192.454 73.4982 192.432 73.4982 192.407 73.4982C192.091 73.4939 191.766 73.4725 191.437 73.4297C189.848 73.2071 188.392 72.5049 187.226 71.4002C185.689 69.9402 184.822 67.8893 184.843 65.7656C184.886 61.5696 188.302 58.1829 192.483 58.1829C192.509 58.1829 192.535 58.1829 192.56 58.1829C194.602 58.2043 196.511 59.0178 197.941 60.4778C199.372 61.9378 200.145 63.8689 200.124 65.9155C200.107 67.8293 199.376 69.6576 198.074 71.062C196.84 72.3893 195.174 73.237 193.385 73.4468C193.073 73.4811 192.774 73.4982 192.479 73.4982ZM185.911 65.7742C185.894 67.5981 186.641 69.3665 187.961 70.621C188.964 71.5758 190.216 72.1795 191.582 72.3679C191.864 72.4064 192.146 72.4235 192.419 72.4278C192.697 72.4321 192.975 72.415 193.261 72.385C194.798 72.2052 196.233 71.473 197.292 70.3341C198.415 69.1267 199.039 67.5553 199.056 65.9069C199.09 62.2761 196.173 59.2875 192.547 59.2533C192.526 59.2533 192.505 59.2533 192.483 59.2533C188.887 59.2533 185.945 62.1648 185.911 65.7742Z" fill="#C6CEDB"/>
    <path d="M192.479 66.3737C192.261 66.3737 192.056 66.2366 191.979 66.0226C191.877 65.7443 192.022 65.436 192.3 65.3375C192.308 65.3332 193.918 64.661 195.319 61.2528C196.22 59.0606 196.989 56.2605 197.108 55.8237C197.121 55.3913 197.198 52.8052 197.16 51.7562C197.147 51.4608 197.377 51.2124 197.672 51.2039C197.962 51.1739 198.214 51.4222 198.223 51.7177C198.266 52.8951 198.172 55.7981 198.167 55.9222C198.167 55.9608 198.159 56.0036 198.15 56.0421C198.116 56.1706 197.305 59.2233 196.301 61.6596C194.695 65.5601 192.739 66.3094 192.658 66.3394C192.603 66.3651 192.539 66.3737 192.479 66.3737Z" fill="#C6CEDB"/>
    <path d="M197.673 52.1415C197.382 52.1415 197.147 51.9103 197.139 51.6192C197.134 51.3237 197.365 51.0797 197.66 51.0711L202.135 50.9727C202.14 50.9727 202.144 50.9727 202.148 50.9727C202.439 50.9727 202.674 51.2039 202.682 51.495C202.686 51.7904 202.456 52.0345 202.161 52.0431L197.685 52.1415C197.681 52.1415 197.677 52.1415 197.673 52.1415Z" fill="#C6CEDB"/>
    <path d="M188.815 66.3179C188.593 66.3179 188.405 66.1467 188.388 65.924C188.379 65.8084 188.375 65.6885 188.375 65.5729C188.392 64.0358 189.302 62.6315 190.703 61.9978C190.916 61.8993 191.172 61.9978 191.266 62.2119C191.364 62.4259 191.266 62.6786 191.053 62.777C189.955 63.2737 189.238 64.3784 189.229 65.5815C189.229 65.6757 189.229 65.7656 189.238 65.8598C189.255 66.0953 189.08 66.3008 188.845 66.3179C188.836 66.3179 188.823 66.3179 188.815 66.3179Z" fill="#C6CEDB"/>
    <path d="M224.406 64.464C224.218 64.464 224.048 64.3399 223.996 64.1515C223.668 62.9911 222.69 62.1134 221.502 61.9207C221.413 61.9079 221.319 61.895 221.229 61.8865C220.994 61.8694 220.819 61.6638 220.836 61.4284C220.853 61.1929 221.058 61.013 221.293 61.0344C221.408 61.043 221.524 61.0559 221.643 61.073C223.159 61.317 224.406 62.4345 224.825 63.916C224.889 64.1429 224.757 64.3784 224.53 64.4426C224.483 64.4597 224.445 64.464 224.406 64.464Z" fill="#C6CEDB"/>
    <path d="M213.068 56.6457C213.026 56.6457 212.979 56.6415 212.932 56.6286C212.646 56.5558 212.475 56.2604 212.552 55.9735L213.265 53.2247C213.337 52.9379 213.628 52.7666 213.918 52.8437C214.204 52.9165 214.375 53.2119 214.298 53.4988L213.585 56.2475C213.521 56.4873 213.303 56.6457 213.068 56.6457Z" fill="#C6CEDB"/>
    <path d="M215.05 53.9227C215.046 53.9227 215.041 53.9227 215.037 53.9227L212.12 53.8927C211.381 53.8841 210.784 53.2762 210.792 52.5354V52.3684C210.796 52.0088 210.937 51.6748 211.194 51.4222C211.445 51.1739 211.779 51.0369 212.133 51.0369C212.137 51.0369 212.142 51.0369 212.146 51.0369L215.058 51.0668C215.797 51.0754 216.395 51.6834 216.387 52.4241V52.5911C216.387 53.3275 215.785 53.9227 215.05 53.9227ZM212.133 52.8223L215.05 52.8523C215.05 52.8523 215.05 52.8523 215.054 52.8523C215.204 52.8523 215.328 52.7281 215.328 52.5783V52.4113C215.328 52.2614 215.204 52.133 215.054 52.133L212.142 52.103C212.142 52.103 212.142 52.103 212.137 52.103C211.988 52.103 211.864 52.2272 211.864 52.377V52.544C211.86 52.6939 211.984 52.8223 212.133 52.8223Z" fill="#C6CEDB"/>
    <path d="M79.2464 63.7617C78.8364 63.7617 78.5033 63.4277 78.4991 63.0167C78.4948 62.6013 78.8279 62.2674 79.2422 62.2631L101.202 62.1304H101.206C101.616 62.1304 101.949 62.4643 101.954 62.8754C101.958 63.2907 101.625 63.6247 101.211 63.6289L79.2507 63.7617H79.2464Z" fill="#00ADA8"/>
    <path d="M61.9715 63.8644C61.7665 63.8644 61.5658 63.7788 61.4248 63.629C61.2839 63.4748 61.2113 63.2693 61.2241 63.0638C61.2369 62.9139 61.4932 59.4073 61.7067 57.6133C61.9587 55.5024 63.1288 53.8797 64.9268 53.1647C66.4215 52.5695 68.275 52.1842 70.2353 51.7732C70.7734 51.6618 71.32 51.5462 71.8667 51.4263C73.4981 51.0667 74.7964 50.8826 75.39 50.8098L81.8601 41.4973C81.9967 41.296 82.2274 41.1761 82.4665 41.1761L110.448 41.0049H110.452C110.717 41.0049 110.961 41.1462 111.097 41.3731C111.195 41.5358 113.476 45.4364 114.941 51.0196C116.5 56.9582 116.282 62.5928 116.273 62.8283C116.256 63.2265 115.932 63.5433 115.53 63.5476L111.857 63.569H111.853C111.443 63.569 111.11 63.235 111.106 62.824C111.102 62.4087 111.435 62.0747 111.849 62.0704L114.791 62.0533C114.796 60.3621 114.68 55.9178 113.497 51.4007C112.336 46.9777 110.61 43.5953 110.021 42.5077L82.868 42.6704L76.4235 51.9444C76.2996 52.1242 76.1032 52.2399 75.8854 52.2613C75.8683 52.2613 74.301 52.4282 72.187 52.8907C71.636 53.0105 71.0851 53.1261 70.5427 53.2418C68.6466 53.6357 66.8529 54.0124 65.482 54.5562C64.1922 55.07 63.3808 56.2175 63.1929 57.7888C63.0434 59.0348 62.8726 61.1927 62.7786 62.3616L68.5953 62.3273H68.5996C69.0096 62.3273 69.3427 62.6613 69.347 63.0723C69.3512 63.4877 69.0181 63.8216 68.6039 63.8259L61.9757 63.8644H61.9715Z" fill="#00ADA8"/>
    <path d="M79.7376 54.5305C79.4686 54.5305 79.2209 54.3849 79.0885 54.1537C78.9561 53.9182 78.9561 53.6313 79.097 53.3959L84.1492 44.9097C84.2859 44.6828 84.5251 44.5457 84.7899 44.5457L106.78 44.5029C107.053 44.5029 107.305 44.6528 107.437 44.8968C108.906 47.6199 109.914 50.5058 110.444 53.4686C110.482 53.687 110.423 53.9096 110.282 54.0809C110.141 54.2522 109.931 54.3507 109.714 54.3507L79.7462 54.5305C79.7376 54.5305 79.7376 54.5305 79.7376 54.5305ZM85.2127 46.0443L81.0573 53.0234L108.8 52.8564C108.296 50.4972 107.467 48.198 106.327 46.0015L85.2127 46.0443Z" fill="#00ADA8"/>
    <path d="M93.4725 54.2651C93.0625 54.2651 92.7294 53.9312 92.7251 53.5201L92.6739 45.2609C92.6696 44.8456 93.0027 44.5116 93.417 44.5073H93.4212C93.8312 44.5073 94.1643 44.8413 94.1686 45.2523L94.2199 53.5116C94.2241 53.9269 93.891 54.2609 93.4768 54.2651C93.4768 54.2651 93.4768 54.2651 93.4725 54.2651Z" fill="#00ADA8"/>
    <path d="M104.708 54.1794C104.336 54.1794 104.016 53.9054 103.969 53.5244L102.923 45.3379C102.872 44.9269 103.162 44.5544 103.568 44.4987C103.982 44.4516 104.349 44.7385 104.405 45.1452L105.447 53.3317C105.498 53.7427 105.208 54.1152 104.802 54.1709C104.768 54.1794 104.738 54.1794 104.708 54.1794Z" fill="#00ADA8"/>
    <path d="M73.9213 68.7798C72.3155 68.7798 70.7994 68.1547 69.6549 67.0243C68.5018 65.8811 67.8612 64.3569 67.8526 62.7299C67.8441 61.1029 68.4633 59.57 69.6036 58.414C70.7439 57.258 72.2643 56.6157 73.8871 56.6072C73.8999 56.6072 73.9127 56.6072 73.9256 56.6072C77.2567 56.6072 79.9771 59.3132 79.9942 62.6571C80.0156 66.0139 77.3079 68.7584 73.9597 68.7798C73.9469 68.7798 73.9341 68.7798 73.9213 68.7798ZM73.9213 58.1057C73.9127 58.1057 73.9042 58.1057 73.8957 58.1057C72.6742 58.1143 71.5254 58.5981 70.667 59.4673C69.8086 60.3407 69.3388 61.4925 69.3474 62.717C69.3559 63.9416 69.8385 65.0933 70.7054 65.9539C71.5681 66.8103 72.7084 67.277 73.9213 67.277C73.9298 67.277 73.9384 67.277 73.9512 67.277C76.4752 67.2598 78.5166 65.1918 78.4995 62.6614C78.4824 60.1481 76.4325 58.1057 73.9213 58.1057Z" fill="#00ADA8"/>
    <path d="M73.9217 65.7099C73.123 65.7099 72.3757 65.4016 71.8077 64.8407C71.2354 64.2756 70.9194 63.5177 70.9151 62.7128C70.9108 61.9078 71.2183 61.1457 71.782 60.5763C72.3458 60.0025 73.1017 59.6857 73.9046 59.6814C73.9088 59.6814 73.9174 59.6814 73.9217 59.6814C74.7203 59.6814 75.4676 59.9897 76.0356 60.5506C76.6079 61.1157 76.924 61.8736 76.9282 62.6785C76.9325 63.4835 76.625 64.2456 76.0613 64.8151C75.4975 65.3888 74.7416 65.7056 73.9387 65.7099C73.9345 65.7099 73.9259 65.7099 73.9217 65.7099ZM73.9217 61.1757C73.9174 61.1757 73.9174 61.1757 73.9131 61.1757C73.0761 61.18 72.4013 61.865 72.4098 62.7042C72.4141 63.5391 73.0931 64.2113 73.9217 64.2113C73.9259 64.2113 73.9259 64.2113 73.9302 64.2113C74.7673 64.2071 75.442 63.522 75.4335 62.6828C75.4292 62.2761 75.2712 61.8993 74.9851 61.6124C74.6989 61.3298 74.3231 61.1757 73.9217 61.1757Z" fill="#00ADA8"/>
    <path d="M106.523 68.5828C104.917 68.5828 103.401 67.9577 102.256 66.8273C101.103 65.6841 100.463 64.1599 100.454 62.5329C100.433 59.1761 103.14 56.4316 106.489 56.4102C106.502 56.4102 106.514 56.4102 106.527 56.4102C109.858 56.4102 112.579 59.1161 112.596 62.4601C112.604 64.0871 111.985 65.6199 110.845 66.776C109.705 67.932 108.184 68.5742 106.561 68.5828C106.549 68.5828 106.536 68.5828 106.523 68.5828ZM101.949 62.5243C101.966 65.0462 104.016 67.0842 106.523 67.0842C106.531 67.0842 106.54 67.0842 106.553 67.0842C107.774 67.0757 108.923 66.5918 109.781 65.7227C110.64 64.8492 111.11 63.6975 111.101 62.4686C111.084 59.9468 109.034 57.9087 106.527 57.9087C106.519 57.9087 106.51 57.9087 106.502 57.9087C103.973 57.9258 101.936 59.9939 101.949 62.5243Z" fill="#00ADA8"/>
    <path d="M106.523 65.5129C105.729 65.5129 104.977 65.2046 104.409 64.6437C103.837 64.0786 103.521 63.3207 103.517 62.5158C103.512 61.7108 103.82 60.9487 104.384 60.3792C104.947 59.8055 105.703 59.4887 106.506 59.4844C106.51 59.4844 106.519 59.4844 106.523 59.4844C107.322 59.4844 108.069 59.7927 108.637 60.3536C109.209 60.9187 109.526 61.6766 109.53 62.4815C109.538 64.1428 108.197 65.5043 106.54 65.5172C106.536 65.5129 106.532 65.5129 106.523 65.5129ZM106.527 60.9787C106.523 60.9787 106.523 60.9787 106.519 60.9787C106.113 60.9829 105.737 61.1414 105.451 61.4282C105.165 61.7151 105.011 62.1004 105.016 62.5029C105.02 62.9097 105.178 63.2865 105.464 63.5733C105.75 63.8559 106.126 64.0101 106.527 64.0101C106.532 64.0101 106.536 64.0101 106.536 64.0101C107.373 64.0058 108.048 63.3207 108.039 62.4815C108.035 61.6552 107.356 60.9787 106.527 60.9787Z" fill="#00ADA8"/>
    <path d="M140.138 29.5006H133.959C133.664 29.5006 133.425 29.2608 133.425 28.9654C133.425 28.6699 133.664 28.4302 133.959 28.4302H140.138C140.433 28.4302 140.672 28.6699 140.672 28.9654C140.672 29.2608 140.433 29.5006 140.138 29.5006Z" fill="#C6CEDB"/>
    <path d="M131.977 29.5006H130.563C130.268 29.5006 130.029 29.2608 130.029 28.9654C130.029 28.6699 130.268 28.4302 130.563 28.4302H131.977C132.271 28.4302 132.511 28.6699 132.511 28.9654C132.511 29.2608 132.271 29.5006 131.977 29.5006Z" fill="#C6CEDB"/>
    <path d="M164.703 37.0873H161.718C161.423 37.0873 161.184 36.8476 161.184 36.5521C161.184 36.2567 161.423 36.0169 161.718 36.0169H164.169V21.9176H140.676V36.0169H143.192C143.486 36.0169 143.725 36.2567 143.725 36.5521C143.725 36.8476 143.486 37.0873 143.192 37.0873H140.142C139.848 37.0873 139.608 36.8476 139.608 36.5521V21.3824C139.608 21.0869 139.848 20.8472 140.142 20.8472H164.703C164.998 20.8472 165.237 21.0869 165.237 21.3824V36.5521C165.237 36.8476 164.998 37.0873 164.703 37.0873Z" fill="#C6CEDB"/>
    <path d="M164.895 37.0876C164.763 37.0876 164.635 37.0405 164.532 36.942C164.319 36.7408 164.306 36.4025 164.507 36.1842L168.295 32.1124V18.5139L165.284 21.7466C165.083 21.9606 164.746 21.9735 164.528 21.7722C164.314 21.571 164.302 21.2328 164.502 21.0144L168.436 16.7884C168.585 16.6257 168.82 16.5744 169.021 16.6557C169.226 16.7371 169.358 16.934 169.358 17.1524V32.3264C169.358 32.4634 169.307 32.5919 169.213 32.6904L165.28 36.9163C165.181 37.0319 165.04 37.0876 164.895 37.0876Z" fill="#C6CEDB"/>
    <path d="M140.137 21.9178C139.984 21.9178 139.834 21.8536 139.727 21.7294C139.535 21.5025 139.565 21.1642 139.792 20.9759L144.775 16.7499C144.874 16.6685 144.993 16.6257 145.121 16.6257H168.828C169.123 16.6257 169.362 16.8655 169.362 17.1609C169.362 17.4564 169.123 17.6961 168.828 17.6961H145.318L140.483 21.7936C140.385 21.875 140.261 21.9178 140.137 21.9178Z" fill="#C6CEDB"/>
    <path d="M152.425 37.199C152.19 37.199 151.998 37.0063 151.998 36.7709V30.4726C151.998 30.2371 152.19 30.0444 152.425 30.0444C152.66 30.0444 152.852 30.2371 152.852 30.4726V36.7709C152.852 37.0063 152.66 37.199 152.425 37.199Z" fill="#C6CEDB"/>
    <path d="M152.425 37.1991C152.314 37.1991 152.207 37.1562 152.122 37.0749C151.955 36.9079 151.955 36.6382 152.122 36.4712L156.564 32.0183C156.73 31.8513 156.999 31.8513 157.166 32.0183C157.332 32.1853 157.332 32.455 157.166 32.622L152.724 37.0749C152.643 37.1562 152.532 37.1991 152.425 37.1991Z" fill="#C6CEDB"/>
    <path d="M158.703 37.1991H152.421C152.186 37.1991 151.994 37.0064 151.994 36.7709C151.994 36.5354 152.186 36.3428 152.421 36.3428H158.703C158.938 36.3428 159.13 36.5354 159.13 36.7709C159.13 37.0064 158.943 37.1991 158.703 37.1991Z" fill="#C6CEDB"/>
    <path d="M156.863 41.6517C156.752 41.6517 156.645 41.6089 156.56 41.5275L152.118 37.0746C151.952 36.9077 151.952 36.6379 152.118 36.4709C152.285 36.304 152.554 36.304 152.72 36.4709L157.162 40.9238C157.328 41.0908 157.328 41.3606 157.162 41.5275C157.085 41.6089 156.974 41.6517 156.863 41.6517Z" fill="#C6CEDB"/>
    <path d="M152.425 43.4974C152.19 43.4974 151.998 43.3047 151.998 43.0692V36.7709C151.998 36.5354 152.19 36.3428 152.425 36.3428C152.66 36.3428 152.852 36.5354 152.852 36.7709V43.0692C152.852 43.3047 152.66 43.4974 152.425 43.4974Z" fill="#C6CEDB"/>
    <path d="M147.984 41.6517C147.873 41.6517 147.766 41.6089 147.681 41.5275C147.514 41.3606 147.514 41.0908 147.681 40.9238L152.122 36.4709C152.289 36.304 152.558 36.304 152.724 36.4709C152.891 36.6379 152.891 36.9077 152.724 37.0746L148.283 41.5275C148.202 41.6089 148.091 41.6517 147.984 41.6517Z" fill="#C6CEDB"/>
    <path d="M152.425 37.1991H146.143C145.908 37.1991 145.716 37.0064 145.716 36.7709C145.716 36.5354 145.908 36.3428 146.143 36.3428H152.425C152.66 36.3428 152.852 36.5354 152.852 36.7709C152.852 37.0064 152.66 37.1991 152.425 37.1991Z" fill="#C6CEDB"/>
    <path d="M152.425 37.1991C152.314 37.1991 152.208 37.1562 152.122 37.0749L147.681 32.622C147.514 32.455 147.514 32.1853 147.681 32.0183C147.847 31.8513 148.116 31.8513 148.283 32.0183L152.724 36.4712C152.891 36.6382 152.891 36.9079 152.724 37.0749C152.643 37.1562 152.532 37.1991 152.425 37.1991Z" fill="#C6CEDB"/>
    <path d="M226.841 90.0082C226.572 90.0082 226.324 89.8369 226.235 89.5672C226.124 89.2289 226.307 88.8693 226.64 88.758C226.696 88.7408 232.209 86.8612 235.733 81.9116C235.938 81.6248 236.339 81.5563 236.625 81.7618C236.911 81.9673 236.98 82.3698 236.775 82.6566C232.995 87.9616 227.281 89.8969 227.042 89.9782C226.973 89.9996 226.905 90.0082 226.841 90.0082Z" fill="#C6CEDB"/>
    <path d="M223.907 95.0693C223.574 95.0693 223.292 94.8081 223.267 94.4699C223.245 94.1145 223.51 93.8105 223.865 93.7848C223.92 93.7805 229.528 93.3481 233.978 88.8438C234.225 88.5912 234.631 88.5912 234.883 88.8395C235.135 89.0879 235.135 89.4946 234.887 89.7472C230.083 94.6069 224.198 95.0479 223.95 95.065C223.937 95.0693 223.92 95.0693 223.907 95.0693Z" fill="#C6CEDB"/>
    <path d="M136.337 171.851C136.247 171.851 136.154 171.834 136.064 171.8L132.541 170.413C132.156 170.263 131.968 169.826 132.118 169.441C132.267 169.055 132.703 168.863 133.087 169.017L136.61 170.404C136.995 170.554 137.183 170.991 137.033 171.376C136.918 171.671 136.636 171.851 136.337 171.851Z" fill="#D3D9E5"/>
    <path d="M130.47 177.923C130.132 177.923 129.825 177.691 129.744 177.345C129.65 176.942 129.897 176.54 130.299 176.441L134.403 175.469C134.804 175.375 135.206 175.623 135.304 176.026C135.398 176.428 135.15 176.831 134.749 176.929L130.645 177.901C130.585 177.918 130.529 177.923 130.47 177.923Z" fill="#D3D9E5"/>
    <path d="M134.573 183.506C134.42 183.506 134.266 183.459 134.133 183.365C133.8 183.121 133.728 182.654 133.967 182.32L135.726 179.892C135.97 179.558 136.435 179.481 136.768 179.725C137.102 179.969 137.174 180.436 136.935 180.77L135.175 183.198C135.034 183.399 134.804 183.506 134.573 183.506Z" fill="#D3D9E5"/>
    <path d="M26.6648 198.496C27.899 196.71 29.287 178.736 29.287 178.736C29.287 178.736 13.4043 165.3 12.311 145.339C11.0042 121.478 31.922 103.975 57.2173 106.141C82.5126 108.308 85.5705 116.597 90.1316 124.612C94.6927 132.627 90.3152 154.339 90.3152 154.339L97.8658 159.537C100.138 161.1 99.668 164.59 97.0672 165.497L88.5813 168.7C88.5813 168.7 89.286 181.314 82.3247 186.16C78.6519 188.717 71.2252 188.956 64.7893 188.695L62.7564 207.02L26.6648 198.496Z" fill="#FFC927"/>
    <path d="M83.8797 150.101C85.0541 149.882 85.8271 148.752 85.6093 147.575C85.3915 146.397 84.2641 145.622 83.0896 145.841C81.9152 146.059 81.1422 147.189 81.36 148.367C81.5778 149.544 82.7052 150.319 83.8797 150.101Z" fill="#00A69C"/>
    <path d="M87.5689 176.536C87.5005 176.536 87.4279 176.527 87.3596 176.51C78.5834 174.296 77.0801 168.482 77.0203 168.238C76.9092 167.78 77.1911 167.313 77.6481 167.202C78.105 167.09 78.5663 167.369 78.6773 167.827C78.7328 168.045 80.0653 172.901 87.7739 174.849C88.2308 174.964 88.5084 175.431 88.3931 175.889C88.2992 176.279 87.949 176.536 87.5689 176.536Z" fill="#15A59E"/>
    <path d="M92.4679 122.827C86.4676 108.034 70.1493 97.6766 51.6316 97.0344C32.6569 96.375 13.8872 108.432 8.09189 123.178C2.29656 137.924 4.20983 175.538 4.20983 175.538L58.6697 187.535L66.5833 132.255L72.0199 139.401L77.8622 131.553L82.9656 139.529L86.8263 131.506L94.2787 138.87C94.283 138.866 95.419 130.101 92.4679 122.827Z" fill="#C82232"/>
    <path opacity="0.5" d="M80.9287 151.937C79.6219 151.081 75.7868 148.88 74.3134 148.88C71.8706 148.876 71.0805 152.122 72.2549 153.65C73.4294 155.179 78.9941 156.943 80.1685 157.088C82.7566 157.418 83.111 153.368 80.9287 151.937Z" fill="#F88627"/>
    <path d="M19.6438 153.042C19.6352 152.978 18.9049 146.38 19.6438 139.628C20.3826 132.846 24.4483 124.672 24.6234 124.33L25.3878 124.715C25.3451 124.796 21.2196 133.094 20.4936 139.722C19.7676 146.384 20.4851 152.884 20.4936 152.948L19.6438 153.042Z" fill="#F88627"/>
    <path d="M26.2083 140.386L25.3584 140.309C26.2296 130.474 33.2037 118.652 33.2763 118.537L34.0108 118.973C33.9382 119.089 27.0624 130.748 26.2083 140.386Z" fill="#F88627"/>
    <path d="M71.7207 210.296C71.6011 210.296 71.4858 210.283 71.3663 210.253L17.09 196.95C16.2872 196.753 15.796 195.944 15.9925 195.139C16.1889 194.334 16.9961 193.842 17.799 194.039L72.0752 207.342C72.8781 207.539 73.3692 208.348 73.1728 209.153C73.0062 209.838 72.3955 210.296 71.7207 210.296Z" fill="#C6CEDB"/>
    <path d="M169.38 213.173C168.739 213.173 168.146 212.754 167.949 212.107C167.71 211.315 168.158 210.48 168.948 210.24L216.443 195.846C217.237 195.606 218.066 196.055 218.305 196.847C218.544 197.64 218.096 198.474 217.305 198.714L169.811 213.109C169.67 213.152 169.525 213.173 169.38 213.173Z" fill="#C6CEDB"/>
    <path d="M152.425 43.6682C148.633 43.6682 145.545 40.5726 145.545 36.7705C145.545 32.9684 148.633 29.8728 152.425 29.8728C156.217 29.8728 159.305 32.9684 159.305 36.7705C159.305 40.5726 156.217 43.6682 152.425 43.6682ZM152.425 30.9432C149.222 30.9432 146.613 33.555 146.613 36.7705C146.613 39.986 149.218 42.5978 152.425 42.5978C155.632 42.5978 158.237 39.986 158.237 36.7705C158.237 33.555 155.628 30.9432 152.425 30.9432Z" fill="#C6CEDB"/>
    <path d="M152.425 46.1689C147.257 46.1689 143.051 41.9558 143.051 36.7707C143.051 31.5857 147.253 27.3726 152.425 27.3726C157.597 27.3726 161.799 31.5857 161.799 36.7707C161.799 41.9558 157.592 46.1689 152.425 46.1689ZM152.425 28.443C147.847 28.443 144.118 32.1765 144.118 36.7707C144.118 41.3649 147.842 45.0985 152.425 45.0985C157.007 45.0985 160.731 41.3649 160.731 36.7707C160.731 32.1765 157.003 28.443 152.425 28.443Z" fill="#C6CEDB"/>
</svg>
