<svg xmlns="http://www.w3.org/2000/svg" viewBox="0 0 288 213">
  <g fill="none">
    <path fill="#00ADA8" d="M248.255,43.9337 C246.588,43.9337 244.841,43.5531 243.011,42.636 C238.951,40.6 237.353,37.8207 236.83,36.6405 C235.844,37.0186 233.577,37.8309 230.786,38.4389 C225.792,39.5297 221.73,39.4326 218.71,38.1528 C216.943,37.4043 215.96,36.3084 215.789,34.8983 C215.58,33.1663 216.632,31.0614 218.914,28.6397 C219.813,27.6843 220.722,26.877 221.373,26.3329 C219.943,25.9753 217.505,25.168 215.646,23.5204 C214.446,22.4602 213.856,20.856 214.03,19.1189 C214.3,16.3983 216.274,13.7799 219.445,11.9381 C221.835,10.551 225.118,10.1754 228.94,10.8549 C230.819,11.187 232.387,11.6903 233.26,12.007 C233.385,10.0503 234.185,5.22218 238.944,4.35619 C243.7,3.49531 248.952,5.6539 250.698,6.46113 C250.933,5.77907 251.383,4.63974 252.087,3.50552 C253.589,1.09404 255.529,-0.114263 257.691,0.0134639 C261.692,0.253591 265.08,3.40845 266.324,4.71638 C267.151,3.50297 269.171,0.920327 271.775,0.279136 C274.254,-0.32629 278.926,-0.459127 282.373,5.41888 C285.503,10.7579 283.374,16.7202 283.282,16.9731 C283.215,17.1519 283.065,17.2847 282.878,17.323 C279.57,18.0383 276.465,15.6524 275.237,14.5386 C274.685,15.4608 273.49,17.0242 271.514,17.5172 C269.569,18.0026 267.422,16.6767 266.449,15.9691 C265.747,17.0829 263.947,19.3769 261.046,19.3769 C258.58,19.3769 257.109,17.7267 256.366,16.5337 C255.996,17.6577 255.486,19.474 255.248,21.4997 C255.212,21.8037 254.937,22.0209 254.633,21.9851 C254.329,21.9493 254.112,21.6734 254.148,21.3694 C254.556,17.8621 255.72,15.0418 255.769,14.9243 C255.856,14.7123 256.057,14.5693 256.295,14.5846 C256.522,14.5897 256.724,14.7353 256.803,14.9499 C256.806,14.9575 257.122,15.8159 257.822,16.6512 C258.718,17.7241 259.803,18.2682 261.046,18.2682 C264.11,18.2682 265.772,14.9294 265.79,14.8962 C265.864,14.7404 266.01,14.6306 266.176,14.5973 C266.344,14.5616 266.52,14.6076 266.651,14.72 C266.676,14.743 269.252,16.9424 271.246,16.4443 C273.519,15.8772 274.57,13.4376 274.581,13.4146 C274.655,13.2409 274.808,13.1183 274.994,13.0851 C275.178,13.0519 275.367,13.1132 275.495,13.2511 C275.528,13.2869 278.88,16.8045 282.337,16.2987 C282.705,15.0699 283.905,10.224 281.418,5.98343 C278.334,0.723627 274.218,0.828363 272.038,1.35971 C269.125,2.07498 266.901,5.86848 266.878,5.9068 C266.788,6.06262 266.625,6.1648 266.446,6.18013 C266.262,6.1929 266.089,6.12138 265.974,5.98343 C265.936,5.93745 262.091,1.39036 257.625,1.12214 C253.364,0.879454 251.587,7.31946 251.569,7.38332 C251.526,7.54681 251.411,7.67965 251.258,7.74862 C251.104,7.81759 250.928,7.80993 250.778,7.73329 C250.714,7.70008 244.443,4.48647 239.14,5.44698 C234.113,6.3615 234.343,12.7147 234.345,12.7811 C234.353,12.9701 234.264,13.1515 234.108,13.2613 C233.952,13.3712 233.75,13.3916 233.577,13.3175 C233.495,13.2818 225.254,9.85101 219.999,12.9011 C215.937,15.259 215.24,18.115 215.13,19.2338 C214.992,20.6312 215.434,21.8625 216.379,22.6953 C218.868,24.9024 222.677,25.4823 222.716,25.4874 C222.938,25.5206 223.117,25.6815 223.173,25.8986 C223.229,26.1158 223.147,26.3457 222.968,26.4785 C221.161,27.8273 216.55,31.9504 216.889,34.7706 C217.009,35.772 217.747,36.546 219.141,37.1386 C225.871,39.9921 236.819,35.4603 236.929,35.4143 C237.075,35.353 237.238,35.3581 237.381,35.4245 C237.524,35.491 237.631,35.6161 237.675,35.7668 C237.685,35.8001 238.785,39.2819 243.506,41.65 C248.893,44.3527 253.438,41.9999 257.546,39.0571 C260.183,37.1693 261.378,35.4935 261.388,35.4756 C261.565,35.2253 261.909,35.164 262.16,35.3402 C262.41,35.5165 262.471,35.8614 262.295,36.1117 C262.244,36.1858 260.993,37.9484 258.189,39.9563 C255.304,42.0229 251.985,43.9337 248.255,43.9337 Z"/>
    <path fill="#00ADA8" d="M270.799,39.4555 C267.784,39.4555 264.616,38.3749 261.532,36.247 C258.761,34.3362 256.425,31.2018 255.789,30.3077 C254.081,30.2643 251.842,29.8555 250.31,28.2717 C248.579,26.4861 248.321,24.0465 248.832,22.4218 C249.253,21.0832 250.17,20.1815 251.349,19.9516 C252.504,19.7293 253.737,20.0793 255.018,20.9811 C255.269,21.1573 255.327,21.5022 255.154,21.7525 C254.978,22.0029 254.633,22.0642 254.383,21.8879 C253.356,21.165 252.406,20.8789 251.561,21.0424 C250.795,21.1905 250.185,21.8164 249.892,22.7565 C249.481,24.0695 249.698,26.0467 251.109,27.5054 C252.46,28.9027 254.561,29.2016 256.086,29.2067 C256.267,29.2067 256.438,29.2987 256.543,29.4494 C256.568,29.4877 259.149,33.2582 262.165,35.3376 C266.786,38.5282 271.376,39.2154 275.439,37.3327 C281.518,34.5125 282.539,25.145 282.549,25.0504 C282.567,24.8844 282.656,24.7362 282.794,24.6443 C282.81,24.6341 284.329,23.6173 285.488,22.0386 C286.141,21.1471 286.453,19.6757 286.244,18.4572 C286.147,17.8901 285.894,17.1237 285.253,16.6894 C284.061,15.8822 283.371,16.7252 283.246,16.904 C283.07,17.1518 282.725,17.2131 282.478,17.042 C282.227,16.8682 282.164,16.5285 282.335,16.2756 C282.713,15.7238 284.081,14.5538 285.876,15.7723 C286.639,16.2909 287.145,17.1544 287.336,18.2707 C287.597,19.7855 287.214,21.5635 286.384,22.6952 C285.363,24.0899 284.117,25.0607 283.624,25.4183 C283.53,26.1259 283.203,28.1976 282.322,30.5453 C280.892,34.3592 278.676,37.0543 275.908,38.3366 C274.285,39.0826 272.566,39.4555 270.799,39.4555 Z"/>
    <path fill="#00ADA8" d="M272.467 30.1111C271.394 30.1111 270.657 29.0791 270.215 28.4609 269.51 27.4748 267.879 24.2331 267.81 24.0952 267.672 23.8218 267.782 23.4897 268.055 23.3518 268.328 23.2164 268.663 23.3262 268.798 23.597 268.813 23.6302 270.457 26.8975 271.114 27.8146 271.943 28.9769 272.339 29.1966 272.954 28.8415 273.562 28.489 273.478 27.7788 273.161 26.8234L273.148 26.78C273.013 26.3662 271.941 24.2765 271.297 23.0555 271.154 22.7847 271.259 22.45 271.53 22.307 271.8 22.1639 272.135 22.2687 272.278 22.5394 272.454 22.8715 273.994 25.799 274.203 26.4377L274.216 26.4786C274.435 27.1478 275.022 28.9284 273.511 29.8046 273.133 30.0217 272.786 30.1111 272.467 30.1111zM263.873 23.5384C264.523 23.5384 265.05 23.0111 265.05 22.3607 265.05 21.7104 264.523 21.1831 263.873 21.1831 263.223 21.1831 262.696 21.7104 262.696 22.3607 262.696 23.0111 263.223 23.5384 263.873 23.5384zM276.746 22.1077C277.396 22.1077 277.923 21.5805 277.923 20.9301 277.923 20.2797 277.396 19.7524 276.746 19.7524 276.096 19.7524 275.569 20.2797 275.569 20.9301 275.569 21.5805 276.096 22.1077 276.746 22.1077zM271.336 34.8624C270.228 34.8624 269.112 34.6682 268.254 34.2263 266.702 33.4293 266.056 32.6859 266.337 32.0217 266.617 31.355 267.69 31.3116 268.606 31.6156L268.624 31.6207C269.457 31.8966 271.989 32.737 274.394 31.3652 275.569 30.6959 276.059 31.2656 276.179 31.4546 276.598 32.1086 276.133 33.2147 275.145 33.9223 274.333 34.5047 272.842 34.8624 271.336 34.8624zM267.115 32.3436C267.151 32.4432 267.373 32.8417 268.634 33.4906 270.34 34.3668 273.475 34.0986 274.662 33.2505 275.411 32.7166 275.577 32.0575 275.479 31.9068 275.459 31.8736 275.247 31.8404 274.805 32.0907 272.079 33.6464 269.28 32.7191 268.361 32.4126L268.476 32.0115 268.346 32.4049C267.697 32.1929 267.235 32.267 267.115 32.3436zM238.512 13.8386C238.507 13.8386 238.502 13.8386 238.494 13.8386 238.264 13.8284 238.086 13.6368 238.096 13.4069 238.098 13.3634 238.328 8.9645 242.566 8.71416 244.315 8.61198 245.617 8.98749 246.434 9.83049 247.065 10.4819 247.152 11.1665 247.16 11.2406 247.183 11.468 247.017 11.6723 246.789 11.6953 246.557 11.7183 246.358 11.5523 246.335 11.3249 246.325 11.2483 246.052 9.34258 242.618 9.54183 241.152 9.62868 240.09 10.3031 239.454 11.5497 238.969 12.5025 238.926 13.4298 238.926 13.4401 238.918 13.6649 238.734 13.8386 238.512 13.8386zM234.641 29.9069C233.324 29.9069 231.807 29.4956 230.796 27.9322 230.23 27.0509 230.064 26.1492 230.306 25.25 230.84 23.2651 233.194 22.044 233.293 21.9929 233.498 21.8882 233.748 21.9699 233.853 22.1743 233.957 22.3786 233.876 22.629 233.671 22.7337 233.651 22.7439 231.544 23.8424 231.108 25.4696 230.929 26.1415 231.054 26.798 231.496 27.4826 233.235 30.1828 236.947 28.6552 236.985 28.6398 237.197 28.5504 237.44 28.6501 237.529 28.8621 237.618 29.0741 237.519 29.3168 237.307 29.4062 237.284 29.4139 236.084 29.9069 234.641 29.9069zM269.336 11.8665C268.142 11.8665 267.406 11.3683 267.36 11.3377 267.171 11.2074 267.125 10.9468 267.256 10.7603 267.386 10.5713 267.646 10.5253 267.833 10.6556 267.884 10.6888 269.13 11.5037 271.037 10.6454 273.327 9.61335 273.064 6.84933 273.059 6.82123 273.036 6.59388 273.199 6.38696 273.429 6.36397 273.659 6.34098 273.863 6.50447 273.886 6.73438 273.889 6.76759 274.21 10.1268 271.379 11.4041 270.608 11.7489 269.919 11.8665 269.336 11.8665zM243.054 30.8494C242.932 30.8494 242.812 30.7958 242.73 30.6936 242.587 30.5148 242.615 30.2517 242.794 30.1086 242.819 30.0856 243.524 29.4802 243.348 28.1723 243.139 26.6114 241.459 26.2717 241.39 26.2564 241.165 26.2129 241.017 25.9958 241.06 25.771 241.104 25.5462 241.321 25.398 241.543 25.4389 241.637 25.4568 243.882 25.8962 244.173 28.0599 244.415 29.8532 243.358 30.7192 243.315 30.7575 243.238 30.8188 243.146 30.8494 243.054 30.8494zM254.104 27.1045C254.089 27.1045 254.074 27.1045 254.061 27.1019 251.679 26.849 251.199 25.9907 251.199 24.693 251.199 23.5562 252.177 23.1705 252.692 23.127 252.925 23.1092 253.121 23.2778 253.142 23.5051 253.162 23.7325 252.994 23.9343 252.766 23.9547 252.641 23.9675 252.031 24.062 252.031 24.693 252.031 25.421 252.031 26.0494 254.15 26.2768 254.377 26.2998 254.543 26.5067 254.52 26.734 254.492 26.9461 254.314 27.1045 254.104 27.1045zM283.514 22.3861C283.399 22.3861 283.284 22.3376 283.203 22.2456 283.052 22.0719 283.07 21.8113 283.241 21.6581 283.555 21.3822 284.362 20.5034 284.331 19.7703 284.301 19.0729 283.685 18.9477 283.578 18.9324 283.407 18.9605 283.231 18.8762 283.147 18.7127 283.042 18.5083 283.121 18.258 283.323 18.1532 283.591 18.0153 284.071 18.1839 284.329 18.332 284.839 18.6284 285.135 19.124 285.161 19.7345 285.215 20.9939 283.936 22.1562 283.79 22.2839 283.708 22.3529 283.611 22.3861 283.514 22.3861z"/>
    <path fill="#FF6333" d="M66.3838 35.2778C66.274 35.2778 66.1693 35.2293 66.0953 35.1476 66.0161 35.0581 65.9829 34.9355 66.0085 34.818L69.3403 18.5277C69.371 18.3795 69.4833 18.2646 69.6314 18.2314 69.7795 18.1981 69.9301 18.2518 70.022 18.3718L80.1811 31.7193C80.2551 31.8164 80.2781 31.9416 80.2449 32.0566 80.2117 32.1741 80.1249 32.266 80.0126 32.3094L76.5224 33.6327C76.359 33.694 76.1726 33.6378 76.073 33.4948L73.1675 29.3411 71.0816 29.7038 70.1905 34.7184C70.1599 34.8921 70.0144 35.0224 69.8408 35.0326L66.4119 35.2727C66.4017 35.2778 66.394 35.2778 66.3838 35.2778zM69.9225 19.5086L66.8612 34.4783 69.4884 34.2943 70.3718 29.3104C70.3999 29.152 70.525 29.0269 70.6833 29.0013L73.2722 28.5517C73.4203 28.5262 73.5658 28.5875 73.6526 28.7101L76.5275 32.8178 79.2594 31.7807 69.9225 19.5086zM81.7998 31.0729C81.6338 31.0729 81.4832 30.9656 81.4347 30.8021L77.4952 18.0064C77.4364 17.8173 77.5309 17.6155 77.7122 17.5389L80.8066 16.2412C80.9062 16.2003 81.0185 16.2003 81.1181 16.2488 81.2151 16.2948 81.2892 16.3817 81.3224 16.4839L84.2968 26.301 88.4891 25.4324C88.6934 25.389 88.8925 25.5167 88.9385 25.7185L89.7453 29.1442C89.7682 29.2464 89.7504 29.3537 89.6942 29.4405 89.638 29.5274 89.5487 29.5887 89.444 29.6091L81.8713 31.0652C81.8483 31.0703 81.8253 31.0729 81.7998 31.0729zM78.3301 18.1137L82.0653 30.2503 88.9078 28.9347 88.2797 26.2627 84.1104 27.1261C83.9138 27.167 83.7249 27.052 83.6662 26.863L80.7122 17.1148 78.3301 18.1137zM91.4354 29.5249C91.2643 29.5249 91.1086 29.41 91.0652 29.2363L87.6567 15.9782C87.6056 15.7789 87.7231 15.572 87.9197 15.5158L90.9401 14.6345C91.0422 14.6064 91.1495 14.6191 91.2388 14.6702 91.3282 14.7239 91.3945 14.8107 91.4201 14.9129L93.7409 24.6432 97.9945 23.9841C98.1936 23.956 98.3851 24.0837 98.4285 24.283L99.1664 27.7419C99.1868 27.844 99.1664 27.9488 99.1102 28.0356 99.0515 28.1225 98.9621 28.1812 98.86 28.1991L91.5043 29.5173C91.4814 29.5224 91.4584 29.5249 91.4354 29.5249zM88.4916 16.1493L91.7188 28.7024 98.3341 27.5171 97.7545 24.799 93.5111 25.4581C93.3145 25.4862 93.1256 25.3636 93.0796 25.1694L90.769 15.4851 88.4916 16.1493zM104.383 27.3024C103.241 27.3024 102.189 27.0035 101.237 26.4058 99.5085 25.3227 98.2421 23.2995 97.6753 20.7091 96.7919 16.6781 98.6583 12.7926 101.926 11.8628 105.348 10.8895 109.096 14.1108 110.158 17.6411 110.916 20.1625 110.768 22.7145 109.762 24.4694 108.994 25.808 107.771 26.6893 106.124 27.0827 105.524 27.2309 104.942 27.3024 104.383 27.3024zM103.185 12.458C102.833 12.458 102.48 12.504 102.136 12.6036 99.2583 13.4236 97.6268 16.9131 98.4234 20.5482 98.9468 22.9342 100.091 24.7862 101.643 25.7595 102.881 26.5361 104.329 26.7328 105.945 26.3419 107.377 25.9971 108.437 25.2409 109.098 24.0914 110.002 22.5178 110.125 20.1906 109.425 17.8659 108.593 15.1045 105.853 12.458 103.185 12.458z"/>
    <path fill="#FF6333" d="M104.462 23.7312C103.826 23.7312 103.18 23.5396 102.593 23.1692 101.579 22.5305 100.839 21.4449 100.566 20.1957 100.086 18.0064 101.112 15.8913 102.904 15.3829 104.781 14.849 106.831 16.5938 107.408 18.5097 107.661 19.3501 107.975 20.9467 107.247 22.2112 106.826 22.9418 106.129 23.4272 105.179 23.6494 104.942 23.7031 104.702 23.7312 104.462 23.7312zM103.617 16.0497C103.448 16.0497 103.28 16.0726 103.114 16.1186 101.712 16.5171 100.921 18.2363 101.314 20.0296 101.541 21.0668 102.172 21.9966 103.001 22.5203 103.645 22.9265 104.337 23.0568 105.003 22.9009 105.738 22.7272 106.272 22.367 106.583 21.8255 107.01 21.0847 107.046 19.9556 106.675 18.7294 106.262 17.3627 104.919 16.0497 103.617 16.0497zM70.405 27.5069C70.2926 27.5069 70.188 27.4584 70.1139 27.3715 70.0322 27.277 70.0041 27.1467 70.0348 27.0241L70.6271 24.7659C70.6629 24.6279 70.7752 24.5206 70.9131 24.49 71.0535 24.4593 71.199 24.5079 71.2909 24.6177L72.9888 26.646C73.0807 26.7559 73.1037 26.904 73.0501 27.0369 72.9965 27.1672 72.8739 27.2591 72.7335 27.2745L70.4407 27.5044C70.4305 27.5069 70.4177 27.5069 70.405 27.5069zM71.1812 25.6779L70.9156 26.6869 71.9394 26.5847 71.1812 25.6779zM114.148 21.5573C113.96 21.5573 113.796 21.4167 113.771 21.2277L111.846 7.43575C111.83 7.32079 111.866 7.20329 111.948 7.11899 112.029 7.03469 112.144 6.99125 112.259 7.00147L116.569 7.38977C116.765 7.40765 116.919 7.57369 116.919 7.77039L116.919 21.0489C116.919 21.2533 116.76 21.4219 116.556 21.4321L114.171 21.5573C114.161 21.5573 114.154 21.5573 114.148 21.5573zM112.668 7.80615L114.478 20.773 116.148 20.6862 116.148 8.12292 112.668 7.80615zM116.495 28.7736C114.988 28.7736 113.765 27.5474 113.765 26.0428 113.765 24.5382 114.991 23.312 116.495 23.312 117.999 23.312 119.224 24.5382 119.224 26.0428 119.224 27.5474 117.999 28.7736 116.495 28.7736zM116.495 24.0784C115.412 24.0784 114.531 24.9597 114.531 26.0428 114.531 27.1259 115.412 28.0073 116.495 28.0073 117.577 28.0073 118.458 27.1259 118.458 26.0428 118.458 24.9597 117.577 24.0784 116.495 24.0784zM10.0288 32.3794C9.75813 32.3794 9.53345 32.1674 9.51813 31.8966 9.48749 31.3116 9.43132 30.7931 9.34962 30.3307 8.75984 30.6398 8.239 30.7701 8.08326 30.8058 5.82881 31.6361 3.02034 31.1047 1.93524 29.6359 1.24078 28.6983 1.10546 27.5897 1.55227 26.6624 1.35823 26.4708 1.19226 26.2741 1.0595 26.0723-.0970837 24.325-.321756 22.5266.459512 21.2595.837381 20.6439 1.4195 20.1994 2.14715 19.9465 1.23567 17.9999 1.76162 16.015 2.85948 14.7403 3.93181 13.4937 5.9003 12.5409 8.34623 13.2357 8.33347 13.108 8.32325 12.9802 8.31559 12.8525 8.23134 11.2304 8.70623 9.76918 9.6509 8.7397 10.856 7.42667 12.6994 6.93109 14.4636 7.44455 14.913 7.57483 15.3419 7.76386 15.7402 8.0091 16.1538 6.76248 16.9172 5.94759 17.9487 5.69724 19.5572 5.3064 21.421 6.39463 22.5878 8.41017 22.6771 8.56344 22.7614 8.71416 22.8405 8.86487 23.0805 5.69469 24.8473 3.91418 26.6167 3.28065 28.4345 2.6318 30.2907 3.13248 31.2328 4.52982 31.34 4.69075 31.4447 4.8568 31.5417 5.0305 32.5834 3.93461 33.9979 3.32663 35.1698 3.47479 36.2498 3.61273 37.22 4.20539 37.894 5.14546 38.6625 6.21326 39.0378 7.67191 38.9944 9.36301 40.1893 8.11895 41.8591 7.29639 43.3756 7.30916 44.7978 7.31938 45.939 8.04742 46.5952 9.36046 46.8965 9.96588 47.0752 10.6812 47.1364 11.4501 48.1807 11.2738 49.1407 11.4322 49.8071 11.8997 50.7185 12.5409 51.2726 13.7364 51.3236 15.1771 51.3441 15.7136 51.293 16.2475 51.1832 16.7661 51.5407 16.835 51.8828 16.9628 52.2019 17.1493 53.2998 17.7904 53.8794 19.0422 53.6802 20.3373 53.3279 22.6211 50.9917 23.7808 49.0973 24.0797 47.5347 24.3275 46.3552 24.1002 45.4692 23.6633 45.436 24.0337 45.4182 24.4195 45.4182 24.8231 45.4182 25.1041 45.1884 25.334 44.9075 25.334 44.6267 25.334 44.3969 25.1041 44.3969 24.8231 44.3969 24.1896 44.4352 23.5944 44.5118 23.0324 44.3229 22.8714 44.1569 22.7003 44.0088 22.5266 43.2786 22.5777 42.5254 22.5368 41.7416 22.3988 40.2148 22.1332 39.0531 21.3975 38.2387 20.1713 36.9851 19.8469 35.4659 19.1418 34.0694 18.1532 33.2651 18.6922 32.2464 19.1239 30.9851 19.1239 30.3137 19.1239 28.7179 19.0141 27.0813 18.0893 25.7256 18.6053 24.2933 18.802 23.0218 18.7765 22.4474 19.8469 21.518 20.8814 20.004 21.4818 19.0287 21.8701 17.8593 21.9135 16.7027 21.7449 16.2815 22.2532 15.7683 22.6977 15.1785 23.0656 15.1581 23.5688 15.0866 24.0567 14.9589 24.5191 14.3768 26.6241 12.8704 27.7429 11.2492 28.3254 11.1981 28.4531 11.1394 28.5808 11.073 28.7034 10.8534 29.1071 10.57 29.4392 10.2637 29.7099 10.4015 30.3256 10.496 31.0306 10.5394 31.843 10.5547 32.124 10.3377 32.3641 10.0569 32.3794 10.0466 32.3794 10.039 32.3794 10.0288 32.3794zM2.38459 27.3368C2.22374 27.8732 2.34885 28.4761 2.75736 29.0279 3.57182 30.1289 5.95647 30.5121 7.76155 29.8351L7.84326 29.8121C7.85347 29.8096 8.46878 29.6818 9.10197 29.2987 9.0509 29.1377 8.99473 28.9844 8.93346 28.8414 8.42538 28.8976 7.94794 28.918 7.52667 28.9206 5.77264 28.9206 3.76585 28.2743 2.38459 27.3368zM2.96927 26.4938C4.11564 27.2652 5.862 27.8988 7.48582 27.8988 7.49603 27.8988 7.50879 27.8988 7.52156 27.8988 7.81262 27.8962 8.09602 27.8885 8.36921 27.8681 7.58794 26.8897 6.43902 26.5065 4.98372 26.1387 4.22032 25.9471 3.48245 26.085 2.96927 26.4938zM4.30968 25.03C4.61095 25.03 4.91988 25.0683 5.23137 25.1475 7.02114 25.5997 8.55304 26.1412 9.51047 27.7353 9.82707 27.6816 10.1309 27.6127 10.4169 27.5335 10.5471 26.8667 10.4296 26.0825 10.0645 25.191 9.93686 24.8767 9.79898 24.5855 9.65601 24.3147 6.95731 24.1538 4.47308 23.0221 2.96417 21.2135 2.86459 21.0935 2.77012 20.9734 2.68332 20.8508 2.08077 21.0168 1.61354 21.3361 1.33013 21.796.763332 22.7156.98035 24.1053 1.91226 25.5103 1.98374 25.6176 2.07055 25.7249 2.17013 25.8321 2.73182 25.3136 3.49011 25.03 4.30968 25.03zM10.7998 24.3224C10.8713 24.4782 10.9402 24.6366 11.0092 24.8027 11.3539 25.6457 11.5147 26.4248 11.4892 27.135 12.7709 26.5244 13.6109 25.5537 13.9734 24.2483 14.0296 24.0465 14.073 23.837 14.1036 23.6199 13.1845 24.0031 12.1402 24.2407 11.0117 24.3122 10.9428 24.3147 10.8713 24.3199 10.7998 24.3224zM10.2611 23.3083C10.4883 23.3108 10.7181 23.3031 10.9479 23.2904 12.1556 23.2163 13.2458 22.9327 14.1547 22.4704 14.1317 21.9722 14.0551 21.4588 13.9326 20.9427 13.1538 20.603 12.4875 20.1968 12.0279 19.7881 10.2611 18.2273 9.04835 16.3165 8.55304 14.3801 6.32668 13.5448 4.55733 14.3341 3.63564 15.4045 2.73437 16.4519 2.32842 18.1098 3.18373 19.7242 3.59735 19.6834 4.03904 19.691 4.50627 19.7447 6.22966 19.949 8.58368 20.5596 10.2611 23.3083zM3.89096 20.7205C5.07307 22.0335 6.93178 22.9302 8.9641 23.2112 7.58795 21.3923 5.84668 20.93 4.38627 20.7563 4.21521 20.7384 4.05181 20.7256 3.89096 20.7205zM45.625 22.5828C46.4905 23.1167 47.5986 23.2802 48.939 23.0681 50.19 22.8714 52.3857 22.0386 52.6717 20.1789 52.8096 19.2874 52.4317 18.4623 51.6887 18.028 51.4436 17.885 51.1756 17.793 50.8896 17.7496 50.4836 18.8046 49.8071 19.7523 48.916 20.4804 47.8947 21.3132 46.8301 21.8905 45.7067 22.22 45.6786 22.3401 45.6505 22.4601 45.625 22.5828zM15.0636 21.3668C15.0917 21.5303 15.1147 21.6938 15.1325 21.8547 15.2755 21.7423 15.4108 21.6274 15.5359 21.5048 15.3776 21.4613 15.2193 21.4153 15.0636 21.3668zM39.745 20.3705C40.3272 20.9044 41.0471 21.2391 41.9178 21.3924 42.4003 21.4767 42.8727 21.5201 43.3322 21.5226 43.0284 20.9479 42.8165 20.3245 42.6786 19.6885 41.7901 20.1049 40.802 20.3373 39.745 20.3705zM43.6207 19.1546C43.7663 19.9746 44.0344 20.7767 44.4735 21.4409 44.6114 21.4205 44.7518 21.3949 44.8871 21.3668 45.3365 19.9822 46.0999 18.8736 47.1875 18.0152 48.1603 17.2463 49.1815 16.8069 50.139 16.7175 50.2743 16.1811 50.3228 15.6651 50.3049 15.2129 50.2666 14.1094 49.8607 13.1846 49.2224 12.735 48.7526 12.4055 47.9841 12.3135 47.1543 12.4872 47.0828 13.928 46.6437 15.4607 45.8701 16.7533 45.2701 17.7496 44.5067 18.5594 43.6207 19.1546zM49.7407 17.8185C49.1203 17.9718 48.4641 18.309 47.8207 18.8174 47.0879 19.3947 46.5288 20.1151 46.1331 20.9862 46.8709 20.6822 47.5833 20.2505 48.2726 19.691 48.9415 19.1444 49.419 18.4904 49.7407 17.8185zM17.3538 20.8023C18.1683 20.8687 18.9597 20.7997 19.6287 20.534 20.678 20.1176 21.3929 19.433 21.8831 18.682 21.181 18.5772 20.5733 18.3959 20.1189 18.1532 19.8584 18.0127 19.4678 17.7853 19.021 17.4558 18.707 18.4981 18.1453 19.5454 17.3538 20.8023zM14.7955 20.2019C15.2551 20.3782 15.7479 20.5289 16.2508 20.6362 17.2491 19.0856 17.8849 17.9233 18.1529 16.738 16.7436 15.4326 15.2372 13.2587 15.3981 9.99653 15.4134 9.66955 15.4466 9.36046 15.4925 9.06413 15.0891 8.77547 14.65 8.55833 14.1828 8.42294 12.7964 8.01932 11.3488 8.40505 10.4092 9.42943 9.6509 10.2545 9.27303 11.4501 9.34196 12.7963 9.35728 13.0773 9.39048 13.3583 9.44154 13.6419 9.72239 13.7722 10.0083 13.9254 10.2994 14.1017 12.4287 15.3994 14.0781 17.7675 14.7955 20.2019zM9.82452 15.0137C10.3734 16.4468 11.3641 17.839 12.7045 19.0243 12.9164 19.2133 13.1845 19.4024 13.4934 19.5837 12.7504 17.7394 11.4356 16.015 9.82452 15.0137zM38.8897 19.2772C39.1782 19.3308 39.4412 19.3538 39.6761 19.3487 40.8123 19.3181 41.7467 19.0422 42.5152 18.636 42.334 16.8299 42.6633 15.098 43.0973 14.3009 43.7356 13.1233 44.8412 12.1909 46.1356 11.7157 46.0999 11.0056 45.9518 10.3491 45.6837 9.81261 45.196 8.83422 44.4199 8.33608 43.3705 8.32842 43.3629 8.32842 43.3552 8.32842 43.345 8.32842 41.6778 8.32842 39.6991 9.63379 38.831 11.3096 38.8029 11.3658 38.7748 11.422 38.7468 11.4782 38.6191 12.1015 38.42 12.7171 38.1595 13.3098 37.9119 14.513 37.8659 15.8362 38.0702 16.8887 38.2565 17.8415 38.5272 18.6334 38.8897 19.2772zM34.9221 17.4865C35.8081 18.0893 36.7349 18.5721 37.5825 18.8966 37.3706 18.3575 37.197 17.7547 37.0693 17.0879 36.9672 16.5592 36.9187 15.9767 36.9212 15.3764 36.671 15.6957 36.4004 15.9997 36.1093 16.2858 36.02 16.3752 35.9178 16.4825 35.8055 16.6026 35.5706 16.8529 35.277 17.1671 34.9221 17.4865zM28.2737 17.5401C29.4788 18.0459 30.5664 18.1021 30.9851 18.1021 31.8532 18.1021 32.5885 17.8466 33.2038 17.489 32.346 16.7763 31.5698 15.9537 30.9851 15.0469 30.9647 15.0775 30.9468 15.1056 30.9264 15.1363 30.232 16.1811 29.3026 16.9679 28.2737 17.5401zM46.1024 12.8372C45.2063 13.2587 44.4505 13.9484 43.9935 14.7914 43.6667 15.3943 43.4369 16.6383 43.4956 17.9846 44.1569 17.4405 44.6446 16.8069 44.9943 16.2245 45.6045 15.2052 45.9824 13.9944 46.1024 12.8372zM24.0354 14.9191C24.0252 15.0111 24.0176 15.1031 24.0048 15.1899L23.992 15.2972C23.9358 15.803 23.8312 16.7507 23.4635 17.7751 24.2805 17.7572 25.1614 17.6295 26.0243 17.3715 25.2099 16.7099 24.5461 15.8899 24.0354 14.9191zM19.261 16.3497C19.8074 16.7942 20.3001 17.0905 20.6014 17.2489 21.0508 17.489 21.6686 17.6576 22.381 17.7317 22.8125 16.6971 22.9248 15.6881 22.981 15.1823L22.9937 15.0699C23.2618 12.7759 22.8763 10.9366 21.7069 8.91597 20.7827 7.32193 19.335 6.4074 18.1938 6.68329 17.4406 6.86722 16.8917 7.56461 16.6134 8.6554 17.8746 9.80239 18.7734 11.588 19.1742 13.836 19.3376 14.7659 19.3657 15.5757 19.261 16.3497zM28.1894 4.01891C27.7911 4.01891 27.3775 4.09044 26.9613 4.2386 25.2456 4.85169 23.535 6.83402 23.8797 10.5534 24.2065 14.0583 25.6516 15.941 27.1707 16.9474 28.3145 16.4314 29.3537 15.6548 30.0788 14.5666 30.2013 14.3827 30.3162 14.1988 30.4234 14.0123 30.2422 13.6087 30.0992 13.1897 30.0073 12.7631 29.2617 9.38089 30.0302 7.18654 30.8524 5.91182 30.7119 5.62061 30.5562 5.34727 30.3877 5.09948 29.9154 4.39954 29.1035 4.01891 28.1894 4.01891zM31.5749 14.0276C32.157 15.0826 33.0609 16.0508 34.0796 16.8631 34.4728 16.5285 34.797 16.1836 35.06 15.9026 35.1825 15.7724 35.2923 15.6548 35.3893 15.5578 36.14 14.817 36.7502 13.9407 37.1791 12.9981 37.3221 12.339 37.5187 11.7132 37.7663 11.164 38.2029 8.90319 37.9553 6.97962 37.0642 5.74067 36.5485 5.02284 35.8464 4.58858 35.0396 4.48639 34.317 4.39443 33.1604 4.76484 32.2132 5.80198 32.1494 5.87095 32.0855 5.94503 32.0192 6.02933 32.9102 8.25434 33.0175 11.1946 31.5749 14.0276zM16.4219 9.93523C16.4193 9.97099 16.4168 10.0093 16.4168 10.0476 16.2968 12.4949 17.244 14.2524 18.2985 15.4326 18.2985 14.9907 18.2551 14.5257 18.1657 14.0225 17.8619 12.3212 17.2593 10.9264 16.4219 9.93523zM31.3221 7.17377C30.7962 8.32842 30.4566 10.0655 31.003 12.5434 31.0158 12.5996 31.0285 12.6533 31.0413 12.7095 31.7868 10.7603 31.7741 8.79335 31.3221 7.17377z"/>
    <path fill="#FF6333" d="M26.6754 36.5714C25.9145 36.5714 25.2558 36.2649 24.8218 35.7131 24.3928 35.1639 24.2167 34.3975 24.3749 33.764 24.5639 33.0028 25.1205 31.6386 25.6081 30.4355 25.8609 29.8121 26.0805 29.2757 26.1928 28.9538 26.4915 28.1031 27.0098 27.5641 27.6507 27.4415 28.1128 27.3547 28.843 27.4517 29.6855 28.4199 29.8106 28.5655 30.0328 28.8031 30.306 29.0943 31.2736 30.1315 32.7315 31.6974 33.2395 32.6094 33.5842 33.2301 33.6225 33.9096 33.3493 34.5202 33.0532 35.1792 32.4225 35.6748 31.6617 35.8434 30.1655 36.1755 28.0847 36.5714 26.6754 36.5714zM27.929 28.4378C27.9009 28.4378 27.8728 28.4403 27.8447 28.4455 27.5843 28.494 27.3264 28.8108 27.1579 29.291 27.0379 29.6359 26.8132 30.1826 26.5554 30.8186 26.1009 31.9324 25.5366 33.3195 25.3656 34.0093 25.2992 34.28 25.3528 34.7322 25.626 35.0821 25.8685 35.3912 26.2209 35.5496 26.6754 35.5496 27.717 35.5496 29.3638 35.3044 31.4396 34.8446 31.8864 34.7449 32.2515 34.4665 32.4174 34.0987 32.5578 33.7844 32.5349 33.4421 32.3459 33.1049 31.9017 32.3028 30.4336 30.7318 29.5579 29.7917 29.2745 29.4877 29.0447 29.2399 28.9145 29.0892 28.5468 28.6652 28.1996 28.4378 27.929 28.4378zM19.9094 31.8685C20.7681 31.8685 21.4642 31.172 21.4642 30.3128 21.4642 29.4536 20.7681 28.7571 19.9094 28.7571 19.0506 28.7571 18.3545 29.4536 18.3545 30.3128 18.3545 31.172 19.0506 31.8685 19.9094 31.8685zM35.0805 29.452C35.9392 29.452 36.6354 28.7555 36.6354 27.8963 36.6354 27.0371 35.9392 26.3406 35.0805 26.3406 34.2218 26.3406 33.5256 27.0371 33.5256 27.8963 33.5256 28.7555 34.2218 29.452 35.0805 29.452z"/>
    <path fill="#FF6333" d="M27.689,42.1683 C21.4415,42.1683 18.9291,38.4335 18.8117,38.2547 C18.6074,37.9431 18.6968,37.5241 19.0083,37.3223 C19.3198,37.1205 19.7359,37.2074 19.9402,37.5165 C20.0602,37.6978 22.8457,41.7366 30.1299,40.6279 C37.4217,39.5218 38.9459,33.7127 39.0072,33.465 C39.0966,33.1048 39.4617,32.8825 39.8217,32.9719 C40.1817,33.0613 40.4038,33.4241 40.3144,33.7843 C40.2966,33.8558 39.8702,35.5648 38.4225,37.4245 C37.0923,39.1335 34.6081,41.3099 30.329,41.9588 C29.3843,42.1044 28.5035,42.1683 27.689,42.1683 Z"/>
    <path fill="#FF6333" d="M27.8165,47.8292 C23.3051,47.8292 19.0209,46.3757 15.6405,43.6781 C11.9461,40.7301 9.77076,36.6505 9.52055,32.1928 C9.50523,31.9118 9.7197,31.6692 10.0005,31.6538 C10.2763,31.6411 10.5239,31.8531 10.5393,32.1341 C10.7741,36.298 12.8116,40.1145 16.2762,42.8785 C19.7587,45.6553 24.2599,47.0398 28.9552,46.7742 C33.6505,46.5085 37.9679,44.6284 41.1159,41.4761 C44.2486,38.3391 45.8418,34.3182 45.6069,30.1518 C45.4537,27.421 44.4657,24.4194 43.0308,22.3195 C42.8725,22.0871 42.9312,21.7678 43.1636,21.6094 C43.3984,21.451 43.715,21.5098 43.8733,21.7422 C45.4078,23.9877 46.4622,27.1885 46.6256,30.0956 C46.8784,34.5532 45.178,38.8525 41.8385,42.199 C38.5142,45.5301 33.9594,47.5175 29.0139,47.796 C28.6131,47.819 28.2122,47.8292 27.8165,47.8292 Z"/>
    <path fill="#FF6333" d="M46.138 34.9494C45.898 34.9494 45.6836 34.7783 45.6376 34.5356 45.584 34.2597 45.7653 33.9915 46.0436 33.9378 46.23 33.902 50.601 32.9977 50.024 28.8262 49.8529 27.6 49.3754 26.7187 48.6018 26.2027 47.2282 25.2907 45.3542 25.7735 45.3363 25.7786 45.0606 25.8501 44.7849 25.6892 44.7108 25.4159 44.6393 25.1425 44.8002 24.8641 45.0734 24.79 45.1678 24.7645 47.4146 24.1846 49.1661 25.3495 50.195 26.0341 50.8231 27.1555 51.035 28.6831 51.7473 33.8203 46.2912 34.9264 46.2351 34.9366 46.2019 34.9443 46.1712 34.9494 46.138 34.9494zM9.73506 39.8948C9.19124 39.8948 8.60146 39.7977 8.06274 39.504 5.81851 38.2804 5.25426 35.5495 5.85681 33.4855 6.51807 31.2196 8.77252 30.701 9.86016 30.7368 10.141 30.747 10.3631 30.9846 10.3529 31.2656 10.3427 31.5466 10.118 31.7688 9.82442 31.7586 9.72485 31.751 7.43721 31.7126 6.83722 33.7716 6.44148 35.1255 6.57424 37.5293 8.55039 38.6073 9.66867 39.2179 11.267 38.5894 11.2848 38.5843 11.5453 38.477 11.844 38.6022 11.9512 38.8628 12.0584 39.1233 11.9333 39.4222 11.6729 39.5295 11.6167 39.55 10.7589 39.8948 9.73506 39.8948zM16.0568 29.5262C15.9853 29.5262 15.9113 29.5108 15.8423 29.4776 15.587 29.3601 15.4772 29.0587 15.5921 28.8032 15.6228 28.7343 16.3887 27.1121 18.6712 26.4403 20.9282 25.7761 22.8967 26.803 22.9784 26.8464 23.2261 26.9793 23.3205 27.2884 23.1878 27.5387 23.055 27.7865 22.7461 27.881 22.4959 27.7482 22.4805 27.7405 20.8057 26.8771 18.9572 27.4187 17.1419 27.9526 16.5419 29.1787 16.5164 29.2298 16.4321 29.4163 16.2483 29.5262 16.0568 29.5262zM32.0343 26.1541C31.8964 26.1541 31.7611 26.1005 31.6616 25.9906 31.4701 25.7837 31.4803 25.4618 31.6871 25.2677 31.7433 25.214 33.0913 23.9776 35.0471 23.8422 37.0079 23.7043 39.1576 25.1553 39.2496 25.2166 39.4845 25.375 39.5432 25.6917 39.3874 25.9268 39.2291 26.1592 38.9125 26.2231 38.6777 26.0647 38.6572 26.0519 36.7219 24.7593 35.116 24.8615 33.5203 24.9714 32.3943 26.0034 32.3841 26.0136 32.2845 26.1081 32.1594 26.1541 32.0343 26.1541zM92.3363 70.2996C92.3363 70.2996 92.7114 65.5235 97.6901 64.7671 102.968 63.9637 113.836 65.588 116.602 69.8393 119.366 74.0906 117.256 80.063 121.921 82.8659 126.586 85.6659 131.014 84.0943 130.519 89.8702 130.021 95.6461 125.61 97.5695 129.112 100.34 132.614 103.114 135.154 107.978 133.212 111.25 131.266 114.522 128.778 117.011 126.135 116.39 123.492 115.768 121.212 115.956 119.967 117.468 118.724 118.981 111.94 121.989 109.37 120.019 106.8 118.049 106.015 117.495 103.507 117.823 100.998 118.152 99.208 114.026 98.7596 113.05 97.4351 110.162 96.0637 108.538 96.0637 108.538 96.0637 108.538 90.1444 78.3097 90.9591 77.0753 91.7737 75.841 92.3363 70.2996 92.3363 70.2996z"/>
    <path fill="#FF6333" d="M93.5406,63.5327 C90.4842,60.589 85.6726,56.672 77.7285,58.4429 C69.7843,60.2138 68.451,65.89 64.5038,65.89 C59.9442,65.89 50.825,65.89 50.4616,72.4927 C50.1598,78.0105 51.3407,81.3852 47.206,83.4346 C43.839,85.1029 42.1101,92.6233 47.206,97.8978 C52.3019,103.172 55.3494,98.3024 56.5978,101.451 C57.6673,104.149 59.6658,108.558 63.3463,108.013 C67.0268,107.468 67.3668,106.189 70.2649,108.057 C73.163,109.922 78.9094,107.257 78.9094,107.257 L93.3823,76.2103 C93.3794,76.2103 98.2496,68.0684 93.5406,63.5327 Z"/>
    <path fill="#FFC927" d="M72.1315 106.561C72.0406 106.561 71.9469 106.526 71.8795 106.453 71.8033 106.374 70.0275 104.489 69.6641 103.257 69.4619 102.574 69.4443 101.521 70.0011 100.616 70.4612 99.865 71.2348 99.3724 72.234 99.1877 73.8955 98.8828 74.2999 95.6928 74.3146 94.4907 74.3175 94.2972 74.4699 94.1536 74.6662 94.1477 74.8596 94.1506 75.012 94.309 75.0091407 94.4995 75.0061 94.6989 74.9182 99.4046 72.3571 99.8738 71.5454 100.023 70.9505 100.396 70.5901 100.982 70.1535 101.692 70.1769 102.545 70.3264 103.061 70.5872 103.952 71.897 105.468 72.3776 105.975 72.5095 106.116 72.5036 106.336 72.3659 106.468 72.3044 106.529 72.2165 106.561 72.1315 106.561zM103.683 115.586C103.548 115.586 103.419 115.507 103.363 115.375 103.287 115.199 103.369 114.994 103.548 114.918 103.577 114.906 106.428 113.654 106.469 110.863 106.496 109.033 106.039 108.429 104.814 106.817 104.491 106.395 104.128 105.914 103.712 105.33 101.593 102.36 103.184 99.7361 103.252 99.6247 103.354 99.4605 103.568 99.4107 103.732 99.5133 103.897 99.6159 103.946 99.83 103.844 99.9912 103.785 100.088 102.437 102.343 104.28 104.923 104.691 105.497 105.051 105.972 105.37 106.392 106.628 108.045 107.199 108.802 107.17 110.872 107.12 114.123 103.958 115.501 103.823 115.56 103.773 115.577 103.727 115.586 103.683 115.586z"/>
    <path fill="#FFC927" d="M65.3799 104.328C65.2744 104.328 65.1689 104.281 65.1015 104.19 63.6715 102.293 63.7331 100.542 64.032 99.4078 64.451 97.8275 65.5821 96.5873 66.4348 96.2208 68.993 95.1214 69.4384 93.629 69.3945 91.0841 69.3037 85.9386 71.0238 85.7304 73.6288 85.4137 73.8134 85.3903 74.001 85.3698 74.1973 85.3434 76.5387 85.0385 77.5057 84.9153 79.0441 81.1771 79.258 80.6582 79.4456 80.189 79.6126 79.7639 80.7056 77.0226 81.1129 75.9964 83.2931 75.4686 85.989 74.8178 89.6402 77.2102 91.0878 78.2686L91.1493 78.3126C91.3076 78.4211 91.3486 78.6381 91.2402 78.7964 91.1318 78.9547 90.9149 78.9958 90.7567 78.8873 90.745 78.8785 90.7186 78.858 90.6776 78.8286 89.6109 78.0458 85.9392 75.5419 83.4601 76.143 81.6316 76.5857 81.3415 77.3128 80.2631 80.019 80.0932 80.4441 79.9056 80.9162 79.6917 81.4381 78.0712 85.3844 76.8639 85.6981 74.2911 86.0294 74.0948 86.0558 73.9014 86.0793 73.7167 86.0998 71.1761 86.4077 70.0157 86.5484 70.0948 91.0665 70.1593 94.6669 68.9022 95.9159 66.7132 96.8541 66.1125 97.1121 65.0957 98.1266 64.7089 99.5808 64.4481 100.566 64.4012 102.091 65.6612 103.765 65.7755 103.917 65.7462 104.137 65.5938 104.251 65.5264 104.304 65.4532 104.328 65.3799 104.328zM47.8506 91.3535C47.7363 91.3535 47.622 91.2978 47.5575 91.1922 46.7927 89.9931 46.6462 88.4304 47.159 86.9028 47.7803 85.0411 49.2513 83.5575 51.1912 82.8333 53.8578 81.8394 53.9691 80.4878 54.2417 77.2216 54.3149 76.345 54.397 75.3511 54.5464 74.2076 54.8248 72.0673 55.5134 70.6248 56.6533 69.7951 58.2621 68.6252 60.6327 68.7659 63.6949 69.3377 68.4421 70.226 70.3204 68.7454 72.9841 64.8694 75.343 61.4332 80.4067 60.1695 85.5817 61.7205 91.7647 63.5735 93.5756 68.6223 93.6489 68.8363 93.7104 69.0181 93.6167 69.2145 93.435 69.279 93.2533 69.3406 93.054 69.2468 92.9925 69.065 92.9749 69.0152 91.2108 64.1364 85.3824 62.389 80.4946 60.926 75.7445 62.0812 73.5585 65.2652 70.13 70.2612 67.604 70.7802 63.5689 70.0237 60.6825 69.4843 58.4731 69.3347 57.0665 70.358 56.0878 71.0675 55.49 72.3576 55.2409 74.2956 55.0944 75.4214 55.0123 76.4095 54.9391 77.2773 54.6695 80.5376 54.52 82.3349 51.4373 83.4842 49.6967 84.1351 48.378 85.4603 47.8242 87.1198 47.3817 88.445 47.4989 89.7908 48.1495 90.8111 48.252 90.9723 48.2052 91.1893 48.044 91.2919 47.9795 91.3359 47.915 91.3535 47.8506 91.3535z"/>
    <path fill="#FFC927" d="M54.5613,96.4903 C54.4235,96.4903 54.2917,96.4082 54.2389,96.2733 C53.4448,94.309 53.354,92.6788 53.9664,91.4239 C54.4763,90.3802 55.4785,89.6179 56.8674,89.225 C59.1443,88.577 59.5897,86.8032 59.7245,85.3255 C59.748,85.0646 59.7773,84.8564 59.8095,84.6277 C59.9091,83.9387 60.0293,83.0826 60.1143,79.8634 C60.2256,75.4713 62.9743,75.5006 66.7808,75.5388 L67.4958,75.5446 C70.4144,75.5652 73.714,75.5857 75.6451,70.792 C77.4502,66.312 80.4948,64.7229 84.9518,65.9308 C88.9781,67.0215 92.4535,70.9738 92.5971,71.1409 C92.7231,71.2875 92.7085,71.5074 92.5619,71.6334 C92.4184,71.7595 92.1986,71.7449 92.0696,71.5983 C92.0345,71.5601 88.5855,67.6372 84.7672,66.6023 C80.653,65.4852 77.96,66.9013 76.2868,71.05 C74.177,76.2835 70.473,76.2571 67.487,76.2366 L66.7691,76.2307 C62.8629,76.1926 60.9025,76.1691 60.8058,79.8751 C60.7208,83.1354 60.5948,84.015 60.4952,84.7216 C60.463,84.9385 60.4366,85.135 60.4132,85.3812 C60.3311,86.2843 60.0791,89.0256 57.0521,89.8876 C56.2198,90.1251 55.118,90.6323 54.5876,91.723 C54.066,92.7902 54.1657,94.2298 54.8807,96.0036 C54.9539,96.1825 54.866,96.3848 54.6873,96.4581 C54.6492,96.4815 54.6023,96.4903 54.5613,96.4903 Z"/>
    <path fill="#FFC927" d="M59.745 101.205C59.6014 101.205 59.4695 101.117 59.4168 100.976 57.4212 95.4937 58.9538 93.5088 62.2768 91.9314 65.3126 90.4889 65.2686 90.0931 64.9698 87.5218 64.917 87.0556 64.8555 86.525 64.8027 85.9122 64.4364 81.5817 67.8532 81.0159 70.8715 80.5175 71.3286 80.4412 71.8004 80.3621 72.2458 80.2741 75.4545 79.632 75.8237 79.2597 77.872 74.5598 80.1138 69.4172 82.7774 69.7866 85.1276 70.112 88.2074 70.5372 91.9084 74.6565 92.0637 74.8324 92.1926 74.9761 92.178 75.196 92.0344 75.325 91.8908 75.454 91.671 75.4394 91.5421 75.2957 91.5069 75.2546 87.8557 71.191 85.0309 70.8011 82.7218 70.4815 80.5416 70.1795 78.5109 74.8383 76.3717 79.7464 75.856 80.2624 72.3835 80.9543 71.9264 81.0452 71.4487 81.1244 70.9857 81.2006 68.0027 81.6932 65.1837 82.1593 65.4972 85.8477 65.547 86.4517 65.6086 86.9736 65.6613 87.4368 65.9837 90.2397 65.9338 90.9639 62.5757 92.5559 59.4754 94.0278 58.2388 95.696 60.0702 100.733 60.1347 100.915 60.0439 101.114 59.8622 101.179 59.8241 101.199 59.786 101.205 59.745 101.205zM128.581 114.545C128.532 114.545 128.482 114.534 128.435 114.513 128.262 114.431 128.186 114.223 128.268 114.05 128.277 114.032 129.08 112.294 129.692 109.18 130.293 106.116 129.663 104.298 127.364991 102.469 124.854 100.466 125.009 98.7364 125.349 97.2734 125.475 96.7339 125.642 96.1064 125.833 95.3793 126.129 94.2564 126.466 92.9869 126.753 91.6587 127.556 87.9791 125.009 87.3928 122.061 86.7155 121.698 86.6305 121.335 86.5484 120.977 86.4575 117.452 85.5662 116.67 83.3878 116.239 77.6998 115.84 72.4605 111.776 68.6666 105.364 67.5524 98.9381 66.4354 95.4158 68.3089 95.3806 68.3265 95.2136 68.4173 94.9997 68.3558 94.9088 68.1887 94.8151 68.0186 94.8766 67.8075 95.0466 67.7166 95.196 67.6345 98.7974 65.7024 105.484 66.8664 112.23 68.0391 116.508 72.0705 116.933 77.647 117.373 83.4405 118.202 85.0355 121.147 85.7802 121.499 85.8682 121.856 85.9503 122.217 86.0353 125.106 86.7008 128.382 87.4514 127.433 91.8053 127.14 93.1481 126.803 94.4294 126.504 95.5552 126.313 96.2765 126.149 96.901 126.023 97.4317 125.704 98.8009 125.598 100.173 127.793 101.923 130.299 103.92 131.022 105.993 130.369 109.315 129.739 112.522 128.927 114.276 128.892 114.346 128.836 114.472 128.71 114.545 128.581 114.545z"/>
    <path fill="#FFC927" d="M122.569,115.586 C122.516,115.586 122.46,115.574 122.41,115.548 C122.241,115.46 122.173,115.249 122.261,115.079 L122.454,114.709 C123.583,112.554 125.47,108.948 122.932,106.881 L122.519,106.547 C120.887,105.227 119.345,103.981 119.17,102.618 C118.894,100.492 119.278,99.6773 120.201,97.71 C120.468,97.1412 120.769,96.4961 121.124,95.6811 C121.558,94.6871 121.593,93.7519 121.232,92.9016 C120.752,91.7699 119.723,91.1307 119.19,90.9313 L118.991,90.858 C117.76,90.4036 115.471,89.5533 113.113,87.3192 C110.985,85.305 110.856,83.3699 110.575,79.1274 L110.522,78.3534 C110.211,73.7737 107.812,72.3136 104.034,71.437 C100.433,70.6014 96.2103,72.0175 96.1693,72.0321 C95.9876,72.0937 95.7912,71.997 95.7268,71.8152 C95.6652,71.6334 95.7619,71.434 95.9436,71.3725 C96.1224,71.3109 100.398,69.8772 104.19,70.7597 C106.431,71.2786 107.917,71.9618 109.004,72.9733 C110.332,74.2047 111.052,75.9492 111.214,78.3094 L111.266,79.0834 C111.542,83.2585 111.656,84.9854 113.587,86.8149 C115.844,88.9523 117.962,89.738 119.228,90.2072 L119.43,90.2834 C120.222,90.5795 121.335,91.3711 121.868,92.6348 C122.305,93.6668 122.267,94.7868 121.757,95.9655 C121.4,96.7893 121.095,97.4373 120.825,98.0119 C119.914,99.9558 119.606,100.613 119.855,102.536 C119.996,103.621 121.499,104.837 122.95,106.013 L123.366,106.35 C126.346,108.778 124.213,112.853 123.064,115.041 L122.873,115.407 C122.818,115.518 122.695,115.586 122.569,115.586 Z"/>
    <path fill="#FFC927" d="M115.881,117.814 C115.814,117.814 115.747,117.794 115.688,117.756 C115.527,117.65 115.486,117.433 115.591,117.272 C115.606,117.251 116.966,115.19 118.023,111.49 C118.823,108.699 117.704,107.825 115.248,105.914 C113.103,104.242 113.733,102.419 114.463,100.308 C114.551,100.05 114.642,99.7888 114.733,99.5191 C115.418,97.4286 115.465,95.4408 114.873,93.6083 C114.563,92.6467 113.388,91.9518 111.606,90.8963 C110.665,90.3392 109.599,89.7089 108.374,88.8791 C105.564,86.9734 105.338,83.3114 105.159,80.3677 C105.095,79.3005 105.033,78.2919 104.849,77.5648 C104.236,75.1577 98.8092,73.9351 96.1251,74.6182 C95.9404,74.6652 95.75,74.5537 95.7031,74.3661 C95.6562,74.1785 95.7676,73.9908 95.9551,73.9439 C98.7125,73.2402 104.755,74.369 105.526,77.3948 C105.728,78.1835 105.789,79.2243 105.857,80.3267 C106.027,83.1179 106.238,86.5922 108.767,88.3015 C109.977,89.1195 111.032,89.747 111.964,90.2982 C113.88,91.4328 115.146,92.1834 115.539,93.3943 C116.177,95.3704 116.13,97.5019 115.398,99.7361 C115.307,100.009 115.216,100.276 115.125,100.536 C114.431,102.548 113.927,104.002 115.679,105.365 C118.141,107.283 119.626,108.438 118.695,111.684 C117.602,115.498 116.227,117.574 116.169,117.662 C116.104,117.762 115.993,117.814 115.881,117.814 Z"/>
    <path fill="#FFC927" d="M109.842,118.169 C109.775,118.169 109.707,118.152 109.649,118.111 C109.487,118.005 109.446,117.788 109.552,117.627 C109.572,117.597 111.486,114.727 112.336,113.147 C114.261,109.561 112.473,108.06 110,105.981 C107.949,104.26 108.816,101.967 109.651,99.7538 C109.953,98.9533 110.267,98.1265 110.454,97.3115 C110.976,95.0539 109.487,94.2974 107.017,93.0426 C106.422,92.7406 105.807,92.4269 105.153,92.0604 C102.534,90.5798 101.107,86.9559 100.913,81.2826 C100.881,80.362 100.521,79.6349 99.8407,79.1247 C98.7682,78.3214 96.9162,78.0985 95.1199,78.5589 C94.9324,78.6058 94.7448,78.4944 94.695,78.3067 C94.6481,78.1191 94.7595,77.9314 94.947,77.8816 C96.9397,77.3714 99.0231,77.6412 100.26,78.5647 C101.107,79.198 101.573,80.1304 101.611,81.2562 C101.792,86.5923 103.137,90.1165 105.496,91.4505 C106.135,91.8112 106.745,92.122 107.334,92.421 C109.819,93.6847 111.779,94.6815 111.134,97.4698 C110.935,98.3288 110.616,99.1791 110.305,100 C109.484,102.17 108.778,104.043 110.449,105.448 C112.969,107.564 115.146,109.391 112.951,113.478 C112.087,115.088 110.214,117.897 110.135,118.017 C110.062,118.113 109.953,118.169 109.842,118.169 Z"/>
    <path fill="#FFC49C" d="M72.8993,85.8592 C72.8993,85.8592 72.0876,97.3875 76.4363,104.357 C80.4684,110.816 90.496,113.504 97.2622,109.042 C106.481,102.961 108.658,93.5115 108.658,93.5115 C108.658,93.5115 104.591,91.9634 102.865,88.6738 C100.635,84.4254 102.971,80.1507 98.9823,78.2919 C97.3794,77.5442 92.7319,78.9691 87.8558,76.6998 C84.8346,75.2954 82.0977,75.3013 80.7673,78.7551 C79.4369,82.2089 77.7549,84.4166 77.0223,84.9033 C76.2897,85.39 72.8993,85.8592 72.8993,85.8592 Z"/>
    <path fill="#BD2130" d="M85.8336 94.1536C85.7076 94.1536 85.5787 94.1418 85.4527 94.1154L77.4499 92.456C76.9489 92.3504 76.521 92.0543 76.2514 91.6174 75.9818 91.1806 75.9027 90.6675 76.0317 90.172L76.9576 86.6185C77.2097 85.651 78.1708 85.0587 79.1495 85.2757L86.8593 86.9733C87.838 87.1873 88.4651 88.1285 88.2863 89.1136L87.6534 92.6319C87.5625 93.1274 87.2842 93.5584 86.8651 93.8398 86.5574 94.0451 86.1999 94.1536 85.8336 94.1536zM78.751 86.1553C78.3378 86.1553 77.9657 86.4309 77.8573 86.8472L76.9313 90.4007C76.8668 90.6499 76.9049 90.905 77.0397 91.122 77.1745 91.3389 77.3884 91.4884 77.6375 91.5412L85.6402 93.2007C85.8893 93.2505 86.1384 93.2036 86.3465 93.0629 86.5545 92.9222 86.6952 92.7081 86.7391 92.4589L87.3721 88.9406C87.46 88.448 87.1494 87.9789 86.66 87.8704L78.9503 86.1729C78.8829 86.1641 78.8155 86.1553 78.751 86.1553zM102.082 97.1032C101.977 97.1032 101.872 97.0944 101.766 97.0768L94.4577 95.8278C93.4614 95.6577 92.7787 94.7049 92.9398 93.708 93.1127 92.6291 93.3501 91.122 93.523 90.0167 93.6021 89.5124 93.8746 89.0726 94.2936 88.7794 94.7127 88.4863 95.2196 88.3807 95.7237 88.4833L102.97 89.9493C103.94 90.1457 104.585 91.0663 104.436 92.0427L103.911 95.5258C103.838 96.0242 103.571 96.4581 103.164 96.7543 102.844 96.983 102.469 97.1032 102.082 97.1032zM94.4402 90.1574C94.2702 91.2628 94.0299 92.7727 93.857 93.8546 93.7779 94.353 94.1178 94.828 94.616 94.913L101.924 96.162C102.17 96.2031 102.419 96.1474 102.622 96.0008 102.824 95.8542 102.959 95.6372 102.994 95.388L103.518 91.9049C103.592 91.4152 103.269 90.9579 102.786 90.8582L95.539 89.3922C95.287 89.3424 95.035 89.3951 94.827 89.5388 94.616 89.6854 94.4783 89.9053 94.4402 90.1574z"/>
    <path fill="#BD2130" d="M93.183,93.1747 C93.1683,93.1571 91.7559,91.4536 90.3786,91.0695 C89.06,90.7031 87.7091,91.5387 87.6974,91.5475 L87.1992,90.7617 C87.2695,90.7177 88.9047,89.6915 90.6277,90.1724 C92.2922,90.6356 93.8364,92.5033 93.9009,92.5824 L93.183,93.1747 Z"/>
    <path fill="#FF6333" d="M86.9943 100.085C86.2734 100.085 85.5349 99.8357 85.0602 99.1466 84.2544 97.9768 85.11 96.9008 85.6756 96.1913 86.5225 95.127 89.1832 92.5176 89.2975 92.4062 89.5056 92.2038 89.8367 92.2068 90.0418 92.4149 90.244 92.6231 90.2411 92.9544 90.033 93.1597 90.0066 93.186 87.3049 95.8336 86.502 96.8422 85.8368 97.6748 85.6111 98.097 85.9247 98.5515 86.4111 99.2581 87.4602 98.9942 87.6653 98.9356 88.8843 98.5779 90.4696 97.7393 90.4843 97.7305 90.7422 97.5927 91.0586 97.6924 91.1934 97.9475 91.3282 98.2026 91.2315 98.5222 90.9766 98.657 90.9092 98.6922 89.2799 99.5542 87.9583 99.9441 87.6624 100.029 87.3283 100.085 86.9943 100.085zM88.011 105.4C87.3165 105.4 86.6103 105.31 85.8982 105.125 83.258 104.448 81.2624 102.624 80.2749 99.991 80.1723 99.7183 80.3101 99.4164 80.5826 99.3137 80.8522 99.2111 81.1569 99.3489 81.2595 99.6216 82.121 101.923 83.8616 103.515 86.159 104.105 88.5619 104.72 90.8476 104.143 93.142 102.339 93.3706 102.161 93.7017 102.199 93.8805 102.427 94.0592 102.656 94.0211 102.987 93.7926 103.166 91.8879 104.662 89.9831 105.4 88.011 105.4z"/>
    <path fill="#1E4847" d="M82.3379 90.5883C82.927 90.5883 83.4045 90.1105 83.4045 89.5211 83.4045 88.9317 82.927 88.4539 82.3379 88.4539 81.7488 88.4539 81.2712 88.9317 81.2712 89.5211 81.2712 90.1105 81.7488 90.5883 82.3379 90.5883zM98.7539 93.8515C99.343 93.8515 99.8205 93.3737 99.8205 92.7843 99.8205 92.1949 99.343 91.717 98.7539 91.717 98.1648 91.717 97.6873 92.1949 97.6873 92.7843 97.6873 93.3737 98.1648 93.8515 98.7539 93.8515z"/>
    <path fill="#FF6333" d="M44.9801,155.675 C44.9801,155.675 39.2307,170.076 44.1097,183.73 C48.9887,197.384 60.4552,196.616 65.0822,195.566 C69.7121,194.517 76.2966,193.318 83.6225,181.95 C90.9483,170.583 86.3008,157.023 79.3178,152.731 C72.3348,148.439 64.373,146.647 58.2164,147.981 C52.0568,149.315 46.7998,153.153 44.9801,155.675 Z"/>
    <path fill="#FFC927" d="M73.797,145.506 C73.797,145.506 70.7466,138.358 60.423,138.278783 C53.6129,138.226 46.5625,147.89 43.0402,152.121 C40.0542,155.707 33.625,160.53 33.625,160.53 C33.625,160.53 36.5788,161.746 40.6549,161.911 C44.9156,162.081 51.5792,159.087 51.5792,159.087 C51.5792,159.087 43.0285,165.737 41.1355,166.089 C41.1355,166.089 50.4598,166.393 54.3044,165.444 C58.149,164.494 61.9438,161.456 61.9438,161.456 C61.9438,161.456 61.0266,163.778 59.242,165.954 C57.8824,167.613 54.7645,170.02 54.7645,170.02 C54.7645,170.02 70.7612,168.455 77.1728,161.06 C77.1728,161.06 74.2512,166.191 77.9171,171.779 C81.6269,177.435 80.8885,186.735 80.8885,186.735 C80.8885,186.735 87.426,181.384 90.2802,173.802 C93.5563,165.098 92.1996,153.739 87.6019,148.814 C83.0042,143.888 73.797,145.506 73.797,145.506 Z"/>
    <path fill="#FF6333" d="M76.6042,174.093 C76.9383,173.539 79.0569,168.631 81.9668,169.006 C85.3601,169.443 86.0077,173.366 84.6129,176.204 C83.3587,178.755 79.2708,180.971 79.2708,180.971 L76.6042,174.093 Z"/>
    <path fill="#1E4847" d="M52.0889 171.586C51.7695 171.586 51.453 171.431 51.2596 171.146 51.2215 171.094 50.1988 169.666 48.0626 169.478 46.0231 169.299 45.2378 170.302 45.2055 170.343 44.892 170.797 44.2766 170.903 43.8224 170.592 43.3682 170.278 43.2598 169.648 43.5704 169.194 43.6261 169.112 44.974 167.194 48.2355 167.487 51.3475 167.763 52.8479 169.935 52.9094 170.026 53.2171 170.484 53.097 171.105 52.6398 171.413 52.4757 171.53 52.2823 171.586 52.0889 171.586zM66.0961 174.489C65.7122 174.489 65.3489 174.266 65.1818 173.894 65.1496 173.823 64.2939 172.023 62.0962 171.8 60.4083 171.627 59.3124 172.712 59.3006 172.724 58.9197 173.123 58.2867 173.134 57.8882 172.753 57.4897 172.372 57.478 171.739 57.8589 171.34 57.9292 171.267 59.6142 169.54 62.2984 169.812 65.6712 170.158 66.9518 172.964 67.0045 173.084 67.2272 173.589 67.0016 174.178 66.4976 174.401 66.3686 174.459 66.2309 174.489 66.0961 174.489z"/>
    <path fill="#1E4847" d="M47.7931 173.844C48.714 173.844 49.4605 173.097 49.4605 172.176 49.4605 171.254 48.714 170.507 47.7931 170.507 46.8722 170.507 46.1257 171.254 46.1257 172.176 46.1257 173.097 46.8722 173.844 47.7931 173.844zM61.8239 176.72C62.7447 176.72 63.4912 175.973 63.4912 175.052 63.4912 174.13 62.7447 173.384 61.8239 173.384 60.903 173.384 60.1565 174.13 60.1565 175.052 60.1565 175.973 60.903 176.72 61.8239 176.72z"/>
    <path fill="#C82332" d="M50.5623,181.021 C49.6188,181.021 48.6078,180.611 47.9895,179.687 C47.5499,179.033 47.421,178.25 47.6203,177.482 C47.8254,176.699 48.3675,176.019 49.0679,175.664 C50.2078,175.087 54.3659,172.879 54.4069,172.856 C54.7351,172.68 55.1425,172.806 55.3183,173.134 C55.4941,173.463 55.3681,173.87 55.0399,174.046 C54.8699,174.137 50.829,176.283 49.6744,176.867 C49.3199,177.045 49.0327,177.412 48.9243,177.822 C48.851,178.095 48.8276,178.511 49.1089,178.934 C49.6129,179.684 50.6327,179.842 51.2715,179.517 C52.4964,178.895 56.0743,177.168 56.2267,177.095 C56.5637,176.934 56.9651,177.075 57.1263,177.409 C57.2875,177.743 57.1468,178.148 56.8128,178.309 C56.7747,178.327 53.0942,180.103 51.8839,180.719 C51.4971,180.918 51.04,181.021 50.5623,181.021 Z"/>
    <path fill="#BD2130" d="M54.3866,188.676 C53.0269,188.676 51.3947,188.274 49.9647,187.081 C48.8952,186.19 48.8659,185.372 48.945,184.967 C49.0505,184.419 49.4549,183.967 49.9999,183.786 C50.5127,183.616 51.0607,183.724 51.4299,184.067 C52.2035,184.785 53.6394,185.507 55.1426,185.184 C56.6693,184.856 57.4576,185.46 57.6862,186.137 C57.9528,186.932 57.4986,187.841 56.6283,188.248 C56.1009,188.491 55.3067,188.676 54.3866,188.676 Z M50.4922,185.061 C50.4453,185.061 50.3457,185.093 50.2959,185.172 C50.2138,185.31 50.3721,185.65 50.8321,186.037 C52.7984,187.676 55.2393,187.395 56.051,187.017 C56.3265,186.888 56.4232,186.653 56.3968,186.571 C56.3763,186.509 56.095,186.372 55.4269,186.515 C53.7742,186.87 51.8431,186.301 50.5098,185.067 C50.5039,185.061 50.4981,185.061 50.4922,185.061 Z"/>
    <path fill="#FF862C" d="M146.671842,64.9653 C146.671842,64.9653 146.516,81.903 155.999,92.0622 C165.482,102.221 176.884,95.8267 180.303,91.7103 C183.723,87.5939 188.737,78.4463 188.78103,61.532 C188.793,57.1898 185.188,42.1637 170.293,41.5627 C155.398,40.9646 148.398,47.9836 146.671842,64.9653 Z"/>
    <path fill="#FF862C" d="M187.565 66.053C187.565 66.053 191.322 63.0625 194.035 64.5314 196.749 66.0003 197.411 70.0434 194.313 72.6557 191.216 75.2681 186.698 75.8398 186.698 75.8398M147.741 68.4691C147.741 68.4691 144.553 66.361 141.382 68.7886 139.437 70.2781 139.718 73.7113 141.154 75.4734 142.842 77.5463 145.438 79.1999 149.028 78.0652"/>
    <path fill="#C82332" d="M166.396,83.5947 C165.388,83.5947 164.374,83.4217 163.615,83.0845 C162.041,82.3867 161.622,80.8416 162.027,79.7421 C162.249,79.1352 162.882,76.9773 163.389,75.2416 C163.55,74.6875 163.703,74.1656 163.835,73.7229 C164.16,72.6205 165.03,71.8523 166.053,71.7614 C166.906,71.6852 167.685,72.125 168.078,72.9078 C168.544,73.8373 169.162,76.0948 169.81,78.5225 C169.988,79.188 170.141,79.7627 170.217,80.0031 C170.613,81.2492 170.164,82.7796 168.544,83.2956 C167.908,83.4979 167.155,83.5947 166.396,83.5947 Z M166.241,73.0339 C166.214,73.0339 166.188,73.0339 166.164,73.0368 C165.789,73.0691 165.274,73.3652 165.063,74.0865 C164.931,74.5292 164.778,75.0511 164.617,75.6023 C164.078,77.4465 163.465,79.5369 163.228,80.1849 C163.023,80.739 163.272,81.5306 164.134,81.9147 C165.177,82.378 166.979,82.4483 168.154,82.076 C169.367,81.6919 169.036,80.525 168.995,80.393 C168.91,80.1233 168.761,79.5633 168.57,78.8567 C168.125,77.1796 167.375,74.3738 166.929,73.4854 C166.745,73.1043 166.443,73.0339 166.241,73.0339 Z"/>
    <path fill="#BD2130" d="M167.425,90.1885 C160.77,90.1885 157.376,84.6853 157.23,84.4449 L158.326,83.7823 L157.778,84.1136 L158.326,83.7823 C158.358,83.835 161.687,89.1975 167.949,88.8956 C174.153,88.5965 176.011,83.3044 176.087,83.0815 L177.3,83.4862 C177.279,83.5507 175.105,89.8338 168.008,90.1739 C167.814,90.1827 167.618,90.1885 167.425,90.1885 Z"/>
    <path fill="#1E4847" d="M153.183 73.8781C153.104 73.8781 153.022 73.8605 152.945 73.8195 152.691 73.6876 152.591 73.3738 152.723 73.1217 152.793 72.9839 154.487 69.7764 157.344 69.7764 157.362 69.7764 157.379 69.7764 157.4 69.7764 160.216 69.8174 161.783 71.773 161.851 71.8551 162.027 72.0809 161.989 72.4063 161.763 72.5822 161.537 72.7581 161.212 72.72 161.036 72.4943 161.024 72.4796 159.694 70.8436 157.385 70.8113 157.373 70.8113 157.359 70.8113 157.347 70.8113 155.114 70.8113 153.66 73.5673 153.646 73.5967 153.552 73.7755 153.37 73.8781 153.183 73.8781zM171.085 72.4623C171.029 72.4623 170.973 72.4535 170.918 72.433 170.648 72.3421 170.502 72.046 170.595 71.7762 170.63 71.6766 171.471 69.3076 174.774 68.7945 178.375 68.2374 180.91 70.923 181.016 71.0374 181.209 71.2485 181.197 71.5769 180.986 71.7704 180.778 71.9639 180.45 71.9522 180.254 71.7411 180.233 71.7176 177.983 69.3427 174.932 69.8177 172.242 70.237 171.58 72.09 171.574 72.1105 171.501 72.3274 171.299 72.4623 171.085 72.4623z"/>
    <path fill="#C82332" d="M154.2,38.7097 C150.929,41.0582 145.828,45.5001 143.155,53.2667 C140.829,60.0278 142.915,65.2407 146.549,66.4516 C150.182,67.6625 155.263,58.4504 155.263,58.4504 C155.263,58.4504 151.565,66.9852 155.876,67.9527 C160.186,68.9203 165.584,58.9283 165.584,58.9283 C165.584,58.9283 162.328,65.4313 165.816,67.5775 C169.303,69.7207 176.409,56.9873 176.409,56.9873 C176.409,56.9873 174.36,67.9674 177.83,68.1961 C181.3,68.4248 185.015,61.0363 185.015,61.0363 C185.015,61.0363 183.102,67.1142 186.05,66.6217 C188.995,66.1291 193.112,63.2558 193.821,55.7266 C194.609,47.3794 188.244,38.3579 180.778,35.684 C174.255,33.3443 162.563,32.6993 154.2,38.7097 Z"/>
    <path fill="#1E4847" d="M157.491 75.2563C158.721 75.2563 159.718 74.2587 159.718 73.0281 159.718 71.7974 158.721 70.7998 157.491 70.7998 156.261 70.7998 155.264 71.7974 155.264 73.0281 155.264 74.2587 156.261 75.2563 157.491 75.2563zM176.022 74.2356C177.252 74.2356 178.249 73.238 178.249 72.0073 178.249 70.7767 177.252 69.7791 176.022 69.7791 174.792 69.7791 173.795 70.7767 173.795 72.0073 173.795 73.238 174.792 74.2356 176.022 74.2356z"/>
    <path fill="#C82332" d="M180.022 78.2057C178.176 79.0853 175.12 79.1879 173.391 78.1119 171.67 77.0388 172.136 75.6872 174.662 75.5259 177.191 75.3646 179.928 75.4819 180.262 75.995 180.596 76.511 181.2 77.6457 180.022 78.2057zM154.279 76.5696C156.178 75.8102 158.885 75.215 160.394 76.5696 161.904 77.9241 161.23 79.5777 158.695 79.5777 156.16 79.5777 154.194 79.2933 153.898 78.7597 153.599 78.2232 153.069 77.0533 154.279 76.5696z" opacity=".5"/>
    <path fill="#FFCB57" d="M200.2,114.396 C200.2,114.396 194.451,128.797 199.33,142.451 C204.209,156.105 215.675,155.337 220.302,154.287 C224.932,153.238 231.517,152.039 238.843,140.671 C246.169,129.304 241.521,115.744 234.538,111.452 C227.555,107.16 219.593,105.368 213.437,106.702 C207.277,108.036 202.02,111.874 200.2,114.396 Z"/>
    <path fill="#1E4847" d="M229.017,104.227 C229.017,104.227 225.967,97.0794 215.643,96.9999845 C208.833,96.9474 201.782,106.611 198.26,110.842 C195.274,114.428 188.845,119.251 188.845,119.251 C188.845,119.251 191.799,120.467 195.875,120.632 C200.136,120.802 206.799,117.808 206.799,117.808 C206.799,117.808 198.248,124.458 196.355,124.81 C196.355,124.81 205.68,125.114 209.524,124.165 C213.369,123.215 217.164,120.177 217.164,120.177 C217.164,120.177 216.247,122.499 214.462,124.675 C213.102,126.334 209.984,128.741 209.984,128.741 C209.984,128.741 225.981,127.176 232.393,119.781 C232.393,119.781 229.471,124.912 233.137,130.5 C236.847,136.156 236.108,145.456 236.108,145.456 C236.108,145.456 242.646,140.105 245.5,132.523 C248.776,123.819 247.42,112.46 242.822,107.535 C238.224,102.609 229.017,104.227 229.017,104.227 Z"/>
    <path fill="#FFCB57" d="M231.824,132.814 C232.158,132.26 234.277,127.352 237.187,127.727 C240.58,128.164 241.228,132.087 239.833,134.925 C238.579,137.476 234.491,139.692 234.491,139.692 L231.824,132.814 Z"/>
    <path fill="#1E4847" d="M207.309 130.307C206.99 130.307 206.673 130.152 206.48 129.867 206.442 129.814 205.419 128.387 203.283 128.199 201.243 128.02 200.458 129.023 200.426 129.064 200.112 129.518 199.497 129.624 199.043 129.313 198.588 128.999 198.48 128.369 198.791 127.915 198.846 127.832 200.194 125.915 203.456 126.208 206.568 126.484 208.068 128.656 208.13 128.747 208.437 129.205 208.317 129.826 207.86 130.134 207.696 130.251 207.503 130.307 207.309 130.307zM221.316 133.21C220.932 133.21 220.569 132.987 220.402 132.615 220.37 132.544 219.514 130.744 217.316 130.521 215.628 130.348 214.532 131.433 214.521 131.445 214.14 131.843 213.507 131.855 213.108 131.474 212.71 131.093 212.698 130.46 213.079 130.061 213.149 129.988 214.834 128.261 217.518 128.533 220.891 128.879 222.172 131.685 222.224 131.805 222.447 132.31 222.222 132.899 221.718 133.122 221.589 133.18 221.451 133.21 221.316 133.21z"/>
    <path fill="#1E4847" d="M203.013 132.565C203.934 132.565 204.681 131.818 204.681 130.896 204.681 129.975 203.934 129.228 203.013 129.228 202.092 129.228 201.346 129.975 201.346 130.896 201.346 131.818 202.092 132.565 203.013 132.565zM217.044 135.441C217.964 135.441 218.711 134.694 218.711 133.773 218.711 132.851 217.964 132.104 217.044 132.104 216.123 132.104 215.376 132.851 215.376 133.773 215.376 134.694 216.123 135.441 217.044 135.441z"/>
    <path fill="#FF6333" d="M205.782,139.742 C204.839,139.742 203.828,139.332 203.209,138.408 C202.77,137.754 202.641,136.971 202.84,136.203 C203.045,135.42 203.587,134.74 204.288,134.385 C205.428,133.808 209.586,131.6 209.627,131.577 C209.955,131.401 210.362,131.527 210.538,131.855 C210.714,132.183 210.588,132.591 210.26,132.767 C210.09,132.858 206.049,135.004 204.894,135.587 C204.54,135.766 204.253,136.133 204.144,136.543 C204.071,136.816 204.048,137.232 204.329,137.654 C204.833,138.405 205.853,138.563 206.491,138.238 C207.716,137.616 211.294,135.889 211.447,135.816 C211.784,135.655 212.185,135.796 212.346,136.13 C212.507,136.464 212.367,136.869 212.033,137.03 C211.995,137.048 208.314,138.824 207.104,139.44 C206.717,139.639 206.26,139.742 205.782,139.742 Z"/>
    <path fill="#BD2130" d="M209.606,147.397 C208.247,147.397 206.614,146.996 205.184,145.802 C204.115,144.911 204.086,144.093 204.165,143.688 C204.27,143.14 204.675,142.689 205.22,142.507 C205.732,142.337 206.28,142.445 206.65,142.788 C207.423,143.507 208.859,144.228 210.362,143.905 C211.889,143.577 212.677,144.181 212.906,144.858 C213.173,145.653 212.718,146.562 211.848,146.969 C211.321,147.213 210.526,147.397 209.606,147.397 Z M205.712,143.782 C205.665,143.782 205.565,143.815 205.516,143.894 C205.434,144.031 205.592,144.372 206.052,144.759 C208.018,146.398 210.459,146.116 211.271,145.738 C211.546,145.609 211.643,145.374 211.617,145.292 C211.596,145.231 211.315,145.093 210.647,145.237 C208.994,145.591 207.063,145.022 205.73,143.788 C205.724,143.782 205.718,143.782 205.712,143.782 Z"/>
    <path fill="#FF6333" d="M180.9 144.102C180.733 144.102 180.575 144.008 180.501 143.847 180.399 143.627 180.496 143.366 180.715 143.263L190.444 138.745C190.664 138.643 190.925 138.739 191.027 138.959 191.13 139.179 191.033 139.44 190.813 139.543L181.085 144.061C181.026 144.087 180.962 144.102 180.9 144.102zM172.44 132.049C172.235 132.049 172.053 131.905 172.009 131.697 171.959 131.46 172.115 131.228 172.352 131.178L181.6 129.305C181.838 129.258 182.069 129.41 182.119 129.648 182.169 129.885 182.014 130.117 181.776 130.167L172.528 132.04C172.499 132.046 172.469 132.049 172.44 132.049zM186.174 118.395C186.168 118.395 186.163 118.395 186.157 118.395L172.961 117.835C172.718 117.823 172.531 117.618 172.539 117.378 172.551 117.134 172.759 116.944 172.996 116.955L186.192 117.515C186.435 117.527 186.623 117.732 186.614 117.973 186.602 118.21 186.409 118.395 186.174 118.395zM154.086 144.639C154.086 144.639 159.226 154.839 155.713 165.54 152.199 176.242 145.706 177.673 139.906 178.326 134.107 178.98 120.959 174.318 120.264 156.252 119.57 138.185 129.439 135.177 132.765 134.758 136.091 134.336 149.931 134.257 154.086 144.639z"/>
    <path fill="#1E4847" d="M139.912 126.537C145.374 125.42 147.549 126.068 147.306 128.276 147.062 130.483 141.161 132.304 141.161 132.304 141.161 132.304 145.583 130.527 151.144 131.38 154.127 131.838 159.062 134.242 160 135.711 161.204 137.602 159.959 139.159 158.283 138.49 152.337 136.113 151.584 136.303 151.584 136.303 151.584 136.303 159.935 140.264 163.865 147.063 166.206 151.118 161.538 149.872 158.646 147.761 155.754 145.65 150.673 142.419 150.673 142.419 150.673 142.419 151.194 142.619 152.404 146.383 153.366 149.371 150.822 149.198 149.755 148.18 148.689 147.163 143.326 141.821 143.326 141.821 143.326 141.821 144.876 145.436 144.217 147.512 143.845 148.679 142.359 148.166 140.879 147.254 139.725 146.541 138.576 145.586 137.964 144.99 136.569 143.633 133.41 141.082 133.41 141.082 133.41 141.082 135.168 146.023 133.618 147.447 132.068 148.872 129.996 148.673 127.769 146.591 126.207 145.131 123.936 143.419 123.936 143.419 123.936 143.419 122.954 151.414 122.518 153.332 121.817 156.399 121.891 164.253 120.417 162.389 117.694 158.946 115.286 149.497 116.959 144.979 116.959 144.979 115.649 147.629 113.777 149.825 112.127 151.76 111.286 149.72 112.769 144.334 113.402 142.029 116.068 137.429 118.157 135.904 122.307 132.879 126.893 134.696 126.893 134.696 126.893 134.696 130.216 128.522 139.912 126.537zM141.879 164.802L142.685 162.512C142.685 162.512 148.076 165.716 151.144 166.053 151.144 166.056 148.87 167.704 141.879 164.802zM139.865 162.251L140.106 164.931C140.106 164.931 136.666 167.153 134.23 167.593 132.132 167.971 129.05 167.496 129.05 167.496 129.05 167.496 133.978 165.728 135.74 164.658 137.524 163.573 139.865 162.251 139.865 162.251z"/>
    <path fill="#BD2130" d="M141.079 161.313C140.241 161.313 139.318 160.852 138.819 159.861 138.166 158.571 137.123 155.979 137.079 155.868L137.893 155.54C137.905 155.566 138.966 158.205 139.602 159.462 140.08 160.407 141.008 160.553 141.515 160.354 142.058 160.14 142.491 159.515 142.242 158.598 141.932 157.463 140.8 154.601 140.789 154.572L141.606 154.247C141.653 154.367 142.77 157.181 143.092 158.363 143.482 159.8 142.717 160.823 141.841 161.169 141.603 161.266 141.345 161.313 141.079 161.313zM140.015 171.639C137.785 171.639 136.941 170.53 136.663 169.991 136.393 169.466 136.487 168.839 136.903 168.39 137.287 167.977 138.014 167.669 138.896 168.044 139.889 168.469 141.767 167.962 142.62 167.428 143.361 166.965 144.258 166.986 144.806 167.481 145.272 167.9 145.354 168.548 145.029 169.211 144.443 170.404 143.077 171.252 141.278 171.533 140.818 171.606 140.396 171.639 140.015 171.639zM138.113 168.757C137.861 168.757 137.668 168.859 137.548 168.988 137.419 169.126 137.325 169.355 137.445 169.586 137.741 170.158 138.614 171.058 141.146 170.662 141.861 170.551 143.593 170.146 144.243 168.821 144.346 168.61 144.428 168.32 144.22 168.132 144.009 167.941 143.54 167.892 143.089 168.173 142.072 168.809 139.874 169.416 138.553 168.853 138.392 168.786 138.245 168.757 138.113 168.757z"/>
    <path fill="#1E4847" d="M146.485 154.431C147.275 154.431 147.915 153.791 147.915 153 147.915 152.21 147.275 151.57 146.485 151.57 145.695 151.57 145.055 152.21 145.055 153 145.055 153.791 145.695 154.431 146.485 154.431zM132.833 155.709C133.623 155.709 134.263 155.069 134.263 154.279 134.263 153.488 133.623 152.848 132.833 152.848 132.043 152.848 131.403 153.488 131.403 154.279 131.403 155.069 132.043 155.709 132.833 155.709z"/>
    <path fill="#FF6333" d="M154.426 150.596C154.426 150.596 155.93 149.315 157.442 149.831 158.954 150.347 160.902 153.109 159.534 155.293 158.162 157.477 154.857 158.712 154.857 158.712M118.788 156.187C118.788 156.187 116.824 155.44 115.482 157.489 114.14 159.539 116.203 162.092 118.105 162.822 119.503 163.359 122.193 162.787 122.193 162.787L118.788 156.187zM168.637 187.141C168.287 187.141 168 186.854 168 186.503L168 160.638C168 160.287 168.287 160 168.637 160 168.988 160 169.275 160.287 169.275 160.638L169.275 186.503C169.275 186.857 168.988 187.141 168.637 187.141z"/>
    <path fill="#FF6333" d="M173.715,174.21 L169.278,174.21 C168.927,174.21 168.641,173.923 168.641,173.572 C168.641,173.221 168.927,172.934 169.278,172.934 L173.715,172.934 C174.065,172.934 174.352,173.221 174.352,173.572 C174.352,173.923 174.065,174.21 173.715,174.21 Z"/>
    <path fill="#FF6333" d="M173.715 188.05C173.708 188.05 173.705 188.05 173.699 188.05 173.348 188.04 173.068 187.75 173.077 187.396L173.746 160.625C173.756 160.274 174.052 159.984 174.4 160.003 174.75 160.013 175.031 160.303 175.021 160.657L174.352 187.428C174.342 187.772 174.059 188.05 173.715 188.05zM187.461 188.499C187.451 188.499 187.442 188.499 187.432 188.499L180.679 188.209C180.506 188.203 180.344 188.123 180.229 187.996 180.114 187.865 180.057 187.696 180.073 187.52L182.18 161.416C182.205 161.084 182.482 160.829 182.814 160.829L189.048 160.829C189.399 160.829 189.686 161.116 189.686 161.467 189.686 161.818 189.399 162.105 189.048 162.105L183.4 162.105 181.396 186.962 187.486 187.224C187.837 187.24 188.111 187.536 188.095 187.887 188.082 188.231 187.799 188.499 187.461 188.499z"/>
    <path fill="#FF6333" d="M186.47 175.804C186.441 175.804 186.413 175.801 186.384 175.798L182.728 175.297C182.381 175.25 182.135 174.927 182.183 174.58 182.231 174.232 182.553 173.987 182.9 174.035L186.556 174.535C186.903 174.583 187.149 174.905 187.101 175.253 187.056 175.572 186.786 175.804 186.47 175.804zM195.805 173.897C195.515 173.897 195.254 173.7 195.184 173.403L192.612 162.255C192.532 161.91 192.746 161.569 193.09 161.489 193.431 161.413 193.775 161.623 193.855 161.968L196.427 173.116C196.506 173.461 196.293 173.802 195.949 173.881 195.901 173.891 195.85 173.897 195.805 173.897z"/>
    <path fill="#FF6333" d="M194.432 189C194.409 189 194.387 189 194.365 188.997 194.014 188.962 193.759 188.646 193.797 188.295L195.337 173.505C195.34 173.464 195.349 173.425 195.359 173.387L198.814 161.926C198.916 161.588 199.273 161.4 199.608 161.499 199.945 161.601 200.137 161.955 200.035 162.293L196.599 173.696 195.063 188.429C195.031 188.758 194.753 189 194.432 189zM241.086 213C239.379 213 237.59 212.61 235.715 211.671 231.557 209.585 229.92 206.739 229.384 205.53 228.374 205.917 226.052 206.749 223.194 207.372 218.078 208.489 213.918 208.39 210.824 207.079 209.014 206.312 208.008 205.19 207.832 203.745 207.618 201.971 208.695 199.815 211.033 197.335 211.954 196.356 212.885 195.529 213.552 194.972 212.087 194.606 209.59 193.779 207.686 192.091 206.457 191.005 205.853 189.362 206.031 187.583 206.308 184.796 208.329 182.114 211.577 180.228 214.025 178.807 217.388 178.422 221.303 179.118 223.228 179.459 224.833 179.974 225.728 180.298 225.856 178.294 226.674 173.349 231.549 172.462 236.421 171.58 241.8 173.791 243.589 174.618 243.83 173.919 244.29 172.752 245.012 171.591 246.549 169.121 248.537 167.883 250.752 168.014 254.85 168.26 258.32 171.491 259.594 172.831 260.441 171.588 262.51 168.943 265.177 168.286 267.716 167.666 272.502 167.53 276.032 173.55 279.238 179.019 277.057 185.126 276.963 185.385 276.895 185.568 276.741 185.704 276.55 185.743 273.161 186.476 269.981 184.032 268.723 182.891 268.158 183.836 266.934 185.437 264.91 185.942 262.917 186.439 260.718 185.081 259.722 184.357 259.003 185.498 257.159 187.847 254.188 187.847 251.662 187.847 250.156 186.157 249.395 184.935 249.015 186.086 248.492 187.947 248.249 190.022 248.213 190.333 247.93 190.555 247.619 190.519 247.308 190.482 247.085 190.199 247.122 189.888 247.541 186.296 248.733 183.407 248.783 183.287 248.872 183.069 249.078 182.923 249.321 182.939 249.554 182.944 249.761 183.093 249.842 183.313 249.844 183.321 250.169 184.2 250.885 185.055 251.803 186.154 252.915 186.712 254.188 186.712 257.326 186.712 259.029 183.292 259.047 183.258 259.123 183.098 259.272 182.986 259.442 182.952 259.615 182.915 259.795 182.962 259.928 183.077 259.955 183.101 262.593 185.354 264.636 184.843 266.963 184.263 268.041 181.764 268.051 181.74 268.127 181.562 268.284 181.437 268.475 181.403 268.663 181.369 268.856 181.431 268.987 181.573 269.021 181.609 272.455 185.212 275.996 184.694 276.372 183.436 277.601 178.472 275.054 174.129 271.895 168.741 267.68 168.848 265.446 169.393 262.462 170.125 260.185 174.011 260.161 174.05 260.07 174.21 259.902 174.314 259.719 174.33 259.531 174.343 259.353 174.27 259.235 174.129 259.196 174.082 255.258 169.424 250.684 169.149 246.319 168.901 244.499 175.497 244.481 175.563 244.436 175.73 244.319 175.866 244.162 175.937 244.005 176.007 243.824 175.999 243.67 175.921 243.605 175.887 237.182 172.595 231.75 173.579 226.601 174.516 226.837 181.023 226.839 181.091 226.847 181.285 226.755 181.471 226.596 181.583 226.436 181.696 226.23 181.717 226.052 181.641 225.968 181.604 217.527 178.09 212.145 181.214 207.984 183.629 207.27 186.555 207.158 187.701 207.016 189.132 207.469 190.393 208.436 191.246 210.986 193.507 214.888 194.101 214.927 194.106 215.155 194.14 215.338 194.305 215.395 194.527 215.453 194.75 215.369 194.985 215.186 195.121 213.335 196.503 208.612 200.726 208.96 203.614 209.082 204.64 209.838 205.433 211.266 206.04 218.16 208.963 229.373 204.321 229.486 204.274 229.635 204.211 229.802 204.216 229.949 204.284 230.095 204.352 230.205 204.481 230.249 204.635 230.26 204.669 231.387 208.235 236.222 210.661 241.74 213.429 246.395 211.019 250.603 208.005 253.304 206.071 254.528 204.355 254.539 204.337 254.719 204.08 255.072 204.017 255.328 204.198 255.585 204.378 255.647 204.732 255.467 204.988 255.415 205.064 254.133 206.869 251.262 208.926 248.307 211.043 244.907 213 241.086 213z"/>
    <path fill="#FF6333" d="M264.178,208.413 C261.089,208.413 257.844,207.306 254.685,205.127 C251.848,203.17 249.455,199.959 248.804,199.043 C247.054,198.999 244.761,198.58 243.191,196.958 C241.418,195.129 241.154,192.63 241.677,190.966 C242.109,189.595 243.048,188.671 244.256,188.436 C245.438,188.208 246.701,188.567 248.014,189.49 C248.27,189.671 248.33,190.024 248.152,190.281 C247.972,190.537 247.619,190.6 247.363,190.419 C246.311,189.679 245.338,189.386 244.473,189.553 C243.688,189.705 243.063,190.346 242.763,191.309 C242.342,192.654 242.564,194.679 244.01,196.173 C245.393,197.604 247.546,197.91 249.107,197.916 C249.293,197.916 249.468,198.01 249.575,198.164 C249.601,198.203 252.245,202.065 255.334,204.195 C260.067,207.463 264.769,208.167 268.93,206.239 C275.156,203.35 276.202,193.755 276.213,193.658 C276.231,193.488 276.323,193.337 276.464,193.242 C276.479,193.232 278.035,192.191 279.223,190.574 C279.892,189.66 280.211,188.153 279.997,186.905 C279.897,186.324 279.639,185.539 278.982,185.095 C277.761,184.268 277.055,185.131 276.927,185.314 C276.746,185.568 276.393,185.631 276.139,185.456 C275.883,185.278 275.818,184.93 275.993,184.671 C276.38,184.105 277.782,182.907 279.62,184.155 C280.402,184.686 280.92,185.571 281.116,186.714 C281.383,188.266 280.991,190.087 280.141,191.246 C279.095,192.675 277.818,193.669 277.314,194.035 C277.217,194.76 276.882,196.882 275.98,199.287 C274.515,203.193 272.246,205.954 269.411,207.267 C267.748,208.031 265.988,208.413 264.178,208.413 Z"/>
    <path fill="#FF6333" d="M265.886 198.842C264.787 198.842 264.032 197.785 263.579 197.152 262.857 196.142 261.186 192.821 261.116 192.68 260.974 192.4 261.087 192.06 261.367 191.918 261.647 191.78 261.989 191.892 262.128 192.17 262.143 192.204 263.828 195.55 264.5 196.49 265.35 197.68 265.755 197.905 266.385 197.541 267.008 197.18 266.921 196.453 266.597 195.474L266.584 195.43C266.445 195.006 265.347 192.866 264.688 191.615 264.541 191.338 264.649 190.995 264.926 190.848 265.203 190.702 265.546 190.809 265.692 191.086 265.873 191.427 267.449 194.425 267.664 195.079L267.677 195.121C267.902 195.807 268.503 197.63 266.955 198.528 266.568 198.75 266.213 198.842 265.886 198.842zM257.083 192.109C257.749 192.109 258.289 191.569 258.289 190.903 258.289 190.237 257.749 189.697 257.083 189.697 256.417 189.697 255.877 190.237 255.877 190.903 255.877 191.569 256.417 192.109 257.083 192.109zM270.269 190.644C270.934 190.644 271.474 190.104 271.474 189.438 271.474 188.772 270.934 188.232 270.269 188.232 269.603 188.232 269.063 188.772 269.063 189.438 269.063 190.104 269.603 190.644 270.269 190.644zM264.727 203.709C263.592 203.709 262.449 203.51 261.571 203.057 259.981 202.241 259.319 201.479 259.607 200.799 259.894 200.116 260.993 200.072 261.932 200.383L261.95 200.388C262.802 200.671 265.397 201.532 267.86 200.127 269.063 199.441 269.565 200.025 269.688 200.218 270.117 200.888 269.641 202.021 268.629 202.746 267.797 203.342 266.27 203.709 264.727 203.709zM260.404 201.129C260.441 201.231 260.668 201.639 261.96 202.304 263.707 203.201 266.919 202.926 268.135 202.058 268.901 201.511 269.071 200.836 268.972 200.681 268.951 200.647 268.734 200.613 268.281 200.87 265.488 202.463 262.622 201.513 261.681 201.199L261.798 200.789 261.665 201.192C261.001 200.974 260.527 201.05 260.404 201.129zM231.107 182.175C231.102 182.175 231.097 182.175 231.089 182.175 230.853 182.164 230.67 181.968 230.681 181.732 230.683 181.688 230.919 177.182 235.26 176.926 237.051 176.821 238.385 177.206 239.222 178.069 239.868 178.736 239.957 179.438 239.965 179.513 239.988 179.746 239.818 179.956 239.585 179.979 239.347 180.003 239.143 179.833 239.12 179.6 239.109 179.521 238.83 177.569 235.312 177.773 233.811 177.862 232.723 178.553 232.072 179.83 231.575 180.806 231.531 181.756 231.531 181.766 231.523 181.997 231.335 182.175 231.107 182.175zM227.143 198.633C225.793 198.633 224.24 198.211 223.204 196.61 222.624 195.707 222.454 194.784 222.702 193.863 223.249 191.83 225.66 190.579 225.762 190.526 225.971 190.419 226.227 190.503 226.335 190.712 226.442 190.922 226.358 191.178 226.149 191.285 226.128 191.296 223.97 192.421 223.523 194.088 223.34 194.776 223.468 195.448 223.921 196.149 225.702 198.915 229.504 197.35 229.543 197.335 229.76 197.243 230.009 197.345 230.1 197.562 230.192 197.78 230.09 198.028 229.873 198.12 229.849 198.128 228.62 198.633 227.143 198.633zM262.679 180.155C261.456 180.155 260.702 179.644 260.655 179.613 260.462 179.48 260.415 179.213 260.548 179.022 260.682 178.828 260.948 178.781 261.139 178.914 261.191 178.948 262.468 179.783 264.421 178.904 266.767 177.847 266.498 175.016 266.492 174.987 266.469 174.754 266.636 174.542 266.872 174.519 267.107 174.495 267.316 174.662 267.34 174.898 267.342 174.932 267.672 178.373 264.772 179.681 263.982 180.034 263.276 180.155 262.679 180.155zM235.759 199.598C235.634 199.598 235.511 199.543 235.427 199.438 235.281 199.255 235.31 198.986 235.493 198.839 235.519 198.816 236.241 198.196 236.06 196.856 235.846 195.257 234.125 194.909 234.054 194.894 233.824 194.849 233.673 194.627 233.717 194.396 233.761 194.166 233.984 194.014 234.211 194.056 234.308 194.075 236.607 194.525 236.905 196.741 237.153 198.578 236.071 199.465 236.026 199.504 235.948 199.567 235.854 199.598 235.759 199.598zM247.078 195.762C247.062 195.762 247.046 195.762 247.033 195.76 244.593 195.501 244.102 194.621 244.102 193.292 244.102 192.128 245.103 191.733 245.631 191.688 245.869 191.67 246.071 191.843 246.092 192.076 246.113 192.308 245.94 192.515 245.707 192.536 245.579 192.549 244.954 192.646 244.954 193.292 244.954 194.038 244.954 194.682 247.125 194.915 247.357 194.938 247.527 195.15 247.504 195.383 247.475 195.6 247.292 195.762 247.078 195.762zM277.201 190.93C277.084 190.93 276.966 190.88 276.882 190.786 276.728 190.608 276.746 190.341 276.921 190.184 277.243 189.901 278.07 189.001 278.038 188.25 278.007 187.536 277.376 187.408 277.267 187.392 277.091 187.421 276.911 187.334 276.825 187.167 276.717 186.958 276.799 186.701 277.005 186.594 277.28 186.453 277.771 186.625 278.036 186.777 278.559 187.081 278.862 187.588 278.888 188.214 278.943 189.504 277.633 190.694 277.484 190.825 277.4 190.896 277.301 190.93 277.201 190.93z"/>
  </g>
</svg>
