<svg viewBox="0 0 56 56" xmlns="http://www.w3.org/2000/svg">
  <path d="M22.3431 9.65686C24.3232 7.67677 25.3133 6.68673 26.4549 6.31579C27.4591 5.9895 28.5409 5.9895 29.5451 6.31579C30.6867 6.68673 31.6768 7.67677 33.6569 9.65685L46.3431 22.3431C48.3232 24.3232 49.3133 25.3133 49.6842 26.4549C50.0105 27.4591 50.0105 28.5409 49.6842 29.5451C49.3133 30.6867 48.3232 31.6768 46.3431 33.6569L33.6569 46.3431C31.6768 48.3232 30.6867 49.3133 29.5451 49.6842C28.5409 50.0105 27.4591 50.0105 26.4549 49.6842C25.3133 49.3133 24.3232 48.3232 22.3431 46.3431L9.65686 33.6569C7.67677 31.6768 6.68673 30.6867 6.31579 29.5451C5.9895 28.5409 5.9895 27.4591 6.31579 26.4549C6.68673 25.3133 7.67677 24.3232 9.65685 22.3431L22.3431 9.65686Z"/>
</svg>
