<svg xmlns="http://www.w3.org/2000/svg" width="16" height="17" viewBox="0 0 16 17">
  <path fill="#B6B6B6" d="M15.9177,15.3867 L14.7623,11.9 L13.4944,11.9 L14.1985,15.3 L1.80198,15.3 L2.50608,11.9 L1.23819,11.9 L0.0818871,15.3867 C-0.211416,16.2741 0.308415,17 1.23819,17 L14.7623,17 C15.692,17 16.2119,16.2741 15.9177,15.3867 Z M12.2265,4.25 C12.2265,1.90315 10.3348,0 8.00023,0 C5.66563,0 3.77396,1.90315 3.77396,4.25 C3.77396,8.30875 8.00023,12.75 8.00023,12.75 C8.00023,12.75 12.2265,8.30875 12.2265,4.25 Z M5.71804,4.301 C5.71804,3.03365 6.73911,2.00685 8.00023,2.00685 C9.26134,2.00685 10.2824,3.03365 10.2824,4.301 C10.2824,5.5692 9.2605,6.596 8.00023,6.596 C6.73995,6.596 5.71804,5.56835 5.71804,4.301 Z"/>
</svg>
