<svg xmlns="http://www.w3.org/2000/svg" width="162" height="22" viewBox="0 0 162 22">
  <path fill="#00ADA8" d="M9.00017 17.9284L3.86597 17.9284 3.86597 1.55015C3.86597 1.14575 3.53819.820983708 3.13689.820983708L.729081.820983708C.32778.817942 0 1.14575 0 1.55015L0 20.8603C0 21.2647.32778 21.5894.729081 21.5894L9.00017 21.5894C9.40453 21.5894 9.72927125 21.2616 9.72927125 20.8603L9.72927125 18.6575C9.73231 18.2562 9.40453 17.9284 9.00017 17.9284zM20.1696 7.78461C16.1688 7.78461 13.0381 10.9065 13.0381 14.8923 13.0381 18.878 16.1719 21.9999 20.1696 21.9999 24.1673 21.9999 27.3011 18.878 27.3011 14.8923 27.3011 10.9065 24.1704 7.78461 20.1696 7.78461zM23.5362 14.8923C23.5362 16.7917 22.026 18.3358 20.1696 18.3358 18.3132 18.3358 16.803 16.7917 16.803 14.8923 16.803 12.9928 18.3132 11.4487 20.1696 11.4487 22.026 11.4487 23.5362 12.9928 23.5362 14.8923zM42.3604 8.67919C41.3862 8.11242 40.0966 7.78461 38.8161 7.78461 34.6621 7.78461 31.5283 10.8728 31.5283 14.9688 31.5283 18.9117 34.6713 21.9999 38.6874 21.9999 40.0567 21.9999 41.2177 21.7211 42.3359 21.1176 42.5718 20.9889 42.7219 20.7438 42.7219 20.4742L42.7219 17.53C42.7219 17.2267 42.535 16.9571 42.2532 16.8469 41.9713 16.7396 41.6497 16.8162 41.4475 17.0429 40.6388 17.9467 39.7443 18.3879 38.7119 18.3879 36.6993 18.3879 35.2932 16.9388 35.2932 14.8647 35.2932 12.9836 36.7881 11.3936 38.5587 11.3936 39.6922 11.3936 40.6357 11.8409 41.4414 12.76 41.6436 12.9897 41.9652 13.0694 42.247 12.9622 42.5319 12.8549 42.7188 12.5823 42.7188 12.279L42.7188 9.30724C42.7219 9.04989 42.584 8.81093 42.3604 8.67919zM54.3107 7.78461C50.31 7.78461 47.1792 10.9065 47.1792 14.8923 47.1792 18.878 50.313 21.9999 54.3107 21.9999 58.3084 21.9999 61.4422 18.878 61.4422 14.8923 61.4422 10.9065 58.3115 7.78461 54.3107 7.78461zM57.6774 14.8923C57.6774 16.7917 56.1671 18.3358 54.3107 18.3358 52.4543 18.3358 50.9441 16.7917 50.9441 14.8923 50.9441 12.9928 52.4543 11.4487 54.3107 11.4487 56.1671 11.4487 57.6774 12.9928 57.6774 14.8923zM83.6878.588133C83.6265.275641 83.3692.0366773 83.0506.00297721 82.732-.0307228 82.4288.143905 82.3032.438014L76.3388 14.1172 70.3744.438014C70.2457.143905 69.9455-.0307228 69.6269.00297721 69.3083.0366773 69.051.275641 68.9898.588133L65.0441 20.7193C65.0012 20.9338 65.0594 21.1543 65.1973 21.3228 65.3352 21.4914 65.5435 21.5894 65.761 21.5894L68.2454 21.5894C68.6007 21.5894 68.904 21.3351 68.9652 20.9858L70.8155 10.5174 75.671 21.5618C75.7874 21.8284 76.0508 21.9969 76.3388 21.9969 76.6267 21.9969 76.8902 21.8253 77.0066 21.5618L81.862 10.5174 83.7123 20.9858C83.7736 21.3351 84.0768 21.5894 84.4322 21.5894L86.9166 21.5894C87.1341 21.5894 87.3424 21.4914 87.4802 21.3228 87.6181 21.1543 87.6763 20.9338 87.6334 20.7193L83.6878.588133zM98.34 7.78461C94.3393 7.78461 91.2085 10.9065 91.2085 14.8923 91.2085 18.878 94.3423 21.9999 98.34 21.9999 102.338 21.9999 105.472 18.878 105.472 14.8923 105.472 10.9065 102.338 7.78461 98.34 7.78461zM101.707 14.8923C101.707 16.7917 100.196 18.3358 98.34 18.3358 96.4836 18.3358 94.9734 16.7917 94.9734 14.8923 94.9734 12.9928 96.4836 11.4487 98.34 11.4487 100.196 11.4487 101.707 12.9928 101.707 14.8923zM115.936 8.14608L114.414 8.14608 114.414 4.28896C114.414 3.88456 114.086 3.55981 113.685 3.55981L111.381 3.55981C110.977 3.55981 110.652 3.88762 110.652 4.28896L110.652 8.14302 110.128 8.14302C109.724 8.14302 109.399 8.47083 109.399 8.87217L109.399 11.0228C109.399 11.4272 109.727 11.752 110.128 11.752L110.652 11.752 110.652 20.8571C110.652 21.2615 110.98 21.5863 111.381 21.5863L113.685 21.5863C114.089 21.5863 114.414 21.2585 114.414 20.8571L114.414 11.755 115.936 11.755C116.341 11.755 116.665 11.4272 116.665 11.0259L116.665 8.87523C116.665 8.47083 116.341 8.14608 115.936 8.14608zM123.978 1.05066C122.7 1.05066 121.659 2.10149 121.659 3.39434 121.659 4.65656 122.697 5.68595 123.978 5.68595 125.258 5.68595 126.297 4.65656 126.297 3.39434 126.297 2.10149 125.255 1.05066 123.978 1.05066zM125.129 8.14307L122.825 8.14307C122.421 8.14307 122.096 8.47088 122.096 8.87221L122.096 20.8572C122.096 21.2616 122.424 21.5863 122.825 21.5863L125.129 21.5863C125.533 21.5863 125.85802 21.2585 125.85802 20.8572L125.85802 8.87528C125.861 8.47088 125.533 8.14307 125.129 8.14307zM138.348 7.78461C134.347 7.78461 131.216 10.9065 131.216 14.8923 131.216 18.878 134.35 21.9999 138.348 21.9999 142.346 21.9999 145.479 18.878 145.479 14.8923 145.479 10.9065 142.346 7.78461 138.348 7.78461zM141.714 14.8923C141.714 16.7917 140.204 18.3358 138.348 18.3358 136.491 18.3358 134.981 16.7917 134.981 14.8923 134.981 12.9928 136.491 11.4487 138.348 11.4487 140.204 11.4487 141.714 12.9928 141.714 14.8923zM157.019 7.78461C155.919 7.78461 154.89 8.11548 154.066 8.70063 153.989 8.38202 153.701 8.14305 153.355 8.14305L151.051 8.14305C150.647 8.14305 150.322 8.47086 150.322 8.8722L150.322 20.8572C150.322 21.2616 150.65 21.5863 151.051 21.5863L153.355 21.5863C153.759 21.5863 154.084 21.2585 154.084 20.8572L154.084 15.3549C154.084 12.4934 154.397 11.2955 156.323 11.2955 157.873 11.2955 158.232 11.801 158.232 13.9977L158.232 20.8602C158.232 21.2646 158.56 21.5894 158.961 21.5894L161.265 21.5894C161.669 21.5894 161.994016 21.2616 161.994016 20.8602L161.994016 13.7158C162 9.77904 160.324 7.78461 157.019 7.78461z"/>
</svg>
