<svg viewBox="0 0 184 28" version="1.1" xmlns="http://www.w3.org/2000/svg">
  <defs>
    <linearGradient id="degrade" x1="0" x2="0" y1="1" y2="0">
      <stop stop-color="#00ada8" offset="0"/>
      <stop stop-color="#7ad4d2" offset="1"/>
    </linearGradient>
  </defs>
  <g style="fill:url(#degrade)">
    <path d="m 14.410532,25.997416 q -2.505195,0 -4.7302034,-0.87352 -2.208527,-0.87353 -3.807236,-2.37335 -1.582228,-1.49982 -2.521676,-3.60945 -0.922967,-2.12612 -0.922967,-4.53243 0,-3.19742 1.582228,-5.8015 1.582229,-2.62057 4.334646,-4.08742 2.7688994,-1.48334 6.1311344,-1.48334 2.439269,0 4.565388,0.85704 2.126119,0.85704 3.691865,2.42278 0.560373,0.52741 0.560373,1.13723 0,0.60982 -0.560373,1.08778 l -1.71408,1.45038 q -1.071301,0.92296 -2.225009,-0.033 -1.92834,-1.58223 -4.318164,-1.58223 -2.554639,0 -4.285201,1.71408 -1.7305624,1.71408 -1.7305624,4.31816 0,2.62057 1.7305624,4.33465 1.730562,1.71408 4.285201,1.71408 2.439269,0 4.318164,-1.58223 1.153708,-0.95593 2.225009,-0.033 l 1.71408,1.45037 q 0.560373,0.47797 0.560373,1.08778 0,0.60982 -0.560373,1.13723 -1.565746,1.56575 -3.708347,2.42279 -2.142601,0.85704 -4.614832,0.85704 z" />
    <path d="m 34.707694,26.030376 q -4.087422,0 -6.757432,-2.52167 -2.67001,-2.53816 -2.67001,-6.36188 0,-3.82372 2.67001,-6.34539 2.67001,-2.53816 6.757432,-2.53816 2.702973,0 4.845574,1.15371 2.159082,1.1537 3.362235,3.18093 1.203152,2.02723 1.203152,4.54891 0,2.52168 -1.203152,4.54891 -1.203153,2.02723 -3.362235,3.18093 -2.142601,1.15371 -4.845574,1.15371 z m -2.637046,-6.09817 q 1.054818,1.10426 2.637046,1.10426 1.582229,0 2.604084,-1.10426 1.038337,-1.10426 1.038337,-2.78538 0,-1.68112 -1.038337,-2.78538 -1.021855,-1.10426 -2.604084,-1.10426 -1.582228,0 -2.637046,1.10426 -1.038338,1.10426 -1.038338,2.78538 0,1.68112 1.038338,2.78538 z" />
    <path d="m 49.252799,25.585376 q -0.74167,0 -1.153708,-0.39556 -0.395557,-0.41204 -0.395557,-1.15371 V 3.582516 q 0,-0.70871 0.379075,-1.0713 0.395557,-0.36259 1.17019,-0.49445 l 2.735936,-0.52741 q 0.725188,-0.14833 1.153708,0.31315 0.42852,0.445 0.42852,1.23612 v 20.99748 q 0,0.72519 -0.412038,1.13723 -0.412039,0.41204 -1.137227,0.41204 z" />
    <path d="m 66.583288,26.030376 q -4.087423,0 -6.757433,-2.52167 -2.67001,-2.53816 -2.67001,-6.36188 0,-3.82372 2.67001,-6.34539 2.67001,-2.53816 6.757433,-2.53816 2.702973,0 4.845573,1.15371 2.159082,1.1537 3.362235,3.18093 1.203153,2.02723 1.203153,4.54891 0,2.52168 -1.203153,4.54891 -1.203153,2.02723 -3.362235,3.18093 -2.1426,1.15371 -4.845573,1.15371 z m -2.637047,-6.09817 q 1.054818,1.10426 2.637047,1.10426 1.582228,0 2.604083,-1.10426 1.038338,-1.10426 1.038338,-2.78538 0,-1.68112 -1.038338,-2.78538 -1.021855,-1.10426 -2.604083,-1.10426 -1.582229,0 -2.637047,1.10426 -1.038338,1.10426 -1.038338,2.78538 0,1.68112 1.038338,2.78538 z" />
    <path d="m 87.770452,26.030376 q -3.988533,0 -6.609099,-2.52167 -2.604084,-2.52168 -2.604084,-6.36188 0,-3.8402 2.604084,-6.36188 2.620566,-2.52167 6.609099,-2.52167 4.005011,0 6.691511,2.63704 0.84055,0.89001 -0.033,1.76353 l -1.79649,1.78001 q -0.41203,0.37907 -0.77463,0.41204 -0.34611,0.0165 -0.97241,-0.47797 -1.21963,-1.12074 -2.86779,-1.12074 -1.615189,0 -2.653526,1.10426 -1.021856,1.10426 -1.021856,2.78538 0,1.68112 1.021856,2.80186 1.021855,1.12075 2.653526,1.12075 1.61519,0 2.86779,-1.15371 0.6263,-0.49445 0.97241,-0.46148 0.3626,0.0165 0.77463,0.39555 l 1.79649,1.78001 q 0.87352,0.87352 0.033,1.76352 -2.6865,2.63705 -6.691511,2.63705 z" />
    <path d="m 99.497213,12.630886 q -1.38445,0 -1.48334,-1.56575 l -0.54389,-5.83447 q -0.0494,-0.75815 0.37908,-1.17019 0.42852,-0.41203 1.20315,-0.41203 h 1.219627 q 0.77463,0 1.20315,0.41203 0.42852,0.41204 0.37908,1.17019 l -0.51093,5.83447 q -0.16481,1.56575 -1.516297,1.56575 z" />
    <path d="m 124.72235,24.003146 q 0.32964,0.75815 0.0165,1.17019 -0.31315,0.41204 -1.12075,0.41204 h -3.62594 q -0.37907,0 -0.6263,-0.0824 -0.24722,-0.0824 -0.445,-0.32963 -0.1813,-0.2637 -0.28018,-0.46148 -0.0989,-0.19778 -0.29667,-0.70871 l -0.8076,-2.02723 h -8.63633 l -0.85704,2.02723 q -0.18129,0.46148 -0.23074,0.59334 -0.0494,0.11537 -0.21426,0.39555 -0.14833,0.28019 -0.28018,0.3626 -0.13186,0.0659 -0.3626,0.14833 -0.21426,0.0824 -0.52741,0.0824 h -3.41168 q -0.80759,0 -1.12074,-0.41204 -0.31315,-0.41204 0.0165,-1.17019 l 9.04837,-19.03618 q 0.74167,-1.5163 2.19204,-1.5163 h 0.3626 q 1.41741,0 2.15908,1.5163 z m -14.20709,-6.01576 h 5.47188 l -2.67001,-6.74095 z" />
    <path d="m 142.30006,8.543456 q 0.72519,0 1.12075,0.41204 0.39555,0.41204 0.39555,1.13723 v 13.94338 q 0,0.72519 -0.39555,1.13723 -0.39556,0.41204 -1.12075,0.41204 h -1.64815 q -0.72519,0 -1.13723,-0.41204 -0.41204,-0.41204 -0.41204,-1.13723 v -0.67574 q -1.73056,2.67001 -5.04335,2.67001 -3.13149,0 -5.05983,-1.89538 -1.91186,-1.89537 -1.91186,-4.9939 v -9.04837 q 0,-0.72519 0.41204,-1.13723 0.41203,-0.41204 1.13722,-0.41204 h 2.7689 q 0.72519,0 1.13723,0.41204 0.41204,0.41204 0.41204,1.13723 v 8.20781 q 0,1.23611 0.67574,2.01075 0.67574,0.75815 1.81297,0.75815 1.17019,0 1.84593,-0.77464 0.69223,-0.77463 0.69223,-2.02723 v -8.17484 q 0,-0.72519 0.39555,-1.13723 0.39556,-0.41204 1.12075,-0.41204 z" />
    <path d="m 161.24574,23.294446 q 0.11537,0.23074 0.11537,0.445 0,0.21426 -0.0495,0.34611 -0.0494,0.13185 -0.21426,0.31315 -0.16481,0.16481 -0.24722,0.23074 -0.0659,0.0659 -0.28019,0.21426 -1.66463,1.18667 -4.2852,1.18667 -1.30204,0 -2.47223,-0.39556 -1.15371,-0.37907 -2.09315,-1.13722 -0.93945,-0.75815 -1.49982,-2.04371 -0.5439,-1.30205 -0.5439,-2.98316 v -6.67503 h -1.48333 q -0.74167,0 -1.15371,-0.41204 -0.41204,-0.41203 -0.41204,-1.13722 v -1.15371 q 0,-0.75815 0.39556,-1.15371 0.41203,-0.39556 1.17019,-0.39556 h 1.48333 v -3.9226 q 0,-0.69223 0.37908,-1.03834 0.39556,-0.34611 1.17019,-0.51093 l 2.70297,-0.47796 q 0.72519,-0.14834 1.13723,0.29667 0.41204,0.42852 0.41204,1.21963 v 4.43353 h 3.34575 q 0.74167,0 1.13723,0.41204 0.41204,0.39556 0.41204,1.13723 v 1.15371 q 0,0.72519 -0.41204,1.13722 -0.41204,0.41204 -1.13723,0.41204 h -3.34575 v 6.06521 q 0,1.15371 0.51093,1.68112 0.52741,0.52741 1.38445,0.52741 0.59333,0 1.38444,-0.47797 1.00538,-0.65926 1.54927,0.51093 z" />
    <path d="m 172.19787,26.030376 q -4.08743,0 -6.75744,-2.52167 -2.67001,-2.53816 -2.67001,-6.36188 0,-3.82372 2.67001,-6.34539 2.67001,-2.53816 6.75744,-2.53816 2.70297,0 4.84557,1.15371 2.15908,1.1537 3.36224,3.18093 1.20315,2.02723 1.20315,4.54891 0,2.52168 -1.20315,4.54891 -1.20316,2.02723 -3.36224,3.18093 -2.1426,1.15371 -4.84557,1.15371 z m -2.63705,-6.09817 q 1.05482,1.10426 2.63705,1.10426 1.58222,0 2.60408,-1.10426 1.03834,-1.10426 1.03834,-2.78538 0,-1.68112 -1.03834,-2.78538 -1.02186,-1.10426 -2.60408,-1.10426 -1.58223,0 -2.63705,1.10426 -1.03834,1.10426 -1.03834,2.78538 0,1.68112 1.03834,2.78538 z" />
  </g>
</svg>
