<svg width="18" height="18" viewBox="0 0 18 18" fill="none" xmlns="http://www.w3.org/2000/svg">
<path d="M12.5 11H11.71L11.43 10.73C12.41 9.58999 13 8.10999 13 6.49999C13 2.90999 10.09 -9.53674e-06 6.50001 -9.53674e-06C2.91001 -9.53674e-06 8.82492e-06 2.90999 8.82492e-06 6.49999C8.82492e-06 10.09 2.91001 13 6.50001 13C8.11001 13 9.59001 12.41 10.73 11.43L11 11.71V12.5L16 17.49L17.49 16L12.5 11ZM6.50001 11C4.01001 11 2.00001 8.98999 2.00001 6.49999C2.00001 4.00999 4.01001 1.99999 6.50001 1.99999C8.99001 1.99999 11 4.00999 11 6.49999C11 8.98999 8.99001 11 6.50001 11Z" fill="#7E7E7E"/>
</svg>
