<svg version="1.1" viewBox="0 0 886 888" xmlns="http://www.w3.org/2000/svg">
  <g transform="matrix(1.3333333,0,0,-1.3333333,0,9212.2267)">
    <g transform="matrix(2.1609428,0,0,2.1609428,-15275.509,1205.1001)">
      <g transform="translate(7371.3892,2486.0444)">
        <path
           d="m 0,0 c 0,-82.23 -66.66,-148.89 -148.89,-148.89 -29.53,0 -57.06,8.6 -80.21,23.44 -0.04,0.02 -0.07,0.05 -0.11,0.07 -2.99,1.91 -5.9,3.94 -8.74,6.06 -5.39,4.02 -10.49,8.4 -15.28,13.13 -0.07,0.06 -0.14,0.13 -0.21,0.2 -2.54,2.49 -4.99,5.1 -7.35,7.78 -23.03,26.21 -36.99,60.58 -36.99,98.21 0,82.23 66.66,148.89 148.89,148.89 C -66.66,148.89 0,82.23 0,0"
           style="fill:#ff8631;"/>
      </g>
      <g transform="translate(7289.6191,2405.1145)">
        <path
           d="m 0,0 c -10.39,-8.81 -26.77,-20.11 -46.87,-25.17 -27.46,-6.9 -53.31,-1.95 -73.18,11.47 -6.05,-6.85 -18.92,-21.8 -27.28,-30.82 -0.04,0.02 -0.07,0.05 -0.11,0.07 -2.99,1.91 -5.9,3.94 -8.74,6.06 -5.39,4.02 -10.49,8.4 -15.28,13.13 8.67,8.78 23.5,24.71 30.14,31.65 -27.39,35.65 -21.29,82.68 -10.83,103.39 2.81,5.58 5.65,10.58 8.37,14.98 -7.59,-14.98 -11.21,-31.74 -10.37,-48.97 1.22,-25.34 12.02,-48.92 30.41,-66.39 18.33,-17.41 42.31,-27 67.53,-27 1.59,0 3.21,0.04 4.81,0.12 18.73,0.9 36.41,6.99 51.4,17.48"
           style="fill:#1e4847;"/>
      </g>
      <g transform="translate(7144.7793,2454.0645)">
        <path
           d="M 0,0 C 0.5,-1.39 1.02,-2.76 1.58,-4.12 1.02,-2.77 0.49,-1.39 0,0"
           style="fill:#1e4847;"/>
      </g>
      <g transform="translate(7162.8394,2547.8345)">
        <path
           d="M 0,0 C 0.96,1.11 1.97,2.2 3.01,3.26 1.98,2.2 0.98,1.11 0,0"
           style="fill:#1e4847;" />
      </g>
      <g transform="translate(7165.8491,2551.0945)">
        <path
           d="M 0,0 C -1.03,-1.06 -2.03,-2.15 -3.01,-3.26 -2.05,-2.15 -1.04,-1.06 0,0"
           style="fill:#1f4847;"/>
      </g>
      <g transform="translate(7165.8491,2551.0945)">
        <path
           d="M 0,0 C -1.04,-1.06 -2.05,-2.15 -3.01,-3.26 -2.03,-2.15 -1.03,-1.06 0,0"
           style="fill:#ff8631;"/>
      </g>
      <g transform="translate(7327.4893,2480.7446)">
        <path
           d="M 0,0 C -0.08,-1.48 -0.19,-2.96 -0.33,-4.42 -0.39,-5 -0.45,-5.58 -0.52,-6.15 -0.54,-6.38 -0.57,-6.6 -0.6,-6.83 -0.68,-7.47 -0.77,-8.1 -0.86,-8.73 -0.87,-8.82 -0.88,-8.92 -0.9,-9.01 -0.97,-9.5 -1.05,-10 -1.13,-10.49 c -0.06,-0.36 -0.12,-0.71 -0.19,-1.07 -0.03,-0.24 -0.07,-0.48 -0.13,-0.73 -0.08,-0.5 -0.18,-0.99 -0.29,-1.49 -0.07,-0.41 -0.16,-0.81 -0.25,-1.21 -0.12,-0.59 -0.25,-1.18 -0.4,-1.76 -0.13,-0.58 -0.27,-1.16 -0.42,-1.74 -0.15,-0.59 -0.3,-1.18 -0.47,-1.76 -0.14,-0.51 -0.28,-1.01 -0.43,-1.51 -0.27,-0.92 -0.55,-1.83 -0.86,-2.73 -0.2,-0.64 -0.42,-1.28 -0.65,-1.91 -0.24,-0.69 -0.49,-1.38 -0.75,-2.06 0,-0.03 -0.01,-0.06 -0.03,-0.08 -0.21,-0.56 -0.43,-1.11 -0.65,-1.66 -0.11,-0.28 -0.22,-0.55 -0.34,-0.83 -0.16,-0.39 -0.32,-0.78 -0.49,-1.17 -0.16,-0.38 -0.32,-0.75 -0.49,-1.12 -0.12,-0.28 -0.24,-0.55 -0.37,-0.81 -0.18,-0.4 -0.36,-0.8 -0.55,-1.19 -0.28,-0.61 -0.58,-1.21 -0.88,-1.81 -0.21,-0.43 -0.43,-0.84 -0.64,-1.26 -0.3,-0.59 -0.62,-1.18 -0.94,-1.76 -0.21,-0.39 -0.43,-0.78 -0.65,-1.17 -0.6,-1.07 -1.22,-2.12 -1.87,-3.16 -0.35,-0.57 -0.7,-1.13 -1.06,-1.69 -0.01,-0.01 -0.02,-0.03 -0.03,-0.04 -0.39,-0.61 -0.79,-1.21 -1.2,-1.8 -0.36,-0.53 -0.72,-1.06 -1.1,-1.58 -0.23,-0.34 -0.47,-0.67 -0.72,-1 -0.24,-0.33 -0.48,-0.66 -0.73,-0.99 -0.44,-0.58 -0.88,-1.16 -1.34,-1.74 -2.31,-2.94 -4.8,-5.74 -7.45,-8.38 -1,-1 -2.03,-1.98 -3.08,-2.94 -1.03,-0.95 -2.09,-1.87 -3.16,-2.77 -0.02,-0.01 -0.03,-0.02 -0.04,-0.03 -0.56,-0.46 -1.12,-0.93 -1.7,-1.38 -1.85,-1.48 -3.75,-2.88 -5.71,-4.21 -0.47,-0.31 -0.94,-0.63 -1.42,-0.94 -0.76,-0.5 -1.53,-0.98 -2.3,-1.46 -0.47,-0.29 -0.95,-0.57 -1.42,-0.85 -0.8,-0.47 -1.62,-0.94 -2.44,-1.38 -0.46,-0.26 -0.92,-0.51 -1.38,-0.75 -0.06,-0.03 -0.13,-0.07 -0.2,-0.1 -0.62,-0.33 -1.24,-0.64 -1.86,-0.95 -0.58,-0.29 -1.16,-0.57 -1.74,-0.84 -0.53,-0.25 -1.06,-0.5 -1.6,-0.74 -0.5,-0.22 -1,-0.44 -1.5,-0.65 -0.19,-0.09 -0.39,-0.17 -0.58,-0.25 -0.4,-0.17 -0.79,-0.33 -1.19,-0.49 -0.36,-0.15 -0.73,-0.29 -1.1,-0.43 -0.61,-0.24 -1.23,-0.47 -1.85,-0.69 -0.43,-0.16 -0.85,-0.32 -1.28,-0.46 -0.23,-0.09 -0.45,-0.16 -0.68,-0.23 -0.57,-0.2 -1.14,-0.39 -1.72,-0.57 -0.67,-0.22 -1.35,-0.42 -2.04,-0.63 -0.55,-0.16 -1.11,-0.32 -1.68,-0.47 -0.42,-0.12 -0.84,-0.23 -1.27,-0.33 -0.36,-0.1 -0.72,-0.19 -1.08,-0.28 -0.9,-0.22 -1.8,-0.43 -2.71,-0.61 -0.6,-0.14 -1.21,-0.26 -1.82,-0.38 -0.05,-0.01 -0.1,-0.02 -0.15,-0.03 -0.69,-0.13 -1.38,-0.26 -2.07,-0.37 -1.61,-0.27 -3.24,-0.5 -4.88,-0.69 -0.59,-0.07 -1.19,-0.14 -1.78,-0.19 -0.75,-0.07 -1.51,-0.14 -2.26,-0.19 -0.75,-0.06 -1.51,-0.1 -2.27,-0.14 -1.55,-0.07 -3.09,-0.11 -4.62,-0.11 -1.28,0 -2.55,0.03 -3.82,0.08 -0.5,0.02 -1.01,0.04 -1.51,0.07 -0.52,0.03 -1.04,0.06 -1.55,0.1 -0.04,0 -0.07,0.01 -0.11,0.01 -0.49,0.03 -0.98,0.07 -1.46,0.12 -0.32,0.03 -0.63,0.06 -0.95,0.09 -0.61,0.06 -1.23,0.13 -1.85,0.2 -0.42,0.06 -0.83,0.11 -1.25,0.16 -0.28,0.04 -0.56,0.08 -0.84,0.12 -0.49,0.07 -0.98,0.14 -1.47,0.22 -0.06,0.01 -0.12,0.02 -0.19,0.03 -0.58,0.1 -1.16,0.2 -1.74,0.3 -0.6,0.11 -1.2,0.22 -1.8,0.34 -1.24,0.25 -2.47,0.52 -3.69,0.82 -0.54,0.13 -1.08,0.27 -1.61,0.41 -0.03,0.01 -0.07,0.01 -0.1,0.02 -0.5,0.13 -0.99,0.27 -1.48,0.41 -1.24,0.35 -2.48,0.72 -3.7,1.12 -1.42,0.46 -2.82,0.95 -4.2,1.48 -0.52,0.2 -1.04,0.4 -1.55,0.61 -0.51,0.2 -1.03,0.41 -1.54,0.63 -0.51,0.21 -1.02,0.43 -1.52,0.66 -1.04,0.45 -2.07,0.93 -3.08,1.42 -0.4,0.2 -0.79,0.39 -1.19,0.6 -3.03,1.52 -5.98,3.21 -8.81,5.04 -0.62,0.4 -1.23,0.81 -1.83,1.22 -0.58,0.39 -1.16,0.8 -1.73,1.2 -0.04,0.03 -0.07,0.05 -0.11,0.08 -0.58,0.42 -1.16,0.84 -1.73,1.27 -1.17,0.88 -2.32,1.78 -3.44,2.71 -0.71,0.59 -1.41,1.18 -2.1,1.79 -0.51,0.45 -1.02,0.9 -1.52,1.36 -1.29,1.18 -2.56,2.4 -3.78,3.66 -0.37,0.38 -0.74,0.76 -1.1,1.14 -0.17,0.18 -0.35,0.37 -0.52,0.56 -0.32,0.33 -0.63,0.67 -0.94,1.02 -0.28,0.3 -0.55,0.61 -0.82,0.92 -0.45,0.51 -0.9,1.03 -1.34,1.56 -0.29,0.34 -0.57,0.68 -0.85,1.03 -3.1,3.77 -5.9,7.8 -8.39,12.04 -0.34,0.59 -0.68,1.19 -1.02,1.79 -0.36,0.64 -0.71,1.29 -1.05,1.95 -0.35,0.65 -0.68,1.31 -1.01,1.97 -0.32,0.64 -0.63,1.29 -0.93,1.94 -0.05,0.09 -0.09,0.17 -0.12,0.25 -0.26,0.56 -0.52,1.13 -0.78,1.71 -0.06,0.14 -0.12,0.27 -0.17,0.41 -0.26,0.59 -0.51,1.19 -0.76,1.79 -0.56,1.36 -1.08,2.73 -1.58,4.12 -0.26,0.73 -0.51,1.46 -0.75,2.2 -0.15,0.46 -0.3,0.93 -0.44,1.41 -0.31,0.97 -0.6,1.94 -0.86,2.92 -0.2,0.73 -0.4,1.46 -0.58,2.2 -0.18,0.73 -0.36,1.47 -0.52,2.22 -0.14,0.58 -0.26,1.17 -0.38,1.77 -0.07,0.33 -0.14,0.67 -0.2,1 -0.07,0.39 -0.15,0.78 -0.22,1.18 -0.09,0.48 -0.17,0.95 -0.24,1.43 -0.06,0.32 -0.11,0.63 -0.15,0.94 -0.07,0.41 -0.13,0.82 -0.17,1.23 -0.07,0.45 -0.13,0.9 -0.19,1.35 -0.03,0.21 -0.05,0.42 -0.07,0.63 -0.08,0.6 -0.14,1.19 -0.2,1.79 -0.07,0.73 -0.14,1.46 -0.19,2.2 -0.07,0.85 -0.12,1.71 -0.16,2.57 -0.12,2.47 -0.14,4.92 -0.07,7.35 0.03,1.04 0.08,2.08 0.15,3.11 0.06,1.14 0.15,2.28 0.26,3.41 0.08,0.81 0.17,1.62 0.27,2.42 0.1,0.77 0.2,1.53 0.32,2.29 0.1,0.69 0.21,1.38 0.33,2.07 0.06,0.38 0.13,0.75 0.21,1.13 0.07,0.44 0.16,0.88 0.25,1.32 0.57,2.89 1.29,5.74 2.13,8.53 0.15,0.49 0.3,0.99 0.46,1.47 0.29,0.93 0.59,1.84 0.92,2.75 0.14,0.41 0.29,0.82 0.45,1.23 0.14,0.41 0.3,0.82 0.46,1.23 0.26,0.7 0.54,1.4 0.83,2.09 0.28,0.69 0.58,1.38 0.88,2.06 0.3,0.68 0.61,1.36 0.93,2.04 0.31,0.67 0.64,1.34 0.97,2.01 0.32,0.64 0.64,1.27 0.97,1.89 0.05,0.1 0.1,0.2 0.16,0.29 0.31,0.59 0.63,1.18 0.96,1.76 0.36,0.65 0.73,1.29 1.11,1.93 0.38,0.64 0.76,1.27 1.16,1.9 0.39,0.63 0.79,1.26 1.2,1.88 0.38,0.58 0.78,1.17 1.18,1.75 0.05,0.08 0.11,0.16 0.17,0.24 0.37,0.54 0.75,1.08 1.14,1.61 0.03,0.05 0.07,0.1 0.11,0.15 0.41,0.56 0.82,1.12 1.25,1.68 0.45,0.59 0.9,1.17 1.37,1.75 0.46,0.57 0.93,1.14 1.4,1.71 0.48,0.57 0.96,1.13 1.45,1.68 0.98,1.11 1.98,2.2 3.01,3.26 0.5,0.52 1.01,1.03 1.52,1.54 1.03,1.01 2.08,2 3.15,2.97 0.54,0.49 1.08,0.96 1.63,1.43 0.51,0.45 1.03,0.88 1.55,1.32 0.13,0.1 0.27,0.21 0.4,0.32 0.42,0.34 0.83,0.68 1.26,1.01 0.71,0.56 1.44,1.12 2.18,1.67 0.47,0.35 0.95,0.69 1.44,1.04 0.59,0.42 1.18,0.83 1.78,1.24 0.58,0.39 1.15,0.77 1.74,1.15 2.34,1.51 4.75,2.92 7.23,4.22 0.64,0.34 1.3,0.68 1.95,1 0.53,0.27 1.06,0.52 1.6,0.77 2.14,1.02 4.34,1.96 6.58,2.81 0.52,0.2 1.04,0.4 1.56,0.58 1.05,0.38 2.11,0.74 3.18,1.09 0.63,0.2 1.27,0.4 1.91,0.59 0.64,0.19 1.28,0.37 1.92,0.55 0.54,0.15 1.08,0.29 1.62,0.43 0.26,0.07 0.52,0.13 0.79,0.2 1.25,0.31 2.52,0.6 3.8,0.85 2.42,0.5 4.88,0.9 7.38,1.2 0.76,0.1 1.52,0.18 2.29,0.25 1.53,0.15 3.07,0.26 4.63,0.34 1.54,0.07 3.09,0.11 4.62,0.11 1.28,0 2.55,-0.03 3.82,-0.08 0.5,-0.02 1.01,-0.04 1.51,-0.07 0.55,-0.03 1.09,-0.07 1.63,-0.11 0.51,-0.03 1.03,-0.08 1.54,-0.13 0.3,-0.02 0.6,-0.05 0.9,-0.08 0.61,-0.06 1.23,-0.13 1.85,-0.2 0.42,-0.06 0.83,-0.11 1.25,-0.16 0.28,-0.04 0.56,-0.08 0.84,-0.12 0.46,-0.07 0.91,-0.13 1.37,-0.21 0.12,-0.01 0.25,-0.03 0.38,-0.06 0.54,-0.08 1.07,-0.18 1.61,-0.27 0.04,-0.01 0.1,-0.02 0.15,-0.03 0.56,-0.1 1.13,-0.21 1.69,-0.32 1.27,-0.25 2.53,-0.54 3.78,-0.84 0.4,-0.1 0.8,-0.2 1.2,-0.31 0.21,-0.05 0.43,-0.1 0.64,-0.16 0.43,-0.12 0.86,-0.23 1.28,-0.36 1.24,-0.34 2.47,-0.71 3.68,-1.11 1.41,-0.46 2.81,-0.95 4.2,-1.48 0.52,-0.2 1.04,-0.4 1.55,-0.61 0.41,-0.16 0.81,-0.32 1.2,-0.49 2.53,-1.05 5,-2.21 7.41,-3.47 0.63,-0.33 1.25,-0.66 1.86,-1 h 0.01 c 0.64,-0.36 1.28,-0.72 1.91,-1.09 0.54,-0.31 1.08,-0.63 1.61,-0.96 0.72,-0.44 1.44,-0.88 2.14,-1.34 0.62,-0.4 1.22,-0.81 1.82,-1.22 0.61,-0.41 1.21,-0.83 1.8,-1.25 0.6,-0.43 1.19,-0.86 1.77,-1.3 h 0.01 c 1.17,-0.88 2.32,-1.78 3.44,-2.71 1.12,-0.93 2.23,-1.89 3.31,-2.87 1.08,-0.98 2.14,-1.98 3.17,-3.02 1.04,-1.02 2.05,-2.08 3.04,-3.16 0.98,-1.08 1.94,-2.17 2.89,-3.3 v -0.01 c 0.93,-1.12 1.85,-2.27 2.73,-3.43 0.89,-1.17 1.75,-2.36 2.58,-3.57 0.83,-1.21 1.63,-2.44 2.41,-3.69 0.56,-0.91 1.11,-1.83 1.64,-2.76 0.32,-0.55 0.63,-1.11 0.93,-1.67 0.17,-0.3 0.33,-0.6 0.49,-0.9 0.16,-0.28 0.31,-0.57 0.45,-0.86 0.27,-0.51 0.54,-1.03 0.79,-1.55 0.33,-0.66 0.66,-1.33 0.97,-2 0.63,-1.35 1.23,-2.71 1.79,-4.09 0.56,-1.38 1.1,-2.78 1.6,-4.19 0.5,-1.41 0.98,-2.84 1.41,-4.28 0.43,-1.45 0.83,-2.91 1.2,-4.38 0.37,-1.47 0.7,-2.96 1,-4.46 0.13,-0.68 0.26,-1.37 0.38,-2.05 0.03,-0.17 0.06,-0.33 0.09,-0.5 0.11,-0.66 0.21,-1.33 0.31,-1.99 0.11,-0.77 0.22,-1.53 0.31,-2.3 0.08,-0.66 0.16,-1.32 0.22,-1.98 0.05,-0.5 0.1,-1 0.14,-1.51 0.05,-0.49 0.08,-0.99 0.12,-1.48 0.05,-0.68 0.09,-1.36 0.12,-2.04 C 0.16,6.27 0.16,3.12 0,0"
           style="fill:#1e4847;" />
      </g>
      <g transform="translate(7310.0156,2489.3452)">
        <path
           d="m 0,0 c 2.043,-42.269 -30.566,-78.191 -72.834,-80.234 -42.27,-2.043 -78.191,30.566 -80.234,72.835 -2.044,42.269 30.566,78.191 72.834,80.234 C -37.965,74.878 -2.043,42.269 0,0"
           style="fill:#d3d9e5;" />
      </g>
      <g transform="translate(7153.9487,2563.6982)">
        <path
           d="M 0,0 C -0.479,0 -0.96,0.171 -1.344,0.519 L -19.14,16.673 c -0.818,0.743 -0.879,2.007 -0.136,2.825 0.742,0.817 2.006,0.88 2.825,0.137 L 1.345,3.481 C 2.163,2.738 2.224,1.474 1.481,0.656 1.087,0.221 0.544,0 0,0"
           style="fill:#ffffff;" />
      </g>
      <g transform="translate(7190.7109,2583.1343)">
        <path
           d="m 0,0 c -0.875,0 -1.679,0.579 -1.925,1.463 l -6.027,21.608 c -0.297,1.064 0.326,2.167 1.39,2.464 1.066,0.298 2.166,-0.326 2.463,-1.389 L 1.927,2.538 C 2.224,1.474 1.602,0.371 0.538,0.074 0.358,0.024 0.178,0 0,0"
           style="fill:#ffffff;" />
      </g>
      <g transform="translate(7275.4106,2579.0156)">
        <path
         d="m 0,0 c -0.347,0 -0.697,0.09 -1.018,0.28 -0.95,0.563 -1.264,1.789 -0.701,2.74 L 9.41,21.808 c 0.563,0.951 1.788,1.264 2.74,0.702 0.951,-0.563 1.265,-1.79 0.702,-2.74 L 1.723,0.981 C 1.35,0.351 0.684,0 0,0"
         style="fill:#ffffff;" />
      </g>
      <g transform="translate(7232.186,2590.2212)">
        <path
         d="m 0,0 c -0.062,0 -0.125,0.003 -0.188,0.009 -1.1,0.102 -1.908,1.077 -1.805,2.177 l 1.968,21.044 c 0.102,1.1 1.063,1.906 2.177,1.806 1.1,-0.103 1.908,-1.078 1.805,-2.178 L 1.989,1.814 C 1.893,0.777 1.021,0 0,0"
         style="fill:#ffffff;" />
      </g>
      <g transform="translate(7175.5347,2500.7656)">
        <path
         d="m 0,0 -4.96,0.631 c 2.981,23.433 22.057,34.155 22.868,34.6 l 2.41,-4.381 C 20.142,30.752 2.652,20.845 0,0"
         style="fill:#ffffff;" />
      </g>
      <g transform="translate(7298.3521,2489.1802)">
        <path
         d="m 0,0 c -0.837,17.327 -8.372,33.292 -21.217,44.952 -12.846,11.66 -29.461,17.612 -46.789,16.783 l -0.242,4.994 C -49.584,67.632 -31.69,61.212 -17.856,48.654 -4.022,36.096 4.093,18.903 4.994,0.241 Z"
         style="fill:#1f4847;" opacity="0.380005" />
      </g>
      <g transform="translate(7237.7832,2435.927)">
        <path
         d="m 0,0 c -6.246,-0.001 -12.381,1.247 -17.974,3.805 -8.582,3.924 -23.213,14.418 -24.77,40.602 -1.305,21.923 7.829,38.682 25.058,45.981 15.555,6.586 35.011,3.814 44.296,-6.315 l -8.845,-8.109 c -5.234,5.707 -18.844,8.425 -30.77,3.374 -12.452,-5.275 -18.76,-17.427 -17.761,-34.218 0.879,-14.764 7.194,-25.56 17.783,-30.402 11.179,-5.111 25.522,-2.964 36.539,5.474 l 8.378,-8.129 C 22.721,3.887 10.69,0 0,0"
         style="fill:#fa512c;" />
      </g>
      <g transform="translate(7185.9521,2481.0667)">
        <path
         d="M 0,0 0.353,11.536 60.907,18.296 59.471,6.281 Z"
         style="fill:#fa512c;" />
      </g>
      <g transform="translate(7186.0596,2461.6182)">
        <path
         d="M 0,0 0.43,11.497 60.677,18.898 59.889,7.075 Z"
         style="fill:#fa512c;" />
      </g>
    </g>
  </g>
</svg>
