<svg width="375" height="213" viewBox="0 0 375 213" fill="none" xmlns="http://www.w3.org/2000/svg">
<rect width="375" height="202" fill="#00ADA8"/>
<path d="M207 79V112.076H230.584V79H207ZM229.937 111.431H207.642V79.6443H229.937V111.431Z" fill="#F5F8FB"/>
<path d="M210.742 82.8735V89.5175H217.139V82.8735H210.742ZM216.492 88.8732H211.384V83.5178H216.492V88.8732Z" fill="#F5F8FB"/>
<path d="M216.91 85.876H210.964V86.5203H216.91V85.876Z" fill="#F5F8FB"/>
<path d="M220.456 82.8735V89.5175H226.85V82.8735H220.456ZM226.205 88.8732H221.1V83.5178H226.205V88.8732Z" fill="#F5F8FB"/>
<path d="M226.62 85.876H220.675V86.5203H226.62V85.876Z" fill="#F5F8FB"/>
<path d="M210.742 92.8213V99.4653H217.139V92.8213H210.742ZM216.492 98.821H211.384V93.4656H216.492V98.821Z" fill="#F5F8FB"/>
<path d="M216.91 95.8237H210.964V96.468H216.91V95.8237Z" fill="#F5F8FB"/>
<path d="M220.456 92.8213V99.4653H226.85V92.8213H220.456ZM226.205 98.821H221.1V93.4656H226.205V98.821Z" fill="#F5F8FB"/>
<path d="M226.62 95.8237H220.675V96.468H226.62V95.8237Z" fill="#F5F8FB"/>
<path d="M210.742 102.77V109.414H217.139V102.77H210.742ZM216.492 108.769H211.384V103.414H216.492V108.769Z" fill="#F5F8FB"/>
<path d="M216.91 105.772H210.964V106.416H216.91V105.772Z" fill="#F5F8FB"/>
<path d="M220.456 102.77V109.414H226.85V102.77H220.456ZM226.205 108.769H221.1V103.414H226.205V108.769Z" fill="#F5F8FB"/>
<path d="M226.62 105.772H220.675V106.416H226.62V105.772Z" fill="#F5F8FB"/>
<path d="M105.574 64.8521V101.227H130.069V64.8521H105.574ZM129.456 100.614H106.187V65.4651H129.456V100.614Z" fill="#F5F8FB"/>
<path d="M129.446 64.8521V101.227H137.089V64.8521H129.446ZM136.476 100.614H130.059V65.4651H136.476V100.614Z" fill="#F5F8FB"/>
<path d="M109.395 79.5034V87.3626H113.921V79.5034H109.395ZM113.308 86.7496H110.005V80.1165H113.308V86.7496Z" fill="#F5F8FB"/>
<path d="M115.878 79.5034V87.3626H120.407V79.5034H115.878ZM119.797 86.7496H116.494V80.1165H119.797V86.7496Z" fill="#F5F8FB"/>
<path d="M122.367 79.5034V87.3626H126.896V79.5034H122.367ZM126.283 86.7496H122.98V80.1165H126.283V86.7496Z" fill="#F5F8FB"/>
<path d="M109.395 69.7119V77.5711H113.921V69.7119H109.395ZM113.308 76.9581H110.005V70.325H113.308V76.9581Z" fill="#F5F8FB"/>
<path d="M115.878 69.7119V77.5711H120.407V69.7119H115.878ZM119.797 76.9581H116.494V70.325H119.797V76.9581Z" fill="#F5F8FB"/>
<path d="M122.367 69.7119V77.5711H126.896V69.7119H122.367ZM126.283 76.9581H122.98V70.325H126.283V76.9581Z" fill="#F5F8FB"/>
<path d="M131.859 69.7119V77.5711H134.816V69.7119H131.859ZM134.203 76.9581H132.472V70.325H134.203V76.9581Z" fill="#F5F8FB"/>
<path d="M131.859 79.4717V87.3284H134.816V79.4717H131.859ZM134.203 86.7154H132.472V80.0847H134.203V86.7154Z" fill="#F5F8FB"/>
<path d="M131.859 89.229V97.0882H134.816V89.229H131.859ZM134.203 96.4751H132.472V89.842H134.203V96.4751Z" fill="#F5F8FB"/>
<path d="M109.395 89.2974V97.1541H113.921V89.2974H109.395ZM113.308 96.5411H110.005V89.9104H113.308V96.5411Z" fill="#F5F8FB"/>
<path d="M115.878 89.2974V97.1541H120.407V89.2974H115.878ZM119.797 96.5411H116.494V89.9104H119.797V96.5411Z" fill="#F5F8FB"/>
<path d="M122.367 89.2974V97.1541H126.896V89.2974H122.367ZM126.283 96.5411H122.98V89.9104H126.283V96.5411Z" fill="#F5F8FB"/>
<path d="M104 62V65.3693H130.049V62H104ZM104.613 64.7562V62.613H129.436V64.7562H104.613Z" fill="#F5F8FB"/>
<path d="M129.441 62V65.3693H138.289V62H129.441ZM137.678 64.7562H130.057V62.613H137.678V64.7562Z" fill="#F5F8FB"/>
<path d="M253.103 91.7044C254.883 89.9134 255.45 87.1318 254.304 84.7155C252.846 81.6359 249.165 80.3211 246.085 81.782C246.082 81.782 246.082 81.782 246.079 81.782C244.619 78.7871 241.016 77.5161 237.995 78.9478C234.95 80.3912 233.653 84.0259 235.093 87.0704C235.105 87.0967 235.12 87.1172 235.131 87.1435C232.709 89.2355 231.871 92.7621 233.308 95.7949C235.038 99.4414 239.391 100.996 243.038 99.269C243.549 99.0264 244.02 98.7313 244.446 98.3924C244.642 98.2376 244.829 98.071 245.007 97.8986C245.063 97.9541 245.118 98.0068 245.177 98.0564C246.676 99.4092 248.89 99.8095 250.83 98.8921C253.399 97.6737 254.497 94.6029 253.279 92.0317C253.226 91.9206 253.165 91.8125 253.103 91.7044ZM253.133 95.8446C252.703 97.0484 251.83 98.0126 250.675 98.5619C248.867 99.418 246.693 99.0469 245.267 97.6386C245.241 97.6123 245.212 97.5919 245.179 97.5772V94.3311L249.866 89.0836C250 88.9345 249.986 88.7037 249.837 88.5693C249.685 88.4349 249.454 88.4466 249.32 88.5985L244.797 93.6591L239.426 88.2888C239.286 88.1457 239.053 88.1457 238.912 88.2888C238.769 88.432 238.769 88.6628 238.912 88.806L244.449 94.3428V97.9162C243.976 98.3252 243.45 98.6671 242.883 98.9388C239.426 100.575 235.28 99.0966 233.641 95.6372C232.312 92.8293 233.022 89.4488 235.374 87.4181C235.5 87.31 235.538 87.1318 235.464 86.9828C235.456 86.9623 235.444 86.9448 235.427 86.9127C234.772 85.5277 234.693 83.9733 235.207 82.53C235.722 81.0895 236.768 79.9325 238.153 79.278C240.975 77.9427 244.385 79.1348 245.755 81.9427C245.837 82.1121 246.036 82.191 246.211 82.1238C246.22 82.1209 246.234 82.1151 246.243 82.1092C249.136 80.7389 252.607 81.9777 253.977 84.8703C255.02 87.0734 254.564 89.7147 252.846 91.4473C252.729 91.5613 252.706 91.7424 252.788 91.8826L252.805 91.9148C252.855 92.0054 252.905 92.093 252.952 92.1894C253.498 93.3435 253.559 94.6408 253.133 95.8446Z" fill="#F5F8FB"/>
<path d="M253.553 91.7629C255.333 89.8141 255.771 86.9536 254.637 84.5578C253.147 81.411 249.451 80.0027 246.249 81.3116C244.61 78.3723 240.914 77.1597 237.84 78.6177C236.28 79.3569 235.099 80.6601 234.521 82.2846C233.963 83.8507 234.021 85.5336 234.687 87.053C233.098 88.5314 232.248 90.5884 232.248 92.6804C232.248 93.7877 232.487 94.9039 232.981 95.9499C233.857 97.8023 235.403 99.2018 237.334 99.8885C238.176 100.189 239.05 100.341 239.917 100.341C241.039 100.341 242.155 100.09 243.195 99.5963C243.637 99.3859 244.057 99.1376 244.449 98.8483C244.642 98.708 244.829 98.5561 245.01 98.3954C245.065 98.4422 245.121 98.4889 245.179 98.5357C246.81 99.8417 249.077 100.125 250.988 99.2223C252.32 98.5912 253.325 97.478 253.819 96.0901C254.316 94.7052 254.24 93.2063 253.612 91.8769C253.591 91.836 253.571 91.798 253.553 91.7629ZM253.133 95.8447C252.703 97.0485 251.829 98.0127 250.675 98.562C248.867 99.4181 246.693 99.047 245.267 97.6387C245.241 97.6124 245.212 97.5919 245.179 97.5773C245.042 97.5043 244.873 97.5247 244.756 97.6358C244.656 97.7322 244.554 97.8257 244.449 97.9162C243.976 98.3253 243.45 98.6671 242.883 98.9389C239.426 100.575 235.28 99.0967 233.641 95.6372C232.312 92.8294 233.022 89.4489 235.374 87.4182C235.499 87.3101 235.537 87.1319 235.464 86.9829C235.456 86.9624 235.444 86.9449 235.426 86.9127C234.772 85.5278 234.693 83.9734 235.207 82.53C235.722 81.0896 236.768 79.9325 238.153 79.2781C240.975 77.9428 244.385 79.1349 245.755 81.9427C245.837 82.1122 246.036 82.1911 246.211 82.1239C246.22 82.121 246.234 82.1151 246.243 82.1093C249.136 80.739 252.607 81.9778 253.977 84.8704C255.02 87.0734 254.564 89.7147 252.846 91.4474C252.729 91.5613 252.706 91.7425 252.788 91.8827L252.805 91.9149C252.855 92.0054 252.905 92.0931 252.951 92.1895C253.498 93.3436 253.559 94.6409 253.133 95.8447Z" fill="#F5F8FB"/>
<path d="M249.866 89.0836L245.179 94.3312V112.934C245.179 113.136 245.016 113.3 244.814 113.3C244.613 113.3 244.449 113.136 244.449 112.934V94.1909C244.449 94.1004 244.481 94.0156 244.54 93.9484L244.797 93.6592L249.32 88.5986C249.454 88.4467 249.685 88.435 249.837 88.5694C249.986 88.7038 250 88.9346 249.866 89.0836Z" fill="#F5F8FB"/>
<path d="M245.068 94.4482C244.998 94.5212 244.905 94.5563 244.811 94.5563C244.718 94.5563 244.624 94.5212 244.551 94.4482L238.909 88.8062C238.766 88.663 238.766 88.4322 238.909 88.289C239.049 88.1458 239.283 88.1458 239.423 88.289L245.068 93.9339C245.214 94.0771 245.214 94.3079 245.068 94.4482Z" fill="#F5F8FB"/>
<path d="M260.146 86.4111V117.239H280.933V86.4111H260.146ZM280.33 116.636H260.75V87.0146H280.33V116.636Z" fill="#F5F8FB"/>
<path d="M263.009 109.598V114.71H266.05V109.598H263.009ZM265.447 114.106H263.612V110.201H265.447V114.106Z" fill="#F5F8FB"/>
<path d="M275.218 109.598V114.71H278.256V109.598H275.218ZM277.655 114.106H275.823V110.201H277.655V114.106Z" fill="#F5F8FB"/>
<path d="M263.009 103.025V108.137H266.05V103.025H263.009ZM265.447 107.534H263.612V103.628H265.447V107.534Z" fill="#F5F8FB"/>
<path d="M267.076 103.025V108.137H270.117V103.025H267.076ZM269.514 107.534H267.68V103.628H269.514V107.534Z" fill="#F5F8FB"/>
<path d="M271.148 103.025V108.137H274.19V103.025H271.148ZM273.584 107.534H271.749V103.628H273.584V107.534Z" fill="#F5F8FB"/>
<path d="M275.218 103.025V108.137H278.256V103.025H275.218ZM277.655 107.534H275.823V103.628H277.655V107.534Z" fill="#F5F8FB"/>
<path d="M263.009 96.4521V101.564H266.05V96.4521H263.009ZM265.447 100.961H263.612V97.0556H265.447V100.961Z" fill="#F5F8FB"/>
<path d="M267.076 96.4521V101.564H270.117V96.4521H267.076ZM269.514 100.961H267.68V97.0556H269.514V100.961Z" fill="#F5F8FB"/>
<path d="M271.148 96.4521V101.564H274.19V96.4521H271.148ZM273.584 100.961H271.749V97.0556H273.584V100.961Z" fill="#F5F8FB"/>
<path d="M275.218 96.4521V101.564H278.256V96.4521H275.218ZM277.655 100.961H275.823V97.0556H277.655V100.961Z" fill="#F5F8FB"/>
<path d="M263.009 89.8799V94.9921H266.05V89.8799H263.009ZM265.447 94.3887H263.612V90.4833H265.447V94.3887Z" fill="#F5F8FB"/>
<path d="M267.076 89.8799V94.9921H270.117V89.8799H267.076ZM269.514 94.3887H267.68V90.4833H269.514V94.3887Z" fill="#F5F8FB"/>
<path d="M271.148 89.8799V94.9921H274.19V89.8799H271.148ZM273.584 94.3887H271.749V90.4833H273.584V94.3887Z" fill="#F5F8FB"/>
<path d="M275.218 89.8799V94.9921H278.256V89.8799H275.218ZM277.655 94.3887H275.823V90.4833H277.655V94.3887Z" fill="#F5F8FB"/>
<path d="M258.725 84V86.9327H282.355V84H258.725ZM281.749 86.3292H259.326V84.6034H281.749V86.3292Z" fill="#F5F8FB"/>
<path d="M268.211 109.521V117.203H273.639V109.521H268.211ZM273.036 116.6H268.814V110.124H273.036V116.6Z" fill="#F5F8FB"/>
<path d="M51.9827 86.238L45.7533 77.1449C45.6916 77.0537 45.5869 77 45.4768 77H28.4797C28.3026 77 28.1604 77.1369 28.1443 77.3087L22.0571 86.2407C21.9873 86.3427 21.982 86.4769 22.0384 86.5842C22.0974 86.6943 22.2101 86.7641 22.3362 86.7641H23.6433V98.482C23.6433 98.6672 23.7936 98.8175 23.9788 98.8175H32.9807C33.1658 98.8175 33.3161 98.6672 33.3161 98.482V86.7641H51.7062C51.8296 86.7641 51.9451 86.6943 52.0042 86.5842C52.0605 86.4742 52.0551 86.3427 51.9827 86.238ZM32.9833 86.0931C32.7981 86.0931 32.6478 86.2434 32.6478 86.4286V98.1465H24.3169V86.4286C24.3169 86.2434 24.1666 86.0931 23.9814 86.0931H22.9724L28.4824 78.0092L33.9924 86.0931H32.9833ZM34.8003 86.0931L29.0621 77.671H45.2998L51.0702 86.0931H34.8003Z" fill="#F5F8FB"/>
<path d="M50.646 98.8202H32.9832C32.798 98.8202 32.6477 98.6699 32.6477 98.4847C32.6477 98.2995 32.798 98.1492 32.9832 98.1492H50.3105V86.5708C50.3105 86.3857 50.4608 86.2354 50.646 86.2354C50.8312 86.2354 50.9815 86.3857 50.9815 86.5708V98.4847C50.9815 98.6699 50.8312 98.8202 50.646 98.8202Z" fill="#F5F8FB"/>
<path d="M48.1581 89.4668H45.4849C45.2997 89.4668 45.1494 89.6171 45.1494 89.8023V93.855C45.1494 94.0402 45.2997 94.1905 45.4849 94.1905H48.1581C48.3433 94.1905 48.4936 94.0402 48.4936 93.855V89.8023C48.4936 89.6171 48.3433 89.4668 48.1581 89.4668ZM47.8226 93.5195H45.8204V90.1378H47.8226V93.5195Z" fill="#F5F8FB"/>
<path d="M38.794 89.394H36.1182C35.933 89.394 35.7827 89.5443 35.7827 89.7295V93.7822C35.7827 93.9674 35.933 94.1177 36.1182 94.1177H38.794C38.9792 94.1177 39.1295 93.9674 39.1295 93.7822V89.7295C39.1295 89.5443 38.9765 89.394 38.794 89.394ZM38.4585 93.4467H36.4537V90.065H38.4585V93.4467Z" fill="#F5F8FB"/>
<path d="M44.1833 89.314H40.3829C40.1977 89.314 40.0474 89.4643 40.0474 89.6495V98.5198C40.0474 98.6486 40.1226 98.764 40.2299 98.8177C40.2326 98.8177 40.2352 98.8204 40.2379 98.8204C40.2809 98.8445 40.3292 98.8553 40.3829 98.8553H44.1833C44.237 98.8553 44.2853 98.8445 44.3282 98.8204C44.3309 98.8204 44.3336 98.8177 44.3362 98.8177C44.4436 98.764 44.5188 98.6486 44.5188 98.5198V89.6495C44.5188 89.4643 44.3712 89.314 44.1833 89.314ZM43.8478 98.1843H40.7183V89.9849H43.8478V98.1843Z" fill="#F5F8FB"/>
<path d="M30.5382 89.4155H26.1526C25.9674 89.4155 25.8171 89.5658 25.8171 89.751V94.2117C25.8171 94.3969 25.9674 94.5472 26.1526 94.5472H30.5382C30.7234 94.5472 30.8737 94.3969 30.8737 94.2117V89.751C30.8737 89.5658 30.7234 89.4155 30.5382 89.4155ZM30.2027 93.8762H26.4881V90.0865H30.2027V93.8762Z" fill="#F5F8FB"/>
<path d="M30.4014 92.2042H26.2869C26.1017 92.2042 25.9514 92.0539 25.9514 91.8687C25.9514 91.6835 26.1017 91.5332 26.2869 91.5332H30.4014C30.5865 91.5332 30.7368 91.6835 30.7368 91.8687C30.7368 92.0539 30.5865 92.2042 30.4014 92.2042Z" fill="#F5F8FB"/>
<path d="M33.3109 86.7667H23.2945C23.1093 86.7667 22.959 86.6164 22.959 86.4312C22.959 86.246 23.1093 86.0957 23.2945 86.0957H33.3109C33.4961 86.0957 33.6464 86.246 33.6464 86.4312C33.6464 86.6164 33.4961 86.7667 33.3109 86.7667Z" fill="#F5F8FB"/>
<path d="M76.0321 71.0518C76.0321 68.1089 73.6387 65.7142 70.6939 65.7142C69.8794 65.7142 69.076 65.9052 68.3419 66.2651C67.4028 63.5824 64.8458 61.7441 61.9731 61.7441C60.1835 61.7441 58.5573 62.4446 57.3467 63.5852C56.1029 64.7535 55.3023 66.3924 55.2275 68.2141C54.0723 68.3885 53.0307 68.8758 52.1885 69.5873C52.1165 69.6454 52.0472 69.7063 51.9807 69.7672C51.9087 69.8337 51.8367 69.9029 51.7702 69.9721C51.6594 70.0829 51.5514 70.1991 51.4516 70.3209C51.3935 70.3902 51.3353 70.4594 51.2826 70.5313C51.2272 70.6006 51.1746 70.6698 51.1247 70.7418C50.4156 71.7495 50 72.9787 50 74.302C50 74.3297 50 74.3546 50.0028 74.3823C50.0028 74.4515 50.0028 74.5235 50.0083 74.5927C50.0111 74.6619 50.0139 74.7339 50.0222 74.8031C50.1108 75.9161 50.4987 76.946 51.1053 77.8153C51.1524 77.8873 51.2023 77.9537 51.2577 78.0229C51.3103 78.0949 51.3657 78.1641 51.4239 78.2333C51.532 78.3662 51.6483 78.4936 51.7702 78.6154C51.8367 78.6873 51.9087 78.7538 51.9807 78.8202C52.0472 78.8839 52.1165 78.9448 52.1885 79.003C53.183 79.8473 54.4518 80.3789 55.8425 80.4509C55.8231 80.6087 55.812 80.7665 55.812 80.9243C55.812 82.1978 56.3993 83.3218 57.3467 84.061C58.0282 84.5981 58.8953 84.9386 59.8621 84.9884C59.9369 84.9912 60.0117 84.994 60.0893 84.994C60.9619 84.994 61.9537 84.7476 62.48 84.5981C62.5964 84.5649 62.6906 84.5372 62.7543 84.515C62.8429 84.54 62.9898 84.5759 63.1726 84.6175C63.8042 84.7642 64.8846 84.9884 65.6797 84.9884H65.7019C69.4362 84.9691 72.4724 81.932 72.4724 78.2195C72.4724 77.5329 72.3671 76.8491 72.1538 76.1846C74.4226 75.5396 76.0321 73.441 76.0321 71.0518ZM71.633 75.6005C71.5333 75.6199 71.4474 75.6835 71.3975 75.7721C71.3504 75.8607 71.3421 75.9659 71.3781 76.0628C71.6468 76.7632 71.7798 77.4886 71.7798 78.2195C71.7798 79.8861 71.0983 81.4005 69.9985 82.5023C68.896 83.6014 67.3751 84.288 65.6991 84.2963H65.6797C64.8901 84.2963 63.7377 84.0444 63.1726 83.906C62.9676 83.8561 62.8402 83.8229 62.8346 83.8201C62.7681 83.8008 62.6961 83.8035 62.6324 83.8257C62.5881 83.8423 62.5354 83.8589 62.48 83.8755C61.8761 84.0638 60.7348 84.3406 59.8982 84.2963C58.8593 84.2409 57.959 83.7952 57.3467 83.1142C56.8176 82.5273 56.5046 81.7659 56.5046 80.9243C56.5046 80.6834 56.5351 80.4343 56.5905 80.1823C56.6126 80.0799 56.5877 79.9719 56.5212 79.8889C56.4547 79.8086 56.355 79.7615 56.2525 79.7615C56.2497 79.7615 56.247 79.7615 56.247 79.7615C56.2248 79.7615 56.2054 79.7643 56.1583 79.7671C54.5959 79.7671 53.183 79.1082 52.1885 78.0534C52.1137 77.9786 52.0445 77.9011 51.9807 77.8208C51.9807 77.8208 51.9752 77.818 51.9752 77.8153C51.9032 77.7322 51.8367 77.6464 51.7702 77.5578C51.1884 76.7743 50.8089 75.8303 50.7175 74.8031C50.7092 74.7339 50.7037 74.6647 50.7009 74.5927C50.6953 74.5235 50.6953 74.4543 50.6953 74.3823C50.6926 74.3574 50.6926 74.3297 50.6926 74.302C50.6926 72.9455 51.1801 71.7024 52.0001 70.7418C52.0611 70.6725 52.1248 70.6006 52.1885 70.5341C53.0584 69.6177 54.2524 69.0004 55.6042 68.8647C55.7815 68.8481 55.9173 68.6986 55.9173 68.5214C55.9173 68.5048 55.9145 68.491 55.9145 68.491C55.9145 67.0043 56.4519 65.6422 57.3467 64.5874C58.4576 63.2723 60.1198 62.4363 61.9731 62.4363C64.6796 62.4363 67.0787 64.2552 67.8045 66.8631C67.8349 66.9655 67.9097 67.0514 68.0095 67.0901C68.1092 67.1316 68.2228 67.1233 68.317 67.068C69.0372 66.6361 69.86 66.4063 70.6939 66.4063C73.2564 66.4063 75.3396 68.491 75.3396 71.0518C75.3396 73.2472 73.7799 75.1603 71.633 75.6005ZM51.7702 77.5578V77.8153H51.9752C51.9032 77.7322 51.8367 77.6464 51.7702 77.5578Z" fill="#F5F8FB"/>
<path d="M68.0538 74.8532L63.2058 80.6061L63.1725 80.6449V97.2337C63.1725 97.4247 63.0174 97.5798 62.8263 97.5798C62.6351 97.5798 62.48 97.4247 62.48 97.2337V80.5175C62.48 80.4373 62.5105 80.357 62.5631 80.2961L62.8179 79.9943L67.5246 74.4075C67.6465 74.2607 67.8654 74.2414 68.0122 74.3659C68.159 74.4878 68.1784 74.7065 68.0538 74.8532Z" fill="#F5F8FB"/>
<path d="M63.206 80.6058C63.1977 80.6335 63.1893 80.6612 63.1727 80.6861C63.1616 80.711 63.145 80.7331 63.1256 80.7553C63.0564 80.8273 62.9649 80.8633 62.8708 80.8633C62.7876 80.8633 62.7018 80.8328 62.6353 80.7719L62.4802 80.6279L57.3884 75.8744C57.3718 75.8578 57.3579 75.8412 57.3468 75.8246C57.2582 75.7056 57.2554 75.5394 57.3468 75.4204C57.3524 75.4093 57.3635 75.3983 57.3718 75.3872C57.502 75.246 57.7208 75.2377 57.8621 75.3706L62.8181 79.994L63.109 80.2653C63.2032 80.3539 63.2392 80.4868 63.206 80.6058Z" fill="#F5F8FB"/>
<path d="M0 100.118C122.5 85.1176 375 129.118 375 129.118V212.118H0V100.118Z" fill="#F5F8FB"/>
<path opacity="0.15" d="M213.384 160.117C213.384 160.739 212.882 161.244 212.257 161.244H49.663C49.0385 161.244 48.5356 160.739 48.5356 160.117C48.5356 159.492 49.0385 158.989 49.663 158.989H80.093C80.9972 159.327 81.9599 159.555 82.9633 159.659C84.8009 159.848 86.5844 159.596 88.2056 158.989H135.999C137.632 159.463 139.341 159.706 141.088 159.706H141.151C142.89 159.7 144.57 159.451 146.161 158.989H204.767C206.117 159.312 207.529 159.481 208.976 159.481C208.999 159.481 209.019 159.479 209.04 159.479C210.295 159.474 211.531 159.346 212.733 159.093C213.015 159.224 213.233 159.47 213.33 159.769C213.366 159.878 213.384 159.995 213.384 160.117Z" fill="#1E4847"/>
<path d="M35.4696 134.956C35.2531 134.956 35.0772 134.78 35.075 134.564C35.0727 134.345 35.2486 134.167 35.4673 134.167L47.3913 134.081H47.3935C47.61 134.081 47.7859 134.257 47.7882 134.473C47.7904 134.692 47.6145 134.87 47.3958 134.87L35.4718 134.956H35.4696Z" fill="#00ADA8"/>
<path d="M30.6242 138.882C30.41 138.882 30.2341 138.71 30.2296 138.494C30.2251 138.275 30.3987 138.097 30.6174 138.093L43.7828 137.854C43.7851 137.854 43.7873 137.854 43.7896 137.854C44.0038 137.854 44.1797 138.025 44.1842 138.241C44.1887 138.46 44.0151 138.638 43.7964 138.643L30.6309 138.882C30.6287 138.882 30.6264 138.882 30.6242 138.882Z" fill="#00ADA8"/>
<path d="M32.162 130.636C31.9478 130.636 31.7719 130.465 31.7674 130.248C31.7629 130.03 31.9365 129.852 32.1552 129.847L45.3207 129.608C45.5439 129.601 45.7175 129.777 45.722 129.996C45.7265 130.215 45.5529 130.393 45.3342 130.397L32.1688 130.636C32.1688 130.636 32.1643 130.636 32.162 130.636Z" fill="#00ADA8"/>
<path d="M146.037 57.9888C145.922 57.9888 145.814 57.9167 145.771 57.8017C144.928 55.4701 145.688 52.8995 147.665 51.4067C147.789 51.312 147.968 51.3368 148.06 51.4609C148.155 51.5849 148.13 51.7608 148.006 51.8555C146.227 53.1994 145.543 55.5107 146.303 57.6077C146.355 57.7543 146.281 57.9167 146.134 57.9685C146.103 57.9843 146.071 57.9888 146.037 57.9888Z" fill="#1F4847"/>
<path d="M148.033 55.9298C147.877 55.9298 147.751 55.8035 147.751 55.6479C147.751 53.6681 149.361 52.0581 151.341 52.0581C151.497 52.0581 151.623 52.1844 151.623 52.34C151.623 52.4956 151.497 52.6218 151.341 52.6218C149.672 52.6218 148.315 53.9793 148.315 55.6479C148.315 55.8035 148.189 55.9298 148.033 55.9298Z" fill="#1F4847"/>
<path d="M101.714 114.437C101.594 114.437 101.481 114.36 101.445 114.238C101.398 114.089 101.481 113.932 101.63 113.884C103.757 113.217 105.18 111.271 105.171 109.041C105.171 108.885 105.295 108.759 105.452 108.759C105.608 108.759 105.734 108.885 105.734 109.041C105.743 111.521 104.163 113.684 101.797 114.425C101.77 114.432 101.741 114.437 101.714 114.437Z" fill="#1F4847"/>
<path d="M101.84 112.364C101.754 112.364 101.671 112.326 101.617 112.254C101.522 112.13 101.545 111.954 101.669 111.859C103.439 110.504 104.106 108.188 103.333 106.096C103.279 105.949 103.353 105.787 103.5 105.733C103.644 105.678 103.809 105.753 103.863 105.899C104.722 108.224 103.98 110.799 102.011 112.308C101.96 112.346 101.899 112.364 101.84 112.364Z" fill="#1F4847"/>
<path d="M176.58 146.841C176.58 146.841 178.463 147.783 180.704 149.111C182.769 150.336 181.665 151.675 179.737 151.74C177.809 151.806 172.661 151.107 172.661 151.107L165.83 150.568L166.465 146.02L176.091 146.557L176.58 146.841Z" fill="#FFC927"/>
<path d="M180.589 59.485C184.745 57.7466 189.861 61.8457 191.475 65.3271C192.914 68.4273 191.78 73.1781 189.191 75.6899C186.503 78.2963 182.366 78.4361 182.366 78.4361C182.366 78.4361 179.446 74.691 177.57 73.257C176.048 72.1093 174.084 71.5592 174.084 71.5592C172.15 65.3586 176.434 61.2212 180.589 59.485Z" fill="#FF8632"/>
<path d="M176.404 139.95C176.393 139.657 176.38 139.355 176.368 139.051C176.35 138.618 176.332 138.171 176.314 137.718C176.298 137.405 176.285 137.087 176.269 136.764C176.231 135.86 176.183 134.924 176.134 133.973C176.12 133.709 176.107 133.443 176.091 133.175C176.066 132.69 176.037 132.203 176.008 131.714C176.001 131.596 175.994 131.479 175.987 131.36C175.976 131.211 175.967 131.062 175.958 130.911C175.868 129.454 175.764 127.996 175.651 126.58C175.426 123.822 175.153 121.234 174.826 119.159C174.691 118.318 174.549 117.563 174.395 116.916C174.357 116.749 174.319 116.591 174.276 116.44C174.276 116.44 174.276 116.44 174.276 116.438C174.17 116.032 174.057 115.682 173.94 115.392C172.894 112.805 171.385 110.226 169.956 108.066C167.841 104.873 165.904 102.6 165.904 102.6L147.106 100.51L154.15 107.302L154.306 107.453L154.556 107.694L159.401 107.678C160.54 107.676 161.476 108.603 161.478 109.741C161.482 110.88 160.553 111.813 159.415 111.818L158.833 111.82L159.207 112.181C159.207 112.181 159.216 112.192 159.23 112.212C159.435 112.478 160.935 114.49 162.29 117.301C162.463 117.664 162.637 118.039 162.804 118.426C162.957 118.783 163.095 119.152 163.223 119.529C163.419 120.084 163.602 120.654 163.818 121.218C164.402 122.737 164.795 125.044 165.054 127.651C165.225 129.378 165.34 131.236 165.412 133.082C165.498 135.249 165.527 137.398 165.527 139.301C165.53 140.049 165.525 140.76 165.518 141.418C165.516 141.434 165.516 141.452 165.518 141.468C165.507 142.32 165.496 143.082 165.48 143.725C165.467 144.351 165.453 144.866 165.442 145.24C165.428 145.684 165.419 145.93 165.419 145.93L165.697 145.952L166.729 146.036L166.743 146.038H166.747L176.571 146.838H176.573L176.612 146.841C176.612 146.841 176.555 143.975 176.404 139.95Z" fill="#971B23"/>
<path d="M192.321 74.6439L190.769 73.5841L190.555 73.4375L189.265 75.3136L189.441 75.4331L191.033 76.52C191.55 76.874 192.262 76.7432 192.616 76.2268C192.97 75.7104 192.837 74.9979 192.321 74.6439Z" fill="#FF8632"/>
<path d="M188.88 71.6543C189.29 71.6024 189.579 71.2281 189.529 70.8177C189.478 70.4073 189.103 70.1187 188.693 70.1706C188.282 70.2224 187.994 70.5968 188.043 71.0071C188.095 71.4153 188.47 71.7062 188.88 71.6543Z" fill="#204948"/>
<path d="M190.546 66.2429C191.24 65.7356 191.547 65.235 191.547 65.235C191.547 65.235 191.802 59.2577 185.315 57.0435C181.412 55.711 178.528 57.2081 176.348 54.4528C173.302 50.604 170.249 49.0888 168.01 50.5544C166.003 51.8666 167.266 54.7234 167.94 55.5351C168.614 56.3468 168.47 56.5114 167.597 56.2566C166.725 56.0018 164.535 54.5859 159.843 54.1868C155.151 53.7877 151.092 55.9906 151.814 58.7436C152.536 61.4966 156.134 63.0547 156.134 63.0547C156.134 63.0547 149.688 63.0276 148.748 65.837C147.69 68.9982 151.316 69.9474 156.078 69.3589C160.578 68.802 163.5 69.2056 171.139 71.3927C173.356 72.0263 177.595 72.4141 180.826 69.9835C180.826 69.9835 180.65 68.2158 181.02 67.5799C182.436 65.1335 184.62 67.4447 184.62 67.4447C186.357 68.4458 189.164 67.2507 190.546 66.2429Z" fill="#576295"/>
<path d="M176.617 151.567H176.613C176.581 151.551 176.55 151.542 176.513 151.538L167.927 150.421C167.821 150.406 167.713 150.437 167.629 150.505C167.566 150.557 167.519 150.624 167.498 150.701C167.489 150.726 167.485 150.753 167.483 150.778L167.228 153.797C167.212 154.007 167.361 154.192 167.568 154.221L176.071 155.414C176.092 155.416 176.11 155.416 176.128 155.416C176.216 155.416 176.299 155.387 176.369 155.333C176.455 155.267 176.509 155.17 176.52 155.064L176.854 151.971C176.872 151.792 176.773 151.632 176.617 151.567ZM175.778 154.573L168.046 153.49L168.236 151.254L176.029 152.268L175.778 154.573Z" fill="#1E4847"/>
<path d="M140.2 129.19C136.676 129.443 133.422 131.208 131.278 134.034C131.145 134.207 131.179 134.455 131.352 134.586C131.425 134.64 131.508 134.667 131.591 134.667C131.711 134.667 131.828 134.613 131.905 134.512C133.914 131.867 136.958 130.214 140.256 129.977C140.475 129.964 140.637 129.774 140.622 129.556C140.606 129.339 140.419 129.172 140.2 129.19ZM219.948 145.664C219.75 145.571 219.517 145.657 219.425 145.855C218.029 148.87 215.411 151.136 212.239 152.072C212.029 152.135 211.91 152.353 211.973 152.563C212.023 152.735 212.18 152.845 212.349 152.845C212.388 152.845 212.426 152.84 212.462 152.829C215.853 151.828 218.651 149.407 220.142 146.187C220.232 145.988 220.146 145.754 219.948 145.664ZM219.948 145.664C219.75 145.571 219.517 145.657 219.425 145.855C218.029 148.87 215.411 151.136 212.239 152.072C212.029 152.135 211.91 152.353 211.973 152.563C212.023 152.735 212.18 152.845 212.349 152.845C212.388 152.845 212.426 152.84 212.462 152.829C215.853 151.828 218.651 149.407 220.142 146.187C220.232 145.988 220.146 145.754 219.948 145.664ZM219.948 145.664C219.75 145.571 219.517 145.657 219.425 145.855C218.029 148.87 215.411 151.136 212.239 152.072C212.029 152.135 211.91 152.353 211.973 152.563C212.023 152.735 212.18 152.845 212.349 152.845C212.388 152.845 212.426 152.84 212.462 152.829C215.853 151.828 218.651 149.407 220.142 146.187C220.232 145.988 220.146 145.754 219.948 145.664ZM219.948 145.664C219.75 145.571 219.517 145.657 219.425 145.855C218.029 148.87 215.411 151.136 212.239 152.072C212.029 152.135 211.91 152.353 211.973 152.563C212.023 152.735 212.18 152.845 212.349 152.845C212.388 152.845 212.426 152.84 212.462 152.829C215.853 151.828 218.651 149.407 220.142 146.187C220.232 145.988 220.146 145.754 219.948 145.664ZM220.318 129.833C217.281 126.816 213.258 125.159 208.981 125.159H208.925C205.998 125.168 203.191 125.955 200.742 127.418C200.086 127.811 199.457 128.25 198.857 128.737C198.408 129.103 197.975 129.493 197.563 129.91C194.535 132.958 192.875 137.003 192.889 141.301C192.918 150.155 200.131 157.339 208.976 157.336H209.033C213.33 157.323 217.364 155.636 220.394 152.586C223.411 149.549 225.068 145.526 225.068 141.244V141.192C225.053 136.897 223.366 132.861 220.318 129.833ZM219.833 152.031C216.954 154.931 213.116 156.534 209.03 156.547H208.976C200.564 156.547 193.707 149.718 193.678 141.298C193.664 137.213 195.243 133.364 198.122 130.464C198.467 130.117 198.826 129.79 199.195 129.484C199.788 128.988 200.413 128.541 201.064 128.147C203.412 126.722 206.111 125.957 208.927 125.948H208.981C213.046 125.948 216.875 127.524 219.761 130.392C221.211 131.833 222.338 133.511 223.102 135.341C223.867 137.172 224.273 139.152 224.279 141.197C224.293 145.283 222.715 149.131 219.833 152.031ZM219.948 145.664C219.75 145.571 219.517 145.657 219.425 145.855C218.029 148.87 215.411 151.136 212.239 152.072C212.029 152.135 211.91 152.353 211.973 152.563C212.023 152.735 212.18 152.845 212.349 152.845C212.388 152.845 212.426 152.84 212.462 152.829C215.853 151.828 218.651 149.407 220.142 146.187C220.232 145.988 220.146 145.754 219.948 145.664ZM219.948 145.664C219.75 145.571 219.517 145.657 219.425 145.855C218.029 148.87 215.411 151.136 212.239 152.072C212.029 152.135 211.91 152.353 211.973 152.563C212.023 152.735 212.18 152.845 212.349 152.845C212.388 152.845 212.426 152.84 212.462 152.829C215.853 151.828 218.651 149.407 220.142 146.187C220.232 145.988 220.146 145.754 219.948 145.664ZM219.948 145.664C219.75 145.571 219.517 145.657 219.425 145.855C218.029 148.87 215.411 151.136 212.239 152.072C212.029 152.135 211.91 152.353 211.973 152.563C212.023 152.735 212.18 152.845 212.349 152.845C212.388 152.845 212.426 152.84 212.462 152.829C215.853 151.828 218.651 149.407 220.142 146.187C220.232 145.988 220.146 145.754 219.948 145.664ZM140.2 129.19C136.676 129.443 133.422 131.208 131.278 134.034C131.145 134.207 131.179 134.455 131.352 134.586C131.425 134.64 131.508 134.667 131.591 134.667C131.711 134.667 131.828 134.613 131.905 134.512C133.914 131.867 136.958 130.214 140.256 129.977C140.475 129.964 140.637 129.774 140.622 129.556C140.606 129.339 140.419 129.172 140.2 129.19ZM140.2 129.19C136.676 129.443 133.422 131.208 131.278 134.034C131.145 134.207 131.179 134.455 131.352 134.586C131.425 134.64 131.508 134.667 131.591 134.667C131.711 134.667 131.828 134.613 131.905 134.512C133.914 131.867 136.958 130.214 140.256 129.977C140.475 129.964 140.637 129.774 140.622 129.556C140.606 129.339 140.419 129.172 140.2 129.19ZM140.2 129.19C136.676 129.443 133.422 131.208 131.278 134.034C131.145 134.207 131.179 134.455 131.352 134.586C131.425 134.64 131.508 134.667 131.591 134.667C131.711 134.667 131.828 134.613 131.905 134.512C133.914 131.867 136.958 130.214 140.256 129.977C140.475 129.964 140.637 129.774 140.622 129.556C140.606 129.339 140.419 129.172 140.2 129.19ZM157.169 140.917C157.011 136.239 154.845 132.063 151.51 129.224C150.937 128.735 150.331 128.289 149.695 127.883C147.203 126.3 144.252 125.384 141.093 125.384H141.036C136.739 125.4 132.705 127.087 129.675 130.135C126.852 132.978 125.219 136.683 125.023 140.654C125.008 140.915 125.001 141.177 125.001 141.44V141.528C125.017 145.826 126.703 149.862 129.751 152.89C132.789 155.905 136.811 157.564 141.088 157.564H141.145C145.442 157.551 149.478 155.864 152.506 152.813C155.12 150.182 156.714 146.809 157.092 143.172C157.151 142.611 157.18 142.045 157.18 141.472V141.42C157.18 141.251 157.176 141.084 157.169 140.917ZM151.947 152.259C149.066 155.158 145.228 156.761 141.142 156.775H141.088C137.023 156.775 133.194 155.199 130.308 152.331C127.409 149.449 125.803 145.614 125.79 141.526V141.454C125.79 141.19 125.797 140.929 125.81 140.667C126.004 136.902 127.558 133.389 130.236 130.692C133.116 127.793 136.953 126.187 141.039 126.174H141.093C144.067 126.174 146.847 127.028 149.199 128.505C149.839 128.904 150.446 129.351 151.016 129.84C151.316 130.097 151.607 130.363 151.886 130.643C154.531 133.281 156.222 136.879 156.378 140.866C156.387 141.05 156.391 141.238 156.391 141.425C156.394 141.995 156.364 142.561 156.303 143.12C155.938 146.568 154.425 149.763 151.947 152.259ZM140.2 129.19C136.676 129.443 133.422 131.208 131.278 134.034C131.145 134.207 131.179 134.455 131.352 134.586C131.425 134.64 131.508 134.667 131.591 134.667C131.711 134.667 131.828 134.613 131.905 134.512C133.914 131.867 136.958 130.214 140.256 129.977C140.475 129.964 140.637 129.774 140.622 129.556C140.606 129.339 140.419 129.172 140.2 129.19ZM140.2 129.19C136.676 129.443 133.422 131.208 131.278 134.034C131.145 134.207 131.179 134.455 131.352 134.586C131.425 134.64 131.508 134.667 131.591 134.667C131.711 134.667 131.828 134.613 131.905 134.512C133.914 131.867 136.958 130.214 140.256 129.977C140.475 129.964 140.637 129.774 140.622 129.556C140.606 129.339 140.419 129.172 140.2 129.19ZM140.2 129.19C136.676 129.443 133.422 131.208 131.278 134.034C131.145 134.207 131.179 134.455 131.352 134.586C131.425 134.64 131.508 134.667 131.591 134.667C131.711 134.667 131.828 134.613 131.905 134.512C133.914 131.867 136.958 130.214 140.256 129.977C140.475 129.964 140.637 129.774 140.622 129.556C140.606 129.339 140.419 129.172 140.2 129.19ZM219.948 145.664C219.75 145.571 219.517 145.657 219.425 145.855C218.029 148.87 215.411 151.136 212.239 152.072C212.029 152.135 211.91 152.353 211.973 152.563C212.023 152.735 212.18 152.845 212.349 152.845C212.388 152.845 212.426 152.84 212.462 152.829C215.853 151.828 218.651 149.407 220.142 146.187C220.232 145.988 220.146 145.754 219.948 145.664ZM219.948 145.664C219.75 145.571 219.517 145.657 219.425 145.855C218.029 148.87 215.411 151.136 212.239 152.072C212.029 152.135 211.91 152.353 211.973 152.563C212.023 152.735 212.18 152.845 212.349 152.845C212.388 152.845 212.426 152.84 212.462 152.829C215.853 151.828 218.651 149.407 220.142 146.187C220.232 145.988 220.146 145.754 219.948 145.664ZM220.318 129.833C217.281 126.816 213.258 125.159 208.981 125.159H208.925C205.998 125.168 203.191 125.955 200.742 127.418C200.086 127.811 199.457 128.25 198.857 128.737C198.408 129.103 197.975 129.493 197.563 129.91C194.535 132.958 192.875 137.003 192.889 141.301C192.918 150.155 200.131 157.339 208.976 157.336H209.033C213.33 157.323 217.364 155.636 220.394 152.586C223.411 149.549 225.068 145.526 225.068 141.244V141.192C225.053 136.897 223.366 132.861 220.318 129.833ZM219.833 152.031C216.954 154.931 213.116 156.534 209.03 156.547H208.976C200.564 156.547 193.707 149.718 193.678 141.298C193.664 137.213 195.243 133.364 198.122 130.464C198.467 130.117 198.826 129.79 199.195 129.484C199.788 128.988 200.413 128.541 201.064 128.147C203.412 126.722 206.111 125.957 208.927 125.948H208.981C213.046 125.948 216.875 127.524 219.761 130.392C221.211 131.833 222.338 133.511 223.102 135.341C223.867 137.172 224.273 139.152 224.279 141.197C224.293 145.283 222.715 149.131 219.833 152.031ZM219.948 145.664C219.75 145.571 219.517 145.657 219.425 145.855C218.029 148.87 215.411 151.136 212.239 152.072C212.029 152.135 211.91 152.353 211.973 152.563C212.023 152.735 212.18 152.845 212.349 152.845C212.388 152.845 212.426 152.84 212.462 152.829C215.853 151.828 218.651 149.407 220.142 146.187C220.232 145.988 220.146 145.754 219.948 145.664ZM219.948 145.664C219.75 145.571 219.517 145.657 219.425 145.855C218.029 148.87 215.411 151.136 212.239 152.072C212.029 152.135 211.91 152.353 211.973 152.563C212.023 152.735 212.18 152.845 212.349 152.845C212.388 152.845 212.426 152.84 212.462 152.829C215.853 151.828 218.651 149.407 220.142 146.187C220.232 145.988 220.146 145.754 219.948 145.664ZM219.948 145.664C219.75 145.571 219.517 145.657 219.425 145.855C218.029 148.87 215.411 151.136 212.239 152.072C212.029 152.135 211.91 152.353 211.973 152.563C212.023 152.735 212.18 152.845 212.349 152.845C212.388 152.845 212.426 152.84 212.462 152.829C215.853 151.828 218.651 149.407 220.142 146.187C220.232 145.988 220.146 145.754 219.948 145.664ZM219.948 145.664C219.75 145.571 219.517 145.657 219.425 145.855C218.029 148.87 215.411 151.136 212.239 152.072C212.029 152.135 211.91 152.353 211.973 152.563C212.023 152.735 212.18 152.845 212.349 152.845C212.388 152.845 212.426 152.84 212.462 152.829C215.853 151.828 218.651 149.407 220.142 146.187C220.232 145.988 220.146 145.754 219.948 145.664ZM219.948 145.664C219.75 145.571 219.517 145.657 219.425 145.855C218.029 148.87 215.411 151.136 212.239 152.072C212.029 152.135 211.91 152.353 211.973 152.563C212.023 152.735 212.18 152.845 212.349 152.845C212.388 152.845 212.426 152.84 212.462 152.829C215.853 151.828 218.651 149.407 220.142 146.187C220.232 145.988 220.146 145.754 219.948 145.664ZM220.318 129.833C217.281 126.816 213.258 125.159 208.981 125.159H208.925C205.998 125.168 203.191 125.955 200.742 127.418C200.086 127.811 199.457 128.25 198.857 128.737C198.408 129.103 197.975 129.493 197.563 129.91C194.535 132.958 192.875 137.003 192.889 141.301C192.918 150.155 200.131 157.339 208.976 157.336H209.033C213.33 157.323 217.364 155.636 220.394 152.586C223.411 149.549 225.068 145.526 225.068 141.244V141.192C225.053 136.897 223.366 132.861 220.318 129.833ZM219.833 152.031C216.954 154.931 213.116 156.534 209.03 156.547H208.976C200.564 156.547 193.707 149.718 193.678 141.298C193.664 137.213 195.243 133.364 198.122 130.464C198.467 130.117 198.826 129.79 199.195 129.484C199.788 128.988 200.413 128.541 201.064 128.147C203.412 126.722 206.111 125.957 208.927 125.948H208.981C213.046 125.948 216.875 127.524 219.761 130.392C221.211 131.833 222.338 133.511 223.102 135.341C223.867 137.172 224.273 139.152 224.279 141.197C224.293 145.283 222.715 149.131 219.833 152.031ZM219.948 145.664C219.75 145.571 219.517 145.657 219.425 145.855C218.029 148.87 215.411 151.136 212.239 152.072C212.029 152.135 211.91 152.353 211.973 152.563C212.023 152.735 212.18 152.845 212.349 152.845C212.388 152.845 212.426 152.84 212.462 152.829C215.853 151.828 218.651 149.407 220.142 146.187C220.232 145.988 220.146 145.754 219.948 145.664ZM220.318 129.833C217.281 126.816 213.258 125.159 208.981 125.159H208.925C205.998 125.168 203.191 125.955 200.742 127.418C200.086 127.811 199.457 128.25 198.857 128.737C198.408 129.103 197.975 129.493 197.563 129.91C194.535 132.958 192.875 137.003 192.889 141.301C192.918 150.155 200.131 157.339 208.976 157.336H209.033C213.33 157.323 217.364 155.636 220.394 152.586C223.411 149.549 225.068 145.526 225.068 141.244V141.192C225.053 136.897 223.366 132.861 220.318 129.833ZM219.833 152.031C216.954 154.931 213.116 156.534 209.03 156.547H208.976C200.564 156.547 193.707 149.718 193.678 141.298C193.664 137.213 195.243 133.364 198.122 130.464C198.467 130.117 198.826 129.79 199.195 129.484C199.788 128.988 200.413 128.541 201.064 128.147C203.412 126.722 206.111 125.957 208.927 125.948H208.981C213.046 125.948 216.875 127.524 219.761 130.392C221.211 131.833 222.338 133.511 223.102 135.341C223.867 137.172 224.273 139.152 224.279 141.197C224.293 145.283 222.715 149.131 219.833 152.031ZM219.948 145.664C219.75 145.571 219.517 145.657 219.425 145.855C218.029 148.87 215.411 151.136 212.239 152.072C212.029 152.135 211.91 152.353 211.973 152.563C212.023 152.735 212.18 152.845 212.349 152.845C212.388 152.845 212.426 152.84 212.462 152.829C215.853 151.828 218.651 149.407 220.142 146.187C220.232 145.988 220.146 145.754 219.948 145.664ZM208.979 122.226H208.915C205.615 122.237 202.444 123.085 199.649 124.663C198.981 125.04 198.336 125.457 197.714 125.917C196.929 126.494 196.183 127.139 195.484 127.842C191.903 131.447 189.94 136.23 189.958 141.312C189.976 146.392 191.969 151.163 195.574 154.743C197.466 156.622 199.682 158.056 202.097 158.989C204.259 159.83 206.584 160.268 208.976 160.268H209.042C210.505 160.263 211.941 160.094 213.33 159.769C216.769 158.971 219.923 157.219 222.473 154.653C226.04 151.061 228 146.302 228 141.244V141.183C227.964 130.717 219.438 122.226 208.979 122.226ZM221.914 154.096C219.368 156.66 216.192 158.374 212.733 159.093C211.531 159.345 210.295 159.474 209.04 159.478C209.019 159.478 208.999 159.481 208.976 159.481C207.529 159.481 206.117 159.312 204.767 158.989C196.76 157.088 190.776 149.891 190.747 141.31C190.731 136.439 192.611 131.853 196.043 128.399C196.661 127.777 197.317 127.204 198.005 126.685C198.62 126.216 199.263 125.793 199.93 125.412C202.636 123.858 205.714 123.026 208.918 123.015H208.979C213.991 123.015 218.541 125.051 221.842 128.338C225.143 131.628 227.195 136.171 227.21 141.186C227.226 146.056 225.346 150.642 221.914 154.096ZM208.981 125.159H208.925C205.998 125.168 203.191 125.955 200.742 127.418C200.086 127.811 199.457 128.25 198.857 128.737C198.408 129.103 197.975 129.493 197.563 129.91C194.535 132.958 192.875 137.003 192.889 141.301C192.918 150.155 200.131 157.339 208.976 157.336H209.033C213.33 157.323 217.364 155.636 220.394 152.586C223.411 149.549 225.068 145.526 225.068 141.244V141.192C225.053 136.897 223.366 132.861 220.318 129.833C217.281 126.816 213.258 125.159 208.981 125.159ZM224.279 141.197C224.293 145.283 222.715 149.131 219.833 152.031C216.954 154.931 213.116 156.534 209.03 156.547H208.976C200.564 156.547 193.707 149.718 193.678 141.298C193.664 137.213 195.243 133.364 198.122 130.464C198.467 130.117 198.826 129.79 199.195 129.484C199.788 128.988 200.413 128.541 201.064 128.147C203.412 126.722 206.111 125.957 208.927 125.948H208.981C213.046 125.948 216.875 127.524 219.761 130.392C221.211 131.833 222.338 133.511 223.102 135.341C223.867 137.172 224.273 139.152 224.279 141.197ZM219.425 145.855C218.029 148.87 215.411 151.136 212.239 152.072C212.029 152.135 211.91 152.353 211.973 152.563C212.023 152.735 212.18 152.845 212.349 152.845C212.388 152.845 212.426 152.84 212.462 152.829C215.853 151.828 218.651 149.407 220.142 146.187C220.232 145.988 220.146 145.754 219.948 145.664C219.75 145.571 219.517 145.657 219.425 145.855ZM219.948 145.664C219.75 145.571 219.517 145.657 219.425 145.855C218.029 148.87 215.411 151.136 212.239 152.072C212.029 152.135 211.91 152.353 211.973 152.563C212.023 152.735 212.18 152.845 212.349 152.845C212.388 152.845 212.426 152.84 212.462 152.829C215.853 151.828 218.651 149.407 220.142 146.187C220.232 145.988 220.146 145.754 219.948 145.664ZM219.948 145.664C219.75 145.571 219.517 145.657 219.425 145.855C218.029 148.87 215.411 151.136 212.239 152.072C212.029 152.135 211.91 152.353 211.973 152.563C212.023 152.735 212.18 152.845 212.349 152.845C212.388 152.845 212.426 152.84 212.462 152.829C215.853 151.828 218.651 149.407 220.142 146.187C220.232 145.988 220.146 145.754 219.948 145.664ZM220.318 129.833C217.281 126.816 213.258 125.159 208.981 125.159H208.925C205.998 125.168 203.191 125.955 200.742 127.418C200.086 127.811 199.457 128.25 198.857 128.737C198.408 129.103 197.975 129.493 197.563 129.91C194.535 132.958 192.875 137.003 192.889 141.301C192.918 150.155 200.131 157.339 208.976 157.336H209.033C213.33 157.323 217.364 155.636 220.394 152.586C223.411 149.549 225.068 145.526 225.068 141.244V141.192C225.053 136.897 223.366 132.861 220.318 129.833ZM219.833 152.031C216.954 154.931 213.116 156.534 209.03 156.547H208.976C200.564 156.547 193.707 149.718 193.678 141.298C193.664 137.213 195.243 133.364 198.122 130.464C198.467 130.117 198.826 129.79 199.195 129.484C199.788 128.988 200.413 128.541 201.064 128.147C203.412 126.722 206.111 125.957 208.927 125.948H208.981C213.046 125.948 216.875 127.524 219.761 130.392C221.211 131.833 222.338 133.511 223.102 135.341C223.867 137.172 224.273 139.152 224.279 141.197C224.293 145.283 222.715 149.131 219.833 152.031ZM219.948 145.664C219.75 145.571 219.517 145.657 219.425 145.855C218.029 148.87 215.411 151.136 212.239 152.072C212.029 152.135 211.91 152.353 211.973 152.563C212.023 152.735 212.18 152.845 212.349 152.845C212.388 152.845 212.426 152.84 212.462 152.829C215.853 151.828 218.651 149.407 220.142 146.187C220.232 145.988 220.146 145.754 219.948 145.664ZM219.948 145.664C219.75 145.571 219.517 145.657 219.425 145.855C218.029 148.87 215.411 151.136 212.239 152.072C212.029 152.135 211.91 152.353 211.973 152.563C212.023 152.735 212.18 152.845 212.349 152.845C212.388 152.845 212.426 152.84 212.462 152.829C215.853 151.828 218.651 149.407 220.142 146.187C220.232 145.988 220.146 145.754 219.948 145.664ZM219.948 145.664C219.75 145.571 219.517 145.657 219.425 145.855C218.029 148.87 215.411 151.136 212.239 152.072C212.029 152.135 211.91 152.353 211.973 152.563C212.023 152.735 212.18 152.845 212.349 152.845C212.388 152.845 212.426 152.84 212.462 152.829C215.853 151.828 218.651 149.407 220.142 146.187C220.232 145.988 220.146 145.754 219.948 145.664ZM220.318 129.833C217.281 126.816 213.258 125.159 208.981 125.159H208.925C205.998 125.168 203.191 125.955 200.742 127.418C200.086 127.811 199.457 128.25 198.857 128.737C198.408 129.103 197.975 129.493 197.563 129.91C194.535 132.958 192.875 137.003 192.889 141.301C192.918 150.155 200.131 157.339 208.976 157.336H209.033C213.33 157.323 217.364 155.636 220.394 152.586C223.411 149.549 225.068 145.526 225.068 141.244V141.192C225.053 136.897 223.366 132.861 220.318 129.833ZM219.833 152.031C216.954 154.931 213.116 156.534 209.03 156.547H208.976C200.564 156.547 193.707 149.718 193.678 141.298C193.664 137.213 195.243 133.364 198.122 130.464C198.467 130.117 198.826 129.79 199.195 129.484C199.788 128.988 200.413 128.541 201.064 128.147C203.412 126.722 206.111 125.957 208.927 125.948H208.981C213.046 125.948 216.875 127.524 219.761 130.392C221.211 131.833 222.338 133.511 223.102 135.341C223.867 137.172 224.273 139.152 224.279 141.197C224.293 145.283 222.715 149.131 219.833 152.031ZM219.948 145.664C219.75 145.571 219.517 145.657 219.425 145.855C218.029 148.87 215.411 151.136 212.239 152.072C212.029 152.135 211.91 152.353 211.973 152.563C212.023 152.735 212.18 152.845 212.349 152.845C212.388 152.845 212.426 152.84 212.462 152.829C215.853 151.828 218.651 149.407 220.142 146.187C220.232 145.988 220.146 145.754 219.948 145.664ZM219.948 145.664C219.75 145.571 219.517 145.657 219.425 145.855C218.029 148.87 215.411 151.136 212.239 152.072C212.029 152.135 211.91 152.353 211.973 152.563C212.023 152.735 212.18 152.845 212.349 152.845C212.388 152.845 212.426 152.84 212.462 152.829C215.853 151.828 218.651 149.407 220.142 146.187C220.232 145.988 220.146 145.754 219.948 145.664ZM219.948 145.664C219.75 145.571 219.517 145.657 219.425 145.855C218.029 148.87 215.411 151.136 212.239 152.072C212.029 152.135 211.91 152.353 211.973 152.563C212.023 152.735 212.18 152.845 212.349 152.845C212.388 152.845 212.426 152.84 212.462 152.829C215.853 151.828 218.651 149.407 220.142 146.187C220.232 145.988 220.146 145.754 219.948 145.664ZM140.2 129.19C136.676 129.443 133.422 131.208 131.278 134.034C131.145 134.207 131.179 134.455 131.352 134.586C131.425 134.64 131.508 134.667 131.591 134.667C131.711 134.667 131.828 134.613 131.905 134.512C133.914 131.867 136.958 130.214 140.256 129.977C140.475 129.964 140.637 129.774 140.622 129.556C140.606 129.339 140.419 129.172 140.2 129.19ZM140.2 129.19C136.676 129.443 133.422 131.208 131.278 134.034C131.145 134.207 131.179 134.455 131.352 134.586C131.425 134.64 131.508 134.667 131.591 134.667C131.711 134.667 131.828 134.613 131.905 134.512C133.914 131.867 136.958 130.214 140.256 129.977C140.475 129.964 140.637 129.774 140.622 129.556C140.606 129.339 140.419 129.172 140.2 129.19ZM157.169 140.917C157.011 136.239 154.845 132.063 151.51 129.224C150.937 128.735 150.331 128.289 149.695 127.883C147.203 126.3 144.252 125.384 141.093 125.384H141.036C136.739 125.4 132.705 127.087 129.675 130.135C126.852 132.978 125.219 136.683 125.023 140.654C125.008 140.915 125.001 141.177 125.001 141.44V141.528C125.017 145.826 126.703 149.862 129.751 152.89C132.789 155.905 136.811 157.564 141.088 157.564H141.145C145.442 157.551 149.478 155.864 152.506 152.813C155.12 150.182 156.714 146.809 157.092 143.172C157.151 142.611 157.18 142.045 157.18 141.472V141.42C157.18 141.251 157.176 141.084 157.169 140.917ZM151.947 152.259C149.066 155.158 145.228 156.761 141.142 156.775H141.088C137.023 156.775 133.194 155.199 130.308 152.331C127.409 149.449 125.803 145.614 125.79 141.526V141.454C125.79 141.19 125.797 140.929 125.81 140.667C126.004 136.902 127.558 133.389 130.236 130.692C133.116 127.793 136.953 126.187 141.039 126.174H141.093C144.067 126.174 146.847 127.028 149.199 128.505C149.839 128.904 150.446 129.351 151.016 129.84C151.316 130.097 151.607 130.363 151.886 130.643C154.531 133.281 156.222 136.879 156.378 140.866C156.387 141.05 156.391 141.238 156.391 141.425C156.394 141.995 156.364 142.561 156.303 143.12C155.938 146.568 154.425 149.763 151.947 152.259ZM140.2 129.19C136.676 129.443 133.422 131.208 131.278 134.034C131.145 134.207 131.179 134.455 131.352 134.586C131.425 134.64 131.508 134.667 131.591 134.667C131.711 134.667 131.828 134.613 131.905 134.512C133.914 131.867 136.958 130.214 140.256 129.977C140.475 129.964 140.637 129.774 140.622 129.556C140.606 129.339 140.419 129.172 140.2 129.19ZM140.2 129.19C136.676 129.443 133.422 131.208 131.278 134.034C131.145 134.207 131.179 134.455 131.352 134.586C131.425 134.64 131.508 134.667 131.591 134.667C131.711 134.667 131.828 134.613 131.905 134.512C133.914 131.867 136.958 130.214 140.256 129.977C140.475 129.964 140.637 129.774 140.622 129.556C140.606 129.339 140.419 129.172 140.2 129.19ZM140.2 129.19C136.676 129.443 133.422 131.208 131.278 134.034C131.145 134.207 131.179 134.455 131.352 134.586C131.425 134.64 131.508 134.667 131.591 134.667C131.711 134.667 131.828 134.613 131.905 134.512C133.914 131.867 136.958 130.214 140.256 129.977C140.475 129.964 140.637 129.774 140.622 129.556C140.606 129.339 140.419 129.172 140.2 129.19ZM140.2 129.19C136.676 129.443 133.422 131.208 131.278 134.034C131.145 134.207 131.179 134.455 131.352 134.586C131.425 134.64 131.508 134.667 131.591 134.667C131.711 134.667 131.828 134.613 131.905 134.512C133.914 131.867 136.958 130.214 140.256 129.977C140.475 129.964 140.637 129.774 140.622 129.556C140.606 129.339 140.419 129.172 140.2 129.19ZM140.2 129.19C136.676 129.443 133.422 131.208 131.278 134.034C131.145 134.207 131.179 134.455 131.352 134.586C131.425 134.64 131.508 134.667 131.591 134.667C131.711 134.667 131.828 134.613 131.905 134.512C133.914 131.867 136.958 130.214 140.256 129.977C140.475 129.964 140.637 129.774 140.622 129.556C140.606 129.339 140.419 129.172 140.2 129.19ZM157.169 140.917C157.011 136.239 154.845 132.063 151.51 129.224C150.937 128.735 150.331 128.289 149.695 127.883C147.203 126.3 144.252 125.384 141.093 125.384H141.036C136.739 125.4 132.705 127.087 129.675 130.135C126.852 132.978 125.219 136.683 125.023 140.654C125.008 140.915 125.001 141.177 125.001 141.44V141.528C125.017 145.826 126.703 149.862 129.751 152.89C132.789 155.905 136.811 157.564 141.088 157.564H141.145C145.442 157.551 149.478 155.864 152.506 152.813C155.12 150.182 156.714 146.809 157.092 143.172C157.151 142.611 157.18 142.045 157.18 141.472V141.42C157.18 141.251 157.176 141.084 157.169 140.917ZM151.947 152.259C149.066 155.158 145.228 156.761 141.142 156.775H141.088C137.023 156.775 133.194 155.199 130.308 152.331C127.409 149.449 125.803 145.614 125.79 141.526V141.454C125.79 141.19 125.797 140.929 125.81 140.667C126.004 136.902 127.558 133.389 130.236 130.692C133.116 127.793 136.953 126.187 141.039 126.174H141.093C144.067 126.174 146.847 127.028 149.199 128.505C149.839 128.904 150.446 129.351 151.016 129.84C151.316 130.097 151.607 130.363 151.886 130.643C154.531 133.281 156.222 136.879 156.378 140.866C156.387 141.05 156.391 141.238 156.391 141.425C156.394 141.995 156.364 142.561 156.303 143.12C155.938 146.568 154.425 149.763 151.947 152.259ZM140.2 129.19C136.676 129.443 133.422 131.208 131.278 134.034C131.145 134.207 131.179 134.455 131.352 134.586C131.425 134.64 131.508 134.667 131.591 134.667C131.711 134.667 131.828 134.613 131.905 134.512C133.914 131.867 136.958 130.214 140.256 129.977C140.475 129.964 140.637 129.774 140.622 129.556C140.606 129.339 140.419 129.172 140.2 129.19ZM157.169 140.917C157.011 136.239 154.845 132.063 151.51 129.224C150.937 128.735 150.331 128.289 149.695 127.883C147.203 126.3 144.252 125.384 141.093 125.384H141.036C136.739 125.4 132.705 127.087 129.675 130.135C126.852 132.978 125.219 136.683 125.023 140.654C125.008 140.915 125.001 141.177 125.001 141.44V141.528C125.017 145.826 126.703 149.862 129.751 152.89C132.789 155.905 136.811 157.564 141.088 157.564H141.145C145.442 157.551 149.478 155.864 152.506 152.813C155.12 150.182 156.714 146.809 157.092 143.172C157.151 142.611 157.18 142.045 157.18 141.472V141.42C157.18 141.251 157.176 141.084 157.169 140.917ZM151.947 152.259C149.066 155.158 145.228 156.761 141.142 156.775H141.088C137.023 156.775 133.194 155.199 130.308 152.331C127.409 149.449 125.803 145.614 125.79 141.526V141.454C125.79 141.19 125.797 140.929 125.81 140.667C126.004 136.902 127.558 133.389 130.236 130.692C133.116 127.793 136.953 126.187 141.039 126.174H141.093C144.067 126.174 146.847 127.028 149.199 128.505C149.839 128.904 150.446 129.351 151.016 129.84C151.316 130.097 151.607 130.363 151.886 130.643C154.531 133.281 156.222 136.879 156.378 140.866C156.387 141.05 156.391 141.238 156.391 141.425C156.394 141.995 156.364 142.561 156.303 143.12C155.938 146.568 154.425 149.763 151.947 152.259ZM140.2 129.19C136.676 129.443 133.422 131.208 131.278 134.034C131.145 134.207 131.179 134.455 131.352 134.586C131.425 134.64 131.508 134.667 131.591 134.667C131.711 134.667 131.828 134.613 131.905 134.512C133.914 131.867 136.958 130.214 140.256 129.977C140.475 129.964 140.637 129.774 140.622 129.556C140.606 129.339 140.419 129.172 140.2 129.19ZM160.107 141.111C160.001 135.429 157.392 130.352 153.341 126.936C152.768 126.451 152.164 125.998 151.535 125.585C148.536 123.605 144.944 122.453 141.093 122.453H141.027C130.852 122.489 122.545 130.546 122.09 140.604C122.079 140.866 122.072 141.127 122.072 141.391C122.07 141.441 122.07 141.49 122.07 141.54C122.088 146.62 124.081 151.388 127.686 154.969C129.431 156.703 131.449 158.056 133.645 158.989C135.97 159.977 138.489 160.495 141.088 160.495H141.154C143.762 160.486 146.247 159.952 148.509 158.989C154.772 156.329 159.322 150.401 160.019 143.364C160.082 142.723 160.114 142.07 160.112 141.411C160.112 141.312 160.109 141.211 160.107 141.111ZM146.161 158.989C144.57 159.451 142.89 159.699 141.151 159.706H141.088C139.341 159.706 137.632 159.463 135.999 158.989C133.1 158.153 130.441 156.597 128.243 154.41C124.787 150.978 122.875 146.405 122.859 141.535V141.404C122.859 141.141 122.866 140.879 122.879 140.618C123.325 130.99 131.285 123.276 141.03 123.242H141.093C144.759 123.242 148.177 124.332 151.039 126.203C151.67 126.613 152.274 127.064 152.847 127.551C153.23 127.874 153.6 128.212 153.954 128.566C157.174 131.779 159.207 136.182 159.318 141.059C159.32 141.177 159.322 141.296 159.322 141.413C159.325 142.054 159.293 142.687 159.23 143.312C158.479 150.789 153.192 156.951 146.161 158.989ZM151.51 129.224C150.937 128.735 150.331 128.289 149.695 127.883C147.203 126.3 144.252 125.384 141.093 125.384H141.036C136.739 125.4 132.705 127.087 129.675 130.135C126.852 132.978 125.219 136.683 125.023 140.654C125.008 140.915 125.001 141.177 125.001 141.44V141.528C125.017 145.826 126.703 149.862 129.751 152.89C132.789 155.905 136.811 157.564 141.088 157.564H141.145C145.442 157.551 149.478 155.864 152.506 152.813C155.12 150.182 156.714 146.809 157.092 143.172C157.151 142.611 157.18 142.045 157.18 141.472V141.42C157.18 141.251 157.176 141.084 157.169 140.917C157.011 136.239 154.845 132.063 151.51 129.224ZM151.947 152.259C149.066 155.158 145.228 156.761 141.142 156.775H141.088C137.023 156.775 133.194 155.199 130.308 152.331C127.409 149.449 125.803 145.614 125.79 141.526V141.454C125.79 141.19 125.797 140.929 125.81 140.667C126.004 136.902 127.558 133.389 130.236 130.692C133.116 127.793 136.953 126.187 141.039 126.174H141.093C144.067 126.174 146.847 127.028 149.199 128.505C149.839 128.904 150.446 129.351 151.016 129.84C151.316 130.097 151.607 130.363 151.886 130.643C154.531 133.281 156.222 136.879 156.378 140.866C156.387 141.05 156.391 141.238 156.391 141.425C156.394 141.995 156.364 142.561 156.303 143.12C155.938 146.568 154.425 149.763 151.947 152.259ZM140.2 129.19C136.676 129.443 133.422 131.208 131.278 134.034C131.145 134.207 131.179 134.455 131.352 134.586C131.425 134.64 131.508 134.667 131.591 134.667C131.711 134.667 131.828 134.613 131.905 134.512C133.914 131.867 136.958 130.214 140.256 129.977C140.475 129.964 140.637 129.774 140.622 129.556C140.606 129.339 140.419 129.172 140.2 129.19ZM140.2 129.19C136.676 129.443 133.422 131.208 131.278 134.034C131.145 134.207 131.179 134.455 131.352 134.586C131.425 134.64 131.508 134.667 131.591 134.667C131.711 134.667 131.828 134.613 131.905 134.512C133.914 131.867 136.958 130.214 140.256 129.977C140.475 129.964 140.637 129.774 140.622 129.556C140.606 129.339 140.419 129.172 140.2 129.19ZM140.2 129.19C136.676 129.443 133.422 131.208 131.278 134.034C131.145 134.207 131.179 134.455 131.352 134.586C131.425 134.64 131.508 134.667 131.591 134.667C131.711 134.667 131.828 134.613 131.905 134.512C133.914 131.867 136.958 130.214 140.256 129.977C140.475 129.964 140.637 129.774 140.622 129.556C140.606 129.339 140.419 129.172 140.2 129.19ZM157.169 140.917C157.011 136.239 154.845 132.063 151.51 129.224C150.937 128.735 150.331 128.289 149.695 127.883C147.203 126.3 144.252 125.384 141.093 125.384H141.036C136.739 125.4 132.705 127.087 129.675 130.135C126.852 132.978 125.219 136.683 125.023 140.654C125.008 140.915 125.001 141.177 125.001 141.44V141.528C125.017 145.826 126.703 149.862 129.751 152.89C132.789 155.905 136.811 157.564 141.088 157.564H141.145C145.442 157.551 149.478 155.864 152.506 152.813C155.12 150.182 156.714 146.809 157.092 143.172C157.151 142.611 157.18 142.045 157.18 141.472V141.42C157.18 141.251 157.176 141.084 157.169 140.917ZM151.947 152.259C149.066 155.158 145.228 156.761 141.142 156.775H141.088C137.023 156.775 133.194 155.199 130.308 152.331C127.409 149.449 125.803 145.614 125.79 141.526V141.454C125.79 141.19 125.797 140.929 125.81 140.667C126.004 136.902 127.558 133.389 130.236 130.692C133.116 127.793 136.953 126.187 141.039 126.174H141.093C144.067 126.174 146.847 127.028 149.199 128.505C149.839 128.904 150.446 129.351 151.016 129.84C151.316 130.097 151.607 130.363 151.886 130.643C154.531 133.281 156.222 136.879 156.378 140.866C156.387 141.05 156.391 141.238 156.391 141.425C156.394 141.995 156.364 142.561 156.303 143.12C155.938 146.568 154.425 149.763 151.947 152.259ZM140.2 129.19C136.676 129.443 133.422 131.208 131.278 134.034C131.145 134.207 131.179 134.455 131.352 134.586C131.425 134.64 131.508 134.667 131.591 134.667C131.711 134.667 131.828 134.613 131.905 134.512C133.914 131.867 136.958 130.214 140.256 129.977C140.475 129.964 140.637 129.774 140.622 129.556C140.606 129.339 140.419 129.172 140.2 129.19ZM140.2 129.19C136.676 129.443 133.422 131.208 131.278 134.034C131.145 134.207 131.179 134.455 131.352 134.586C131.425 134.64 131.508 134.667 131.591 134.667C131.711 134.667 131.828 134.613 131.905 134.512C133.914 131.867 136.958 130.214 140.256 129.977C140.475 129.964 140.637 129.774 140.622 129.556C140.606 129.339 140.419 129.172 140.2 129.19ZM140.2 129.19C136.676 129.443 133.422 131.208 131.278 134.034C131.145 134.207 131.179 134.455 131.352 134.586C131.425 134.64 131.508 134.667 131.591 134.667C131.711 134.667 131.828 134.613 131.905 134.512C133.914 131.867 136.958 130.214 140.256 129.977C140.475 129.964 140.637 129.774 140.622 129.556C140.606 129.339 140.419 129.172 140.2 129.19ZM157.169 140.917C157.011 136.239 154.845 132.063 151.51 129.224C150.937 128.735 150.331 128.289 149.695 127.883C147.203 126.3 144.252 125.384 141.093 125.384H141.036C136.739 125.4 132.705 127.087 129.675 130.135C126.852 132.978 125.219 136.683 125.023 140.654C125.008 140.915 125.001 141.177 125.001 141.44V141.528C125.017 145.826 126.703 149.862 129.751 152.89C132.789 155.905 136.811 157.564 141.088 157.564H141.145C145.442 157.551 149.478 155.864 152.506 152.813C155.12 150.182 156.714 146.809 157.092 143.172C157.151 142.611 157.18 142.045 157.18 141.472V141.42C157.18 141.251 157.176 141.084 157.169 140.917ZM151.947 152.259C149.066 155.158 145.228 156.761 141.142 156.775H141.088C137.023 156.775 133.194 155.199 130.308 152.331C127.409 149.449 125.803 145.614 125.79 141.526V141.454C125.79 141.19 125.797 140.929 125.81 140.667C126.004 136.902 127.558 133.389 130.236 130.692C133.116 127.793 136.953 126.187 141.039 126.174H141.093C144.067 126.174 146.847 127.028 149.199 128.505C149.839 128.904 150.446 129.351 151.016 129.84C151.316 130.097 151.607 130.363 151.886 130.643C154.531 133.281 156.222 136.879 156.378 140.866C156.387 141.05 156.391 141.238 156.391 141.425C156.394 141.995 156.364 142.561 156.303 143.12C155.938 146.568 154.425 149.763 151.947 152.259ZM140.2 129.19C136.676 129.443 133.422 131.208 131.278 134.034C131.145 134.207 131.179 134.455 131.352 134.586C131.425 134.64 131.508 134.667 131.591 134.667C131.711 134.667 131.828 134.613 131.905 134.512C133.914 131.867 136.958 130.214 140.256 129.977C140.475 129.964 140.637 129.774 140.622 129.556C140.606 129.339 140.419 129.172 140.2 129.19ZM140.2 129.19C136.676 129.443 133.422 131.208 131.278 134.034C131.145 134.207 131.179 134.455 131.352 134.586C131.425 134.64 131.508 134.667 131.591 134.667C131.711 134.667 131.828 134.613 131.905 134.512C133.914 131.867 136.958 130.214 140.256 129.977C140.475 129.964 140.637 129.774 140.622 129.556C140.606 129.339 140.419 129.172 140.2 129.19ZM140.2 129.19C136.676 129.443 133.422 131.208 131.278 134.034C131.145 134.207 131.179 134.455 131.352 134.586C131.425 134.64 131.508 134.667 131.591 134.667C131.711 134.667 131.828 134.613 131.905 134.512C133.914 131.867 136.958 130.214 140.256 129.977C140.475 129.964 140.637 129.774 140.622 129.556C140.606 129.339 140.419 129.172 140.2 129.19Z" fill="#1E4847"/>
<path d="M207.515 111.597C205.387 112.224 204.314 112.262 204.111 112.262H204.075C203.45 112.219 202.913 112.684 202.868 113.306C202.823 113.926 203.29 114.467 203.91 114.512C204.05 114.521 205.346 114.584 208.151 113.759C210.814 112.977 212.219 110.456 211.644 107.489C211.127 104.812 208.839 103.153 205.666 103.153H205.635C205.502 103.153 204.816 103.169 203.955 103.193C202.293 103.239 199.973 103.308 199.689 103.32C199.543 103.326 199.407 103.358 199.281 103.414C199.148 103.369 199.004 103.349 198.855 103.358C198.248 103.394 197.128 103.446 195.971 103.496C195.822 103.5 195.673 103.507 195.525 103.514C195.155 103.529 194.787 103.545 194.44 103.559C193.351 103.604 192.436 103.638 192.158 103.649C192.046 103.642 191.926 103.653 191.806 103.685C191.204 103.843 190.844 104.458 191.002 105.06C191.02 105.128 192.248 109.798 194.397 116.395L183.331 116.641L180.93 116.695C180.756 116.699 180.591 116.742 180.445 116.817C180.305 116.762 180.152 116.733 179.994 116.738L174.395 116.916L174.075 116.927L162.29 117.301L159.537 117.389L156.757 112.221L156.335 111.437C156.335 111.437 156.335 111.435 156.333 111.435L154.346 111.441C154.22 111.68 154.179 111.96 154.245 112.23C154.265 112.323 154.301 112.415 154.348 112.506L157.424 118.224L151.535 125.585L151.039 126.203L149.695 127.883L149.199 128.505L141.823 137.723L141.215 138.482L139.796 140.255C139.535 140.584 139.476 141.03 139.645 141.414C139.814 141.799 140.184 142.056 140.604 142.083L142.691 142.221L143.681 142.286L156.303 143.12L157.092 143.172L159.23 143.312L160.019 143.364L164.256 143.643L165.196 143.707L165.48 143.725L171.965 144.153H171.981C172.001 144.155 172.021 144.155 172.041 144.155C172.222 144.155 172.404 144.112 172.576 144.02C172.713 143.946 172.828 143.849 172.921 143.734L176.404 139.95L176.781 139.542L177.424 138.843L183.52 132.221L184.102 131.59C184.127 131.563 184.149 131.533 184.172 131.506C184.264 131.452 184.352 131.382 184.429 131.301L185.376 130.293L195.452 119.567C196.136 121.583 196.893 123.721 197.714 125.917C197.736 125.978 197.759 126.041 197.782 126.102C197.856 126.298 197.928 126.494 198.005 126.686C198.28 127.396 198.566 128.081 198.857 128.737C198.97 128.992 199.083 129.24 199.195 129.484C203.134 137.957 208.063 141.763 208.298 141.939C208.794 142.315 209.499 142.218 209.876 141.722C210.253 141.226 210.156 140.518 209.66 140.142C209.608 140.101 204.812 136.399 201.064 128.147C200.954 127.908 200.846 127.664 200.742 127.418C200.462 126.776 200.192 126.108 199.93 125.412C199.917 125.38 199.906 125.346 199.892 125.312C199.811 125.096 199.73 124.88 199.649 124.663C196.537 116.251 194.379 108.812 193.554 105.852C194.197 105.825 194.992 105.793 195.791 105.759C197.051 105.705 198.316 105.649 198.99 105.608C199.128 105.599 199.258 105.568 199.378 105.516C199.504 105.556 199.642 105.581 199.784 105.572C200.21 105.554 203.615 105.457 205.035 105.421C205.364 105.412 205.585 105.408 205.642 105.408H205.662C206.668 105.408 208.994 105.656 209.43 107.917C209.693 109.277 209.348 111.058 207.515 111.597ZM165.518 141.468H165.503L164.54 141.405L160.107 141.111L159.318 141.06L157.169 140.918L156.378 140.866L143.765 140.034L142.908 139.977L143.46 139.287L151.016 129.84L151.51 129.224L152.847 127.551L153.341 126.936L158.583 120.381L165.412 133.082L167.645 137.231L168.089 138.061L170.084 141.77L165.518 141.468ZM183.574 128.918L182.785 129.757C182.758 129.786 182.731 129.817 182.709 129.849C182.612 129.905 182.521 129.975 182.443 130.061L180.697 131.957L178.801 134.016L178.675 134.153L176.269 136.764L175.766 137.312L175.121 138.011L172.283 141.096L170.168 137.161L169.71 136.309L165.054 127.651L160.729 119.608L163.223 119.529L173.101 119.213L174.826 119.159L180.066 118.992C180.235 118.986 180.395 118.943 180.54 118.871C180.675 118.925 180.821 118.954 180.979 118.95L182.328 118.92L193.195 118.679L183.574 128.918Z" fill="#1E4847"/>
<path d="M143.765 140.034C143.691 139.772 143.59 139.522 143.461 139.288C143.093 138.609 142.521 138.059 141.824 137.723C141.341 137.488 140.8 137.357 140.228 137.357H140.214C139.233 137.36 138.311 137.745 137.619 138.442C136.971 139.094 136.599 139.942 136.557 140.85C136.552 140.916 136.552 140.979 136.552 141.044C136.552 141.247 136.57 141.446 136.602 141.639C136.893 143.378 138.408 144.708 140.228 144.708H140.239C141.822 144.704 143.17 143.694 143.682 142.287C143.826 141.892 143.905 141.464 143.903 141.019C143.903 140.679 143.853 140.347 143.765 140.034ZM140.237 143.77H140.228C138.721 143.77 137.495 142.548 137.49 141.042C137.488 140.311 137.77 139.621 138.286 139.103C138.8 138.584 139.486 138.298 140.218 138.295H140.228C140.575 138.295 140.908 138.361 141.215 138.483C142.234 138.877 142.96 139.867 142.965 141.024V141.033C142.965 141.459 142.868 141.863 142.692 142.221C142.25 143.135 141.317 143.768 140.237 143.77Z" fill="#1E4847"/>
<path d="M177.423 138.843C177.096 138.43 176.724 138.054 176.314 137.718C176.138 137.576 175.955 137.44 175.766 137.312C174.519 136.471 173.006 136.002 171.394 136.056C170.812 136.076 170.249 136.162 169.71 136.309C168.966 136.509 168.271 136.825 167.644 137.231C166.806 137.772 166.084 138.478 165.527 139.301C165.092 139.939 164.756 140.647 164.54 141.404C164.334 142.114 164.233 142.868 164.256 143.643V143.695C164.316 145.447 164.977 147.086 166.136 148.374C166.283 148.538 166.436 148.696 166.598 148.847C167.978 150.137 169.759 150.838 171.638 150.838C171.723 150.838 171.809 150.836 171.895 150.834C173.87 150.766 175.698 149.934 177.047 148.491C177.34 148.177 177.601 147.844 177.829 147.494C178.666 146.229 179.085 144.739 179.033 143.195C178.977 141.546 178.384 140.042 177.423 138.843ZM176.995 147.055C176.808 147.334 176.596 147.6 176.361 147.851C175.773 148.482 175.078 148.978 174.318 149.323C173.556 149.67 172.724 149.866 171.863 149.896C170.138 149.952 168.499 149.339 167.239 148.162C166.889 147.835 166.58 147.474 166.316 147.088C166.068 146.73 165.861 146.351 165.696 145.952C165.597 145.72 165.511 145.483 165.442 145.24C165.299 144.746 165.216 144.232 165.196 143.706C165.194 143.693 165.194 143.677 165.194 143.663C165.169 142.897 165.277 142.157 165.502 141.467C165.505 141.452 165.511 141.434 165.518 141.418C165.976 140.036 166.891 138.854 168.089 138.06C168.713 137.646 169.414 137.337 170.167 137.161C170.573 137.066 170.993 137.007 171.426 136.994C171.5 136.992 171.574 136.989 171.647 136.989C172.921 136.989 174.116 137.361 175.121 138.011C175.579 138.302 175.998 138.653 176.368 139.05C176.515 139.208 176.652 139.37 176.781 139.542C177.565 140.568 178.05 141.839 178.097 143.226C178.142 144.606 177.757 145.934 176.995 147.055Z" fill="#1E4847"/>
<path d="M179.196 131.452C179.133 131.364 179.036 131.306 178.928 131.292L175.958 130.911L170.425 130.203C170.213 130.174 170.021 130.32 169.985 130.53C169.985 130.534 169.983 130.539 169.983 130.543L169.68 132.873C169.667 132.976 169.696 133.085 169.762 133.168C169.827 133.252 169.924 133.303 170.03 133.315L176.134 133.973L178.416 134.219C178.43 134.221 178.443 134.221 178.459 134.221C178.538 134.221 178.612 134.196 178.675 134.154C178.727 134.12 178.772 134.072 178.802 134.016C178.822 133.982 178.835 133.942 178.844 133.901L179.259 131.781L179.264 131.759C179.286 131.653 179.262 131.542 179.196 131.452ZM178.139 133.396L176.091 133.175L170.515 132.573L170.715 131.035L176.008 131.714L178.409 132.023L178.139 133.396Z" fill="#1E4847"/>
<path d="M190.314 91.3537C189.78 90.8396 189.137 90.0099 188.801 89.4079C187.911 87.8048 185.099 82.3979 182.481 78.4318C181.437 76.849 180.423 75.4939 179.575 74.7047C178.24 73.4623 176.842 72.495 175.275 71.8637C174.88 71.7059 174.472 71.5684 174.053 71.4534C172.799 71.1084 171.433 70.9641 169.902 71.0475H169.9C168.921 71.0971 167.877 71.2437 166.757 71.4872C160.768 72.7927 152.649 76.1906 147.708 84.4339C143.808 90.9456 143.636 96.7628 145.512 100.481L163.084 94.6276C163.084 94.6276 163.223 93.2635 167.142 89.5251C171.063 85.7868 174.542 85.9784 176.986 88.4045C179.633 91.0358 182.145 92.9027 183.908 94.5577C185.139 95.7009 192.21 101.678 194.44 103.559C194.866 103.917 195.114 104.127 195.114 104.127L195.13 104.116L195.971 103.496L199.737 100.713L190.314 91.3537Z" fill="#D3D9E5"/>
<path d="M66.1181 125.818C65.9219 125.818 65.7528 125.671 65.728 125.473L62.887 103.167C62.8735 103.061 62.9028 102.955 62.9704 102.871C63.0358 102.788 63.135 102.736 63.241 102.725L73.8856 101.687C74.1044 101.669 74.296 101.825 74.3163 102.041C74.3366 102.258 74.1788 102.452 73.9623 102.472L63.7213 103.471L66.5104 125.376C66.5374 125.592 66.3841 125.788 66.1677 125.818C66.1519 125.815 66.1338 125.818 66.1181 125.818Z" fill="#1E4847"/>
<path d="M66.9706 107.272C66.8691 107.272 66.7699 107.234 66.6932 107.157L63.232 103.723C63.0764 103.57 63.0764 103.319 63.2297 103.166C63.383 103.013 63.6333 103.01 63.7867 103.164L67.248 106.598C67.4035 106.751 67.4035 107.002 67.2502 107.155C67.1735 107.234 67.0721 107.272 66.9706 107.272Z" fill="#1E4847"/>
<path d="M136.739 140.852L136.556 140.85L125.81 140.667L125.023 140.654L122.879 140.617L122.09 140.604L108.352 140.369L108.886 126.877C108.891 126.785 108.861 126.692 108.805 126.62L103.975 119.114C103.901 118.999 103.77 118.934 103.635 118.934L98.4151 119.049L98.043 119.058C97.8288 119.062 97.6575 119.238 97.6575 119.45L97.6597 119.477C97.671 119.684 97.8446 119.847 98.0521 119.847H98.0611L98.4805 119.838L103.43 119.727L107.759 126.453L99.0126 126.298L98.2189 126.284L70.4247 125.788L69.622 125.772L66.382 125.716L65.8453 125.707L61.8612 125.635L56.5084 120.769L65.1261 120.767H65.1689C65.3876 120.767 65.5635 120.591 65.5635 120.372C65.5635 120.153 65.3876 119.978 65.1689 119.978H65.0268L55.4893 119.98C55.4893 119.98 55.4893 119.98 55.487 119.98H55.4825C55.4397 119.98 55.3991 119.989 55.3608 120C55.3021 120.02 55.2458 120.054 55.2007 120.104C55.1917 120.113 55.1826 120.124 55.1736 120.135C55.1285 120.196 55.1015 120.266 55.0947 120.336C54.1207 129.468 52.619 143.249 52.4702 143.941C52.4612 143.966 52.4567 143.988 52.4544 144.011C52.4521 144.027 52.4521 144.04 52.4521 144.056C52.4521 144.101 52.4589 144.144 52.4724 144.184C52.4905 144.236 52.5198 144.286 52.5581 144.329C52.5829 144.354 52.61 144.376 52.6415 144.394L60.1792 149.176C60.2445 149.217 60.3167 149.237 60.3888 149.237H107.621C107.833 149.237 108.007 149.07 108.016 148.859L108.32 141.156L122.072 141.391L122.859 141.404L125.001 141.44L125.79 141.454L136.601 141.639L136.725 141.641C136.944 141.652 137.122 141.472 137.127 141.256C137.129 141.037 136.955 140.856 136.739 140.852ZM60.0348 148.148L53.2751 143.86C53.6111 141.533 55.0699 128 55.7982 121.186L61.2998 126.189L60.0348 148.148ZM107.242 148.448H60.8082L62.0776 126.428L108.081 127.249L107.242 148.448Z" fill="#1E4847"/>
<path d="M85.1461 138.45C79.8316 137.902 75.0561 141.785 74.5082 147.104C74.4631 147.555 74.4473 148.004 74.4631 148.448C74.4721 148.712 74.4902 148.975 74.524 149.237C74.7337 151.048 75.4529 152.766 76.6322 154.213C78.2669 156.222 80.5847 157.476 83.1619 157.74C83.4979 157.773 83.8293 157.792 84.1608 157.792C86.6117 157.792 88.8935 156.86 90.6251 155.307C92.3252 153.785 93.4954 151.665 93.7795 149.237C93.7863 149.187 93.793 149.138 93.7975 149.088C93.8201 148.874 93.8336 148.66 93.8426 148.448C94.0298 143.393 90.2486 138.976 85.1461 138.45ZM93.0129 149.007C93.0039 149.084 92.9971 149.16 92.9858 149.237C92.6927 151.512 91.5586 153.553 89.7728 155.005C87.9284 156.506 85.6083 157.199 83.2408 156.955C80.8756 156.711 78.7449 155.562 77.2432 153.715C76.1835 152.409 75.5228 150.867 75.3154 149.237C75.2838 148.975 75.2613 148.714 75.2523 148.448C75.2365 148.031 75.25 147.607 75.2951 147.183C75.7641 142.608 79.6423 139.19 84.1472 139.19C84.4494 139.19 84.756 139.203 85.0649 139.237C89.642 139.706 93.0602 143.582 93.0602 148.087C93.0602 148.207 93.058 148.328 93.0535 148.448C93.0444 148.633 93.0309 148.82 93.0129 149.007ZM85.1461 138.45C79.8316 137.902 75.0561 141.785 74.5082 147.104C74.4631 147.555 74.4473 148.004 74.4631 148.448C74.4721 148.712 74.4902 148.975 74.524 149.237C74.7337 151.048 75.4529 152.766 76.6322 154.213C78.2669 156.222 80.5847 157.476 83.1619 157.74C83.4979 157.773 83.8293 157.792 84.1608 157.792C86.6117 157.792 88.8935 156.86 90.6251 155.307C92.3252 153.785 93.4954 151.665 93.7795 149.237C93.7863 149.187 93.793 149.138 93.7975 149.088C93.8201 148.874 93.8336 148.66 93.8426 148.448C94.0298 143.393 90.2486 138.976 85.1461 138.45ZM93.0129 149.007C93.0039 149.084 92.9971 149.16 92.9858 149.237C92.6927 151.512 91.5586 153.553 89.7728 155.005C87.9284 156.506 85.6083 157.199 83.2408 156.955C80.8756 156.711 78.7449 155.562 77.2432 153.715C76.1835 152.409 75.5228 150.867 75.3154 149.237C75.2838 148.975 75.2613 148.714 75.2523 148.448C75.2365 148.031 75.25 147.607 75.2951 147.183C75.7641 142.608 79.6423 139.19 84.1472 139.19C84.4494 139.19 84.756 139.203 85.0649 139.237C89.642 139.706 93.0602 143.582 93.0602 148.087C93.0602 148.207 93.058 148.328 93.0535 148.448C93.0444 148.633 93.0309 148.82 93.0129 149.007ZM85.1461 138.45C79.8316 137.902 75.0561 141.785 74.5082 147.104C74.4631 147.555 74.4473 148.004 74.4631 148.448C74.4721 148.712 74.4902 148.975 74.524 149.237C74.7337 151.048 75.4529 152.766 76.6322 154.213C78.2669 156.222 80.5847 157.476 83.1619 157.74C83.4979 157.773 83.8293 157.792 84.1608 157.792C86.6117 157.792 88.8935 156.86 90.6251 155.307C92.3252 153.785 93.4954 151.665 93.7795 149.237C93.7863 149.187 93.793 149.138 93.7975 149.088C93.8201 148.874 93.8336 148.66 93.8426 148.448C94.0298 143.393 90.2486 138.976 85.1461 138.45ZM93.0129 149.007C93.0039 149.084 92.9971 149.16 92.9858 149.237C92.6927 151.512 91.5586 153.553 89.7728 155.005C87.9284 156.506 85.6083 157.199 83.2408 156.955C80.8756 156.711 78.7449 155.562 77.2432 153.715C76.1835 152.409 75.5228 150.867 75.3154 149.237C75.2838 148.975 75.2613 148.714 75.2523 148.448C75.2365 148.031 75.25 147.607 75.2951 147.183C75.7641 142.608 79.6423 139.19 84.1472 139.19C84.4494 139.19 84.756 139.203 85.0649 139.237C89.642 139.706 93.0602 143.582 93.0602 148.087C93.0602 148.207 93.058 148.328 93.0535 148.448C93.0444 148.633 93.0309 148.82 93.0129 149.007ZM85.1461 138.45C79.8316 137.902 75.0561 141.785 74.5082 147.104C74.4631 147.555 74.4473 148.004 74.4631 148.448C74.4721 148.712 74.4902 148.975 74.524 149.237C74.7337 151.048 75.4529 152.766 76.6322 154.213C78.2669 156.222 80.5847 157.476 83.1619 157.74C83.4979 157.773 83.8293 157.792 84.1608 157.792C86.6117 157.792 88.8935 156.86 90.6251 155.307C92.3252 153.785 93.4954 151.665 93.7795 149.237C93.7863 149.187 93.793 149.138 93.7975 149.088C93.8201 148.874 93.8336 148.66 93.8426 148.448C94.0298 143.393 90.2486 138.976 85.1461 138.45ZM93.0129 149.007C93.0039 149.084 92.9971 149.16 92.9858 149.237C92.6927 151.512 91.5586 153.553 89.7728 155.005C87.9284 156.506 85.6083 157.199 83.2408 156.955C80.8756 156.711 78.7449 155.562 77.2432 153.715C76.1835 152.409 75.5228 150.867 75.3154 149.237C75.2838 148.975 75.2613 148.714 75.2523 148.448C75.2365 148.031 75.25 147.607 75.2951 147.183C75.7641 142.608 79.6423 139.19 84.1472 139.19C84.4494 139.19 84.756 139.203 85.0649 139.237C89.642 139.706 93.0602 143.582 93.0602 148.087C93.0602 148.207 93.058 148.328 93.0535 148.448C93.0444 148.633 93.0309 148.82 93.0129 149.007ZM93.784 140.263C91.6916 137.69 88.7221 136.087 85.4234 135.747C82.127 135.409 78.8937 136.374 76.321 138.466C73.7484 140.559 72.1452 143.528 71.8048 146.824C71.7484 147.37 71.7281 147.913 71.7461 148.448C71.7507 148.714 71.7664 148.975 71.7912 149.237C72.1723 153.388 74.63 157.032 78.1992 158.989C79.6084 159.76 81.189 160.269 82.8823 160.443C83.313 160.488 83.7391 160.511 84.163 160.511C86.2915 160.511 88.3185 159.963 90.0952 158.989C90.9385 158.527 91.7254 157.97 92.4402 157.329C94.6566 155.341 96.1718 152.554 96.501 149.366C96.5055 149.323 96.51 149.28 96.5122 149.237C96.5393 148.973 96.5551 148.712 96.5618 148.448C96.652 145.472 95.6825 142.597 93.784 140.263ZM95.7208 149.237C95.7208 149.253 95.7186 149.271 95.7163 149.287C95.2496 153.825 92.217 157.489 88.2058 158.989C86.5846 159.595 84.8011 159.848 82.9635 159.658C81.9601 159.555 80.9974 159.327 80.0932 158.989C75.9648 157.449 73.0178 153.654 72.5849 149.237C72.5578 148.975 72.5421 148.714 72.5331 148.448C72.5173 147.938 72.5353 147.424 72.5894 146.906C72.9073 143.817 74.409 141.037 76.8193 139.077C78.9117 137.375 81.4708 136.471 84.1314 136.471C84.5328 136.471 84.9386 136.491 85.3422 136.534C88.4312 136.849 91.2113 138.351 93.1707 140.761C94.952 142.951 95.8606 145.652 95.7727 148.448C95.7659 148.709 95.7479 148.973 95.7208 149.237ZM85.1461 138.45C79.8316 137.902 75.0561 141.785 74.5082 147.104C74.4631 147.555 74.4473 148.004 74.4631 148.448C74.4721 148.712 74.4902 148.975 74.524 149.237C74.7337 151.048 75.4529 152.766 76.6322 154.213C78.2669 156.222 80.5847 157.476 83.1619 157.74C83.4979 157.773 83.8293 157.792 84.1608 157.792C86.6117 157.792 88.8935 156.86 90.6251 155.307C92.3252 153.785 93.4954 151.665 93.7795 149.237C93.7863 149.187 93.793 149.138 93.7975 149.088C93.8201 148.874 93.8336 148.66 93.8426 148.448C94.0298 143.393 90.2486 138.976 85.1461 138.45ZM93.0535 148.448C93.0444 148.633 93.0309 148.82 93.0129 149.007C93.0039 149.084 92.9971 149.16 92.9858 149.237C92.6927 151.512 91.5586 153.553 89.7728 155.005C87.9284 156.506 85.6083 157.199 83.2408 156.955C80.8756 156.711 78.7449 155.562 77.2432 153.715C76.1835 152.409 75.5228 150.867 75.3154 149.237C75.2838 148.975 75.2613 148.714 75.2523 148.448C75.2365 148.031 75.25 147.607 75.2951 147.183C75.7641 142.608 79.6423 139.19 84.1472 139.19C84.4494 139.19 84.756 139.203 85.0649 139.237C89.642 139.706 93.0602 143.582 93.0602 148.087C93.0602 148.204 93.058 148.328 93.0535 148.448ZM85.1461 138.45C79.8316 137.902 75.0561 141.785 74.5082 147.104C74.4631 147.555 74.4473 148.004 74.4631 148.448C74.4721 148.712 74.4902 148.975 74.524 149.237C74.7337 151.048 75.4529 152.766 76.6322 154.213C78.2669 156.222 80.5847 157.476 83.1619 157.74C83.4979 157.773 83.8293 157.792 84.1608 157.792C86.6117 157.792 88.8935 156.86 90.6251 155.307C92.3252 153.785 93.4954 151.665 93.7795 149.237C93.7863 149.187 93.793 149.138 93.7975 149.088C93.8201 148.874 93.8336 148.66 93.8426 148.448C94.0298 143.393 90.2486 138.976 85.1461 138.45ZM93.0129 149.007C93.0039 149.084 92.9971 149.16 92.9858 149.237C92.6927 151.512 91.5586 153.553 89.7728 155.005C87.9284 156.506 85.6083 157.199 83.2408 156.955C80.8756 156.711 78.7449 155.562 77.2432 153.715C76.1835 152.409 75.5228 150.867 75.3154 149.237C75.2838 148.975 75.2613 148.714 75.2523 148.448C75.2365 148.031 75.25 147.607 75.2951 147.183C75.7641 142.608 79.6423 139.19 84.1472 139.19C84.4494 139.19 84.756 139.203 85.0649 139.237C89.642 139.706 93.0602 143.582 93.0602 148.087C93.0602 148.207 93.058 148.328 93.0535 148.448C93.0444 148.633 93.0309 148.82 93.0129 149.007ZM85.1461 138.45C79.8316 137.902 75.0561 141.785 74.5082 147.104C74.4631 147.555 74.4473 148.004 74.4631 148.448C74.4721 148.712 74.4902 148.975 74.524 149.237C74.7337 151.048 75.4529 152.766 76.6322 154.213C78.2669 156.222 80.5847 157.476 83.1619 157.74C83.4979 157.773 83.8293 157.792 84.1608 157.792C86.6117 157.792 88.8935 156.86 90.6251 155.307C92.3252 153.785 93.4954 151.665 93.7795 149.237C93.7863 149.187 93.793 149.138 93.7975 149.088C93.8201 148.874 93.8336 148.66 93.8426 148.448C94.0298 143.393 90.2486 138.976 85.1461 138.45ZM93.0129 149.007C93.0039 149.084 92.9971 149.16 92.9858 149.237C92.6927 151.512 91.5586 153.553 89.7728 155.005C87.9284 156.506 85.6083 157.199 83.2408 156.955C80.8756 156.711 78.7449 155.562 77.2432 153.715C76.1835 152.409 75.5228 150.867 75.3154 149.237C75.2838 148.975 75.2613 148.714 75.2523 148.448C75.2365 148.031 75.25 147.607 75.2951 147.183C75.7641 142.608 79.6423 139.19 84.1472 139.19C84.4494 139.19 84.756 139.203 85.0649 139.237C89.642 139.706 93.0602 143.582 93.0602 148.087C93.0602 148.207 93.058 148.328 93.0535 148.448C93.0444 148.633 93.0309 148.82 93.0129 149.007Z" fill="#1E4847"/>
<path d="M98.6226 126.778C98.4197 126.778 98.2461 126.622 98.2303 126.415L96.4423 104.67L67.426 107.234L70.4293 125.819C70.4631 126.034 70.3188 126.237 70.1024 126.273C69.8859 126.309 69.6853 126.162 69.6492 125.946L66.5782 106.94C66.5602 106.832 66.5895 106.722 66.6571 106.636C66.7248 106.55 66.824 106.494 66.9345 106.485L96.767 103.849C96.8729 103.84 96.9767 103.872 97.0556 103.942C97.1367 104.009 97.1863 104.106 97.1954 104.21L99.0149 126.351C99.033 126.568 98.8706 126.76 98.6542 126.778C98.6452 126.778 98.6339 126.778 98.6226 126.778Z" fill="#1E4847"/>
<path d="M100.523 86.824L94.9766 82.3799C94.9112 82.3257 94.8278 82.2942 94.7421 82.2942L73.516 81.7598C73.3063 81.7485 73.1237 81.9199 73.1124 82.1318L73.1056 82.2356C73.1056 82.2378 73.1056 82.2378 73.1056 82.2401L73.0966 82.3956C73.0966 82.3979 73.0966 82.3979 73.0966 82.4001L72.0617 101.254C72.0527 101.412 72.1383 101.559 72.2781 101.629L72.6344 101.807L73.9579 102.472H73.9602L76.4968 103.746C76.5464 103.773 76.6027 103.786 76.6614 103.789L92.2529 104.251H92.2574L97.2111 104.397L98.6722 104.44H98.6834C98.8864 104.44 99.0577 104.285 99.0758 104.082L100.67 87.1689C100.683 87.0359 100.627 86.9074 100.523 86.824ZM98.3249 103.64L76.7718 103.002L72.8644 101.04L73.8474 83.142V83.1397L73.879 82.558L74.3976 82.5715L94.5888 83.0788L99.8649 87.3065L98.3249 103.64Z" fill="#1E4847"/>
<path d="M77.8229 86.2743C77.735 86.2743 77.6471 86.245 77.5726 86.1841L73.2387 82.6394C73.0696 82.5018 73.0448 82.2538 73.1823 82.0846C73.3199 81.9155 73.5679 81.8907 73.737 82.0283L78.071 85.573C78.2401 85.7105 78.2649 85.9586 78.1274 86.1277C78.0507 86.2269 77.9357 86.2743 77.8229 86.2743Z" fill="#1E4847"/>
<path d="M145.512 100.481C147.388 104.199 148.847 107.714 156.019 107.468C161.257 107.29 170.373 108.055 171.823 108.258C173.272 108.46 176.587 109.277 175.768 112.384C174.95 115.491 170.019 126.063 170.019 126.063L178.713 126.861C178.713 126.861 185.288 112.767 186.106 109.66C186.647 107.599 186.889 101.992 181.728 99.7414C176.546 97.4821 163.083 94.6299 163.083 94.6299L145.512 100.481Z" fill="#C82232"/>
<path d="M170.019 126.061L178.713 126.859C178.713 126.859 184.307 128.911 185.139 129.941C185.971 130.974 185.768 132.216 183.698 132.223C181.629 132.23 167.755 130.208 167.755 130.208L170.019 126.061Z" fill="#FFC927"/>
<path d="M199.737 100.713C199.737 100.713 203.852 102.371 204.686 104.127C205.52 105.884 204.756 106.876 203.511 106.362C202.269 105.848 202.343 106.242 202.449 106.966C202.555 107.69 201.428 108.394 200.483 107.645C199.885 107.171 199.604 107.751 199.568 108.267C199.518 108.953 198.848 109.616 197.707 108.894C196.566 108.173 195.026 103.843 195.026 103.843L199.737 100.713Z" fill="#FF8632"/>
<path d="M161.144 108.003C160.921 107.782 160.671 107.608 160.393 107.487H160.389C160.084 107.354 159.751 107.284 159.408 107.284H159.401L154.15 107.302L152.955 107.306H152.953L148.847 107.32C148.191 107.322 147.573 107.581 147.108 108.05C146.642 108.517 146.387 109.137 146.389 109.793C146.391 110.447 146.651 111.065 147.12 111.532C147.584 111.994 148.2 112.249 148.854 112.249H148.863L154.245 112.231L156.756 112.222L159.23 112.213H159.417C160.073 112.21 160.691 111.951 161.155 111.484C161.62 111.015 161.875 110.397 161.873 109.741C161.87 109.085 161.611 108.467 161.144 108.003ZM156.333 111.435L154.346 111.441L148.86 111.459H148.854C148.412 111.459 147.992 111.286 147.674 110.97C147.356 110.655 147.181 110.235 147.178 109.789C147.178 109.345 147.352 108.923 147.668 108.605C147.983 108.287 148.403 108.111 148.849 108.109L159.404 108.073C159.406 108.073 159.406 108.073 159.408 108.073C159.852 108.073 160.269 108.246 160.587 108.562C160.905 108.878 161.083 109.297 161.083 109.744C161.086 110.188 160.912 110.609 160.596 110.927C160.278 111.245 159.859 111.421 159.415 111.423L156.333 111.435Z" fill="#1E4847"/>
<path d="M76.6727 103.769C76.6637 103.769 76.6547 103.769 76.6457 103.769C76.4292 103.755 76.2624 103.566 76.2781 103.349L77.4258 85.8568C77.4393 85.6404 77.6287 85.478 77.8407 85.4893L100.298 86.7204C100.514 86.7317 100.681 86.9188 100.67 87.1353C100.659 87.354 100.467 87.5231 100.255 87.5073L78.1879 86.2988L77.065 103.403C77.0538 103.608 76.8801 103.769 76.6727 103.769Z" fill="#1E4847"/>
<path opacity="0.15" d="M343.827 135.543L258.22 124.208C257.636 124.131 257.224 123.595 257.301 123.009C257.379 122.425 257.915 122.012 258.501 122.09L344.108 133.424C344.692 133.502 345.104 134.038 345.027 134.624C344.949 135.208 344.413 135.62 343.827 135.543Z" fill="#1E4847"/>
<path d="M353.039 121.524L346.429 120.649C346.291 120.63 346.195 120.503 346.213 120.366C346.231 120.228 346.359 120.132 346.495 120.15L353.105 121.025C353.244 121.043 353.34 121.171 353.322 121.307C353.306 121.444 353.178 121.542 353.039 121.524Z" fill="#1F4847"/>
<path d="M350.004 119.059L343.526 118.201C343.388 118.183 343.292 118.055 343.31 117.919C343.328 117.78 343.456 117.684 343.592 117.702L350.07 118.56C350.208 118.578 350.304 118.706 350.286 118.843C350.268 118.979 350.142 119.077 350.004 119.059Z" fill="#1F4847"/>
<path d="M297.824 82.3912C297.669 82.3707 297.546 82.2412 297.539 82.0795L297.249 75.8108L294.124 81.3455C294.035 81.5049 293.833 81.5598 293.676 81.4705C293.517 81.3809 293.462 81.1787 293.551 81.0219L297.24 74.4871C297.312 74.3597 297.461 74.2924 297.604 74.3272C297.747 74.3619 297.851 74.4864 297.858 74.6322L298.202 82.0461C298.209 82.2288 298.071 82.3817 297.887 82.3917C297.863 82.3938 297.845 82.394 297.824 82.3912Z" fill="#1F4847"/>
<path d="M302.073 83.8471C302.055 83.8447 302.037 83.8397 302.02 83.8347L299.909 83.1812C299.737 83.1268 299.637 82.945 299.69 82.7701L301.664 76.1558C301.716 75.9809 301.895 75.8808 302.075 75.9336C302.25 75.9858 302.35 76.1702 302.297 76.3451L300.417 82.6452L302.214 83.2019C302.389 83.2566 302.485 83.4406 302.431 83.6152C302.386 83.7752 302.231 83.868 302.073 83.8471Z" fill="#1F4847"/>
<path d="M306.309 85.6012C306.28 85.5974 306.25 85.5881 306.22 85.5763L303.818 84.5338C303.661 84.4656 303.582 84.2892 303.638 84.1279L305.89 77.3608C305.947 77.1892 306.134 77.0927 306.308 77.1526C306.482 77.2099 306.573 77.3959 306.516 77.5701L304.359 84.0496L306.484 84.9711C306.651 85.0433 306.728 85.2379 306.656 85.4048C306.593 85.544 306.451 85.6201 306.309 85.6012Z" fill="#1F4847"/>
<path d="M309.462 87.1778C309.073 87.1264 308.772 86.9574 308.567 86.6695C308.127 86.058 308.163 84.9669 308.68 83.1307C309.183 81.3426 310.155 79.3928 311.375 79.275C311.591 79.2562 311.906 79.3006 312.188 79.6409C312.742 80.3122 312.882 81.9141 312.5 83.2097C312.138 84.4341 311.135 87.2703 309.612 87.1925C309.56 87.1882 309.511 87.1843 309.462 87.1778ZM309.315 83.3096C308.877 84.8665 308.805 85.8685 309.106 86.285C309.175 86.3811 309.31 86.5123 309.65 86.531C310.456 86.5718 311.347 84.7983 311.872 83.0211C312.211 81.87 312.052 80.508 311.682 80.0586C311.566 79.9169 311.478 79.9263 311.441 79.9292C310.84 79.9893 309.917 81.1685 309.315 83.3096Z" fill="#1F4847"/>
<path d="M297.697 79.4531C297.684 79.4514 297.669 79.4493 297.656 79.445L295.271 78.8157C295.095 78.7688 294.99 78.5889 295.037 78.4133C295.084 78.2378 295.264 78.1299 295.439 78.1794L297.824 78.8087C298 78.8557 298.105 79.0356 298.058 79.2111C298.016 79.3715 297.858 79.4743 297.697 79.4531Z" fill="#1F4847"/>
<path d="M313.717 88.5449C313.588 88.5277 313.464 88.4876 313.346 88.4272C312.136 87.7928 313.028 84.8602 313.436 83.8817C314.112 82.2614 315.361 80.7091 316.499 81.1285C317.825 81.6124 317.148 84.0859 316.626 85.5159C316.204 86.6718 315.311 88.0867 314.345 88.462C314.131 88.5417 313.919 88.5716 313.717 88.5449ZM314.043 84.1359C313.379 85.7261 313.182 87.5967 313.65 87.8405C313.733 87.8858 313.875 87.9334 314.105 87.8428C314.811 87.57 315.625 86.3291 316.006 85.2888C316.705 83.3687 316.812 81.9445 316.272 81.7465C315.682 81.5262 314.683 82.6031 314.043 84.1359Z" fill="#1F4847"/>
<path d="M318.242 90.4637C318.081 90.4425 317.925 90.3902 317.775 90.3071C316.281 89.4903 317.466 86.4542 317.515 86.3237C317.649 85.9858 318.862 83.0536 320.451 83.2641C320.462 83.2655 320.47 83.2665 320.48 83.2679C320.818 83.3206 321.089 83.5065 321.264 83.8117C321.772 84.6903 321.396 86.4372 320.873 87.7774C320.674 88.291 319.94 89.9957 318.857 90.3898C318.649 90.4677 318.444 90.4905 318.242 90.4637ZM318.091 89.7273C318.271 89.8248 318.443 89.8397 318.628 89.772C319.24 89.55 319.886 88.4896 320.254 87.54C320.822 86.0792 320.999 84.6827 320.688 84.1411C320.614 84.01 320.517 83.942 320.375 83.9205C320.37 83.9198 320.367 83.9195 320.362 83.9188C319.629 83.8218 318.666 85.2064 318.125 86.5679C317.697 87.6545 317.401 89.3514 318.091 89.7273Z" fill="#1F4847"/>
<path d="M340.816 129.321C340.824 128.53 340.866 127.104 340.916 125.569C340.92 125.417 340.924 125.26 340.929 125.106C340.954 124.366 340.979 123.614 341.002 122.908C341.007 122.751 341.011 122.597 341.015 122.444C341.064 121.014 341.099 119.835 341.099 119.422C341.098 118.946 340.917 118.626 340.566 118.277L337.277 115.64C337.085 115.419 337.001 115.199 336.947 115.014L332.259 97.9649L295.072 92.9969L285.784 107.829C285.74 107.9 285.662 107.944 285.581 107.942L261.815 109.273C261.567 109.29 261.359 109.466 261.301 109.706C260.857 111.563 259.053 119.14 259.169 119.155L340.172 129.88C340.51 129.925 340.811 129.663 340.816 129.321ZM310.736 111.548L288.59 108.419L296.532 95.2811L312.625 97.285L310.736 111.548ZM312.906 111.775L314.8 97.4682L330.461 99.5418L333.882 114.613L312.906 111.775Z" fill="#FF6333"/>
<path d="M326.129 132.626C328.926 132.996 331.493 131.029 331.863 128.232C332.234 125.436 330.267 122.868 327.47 122.498C324.673 122.128 322.106 124.095 321.736 126.892C321.365 129.688 323.332 132.256 326.129 132.626Z" fill="#1B264C"/>
<path d="M326.444 130.25C327.928 130.447 329.291 129.403 329.488 127.918C329.684 126.433 328.64 125.07 327.155 124.874C325.671 124.677 324.308 125.721 324.111 127.206C323.915 128.691 324.959 130.054 326.444 130.25Z" fill="#DCDFEA"/>
<path d="M277.656 126.208C280.453 126.578 283.02 124.611 283.39 121.814C283.76 119.018 281.793 116.45 278.997 116.08C276.2 115.71 273.633 117.677 273.262 120.474C272.892 123.27 274.859 125.838 277.656 126.208Z" fill="#1B264C"/>
<path d="M277.97 123.832C279.455 124.029 280.818 122.985 281.015 121.5C281.211 120.015 280.167 118.652 278.682 118.456C277.198 118.259 275.835 119.303 275.638 120.788C275.441 122.273 276.486 123.636 277.97 123.832Z" fill="#DCDFEA"/>
<path d="M309.464 103.431C309.219 105.286 307.517 106.59 305.662 106.344C304.494 106.19 303.544 105.455 303.064 104.473C303.551 104.518 303.963 104.377 304.199 104.189C304.426 104.011 304.414 103.538 303.847 103.822C303.429 104.028 303.094 104.03 302.869 103.984C302.729 103.531 302.681 103.041 302.747 102.542C302.993 100.687 304.695 99.3816 306.55 99.6271C308.406 99.873 309.71 101.578 309.464 103.431Z" fill="#FFCB57"/>
<path d="M302.122 102.461L303.885 102.908C304.098 102.963 304.312 102.834 304.366 102.622L304.379 102.569C304.434 102.357 304.305 102.142 304.093 102.088L302.329 101.641C302.117 101.586 301.902 101.715 301.848 101.928L301.835 101.98C301.78 102.193 301.909 102.409 302.122 102.461Z" fill="#FFCB57"/>
<path d="M311.141 102.044C311.141 102.044 312.212 101.501 311.691 100.272C311.173 99.0432 310.183 99.3391 310.183 99.3391C310.183 99.3391 310.118 98.1299 308.671 97.894C307.223 97.6581 307.043 98.4843 307.043 98.4843C307.043 98.4843 306.396 97.6231 305.3 98.324C304.204 99.0269 304.392 100.083 304.392 100.083C304.392 100.083 305.879 99.9919 306.416 101.501C306.73 102.377 306.769 103.25 307.24 103.645C307.24 103.645 307.464 104.788 308.284 105.36C309.105 105.932 310.374 105.444 310.436 104.386C310.442 104.292 310.441 104.206 310.436 104.126C310.843 104.017 311.247 103.764 311.439 103.212C311.703 102.455 311.141 102.044 311.141 102.044Z" fill="#C82232"/>
<path d="M304.224 104.774L304.552 107.575L308.183 108.252L307.678 104.936L304.224 104.774Z" fill="#FFCB57"/>
<path d="M302.26 109.735C302.26 109.735 296.956 107.913 296.273 102.12C295.83 98.3629 297.294 96.2303 297.97 94.9177C298.645 93.6052 299.24 92.3807 299.885 91.7833C300.393 91.3127 300.71 91.6407 299.928 93.0258C299.928 93.0258 301.049 91.5748 301.6 91.5248C302.15 91.4748 301.055 93.5113 301.055 93.5113C301.055 93.5113 302.208 91.7061 302.644 91.9612C303.079 92.2182 301.235 94.5806 301.235 94.5806C301.235 94.5806 302.719 93.7176 303.209 94.2799C303.698 94.8423 301.321 95.575 301.321 95.575C301.321 95.575 298.534 98.7794 299.453 102.11C300.286 105.125 303.552 106.065 303.552 106.065L302.26 109.735Z" fill="#FFCB57"/>
<path d="M309.271 111.354C309.271 111.354 309.382 110.515 309.426 110.188C309.469 109.864 309.646 108.662 308.67 107.256C308.11 106.449 306.632 106.219 303.797 105.658C302.366 105.376 300.833 104.405 300.833 104.405L298.61 107.634C298.61 107.634 300.572 109.125 301.742 109.469L301.637 110.261L309.271 111.354Z" fill="#1F4847"/>
<path d="M307.406 114.701L302.831 114.095C302.621 114.067 302.472 113.874 302.5 113.662C302.528 113.451 302.721 113.303 302.932 113.331L307.507 113.937C307.719 113.965 307.867 114.157 307.839 114.369C307.811 114.581 307.618 114.729 307.406 114.701Z" fill="white"/>
<path d="M262.106 115.826L259.93 115.538L260.013 115.083L262.167 115.368C262.743 115.445 263.271 115.057 263.344 114.505L263.456 113.66C263.529 113.108 263.12 112.596 262.544 112.52L260.693 112.275L260.789 111.822L262.606 112.063C263.434 112.172 264.022 112.917 263.916 113.721L263.804 114.566C263.693 115.369 262.934 115.935 262.106 115.826Z" fill="white"/>
<path d="M340.916 125.569L338.841 125.294C338.427 125.24 338.097 124.934 338.059 124.566L338.059 124.538L338.084 122.993C338.066 122.781 338.143 122.579 338.302 122.425C338.495 122.237 338.782 122.148 339.073 122.187L341.015 122.444C341.011 122.596 341.007 122.751 341.002 122.908L339.013 122.644C338.86 122.624 338.716 122.665 338.623 122.756C338.582 122.797 338.534 122.865 338.544 122.961L338.546 122.989L338.519 124.531C338.544 124.681 338.706 124.811 338.902 124.837L340.929 125.106C340.924 125.26 340.92 125.417 340.916 125.569Z" fill="white"/>
<path d="M306.341 102.149C306.341 102.149 307.081 101.498 307.618 102.071C308.215 102.706 307.118 103.779 307.118 103.779" fill="#FFCB57"/>
<path d="M304.14 102.021C304.298 102.042 304.444 101.931 304.465 101.772C304.486 101.614 304.374 101.468 304.216 101.447C304.057 101.426 303.912 101.538 303.891 101.696C303.87 101.855 303.981 102 304.14 102.021Z" fill="#1F4847"/>
<path d="M319.058 107.221C318.981 107.211 318.905 107.173 318.854 107.108C318.741 106.972 318.762 106.769 318.897 106.656L324.458 102.085C324.596 101.972 324.796 101.992 324.909 102.128C325.022 102.264 325.002 102.467 324.866 102.58L319.305 107.151C319.233 107.21 319.143 107.233 319.058 107.221Z" fill="#D3D9E5"/>
<path d="M320.225 108.903C320.148 108.893 320.077 108.855 320.023 108.791C319.91 108.655 319.926 108.454 320.062 108.339L324.075 104.963C324.211 104.85 324.412 104.866 324.527 105.002C324.64 105.138 324.623 105.34 324.487 105.454L320.475 108.831C320.402 108.89 320.313 108.914 320.225 108.903Z" fill="#D3D9E5"/>
<path opacity="0.2" d="M313.118 111.803L312.694 111.747L310.808 125.992L311.232 126.048L313.118 111.803Z" fill="#1B264C"/>
<path opacity="0.2" d="M285.229 118.653C284.448 115.818 282.061 113.736 279.147 113.35C276.332 112.977 273.531 114.288 272.015 116.69L271.654 116.461C273.26 113.918 276.223 112.532 279.205 112.926C282.291 113.335 284.817 115.539 285.643 118.539L285.229 118.653Z" fill="#1B264C"/>
<path opacity="0.2" d="M320.365 123.716L319.984 123.523C321.467 120.611 324.643 118.943 327.884 119.372C330.97 119.781 333.496 121.984 334.322 124.984L333.91 125.097C333.129 122.262 330.742 120.179 327.828 119.794C324.765 119.39 321.767 120.965 320.365 123.716Z" fill="#1B264C"/>
</svg>
