<svg width="375" height="166" viewBox="0 0 375 166" fill="none" xmlns="http://www.w3.org/2000/svg">
<path d="M0 0H375V137C375 137 122.5 93 0 108C0.000106812 41 0 0 0 0Z" fill="#16A59E"/>
<path d="M152.089 110.178H123.17V67.3521H152.089V110.178ZM123.934 109.416H151.325V68.1144H123.934V109.416Z" fill="#DCDFEA"/>
<path d="M160.367 110.178H151.315V67.3521H160.367V110.178ZM152.079 109.416H159.603V68.1144H152.079V109.416Z" fill="#DCDFEA"/>
<path d="M133.053 93.8717H127.671V84.5889H133.053V93.8717ZM128.435 93.1094H132.289V85.3512H128.435V93.1094Z" fill="#DCDFEA"/>
<path d="M140.699 93.8713H135.317V84.5884H140.699V93.8713ZM136.084 93.1089H139.937V85.3507H136.084V93.1089Z" fill="#DCDFEA"/>
<path d="M148.347 93.8713H142.966V84.5884H148.347V93.8713ZM143.73 93.1089H147.583V85.3507H143.73V93.1089Z" fill="#DCDFEA"/>
<path d="M133.053 82.3522H127.671V73.0693H133.053V82.3522ZM128.435 81.5899H132.289V73.8317H128.435V81.5899Z" fill="#DCDFEA"/>
<path d="M140.699 82.3522H135.317V73.0693H140.699V82.3522ZM136.084 81.5899H139.937V73.8317H136.084V81.5899Z" fill="#DCDFEA"/>
<path d="M148.347 82.3522H142.966V73.0693H148.347V82.3522ZM143.73 81.5899H147.583V73.8317H143.73V81.5899Z" fill="#DCDFEA"/>
<path d="M157.685 82.3522H154.157V73.0693H157.685V82.3522ZM154.921 81.5899H156.92V73.8317H154.921V81.5899Z" fill="#DCDFEA"/>
<path d="M157.685 93.8307H154.157V84.5479H157.685V93.8307ZM154.921 93.0684H156.92V85.3102H154.921V93.0684Z" fill="#DCDFEA"/>
<path d="M157.685 105.309H154.157V96.0264H157.685V105.309ZM154.921 104.547H156.92V96.7887H154.921V104.547Z" fill="#DCDFEA"/>
<path d="M133.053 105.388H127.671V96.1055H133.053V105.388ZM128.435 104.626H132.289V96.8678H128.435V104.626Z" fill="#DCDFEA"/>
<path d="M140.699 105.388H135.317V96.105H140.699V105.388ZM136.084 104.626H139.937V96.8673H136.084V104.626Z" fill="#DCDFEA"/>
<path d="M148.347 105.388H142.966V96.105H148.347V105.388ZM143.73 104.626H147.583V96.8673H143.73V104.626Z" fill="#DCDFEA"/>
<path d="M152.063 68.0028H121.313V64.0005H152.063V68.0028ZM122.078 67.2405H151.299V64.7628H122.078V67.2405Z" fill="#DCDFEA"/>
<path d="M161.78 68.0023H151.307V64H161.78V68.0023ZM152.071 67.24H161.016V64.7624H152.071V67.24Z" fill="#DCDFEA"/>
<path d="M192.505 159.961C192.482 159.961 192.459 159.958 192.433 159.956L183.198 158.665C182.93 158.627 182.739 158.388 182.76 158.118L183.037 154.848C183.05 154.711 183.116 154.581 183.226 154.495C183.335 154.408 183.473 154.368 183.61 154.385L192.932 155.595C193.208 155.631 193.404 155.88 193.373 156.154L193.009 159.506C192.994 159.643 192.925 159.768 192.815 159.852C192.729 159.923 192.619 159.961 192.505 159.961ZM183.819 157.725L192.056 158.876L192.308 156.54L184.01 155.463L183.819 157.725Z" fill="#148496"/>
<path d="M192.996 150.589C192.996 150.589 195.041 151.611 197.476 153.049C199.718 154.375 198.518 155.826 196.427 155.898C194.333 155.969 188.743 155.211 188.743 155.211L181.326 154.629L182.016 149.702L192.466 150.282L192.996 150.589Z" fill="#FFC927"/>
<path d="M197.352 55.9484C201.862 54.0654 207.42 58.5074 209.172 62.2785C210.734 65.6379 209.501 70.7838 206.691 73.5053C203.773 76.3286 199.28 76.4811 199.28 76.4811C199.28 76.4811 196.109 72.4228 194.074 70.8701C192.421 69.6275 190.289 69.0329 190.289 69.0329C188.185 62.314 192.838 57.8314 197.352 55.9484Z" fill="#FFC927"/>
<path d="M179.141 122.83C178.746 121.803 178.453 120.761 178.038 119.806C176.347 115.89 174.131 113.038 174.131 113.038L160.991 100.394L181.405 102.658C181.405 102.658 187.316 109.57 190.131 116.515C192.489 122.334 193.032 150.587 193.032 150.587L180.878 149.598C180.878 149.601 181.675 129.404 179.141 122.83Z" fill="#960C20"/>
<path d="M188.07 147.802C188.055 147.802 188.04 147.802 188.025 147.802C188.009 147.802 187.994 147.801 187.976 147.799L153.92 145.558C153.419 145.525 152.978 145.217 152.774 144.757C152.57 144.297 152.642 143.766 152.955 143.375L172.159 119.427L169.235 113.933C168.886 113.277 169.136 112.461 169.793 112.113C170.45 111.765 171.268 112.014 171.617 112.67L174.745 118.548L196.697 117.849C196.868 117.844 197.033 117.869 197.186 117.922C197.347 117.849 197.527 117.806 197.716 117.803L212.173 117.483C209.87 110.416 208.556 105.428 208.536 105.354C208.347 104.635 208.777 103.9 209.498 103.712C209.636 103.677 209.776 103.664 209.913 103.669C210.672 103.639 215.575 103.448 217.177 103.354C217.211 103.351 217.244 103.351 217.277 103.351C217.511 103.026 217.886 102.808 218.316 102.79C218.787 102.769 224.35 102.609 224.778 102.609C224.788 102.609 224.801 102.609 224.811 102.609C228.321 102.609 230.852 104.447 231.423 107.41C232.06 110.69 230.501 113.478 227.544 114.344C224.475 115.244 223.048 115.175 222.895 115.163C222.152 115.109 221.594 114.464 221.647 113.724C221.701 112.982 222.353 112.426 223.089 112.479C223.089 112.479 223.094 112.479 223.107 112.479C223.262 112.479 224.416 112.456 226.782 111.763C228.692 111.201 229.064 109.41 228.774 107.918C228.321 105.56 225.865 105.298 224.806 105.298C224.798 105.298 224.79 105.298 224.783 105.298C224.459 105.298 218.993 105.453 218.425 105.476C218.4 105.476 218.375 105.478 218.352 105.476C218.122 105.793 217.758 106.009 217.335 106.035C216.171 106.103 213.395 106.22 211.587 106.292C212.537 109.679 214.956 117.958 218.425 127.215C220.578 132.966 223.336 137.012 225.269 139.393C227.365 141.977 228.975 143.215 228.993 143.227C229.584 143.677 229.699 144.521 229.248 145.113C228.797 145.702 227.954 145.819 227.36 145.372C227.075 145.156 220.315 139.947 215.899 128.158C215.007 125.777 214.185 123.46 213.436 121.272L201.608 133.833C201.521 133.924 201.424 134.003 201.322 134.064C201.302 134.092 201.279 134.117 201.254 134.143L189.115 147.298C189.005 147.436 188.865 147.552 188.7 147.639C188.501 147.751 188.284 147.802 188.07 147.802ZM156.679 143.044L185.745 144.958L173.54 122.016L156.679 143.044ZM176.156 121.195L188.366 144.145L199.272 132.326C199.361 132.229 199.461 132.148 199.568 132.084C199.593 132.054 199.618 132.023 199.644 131.995L210.744 120.207L197.774 120.494C197.609 120.497 197.448 120.471 197.298 120.42C197.14 120.492 196.967 120.535 196.781 120.54L176.156 121.195Z" fill="#148496"/>
<path d="M154.46 165.462C143.057 165.462 133.763 156.228 133.725 144.843C133.687 133.436 142.958 124.125 154.391 124.087C154.414 124.087 154.44 124.087 154.463 124.087C165.866 124.087 175.157 133.322 175.198 144.706C175.216 150.233 173.076 155.435 169.174 159.356C165.272 163.277 160.071 165.445 154.531 165.465C154.508 165.462 154.483 165.462 154.46 165.462ZM154.463 125.104C154.44 125.104 154.417 125.104 154.396 125.104C143.526 125.139 134.711 133.995 134.746 144.841C134.782 155.666 143.62 164.446 154.463 164.446C154.486 164.446 154.506 164.446 154.529 164.446C165.399 164.41 174.215 155.554 174.179 144.709C174.141 133.886 165.303 125.104 154.463 125.104ZM228.178 165.216C216.775 165.216 207.481 155.981 207.443 144.597C207.425 139.07 209.564 133.868 213.466 129.947C217.368 126.026 222.569 123.858 228.109 123.838C228.132 123.838 228.157 123.838 228.18 123.838C233.692 123.838 238.878 125.97 242.79 129.848C246.72 133.744 248.892 138.93 248.913 144.457C248.931 149.984 246.791 155.186 242.889 159.107C238.987 163.028 233.786 165.196 228.247 165.216C228.224 165.216 228.201 165.216 228.178 165.216ZM228.18 124.857C228.157 124.857 228.134 124.857 228.112 124.857C222.844 124.875 217.901 126.938 214.19 130.666C210.479 134.394 208.444 139.342 208.461 144.594C208.497 155.42 217.335 164.199 228.178 164.199C228.201 164.199 228.221 164.199 228.244 164.199C233.511 164.182 238.455 162.118 242.166 158.39C245.877 154.662 247.912 149.715 247.894 144.462C247.876 139.207 245.808 134.275 242.072 130.572C238.353 126.885 233.422 124.857 228.18 124.857ZM154.46 162.286C149.794 162.286 145.405 160.482 142.092 157.199C138.765 153.903 136.924 149.512 136.909 144.833C136.893 140.155 138.704 135.751 142.008 132.432C145.311 129.114 149.712 127.276 154.401 127.261C154.422 127.261 154.442 127.261 154.46 127.261C164.111 127.261 171.978 135.078 172.011 144.714C172.027 149.392 170.216 153.796 166.912 157.115C163.609 160.433 159.208 162.271 154.519 162.286C154.501 162.286 154.48 162.286 154.46 162.286ZM154.463 128.28C154.445 128.28 154.424 128.28 154.407 128.28C149.99 128.295 145.844 130.026 142.731 133.151C139.619 136.277 137.912 140.427 137.928 144.831C137.943 149.237 139.675 153.374 142.81 156.479C145.93 159.572 150.064 161.272 154.46 161.272C154.48 161.272 154.498 161.272 154.516 161.272C158.933 161.257 163.079 159.529 166.192 156.401C169.304 153.275 171.01 149.128 170.995 144.721C170.965 135.642 163.553 128.28 154.463 128.28ZM228.178 162.039C218.527 162.039 210.66 154.223 210.626 144.587C210.611 139.908 212.422 135.505 215.726 132.186C219.029 128.867 223.43 127.03 228.119 127.015C228.14 127.015 228.16 127.015 228.18 127.015C232.846 127.015 237.237 128.819 240.549 132.102C243.875 135.398 245.716 139.789 245.732 144.467C245.747 149.146 243.936 153.549 240.633 156.868C237.329 160.187 232.928 162.024 228.239 162.039C228.219 162.039 228.198 162.039 228.178 162.039ZM228.18 128.034C228.16 128.034 228.142 128.034 228.124 128.034C223.708 128.049 219.561 129.777 216.449 132.905C213.336 136.031 211.63 140.18 211.645 144.584C211.676 153.661 219.088 161.023 228.178 161.026C228.196 161.026 228.216 161.026 228.234 161.026C232.65 161.01 236.797 159.282 239.909 156.154C243.022 153.029 244.728 148.879 244.713 144.475C244.698 140.069 242.966 135.932 239.83 132.826C236.71 129.734 232.574 128.034 228.18 128.034ZM162.891 113.191C162.16 113.191 161.472 112.906 160.95 112.39C160.425 111.872 160.137 111.183 160.135 110.449C160.13 108.932 161.362 107.694 162.883 107.689L174.344 107.651C174.347 107.651 174.352 107.651 174.355 107.651C175.086 107.651 175.773 107.935 176.295 108.451C176.82 108.97 177.108 109.658 177.11 110.393C177.113 111.125 176.828 111.816 176.308 112.339C175.789 112.863 175.098 113.15 174.362 113.153L162.901 113.191C162.896 113.191 162.893 113.191 162.891 113.191ZM174.352 108.67C174.35 108.67 174.347 108.67 174.347 108.67L162.886 108.708C161.928 108.711 161.151 109.491 161.154 110.449C161.156 110.909 161.337 111.343 161.668 111.671C161.997 111.996 162.432 112.177 162.891 112.177C162.893 112.177 162.893 112.177 162.896 112.177L174.357 112.139C174.818 112.136 175.254 111.956 175.582 111.625C175.911 111.295 176.092 110.86 176.089 110.4C176.087 109.94 175.906 109.506 175.575 109.178C175.246 108.848 174.811 108.67 174.352 108.67Z" fill="#148496"/>
<path d="M208.174 71.063L210.092 72.3717C210.652 72.7554 210.795 73.5279 210.41 74.087C210.025 74.646 209.251 74.7883 208.691 74.4046L206.773 73.0959" fill="#FFC927"/>
<path d="M206.113 69.1574C206.635 69.0913 207.005 68.6161 206.941 68.0952C206.875 67.5742 206.399 67.2058 205.876 67.2718C205.354 67.3379 204.985 67.8131 205.049 68.334C205.112 68.855 205.591 69.2234 206.113 69.1574Z" fill="#00A69C"/>
<path d="M153.523 148.277C151.327 148.277 149.539 146.5 149.532 144.307C149.524 142.112 151.31 140.32 153.51 140.312C153.515 140.312 153.52 140.312 153.523 140.312C155.718 140.312 157.506 142.089 157.514 144.282C157.517 145.347 157.107 146.348 156.355 147.103C155.604 147.857 154.603 148.274 153.538 148.279C153.531 148.277 153.528 148.277 153.523 148.277ZM153.523 141.329C153.52 141.329 153.515 141.329 153.513 141.329C151.875 141.334 150.545 142.668 150.551 144.305C150.556 145.936 151.888 147.26 153.523 147.26C153.525 147.26 153.531 147.26 153.533 147.26C154.328 147.258 155.071 146.947 155.632 146.383C156.192 145.822 156.498 145.075 156.495 144.284C156.49 142.653 155.156 141.329 153.523 141.329Z" fill="#148496"/>
<path d="M208.163 63.2696C208.917 62.7207 209.248 62.1794 209.248 62.1794C209.248 62.1794 209.524 55.702 202.481 53.3057C198.243 51.8623 195.11 53.4835 192.744 50.5002C189.435 46.3302 186.122 44.6886 183.689 46.2768C181.512 47.6998 182.882 50.795 183.613 51.6742C184.344 52.5535 184.189 52.7339 183.241 52.4569C182.294 52.1799 179.917 50.6476 174.821 50.2156C169.727 49.7836 165.32 52.1698 166.102 55.1531C166.884 58.1364 170.794 59.8238 170.794 59.8238C170.794 59.8238 163.428 60.2253 162.773 62.8376C161.897 66.3418 165.718 67.5972 170.891 66.9593C175.776 66.3571 178.797 66.4892 187.09 68.8576C189.496 69.5437 194.509 68.9542 197.051 67.5159C197.051 67.5159 197.374 65.4296 197.963 64.8908C200.135 62.9062 201.727 64.5808 201.727 64.5808C203.614 65.6557 206.661 64.3623 208.163 63.2696Z" fill="#384E85"/>
<path d="M37.693 138.572C37.4128 138.572 37.1862 138.346 37.1836 138.066C37.1811 137.787 37.4078 137.555 37.6905 137.555L50.6369 137.464H50.6394C50.9196 137.464 51.1463 137.69 51.1488 137.97C51.1513 138.249 50.9247 138.48 50.6419 138.48L37.6956 138.572C37.6956 138.572 37.6956 138.572 37.693 138.572Z" fill="#148496"/>
<path d="M32.4309 142.826C32.1532 142.826 31.9266 142.605 31.9215 142.328C31.9164 142.048 32.1405 141.814 32.4207 141.809L46.7144 141.55C46.9844 141.542 47.2289 141.769 47.234 142.048C47.2391 142.328 47.015 142.561 46.7348 142.566L32.4411 142.826C32.4385 142.826 32.436 142.826 32.4309 142.826Z" fill="#148496"/>
<path d="M34.1042 133.891C33.8266 133.891 33.5999 133.67 33.5948 133.393C33.5897 133.114 33.8139 132.88 34.094 132.875L48.3903 132.615C48.6705 132.6 48.9048 132.834 48.9099 133.114C48.915 133.393 48.6909 133.627 48.4107 133.632L34.1144 133.891C34.1093 133.891 34.1068 133.891 34.1042 133.891Z" fill="#148496"/>
<path d="M187.635 154.919C183.333 154.919 179.762 151.504 179.614 147.181C179.54 145.042 180.307 143.004 181.772 141.441C183.236 139.878 185.223 138.976 187.365 138.905C189.509 138.831 191.552 139.596 193.118 141.057C194.685 142.518 195.589 144.5 195.66 146.638C195.732 148.775 194.968 150.815 193.503 152.378C192.039 153.941 190.052 154.843 187.91 154.914C187.818 154.917 187.726 154.919 187.635 154.919ZM187.645 139.916C187.563 139.916 187.482 139.919 187.4 139.921C185.528 139.985 183.794 140.77 182.518 142.135C181.239 143.499 180.569 145.281 180.633 147.146C180.76 150.919 183.88 153.903 187.635 153.903C187.714 153.903 187.795 153.9 187.877 153.898C189.749 153.834 191.483 153.049 192.759 151.684C194.038 150.32 194.708 148.538 194.644 146.673C194.58 144.805 193.793 143.075 192.426 141.799C191.116 140.579 189.428 139.916 187.645 139.916Z" fill="#148496"/>
<path d="M159.261 100.363C161.296 104.393 162.883 108.197 170.672 107.933C176.359 107.74 186.257 108.568 187.831 108.787C189.405 109.005 193.004 109.89 192.115 113.257C191.226 116.624 185.872 128.077 185.872 128.077L195.314 128.941C195.314 128.941 202.453 113.671 203.342 110.304C203.93 108.07 204.19 101.994 198.587 99.5572C192.961 97.1101 178.343 94.02 178.343 94.02L159.261 100.363Z" fill="#C82332"/>
<path d="M185.872 128.077L195.314 128.941C195.314 128.941 201.389 131.162 202.293 132.28C203.194 133.398 202.975 134.745 200.729 134.753C198.482 134.76 183.417 132.567 183.417 132.567L185.872 128.077Z" fill="#FFC927"/>
<path d="M218.143 100.615C218.143 100.615 222.529 102.058 223.435 103.961C224.34 105.865 223.784 107.212 222.434 106.655C221.085 106.099 220.748 106.884 220.865 107.669C220.98 108.454 219.521 108.683 218.958 108.124C218.395 107.565 217.61 108.353 217.613 108.914C217.616 109.476 216.831 110.375 215.593 109.593C214.355 108.813 212.904 103.557 212.904 103.557L218.143 100.615Z" fill="#FFC927"/>
<path d="M195.036 136.996C195.019 136.996 195.001 136.996 194.98 136.994L185.875 136.015C185.737 136 185.615 135.932 185.528 135.825C185.444 135.718 185.406 135.581 185.424 135.444L185.753 132.92C185.788 132.643 186.045 132.445 186.323 132.481L195.556 133.662C195.696 133.68 195.821 133.756 195.905 133.868C195.986 133.983 196.019 134.125 195.991 134.262L195.536 136.582C195.49 136.826 195.278 136.996 195.036 136.996ZM186.504 135.06L194.626 135.934L194.889 134.603L186.7 133.556L186.504 135.06Z" fill="#148496"/>
<path d="M178.343 94.0201C178.343 94.0201 178.043 91.9745 182.299 87.9239C186.555 83.8732 190.862 83.9418 193.516 86.572C196.391 89.4206 199.04 92.1524 200.958 93.9464C202.547 95.4203 213.125 104.314 213.125 104.314L218.145 100.617L207.914 90.4752C207.672 90.2363 206.434 88.6633 206.271 88.366C204.941 85.924 199.478 75.4366 196.251 72.4354C192.645 69.0836 188.623 67.5844 182.334 68.9515C175.832 70.3644 167.014 74.0465 161.65 82.9787C157.415 90.033 157.229 96.3351 159.264 100.363L178.343 94.0201Z" fill="#FF6333"/>
<path d="M66.8307 153.265C66.7441 153.265 66.655 153.242 66.5735 153.196C66.5684 153.194 66.5633 153.191 66.5582 153.186L58.3773 148.007C58.3365 147.984 58.3034 147.954 58.2703 147.921C58.2168 147.865 58.1786 147.801 58.1557 147.73C58.1328 147.662 58.1251 147.588 58.1327 147.514C58.1353 147.486 58.1429 147.456 58.1506 147.428C58.3187 146.625 59.9437 131.728 61.0007 121.866C61.0083 121.777 61.0414 121.688 61.0975 121.612C61.1102 121.594 61.1255 121.576 61.1408 121.559C61.1968 121.5 61.2656 121.457 61.3394 121.432C61.3904 121.414 61.4464 121.404 61.505 121.404L72.019 121.401C72.2991 121.401 72.5284 121.63 72.5284 121.909C72.5284 122.189 72.3017 122.418 72.019 122.418L62.8218 122.42L68.4557 127.533L118.112 128.417L113.52 121.297L107.736 121.424C107.455 121.432 107.221 121.208 107.216 120.926C107.211 120.646 107.432 120.413 107.715 120.407L113.785 120.275C113.971 120.268 114.128 120.359 114.225 120.509L119.467 128.636C119.538 128.73 119.576 128.847 119.571 128.966L118.996 143.497H149.361C149.641 143.497 149.87 143.725 149.87 144.005C149.87 144.284 149.641 144.513 149.361 144.513H118.955L118.626 152.782C118.616 153.054 118.392 153.27 118.117 153.27H66.8358C66.8358 153.265 66.8333 153.265 66.8307 153.265ZM67.3707 152.248H117.628L118.532 129.441L68.7384 128.557L67.3707 152.248ZM59.1898 147.321L66.3723 151.867L67.7375 128.255L61.9099 122.966C60.9752 131.647 59.554 144.757 59.1898 147.321Z" fill="#148496"/>
<path d="M92.6445 165.478C92.1809 165.478 91.7174 165.455 91.2462 165.406C83.809 164.641 78.3788 157.984 79.1454 150.563C79.5173 146.968 81.2671 143.733 84.0764 141.453C86.8857 139.174 90.4184 138.119 94.0199 138.49C101.457 139.253 106.885 145.913 106.121 153.333C105.405 160.286 99.501 165.478 92.6445 165.478ZM92.6114 139.433C89.7409 139.433 86.98 140.409 84.7208 142.241C82.1228 144.35 80.503 147.344 80.1591 150.668C79.8153 153.991 80.7908 157.252 82.9048 159.844C85.0188 162.436 88.0191 164.052 91.3506 164.395C98.2275 165.099 104.401 160.093 105.109 153.229C105.818 146.365 100.797 140.208 93.918 139.502C93.4799 139.456 93.0444 139.433 92.6114 139.433ZM92.6547 162.535C92.2879 162.535 91.9186 162.517 91.5493 162.479C85.7294 161.882 81.4835 156.672 82.0821 150.866C82.6806 145.059 87.902 140.823 93.7219 141.42C99.5418 142.017 103.788 147.227 103.189 153.033C102.899 155.847 101.528 158.378 99.3304 160.161C97.4176 161.709 95.082 162.535 92.6547 162.535ZM92.6267 142.378C87.7746 142.378 83.6001 146.05 83.0932 150.967C82.5533 156.215 86.3916 160.924 91.6512 161.465C94.1956 161.724 96.6968 160.982 98.6834 159.369C100.67 157.755 101.91 155.468 102.173 152.927L102.68 152.978L102.173 152.927C102.713 147.679 98.8744 142.97 93.6149 142.429C93.2838 142.396 92.9527 142.378 92.6267 142.378Z" fill="#148496"/>
<path d="M73.0478 127.894C72.7957 127.894 72.5766 127.706 72.5435 127.449L69.4591 103.282C69.4413 103.145 69.4795 103.008 69.5661 102.901C69.6527 102.795 69.7775 102.726 69.915 102.713L81.4733 101.588C81.7586 101.56 82.0031 101.765 82.0285 102.045C82.0566 102.324 81.8503 102.573 81.5701 102.601L70.534 103.676L73.5521 127.324C73.5878 127.604 73.3891 127.858 73.1115 127.894C73.0911 127.891 73.0708 127.894 73.0478 127.894Z" fill="#148496"/>
<path d="M85.5103 85.1817C85.3906 85.1817 85.2683 85.1385 85.1715 85.0521L80.7118 81.0828C80.5029 80.8947 80.4825 80.5745 80.671 80.3662C80.8569 80.1578 81.1804 80.1374 81.3893 80.3255L85.849 84.2948C86.0579 84.4828 86.0783 84.803 85.8898 85.0114C85.7905 85.1232 85.6504 85.1817 85.5103 85.1817Z" fill="#148496"/>
<path d="M74.3444 108.225C74.2145 108.225 74.082 108.175 73.9827 108.076L69.854 103.933C69.6553 103.735 69.6553 103.412 69.8566 103.214C70.0552 103.016 70.3787 103.016 70.5773 103.217L74.706 107.359C74.9047 107.557 74.9047 107.88 74.7035 108.078C74.6042 108.177 74.4743 108.225 74.3444 108.225Z" fill="#148496"/>
<path d="M108.347 128.936C108.084 128.936 107.86 128.735 107.84 128.468L105.904 104.99L74.566 107.753L77.8134 127.803C77.8592 128.08 77.6682 128.341 77.3906 128.384C77.1079 128.428 76.8506 128.24 76.8073 127.963L73.4733 107.374C73.4504 107.234 73.4861 107.092 73.5752 106.98C73.6618 106.868 73.7917 106.797 73.9318 106.787L106.324 103.933C106.459 103.921 106.594 103.964 106.696 104.05C106.801 104.137 106.864 104.261 106.875 104.398L108.851 128.387C108.874 128.667 108.665 128.913 108.385 128.936C108.375 128.933 108.36 128.936 108.347 128.936Z" fill="#148496"/>
<path d="M108.413 104.731C108.408 104.731 108.403 104.731 108.398 104.731L84.4992 104.027C84.4915 104.027 84.4839 104.027 84.4788 104.027C84.4049 104.022 84.3362 104.002 84.2725 103.969L79.7032 101.679C79.5223 101.588 79.4128 101.4 79.423 101.197L80.5641 80.481C80.5794 80.2065 80.8137 79.9931 81.0862 80.0007L104.134 80.5775C104.246 80.5801 104.353 80.6207 104.44 80.6893L110.458 85.4998C110.473 85.5125 110.489 85.5252 110.504 85.5404C110.522 85.5557 110.535 85.5735 110.55 85.5913C110.619 85.6827 110.659 85.7971 110.654 85.9191C110.654 85.9241 110.654 85.9267 110.654 85.9318C110.654 85.9369 110.654 85.9445 110.652 85.9496L108.92 104.271C108.894 104.533 108.673 104.731 108.413 104.731ZM85.0544 103.026L107.949 103.702L109.587 86.379L86.2337 85.1033L85.0544 103.026ZM80.4571 100.92L84.0509 102.721L85.248 84.5341C85.2658 84.2571 85.5052 84.0462 85.7854 84.0589L108.584 85.3041L103.935 81.5889L81.5523 81.0273L80.4571 100.92Z" fill="#148496"/>
<path d="M67.325 105.759H42.3848V68.8794H67.325V105.759ZM43.1489 104.997H66.5609V69.6417H43.1489V104.997Z" fill="#DCDFEA"/>
<path d="M49.4959 102.738H45.813V96.5879H49.4959V102.738ZM46.5771 101.975H48.7318V97.3502H46.5771V101.975Z" fill="#DCDFEA"/>
<path d="M64.1207 102.738H60.4377V96.5879H64.1207V102.738ZM61.2018 101.975H63.3566V97.3502H61.2018V101.975Z" fill="#DCDFEA"/>
<path d="M49.4959 94.883H45.813V88.7334H49.4959V94.883ZM46.5771 94.1207H48.7318V89.4957H46.5771V94.1207Z" fill="#DCDFEA"/>
<path d="M54.3707 94.883H50.6877V88.7334H54.3707V94.883ZM51.4518 94.1207H53.6066V89.4957H51.4518V94.1207Z" fill="#DCDFEA"/>
<path d="M59.2459 94.883H55.563V88.7334H59.2459V94.883ZM56.3271 94.1207H58.4818V89.4957H56.3271V94.1207Z" fill="#DCDFEA"/>
<path d="M64.1207 94.883H60.4377V88.7334H64.1207V94.883ZM61.2018 94.1207H63.3566V89.4957H61.2018V94.1207Z" fill="#DCDFEA"/>
<path d="M49.4959 87.028H45.813V80.8784H49.4959V87.028ZM46.5771 86.2657H48.7318V81.6408H46.5771V86.2657Z" fill="#DCDFEA"/>
<path d="M54.3707 87.028H50.6877V80.8784H54.3707V87.028ZM51.4518 86.2657H53.6066V81.6408H51.4518V86.2657Z" fill="#DCDFEA"/>
<path d="M59.2459 87.028H55.563V80.8784H59.2459V87.028ZM56.3271 86.2657H58.4818V81.6408H56.3271V86.2657Z" fill="#DCDFEA"/>
<path d="M64.1207 87.028H60.4377V80.8784H64.1207V87.028ZM61.2018 86.2657H63.3566V81.6408H61.2018V86.2657Z" fill="#DCDFEA"/>
<path d="M49.4959 79.1731H45.813V73.0234H49.4959V79.1731ZM46.5771 78.4107H48.7318V73.7858H46.5771V78.4107Z" fill="#DCDFEA"/>
<path d="M54.3707 79.1731H50.6877V73.0234H54.3707V79.1731ZM51.4518 78.4107H53.6066V73.7858H51.4518V78.4107Z" fill="#DCDFEA"/>
<path d="M59.2459 79.1731H55.563V73.0234H59.2459V79.1731ZM56.3271 78.4107H58.4818V73.7858H56.3271V78.4107Z" fill="#DCDFEA"/>
<path d="M64.1207 79.1731H60.4377V73.0234H64.1207V79.1731ZM61.2018 78.4107H63.3566V73.7858H61.2018V78.4107Z" fill="#DCDFEA"/>
<path d="M69.0263 69.5449H40.6833V66H69.0263V69.5449ZM41.4474 68.7826H68.2622V66.7624H41.4474V68.7826Z" fill="#DCDFEA"/>
<path d="M58.5886 105.716H52.0454V96.4966H58.5886V105.716ZM52.807 104.954H57.822V97.2589H52.807V104.954Z" fill="#DCDFEA"/>
<path d="M270.412 51.7876C268.12 51.7876 265.845 51.1269 264.569 50.235C261.882 48.3596 258.09 48.1614 255.342 49.7547C252.173 51.592 249.216 51.437 246.037 49.2617C243.33 47.4092 240.353 47.4118 237.187 49.2719C233.715 51.3099 229.474 51.0837 226.38 48.6976C224.773 47.4575 223.886 45.7575 223.881 43.9075C223.876 41.9228 224.9 39.9382 226.622 38.599C230.501 35.5775 235.959 35.9587 239.125 37.8519C240.549 38.7032 242.354 39.4859 245.788 38.0018C248.826 36.688 252.27 35.1989 255.78 37.8544C259.073 40.3448 261.689 40.7488 264.259 39.1657C268.642 36.4644 272.414 35.514 276.573 39.6637C277.87 40.9572 278.512 42.7462 278.384 44.7003C278.239 46.9086 277.118 49.0203 275.387 50.3493L275.078 49.9478L275.387 50.3493C274.037 51.376 272.218 51.7876 270.412 51.7876ZM259.498 47.6735C261.493 47.6735 263.507 48.258 265.15 49.404C267.213 50.8449 272.159 51.5361 274.765 49.5387C276.27 48.385 277.243 46.5503 277.368 44.6266C277.478 42.9673 276.938 41.4578 275.853 40.3727C272.152 36.6804 268.876 37.5012 264.788 40.0195C261.847 41.8313 258.788 41.3994 255.161 38.6549C252.341 36.5228 249.664 37.4224 246.188 38.9268C242.497 40.5226 240.36 39.7705 238.6 38.7159C235.725 36.9955 230.768 36.6474 227.246 39.3918C225.771 40.5404 224.892 42.2252 224.895 43.8999C224.897 45.4525 225.626 46.8324 226.999 47.892C229.762 50.0241 233.56 50.2223 236.67 48.3952C240.207 46.3191 243.552 46.3292 246.611 48.4231C249.466 50.3773 252 50.5171 254.83 48.8755C256.22 48.0725 257.85 47.6735 259.498 47.6735Z" fill="#DCDFEA"/>
<path d="M45.7229 54.2509C43.0765 54.2509 40.4302 53.3132 38.3671 51.9384C35.056 49.7327 34.0576 49.0669 27.9627 50.5611C24.621 51.3794 22.3007 51.5471 20.4388 51.1024C18.4369 50.6247 16.98 49.4303 15.8593 47.3466C14.9399 45.6389 14.7514 43.7076 15.327 41.911C15.8644 40.2338 17.0335 38.8057 18.5337 37.9925C22.4713 35.8579 24.9317 36.6889 28.0467 37.7384C28.36 37.8451 28.6835 37.9544 29.0197 38.0637C32.6975 39.2656 35.3948 38.5821 39.3859 36.8007C43.7184 34.8669 46.5965 35.215 52.7704 38.422C55.4651 39.8222 57.7294 38.9683 60.1287 38.0688C62.1739 37.3013 64.2879 36.5059 66.7712 37.037C69.5959 37.6393 71.5902 39.3673 72.3899 41.9008C73.1693 44.3708 72.5911 47.2093 70.9509 48.9627C68.1899 51.9181 65.322 51.481 60.4929 50.4519C56.3107 49.5625 55.4397 49.3769 51.5784 52.3349C49.8134 53.6893 47.7707 54.2509 45.7229 54.2509ZM32.9497 48.8509C35.2267 48.8509 36.5893 49.659 38.874 51.1812C42.259 53.4377 47.3275 54.444 51.0257 51.6106C55.078 48.5028 56.1757 48.5994 60.6865 49.5599C65.7015 50.6272 67.976 50.8153 70.2887 48.3402C71.7099 46.818 72.2065 44.3378 71.5239 42.1702C70.8286 39.9619 69.0737 38.455 66.5853 37.9239C64.3592 37.4487 62.4617 38.1628 60.4547 38.9175C57.9739 39.8501 55.4091 40.8132 52.3527 39.2275C46.4157 36.1425 43.8254 35.8147 39.7604 37.6291C35.5553 39.5045 32.6975 40.2211 28.7395 38.9251C28.4007 38.8159 28.0773 38.704 27.7589 38.5973C24.6287 37.5427 22.563 36.8439 18.9743 38.7879C16.4884 40.1347 14.9017 43.6237 16.6693 46.912C18.5897 50.4849 21.4907 51.2091 27.7513 49.6743C30.0206 49.1203 31.638 48.8509 32.9497 48.8509Z" fill="#DCDFEA"/>
<path d="M143.547 40.8874C142.049 40.8874 140.758 40.2572 139.5 39.6422C137.76 38.7934 136.258 38.059 134.347 38.9129C130.596 40.59 127.386 41.3702 123.92 39.7159C120.897 38.275 119.537 38.5774 116.987 39.3398L116.653 39.4389C114.127 40.2012 111.944 40.8594 109.102 38.7197C107.135 37.2382 106.221 33.8712 108.055 31.4063C110.39 28.2654 112.649 28.4865 117.244 29.7367C120.93 30.7405 121.992 30.0366 123.915 28.7635C124.195 28.5779 124.49 28.3823 124.811 28.1815C127.04 26.7763 130.028 25.5133 133.374 28.2171C136.156 30.4635 137.108 30.7862 140.175 30.5321C140.44 30.5092 140.697 30.4864 140.949 30.466C143.82 30.2145 145.893 30.0315 147.864 31.8408C149.049 32.9284 149.474 34.941 148.924 36.852C148.32 38.951 146.718 40.3868 144.528 40.7984C144.191 40.8594 143.865 40.8874 143.547 40.8874ZM136.046 37.5178C137.462 37.5178 138.718 38.1302 139.948 38.7299C141.387 39.4338 142.747 40.0971 144.344 39.7972C146.142 39.4618 147.459 38.2827 147.951 36.5674C148.389 35.0401 148.073 33.4011 147.179 32.5803C145.539 31.0734 143.848 31.2233 141.043 31.4698C140.791 31.4927 140.531 31.5155 140.264 31.5359C136.922 31.8129 135.728 31.4113 132.74 28.9972C130.489 27.1803 128.283 27.1905 125.359 29.0328C125.046 29.231 124.755 29.4216 124.483 29.6046C122.453 30.9489 121.113 31.8357 116.982 30.7125C112.581 29.5156 110.864 29.3352 108.875 32.0085C107.395 33.9957 108.131 36.7148 109.718 37.9091C112.148 39.7388 113.826 39.2331 116.363 38.4682L116.697 38.3665C119.582 37.5025 121.179 37.2814 124.358 38.7985C127.058 40.0869 129.74 39.8582 133.93 37.9853C134.681 37.6525 135.381 37.5178 136.046 37.5178Z" fill="#DCDFEA"/>
<path d="M351.442 37.4809C349.744 37.4809 348.269 36.7617 346.835 36.0604C344.886 35.11 343.045 34.2104 340.793 35.2192C336.504 37.1378 332.842 38.0298 328.894 36.1468C325.369 34.4645 323.787 34.8177 320.817 35.7071L320.433 35.8215C317.437 36.7236 315.071 37.4377 311.852 35.0134C309.636 33.3439 308.604 29.5474 310.673 26.7724C313.316 23.2199 315.886 23.4714 321.118 24.897C325.947 26.2108 326.877 25.6263 329.63 23.8882L329.821 23.7687C332.35 22.1754 335.74 20.7371 339.533 23.7992C342.551 26.2362 343.819 26.1295 347.209 25.8449L347.573 25.8144C347.879 25.789 348.177 25.7636 348.465 25.7381C351.738 25.451 354.101 25.2426 356.33 27.2883C357.657 28.508 358.133 30.7747 357.512 32.9297C356.832 35.298 355.021 36.9193 352.548 37.3818C352.168 37.4478 351.801 37.4809 351.442 37.4809ZM342.798 33.8597C344.405 33.8597 345.836 34.5585 347.237 35.2421C348.916 36.0604 350.5 36.8354 352.38 36.4822C354.501 36.0858 356.052 34.6958 356.636 32.673C357.155 30.8688 356.773 28.9273 355.711 27.9515C353.781 26.1778 351.7 26.3607 348.544 26.6377C348.254 26.6631 347.956 26.6885 347.647 26.714L347.286 26.7445C343.837 27.0341 342.263 27.1663 338.96 24.4981C336.316 22.3635 333.731 22.3736 330.307 24.5286L330.116 24.648C327.271 26.4421 326.095 27.1841 320.878 25.7661C315.851 24.399 313.731 24.1779 311.404 27.306C309.654 29.6566 310.525 32.8687 312.402 34.2816C315.252 36.4288 317.315 35.8063 320.17 34.9448L320.555 34.8279C323.846 33.8419 325.667 33.5929 329.286 35.3183C332.434 36.8202 335.554 36.5584 340.419 34.3832C341.262 34.0122 342.049 33.8597 342.798 33.8597Z" fill="#DCDFEA"/>
<path d="M252.526 109.67C253.332 106.772 255.415 104.491 255.415 104.491L284.176 103.66L293.997 86.6293L333.764 91.4298L339.25 110.309L356.015 116.635C356.015 116.635 356.371 118.979 356.234 122.185C356.087 125.616 355.958 127.069 355.958 127.069L315.589 122.196L304.331 120.837L251.942 114.513C251.942 114.513 251.66 112.781 252.526 109.67Z" fill="#384E85"/>
<path d="M313.041 91.2977L295.951 89.1113L288.432 103.88L311.19 106.628L313.041 91.2977Z" fill="#0C1572"/>
<path d="M315.729 91.5601L331.733 93.5547L335.627 109.578L313.879 106.89L315.729 91.5601Z" fill="#88DEF2"/>
<path d="M337.124 130.902C340.766 131.341 344.075 128.752 344.514 125.117C344.953 121.483 342.355 118.18 338.712 117.74C335.07 117.3 331.761 119.89 331.322 123.525C330.883 127.159 333.481 130.462 337.124 130.902Z" fill="black"/>
<path d="M337.496 127.814C339.43 128.047 341.186 126.672 341.419 124.743C341.652 122.814 340.273 121.061 338.34 120.828C336.406 120.594 334.65 121.969 334.417 123.898C334.184 125.827 335.563 127.58 337.496 127.814Z" fill="#939598"/>
<path d="M267.482 122.495C271.125 122.935 274.434 120.345 274.872 116.71C275.311 113.076 272.714 109.773 269.071 109.333C265.428 108.894 262.119 111.483 261.68 115.118C261.242 118.752 263.839 122.055 267.482 122.495Z" fill="black"/>
<path d="M267.855 119.407C269.788 119.64 271.544 118.266 271.777 116.337C272.01 114.408 270.631 112.655 268.698 112.421C266.764 112.188 265.008 113.562 264.775 115.491C264.543 117.42 265.921 119.173 267.855 119.407Z" fill="#939598"/>
<path d="M302.093 107.802C302.093 107.802 300.358 108.631 296.105 108.217C291.853 107.805 290.728 105.544 289.411 104.525C288.094 103.504 286.857 102.591 286.329 101.755C285.912 101.095 286.377 100.886 287.992 101.676C287.992 101.676 286.415 100.308 286.473 99.6893C286.531 99.071 288.566 100.703 288.566 100.703C288.566 100.703 286.8 99.0508 287.174 98.6224C287.548 98.194 289.79 100.727 289.79 100.727C289.79 100.727 289.14 98.9042 289.865 98.4777C290.59 98.0511 290.913 100.837 290.913 100.837C290.913 100.837 293.626 104.576 297.524 104.444C301.423 104.311 303.58 102.072 303.58 102.072L302.093 107.802Z" fill="#F88627"/>
<path d="M305.348 101.81C307.29 102.045 309.054 100.664 309.288 98.7261C309.522 96.7882 308.137 95.0272 306.195 94.7927C304.253 94.5582 302.488 95.9391 302.254 97.877C302.02 99.8149 303.405 101.576 305.348 101.81Z" fill="#F88627"/>
<path d="M298.63 103.705L301.585 109.019L305.466 105.937L309.145 106.381C309.145 106.381 309.466 103.89 308.427 102.433C307.393 100.983 304.735 100.838 303.59 101.384C302.445 101.93 298.63 103.705 298.63 103.705Z" fill="#FFABBF"/>
<path d="M303.946 95.2918C303.946 95.2918 303.736 94.1918 304.873 93.4466C306.009 92.7014 306.697 93.592 306.697 93.592C306.697 93.592 306.874 92.7289 308.39 92.9585C309.906 93.188 309.989 94.4488 309.989 94.4488C309.989 94.4488 311.02 94.126 311.578 95.4036C312.136 96.6812 311.023 97.2593 311.023 97.2593C311.023 97.2593 311.613 97.6826 311.352 98.4707C310.889 99.864 309.113 99.4735 309.113 99.4735C309.113 99.4735 306.997 99.2181 306.081 96.7476C305.499 95.1798 303.946 95.2918 303.946 95.2918Z" fill="#C82332"/>
<path d="M301.23 98.0446L303.343 98.2997C303.543 98.3238 303.725 98.1818 303.749 97.9823L303.757 97.9125C303.781 97.713 303.639 97.5319 303.439 97.5078L301.326 97.2527C301.126 97.2285 300.944 97.3706 300.92 97.57L300.912 97.6399C300.888 97.8393 301.03 98.0205 301.23 98.0446Z" fill="#F88627"/>
</svg>
