<svg xmlns="http://www.w3.org/2000/svg" viewBox="0 191 107 107" version="1.1">
    <g
       transform="matrix(0.35277777,0,0,-0.35277777,106.09895,244.47327)">
      <path
         d="m 0,0 c 0,-82.228 -66.659,-148.886 -148.886,-148.886 -82.228,0 -148.887,66.658 -148.887,148.886 0,82.228 66.659,148.887 148.887,148.887 C -66.659,148.887 0,82.228 0,0"
         style="fill:#00ada8;fill-opacity:1;fill-rule:nonzero;stroke:none" />
    </g>
    <g
       transform="matrix(0.35277777,0,0,-0.35277777,14.216019,225.63242)">
      <path
         d="m 0,0 c 0,0 72.533,34.768 104.303,44.958 0,0 31.826,-30.288 49.482,-74.189 17.656,-43.901 26.05,-97.637 26.05,-97.637 l -106.104,-37.38 c 0,0 -7.792,59.945 -29.972,103.704 C 21.58,-16.784 0,0 0,0"
         style="fill:#ffffff;fill-opacity:1;fill-rule:nonzero;stroke:none" />
    </g>
    <g
       transform="matrix(0.35277777,0,0,-0.35277777,27.394709,229.38368)">
      <path
         d="m 0,0 c -0.774,0 -1.511,0.452 -1.837,1.208 -0.438,1.014 0.029,2.191 1.043,2.629 L 69.15,34.05 c 1.013,0.438 2.192,-0.028 2.629,-1.043 0.438,-1.014 -0.029,-2.192 -1.043,-2.629 L 0.792,0.165 C 0.534,0.054 0.265,0 0,0"
         style="fill:#1f4847;fill-opacity:1;fill-rule:nonzero;stroke:none" />
    </g>
    <g
       transform="matrix(0.35277777,0,0,-0.35277777,32.813509,236.44477)">
      <path
         d="m 0,0 c -0.781,0 -1.523,0.461 -1.845,1.227 -0.427,1.018 0.052,2.19 1.07,2.618 l 65.374,27.449 c 1.02,0.427 2.191,-0.052 2.618,-1.069 0.428,-1.019 -0.051,-2.191 -1.07,-2.619 L 0.773,0.157 C 0.521,0.051 0.258,0 0,0"
         style="fill:#1f4847;fill-opacity:1;fill-rule:nonzero;stroke:none" />
    </g>
    <g
       transform="matrix(0.35277777,0,0,-0.35277777,37.266439,245.15912)">
      <path
         d="m 0,0 c -0.789,0 -1.537,0.471 -1.853,1.247 -0.417,1.023 0.075,2.19 1.099,2.607 l 67.737,27.574 c 1.021,0.415 2.19,-0.076 2.606,-1.099 0.417,-1.022 -0.075,-2.189 -1.098,-2.606 L 0.753,0.148 C 0.507,0.048 0.251,0 0,0"
         style="fill:#1f4847;fill-opacity:1;fill-rule:nonzero;stroke:none" />
    </g>
    <g
       transform="matrix(0.35277777,0,0,-0.35277777,41.352009,254.17871)">
      <path
         d="m 0,0 c -0.795,0 -1.547,0.479 -1.859,1.263 -0.408,1.026 0.093,2.189 1.12,2.596 l 50.761,20.172 c 1.03,0.408 2.189,-0.094 2.597,-1.12 0.408,-1.026 -0.093,-2.189 -1.119,-2.597 L 0.738,0.143 C 0.496,0.046 0.246,0 0,0"
         style="fill:#1f4847;fill-opacity:1;fill-rule:nonzero;stroke:none" />
    </g>
    <g
       transform="matrix(0.35277777,0,0,-0.35277777,44.964339,263.86701)">
      <path
         d="m 0,0 c -0.826,0 -1.6,0.517 -1.888,1.341 -0.364,1.042 0.185,2.183 1.227,2.548 l 38.034,13.306 c 1.042,0.365 2.183,-0.184 2.548,-1.227 0.365,-1.042 -0.185,-2.184 -1.227,-2.548 L 0.661,0.113 C 0.442,0.037 0.219,0 0,0"
         style="fill:#1f4847;fill-opacity:1;fill-rule:nonzero;stroke:none" />
    </g>
    <g
       transform="matrix(0.35277777,0,0,-0.35277777,47.427609,273.88329)">
      <path
         d="m 0,0 c -0.797,0 -1.551,0.48 -1.861,1.268 -0.405,1.027 0.099,2.188 1.127,2.593 l 37.735,14.884 c 1.026,0.407 2.188,-0.099 2.594,-1.127 C 40,16.591 39.496,15.43 38.469,15.024 L 0.733,0.141 C 0.493,0.046 0.244,0 0,0"
         style="fill:#1f4847;fill-opacity:1;fill-rule:nonzero;stroke:none" />
    </g>
    <g
       transform="matrix(0.35277777,0,0,-0.35277777,77.045409,218.13362)">
      <path
         d="m 0,0 -33.338,-107.875 19.402,-5.62 32.893,108.018 z"
         style="fill:#971b23;fill-opacity:1;fill-rule:nonzero;stroke:none"/>
    </g>
    <g
       transform="matrix(0.35277777,0,0,-0.35277777,79.345539,217.3536)">
      <path
         d="M 0,0 4.472,14.481 14.833,11.48 10.115,-3.13 Z"
         style="fill:#971b23;fill-opacity:1;fill-rule:nonzero;stroke:none"/>
    </g>
    <g
       transform="matrix(0.35277777,0,0,-0.35277777,64.924719,257.64759)">
      <path
         d="m 0,0 0.742,-16.743 -0.12,-9.285 3.04,-1.112 5.875,8.383 9.664,13.324 z"
         style="fill:#971b23;fill-opacity:1;fill-rule:nonzero;stroke:none"/>
    </g>
    <g
       transform="matrix(0.35277777,0,0,-0.35277777,66.988329,238.29718)">
      <path
         d="M 0,0 C -0.245,0 -0.494,0.036 -0.74,0.112 -2.059,0.521 -2.797,1.921 -2.389,3.24 l 12.787,41.32 c 1.397,4.509 6.204,7.041 10.712,5.648 l 4.434,-1.372 c 1.32,-0.408 2.058,-1.809 1.65,-3.128 -0.408,-1.319 -1.809,-2.059 -3.127,-1.649 l -4.435,1.372 c -1.877,0.579 -3.877,-0.473 -4.458,-2.35 L 2.387,1.762 C 2.055,0.689 1.067,0 0,0"
         style="fill:#971b23;fill-opacity:1;fill-rule:nonzero;stroke:none"/>
    </g>
    <g
       transform="matrix(0.35277777,0,0,-0.35277777,85.628709,235.90592)">
      <path
         d="m 0,0 c -0.434,0 -0.868,0.16 -1.207,0.482 -0.699,0.667 -0.726,1.775 -0.06,2.475 8.805,9.243 8.683,22.899 8.681,23.036 -0.017,0.966 0.753,1.763 1.718,1.78 h 0.032 c 0.951,0 1.731,-0.76 1.749,-1.715 C 10.924,25.441 11.084,10.849 1.268,0.543 0.924,0.182 0.462,0 0,0"
         style="fill:#1f4847;fill-opacity:1;fill-rule:nonzero;stroke:none"/>
    </g>
    <g
       transform="matrix(0.35277777,0,0,-0.35277777,86.980569,240.31841)">
      <path
         d="m 0,0 c -0.569,0 -1.128,0.277 -1.464,0.789 -0.531,0.808 -0.307,1.893 0.502,2.424 10.71,7.039 11.278,19.84 11.283,19.969 0.034,0.964 0.838,1.703 1.81,1.687 0.966,-0.034 1.722,-0.844 1.688,-1.81 C 13.798,22.461 13.167,8.311 0.959,0.287 0.664,0.093 0.33,0 0,0"
         style="fill:#1f4847;fill-opacity:1;fill-rule:nonzero;stroke:none"/>
    </g>
</svg>
