<svg viewBox="0 0 32 34" fill="none" xmlns="http://www.w3.org/2000/svg">
<path d="M16.0195 34.0002C11.739 34.0002 7.45845 34.0002 3.17795 34.0002C2.37373 34.0002 1.64735 33.8122 1.02473 33.248C0.324281 32.6031 0 31.8106 0 30.8434C0.0389137 27.9552 0.907986 25.3491 2.62019 23.0654C3.98216 21.2385 5.79814 20.1772 7.9773 19.7742C9.70247 19.4653 11.3628 19.7474 13.0231 20.2713C15.0077 20.9026 17.0053 20.8892 18.9899 20.2713C20.1962 19.8951 21.4155 19.5996 22.6737 19.6533C25.4884 19.7608 27.7844 20.9161 29.5095 23.24C30.6899 24.8521 31.4812 26.6521 31.8054 28.6537C31.9351 29.4597 31.987 30.2792 31.987 31.0852C31.9741 32.5628 30.8196 33.8122 29.3928 33.9599C29.1723 33.9868 28.9388 33.9868 28.7183 33.9868C24.4897 34.0002 20.2481 34.0002 16.0195 34.0002Z" />
<path d="M7.19897 9.12143C7.23789 4.12419 11.0255 0.0269965 16.0194 0.000129693C20.8836 -0.0267372 24.8398 4.12419 24.8139 9.13486C24.788 14.0918 21.0004 18.2159 15.9805 18.2293C11.1293 18.2562 7.19897 14.1321 7.19897 9.12143Z" />
</svg>
