<svg width="17" height="18" viewBox="0 0 17 18" fill="none" xmlns="http://www.w3.org/2000/svg">
<path d="M8.51379 18.0002C6.23885 18.0002 3.96391 18.0002 1.68897 18.0002C1.26156 18.0002 0.875507 17.9006 0.544607 17.6019C0.172344 17.2605 0 16.8409 0 16.3289C0.0206813 14.7999 0.482563 13.4202 1.39254 12.2112C2.11638 11.2439 3.08151 10.6821 4.23966 10.4688C5.15653 10.3052 6.03893 10.4545 6.92133 10.7319C7.97607 11.0662 9.03771 11.059 10.0925 10.7319C10.7336 10.5328 11.3816 10.3763 12.0503 10.4048C13.5462 10.4617 14.7664 11.0733 15.6833 12.3036C16.3106 13.157 16.7311 14.11 16.9035 15.1697C16.9724 15.5964 17 16.0302 17 16.4569C16.9931 17.2392 16.3796 17.9006 15.6212 17.9788C15.5041 17.9931 15.38 17.9931 15.2628 17.9931C13.0154 18.0002 10.7612 18.0002 8.51379 18.0002Z" fill="#B6B6B6"/>
<path d="M3.82617 4.82898C3.84685 2.18339 5.85983 0.0142923 8.51393 6.86611e-05C11.0991 -0.0141549 13.2017 2.18339 13.1879 4.8361C13.1741 7.46035 11.1611 9.64367 8.49324 9.65079C5.91498 9.66501 3.82617 7.48169 3.82617 4.82898Z" fill="#B6B6B6"/>
</svg>
