<svg xmlns="http://www.w3.org/2000/svg" viewBox="0 191 106 106" version="1.1">
    <g
       transform="matrix(0.35277777,0,0,-0.35277777,105.50363,244.1709)">
      <path
         d="m 0,0 c 0,-82.228 -66.659,-148.886 -148.887,-148.886 -82.227,0 -148.886,66.658 -148.886,148.886 0,82.228 66.659,148.887 148.886,148.887 C -66.659,148.887 0,82.228 0,0"
         style="fill:#1e4847;fill-opacity:1;fill-rule:nonzero;stroke:none" />
    </g>
    <g
       transform="matrix(0.35277777,0,0,-0.35277777,6.9812819,249.57633)">
      <path
         d="m 0,0 29.532,20.638 c 0,0 -10.918,56.958 39.595,81.788 45.979,22.601 104.775,-3.65 109.11,-64.924 C 182.85,-27.713 142.646,-47.132 109.441,-48.67 57.236,-51.087 36.012,0.92 36.012,0.92 Z"
         style="fill:#ffc927;fill-opacity:1;fill-rule:nonzero;stroke:none" />
    </g>
    <g
       transform="matrix(0.35277777,0,0,-0.35277777,36.626685,244.03749)">
      <path
         d="m 0,0 h 15.598 c -0.027,2.025 -0.058,5.083 -0.058,8.177 0,4.719 3.667,7.153 7.912,9.973 2.138,1.419 4.561,3.029 6.969,5.179 6.329,5.651 9.409,10.087 9.796,20.006 0.15,3.828 -1.518,9.871 -6.646,15.348 -3.887,4.152 -10.956,9.166 -22.555,9.476 -8.406,0.223 -15.957,-1.925 -22.461,-6.389 -2.941,-2.018 -4.994,-4.082 -6.169,-5.414 l 8.35,-8.835 c 2.594,1.885 7.604,5.347 11.436,6.905 3.464,1.411 9.339,1.746 14.055,-0.848 3.257,-1.789 5.327,-4.655 5.988,-8.289 1.535,-8.447 -1.306,-11.057 -6.968,-16.257 -0.948,-0.87 -2,-1.836 -3.159,-2.942 C 4.4,18.751 2.524,15.784 0.788,10.592 -0.351,7.189 -0.208,2.599 0,0 m 17.991,-4.716 h -20.11 c -1.169,0 -2.161,0.856 -2.333,2.011 -0.052,0.353 -1.264,8.722 0.767,14.793 1.982,5.925 4.17,9.446 12.517,17.413 1.183,1.129 2.257,2.116 3.225,3.005 5.454,5.008 6.589,6.051 5.518,11.94 -0.404,2.22 -1.621,3.901 -3.619,5 -3.181,1.748 -7.529,1.619 -10.008,0.612 -4.697,-1.91 -11.975,-7.492 -12.048,-7.548 -0.959,-0.738 -2.322,-0.629 -3.152,0.248 L -22.454,54.61 c -0.761,0.806 -0.858,2.033 -0.233,2.949 0.443,0.65 11.121,15.941 33.829,15.314 C 24.369,72.52 32.512,66.714 37.013,61.907 42.134,56.437 45.167,49.25 44.929,43.15 44.481,31.663 40.588,26.085 33.562,19.811 c -2.66,-2.374 -5.231,-4.083 -7.501,-5.589 -3.815,-2.534 -5.805,-3.954 -5.805,-6.045 0,-5.274 0.091,-10.441 0.092,-10.493 0.011,-0.632 -0.232,-1.242 -0.675,-1.694 -0.444,-0.452 -1.05,-0.706 -1.682,-0.706"
         style="fill:#1f4847;fill-opacity:1;fill-rule:nonzero;stroke:none" />
    </g>
    <g
       transform="matrix(0.35277777,0,0,-0.35277777,39.756205,250.78111)">
      <path
         d="m 0,0 c -2.749,-0.301 -5.169,-1.545 -6.641,-3.414 -1.327,-1.684 -1.84,-3.775 -1.528,-6.212 0.786,-6.128 6.372,-8.982 9.9,-8.982 4.669,0 9.693,2.926 9.693,9.35 0,3.048 -0.951,5.512 -2.75,7.124 C 6.67,-0.336 3.67,0.399 0,0 m 1.731,-23.324 c -6.34,0 -13.526,4.899 -14.578,13.098 -0.473,3.688 0.392,7.052 2.501,9.73 2.25,2.856 5.834,4.746 9.833,5.183 5.04,0.548 9.306,-0.592 12.336,-3.31 2.824,-2.532 4.317,-6.21 4.317,-10.635 0,-9.136 -7.424,-14.066 -14.409,-14.066"
         style="fill:#1f4847;fill-opacity:1;fill-rule:nonzero;stroke:none" />
    </g>
    <g
       transform="matrix(0.35277777,0,0,-0.35277777,47.685765,240.59061)">
      <path
         d="m 0,0 z m -13.361,-14.487 c -1.133,0 -2.132,0.819 -2.323,1.974 -0.213,1.284 0.656,2.498 1.941,2.711 l 8.731,1.444 c 0.033,3.017 0.157,8.166 0.611,9.923 0.51,1.97 2.822,3.371 8.004,6.352 3.227,1.855 6.885,3.959 9.085,5.924 1.682,1.501 16.161,15.175 7.054,32.955 -8.373,16.345 -26.464,14.467 -27.228,14.379 l -17.722,-2.744 c -1.286,-0.198 -2.492,0.683 -2.691,1.971 -0.199,1.286 0.683,2.491 1.97,2.69 l 17.808,2.755 c 0.301,0.037 22.17,2.407 32.06,-16.902 C 32.647,31.946 22.938,16.669 15.83,10.323 13.264,8.032 9.38,5.798 5.954,3.828 3.796,2.587 0.885,0.913 0.112,0.127 -0.152,-1.4 -0.308,-6.247 -0.308,-10.36 c 0,-1.154 -0.835,-2.138 -1.973,-2.327 l -10.692,-1.768 c -0.131,-0.022 -0.26,-0.032 -0.388,-0.032"
         style="fill:#1f4847;fill-opacity:1;fill-rule:nonzero;stroke:none" />
    </g>
    <g
       transform="matrix(0.35277777,0,0,-0.35277777,41.803965,258.80497)">
      <path
         d="m 0,0 c -1.074,0 -2.044,0.738 -2.295,1.829 -0.293,1.269 0.498,2.535 1.767,2.827 l 11.544,2.665 c 1.367,1.037 4.698,5.466 2.78,10.937 -1.866,5.321 -6.611,5.858 -7.505,5.911 l -8.972,-1.243 c -1.288,-0.175 -2.481,0.721 -2.66,2.012 -0.179,1.29 0.722,2.48 2.012,2.659 l 9.175,1.272 c 0.108,0.016 0.216,0.023 0.324,0.023 0.363,0 8.931,-0.104 12.077,-9.074 C 21.081,11.735 16.213,4.81 13.104,3.061 12.909,2.95 12.698,2.869 12.479,2.818 L 0.532,0.061 C 0.354,0.02 0.176,0 0,0"
         style="fill:#1f4847;fill-opacity:1;fill-rule:nonzero;stroke:none" />
    </g>
    <g
       transform="matrix(0.35277777,0,0,-0.35277777,95.711445,262.26067)">
      <path
         d="m 0,0 -29.556,2.992 c 0,0 -11.837,-16.273 -41.201,-16.273 -42.527,0 -49.237,50.73 -31.278,71.022 20.322,22.962 52.435,17.78 66.736,0 10.304,-12.811 10.488,-35.779 10.488,-35.779 z"
         style="fill:#00ada8;fill-opacity:1;fill-rule:nonzero;stroke:none" />
    </g>
    <g
       transform="matrix(0.35277777,0,0,-0.35277777,63.937845,249.41721)">
      <path
         d="m 0,0 c -2.074,0 -3.761,-1.687 -3.761,-3.761 0,-2.073 1.687,-3.76 3.761,-3.76 2.073,0 3.76,1.687 3.76,3.76 C 3.76,-1.687 2.073,0 0,0 m 0,-10.521 c -3.728,0 -6.761,3.033 -6.761,6.76 C -6.761,-0.033 -3.728,3 0,3 c 3.728,0 6.76,-3.033 6.76,-6.761 0,-3.727 -3.032,-6.76 -6.76,-6.76"
         style="fill:#ffffff;fill-opacity:1;fill-rule:nonzero;stroke:none" />
    </g>
    <g
       transform="matrix(0.35277777,0,0,-0.35277777,71.843335,249.41721)">
      <path
         d="m 0,0 c -2.073,0 -3.76,-1.687 -3.76,-3.761 0,-2.073 1.687,-3.76 3.76,-3.76 2.074,0 3.761,1.687 3.761,3.76 C 3.761,-1.687 2.074,0 0,0 m 0,-10.521 c -3.728,0 -6.76,3.033 -6.76,6.76 C -6.76,-0.033 -3.728,3 0,3 c 3.728,0 6.761,-3.033 6.761,-6.761 0,-3.727 -3.033,-6.76 -6.761,-6.76"
         style="fill:#ffffff;fill-opacity:1;fill-rule:nonzero;stroke:none" />
    </g>
    <g
       transform="matrix(0.35277777,0,0,-0.35277777,79.748925,249.41721)">
      <path
         d="m 0,0 c -2.074,0 -3.761,-1.687 -3.761,-3.761 0,-2.073 1.687,-3.76 3.761,-3.76 2.074,0 3.761,1.687 3.761,3.76 C 3.761,-1.687 2.074,0 0,0 m 0,-10.521 c -3.728,0 -6.761,3.033 -6.761,6.76 C -6.761,-0.033 -3.728,3 0,3 c 3.728,0 6.761,-3.033 6.761,-6.761 0,-3.727 -3.033,-6.76 -6.761,-6.76"
         style="fill:#ffffff;fill-opacity:1;fill-rule:nonzero;stroke:none"/>
    </g>
</svg>
