<svg width="17" height="17" viewBox="0 0 32 32" fill="none" xmlns="http://www.w3.org/2000/svg">
<path d="M25.5824 30.4375C25.6 27.0311 22.0848 25.0152 18.6752 23.5464C15.2784 22.084 14.1936 20.852 14.1936 18.212C14.1936 16.6296 15.2304 17.1448 15.6848 14.2424C15.8768 13.0392 16.792 14.2232 16.968 11.476C16.968 10.3815 16.4672 10.1095 16.4672 10.1095C16.4672 10.1095 16.7216 8.48875 16.8208 7.24075C16.9232 5.93355 16.184 3.14475 13.1392 2.28875C12.608 1.74315 12.248 0.87755 13.8864 0.0103504C10.3024 -0.15605 9.4688 1.71915 7.56 3.09835C5.936 4.30795 5.4976 6.22315 5.576 7.24235C5.68 8.49035 5.9328 10.1112 5.9328 10.1112C5.9328 10.1112 5.4304 10.3832 5.4304 11.4775C5.6064 14.2263 6.5248 13.0408 6.7152 14.244C7.1696 17.1464 8.208 16.6312 8.208 18.2136C8.208 20.8536 7.8688 21.7496 4.4704 23.212C1.0608 24.6792 0 27.0311 0.0176 30.4375C0.0224 31.4567 0 31.8312 0 31.8312H25.6C25.6 31.8312 25.5776 31.4567 25.5824 30.4375ZM27.2 15.8312V11.0311H24V15.8312H19.2V19.0312H24V23.8312H27.2V19.0312H32V15.8312H27.2Z" fill="#B6B6B6"/>
</svg>
