<svg xmlns="http://www.w3.org/2000/svg"
   viewBox="0 192 106 106"
   version="1.1">
    <g
       transform="matrix(0.35277777,0,0,-0.35277777,105.46118,244.69838)">
      <path
         d="m 0,0 c 0,-82.228 -66.659,-148.886 -148.887,-148.886 -82.227,0 -148.886,66.658 -148.886,148.886 0,82.228 66.659,148.887 148.886,148.887 C -66.659,148.887 0,82.228 0,0"
         style="fill:#ffcb57;fill-opacity:1;fill-rule:nonzero;stroke:none"/>
    </g>
    <g
       transform="matrix(0.35277777,0,0,-0.35277777,51.142735,282.97657)">
      <path
         d="m 0,0 c 0,0 -69.164,44.726 -77.809,90.984 -8.646,46.257 33.141,66.43 57.636,57.785 24.496,-8.646 28.819,-30.388 28.819,-30.388 0,0 17.291,41.501 51.872,32.342 C 95.1,141.564 109.509,94.641 86.455,65.509 63.4,36.377 0,0 0,0"
         style="fill:#fa512c;fill-opacity:1;fill-rule:nonzero;stroke:none"/>
    </g>
    <g
       transform="matrix(0.35277777,0,0,-0.35277777,25.467965,226.72388)">
      <path
         d="m 0,0 c -0.967,0 -1.817,0.702 -1.973,1.687 l -2.345,14.811 c -0.172,1.091 0.572,2.115 1.663,2.288 1.083,0.171 2.115,-0.571 2.288,-1.663 L 1.978,2.313 C 2.15,1.222 1.406,0.197 0.315,0.024 0.209,0.008 0.104,0 0,0"
         style="fill:#00ada8;fill-opacity:1;fill-rule:nonzero;stroke:none"/>
    </g>
    <g
       transform="matrix(0.35277777,0,0,-0.35277777,18.641525,231.34859)">
      <path
         d="m 0,0 c -0.408,0 -0.819,0.124 -1.174,0.382 l -13.938,10.125 c -0.894,0.649 -1.092,1.9 -0.443,2.794 0.651,0.892 1.901,1.09 2.794,0.442 L 1.177,3.618 C 2.071,2.969 2.269,1.718 1.62,0.824 1.228,0.286 0.618,0 0,0"
         style="fill:#00ada8;fill-opacity:1;fill-rule:nonzero;stroke:none"/>
    </g>
    <g
       transform="matrix(0.35277777,0,0,-0.35277777,15.395545,238.99944)">
      <path
         d="m 0,0 h -0.034 l -16.994,0.281 c -1.104,0.019 -1.985,0.929 -1.966,2.033 0.018,1.105 0.923,1.973 2.033,1.967 L 0.033,4 C 1.137,3.981 2.018,3.071 1.999,1.967 1.981,0.874 1.089,0 0,0"
         style="fill:#00ada8;fill-opacity:1;fill-rule:nonzero;stroke:none"/>
    </g>
    <g
       transform="matrix(0.35277777,0,0,-0.35277777,44.111275,247.66168)">
      <path
         d="m 0,0 c 0,-2.948 -2.39,-5.337 -5.337,-5.337 -2.948,0 -5.338,2.389 -5.338,5.337 0,2.948 2.39,5.337 5.338,5.337 C -2.39,5.337 0,2.948 0,0"
         style="fill:#ffffff;fill-opacity:1;fill-rule:nonzero;stroke:none"/>
    </g>
    <g
       transform="matrix(0.35277777,0,0,-0.35277777,65.520645,248.01445)">
      <path
         d="m 0,0 c 0,-2.948 -2.39,-5.337 -5.337,-5.337 -2.948,0 -5.338,2.389 -5.338,5.337 0,2.948 2.39,5.337 5.338,5.337 C -2.39,5.337 0,2.948 0,0"
         style="fill:#ffffff;fill-opacity:1;fill-rule:nonzero;stroke:none"/>
    </g>
    <g
       transform="matrix(0.35277777,0,0,-0.35277777,52.938645,266.11404)">
      <path
         d="m 0,0 c -0.286,0 -0.57,0.004 -0.856,0.01 -14.423,0.339 -26.668,8.991 -32.757,23.145 l 4.593,1.977 C -23.725,12.822 -13.153,5.3 -0.739,5.009 11.816,4.706 23.253,12.003 29.11,24.029 L 33.605,21.84 C 27.015,8.306 14.193,0 0,0"
         style="fill:#ffffff;fill-opacity:1;fill-rule:nonzero;stroke:none"/>
    </g>
    <g
       transform="matrix(0.35277777,0,0,-0.35277777,41.165905,225.65391)">
      <path
         d="m 0,0 c -0.966,-0.276 -1.989,-0.386 -3.041,-0.318 -6.489,0.425 -9.143,5.849 -9.639,8.658 -0.171,0.962 0.47,1.879 1.432,2.049 0.963,0.17 1.88,-0.472 2.05,-1.433 0.04,-0.211 1.076,-5.396 6.388,-5.745 2.18,-0.141 4.106,0.965 5.28,3.041 1.283,2.267 1.646,5.895 -0.432,8.89 -2.132,3.072 -5.411,6.487 -8.304,9.498 -3.245,3.379 -6.047,6.297 -7.271,8.621 -2.472,4.695 -2.644,11.456 1.388,14.193 2.312,1.569 4.666,2.053 6.995,1.431 4.631,-1.233 7.255,-6.516 7.364,-6.741 0.429,-0.878 0.064,-1.936 -0.814,-2.364 -0.875,-0.429 -1.935,-0.065 -2.364,0.812 -0.559,1.131 -2.564,4.208 -5.107,4.878 -1.308,0.346 -2.645,0.037 -4.088,-0.942 -2.238,-1.52 -1.975,-6.332 -0.244,-9.619 0.991,-1.883 3.761,-4.766 6.693,-7.819 C -0.73,23.983 2.651,20.462 4.943,17.159 7.541,13.416 7.778,8.451 5.549,4.51 4.255,2.223 2.284,0.652 0,0"
         style="fill:#1f4847;fill-opacity:1;fill-rule:nonzero;stroke:none"/>
    </g>
    <g
       transform="matrix(0.35277777,0,0,-0.35277777,54.795045,224.81909)">
      <path
         d="M 0,0 C -0.84,-0.177 -1.707,0.281 -2.018,1.108 L -16.291,39.047 -21.15,1.148 c -0.124,-0.967 -1.008,-1.653 -1.979,-1.528 -0.969,0.124 -1.654,1.01 -1.529,1.979 l 5.764,44.954 c 0.103,0.805 0.747,1.442 1.549,1.531 0.807,0.095 1.574,-0.373 1.861,-1.133 L 1.293,2.354 C 1.637,1.44 1.174,0.42 0.26,0.076 0.174,0.043 0.087,0.018 0,0"
         style="fill:#1f4847;fill-opacity:1;fill-rule:nonzero;stroke:none"/>
    </g>
    <g
       transform="matrix(0.35277777,0,0,-0.35277777,52.419635,218.50129)">
      <path
         d="m 0,0 c -0.097,-0.021 -0.197,-0.033 -0.3,-0.037 l -12.419,-0.468 c -0.976,-0.037 -1.798,0.724 -1.834,1.7 -0.037,0.976 0.721,1.796 1.7,1.834 l 12.42,0.469 C 0.543,3.534 1.364,2.773 1.401,1.797 1.434,0.924 0.828,0.174 0,0"
         style="fill:#1f4847;fill-opacity:1;fill-rule:nonzero;stroke:none"/>
    </g>
    <g
       transform="matrix(0.35277777,0,0,-0.35277777,62.791755,223.1346)">
      <path
         d="m 0,0 c -0.063,-0.013 -0.127,-0.023 -0.192,-0.03 l -14.244,-1.408 c -0.473,-0.047 -0.945,0.099 -1.31,0.405 -0.365,0.306 -0.59,0.746 -0.627,1.22 l -3.394,44.204 c -0.075,0.973 0.655,1.822 1.628,1.899 0.974,0.075 1.824,-0.655 1.899,-1.629 L -12.985,2.26 -0.54,3.49 C 0.431,3.587 1.298,2.876 1.394,1.904 1.483,0.998 0.872,0.184 0,0"
         style="fill:#1f4847;fill-opacity:1;fill-rule:nonzero;stroke:none"/>
    </g>
    <g
       transform="matrix(0.35277777,0,0,-0.35277777,68.642405,223.1891)">
      <path
         d="m 0,0 c -0.266,-0.056 -0.537,-0.098 -0.81,-0.126 -2.111,-0.21 -4.249,0.475 -6.02,1.928 -2.155,1.77 -3.508,4.464 -3.811,7.584 -0.502,5.188 -3.202,35.488 -3.229,35.795 -0.087,0.973 0.646,1.833 1.605,1.917 0.973,0.087 1.832,-0.632 1.917,-1.605 C -10.32,45.185 -7.621,14.9 -7.12,9.728 -6.909,7.549 -6.009,5.705 -4.584,4.535 -3.546,3.683 -2.33,3.277 -1.16,3.394 1.391,3.644 3.633,6.406 3.565,9.182 3.448,14.025 1.635,45.195 1.616,45.514 1.56,46.49 2.31,47.325 3.279,47.382 4.254,47.439 5.091,46.695 5.147,45.72 5.224,44.415 6.982,14.17 7.102,9.269 7.208,4.903 4.027,0.848 0,0"
         style="fill:#1f4847;fill-opacity:1;fill-rule:nonzero;stroke:none"
         id="path15810" />
    </g>
    <g
       transform="matrix(0.35277777,0,0,-0.35277777,80.939845,206.61452)">
      <path
         d="M 0,0 C -0.06,-0.012 -0.122,-0.022 -0.184,-0.029 L -21.975,-2.29 c -0.971,-0.101 -1.84,0.604 -1.941,1.576 -0.101,0.972 0.598,1.842 1.577,1.942 L -0.549,3.49 C 0.422,3.59 1.292,2.885 1.393,1.913 1.487,1.004 0.875,0.184 0,0"
         style="fill:#1f4847;fill-opacity:1;fill-rule:nonzero;stroke:none"/>
    </g>
    <g
       transform="matrix(0.35277777,0,0,-0.35277777,78.220115,221.61875)">
      <path
         d="M 0,0 C -0.073,-0.016 -0.149,-0.026 -0.227,-0.032 -1.2,-0.11 -2.052,0.617 -2.129,1.591 L -5.54,42.329 c -0.078,0.972 0.635,1.826 1.623,1.902 0.974,0.077 1.826,-0.649 1.903,-1.623 L 1.396,1.87 C 1.467,0.974 0.857,0.18 0,0"
         style="fill:#1f4847;fill-opacity:1;fill-rule:nonzero;stroke:none"/>
    </g>
</svg>
