<svg viewBox="0 0 431 146" fill="none" xmlns="http://www.w3.org/2000/svg">
<path d="M369.43 48.8614V49.7618C369.232 49.4966 369.22 49.1266 369.43 48.8614Z" fill="#E8EBEE"/>
<path d="M357.016 53.6223V54.1958H351.225V47.4861H354.672C354.87 49.7741 355.72 51.877 357.016 53.6223Z" fill="#E8EBEE"/>
<path d="M336.849 47.4861H331.077V54.1958H336.849V47.4861Z" fill="#E8EBEE"/>
<path d="M343.578 47.4861H337.793V54.1958H343.578V47.4861Z" fill="#E8EBEE"/>
<path d="M350.287 47.4861H344.515V54.1958H350.287V47.4861Z" fill="#E8EBEE"/>
<path d="M350.287 55.1271H344.515V61.8368H350.287V55.1271Z" fill="#E8EBEE"/>
<path d="M323.411 47.4861H317.639V54.1958H323.411V47.4861Z" fill="#E8EBEE"/>
<path d="M323.411 55.1271H317.639V61.8368H323.411V55.1271Z" fill="#E8EBEE"/>
<path d="M330.127 55.1271H324.343V61.8368H330.127V55.1271Z" fill="#E8EBEE"/>
<path d="M330.127 47.4861H324.343V54.1958H330.127V47.4861Z" fill="#E8EBEE"/>
<path d="M336.849 55.1271H331.077V61.8368H336.849V55.1271Z" fill="#E8EBEE"/>
<path d="M343.578 55.1271H337.793V61.8368H343.578V55.1271Z" fill="#E8EBEE"/>
<path d="M357.016 55.1271H351.225V61.8368H357.016V55.1271Z" fill="#E8EBEE"/>
<path d="M357.016 71.8151H351.225V78.5248H357.016V71.8151Z" fill="#E8EBEE"/>
<path d="M357.016 79.4622H351.225V86.1657H357.016V79.4622Z" fill="#E8EBEE"/>
<path d="M344.515 71.815V78.5248H350.287V71.815H344.515ZM344.515 79.4622V86.1657H350.287V79.4622H344.515ZM337.793 71.815V78.5248H343.578V71.815H337.793ZM331.077 71.815V78.5248H336.849V71.815H331.077ZM324.343 79.4622V86.1657H330.127V79.4622H324.343ZM324.343 71.815V78.5248H330.127V71.815H324.343ZM317.639 79.4622V86.1657H323.411V79.4622H317.639ZM317.639 79.4622V86.1657H323.411V79.4622H317.639ZM324.343 71.815V78.5248H330.127V71.815H324.343ZM324.343 79.4622V86.1657H330.127V79.4622H324.343ZM344.515 71.815V78.5248H350.287V71.815H344.515ZM344.515 79.4622V86.1657H350.287V79.4622H344.515ZM331.077 79.4622V86.1657H336.849V79.4622H331.077ZM337.793 71.815V78.5248H343.578V71.815H337.793ZM331.077 71.815V78.5248H336.849V71.815H331.077ZM324.343 79.4622V86.1657H330.127V79.4622H324.343ZM324.343 71.815V78.5248H330.127V71.815H324.343ZM317.639 79.4622V86.1657H323.411V79.4622H317.639ZM317.639 79.4622V86.1657H323.411V79.4622H317.639ZM324.343 71.815V78.5248H330.127V71.815H324.343ZM324.343 79.4622V86.1657H330.127V79.4622H324.343ZM344.515 71.815V78.5248H350.287V71.815H344.515ZM344.515 79.4622V86.1657H350.287V79.4622H344.515ZM331.077 79.4622V86.1657H336.849V79.4622H331.077ZM337.793 71.815V78.5248H343.578V71.815H337.793ZM331.077 71.815V78.5248H336.849V71.815H331.077ZM324.343 79.4622V86.1657H330.127V79.4622H324.343ZM324.343 71.815V78.5248H330.127V71.815H324.343ZM317.639 79.4622V86.1657H323.411V79.4622H317.639ZM317.639 79.4622V86.1657H323.411V79.4622H317.639ZM324.343 71.815V78.5248H330.127V71.815H324.343ZM324.343 79.4622V86.1657H330.127V79.4622H324.343ZM337.793 71.815V78.5248H343.578V71.815H337.793ZM331.077 71.815V78.5248H336.849V71.815H331.077ZM344.515 71.815V78.5248H350.287V71.815H344.515ZM344.515 79.4622V86.1657H350.287V79.4622H344.515ZM344.515 71.815V78.5248H350.287V71.815H344.515ZM337.793 79.4622V86.1657H343.578V79.4622H337.793ZM337.793 71.815V78.5248H343.578V71.815H337.793ZM331.077 79.4622V86.1657H336.849V79.4622H331.077ZM331.077 71.815V78.5248H336.849V71.815H331.077ZM324.343 79.4622V86.1657H330.127V79.4622H324.343ZM324.343 71.815V78.5248H330.127V71.815H324.343ZM317.639 79.4622V86.1657H323.411V79.4622H317.639ZM317.639 79.4622V86.1657H323.411V79.4622H317.639ZM324.343 71.815V78.5248H330.127V71.815H324.343ZM324.343 79.4622V86.1657H330.127V79.4622H324.343ZM331.077 71.815V78.5248H336.849V71.815H331.077ZM331.077 79.4622V86.1657H336.849V79.4622H331.077ZM337.793 71.815V78.5248H343.578V71.815H337.793ZM337.793 79.4622V86.1657H343.578V79.4622H337.793ZM344.515 71.815V78.5248H350.287V71.815H344.515ZM344.515 79.4622V86.1657H350.287V79.4622H344.515ZM344.515 79.4622V86.1657H350.287V79.4622H344.515ZM344.515 71.815V78.5248H350.287V71.815H344.515ZM337.793 79.4622V86.1657H343.578V79.4622H337.793ZM337.793 71.815V78.5248H343.578V71.815H337.793ZM331.077 79.4622V86.1657H336.849V79.4622H331.077ZM331.077 71.815V78.5248H336.849V71.815H331.077ZM324.343 79.4622V86.1657H330.127V79.4622H324.343ZM324.343 71.815V78.5248H330.127V71.815H324.343ZM317.639 79.4622V86.1657H323.411V79.4622H317.639ZM317.639 79.4622V86.1657H323.411V79.4622H317.639ZM324.343 71.815V78.5248H330.127V71.815H324.343ZM324.343 79.4622V86.1657H330.127V79.4622H324.343ZM331.077 71.815V78.5248H336.849V71.815H331.077ZM331.077 79.4622V86.1657H336.849V79.4622H331.077ZM337.793 71.815V78.5248H343.578V71.815H337.793ZM337.793 79.4622V86.1657H343.578V79.4622H337.793ZM344.515 71.815V78.5248H350.287V71.815H344.515ZM344.515 79.4622V86.1657H350.287V79.4622H344.515ZM344.515 79.4622V86.1657H350.287V79.4622H344.515ZM344.515 71.815V78.5248H350.287V71.815H344.515ZM337.793 79.4622V86.1657H343.578V79.4622H337.793ZM337.793 71.815V78.5248H343.578V71.815H337.793ZM331.077 79.4622V86.1657H336.849V79.4622H331.077ZM331.077 71.815V78.5248H336.849V71.815H331.077ZM324.343 79.4622V86.1657H330.127V79.4622H324.343ZM324.343 71.815V78.5248H330.127V71.815H324.343ZM317.639 79.4622V86.1657H323.411V79.4622H317.639ZM317.639 79.4622V86.1657H323.411V79.4622H317.639ZM324.343 71.815V78.5248H330.127V71.815H324.343ZM324.343 79.4622V86.1657H330.127V79.4622H324.343ZM331.077 71.815V78.5248H336.849V71.815H331.077ZM331.077 79.4622V86.1657H336.849V79.4622H331.077ZM337.793 71.815V78.5248H343.578V71.815H337.793ZM337.793 79.4622V86.1657H343.578V79.4622H337.793ZM344.515 71.815V78.5248H350.287V71.815H344.515ZM344.515 79.4622V86.1657H350.287V79.4622H344.515ZM344.515 79.4622V86.1657H350.287V79.4622H344.515ZM344.515 71.815V78.5248H350.287V71.815H344.515ZM337.793 79.4622V86.1657H343.578V79.4622H337.793ZM337.793 71.815V78.5248H343.578V71.815H337.793ZM331.077 79.4622V86.1657H336.849V79.4622H331.077ZM331.077 71.815V78.5248H336.849V71.815H331.077ZM324.343 79.4622V86.1657H330.127V79.4622H324.343ZM324.343 71.815V78.5248H330.127V71.815H324.343ZM317.639 79.4622V86.1657H323.411V79.4622H317.639ZM317.639 79.4622V86.1657H323.411V79.4622H317.639ZM324.343 71.815V78.5248H330.127V71.815H324.343ZM324.343 79.4622V86.1657H330.127V79.4622H324.343ZM331.077 71.815V78.5248H336.849V71.815H331.077ZM331.077 79.4622V86.1657H336.849V79.4622H331.077ZM337.793 71.815V78.5248H343.578V71.815H337.793ZM337.793 79.4622V86.1657H343.578V79.4622H337.793ZM344.515 71.815V78.5248H350.287V71.815H344.515ZM344.515 79.4622V86.1657H350.287V79.4622H344.515ZM344.515 79.4622V86.1657H350.287V79.4622H344.515ZM344.515 71.815V78.5248H350.287V71.815H344.515ZM337.793 79.4622V86.1657H343.578V79.4622H337.793ZM337.793 71.815V78.5248H343.578V71.815H337.793ZM331.077 79.4622V86.1657H336.849V79.4622H331.077ZM331.077 71.815V78.5248H336.849V71.815H331.077ZM324.343 79.4622V86.1657H330.127V79.4622H324.343ZM324.343 71.815V78.5248H330.127V71.815H324.343ZM317.639 79.4622V86.1657H323.411V79.4622H317.639ZM317.639 23.151V29.8669H323.411V23.151H317.639ZM317.639 30.7981V37.5017H323.411V30.7981H317.639ZM317.639 79.4622V86.1657H323.411V79.4622H317.639ZM324.343 71.815V78.5248H330.127V71.815H324.343ZM324.343 79.4622V86.1657H330.127V79.4622H324.343ZM331.077 71.815V78.5248H336.849V71.815H331.077ZM331.077 79.4622V86.1657H336.849V79.4622H331.077ZM337.793 71.815V78.5248H343.578V71.815H337.793ZM337.793 79.4622V86.1657H343.578V79.4622H337.793ZM344.515 71.815V78.5248H350.287V71.815H344.515ZM344.515 79.4622V86.1657H350.287V79.4622H344.515ZM324.343 23.151V29.8669H330.127V23.151H324.343ZM324.343 30.7981V37.5017H330.127V30.7981H324.343ZM317.639 30.7981V37.5017H323.411V30.7981H317.639ZM317.639 23.151V29.8669H323.411V23.151H317.639ZM344.515 79.4622V86.1657H350.287V79.4622H344.515ZM344.515 71.815V78.5248H350.287V71.815H344.515ZM337.793 79.4622V86.1657H343.578V79.4622H337.793ZM337.793 71.815V78.5248H343.578V71.815H337.793ZM331.077 79.4622V86.1657H336.849V79.4622H331.077ZM331.077 71.815V78.5248H336.849V71.815H331.077ZM324.343 79.4622V86.1657H330.127V79.4622H324.343ZM324.343 71.815V78.5248H330.127V71.815H324.343ZM317.639 79.4622V86.1657H323.411V79.4622H317.639ZM317.639 23.151V29.8669H323.411V23.151H317.639ZM317.639 30.7981V37.5017H323.411V30.7981H317.639ZM317.639 79.4622V86.1657H323.411V79.4622H317.639ZM324.343 71.815V78.5248H330.127V71.815H324.343ZM324.343 79.4622V86.1657H330.127V79.4622H324.343ZM331.077 71.815V78.5248H336.849V71.815H331.077ZM331.077 79.4622V86.1657H336.849V79.4622H331.077ZM337.793 71.815V78.5248H343.578V71.815H337.793ZM337.793 79.4622V86.1657H343.578V79.4622H337.793ZM344.515 71.815V78.5248H350.287V71.815H344.515ZM344.515 79.4622V86.1657H350.287V79.4622H344.515ZM351.225 23.151V29.8669H357.016V23.151H351.225ZM344.515 23.151V29.8669H350.287V23.151H344.515ZM331.077 23.151V29.8669H336.849V23.151H331.077ZM337.793 23.151V29.8669H343.578V23.151H337.793ZM324.343 23.151V29.8669H330.127V23.151H324.343ZM324.343 30.7981V37.5017H330.127V30.7981H324.343ZM317.639 30.7981V37.5017H323.411V30.7981H317.639ZM317.639 23.151V29.8669H323.411V23.151H317.639ZM344.515 79.4622V86.1657H350.287V79.4622H344.515ZM344.515 71.815V78.5248H350.287V71.815H344.515ZM337.793 79.4622V86.1657H343.578V79.4622H337.793ZM337.793 71.815V78.5248H343.578V71.815H337.793ZM331.077 79.4622V86.1657H336.849V79.4622H331.077ZM331.077 71.815V78.5248H336.849V71.815H331.077ZM324.343 79.4622V86.1657H330.127V79.4622H324.343ZM324.343 71.815V78.5248H330.127V71.815H324.343ZM317.639 79.4622V86.1657H323.411V79.4622H317.639ZM317.639 23.151V29.8669H323.411V23.151H317.639ZM317.639 30.7981V37.5017H323.411V30.7981H317.639ZM317.639 79.4622V86.1657H323.411V79.4622H317.639ZM324.343 23.151V29.8669H330.127V23.151H324.343ZM324.343 30.7981V37.5017H330.127V30.7981H324.343ZM324.343 71.815V78.5248H330.127V71.815H324.343ZM324.343 79.4622V86.1657H330.127V79.4622H324.343ZM331.077 23.151V29.8669H336.849V23.151H331.077ZM331.077 71.815V78.5248H336.849V71.815H331.077ZM331.077 79.4622V86.1657H336.849V79.4622H331.077ZM337.793 23.151V29.8669H343.578V23.151H337.793ZM337.793 71.815V78.5248H343.578V71.815H337.793ZM337.793 79.4622V86.1657H343.578V79.4622H337.793ZM344.515 23.151V29.8669H350.287V23.151H344.515ZM344.515 71.815V78.5248H350.287V71.815H344.515ZM344.515 79.4622V86.1657H350.287V79.4622H344.515ZM351.225 23.151V29.8669H357.016V23.151H351.225ZM351.225 30.7981V37.5017H357.016V30.7981H351.225ZM344.515 79.4622V86.1657H350.287V79.4622H344.515ZM344.515 71.815V78.5248H350.287V71.815H344.515ZM337.793 79.4622V86.1657H343.578V79.4622H337.793ZM337.793 71.815V78.5248H343.578V71.815H337.793ZM331.077 79.4622V86.1657H336.849V79.4622H331.077ZM331.077 71.815V78.5248H336.849V71.815H331.077ZM324.343 79.4622V86.1657H330.127V79.4622H324.343ZM324.343 71.815V78.5248H330.127V71.815H324.343ZM317.639 79.4622V86.1657H323.411V79.4622H317.639ZM317.639 23.151V29.8669H323.411V23.151H317.639ZM317.639 30.7981V37.5017H323.411V30.7981H317.639ZM317.639 79.4622V86.1657H323.411V79.4622H317.639ZM324.343 23.151V29.8669H330.127V23.151H324.343ZM324.343 30.7981V37.5017H330.127V30.7981H324.343ZM324.343 71.815V78.5248H330.127V71.815H324.343ZM324.343 79.4622V86.1657H330.127V79.4622H324.343ZM331.077 23.151V29.8669H336.849V23.151H331.077ZM331.077 30.7981V37.5017H336.849V30.7981H331.077ZM331.077 71.815V78.5248H336.849V71.815H331.077ZM331.077 79.4622V86.1657H336.849V79.4622H331.077ZM337.793 23.151V29.8669H343.578V23.151H337.793ZM337.793 30.7981V37.5017H343.578V30.7981H337.793ZM337.793 71.815V78.5248H343.578V71.815H337.793ZM337.793 79.4622V86.1657H343.578V79.4622H337.793ZM344.515 23.151V29.8669H350.287V23.151H344.515ZM344.515 30.7981V37.5017H350.287V30.7981H344.515ZM344.515 71.815V78.5248H350.287V71.815H344.515ZM344.515 79.4622V86.1657H350.287V79.4622H344.515ZM351.225 23.151V29.8669H357.016V23.151H351.225ZM351.225 30.7981V37.5017H357.016V30.7981H351.225ZM344.515 79.4622V86.1657H350.287V79.4622H344.515ZM344.515 71.815V78.5248H350.287V71.815H344.515ZM337.793 79.4622V86.1657H343.578V79.4622H337.793ZM337.793 71.815V78.5248H343.578V71.815H337.793ZM331.077 79.4622V86.1657H336.849V79.4622H331.077ZM331.077 71.815V78.5248H336.849V71.815H331.077ZM324.343 79.4622V86.1657H330.127V79.4622H324.343ZM324.343 71.815V78.5248H330.127V71.815H324.343ZM317.639 79.4622V86.1657H323.411V79.4622H317.639ZM317.639 23.151V29.8669H323.411V23.151H317.639ZM317.639 30.7981V37.5017H323.411V30.7981H317.639ZM317.639 79.4622V86.1657H323.411V79.4622H317.639ZM324.343 23.151V29.8669H330.127V23.151H324.343ZM324.343 30.7981V37.5017H330.127V30.7981H324.343ZM324.343 71.815V78.5248H330.127V71.815H324.343ZM324.343 79.4622V86.1657H330.127V79.4622H324.343ZM331.077 23.151V29.8669H336.849V23.151H331.077ZM331.077 30.7981V37.5017H336.849V30.7981H331.077ZM331.077 71.815V78.5248H336.849V71.815H331.077ZM331.077 79.4622V86.1657H336.849V79.4622H331.077ZM337.793 23.151V29.8669H343.578V23.151H337.793ZM337.793 30.7981V37.5017H343.578V30.7981H337.793ZM337.793 71.815V78.5248H343.578V71.815H337.793ZM337.793 79.4622V86.1657H343.578V79.4622H337.793ZM344.515 23.151V29.8669H350.287V23.151H344.515ZM344.515 30.7981V37.5017H350.287V30.7981H344.515ZM344.515 71.815V78.5248H350.287V71.815H344.515ZM344.515 79.4622V86.1657H350.287V79.4622H344.515ZM351.225 23.151V29.8669H357.016V23.151H351.225ZM351.225 30.7981V37.5017H357.016V30.7981H351.225ZM344.515 79.4622V86.1657H350.287V79.4622H344.515ZM344.515 71.815V78.5248H350.287V71.815H344.515ZM337.793 79.4622V86.1657H343.578V79.4622H337.793ZM337.793 71.815V78.5248H343.578V71.815H337.793ZM331.077 79.4622V86.1657H336.849V79.4622H331.077ZM331.077 71.815V78.5248H336.849V71.815H331.077ZM324.343 79.4622V86.1657H330.127V79.4622H324.343ZM324.343 71.815V78.5248H330.127V71.815H324.343ZM317.639 79.4622V86.1657H323.411V79.4622H317.639ZM317.639 23.151V29.8669H323.411V23.151H317.639ZM317.639 30.7981V37.5017H323.411V30.7981H317.639ZM317.639 79.4622V86.1657H323.411V79.4622H317.639ZM324.343 23.151V29.8669H330.127V23.151H324.343ZM324.343 30.7981V37.5017H330.127V30.7981H324.343ZM324.343 71.815V78.5248H330.127V71.815H324.343ZM324.343 79.4622V86.1657H330.127V79.4622H324.343ZM331.077 23.151V29.8669H336.849V23.151H331.077ZM331.077 30.7981V37.5017H336.849V30.7981H331.077ZM331.077 71.815V78.5248H336.849V71.815H331.077ZM331.077 79.4622V86.1657H336.849V79.4622H331.077ZM337.793 23.151V29.8669H343.578V23.151H337.793ZM337.793 30.7981V37.5017H343.578V30.7981H337.793ZM337.793 71.815V78.5248H343.578V71.815H337.793ZM337.793 79.4622V86.1657H343.578V79.4622H337.793ZM344.515 23.151V29.8669H350.287V23.151H344.515ZM344.515 30.7981V37.5017H350.287V30.7981H344.515ZM344.515 71.815V78.5248H350.287V71.815H344.515ZM344.515 79.4622V86.1657H350.287V79.4622H344.515ZM351.225 23.151V29.8669H357.016V23.151H351.225ZM351.225 30.7981V37.5017H357.016V30.7981H351.225ZM344.515 79.4622V86.1657H350.287V79.4622H344.515ZM344.515 71.815V78.5248H350.287V71.815H344.515ZM337.793 79.4622V86.1657H343.578V79.4622H337.793ZM337.793 71.815V78.5248H343.578V71.815H337.793ZM331.077 79.4622V86.1657H336.849V79.4622H331.077ZM331.077 71.815V78.5248H336.849V71.815H331.077ZM324.343 79.4622V86.1657H330.127V79.4622H324.343ZM324.343 71.815V78.5248H330.127V71.815H324.343ZM317.639 79.4622V86.1657H323.411V79.4622H317.639ZM317.639 23.151V29.8669H323.411V23.151H317.639ZM317.639 30.7981V37.5017H323.411V30.7981H317.639ZM317.639 79.4622V86.1657H323.411V79.4622H317.639ZM324.343 23.151V29.8669H330.127V23.151H324.343ZM324.343 30.7981V37.5017H330.127V30.7981H324.343ZM324.343 71.815V78.5248H330.127V71.815H324.343ZM324.343 79.4622V86.1657H330.127V79.4622H324.343ZM331.077 23.151V29.8669H336.849V23.151H331.077ZM331.077 30.7981V37.5017H336.849V30.7981H331.077ZM331.077 71.815V78.5248H336.849V71.815H331.077ZM331.077 79.4622V86.1657H336.849V79.4622H331.077ZM337.793 23.151V29.8669H343.578V23.151H337.793ZM337.793 30.7981V37.5017H343.578V30.7981H337.793ZM337.793 71.815V78.5248H343.578V71.815H337.793ZM337.793 79.4622V86.1657H343.578V79.4622H337.793ZM344.515 23.151V29.8669H350.287V23.151H344.515ZM344.515 30.7981V37.5017H350.287V30.7981H344.515ZM344.515 71.815V78.5248H350.287V71.815H344.515ZM344.515 79.4622V86.1657H350.287V79.4622H344.515ZM351.225 23.151V29.8669H357.016V23.151H351.225ZM351.225 30.7981V37.5017H357.016V30.7981H351.225ZM344.515 79.4622V86.1657H350.287V79.4622H344.515ZM344.515 71.815V78.5248H350.287V71.815H344.515ZM337.793 79.4622V86.1657H343.578V79.4622H337.793ZM337.793 71.815V78.5248H343.578V71.815H337.793ZM331.077 79.4622V86.1657H336.849V79.4622H331.077ZM331.077 71.815V78.5248H336.849V71.815H331.077ZM324.343 79.4622V86.1657H330.127V79.4622H324.343ZM324.343 71.815V78.5248H330.127V71.815H324.343ZM317.639 79.4622V86.1657H323.411V79.4622H317.639ZM317.639 23.151V29.8669H323.411V23.151H317.639ZM317.639 30.7981V37.5017H323.411V30.7981H317.639ZM317.639 79.4622V86.1657H323.411V79.4622H317.639ZM324.343 23.151V29.8669H330.127V23.151H324.343ZM324.343 30.7981V37.5017H330.127V30.7981H324.343ZM324.343 71.815V78.5248H330.127V71.815H324.343ZM324.343 79.4622V86.1657H330.127V79.4622H324.343ZM331.077 23.151V29.8669H336.849V23.151H331.077ZM331.077 30.7981V37.5017H336.849V30.7981H331.077ZM331.077 71.815V78.5248H336.849V71.815H331.077ZM331.077 79.4622V86.1657H336.849V79.4622H331.077ZM337.793 23.151V29.8669H343.578V23.151H337.793ZM337.793 30.7981V37.5017H343.578V30.7981H337.793ZM337.793 71.815V78.5248H343.578V71.815H337.793ZM337.793 79.4622V86.1657H343.578V79.4622H337.793ZM344.515 23.151V29.8669H350.287V23.151H344.515ZM344.515 30.7981V37.5017H350.287V30.7981H344.515ZM344.515 71.815V78.5248H350.287V71.815H344.515ZM344.515 79.4622V86.1657H350.287V79.4622H344.515ZM351.225 23.151V29.8669H357.016V23.151H351.225ZM351.225 30.7981V37.5017H357.016V30.7981H351.225ZM344.515 86.1657H350.287V79.4622H344.515V86.1657ZM344.515 71.815V78.5248H350.287V71.815H344.515ZM337.793 86.1657H343.578V79.4622H337.793V86.1657ZM337.793 78.5248H343.578V71.815H337.793V78.5248ZM331.077 86.1657H336.849V79.4622H331.077V86.1657ZM331.077 78.5248H336.849V71.815H331.077V78.5248ZM324.343 86.1657H330.127V79.4622H324.343V86.1657ZM324.343 78.5248H330.127V71.815H324.343V78.5248ZM317.639 86.1657H323.411V79.4622H317.639V86.1657ZM305.225 9.08405V97.9447H369.43V65.9995C368.252 64.6921 367.555 62.9962 367.555 61.1214C367.555 60.5849 367.623 60.0298 367.746 59.4686C367.795 59.2405 367.74 59 367.592 58.8149C367.444 58.6361 367.222 58.5313 366.994 58.5313C366.988 58.5313 366.982 58.5313 366.982 58.5313C366.932 58.5313 366.889 58.5374 366.784 58.5436C363.306 58.5436 360.161 57.0758 357.947 54.7262V62.768H316.702V46.5487H354.623C354.617 46.4932 354.616 46.4315 354.616 46.3699C354.616 43.348 355.702 40.579 357.527 38.4391H316.702V22.2198H357.947V37.9766C359.883 35.9353 362.541 34.56 365.551 34.2578C365.945 34.2208 366.247 33.8878 366.247 33.4931C366.247 33.4561 366.241 33.4253 366.241 33.4253C366.241 30.1136 367.438 27.0794 369.43 24.7298V9.08405H305.225V9.08405ZM357.941 70.8838V87.1031H316.696V70.8838H357.941ZM351.225 37.5017H357.016V30.7981H351.225V37.5017ZM357.016 23.151H351.225V29.8669H357.016V23.151ZM350.294 79.4622H344.521V86.1657H350.294V79.4622ZM350.294 71.815H344.521V78.5248H350.294V71.815ZM344.515 37.5017H350.287V30.7981H344.515V37.5017ZM350.294 23.151H344.521V29.8669H350.294V23.151ZM343.578 79.4622H337.793V86.1657H343.578V79.4622ZM343.578 71.815H337.793V78.5248H343.578V71.815ZM337.793 37.5017H343.578V30.7981H337.793V37.5017ZM343.578 23.151H337.793V29.8669H343.578V23.151ZM336.856 79.4622H331.083V86.1657H336.856V79.4622ZM336.856 71.815H331.083V78.5248H336.856V71.815ZM331.077 37.5017H336.849V30.7981H331.077V37.5017ZM336.856 23.151H331.083V29.8669H336.856V23.151ZM330.134 79.4622H324.349V86.1657H330.134V79.4622ZM330.134 71.815H324.349V78.5248H330.134V71.815ZM324.343 37.5017H330.127V30.7981H324.343V37.5017ZM330.134 23.151H324.349V29.8669H330.134V23.151ZM323.405 79.4622H317.633V86.1657H323.405V79.4622ZM317.639 37.5017H323.411V30.7981H317.639V37.5017ZM323.405 23.151H317.633V29.8669H323.405V23.151ZM317.639 79.4622V86.1657H323.411V79.4622H317.639ZM324.343 71.815V78.5248H330.127V71.815H324.343ZM324.343 79.4622V86.1657H330.127V79.4622H324.343ZM331.077 71.815V78.5248H336.849V71.815H331.077ZM331.077 79.4622V86.1657H336.849V79.4622H331.077ZM337.793 71.815V78.5248H343.578V71.815H337.793ZM337.793 79.4622V86.1657H343.578V79.4622H337.793ZM344.515 71.815V78.5248H350.287V71.815H344.515ZM344.515 79.4622V86.1657H350.287V79.4622H344.515ZM351.225 30.7981V37.5017H357.016V30.7981H351.225ZM351.225 23.151V29.8669H357.016V23.151H351.225ZM344.515 79.4622V86.1657H350.287V79.4622H344.515ZM344.515 71.815V78.5248H350.287V71.815H344.515ZM344.515 30.7981V37.5017H350.287V30.7981H344.515ZM344.515 23.151V29.8669H350.287V23.151H344.515ZM337.793 79.4622V86.1657H343.578V79.4622H337.793ZM337.793 71.815V78.5248H343.578V71.815H337.793ZM337.793 30.7981V37.5017H343.578V30.7981H337.793ZM337.793 23.151V29.8669H343.578V23.151H337.793ZM331.077 79.4622V86.1657H336.849V79.4622H331.077ZM331.077 71.815V78.5248H336.849V71.815H331.077ZM331.077 30.7981V37.5017H336.849V30.7981H331.077ZM331.077 23.151V29.8669H336.849V23.151H331.077ZM324.343 79.4622V86.1657H330.127V79.4622H324.343ZM324.343 71.815V78.5248H330.127V71.815H324.343ZM324.343 30.7981V37.5017H330.127V30.7981H324.343ZM324.343 23.151V29.8669H330.127V23.151H324.343ZM317.639 79.4622V86.1657H323.411V79.4622H317.639ZM317.639 30.7981V37.5017H323.411V30.7981H317.639ZM317.639 23.151V29.8669H323.411V23.151H317.639ZM317.639 79.4622V86.1657H323.411V79.4622H317.639ZM324.343 71.815V78.5248H330.127V71.815H324.343ZM324.343 79.4622V86.1657H330.127V79.4622H324.343ZM331.077 71.815V78.5248H336.849V71.815H331.077ZM331.077 79.4622V86.1657H336.849V79.4622H331.077ZM337.793 71.815V78.5248H343.578V71.815H337.793ZM337.793 79.4622V86.1657H343.578V79.4622H337.793ZM344.515 71.815V78.5248H350.287V71.815H344.515ZM344.515 79.4622V86.1657H350.287V79.4622H344.515ZM351.225 30.7981V37.5017H357.016V30.7981H351.225ZM351.225 23.151V29.8669H357.016V23.151H351.225ZM344.515 79.4622V86.1657H350.287V79.4622H344.515ZM344.515 71.815V78.5248H350.287V71.815H344.515ZM344.515 30.7981V37.5017H350.287V30.7981H344.515ZM344.515 23.151V29.8669H350.287V23.151H344.515ZM337.793 79.4622V86.1657H343.578V79.4622H337.793ZM337.793 71.815V78.5248H343.578V71.815H337.793ZM337.793 30.7981V37.5017H343.578V30.7981H337.793ZM337.793 23.151V29.8669H343.578V23.151H337.793ZM331.077 79.4622V86.1657H336.849V79.4622H331.077ZM331.077 71.815V78.5248H336.849V71.815H331.077ZM331.077 30.7981V37.5017H336.849V30.7981H331.077ZM331.077 23.151V29.8669H336.849V23.151H331.077ZM324.343 79.4622V86.1657H330.127V79.4622H324.343ZM324.343 71.815V78.5248H330.127V71.815H324.343ZM324.343 30.7981V37.5017H330.127V30.7981H324.343ZM324.343 23.151V29.8669H330.127V23.151H324.343ZM317.639 79.4622V86.1657H323.411V79.4622H317.639ZM317.639 30.7981V37.5017H323.411V30.7981H317.639ZM317.639 23.151V29.8669H323.411V23.151H317.639ZM317.639 79.4622V86.1657H323.411V79.4622H317.639ZM324.343 71.815V78.5248H330.127V71.815H324.343ZM324.343 79.4622V86.1657H330.127V79.4622H324.343ZM331.077 71.815V78.5248H336.849V71.815H331.077ZM331.077 79.4622V86.1657H336.849V79.4622H331.077ZM337.793 71.815V78.5248H343.578V71.815H337.793ZM337.793 79.4622V86.1657H343.578V79.4622H337.793ZM344.515 71.815V78.5248H350.287V71.815H344.515ZM344.515 79.4622V86.1657H350.287V79.4622H344.515ZM351.225 30.7981V37.5017H357.016V30.7981H351.225ZM351.225 23.151V29.8669H357.016V23.151H351.225ZM344.515 79.4622V86.1657H350.287V79.4622H344.515ZM344.515 71.815V78.5248H350.287V71.815H344.515ZM344.515 30.7981V37.5017H350.287V30.7981H344.515ZM344.515 23.151V29.8669H350.287V23.151H344.515ZM337.793 79.4622V86.1657H343.578V79.4622H337.793ZM337.793 71.815V78.5248H343.578V71.815H337.793ZM337.793 30.7981V37.5017H343.578V30.7981H337.793ZM337.793 23.151V29.8669H343.578V23.151H337.793ZM331.077 79.4622V86.1657H336.849V79.4622H331.077ZM331.077 71.815V78.5248H336.849V71.815H331.077ZM331.077 30.7981V37.5017H336.849V30.7981H331.077ZM331.077 23.151V29.8669H336.849V23.151H331.077ZM324.343 79.4622V86.1657H330.127V79.4622H324.343ZM324.343 71.815V78.5248H330.127V71.815H324.343ZM324.343 30.7981V37.5017H330.127V30.7981H324.343ZM324.343 23.151V29.8669H330.127V23.151H324.343ZM317.639 79.4622V86.1657H323.411V79.4622H317.639ZM317.639 30.7981V37.5017H323.411V30.7981H317.639ZM317.639 23.151V29.8669H323.411V23.151H317.639ZM317.639 79.4622V86.1657H323.411V79.4622H317.639ZM324.343 71.815V78.5248H330.127V71.815H324.343ZM324.343 79.4622V86.1657H330.127V79.4622H324.343ZM331.077 71.815V78.5248H336.849V71.815H331.077ZM331.077 79.4622V86.1657H336.849V79.4622H331.077ZM337.793 71.815V78.5248H343.578V71.815H337.793ZM337.793 79.4622V86.1657H343.578V79.4622H337.793ZM344.515 71.815V78.5248H350.287V71.815H344.515ZM344.515 79.4622V86.1657H350.287V79.4622H344.515ZM351.225 30.7981V37.5017H357.016V30.7981H351.225ZM351.225 23.151V29.8669H357.016V23.151H351.225ZM344.515 79.4622V86.1657H350.287V79.4622H344.515ZM344.515 71.815V78.5248H350.287V71.815H344.515ZM344.515 30.7981V37.5017H350.287V30.7981H344.515ZM344.515 23.151V29.8669H350.287V23.151H344.515ZM337.793 79.4622V86.1657H343.578V79.4622H337.793ZM337.793 71.815V78.5248H343.578V71.815H337.793ZM337.793 30.7981V37.5017H343.578V30.7981H337.793ZM337.793 23.151V29.8669H343.578V23.151H337.793ZM331.077 79.4622V86.1657H336.849V79.4622H331.077ZM331.077 71.815V78.5248H336.849V71.815H331.077ZM331.077 30.7981V37.5017H336.849V30.7981H331.077ZM331.077 23.151V29.8669H336.849V23.151H331.077ZM324.343 79.4622V86.1657H330.127V79.4622H324.343ZM324.343 71.815V78.5248H330.127V71.815H324.343ZM324.343 30.7981V37.5017H330.127V30.7981H324.343ZM324.343 23.151V29.8669H330.127V23.151H324.343ZM317.639 79.4622V86.1657H323.411V79.4622H317.639ZM317.639 30.7981V37.5017H323.411V30.7981H317.639ZM317.639 23.151V29.8669H323.411V23.151H317.639ZM317.639 79.4622V86.1657H323.411V79.4622H317.639ZM324.343 71.815V78.5248H330.127V71.815H324.343ZM324.343 79.4622V86.1657H330.127V79.4622H324.343ZM331.077 71.815V78.5248H336.849V71.815H331.077ZM331.077 79.4622V86.1657H336.849V79.4622H331.077ZM337.793 71.815V78.5248H343.578V71.815H337.793ZM337.793 79.4622V86.1657H343.578V79.4622H337.793ZM344.515 71.815V78.5248H350.287V71.815H344.515ZM344.515 79.4622V86.1657H350.287V79.4622H344.515ZM351.225 30.7981V37.5017H357.016V30.7981H351.225ZM351.225 23.151V29.8669H357.016V23.151H351.225ZM344.515 79.4622V86.1657H350.287V79.4622H344.515ZM344.515 71.815V78.5248H350.287V71.815H344.515ZM344.515 30.7981V37.5017H350.287V30.7981H344.515ZM344.515 23.151V29.8669H350.287V23.151H344.515ZM337.793 79.4622V86.1657H343.578V79.4622H337.793ZM337.793 71.815V78.5248H343.578V71.815H337.793ZM337.793 30.7981V37.5017H343.578V30.7981H337.793ZM337.793 23.151V29.8669H343.578V23.151H337.793ZM331.077 79.4622V86.1657H336.849V79.4622H331.077ZM331.077 71.815V78.5248H336.849V71.815H331.077ZM331.077 30.7981V37.5017H336.849V30.7981H331.077ZM331.077 23.151V29.8669H336.849V23.151H331.077ZM324.343 79.4622V86.1657H330.127V79.4622H324.343ZM324.343 71.815V78.5248H330.127V71.815H324.343ZM324.343 30.7981V37.5017H330.127V30.7981H324.343ZM324.343 23.151V29.8669H330.127V23.151H324.343ZM317.639 79.4622V86.1657H323.411V79.4622H317.639ZM317.639 30.7981V37.5017H323.411V30.7981H317.639ZM317.639 23.151V29.8669H323.411V23.151H317.639ZM317.639 79.4622V86.1657H323.411V79.4622H317.639ZM324.343 71.815V78.5248H330.127V71.815H324.343ZM324.343 79.4622V86.1657H330.127V79.4622H324.343ZM331.077 71.815V78.5248H336.849V71.815H331.077ZM331.077 79.4622V86.1657H336.849V79.4622H331.077ZM337.793 71.815V78.5248H343.578V71.815H337.793ZM337.793 79.4622V86.1657H343.578V79.4622H337.793ZM344.515 71.815V78.5248H350.287V71.815H344.515ZM344.515 79.4622V86.1657H350.287V79.4622H344.515ZM351.225 23.151V29.8669H357.016V23.151H351.225ZM351.225 30.7981V37.5017H357.016V30.7981H351.225ZM344.515 79.4622V86.1657H350.287V79.4622H344.515ZM344.515 71.815V78.5248H350.287V71.815H344.515ZM337.793 79.4622V86.1657H343.578V79.4622H337.793ZM337.793 71.815V78.5248H343.578V71.815H337.793ZM331.077 79.4622V86.1657H336.849V79.4622H331.077ZM331.077 71.815V78.5248H336.849V71.815H331.077ZM324.343 79.4622V86.1657H330.127V79.4622H324.343ZM324.343 71.815V78.5248H330.127V71.815H324.343ZM317.639 79.4622V86.1657H323.411V79.4622H317.639ZM317.639 30.7981V37.5017H323.411V30.7981H317.639ZM317.639 23.151V29.8669H323.411V23.151H317.639ZM317.639 79.4622V86.1657H323.411V79.4622H317.639ZM324.343 71.815V78.5248H330.127V71.815H324.343ZM324.343 79.4622V86.1657H330.127V79.4622H324.343ZM331.077 71.815V78.5248H336.849V71.815H331.077ZM331.077 79.4622V86.1657H336.849V79.4622H331.077ZM337.793 71.815V78.5248H343.578V71.815H337.793ZM337.793 79.4622V86.1657H343.578V79.4622H337.793ZM344.515 71.815V78.5248H350.287V71.815H344.515ZM344.515 79.4622V86.1657H350.287V79.4622H344.515ZM317.639 23.151V29.8669H323.411V23.151H317.639ZM317.639 30.7981V37.5017H323.411V30.7981H317.639ZM324.343 23.151V29.8669H330.127V23.151H324.343ZM324.343 30.7981V37.5017H330.127V30.7981H324.343ZM331.077 23.151V29.8669H336.849V23.151H331.077ZM337.793 23.151V29.8669H343.578V23.151H337.793ZM351.225 23.151V29.8669H357.016V23.151H351.225ZM344.515 23.151V29.8669H350.287V23.151H344.515ZM344.515 79.4622V86.1657H350.287V79.4622H344.515ZM344.515 71.815V78.5248H350.287V71.815H344.515ZM337.793 79.4622V86.1657H343.578V79.4622H337.793ZM337.793 71.815V78.5248H343.578V71.815H337.793ZM331.077 79.4622V86.1657H336.849V79.4622H331.077ZM331.077 71.815V78.5248H336.849V71.815H331.077ZM324.343 79.4622V86.1657H330.127V79.4622H324.343ZM324.343 71.815V78.5248H330.127V71.815H324.343ZM317.639 79.4622V86.1657H323.411V79.4622H317.639ZM317.639 30.7981V37.5017H323.411V30.7981H317.639ZM317.639 23.151V29.8669H323.411V23.151H317.639ZM317.639 79.4622V86.1657H323.411V79.4622H317.639ZM324.343 71.815V78.5248H330.127V71.815H324.343ZM324.343 79.4622V86.1657H330.127V79.4622H324.343ZM331.077 71.815V78.5248H336.849V71.815H331.077ZM331.077 79.4622V86.1657H336.849V79.4622H331.077ZM337.793 71.815V78.5248H343.578V71.815H337.793ZM337.793 79.4622V86.1657H343.578V79.4622H337.793ZM344.515 71.815V78.5248H350.287V71.815H344.515ZM344.515 79.4622V86.1657H350.287V79.4622H344.515ZM344.515 79.4622V86.1657H350.287V79.4622H344.515ZM344.515 71.815V78.5248H350.287V71.815H344.515ZM337.793 79.4622V86.1657H343.578V79.4622H337.793ZM337.793 71.815V78.5248H343.578V71.815H337.793ZM331.077 79.4622V86.1657H336.849V79.4622H331.077ZM331.077 71.815V78.5248H336.849V71.815H331.077ZM324.343 79.4622V86.1657H330.127V79.4622H324.343ZM324.343 71.815V78.5248H330.127V71.815H324.343ZM317.639 79.4622V86.1657H323.411V79.4622H317.639ZM317.639 79.4622V86.1657H323.411V79.4622H317.639ZM324.343 71.815V78.5248H330.127V71.815H324.343ZM324.343 79.4622V86.1657H330.127V79.4622H324.343ZM331.077 71.815V78.5248H336.849V71.815H331.077ZM331.077 79.4622V86.1657H336.849V79.4622H331.077ZM337.793 71.815V78.5248H343.578V71.815H337.793ZM337.793 79.4622V86.1657H343.578V79.4622H337.793ZM344.515 71.815V78.5248H350.287V71.815H344.515ZM344.515 79.4622V86.1657H350.287V79.4622H344.515ZM344.515 79.4622V86.1657H350.287V79.4622H344.515ZM344.515 71.815V78.5248H350.287V71.815H344.515ZM337.793 79.4622V86.1657H343.578V79.4622H337.793ZM337.793 71.815V78.5248H343.578V71.815H337.793ZM331.077 79.4622V86.1657H336.849V79.4622H331.077ZM331.077 71.815V78.5248H336.849V71.815H331.077ZM324.343 79.4622V86.1657H330.127V79.4622H324.343ZM324.343 71.815V78.5248H330.127V71.815H324.343ZM317.639 79.4622V86.1657H323.411V79.4622H317.639ZM317.639 79.4622V86.1657H323.411V79.4622H317.639ZM324.343 71.815V78.5248H330.127V71.815H324.343ZM324.343 79.4622V86.1657H330.127V79.4622H324.343ZM331.077 71.815V78.5248H336.849V71.815H331.077ZM331.077 79.4622V86.1657H336.849V79.4622H331.077ZM337.793 71.815V78.5248H343.578V71.815H337.793ZM337.793 79.4622V86.1657H343.578V79.4622H337.793ZM344.515 71.815V78.5248H350.287V71.815H344.515ZM344.515 79.4622V86.1657H350.287V79.4622H344.515ZM344.515 79.4622V86.1657H350.287V79.4622H344.515ZM344.515 71.815V78.5248H350.287V71.815H344.515ZM337.793 79.4622V86.1657H343.578V79.4622H337.793ZM337.793 71.815V78.5248H343.578V71.815H337.793ZM331.077 79.4622V86.1657H336.849V79.4622H331.077ZM331.077 71.815V78.5248H336.849V71.815H331.077ZM324.343 79.4622V86.1657H330.127V79.4622H324.343ZM324.343 71.815V78.5248H330.127V71.815H324.343ZM317.639 79.4622V86.1657H323.411V79.4622H317.639ZM317.639 79.4622V86.1657H323.411V79.4622H317.639ZM324.343 71.815V78.5248H330.127V71.815H324.343ZM324.343 79.4622V86.1657H330.127V79.4622H324.343ZM331.077 71.815V78.5248H336.849V71.815H331.077ZM331.077 79.4622V86.1657H336.849V79.4622H331.077ZM337.793 71.815V78.5248H343.578V71.815H337.793ZM337.793 79.4622V86.1657H343.578V79.4622H337.793ZM344.515 71.815V78.5248H350.287V71.815H344.515ZM344.515 79.4622V86.1657H350.287V79.4622H344.515ZM344.515 79.4622V86.1657H350.287V79.4622H344.515ZM344.515 71.815V78.5248H350.287V71.815H344.515ZM337.793 79.4622V86.1657H343.578V79.4622H337.793ZM337.793 71.815V78.5248H343.578V71.815H337.793ZM331.077 79.4622V86.1657H336.849V79.4622H331.077ZM331.077 71.815V78.5248H336.849V71.815H331.077ZM324.343 79.4622V86.1657H330.127V79.4622H324.343ZM324.343 71.815V78.5248H330.127V71.815H324.343ZM317.639 79.4622V86.1657H323.411V79.4622H317.639ZM317.639 79.4622V86.1657H323.411V79.4622H317.639ZM324.343 71.815V78.5248H330.127V71.815H324.343ZM324.343 79.4622V86.1657H330.127V79.4622H324.343ZM331.077 71.815V78.5248H336.849V71.815H331.077ZM331.077 79.4622V86.1657H336.849V79.4622H331.077ZM337.793 71.815V78.5248H343.578V71.815H337.793ZM337.793 79.4622V86.1657H343.578V79.4622H337.793ZM344.515 71.815V78.5248H350.287V71.815H344.515ZM344.515 79.4622V86.1657H350.287V79.4622H344.515ZM344.515 71.815V78.5248H350.287V71.815H344.515ZM337.793 71.815V78.5248H343.578V71.815H337.793ZM331.077 71.815V78.5248H336.849V71.815H331.077ZM324.343 79.4622V86.1657H330.127V79.4622H324.343ZM324.343 71.815V78.5248H330.127V71.815H324.343ZM317.639 79.4622V86.1657H323.411V79.4622H317.639ZM317.639 79.4622V86.1657H323.411V79.4622H317.639ZM324.343 71.815V78.5248H330.127V71.815H324.343ZM324.343 79.4622V86.1657H330.127V79.4622H324.343ZM331.077 79.4622V86.1657H336.849V79.4622H331.077ZM337.793 71.815V78.5248H343.578V71.815H337.793ZM331.077 71.815V78.5248H336.849V71.815H331.077ZM344.515 71.815V78.5248H350.287V71.815H344.515ZM344.515 79.4622V86.1657H350.287V79.4622H344.515ZM324.343 79.4622V86.1657H330.127V79.4622H324.343ZM324.343 71.815V78.5248H330.127V71.815H324.343ZM317.639 79.4622V86.1657H323.411V79.4622H317.639ZM317.639 79.4622V86.1657H323.411V79.4622H317.639ZM324.343 71.815V78.5248H330.127V71.815H324.343ZM324.343 79.4622V86.1657H330.127V79.4622H324.343ZM331.077 79.4622V86.1657H336.849V79.4622H331.077ZM337.793 71.815V78.5248H343.578V71.815H337.793ZM331.077 71.815V78.5248H336.849V71.815H331.077ZM344.515 71.815V78.5248H350.287V71.815H344.515ZM344.515 79.4622V86.1657H350.287V79.4622H344.515ZM324.343 79.4622V86.1657H330.127V79.4622H324.343ZM324.343 71.815V78.5248H330.127V71.815H324.343ZM317.639 79.4622V86.1657H323.411V79.4622H317.639ZM317.639 79.4622V86.1657H323.411V79.4622H317.639ZM324.343 71.815V78.5248H330.127V71.815H324.343ZM324.343 79.4622V86.1657H330.127V79.4622H324.343ZM331.077 79.4622V86.1657H336.849V79.4622H331.077ZM337.793 71.815V78.5248H343.578V71.815H337.793ZM331.077 71.815V78.5248H336.849V71.815H331.077ZM344.515 71.815V78.5248H350.287V71.815H344.515ZM344.515 79.4622V86.1657H350.287V79.4622H344.515ZM324.343 79.4622V86.1657H330.127V79.4622H324.343ZM317.639 79.4622V86.1657H323.411V79.4622H317.639Z" fill="#E8EBEE"/>
<path d="M323.411 23.1511H317.639V29.8669H323.411V23.1511Z" fill="#E8EBEE"/>
<path d="M323.411 30.7982H317.639V37.5017H323.411V30.7982Z" fill="#E8EBEE"/>
<path d="M330.127 23.1511H324.343V29.8669H330.127V23.1511Z" fill="#E8EBEE"/>
<path d="M330.127 30.7982H324.343V37.5017H330.127V30.7982Z" fill="#E8EBEE"/>
<path d="M336.849 23.1511H331.077V29.8669H336.849V23.1511Z" fill="#E8EBEE"/>
<path d="M343.578 23.1511H337.793V29.8669H343.578V23.1511Z" fill="#E8EBEE"/>
<path d="M336.849 30.7982H331.077V37.5017H336.849V30.7982Z" fill="#E8EBEE"/>
<path d="M343.578 30.7982H337.793V37.5017H343.578V30.7982Z" fill="#E8EBEE"/>
<path d="M350.287 23.1511H344.515V29.8669H350.287V23.1511Z" fill="#E8EBEE"/>
<path d="M350.287 30.7982H344.515V37.5017H350.287V30.7982Z" fill="#E8EBEE"/>
<path d="M357.016 23.1511H351.225V29.8669H357.016V23.1511Z" fill="#E8EBEE"/>
<path d="M357.016 30.7982H351.225V37.5017H357.016V30.7982Z" fill="#E8EBEE"/>
<path d="M323.411 47.4861H317.639V54.1958H323.411V47.4861Z" fill="#E8EBEE"/>
<path d="M323.411 55.127H317.639V61.8367H323.411V55.127Z" fill="#E8EBEE"/>
<path d="M330.127 55.127H324.343V61.8367H330.127V55.127Z" fill="#E8EBEE"/>
<path d="M330.127 47.4861H324.343V54.1958H330.127V47.4861Z" fill="#E8EBEE"/>
<path d="M336.849 47.4861H331.077V54.1958H336.849V47.4861Z" fill="#E8EBEE"/>
<path d="M343.577 47.4861H337.793V54.1958H343.577V47.4861Z" fill="#E8EBEE"/>
<path d="M336.849 55.127H331.077V61.8367H336.849V55.127Z" fill="#E8EBEE"/>
<path d="M343.577 55.127H337.793V61.8367H343.577V55.127Z" fill="#E8EBEE"/>
<path d="M350.287 47.4861H344.515V54.1958H350.287V47.4861Z" fill="#E8EBEE"/>
<path d="M350.287 55.127H344.515V61.8367H350.287V55.127Z" fill="#E8EBEE"/>
<path d="M357.016 53.6223V54.1958H351.225V47.4861H354.672C354.87 49.7741 355.72 51.877 357.016 53.6223Z" fill="#E8EBEE"/>
<path d="M357.016 55.127H351.225V61.8367H357.016V55.127Z" fill="#E8EBEE"/>
<path d="M323.411 79.4622H317.639V86.1658H323.411V79.4622Z" fill="#E8EBEE"/>
<path d="M323.411 71.8151H317.627V78.5248H323.411V71.8151Z" fill="#E8EBEE"/>
<path d="M330.127 79.4622H324.343V86.1658H330.127V79.4622Z" fill="#E8EBEE"/>
<path d="M343.578 71.8151H337.793V78.5248H343.578V71.8151Z" fill="#E8EBEE"/>
<path d="M343.578 79.4622H337.793V86.1658H343.578V79.4622Z" fill="#E8EBEE"/>
<path d="M350.287 71.8151H344.515V78.5248H350.287V71.8151Z" fill="#E8EBEE"/>
<path d="M350.287 79.4622H344.515V86.1658H350.287V79.4622Z" fill="#E8EBEE"/>
<path d="M357.016 71.8151H351.225V78.5248H357.016V71.8151Z" fill="#E8EBEE"/>
<path d="M357.016 79.4622H351.225V86.1658H357.016V79.4622Z" fill="#E8EBEE"/>
<path d="M188.631 20.0613V99.209H245.065V20.0613H188.631ZM243.518 97.6672H190.167V21.6031H243.518V97.6672Z" fill="#E8EBEE"/>
<path d="M197.585 29.3304V45.229H212.892V29.3304H197.585ZM211.344 43.6872H199.121V30.8721H211.344V43.6872Z" fill="#E8EBEE"/>
<path d="M212.343 36.515H198.116V38.0568H212.343V36.515Z" fill="#E8EBEE"/>
<path d="M220.829 29.3304V45.229H236.13V29.3304H220.829ZM234.588 43.6872H222.371V30.8721H234.588V43.6872Z" fill="#E8EBEE"/>
<path d="M235.58 36.515H221.353V38.0568H235.58V36.515Z" fill="#E8EBEE"/>
<path d="M197.585 53.1351V69.0337H212.892V53.1351H197.585ZM211.344 67.492H199.121V54.6769H211.344V67.492Z" fill="#E8EBEE"/>
<path d="M212.343 60.3135H198.116V61.8553H212.343V60.3135Z" fill="#E8EBEE"/>
<path d="M220.829 53.1351V69.0337H236.13V53.1351H220.829ZM234.588 67.492H222.371V54.6769H234.588V67.492Z" fill="#E8EBEE"/>
<path d="M235.58 60.3135H221.353V61.8553H235.58V60.3135Z" fill="#E8EBEE"/>
<path d="M197.585 76.9398V92.8384H212.892V76.9398H197.585ZM211.344 91.2967H199.121V78.4816H211.344V91.2967Z" fill="#E8EBEE"/>
<path d="M212.343 84.1182H198.116V85.66H212.343V84.1182Z" fill="#E8EBEE"/>
<path d="M220.829 76.9398V92.8384H236.13V76.9398H220.829ZM234.588 91.2967H222.371V78.4816H234.588V91.2967Z" fill="#E8EBEE"/>
<path d="M235.58 84.1182H221.353V85.66H235.58V84.1182Z" fill="#E8EBEE"/>
<path d="M431 97.0259H0V98.9376H431V97.0259Z" fill="#E8EBEE"/>
<path d="M34.8931 7.17224V98.654H96.4956V7.17224H34.8931ZM94.9538 97.1122H36.4348V8.714H94.9538V97.1122Z" fill="#E8EBEE"/>
<path d="M94.929 7.17224V98.654H114.152V7.17224H94.929ZM112.61 97.1122H96.4707V8.714H112.61V97.1122Z" fill="#E8EBEE"/>
<path d="M44.5012 44.0203V63.7856H55.8855V44.0203H44.5012ZM54.3438 62.2438H46.0367V45.562H54.3438V62.2438Z" fill="#E8EBEE"/>
<path d="M60.8069 44.0203V63.7856H72.1975V44.0203H60.8069ZM70.6618 62.2438H62.355V45.562H70.6618V62.2438Z" fill="#E8EBEE"/>
<path d="M77.1248 44.0203V63.7856H88.5154V44.0203H77.1248ZM86.9736 62.2438H78.6665V45.562H86.9736V62.2438Z" fill="#E8EBEE"/>
<path d="M44.5012 19.3953V39.1606H55.8855V19.3953H44.5012ZM54.3438 37.6189H46.0367V20.9371H54.3438V37.6189Z" fill="#E8EBEE"/>
<path d="M60.8069 19.3953V39.1606H72.1975V19.3953H60.8069ZM70.6618 37.6189H62.355V20.9371H70.6618V37.6189Z" fill="#E8EBEE"/>
<path d="M77.1248 19.3953V39.1606H88.5154V19.3953H77.1248ZM86.9736 37.6189H78.6665V20.9371H86.9736V37.6189Z" fill="#E8EBEE"/>
<path d="M100.997 19.3953V39.1606H108.435V19.3953H100.997ZM106.893 37.6189H102.539V20.9371H106.893V37.6189Z" fill="#E8EBEE"/>
<path d="M100.997 43.9401V63.6992H108.435V43.9401H100.997ZM106.893 62.1575H102.539V45.4818H106.893V62.1575Z" fill="#E8EBEE"/>
<path d="M100.997 68.4787V88.244H108.435V68.4787H100.997ZM106.893 86.7023H102.539V70.0205H106.893V86.7023Z" fill="#E8EBEE"/>
<path d="M44.5012 68.6514V88.4105H55.8855V68.6514H44.5012ZM54.3438 86.8688H46.0367V70.1931H54.3438V86.8688Z" fill="#E8EBEE"/>
<path d="M60.8069 68.6514V88.4105H72.1975V68.6514H60.8069ZM70.6618 86.8688H62.355V70.1931H70.6618V86.8688Z" fill="#E8EBEE"/>
<path d="M77.1248 68.6514V88.4105H88.5154V68.6514H77.1248ZM86.9736 86.8688H78.6665V70.1931H86.9736V86.8688Z" fill="#E8EBEE"/>
<path d="M30.9338 0V8.47349H96.4462V0H30.9338ZM32.4756 6.93173V1.54176H94.9044V6.93173H32.4756Z" fill="#E8EBEE"/>
<path d="M94.9167 0V8.47349H117.167V0H94.9167ZM115.632 6.93173H96.4645V1.54176H115.632V6.93173Z" fill="#E8EBEE"/>
<path d="M354.666 47.4861H353.889C354.099 49.9961 355.03 52.3026 356.473 54.1958H357.009V53.6223C355.72 51.877 354.869 49.7741 354.666 47.4861ZM410.256 39.1298C410.256 32.9874 405.279 28.0107 399.143 28.0107C397.058 28.0107 395.122 28.5965 393.457 29.5894C391.779 23.5827 386.278 19.1671 379.729 19.1671C375.677 19.1671 372.02 20.8569 369.43 23.5704C366.975 26.1235 365.471 29.5956 365.471 33.4253C365.471 33.45 365.477 33.4684 365.477 33.4931C362.578 33.783 359.963 35.0287 357.947 36.9158V37.9766C359.883 35.9353 362.541 34.56 365.551 34.2578C365.945 34.2208 366.248 33.8878 366.248 33.4931C366.248 33.4561 366.241 33.4253 366.241 33.4253C366.241 30.1136 367.438 27.0794 369.43 24.7298C371.903 21.8004 375.603 19.938 379.729 19.938C385.754 19.938 391.095 23.9897 392.71 29.7991C392.778 30.0272 392.945 30.2184 393.167 30.3048C393.389 30.3973 393.642 30.3788 393.851 30.2554C395.455 29.2934 397.286 28.7815 399.143 28.7815C404.847 28.7815 409.485 33.4253 409.485 39.1298C409.485 44.0202 406.013 48.2817 401.233 49.2622C401.011 49.3054 400.82 49.4472 400.709 49.6446C400.604 49.8419 400.586 50.0762 400.666 50.2921C401.264 51.8524 401.56 53.4681 401.56 55.0962C401.56 58.8088 400.043 62.1821 397.595 64.6366C395.14 67.0849 391.754 68.6144 388.023 68.6329H387.98C386.223 68.6329 383.657 68.0716 382.399 67.7633V60.591C382.436 60.5355 382.455 60.4739 382.473 60.4122L393.265 47.5971C393.543 47.2703 393.5 46.7831 393.173 46.5117C392.846 46.2342 392.359 46.2774 392.088 46.6042L381.61 59.0493L370.577 48.7503C370.262 48.4543 369.775 48.4728 369.485 48.7873C369.467 48.812 369.442 48.8367 369.43 48.8614C369.226 49.1266 369.232 49.4966 369.43 49.7617C369.454 49.7987 369.485 49.8357 369.522 49.8727L380.857 60.4616V67.6955C379.513 68.1148 376.972 68.7315 375.11 68.6329C372.797 68.5095 370.793 67.5166 369.43 65.9995C368.252 64.6921 367.555 62.9962 367.555 61.1214C367.555 60.5849 367.623 60.0298 367.746 59.4686C367.796 59.2405 367.74 58.9999 367.592 58.8149C367.444 58.6361 367.222 58.5313 366.994 58.5313C366.988 58.5313 366.982 58.5313 366.982 58.5313C366.932 58.5313 366.889 58.5374 366.784 58.5436C363.306 58.5436 360.161 57.0758 357.947 54.7262V55.8239C360.259 57.9886 363.368 59.3145 366.784 59.3145C366.858 59.3145 366.926 59.3022 366.994 59.3022C366.864 59.888 366.784 60.4924 366.784 61.1214C366.784 63.5142 367.802 65.5987 369.43 67.0849C370.904 68.4355 372.889 69.2866 375.073 69.4037C377.052 69.5148 379.593 68.8734 380.857 68.4972C381.11 68.4232 381.307 68.3615 381.443 68.3122C381.443 68.3122 381.813 68.4109 382.399 68.5527C383.756 68.8795 386.26 69.4099 388.03 69.4037C395.93 69.3606 402.331 62.9962 402.331 55.0962C402.331 53.3016 401.992 51.5995 401.388 50.0146C406.451 48.9785 410.256 44.4951 410.256 39.1298ZM357.528 38.4391H356.559C354.857 40.6284 353.846 43.3789 353.846 46.3699C353.846 46.4315 353.846 46.4871 353.852 46.5487H354.623C354.617 46.4932 354.617 46.4315 354.617 46.3699C354.617 43.348 355.702 40.579 357.528 38.4391Z" fill="#E8EBEE"/>
<path d="M354.666 47.4861H353.118C353.315 49.9653 354.179 52.2594 355.529 54.1958H357.009V53.6223C355.72 51.877 354.869 49.7741 354.666 47.4861ZM411.026 39.1298C411.026 32.5742 405.698 27.2398 399.143 27.2398C397.329 27.2398 395.541 27.6653 393.907 28.467C391.816 22.4912 386.124 18.3962 379.729 18.3962C375.745 18.3962 372.125 19.9565 369.43 22.4973C366.661 25.0998 364.878 28.7507 364.712 32.8086C362.14 33.1971 359.821 34.2825 357.947 35.8674V37.9766C359.883 35.9353 362.541 34.56 365.551 34.2578C365.945 34.2208 366.247 33.8878 366.247 33.4931C366.247 33.4561 366.241 33.4253 366.241 33.4253C366.241 30.1136 367.438 27.0794 369.43 24.7298C371.903 21.8005 375.603 19.938 379.729 19.938C385.754 19.938 391.094 23.9897 392.71 29.7991C392.778 30.0273 392.945 30.2184 393.167 30.3048C393.389 30.3973 393.641 30.3788 393.851 30.2554C395.455 29.2934 397.286 28.7815 399.143 28.7815C404.847 28.7815 409.485 33.4253 409.485 39.1298C409.485 44.0202 406.013 48.2817 401.233 49.2622C401.011 49.3054 400.82 49.4472 400.709 49.6446C400.604 49.8419 400.585 50.0763 400.666 50.2921C401.264 51.8524 401.56 53.4681 401.56 55.0962C401.56 58.8088 400.043 62.1821 397.594 64.6366C395.14 67.0849 391.754 68.6144 388.023 68.6329H387.98C386.223 68.6329 383.657 68.0717 382.399 67.7633C381.943 67.6523 381.659 67.5783 381.647 67.5721C381.499 67.529 381.338 67.5351 381.196 67.5845C381.098 67.6215 380.981 67.6585 380.857 67.6955C379.513 68.1148 376.972 68.7315 375.109 68.6329C372.797 68.5095 370.793 67.5166 369.43 65.9995C368.252 64.6921 367.555 62.9962 367.555 61.1214C367.555 60.5849 367.623 60.0298 367.746 59.4686C367.795 59.2405 367.74 58.9999 367.592 58.8149C367.444 58.6361 367.222 58.5313 366.994 58.5313C366.988 58.5313 366.982 58.5313 366.982 58.5313C366.932 58.5313 366.889 58.5374 366.784 58.5436C363.306 58.5436 360.161 57.0758 357.947 54.7262V56.8415C360.161 58.7225 362.985 59.9065 366.081 60.0669C366.038 60.4184 366.013 60.7699 366.013 61.1214C366.013 63.9582 367.321 66.4621 369.43 68.1087C370.947 69.3051 372.877 70.0636 375.029 70.1746C375.196 70.1808 375.362 70.1869 375.535 70.1869C377.478 70.1869 379.686 69.6381 380.857 69.3051C381.116 69.2311 381.326 69.1694 381.468 69.1201C381.665 69.1756 381.992 69.2557 382.399 69.3482C383.805 69.6751 386.21 70.1746 387.98 70.1746H388.03C396.343 70.1315 403.102 63.3662 403.102 55.0962C403.102 53.5668 402.867 52.0435 402.393 50.5634C407.443 49.1265 411.026 44.4519 411.026 39.1298ZM357.527 38.4391H355.579C354 40.6839 353.075 43.422 353.075 46.3699C353.075 46.4315 353.075 46.4871 353.081 46.5487H354.623C354.617 46.4932 354.616 46.4315 354.616 46.3699C354.616 43.348 355.702 40.579 357.527 38.4391ZM356.306 37.5017H357.016V36.7246C356.769 36.9713 356.528 37.2303 356.306 37.5017ZM356.245 55.1271C356.485 55.4231 356.744 55.7068 357.016 55.9781V55.1271H356.245Z" fill="#E8EBEE"/>
<path d="M393.259 47.5971L382.467 60.4122L382.393 60.4986V97.4514C382.393 97.8769 382.047 98.2223 381.622 98.2223C381.196 98.2223 380.851 97.8769 380.851 97.4514V60.2149C380.851 60.036 380.919 59.8572 381.036 59.7215L381.604 59.0493L392.081 46.6042C392.353 46.2774 392.84 46.2342 393.167 46.5117C393.5 46.7831 393.543 47.2702 393.259 47.5971Z" fill="#E8EBEE"/>
<path d="M382.467 60.4122C382.448 60.4739 382.43 60.5356 382.393 60.5911C382.368 60.6466 382.331 60.6959 382.288 60.7452C382.134 60.9056 381.93 60.9858 381.721 60.9858C381.536 60.9858 381.345 60.9179 381.197 60.7822L380.851 60.4616L369.516 49.8728C369.479 49.8358 369.448 49.7988 369.424 49.7618C369.226 49.4966 369.22 49.1266 369.424 48.8614C369.436 48.8367 369.461 48.812 369.479 48.7874C369.769 48.4728 370.256 48.4543 370.571 48.7504L381.604 59.0493L382.251 59.6537C382.467 59.851 382.547 60.147 382.467 60.4122Z" fill="#E8EBEE"/>
<path d="M177.068 24.6496V28.0477H161.619V22.9907H157.321L151.567 17.7179L146.646 22.2075H140.781V28.0477H126.06V24.6496H137.932V19.6975H143.383L151.549 12.2724L159.479 19.6975H165.412V24.6496H177.068Z" fill="#E8EBEE"/>
<path d="M144.247 36.4348H136.069V42.386H144.247V36.4348Z" fill="#E8EBEE"/>
<path d="M144.247 43.6194H136.069V49.5644H144.247V43.6194Z" fill="#E8EBEE"/>
<path d="M136.069 58.3524V64.3036H144.247V58.3524H136.069ZM136.069 65.537V71.4821H144.247V65.537H136.069ZM157.858 36.4348V42.386H166.035V36.4348H157.858ZM157.858 43.6194V49.5644H166.035V43.6194H157.858ZM136.069 65.537V71.4821H144.247V65.537H136.069ZM136.069 58.3524V64.3036H144.247V58.3524H136.069ZM157.858 43.6194V49.5644H166.035V43.6194H157.858ZM157.858 36.4348V42.386H166.035V36.4348H157.858ZM136.069 58.3524V64.3036H144.247V58.3524H136.069ZM136.069 65.537V71.4821H144.247V65.537H136.069ZM157.858 36.4348V42.386H166.035V36.4348H157.858ZM157.858 43.6194V49.5644H166.035V43.6194H157.858ZM157.858 58.3524V64.3036H166.035V58.3524H157.858ZM157.858 65.537V71.4821H166.035V65.537H157.858ZM136.069 65.537V71.4821H144.247V65.537H136.069ZM136.069 58.3524V64.3036H144.247V58.3524H136.069ZM157.858 65.537V71.4821H166.035V65.537H157.858ZM157.858 58.3524V64.3036H166.035V58.3524H157.858ZM157.858 43.6194V49.5644H166.035V43.6194H157.858ZM157.858 36.4348V42.386H166.035V36.4348H157.858ZM136.069 58.3524V64.3036H144.247V58.3524H136.069ZM136.069 65.537V71.4821H144.247V65.537H136.069ZM136.069 80.2763V86.2274H144.247V80.2763H136.069ZM136.069 87.4608V93.4059H144.247V87.4608H136.069ZM157.858 36.4348V42.386H166.035V36.4348H157.858ZM157.858 43.6194V49.5644H166.035V43.6194H157.858ZM157.858 58.3524V64.3036H166.035V58.3524H157.858ZM157.858 65.537V71.4821H166.035V65.537H157.858ZM136.069 93.4059H144.247V87.4608H136.069V93.4059ZM136.069 80.2763V86.2274H144.247V80.2763H136.069ZM136.069 71.4821H144.247V65.537H136.069V71.4821ZM136.069 58.3524V64.3036H144.247V58.3524H136.069ZM157.858 71.4821H166.035V65.537H157.858V71.4821ZM157.858 58.3524V64.3036H166.035V58.3524H157.858ZM157.858 49.5644H166.035V43.6194H157.858V49.5644ZM157.858 36.4348V42.386H166.035V36.4348H157.858ZM160.386 29.2811V24.2241H156.846L151.567 19.3892L147.127 23.4409H142.015V29.2811H126.066V98.4381H177.074V29.2811H160.386ZM156.624 35.2014H167.268V50.7978H156.624V35.2014ZM156.624 57.119H167.268V72.7155H156.624V57.119ZM134.836 35.2014H145.48V50.7978H134.836V35.2014ZM134.836 57.119H145.48V72.7155H134.836V57.119ZM134.836 79.0429H145.48V94.6393H134.836V79.0429ZM156.304 97.0259V80.6524H167.164V97.0259H156.304ZM157.858 71.4821H166.035V65.537H157.858V71.4821ZM157.858 64.3036H166.035V58.3524H157.858V64.3036ZM157.858 49.5644H166.035V43.6194H157.858V49.5644ZM157.858 42.386H166.035V36.4348H157.858V42.386ZM136.069 93.4059H144.247V87.4608H136.069V93.4059ZM136.069 86.2274H144.247V80.2763H136.069V86.2274ZM136.069 71.4821H144.247V65.537H136.069V71.4821ZM136.069 58.3524V64.3036H144.247V58.3524H136.069ZM157.858 36.4348V42.386H166.035V36.4348H157.858ZM157.858 43.6194V49.5644H166.035V43.6194H157.858ZM157.858 58.3524V64.3036H166.035V58.3524H157.858ZM157.858 65.537V71.4821H166.035V65.537H157.858ZM136.069 58.3524V64.3036H144.247V58.3524H136.069ZM136.069 65.537V71.4821H144.247V65.537H136.069ZM136.069 80.2763V86.2274H144.247V80.2763H136.069ZM136.069 87.4608V93.4059H144.247V87.4608H136.069ZM157.858 65.537V71.4821H166.035V65.537H157.858ZM157.858 58.3524V64.3036H166.035V58.3524H157.858ZM157.858 43.6194V49.5644H166.035V43.6194H157.858ZM157.858 36.4348V42.386H166.035V36.4348H157.858ZM136.069 87.4608V93.4059H144.247V87.4608H136.069ZM136.069 80.2763V86.2274H144.247V80.2763H136.069ZM136.069 65.537V71.4821H144.247V65.537H136.069ZM136.069 58.3524V64.3036H144.247V58.3524H136.069ZM157.858 36.4348V42.386H166.035V36.4348H157.858ZM157.858 43.6194V49.5644H166.035V43.6194H157.858ZM136.069 58.3524V64.3036H144.247V58.3524H136.069ZM136.069 65.537V71.4821H144.247V65.537H136.069ZM157.858 43.6194V49.5644H166.035V43.6194H157.858ZM157.858 36.4348V42.386H166.035V36.4348H157.858ZM136.069 65.537V71.4821H144.247V65.537H136.069ZM136.069 58.3524V64.3036H144.247V58.3524H136.069ZM157.858 36.4348V42.386H166.035V36.4348H157.858ZM157.858 43.6194V49.5644H166.035V43.6194H157.858ZM157.858 43.6194V49.5644H166.035V43.6194H157.858ZM157.858 36.4348V42.386H166.035V36.4348H157.858Z" fill="#E8EBEE"/>
<path d="M327.308 146H109.692C108.208 146 107 144.436 107 142.5C107 140.564 108.203 139 109.692 139H327.308C328.792 139 330 140.564 330 142.5C330 144.436 328.792 146 327.308 146Z" fill="#E8EBEE"/>
<path d="M107.937 129.179C108.195 127.057 108.589 123.233 108.998 119.113C109.041 118.699 109.084 118.284 109.127 117.869C109.321 115.887 109.52 113.868 109.709 111.972C109.752 111.552 109.795 111.137 109.833 110.728C110.215 106.888 110.533 103.716 110.684 102.612C110.856 101.341 111.454 100.549 112.515 99.7414L122.241 93.8603C122.839 93.3325 123.135 92.7724 123.345 92.3039L141.92 48.3845L243.104 48.2552L262.681 91.2106C262.778 91.4099 262.966 91.5499 263.187 91.5715L326.252 103.544C326.909 103.678 327.405 104.222 327.475 104.89C328.003 110.006 330.146 130.902 329.828 130.902H109.461C108.54 130.902 107.829 130.095 107.937 129.179ZM194.65 92.3147L254.974 91.7869L238.392 53.8455L194.65 53.5062V92.3147ZM188.769 92.1531V53.2261H146.169L131.682 92.3147L188.769 92.1531Z" fill="#FFC654"/>
<path d="M146.035 143.219C138.426 143.219 132.258 137.051 132.258 129.443C132.258 121.834 138.426 115.667 146.035 115.667C153.643 115.667 159.811 121.834 159.811 129.443C159.811 137.051 153.643 143.219 146.035 143.219Z" fill="#1B264C"/>
<path d="M146.034 136.756C141.995 136.756 138.721 133.482 138.721 129.443C138.721 125.404 141.995 122.129 146.034 122.129C150.074 122.129 153.348 125.404 153.348 129.443C153.348 133.482 150.074 136.756 146.034 136.756Z" fill="#D3D9E5"/>
<path d="M277.911 143.219C270.303 143.219 264.135 137.051 264.135 129.443C264.135 121.834 270.303 115.667 277.911 115.667C285.52 115.667 291.688 121.834 291.688 129.443C291.688 137.051 285.52 143.219 277.911 143.219Z" fill="#1B264C"/>
<path d="M277.911 136.756C273.872 136.756 270.598 133.482 270.598 129.443C270.598 125.404 273.872 122.129 277.911 122.129C281.95 122.129 285.225 125.404 285.225 129.443C285.225 133.482 281.95 136.756 277.911 136.756Z" fill="#D3D9E5"/>
<path d="M200.924 71.0633C200.924 76.1095 205.012 80.1972 210.058 80.1972C213.236 80.1972 216.036 78.5708 217.674 76.1149C216.349 76.0611 215.299 75.5387 214.733 74.957C214.195 74.4023 214.394 73.1421 215.805 74.0953C216.85 74.7955 217.749 74.9193 218.363 74.887C218.907 73.7237 219.203 72.4312 219.203 71.0687C219.203 66.0224 215.11 61.9347 210.064 61.9347C205.017 61.9293 200.924 66.017 200.924 71.0633Z" fill="#F7931E"/>
<path d="M220.899 71.0686L216.026 71.6395C215.439 71.7095 214.911 71.2894 214.841 70.7024L214.825 70.557C214.755 69.9699 215.175 69.4421 215.762 69.3721L220.636 68.8013C221.223 68.7313 221.75 69.1513 221.82 69.7383L221.837 69.8838C221.907 70.4708 221.486 71.004 220.899 71.0686Z" fill="#F7931E"/>
<path d="M196.934 66.7602C196.934 66.7602 194.262 64.9291 196.088 61.827C197.908 58.7249 200.45 59.8666 200.45 59.8666C200.45 59.8666 201.054 56.6568 205.007 56.5384C208.96 56.4199 209.148 58.6926 209.148 58.6926C209.148 58.6926 211.184 56.6191 213.866 58.8811C216.548 61.1484 215.67 63.9058 215.67 63.9058C215.67 63.9058 211.728 63.1357 209.757 66.981C208.61 69.2106 208.195 71.5318 206.795 72.4204C206.795 72.4204 205.793 75.3986 203.396 76.6373C201 77.876 197.779 76.1203 197.989 73.2713C198.005 73.0182 198.038 72.7866 198.081 72.5766C197.03 72.1404 196.04 71.3217 195.722 69.7761C195.291 67.6649 196.934 66.7602 196.934 66.7602Z" fill="#C82232"/>
<path d="M214.464 76.5134L212.589 83.8863L202.642 84.4033L205.173 75.7164L214.464 76.5134Z" fill="#F7931E"/>
<path d="M217.954 90.4674C217.954 90.4674 232.78 87.4731 236.658 72.2265C239.173 62.3386 236.011 56.1182 234.67 52.3698C233.329 48.6215 232.171 45.137 230.658 43.3113C229.468 41.8734 228.504 42.6381 230.104 46.618C230.104 46.618 227.621 42.3419 226.167 42.0134C224.713 41.6849 226.921 47.5175 226.921 47.5175C226.921 47.5175 224.475 42.2826 223.221 42.8104C221.966 43.3436 226.059 50.3126 226.059 50.3126C226.059 50.3126 222.397 47.4797 220.889 48.81C219.381 50.1402 225.477 52.9407 225.477 52.9407C225.477 52.9407 231.794 62.4947 228.159 71.074C224.863 78.84 215.799 80.1971 215.799 80.1971L217.954 90.4674Z" fill="#F7931E"/>
<path d="M198.636 92.3147C198.636 92.3147 198.636 90.0312 198.636 89.1426C198.636 88.2594 198.587 84.9849 201.695 81.5705C203.477 79.6101 207.511 79.5186 215.288 79.0231C219.214 78.7754 223.657 76.7234 223.657 76.7234L228.456 86.1428C228.456 86.1428 222.682 89.4334 219.435 89.9396V92.0939L198.636 92.3147Z" fill="#127A8B"/>
<path d="M202.438 101.923H214.884C215.455 101.923 215.923 101.459 215.923 100.883C215.923 100.307 215.46 99.8437 214.884 99.8437H202.438C201.862 99.8437 201.398 100.307 201.398 100.883C201.398 101.459 201.862 101.923 202.438 101.923Z" fill="white"/>
<path d="M323.155 120.966H329.074L328.956 119.722H323.155C321.588 119.722 320.312 118.499 320.312 116.997V114.697C320.312 113.195 321.588 111.972 323.155 111.972H328.196L328.094 110.728H323.15C320.899 110.728 319.062 112.511 319.062 114.697V116.997C319.073 119.189 320.904 120.966 323.155 120.966Z" fill="white"/>
<path d="M108.998 119.113H114.642C115.773 119.113 116.758 118.413 116.99 117.444L117.006 117.374L117.48 113.232C117.604 112.667 117.469 112.101 117.098 111.633C116.651 111.067 115.913 110.728 115.127 110.728H109.832C109.795 111.137 109.752 111.552 109.709 111.972H115.127C115.536 111.972 115.907 112.134 116.123 112.403C116.22 112.527 116.322 112.726 116.263 112.979L116.252 113.055L115.773 117.185C115.66 117.578 115.18 117.869 114.642 117.869H109.127C109.084 118.284 109.041 118.699 108.998 119.113Z" fill="white"/>
<path d="M209.73 68.742C209.73 68.742 207.98 66.7386 206.342 68.0796C204.522 69.566 207.075 72.8243 207.075 72.8243" fill="#F7931E"/>
<path d="M215.665 69.1782C215.234 69.1782 214.884 68.8286 214.884 68.3973C214.884 67.966 215.234 67.6164 215.665 67.6164C216.096 67.6164 216.446 67.966 216.446 68.3973C216.446 68.8286 216.096 69.1782 215.665 69.1782Z" fill="#1F4847"/>
<path d="M173.932 77.8006C174.142 77.8006 174.357 77.7252 174.519 77.569C174.869 77.2459 174.885 76.6965 174.562 76.3465L161.314 62.1555C160.985 61.8054 160.441 61.7892 160.091 62.1124C159.741 62.4355 159.725 62.9848 160.048 63.3349L173.296 77.5259C173.469 77.709 173.7 77.8006 173.932 77.8006Z" fill="#E8EBEE"/>
<path d="M170.216 81.8828C170.426 81.8828 170.631 81.8074 170.798 81.6566C171.148 81.3334 171.175 80.7895 170.852 80.4341L161.319 69.986C160.996 69.636 160.452 69.609 160.097 69.9322C159.747 70.2553 159.72 70.7992 160.043 71.1547L169.575 81.6027C169.748 81.7858 169.985 81.8828 170.216 81.8828Z" fill="#E8EBEE"/>
</svg>
