<?xml version="1.0" encoding="UTF-8" standalone="no"?>
<svg
   xmlns:dc="http://purl.org/dc/elements/1.1/"
   xmlns:cc="http://creativecommons.org/ns#"
   xmlns:rdf="http://www.w3.org/1999/02/22-rdf-syntax-ns#"
   xmlns:svg="http://www.w3.org/2000/svg"
   xmlns="http://www.w3.org/2000/svg"
   id="svg4"
   version="1.1"
   viewBox="0 0 39.647267 21.99806"
   height="21.99806"
   width="39.647266">
  <path
     style="fill:#00ada8"
     d="M 9.00017,17.92956 H 3.86597 V 1.5513099 c 0,-0.4044 -0.32778,-0.72916704 -0.72908,-0.72916704 H 0.729081 C 0.32778,0.81910186 0,1.1469099 0,1.5513099 V 20.86146 c 0,0.4044 0.32778,0.7291 0.729081,0.7291 H 9.00017 c 0.40436,0 0.7291013,-0.3278 0.7291013,-0.7291 v -2.2028 C 9.73231,18.25736 9.40453,17.92956 9.00017,17.92956 Z M 35.6878,0.58929286 c -0.0613,-0.312492 -0.3186,-0.551456 -0.6372,-0.585156 -0.3186,-0.0337 -0.6218,0.140928 -0.7474,0.435037 L 32.638521,4.2570689 28.3388,14.11836 22.3744,0.43917386 c -0.1287,-0.294109 -0.4289,-0.468737 -0.7475,-0.435037 -0.3186,0.0337 -0.5759,0.272664 -0.6371,0.585156 C 21.125843,4.4646859 15.109514,20.00467 17.761,21.59056 h 2.4844 c 0.3553,0 0.6586,-0.2543 0.7198,-0.6036 l 1.8503,-10.4684 4.8555,11.0444 c 0.1164,0.2666 0.3798,0.4351 0.6678,0.4351 0.2879,0 0.5514,-0.1716 0.6678,-0.4351 l 4.8554,-11.0444 1.8503,10.4684 c 0.0613,0.3493 0.3645,0.6036 0.7199,0.6036 h 2.4844 c 0.2175,0 0.4258,-0.098 0.5636,-0.2666 0.1379,-0.1685 0.1961,-0.389 0.1532,-0.6035 z" />
</svg>
