<svg width="100%" preserveAspectRatio="xMaxYMid meet" viewBox="0 0 910 512" fill="none"
    xmlns="http://www.w3.org/2000/svg">
    <path d="M431.598 446.159C431.598 446.159 258.579 334.272 236.952 218.549C215.325 102.826 319.86 52.3622 381.134 73.9515C442.41 95.537 453.224 149.96 453.224 149.96C453.224 149.96 496.479 46.2214 582.991 69.1117C669.497 91.9961 705.546 209.42 647.956 282.284C590.367 355.148 431.684 446.166 431.684 446.166" fill="#FA512C"/>
    <path d="M381.743 195.748C381.751 198.389 380.976 200.973 379.515 203.174C378.054 205.374 375.974 207.091 373.537 208.109C371.1 209.126 368.415 209.398 365.823 208.889C363.232 208.381 360.849 207.114 358.977 205.251C357.105 203.388 355.828 201.012 355.307 198.422C354.786 195.833 355.045 193.148 356.051 190.705C357.057 188.263 358.765 186.175 360.958 184.704C363.152 183.232 365.732 182.444 368.373 182.441C371.914 182.441 375.309 183.847 377.813 186.35C380.316 188.854 381.722 192.25 381.722 195.79" fill="white"/>
    <path d="M533.552 198.239C533.552 200.879 532.769 203.46 531.303 205.655C529.836 207.851 527.751 209.562 525.312 210.572C522.872 211.583 520.188 211.847 517.599 211.332C515.01 210.817 512.631 209.546 510.764 207.678C508.897 205.811 507.625 203.433 507.111 200.843C506.595 198.254 506.859 195.57 507.87 193.131C508.88 190.691 510.591 188.606 512.787 187.139C514.982 185.672 517.563 184.89 520.203 184.89C523.743 184.89 527.139 186.296 529.643 188.799C532.146 191.303 533.552 194.699 533.552 198.239V198.239Z" fill="white"/>
    <path d="M444.34 326.578H442.245C406.157 325.739 375.539 304.091 360.303 268.674L371.787 263.729C385.032 294.513 411.479 313.333 442.538 314.024C473.972 314.779 502.557 296.526 517.208 266.452L528.461 271.923C511.969 305.788 479.906 326.556 444.401 326.556" fill="white"/>
</svg>
