<svg width="100%" preserveAspectRatio="xMaxYMid meet" viewBox="0 0 910 512" fill="none"
    xmlns="http://www.w3.org/2000/svg">
    <g clip-path="url(#clip0_4:39)">
        <path d="M423.312 511.61C423.312 511.61 190.583 361.109 161.492 205.449C132.401 49.7897 273.008 -18.0894 355.433 10.9453C437.857 39.98 452.403 113.187 452.403 113.187C452.403 113.187 510.585 -26.3488 626.949 4.43363C743.313 35.216 791.798 193.159 714.335 291.172C636.872 389.185 423.425 511.61 423.425 511.61" fill="#FA512C"/>
        <path d="M356.25 174.78C356.261 178.332 355.218 181.808 353.253 184.768C351.288 187.728 348.49 190.038 345.211 191.407C341.933 192.775 338.322 193.141 334.836 192.456C331.35 191.772 328.145 190.069 325.627 187.563C323.109 185.057 321.391 181.86 320.69 178.377C319.99 174.894 320.338 171.282 321.691 167.997C323.044 164.712 325.341 161.903 328.291 159.924C331.242 157.945 334.713 156.885 338.266 156.88C343.028 156.88 347.595 158.772 350.963 162.139C354.33 165.507 356.222 170.074 356.222 174.836" fill="white"/>
        <path d="M560.451 178.134C560.451 181.686 559.398 185.157 557.425 188.11C555.452 191.063 552.648 193.365 549.367 194.724C546.085 196.083 542.475 196.438 538.992 195.746C535.509 195.053 532.309 193.343 529.798 190.831C527.287 188.32 525.576 185.121 524.884 181.637C524.191 178.154 524.546 174.544 525.905 171.263C527.264 167.982 529.566 165.177 532.519 163.204C535.472 161.231 538.943 160.178 542.495 160.178C547.257 160.178 551.825 162.07 555.192 165.437C558.559 168.805 560.451 173.372 560.451 178.134Z" fill="white"/>
        <path d="M440.451 350.764H437.632C389.09 349.636 347.906 320.517 327.413 272.877L342.86 266.225C360.676 307.634 396.25 332.948 438.027 333.878C480.31 334.893 518.76 310.341 538.464 269.889L553.601 277.247C531.417 322.8 488.288 350.735 440.535 350.735" fill="white"/>
    </g>
    <defs>
        <clipPath id="clip0_4:39">
            <rect width="910" height="512" fill="white"/>
        </clipPath>
    </defs>
</svg>
