<svg xmlns="http://www.w3.org/2000/svg" viewBox="0 0 170.25 226.5">
<path d="M72.64 28.08s.37-18.86-15.96-26.64C40.36-6.34 9.22 17.64 1.75 66.06s11.38 158.76 11.38 158.76l33.2.87v-23.66l9.03 23.9 21.67.57S46.86 74.19 56.69 56.97l15.96-28.89z" fill="#ff862c"/>
<path d="M36.13 112.34s-6.35-5.4-11.95-1.29c-10.54 7.73-5.79 18.61.95 26.09 6.73 7.48 19.96 10.59 19.96 10.59s12.63 47.24 60.86 47.03c45.87-.2 54.63-63.61 54.63-63.61s9-7.22 9.65-23.68c.42-10.61-3.48-16.82-11.75-15.55-5.63.86-7.63 7.05-7.63 7.05s-7.48-24.69-28.44-30.68-38.16-5.24-58.37 9.73c-20.2 14.97-27.91 34.32-27.91 34.32z" fill="#971b23"/>
<path d="M150.84,98.97s4.6-49.97-29.45-68.49c-30.4-16.53-59.91-2.4-59.91-2.4l-8.31,4.08S15.87,59.29,29.76,96.41l5.34,15.93s24.46-39.26,65.66-43.01c40.94-3.72,50.09,29.64,50.09,29.64Z" fill="#ff862c"/>
<path d="M75.36 25.42l-3.67-11.34S58.2 15.93 40.07 27.79l6.33 10.23s14.87-12.31 28.96-12.6z" fill="#15a59e"/>
<path d="M25.12 108.97c-.61 0-1.18-.38-1.41-.98-.33-.9-8.05-22.21-2.78-41 6.11-21.78 17.8-29.88 18.29-30.21.69-.46 1.62-.28 2.08.4.46.69.28 1.62-.4 2.08h0c-.11.08-11.3 7.9-17.08 28.54-5 17.84 2.62 38.94 2.7 39.15a1.5 1.5 0 0 1-.89 1.93 1.58 1.58 0 0 1-.52.09zm-4.06 87.5a1.5 1.5 0 0 1-1.49-1.33l-5.2-44.41c-.1-.82.49-1.57 1.32-1.67.82-.09 1.57.49 1.67 1.32l5.2 44.41c.1.82-.49 1.57-1.32 1.67h-.18zm7.29-16.55c-.76 0-1.42-.58-1.49-1.35l-3.23-32.8c-.08-.82.52-1.56 1.35-1.64.82-.09 1.56.52 1.64 1.35l3.23 32.8c.08.82-.52 1.56-1.35 1.64h-.15zm19.24 10.94c-.76 0-1.41-.58-1.49-1.35l-2.5-25.19c-.08-.82.52-1.56 1.34-1.64a1.49 1.49 0 0 1 1.64 1.34l2.5 25.19c.08.82-.52 1.56-1.34 1.64h-.15z" fill="#971b23"/><g fill="#1b264c">
<path d="M102.69 144.2c-1.24 0-2.52-.12-3.81-.35-1.09-.2-1.81-1.24-1.61-2.32s1.24-1.81 2.32-1.61c3.98.72 7.76.05 9.88-1.75 1.28-1.09 1.92-2.56 1.9-4.38-.06-4.32-7.35-7.37-10.15-8.18-1.06-.31-1.67-1.42-1.37-2.48.31-1.06 1.41-1.68 2.47-1.37.53.15 12.93 3.81 13.04 11.97.04 3.03-1.1 5.62-3.31 7.49-2.29 1.94-5.64 2.98-9.37 2.98z"/><circle cx="72.52" cy="112.2" r="6.52"/><circle cx="125.27" cy="104.59" r="6.52"/>
<path d="M107.17 168.97c-17.6 0-27.29-15.47-27.39-15.64a2 2 0 0 1 3.41-2.09c.45.73 10.83 17.13 29.77 13.11 18.55-3.92 19.96-23.71 19.97-23.91.07-1.1 1.03-1.97 2.12-1.88a2.01 2.01 0 0 1 1.88 2.12c-.01.23-1.63 23.03-23.14 27.58-2.31.49-4.52.71-6.61.71z"/></g>
<path d="M130.27 59.69c-.55 0-1.07-.3-1.34-.82-6.29-12.31-19.81-18.28-19.95-18.34-.76-.33-1.11-1.21-.78-1.97s1.21-1.11 1.97-.78c.59.26 14.64 6.43 21.43 19.73.38.74.08 1.64-.65 2.02-.22.11-.45.16-.68.16zm-11.52 2.21c-.57 0-1.11-.32-1.36-.87-3.38-7.29-11.6-10.94-11.68-10.98-.76-.33-1.11-1.21-.78-1.97a1.5 1.5 0 0 1 1.97-.78c.38.17 9.35 4.15 13.21 12.47a1.5 1.5 0 0 1-.73 1.99 1.56 1.56 0 0 1-.63.14z" fill="#971b23"/>
<path d="M62.98 129.88c-.69-2.8 7.19-7.5 11.59-7.51s10.39.73 9.99 3.76c-.4 3.02-5.31 7.09-12.04 7.66s-8.84-1.1-9.54-3.9zm63.46-15.81c5.49-1.71 13.36-2.56 16.24-.77s.76 7.65-6.01 8.29c-6.77.65-14.53 1.16-15.04-1.23s-.69-4.58 4.81-6.29z" opacity=".5" fill="#f2643a"/>
<path d="M33.02 135.39c-.23 0-.46-.05-.68-.16-4.32-2.19-7.75-6.59-8.32-10.7-.31-2.23.26-4.15 1.62-5.4 3.81-3.52 7.81-1.85 7.98-1.78.76.33 1.11 1.21.78 1.97-.33.75-1.2 1.1-1.96.79-.13-.05-2.44-.93-4.76 1.22-.79.73-.81 1.92-.69 2.79.38 2.7 2.8 6.46 6.71 8.44a1.5 1.5 0 0 1 .66 2.02c-.26.52-.79.82-1.34.82zm126.95-15.17c-.26 0-.52-.07-.76-.21-.71-.42-.96-1.34-.54-2.05 2.7-4.62 5.77-12.19 4.14-14.56-.6-.87-1.24-1.35-1.96-1.46-1.53-.22-3.29 1.18-4.04 1.78-.65.52-1.59.41-2.11-.23-.52-.65-.41-1.59.23-2.11 1.06-.84 3.53-2.83 6.35-2.4 1.57.23 2.91 1.15 4 2.73.57.83 3.08 5.62-4.03 17.77-.28.48-.78.74-1.3.74z" fill="#1b264c"/>
</svg>
