<svg width="34" height="21" viewBox="0 0 34 21" fill="none" xmlns="http://www.w3.org/2000/svg">
<g clip-path="url(#clip0)">
<path d="M33.4945 4.00668C33.4945 3.95991 33.4787 3.91834 33.4682 3.87157C33.4577 3.83519 33.4524 3.79362 33.4366 3.76244C33.4208 3.72606 33.3944 3.70007 33.3734 3.66889C33.347 3.63252 33.3207 3.59094 33.2891 3.55976C33.2838 3.55457 33.2785 3.54417 33.2733 3.53898L29.2168 0.155902C29.0851 0.0519673 28.9375 0 28.7795 0H8.95527C8.95 0 8.94473 0.00519673 8.9342 0.00519673C8.86044 0.00519673 8.78142 0.0207869 8.71293 0.0467706C8.70766 0.0467706 8.70766 0.0519673 8.7024 0.0519673C8.69186 0.0571641 8.68132 0.0675575 8.67079 0.0727543C8.61284 0.0987379 8.56015 0.135115 8.51274 0.176689C8.49694 0.192279 8.48113 0.207869 8.46533 0.228656C8.42845 0.27023 8.39684 0.317001 8.37577 0.363771C8.36523 0.384558 8.35469 0.405345 8.34416 0.426132C8.31255 0.49369 8.29674 0.571641 8.29674 0.649592V10.0505C8.29674 10.2168 8.35996 10.3727 8.47586 10.4922L8.90785 10.9495H4.83027C4.39301 10.9495 4.04004 11.2977 4.04004 11.729C4.04004 12.1604 4.39301 12.5085 4.83027 12.5085H10.3777L11.6737 13.8805C11.8054 14.0156 11.9792 14.0883 12.1531 14.0883C12.1847 14.0883 12.211 14.078 12.2426 14.0728C12.269 14.078 12.29 14.0883 12.3111 14.0883H15.4615C15.7987 17.9599 19.0913 21.0104 23.1004 21.0104C27.1095 21.0104 30.4074 17.9599 30.7393 14.0883H32.836C33.1995 14.0883 33.4945 13.7973 33.4945 13.4388V4.03267C33.4998 4.02227 33.4945 4.01708 33.4945 4.00668ZM31.0396 3.38307H12.4428L10.4672 1.29918H28.5372L31.0396 3.38307ZM10.8307 11.0794L9.61379 9.79584V2.29696L11.6579 4.4588V11.9525L11.0678 11.3289C11.0046 11.2301 10.9256 11.1418 10.8307 11.0794ZM24.3226 12.7788L26.6353 10.4974C26.7881 10.3467 26.7881 10.0973 26.6353 9.94655C26.4826 9.79584 26.2297 9.79584 26.0769 9.94655L23.5008 12.4929V8.89681C23.5008 8.68374 23.3216 8.50705 23.1056 8.50705C22.8897 8.50705 22.7105 8.68374 22.7105 8.89681V12.4929L20.1344 9.94655C19.9816 9.79584 19.7287 9.79584 19.576 9.94655C19.4232 10.0973 19.4232 10.3467 19.576 10.4974L21.8887 12.7788H17.0525C17.3844 9.76986 19.9711 7.42094 23.1056 7.42094C26.2402 7.42094 28.8322 9.76986 29.1588 12.7788H24.3226ZM23.1056 19.441C19.9658 19.441 17.3791 17.0869 17.0472 14.078H21.8887L19.5707 16.3645C19.4179 16.5152 19.4179 16.7647 19.5707 16.9154C19.6497 16.9933 19.7498 17.0297 19.8499 17.0297C19.95 17.0297 20.0501 16.9933 20.1291 16.9154L22.7053 14.3742V17.9703C22.7053 18.1834 22.8844 18.3601 23.1004 18.3601C23.3164 18.3601 23.4955 18.1834 23.4955 17.9703V14.3742L26.0716 16.9154C26.1507 16.9933 26.2508 17.0297 26.3509 17.0297C26.451 17.0297 26.5511 16.9933 26.6301 16.9154C26.7829 16.7647 26.7829 16.5152 26.6301 16.3645L24.3121 14.078H29.1535C28.8322 17.0921 26.2402 19.441 23.1056 19.441ZM32.1828 12.7788H30.7445C30.4074 8.9072 27.1147 5.86192 23.1056 5.86192C19.0966 5.86192 15.8039 8.9124 15.4668 12.7788H12.9749V4.68226H32.1828V12.7788Z" fill="white"/>
<path d="M2.22797 10.9443H1.29023C0.852969 10.9443 0.5 11.2925 0.5 11.7238C0.5 12.1552 0.852969 12.5034 1.29023 12.5034H2.22797C2.66523 12.5034 3.0182 12.1552 3.0182 11.7238C3.0182 11.2925 2.66523 10.9443 2.22797 10.9443Z" fill="white"/>
</g>
<defs>
<clipPath id="clip0">
<rect x="0.5" width="33" height="21" fill="white"/>
</clipPath>
</defs>
</svg>
