<svg width="291" height="212" viewBox="0 0 291 212" fill="none" xmlns="http://www.w3.org/2000/svg">
<path d="M80.4462 168.446L79.3291 172.607C79.3291 172.607 87.0536 176.345 89.878 177.302C92.7024 178.259 91.2288 175.257 90.2147 173.932C89.2006 172.607 86.7446 169.83 86.7446 169.83L80.4462 168.446Z" fill="#00ADA8"/>
<path d="M65.492 141.429C65.492 141.429 76.2588 142.272 81.0797 144.08C85.9045 145.883 86.3997 146.536 85.5836 149.131C84.526 152.493 79.1069 170.123 79.1069 170.123L88.3169 171.923C88.3169 171.923 95.4076 152.6 96.8416 146.192C98.3152 139.622 92.5119 136.422 87.9208 134.258C83.8367 132.336 71.0418 128.083 71.0418 128.083L55.981 132.324" fill="#1B264C"/>
<path d="M91.613 43.4665C91.4229 43.4665 91.2367 43.3835 91.1099 43.2371C90.9713 43.0789 90.9158 42.8692 90.9594 42.6636L95.9506 18.3133C96.0021 18.0562 96.2002 17.8545 96.4576 17.7951C96.7151 17.7358 96.9805 17.8347 97.139 18.0404L112.354 37.996C112.481 38.1622 112.525 38.3837 112.465 38.5854C112.406 38.7871 112.255 38.9533 112.061 39.0245L106.836 41.0062C106.551 41.1169 106.226 41.0141 106.052 40.7649L101.734 34.6061L98.7354 35.1243L97.4123 42.5528C97.3608 42.8534 97.1073 43.0828 96.7983 43.1026L91.6645 43.4626C91.6447 43.4665 91.6288 43.4665 91.613 43.4665ZM96.9607 20.0221L92.4449 42.0702L96.1804 41.8092L97.4915 34.4321C97.5391 34.1552 97.7569 33.9376 98.0342 33.8902L101.912 33.2177C102.17 33.1742 102.427 33.281 102.574 33.4946L106.836 39.5743L110.738 38.0949L96.9607 20.0221Z" fill="#00ADA8"/>
<path d="M114.703 37.1814C114.414 37.1814 114.153 36.9955 114.065 36.7107L108.167 17.5817C108.064 17.2534 108.231 16.9014 108.547 16.7669L113.182 14.8287C113.356 14.7575 113.554 14.7614 113.725 14.8405C113.895 14.9196 114.026 15.07 114.081 15.2519L118.51 29.8439L124.702 28.5623C125.054 28.4911 125.407 28.7126 125.49 29.0646L126.698 34.1831C126.742 34.3611 126.706 34.547 126.607 34.7013C126.508 34.8555 126.349 34.9584 126.171 34.994L114.83 37.1695C114.79 37.1774 114.747 37.1814 114.703 37.1814ZM109.625 17.7676L115.171 35.7455L125.24 33.8152L124.341 30.006L118.189 31.2797C117.845 31.3509 117.512 31.1492 117.413 30.8209L113.016 16.3476L109.625 17.7676Z" fill="#00ADA8"/>
<path d="M129.138 34.8674C128.837 34.8674 128.568 34.6657 128.492 34.3651L123.386 14.5439C123.295 14.1958 123.501 13.8359 123.846 13.737L128.374 12.4198C128.548 12.3684 128.738 12.3921 128.896 12.4831C129.055 12.574 129.17 12.7283 129.209 12.9063L132.668 27.3677L138.95 26.3947C139.303 26.3393 139.632 26.5687 139.707 26.9168L140.812 32.0906C140.852 32.2686 140.812 32.4546 140.713 32.6049C140.614 32.7552 140.455 32.858 140.277 32.8897L129.261 34.8595C129.217 34.8635 129.178 34.8674 129.138 34.8674ZM124.844 14.8406L129.633 33.4316L139.358 31.6911L138.53 27.8108L132.264 28.7838C131.919 28.8352 131.59 28.6177 131.511 28.2775L128.073 13.8991L124.844 14.8406Z" fill="#00ADA8"/>
<path d="M148.529 31.5447C146.801 31.5447 145.209 31.0938 143.767 30.1919C141.153 28.5583 139.243 25.5125 138.388 21.6163C137.053 15.5406 139.881 9.68248 144.821 8.27827C149.998 6.80681 155.663 11.6603 157.271 16.9844C158.416 20.7778 158.19 24.6225 156.669 27.2648C155.504 29.2901 153.65 30.6191 151.159 31.2164C150.256 31.4379 149.376 31.5447 148.529 31.5447ZM146.742 9.35418C146.219 9.35418 145.704 9.42142 145.193 9.56777C140.931 10.7782 138.518 15.9481 139.699 21.3315C140.475 24.8757 142.175 27.6208 144.48 29.0606C146.31 30.2077 148.457 30.4965 150.854 29.919C152.973 29.4087 154.542 28.2933 155.516 26.6003C156.855 24.2705 157.037 20.8173 155.996 17.372C154.756 13.2781 150.691 9.35418 146.742 9.35418Z" fill="#00ADA8"/>
<path d="M148.648 26.2047C147.677 26.2047 146.695 25.916 145.8 25.3503C144.259 24.3812 143.134 22.7397 142.722 20.845C141.993 17.5223 143.561 14.3144 146.291 13.5352C149.163 12.7243 152.28 15.3666 153.156 18.2739C153.54 19.5436 154.015 21.9604 152.906 23.8828C152.26 24.9983 151.195 25.738 149.745 26.0782C149.381 26.1612 149.016 26.2047 148.648 26.2047ZM144.025 20.5562C144.362 22.0791 145.289 23.4517 146.513 24.2191C147.455 24.8124 148.466 25.0062 149.436 24.7768C150.514 24.5236 151.29 23.9975 151.742 23.2144C152.367 22.1305 152.415 20.4692 151.872 18.6615C151.187 16.395 148.763 14.2234 146.655 14.8207C144.603 15.4061 143.451 17.9258 144.025 20.5562Z" fill="#00ADA8"/>
<path d="M97.6343 31.8494C97.4402 31.8494 97.2541 31.7664 97.1273 31.616C96.9847 31.4499 96.9332 31.2245 96.9886 31.0109L97.876 27.6328C97.9394 27.3915 98.1335 27.2056 98.3751 27.1502C98.6207 27.0949 98.8742 27.1819 99.0327 27.3718L101.576 30.4017C101.734 30.5916 101.778 30.8526 101.683 31.0821C101.588 31.3115 101.378 31.4697 101.128 31.4934L97.6938 31.8376C97.6819 31.8494 97.6581 31.8494 97.6343 31.8494ZM98.8425 29.2229L98.5296 30.4175L99.7457 30.2949L98.8425 29.2229Z" fill="#00ADA8"/>
<path d="M163.158 22.9533C162.825 22.9533 162.54 22.708 162.496 22.3758L159.612 1.75953C159.585 1.5578 159.648 1.35211 159.791 1.20576C159.933 1.0594 160.131 0.980292 160.337 1.00007L166.794 1.58153C167.139 1.61318 167.404 1.90193 167.404 2.24606V22.0949C167.404 22.4509 167.127 22.7436 166.77 22.7634L163.201 22.9493C163.181 22.9533 163.17 22.9533 163.158 22.9533ZM161.054 2.40824L163.736 21.5847L166.061 21.462V2.85917L161.054 2.40824Z" fill="#00ADA8"/>
<path d="M166.675 33.744C164.37 33.744 162.492 31.869 162.492 29.5669C162.492 27.2648 164.37 25.3899 166.675 25.3899C168.981 25.3899 170.858 27.2648 170.858 29.5669C170.858 31.869 168.981 33.744 166.675 33.744ZM166.675 26.7229C165.107 26.7229 163.827 27.9966 163.827 29.5669C163.827 31.1373 165.103 32.407 166.675 32.407C168.248 32.407 169.523 31.1333 169.523 29.5669C169.523 28.0005 168.244 26.7229 166.675 26.7229Z" fill="#00ADA8"/>
<path d="M151.864 173.347C151.864 173.347 156.871 177.223 158.194 178.9C159.054 179.992 159.271 181.451 156.712 180.791C154.153 180.126 142.23 176.044 142.23 176.044L144.068 171.491L151.864 173.347Z" fill="#1B264C"/>
<path d="M138.111 134.752C138.111 134.752 150.478 138.811 157.339 143.134C164.2 147.462 164.382 149.803 164.469 152.331C164.56 154.854 162.302 158.102 160.947 160.262C159.593 162.425 152.288 174.43 152.288 174.43L142.761 171.491C142.761 171.491 150.569 157.829 151.29 155.938C152.011 154.044 152.914 152.422 150.478 151.251C148.042 150.08 135.944 148.727 135.944 148.727L138.111 134.752Z" fill="#BC432F"/>
<path opacity="0.5" d="M289.02 212H4.8884C3.83074 212 2.9751 211.146 2.9751 210.09C2.9751 209.034 3.83074 208.179 4.8884 208.179H289.016C290.073 208.179 290.929 209.034 290.929 210.09C290.929 211.146 290.073 212 289.02 212Z" fill="#E8EBEE"/>
<path d="M0.669496 124.464C0.301097 124.464 0.00400044 124.168 3.91562e-05 123.8C-0.00392213 123.432 0.293174 123.127 0.665535 123.127L19.0103 122.997H19.0142C19.3826 122.997 19.6797 123.293 19.6837 123.661C19.6876 124.029 19.3905 124.334 19.0182 124.334L0.673458 124.464H0.669496Z" fill="#C6CEDB"/>
<path d="M6.2116 118.669C5.84717 118.669 5.55007 118.377 5.54215 118.013C5.53422 117.645 5.83132 117.34 6.19972 117.332L26.4538 116.969C26.8341 116.976 27.1272 117.257 27.1351 117.625C27.143 117.993 26.8459 118.298 26.4775 118.305L6.22349 118.669C6.22349 118.669 6.21953 118.669 6.2116 118.669Z" fill="#C6CEDB"/>
<path d="M3.84637 131.339C3.48193 131.339 3.18484 131.046 3.17691 130.682C3.16899 130.314 3.46609 130.01 3.83449 130.002L24.0885 129.638C24.4649 129.634 24.762 129.927 24.7699 130.295C24.7778 130.662 24.4807 130.967 24.1123 130.975L3.85825 131.339C3.85429 131.339 3.85033 131.339 3.84637 131.339Z" fill="#C6CEDB"/>
<path d="M200.477 144.729C200.477 144.729 211.244 145.176 216.065 146.983C220.889 148.787 221.385 149.835 220.569 152.43C219.511 155.792 215.601 169.221 215.601 169.221L224.811 171.021C224.811 171.021 230.392 155.895 231.826 149.487C233.3 142.917 227.497 139.717 222.906 137.553C218.822 135.631 206.027 131.379 206.027 131.379L190.966 135.619" fill="#2F3B66"/>
<path d="M215.76 163.917L227.152 167.089L221.456 178.43C221.456 178.43 224.526 180.356 227.152 181.665C229.779 182.974 228.436 184.62 226.32 184.137C224.201 183.655 212.539 180.633 212.539 180.633L215.76 163.917Z" fill="#BC432F"/>
<path d="M28.4457 210.758C13.373 210.758 1.11279 198.516 1.11279 183.465C1.11279 168.414 13.373 156.172 28.4457 156.172C43.5184 156.172 55.7785 168.414 55.7785 183.465C55.7785 198.516 43.5184 210.758 28.4457 210.758ZM28.4457 157.509C14.1137 157.509 2.45171 169.154 2.45171 183.465C2.45171 197.776 14.1137 209.421 28.4457 209.421C42.7776 209.421 54.4396 197.776 54.4396 183.465C54.4396 169.154 42.7776 157.509 28.4457 157.509Z" fill="#D3D9E5"/>
<path d="M137.334 98.1518L140.198 90.2091C140.198 90.2091 134.803 85.953 134.038 81.4397C132.691 73.5049 140.313 66.6935 149.515 66.5115C160.626 66.29 162.781 77.5712 163.185 79.7111C163.589 81.8511 163.538 87.7567 160.381 90.8657C157.224 93.9748 150.945 93.7533 150.945 93.7533L147.079 102.313L137.334 98.1518Z" fill="#FFCB57"/>
<path d="M150.406 77.243C150.002 77.4645 149.495 77.3142 149.273 76.9107L148.873 76.179C148.651 75.7755 148.802 75.2692 149.206 75.0477C149.61 74.8262 150.117 74.9765 150.339 75.3799L150.739 76.1117C150.961 76.5152 150.81 77.0215 150.406 77.243Z" fill="#1B264C"/>
<path d="M157.532 74.0666C157.18 74.2604 156.736 74.1299 156.542 73.7779L156.193 73.1371C155.999 72.785 156.13 72.342 156.483 72.1482C156.835 71.9544 157.279 72.0849 157.473 72.4369L157.822 73.0738C158.016 73.4298 157.885 73.8728 157.532 74.0666Z" fill="#1B264C"/>
<path d="M155.964 86.5264C155.163 86.5264 154.26 86.4315 153.27 86.1783C149.222 85.1459 148.247 82.1041 148.207 81.9776C148.128 81.7244 148.271 81.4594 148.524 81.3803C148.778 81.3051 149.043 81.4436 149.123 81.6967C149.158 81.8114 150.006 84.3627 153.508 85.2527C157.251 86.206 159.576 84.7069 159.6 84.695C159.822 84.5486 160.115 84.608 160.262 84.8295C160.408 85.051 160.349 85.3437 160.127 85.4901C160.044 85.5415 158.519 86.5264 155.964 86.5264Z" fill="#FF6333"/>
<path d="M130.045 82.4286C132.212 85.4348 135.203 88.3303 138.455 87.1515C142.951 85.5258 141.061 74.838 141.061 74.838C141.061 74.838 143.046 76.4439 145.981 74.0627C148.917 71.6814 149.816 69.1895 149.816 69.1895C149.816 69.1895 156.289 71.3136 161.157 68.4577C166.025 65.6018 170.042 60.4715 168.759 55.3649C167.475 50.2583 163.724 51.8761 162.032 52.5169C160.341 53.1537 157.402 55.2502 157.402 55.2502C157.402 55.2502 158.059 50.6538 156.704 47.7742C155.35 44.8946 151.254 45.48 148.307 47.4696C145.359 49.4593 142.689 57.3664 142.689 57.3664C142.689 57.3664 139.374 53.66 136.387 53.4306C133.4 53.2012 129.067 58.1061 127.72 64.518C126.413 70.744 127.878 79.4224 130.045 82.4286Z" fill="#C82232"/>
<path d="M154.415 76.8988C154.415 76.8988 156.269 80.5221 157.092 81.1708C157.916 81.8195 159.113 81.0165 159.81 80.1661C160.507 79.3156 159.362 78.3228 158.217 77.4645C157.073 76.6061 156.3 75.8981 155.793 75.5698C154.842 74.9566 153.733 75.7754 154.415 76.8988Z" fill="#FFCB57"/>
<path d="M157.77 81.8827C157.429 81.8827 157.096 81.7799 156.795 81.5465C155.924 80.8622 154.221 77.5752 153.995 77.1321C153.599 76.4636 153.646 75.7358 154.121 75.277C154.613 74.7984 155.409 74.7549 156.051 75.1702C156.336 75.3561 156.68 75.6369 157.116 75.9929C157.512 76.3173 157.96 76.6812 158.503 77.0886C159.624 77.9312 160.388 78.6511 160.487 79.4501C160.531 79.814 160.424 80.17 160.178 80.4706C159.54 81.2499 158.625 81.8827 157.77 81.8827ZM155.124 75.8347C154.981 75.8347 154.866 75.8822 154.791 75.9573C154.636 76.1077 154.648 76.3608 154.823 76.6496L154.838 76.6812C155.536 78.0459 156.847 80.3717 157.386 80.795C157.96 81.2459 158.95 80.4627 159.438 79.8615C159.544 79.7309 159.548 79.636 159.541 79.5569C159.473 78.9992 158.392 78.1883 157.928 77.8402C157.374 77.4209 156.894 77.0332 156.514 76.7247C156.102 76.3885 155.773 76.1235 155.532 75.9653C155.389 75.8743 155.246 75.8347 155.124 75.8347Z" fill="#FF6333"/>
<path opacity="0.5" d="M145.427 93.1759C145.379 93.1759 145.328 93.168 145.276 93.1522C143.537 92.5826 140.273 90.6997 140.135 90.6167C139.905 90.4861 139.83 90.1934 139.96 89.964C140.091 89.7346 140.384 89.6594 140.614 89.79C140.646 89.8097 143.926 91.7044 145.57 92.2424C145.819 92.3254 145.958 92.5944 145.875 92.8436C145.815 93.0493 145.629 93.1759 145.427 93.1759Z" fill="#FF862C"/>
<path d="M81.9231 193.168C76.5635 193.168 72.2061 188.817 72.2061 183.465C72.2061 178.113 76.5635 173.762 81.9231 173.762C87.2827 173.762 91.6401 178.113 91.6401 183.465C91.6401 188.813 87.2788 193.168 81.9231 193.168ZM81.9231 175.099C77.3042 175.099 73.545 178.853 73.545 183.465C73.545 188.077 77.3042 191.831 81.9231 191.831C86.542 191.831 90.3012 188.077 90.3012 183.465C90.3012 178.853 86.542 175.099 81.9231 175.099Z" fill="#576194"/>
<path d="M28.446 193.168C23.0864 193.168 18.729 188.817 18.729 183.465C18.729 178.113 23.0864 173.762 28.446 173.762C33.8057 173.762 38.1631 178.113 38.1631 183.465C38.1631 188.813 33.8057 193.168 28.446 193.168ZM28.446 175.099C23.8272 175.099 20.0679 178.853 20.0679 183.465C20.0679 188.077 23.8272 191.831 28.446 191.831C33.0649 191.831 36.8242 188.077 36.8242 183.465C36.8242 178.853 33.0649 175.099 28.446 175.099Z" fill="#576194"/>
<path d="M14.2366 170.681C14.0702 170.681 13.9038 170.621 13.7771 170.499C13.5077 170.246 13.4958 169.822 13.7533 169.553C17.3224 165.796 22.1275 163.569 27.289 163.28C27.6693 163.26 27.9743 163.541 27.9941 163.909C28.0139 164.277 27.7327 164.593 27.3643 164.613C22.5434 164.882 18.0552 166.967 14.7238 170.475C14.5931 170.614 14.4148 170.681 14.2366 170.681Z" fill="#576194"/>
<path d="M277.448 198.994C277.254 198.994 277.064 198.911 276.929 198.749C276.695 198.464 276.735 198.041 277.024 197.808C280.76 194.754 283.156 190.431 283.778 185.633C283.826 185.269 284.159 185.008 284.527 185.055C284.891 185.103 285.153 185.439 285.105 185.803C284.44 190.937 281.873 195.565 277.872 198.84C277.749 198.943 277.599 198.994 277.448 198.994Z" fill="#576194"/>
<path d="M213.985 193.168C208.625 193.168 204.268 188.817 204.268 183.465C204.268 178.113 208.625 173.762 213.985 173.762C219.344 173.762 223.702 178.113 223.702 183.465C223.702 188.813 219.344 193.168 213.985 193.168ZM213.985 175.099C209.366 175.099 205.606 178.853 205.606 183.465C205.606 188.077 209.366 191.831 213.985 191.831C218.603 191.831 222.363 188.077 222.363 183.465C222.363 178.853 218.607 175.099 213.985 175.099Z" fill="#576194"/>
<path d="M28.4457 210.758C13.373 210.758 1.11279 198.516 1.11279 183.465C1.11279 168.414 13.373 156.172 28.4457 156.172C43.5184 156.172 55.7785 168.414 55.7785 183.465C55.7785 198.516 43.5184 210.758 28.4457 210.758ZM28.4457 157.509C14.1137 157.509 2.45171 169.154 2.45171 183.465C2.45171 197.776 14.1137 209.421 28.4457 209.421C42.7776 209.421 54.4396 197.776 54.4396 183.465C54.4396 169.154 42.7776 157.509 28.4457 157.509Z" fill="#576194"/>
<path d="M263.667 210.758C248.594 210.758 236.334 198.516 236.334 183.465C236.334 168.414 248.594 156.172 263.667 156.172C278.74 156.172 291 168.414 291 183.465C291 198.516 278.74 210.758 263.667 210.758ZM263.667 157.509C249.335 157.509 237.673 169.154 237.673 183.465C237.673 197.776 249.335 209.421 263.667 209.421C277.999 209.421 289.661 197.776 289.661 183.465C289.661 169.154 277.999 157.509 263.667 157.509Z" fill="#576194"/>
<path d="M111.834 147.323C111.201 147.323 110.686 146.809 110.686 146.176V136.766H102.482C101.848 136.766 101.333 136.252 101.333 135.619C101.333 134.986 101.848 134.472 102.482 134.472H111.834C112.468 134.472 112.983 134.986 112.983 135.619V146.176C112.983 146.809 112.468 147.323 111.834 147.323Z" fill="#576194"/>
<path d="M181.969 147.323C181.335 147.323 180.82 146.809 180.82 146.176V136.766H174.97C174.336 136.766 173.821 136.252 173.821 135.619C173.821 134.986 174.336 134.472 174.97 134.472H181.969C182.603 134.472 183.118 134.986 183.118 135.619V146.176C183.118 146.809 182.603 147.323 181.969 147.323Z" fill="#576194"/>
<path d="M209.08 184.992H28.4455C27.8671 184.992 27.3403 184.668 27.0788 184.149C26.8174 183.635 26.8728 183.018 27.2175 182.551L54.8078 145.381C55.097 144.994 55.5525 144.764 56.0358 144.764H247.861C248.705 144.764 249.39 145.448 249.39 146.291C249.39 147.134 248.705 147.818 247.861 147.818H56.8083L31.4838 181.934H208.522L247.453 148.965C248.099 148.419 249.061 148.498 249.608 149.143C250.155 149.788 250.075 150.749 249.43 151.295L210.07 184.624C209.793 184.861 209.445 184.992 209.08 184.992Z" fill="#576194"/>
<path d="M263.251 184.992C262.823 184.992 262.399 184.814 262.094 184.466C258.905 180.799 253.078 173.189 249.901 163.399C245.999 151.382 244.938 132.826 244.894 132.039C244.87 131.62 245.021 131.208 245.31 130.904C245.599 130.599 245.999 130.425 246.419 130.425H258.176C261.155 130.425 263.774 131.41 265.548 133.194C266.962 134.618 267.735 136.446 267.719 138.34C267.679 143.661 264.225 146.967 258.699 146.967H253.134C252.29 146.967 251.604 146.283 251.604 145.44C251.604 144.598 252.29 143.914 253.134 143.914H258.699C263.591 143.914 264.641 140.872 264.661 138.321C264.669 137.245 264.213 136.188 263.377 135.35C262.181 134.147 260.335 133.483 258.176 133.483H248.055C248.408 138.297 249.679 152.822 252.809 162.453C255.819 171.729 261.365 178.968 264.403 182.46C264.958 183.097 264.891 184.062 264.253 184.616C263.964 184.869 263.607 184.992 263.251 184.992Z" fill="#576194"/>
<path d="M210.399 184.992C209.829 184.992 209.278 184.671 209.017 184.122L192.169 148.755L150.398 184.624C150.041 184.928 149.566 185.055 149.102 184.964C148.643 184.873 148.247 184.576 148.037 184.157L129.537 147.758C129.157 147.007 129.454 146.085 130.211 145.705C130.963 145.326 131.886 145.622 132.267 146.378L149.883 181.036L191.694 145.136C192.054 144.827 192.542 144.701 193.009 144.8C193.476 144.898 193.869 145.207 194.075 145.638L211.786 182.808C212.15 183.572 211.825 184.482 211.061 184.845C210.843 184.944 210.617 184.992 210.399 184.992Z" fill="#576194"/>
<path d="M81.9231 184.992C81.8479 184.992 81.7726 184.988 81.7013 184.976C81.2735 184.913 80.8893 184.671 80.6516 184.311L57.2721 149.135C56.8046 148.431 56.9987 147.485 57.6999 147.019C58.405 146.552 59.3517 146.746 59.8192 147.446L82.2559 181.206L124.915 145.971C125.565 145.433 126.531 145.524 127.07 146.172C127.609 146.821 127.518 147.786 126.868 148.324L82.9016 184.644C82.6203 184.869 82.2757 184.992 81.9231 184.992Z" fill="#576194"/>
<path d="M149.732 192.219C144.373 192.219 140.015 187.868 140.015 182.516C140.015 177.164 144.373 172.813 149.732 172.813C155.092 172.813 159.449 177.164 159.449 182.516C159.453 187.864 155.092 192.219 149.732 192.219ZM149.732 174.146C145.113 174.146 141.354 177.9 141.354 182.512C141.354 187.124 145.113 190.878 149.732 190.878C154.351 190.878 158.11 187.124 158.11 182.512C158.114 177.9 154.355 174.146 149.732 174.146Z" fill="#576194"/>
<path d="M118.094 131.41C118.094 131.41 116.125 133.78 118.086 141.362C120.047 148.945 140.044 192.025 140.044 192.025L152.292 187.868C152.292 187.868 141.533 150.939 140.487 145.52C139.442 140.1 138.111 134.753 138.111 134.753L118.094 131.41Z" fill="#FF6333"/>
<path d="M140.979 191.712L152.292 187.864C152.292 187.864 158.622 188.678 160.928 189.406C163.229 190.134 162.987 191.613 160.928 192.021C158.868 192.432 143.161 197.203 143.161 197.203L140.979 191.712Z" fill="#1B264C"/>
<path d="M176.023 128.72C176.023 128.72 178.919 130.71 180.119 132.43C181.324 134.151 180.357 135.536 179.814 135.619C179.296 135.702 178.333 135.013 178.333 135.013C178.333 135.013 178.218 136.236 177.822 136.833C177.41 137.454 175.996 136.43 175.996 136.43C175.996 136.43 176.503 138.518 174.97 137.909C174.003 137.525 170.711 132.794 170.711 132.794L176.023 128.72Z" fill="#FFCB57"/>
<path d="M136.577 96.4115C136.577 96.4115 144.48 93.1482 151.412 99.9992C154.268 102.823 158.733 111.399 164.794 117.091C172.423 124.255 177.097 129.333 177.097 129.333L171.056 134.582C171.056 134.582 161.121 127.557 157.006 123.562C152.89 119.567 150.03 115.125 150.03 115.125L140.531 135.033L115.056 131.121C115.056 131.121 123.687 112.831 126.322 108.005C128.956 103.179 131.78 98.1915 136.577 96.4115Z" fill="#D3D9E5"/>
<path d="M247.842 124.528C248.246 124.836 254.275 128.784 255.305 131.153C256.335 133.522 253.416 132.565 253.416 132.565C253.416 132.565 253.582 133.582 252.366 134.013C251.15 134.444 250.552 133.582 250.552 133.582C250.552 133.582 250.278 134.61 249.411 134.61C248.547 134.61 244.103 128.906 244.103 128.906L247.842 124.528Z" fill="#7F404D"/>
<path d="M102.462 126.023C102.462 126.023 107.117 128.281 109.91 130.536C112.702 132.795 112.302 135.104 111.371 135.377C110.44 135.65 107.913 133.293 106.451 132.245C104.99 131.197 105.247 131.43 105.386 132.51C105.521 133.59 106.871 135.821 105.386 135.575C104.269 135.389 100.07 129.717 100.07 129.717L102.462 126.023Z" fill="#F2643A"/>
<path d="M210.166 86.8865L196.575 88.7891C196.575 88.7891 193.798 80.7357 194.868 73.4496C195.826 66.9388 199.57 61.5751 203.4 59.0079C212.297 53.039 223.504 55.3055 228.685 58.553C233.32 61.4603 237.036 66.7133 238.394 71.456C239.721 76.0879 239.519 81.8788 239.519 81.8788L210.166 86.8865Z" fill="#1B264C"/>
<path d="M202.996 94.3309L206.553 88.5835C206.553 88.5835 201.475 87.5709 199.609 80.2966C197.748 73.0264 200.964 67.6152 205.535 65.586C210.107 63.5568 218.235 62.295 222.977 67.5757C227.719 72.8563 227.826 79.023 225.671 82.6541C223.381 86.5147 218.742 89.43 218.742 89.43L213.105 99.0696L202.996 94.3309Z" fill="#9B6565"/>
<path d="M205.056 71.7923C204.553 72.7456 204.771 73.3192 205.056 73.426C205.436 73.5723 205.987 73.0858 206.296 72.4173C206.629 71.7013 206.767 70.9538 206.407 70.8232C205.951 70.661 205.436 71.0645 205.056 71.7923Z" fill="#1B264C"/>
<path d="M213.549 71.4679C212.971 72.4923 213.22 73.1094 213.549 73.2281C213.989 73.3823 214.619 72.8602 214.975 72.1442C215.359 71.3729 215.518 70.566 215.102 70.4275C214.583 70.2495 213.989 70.6847 213.549 71.4679Z" fill="#1B264C"/>
<path d="M206.09 78.5445C205.579 78.5445 205.068 78.5049 204.719 78.3783C204.216 78.1964 203.899 77.7929 203.852 77.2708C203.796 76.717 204.07 76.1435 204.509 75.8784C204.799 75.7044 206.577 74.3674 207.698 73.513C207.908 73.3509 208.209 73.3944 208.368 73.604C208.526 73.8136 208.487 74.1143 208.277 74.2725C207.987 74.494 205.428 76.4401 205.001 76.6972C204.89 76.7645 204.783 76.9781 204.799 77.1798C204.814 77.3301 204.89 77.425 205.044 77.4804C205.563 77.6703 206.969 77.5793 207.734 77.4765C207.999 77.4448 208.237 77.6268 208.273 77.8878C208.308 78.1489 208.122 78.3902 207.861 78.4258C207.726 78.4416 206.91 78.5445 206.09 78.5445Z" fill="#1B264C"/>
<path d="M208.098 83.125C206.966 83.125 205.825 82.9193 204.811 82.4446C203.931 82.0332 203.159 81.4636 202.513 80.7556C202.335 80.5618 202.351 80.2572 202.545 80.0832C202.739 79.9052 203.04 79.921 203.218 80.1148C203.777 80.7279 204.45 81.2224 205.215 81.5823C207.71 82.7492 211.267 82.057 212.781 80.6528C212.975 80.4748 213.276 80.4827 213.458 80.6805C213.636 80.8743 213.624 81.1749 213.43 81.3568C212.297 82.4011 210.218 83.125 208.098 83.125Z" fill="#1B264C"/>
<path d="M200.037 64.9414L202.968 69.5892L204.755 67.4571L206.751 69.3004L208.914 66.1518L211.029 68.4223L213.156 65.8472L215.351 68.1454L217.343 65.3607L219.463 68.1217L224.557 62.2952L200.037 64.9414Z" fill="#1B264C"/>
<path d="M224.601 72.0415C224.601 72.0415 225.512 69.7868 227.259 69.9371C229.006 70.0874 229.81 71.7725 229.462 73.6474C229.113 75.5223 226.304 76.9701 226.304 76.9701L224.601 72.0415Z" fill="#9B6565"/>
<path opacity="0.5" d="M210.269 89.8175C208.13 89.8175 206.716 89.1767 206.629 89.1372C206.391 89.0264 206.284 88.7416 206.395 88.5043C206.506 88.2669 206.791 88.1601 207.029 88.2709C207.057 88.2828 209.81 89.5129 213.355 88.3698C213.605 88.2867 213.874 88.4252 213.957 88.6783C214.036 88.9275 213.902 89.1965 213.648 89.2796C212.408 89.6791 211.263 89.8175 210.269 89.8175Z" fill="#1B264C"/>
<path opacity="0.3" d="M213.692 74.4543C215.09 74.1023 216.29 73.683 216.773 74.66C217.257 75.6371 216.35 76.2778 215.102 76.3688C213.858 76.4558 213.018 76.6615 212.483 75.9575C211.949 75.2534 212.618 74.7273 213.692 74.4543Z" fill="#F2643A"/>
<path d="M189.061 131.442C189.061 131.442 188.486 135.722 189.758 138.764C192.523 145.385 201.697 155.654 203.25 159.071C205.361 163.715 205.536 181.373 205.536 181.373L215.768 180.146C215.768 180.146 215.93 156.168 214.076 151.75C212.222 147.331 206.597 129.428 206.597 129.428L189.061 131.442Z" fill="#576295"/>
<path d="M203.5 174.506H216.944L216.136 188.935C216.136 188.935 221.824 190.779 223.991 192.021C226.158 193.263 224.894 194.703 223.27 194.703C221.646 194.703 205.068 193.623 205.068 193.623L203.5 174.506Z" fill="#FF6333"/>
<path d="M192.614 106.534C192.614 106.534 195.878 96.1543 200.758 94.1488C204.521 92.6022 211.695 91.1189 219.277 101.249C223.971 107.523 227.12 110.458 234.476 115.552C241.832 120.643 249.549 124.314 249.549 124.314L244.471 129.863C244.471 129.863 232.733 126.513 227.239 122.728C221.741 118.942 213.066 111.957 213.066 111.957L208.237 132.122L186.065 132.225C186.058 132.221 186.735 118.645 192.614 106.534Z" fill="#FF6333"/>
<path d="M65.4248 182.314L74.0485 181.368L74.1713 184.992C74.1713 184.992 79.8597 186.835 82.0265 188.077C84.1934 189.319 82.9297 190.759 81.3056 190.759C79.6815 190.759 66.6092 189.699 66.6092 189.699L65.4248 182.314Z" fill="#00ADA8"/>
<path d="M42.4292 57.3981C42.4292 57.3981 43.8315 49.3644 45.0476 45.7253C46.2637 42.0862 46.854 43.6368 46.644 45.9508C46.4341 48.2648 46.6599 50.4917 46.6599 50.4917C46.6599 50.4917 48.0423 45.2388 49.2466 43.5735C50.4508 41.9082 50.6449 43.5023 50.4389 44.6969C50.2329 45.8915 49.4169 50.1437 49.4169 50.1437C49.4169 50.1437 51.3738 44.7008 52.4077 43.708C53.4416 42.7152 53.5366 44.4319 53.2792 45.7649C53.0217 47.0979 51.2312 52.1096 51.2312 52.1096C51.2312 52.1096 53.7228 51.3224 54.8835 51.0574C56.0441 50.7884 56.4521 51.7615 55.2915 52.6475C54.0714 53.585 51.0608 56.1442 51.0608 56.1442L47.773 59.8149L42.4292 57.3981Z" fill="#F2643A"/>
<path d="M86.2968 69.7353C86.2968 69.7353 87.5288 69.0312 88.5349 69.5969C89.5371 70.1625 90.5512 72.3697 89.2915 73.7344C88.0318 75.099 85.5283 75.5302 85.5283 75.5302" fill="#F2643A"/>
<path d="M47.9275 126.853C47.9275 126.853 47.6185 132.371 48.7554 135.468C51.556 143.11 55.7787 154.32 57.0979 159.336C58.3932 164.269 64.3787 183.469 64.3787 183.469L74.6107 182.243C74.6107 182.243 71.3862 160.606 70.3048 154.763C69.461 150.203 65.5948 126.133 65.5948 126.133L47.9275 126.853Z" fill="#1B264C"/>
<path d="M97.8198 113.887C93.1811 106.993 89.208 97.887 86.3519 95.0667C80.8615 89.6397 66.0939 87.1675 61.0947 85.7277C57.276 84.5054 52.7602 83.9596 48.9494 79.7627C47.6858 78.3664 46.6875 75.6015 46.8697 73.0977C47.2976 67.2198 50.122 57.8926 50.122 57.8926L40.7971 56.4014C40.7971 56.4014 36.3763 68.1453 36.3367 76.3293C36.309 82.1954 38.4916 84.9129 40.4287 87.5314C43.4313 91.5937 50.3834 97.3847 50.3834 97.3847C48.1334 104.489 43.5898 127.059 43.5898 127.059L78.968 130.817L82.6956 109.963C82.6956 109.963 86.8233 116.589 90.5548 120.944C95.0469 126.185 101.163 131.414 101.163 131.414L106.428 126.751C106.424 126.743 101.159 118.851 97.8198 113.887Z" fill="#00ADA8"/>
<path d="M86.8433 65.4792C86.8433 65.4792 89.129 73.3626 85.2232 80.4589C81.3173 87.5551 76.5321 87.7054 72.3411 87.3969C68.15 87.0923 59.459 82.0569 61.3604 69.2014C63.2618 56.3459 70.6456 55.5271 73.0581 55.6735C75.4705 55.8198 85.2786 57.5998 86.8433 65.4792Z" fill="#F2643A"/>
<path d="M79.21 50.8162C83.2227 50.7489 84.6765 51.4965 84.2131 53.0234C83.7456 54.5502 79.3288 55.0565 79.3288 55.0565C79.3288 55.0565 82.6959 54.388 86.5185 55.725C88.5705 56.4449 91.7435 58.7945 92.2149 59.9574C92.817 61.4526 91.7276 62.3901 90.6303 61.6939C86.7364 59.2256 86.1779 59.2612 86.1779 59.2612C86.1779 59.2612 91.5652 63.1653 93.4429 68.4895C94.5639 71.6658 91.4226 70.1666 89.6559 68.2917C87.8891 66.4168 84.7201 63.462 84.7201 63.462C84.7201 63.462 85.0608 63.6717 85.4213 66.492C85.7065 68.7308 83.9279 68.2719 83.3099 67.4096C82.688 66.5513 79.6021 62.0657 79.6021 62.0657C79.6021 62.0657 80.2201 64.8267 79.4793 66.2032C79.0634 66.9785 78.077 66.4207 77.1501 65.5782C76.4291 64.9216 75.7399 64.0949 75.3873 63.5925C74.5792 62.4494 72.6818 60.2264 72.6818 60.2264C72.6818 60.2264 73.272 63.9485 71.9846 64.7515C70.6972 65.5545 69.2592 65.1352 67.956 63.371C67.0449 62.1329 65.6663 60.6219 65.6663 60.6219C65.6663 60.6219 63.9115 66.1399 63.349 67.4373C62.4458 69.51 61.4594 75.0715 60.6593 73.5565C59.1896 70.7639 58.7341 63.7705 60.5167 60.7999C60.5167 60.7999 59.2372 62.4969 57.621 63.8022C56.1949 64.9493 55.8701 63.3987 57.6328 59.7913C58.3855 58.2486 60.8851 55.3492 62.5646 54.5502C65.9 52.964 68.9067 54.8548 68.9067 54.8548C68.9067 54.8548 72.0836 50.9348 79.21 50.8162Z" fill="#1F4847"/>
<path d="M75.5298 78.1092L76.4052 76.5981C76.4052 76.5981 79.7961 79.5767 81.9233 80.2214C81.9233 80.2214 80.0972 81.0877 75.5298 78.1092Z" fill="#1F4847"/>
<path d="M74.4446 76.0405L74.2585 77.9669C74.2585 77.9669 71.5291 79.0784 69.7465 79.0705C68.2135 79.0626 66.0942 78.315 66.0942 78.315C66.0942 78.315 69.8178 77.7177 71.2083 77.1955C72.6106 76.6655 74.4446 76.0405 74.4446 76.0405Z" fill="#1F4847"/>
<path d="M75.7196 75.728C74.9749 75.728 74.147 75.2296 73.8658 74.2605C73.5726 73.2558 73.1765 71.2781 73.1606 71.195L74.0995 71.0091C74.1034 71.0289 74.5035 73.0264 74.7848 73.9955C74.971 74.6284 75.5137 74.8262 75.8385 74.7668C76.1554 74.7075 76.504 74.4148 76.4525 73.7938C76.3851 72.9592 75.9652 70.7994 75.9613 70.7757L76.9001 70.5938C76.9199 70.6847 77.3359 72.8326 77.4072 73.7186C77.5022 74.8815 76.7535 75.5659 76.0167 75.7043C75.9177 75.7201 75.8187 75.728 75.7196 75.728Z" fill="#BD2231"/>
<path d="M74.3808 82.9509C74.3253 82.9509 74.2659 82.9509 74.2105 82.947C71.7822 82.8758 71.1523 81.6535 70.9979 81.1314C70.8552 80.6607 71.0295 80.1583 71.4376 79.8577C71.905 79.5136 72.5467 79.5175 73.0815 79.8735C73.6757 80.2691 75.0225 80.1623 75.6524 79.9131C76.306 79.656 77.015 79.8142 77.3795 80.2928C77.6964 80.7042 77.6687 81.2619 77.3082 81.7406C76.7259 82.5119 75.6682 82.9509 74.3808 82.9509ZM72.2259 80.5539C72.111 80.5539 72.0357 80.6014 72.004 80.6211C71.9644 80.6528 71.8733 80.7319 71.9089 80.8545C72.1149 81.5388 72.9626 81.9542 74.2342 81.9898C74.7294 82.0016 75.9455 81.9542 76.5357 81.163C76.6031 81.0721 76.6744 80.9455 76.611 80.8664C76.5357 80.7714 76.2901 80.6805 75.993 80.7991C75.1374 81.1354 73.4618 81.2738 72.5428 80.6646C72.4239 80.5816 72.313 80.5539 72.2259 80.5539Z" fill="#BD2231"/>
<path d="M80.3546 71.4084C80.9235 71.4084 81.3846 70.948 81.3846 70.38C81.3846 69.812 80.9235 69.3516 80.3546 69.3516C79.7858 69.3516 79.3247 69.812 79.3247 70.38C79.3247 70.948 79.7858 71.4084 80.3546 71.4084Z" fill="#1F4847"/>
<path d="M70.5231 70.5066C71.0919 70.5066 71.553 70.0461 71.553 69.4781C71.553 68.9102 71.0919 68.4497 70.5231 68.4497C69.9543 68.4497 69.4932 68.9102 69.4932 69.4781C69.4932 70.0461 69.9543 70.5066 70.5231 70.5066Z" fill="#1F4847"/>
<path d="M60.3264 68.968C60.3264 68.968 59.035 68.1808 57.8149 69.4506C56.5948 70.7203 57.7159 72.797 58.9637 73.5643C59.8827 74.126 61.8594 74.0825 61.8594 74.0825L60.3264 68.968Z" fill="#F2643A"/>
<path d="M65.2506 81.8352L64.0107 88.1008C67.3699 91.5025 70.9588 92.1671 74.6864 91.1623L76.5284 84.5091L65.2506 81.8352Z" fill="#F2643A"/>
</svg>
