<svg width="19" height="20" viewBox="0 0 19 20" fill="none" xmlns="http://www.w3.org/2000/svg">
<path d="M11.9519 11.3512C12.342 10.9556 12.9798 10.9538 13.3721 11.3472L17.2712 15.2572C18.0537 16.0419 18.0489 17.3133 17.2606 18.0922L16.7759 18.571C15.9968 19.3408 14.7434 19.3406 13.9644 18.5707L10.0504 14.7021C9.65791 14.3142 9.65384 13.6817 10.0413 13.2888L11.9519 11.3512ZM14.6734 7.85655C14.2843 8.24564 13.654 8.24728 13.2629 7.8602L13 7.6L8.20999 12.4V14.37L4.0028 18.5772C3.2184 19.3616 1.94546 19.3577 1.16583 18.5686L0.697111 18.0942C-0.0758649 17.3118 -0.0720471 16.052 0.705657 15.2743L4.88999 11.09H6.85999L7.63999 10.31L3.79999 6.46H2.49999L0.389606 4.32709C0.00261796 3.93597 0.00429118 3.3057 0.39335 2.91664L1.60288 1.70711C1.99341 1.31658 2.62657 1.31658 3.01709 1.70711L5.10999 3.8V5.11L8.99999 8.95L11.66 6.29L10.7 5.28L12 3.97H9.60951C9.43694 3.97 9.27143 3.90144 9.1494 3.77942C8.89556 3.52558 8.89525 3.11411 9.14871 2.85989L11.5338 0.4676C11.7912 0.209466 12.2091 0.209151 12.4669 0.466897C12.5905 0.590539 12.66 0.758233 12.66 0.933089V3.32L13.97 2L17.25 5.28C18.0945 6.1323 18.2847 7.39883 17.8205 8.43303C17.5928 8.94048 16.9323 8.93584 16.543 8.53861L15.28 7.25L14.6734 7.85655Z" fill="#A9AFB5"/>
</svg>
