<svg width="100%" preserveAspectRatio="xMaxYMid meet" viewBox="0 0 910 512" fill="none"
    xmlns="http://www.w3.org/2000/svg">
    <g clip-path="url(#clip0_2:2)">
        <path d="M603.028 89.1368C603.028 89.1368 566.91 18.4726 555.7 7.5033C544.49 -3.466 542.707 7.86958 547.372 15.9664C552.037 24.0633 559.517 34.8687 559.517 34.8687C559.517 34.8687 544.644 13.6627 535.169 4.24528C525.694 -5.17212 522.06 2.59699 527.737 14.2989C531.699 22.4632 542.331 41.6643 542.331 41.6643C542.331 41.6643 517.047 4.40915 508.015 0.804122C498.984 -2.8009 498.781 6.46227 503.639 13.7687C508.497 21.0752 527.486 52.1227 527.486 52.1227C527.486 52.1227 506.223 29.3359 498.106 23.9669C489.99 18.5979 487.889 27.302 494.935 36.0061C501.981 44.7102 522.474 73.3576 522.474 73.3576C522.474 73.3576 514.165 70.3984 501.037 66.4753C487.908 62.5522 482.337 70.9189 495.571 80.3074C508.806 89.6959 538.128 112.02 538.128 112.02L541.521 114.208L603.028 89.1368Z" fill="#FFC927"/>
        <g opacity="0.5">
            <g opacity="0.5">
                <path opacity="0.5" d="M558.997 89.827C558.596 89.8272 558.205 89.7025 557.879 89.4703C550.093 83.8217 540.865 80.4961 531.265 79.8794C530.754 79.8794 530.263 79.6763 529.902 79.3148C529.54 78.9533 529.337 78.4629 529.337 77.9516C529.337 77.4403 529.54 76.95 529.902 76.5884C530.263 76.2269 530.754 76.0238 531.265 76.0238C531.853 76.0238 545.917 76.1395 560.125 86.3376C560.459 86.575 560.708 86.9127 560.837 87.3015C560.966 87.6904 560.968 88.1103 560.842 88.5002C560.717 88.8902 560.47 89.23 560.138 89.4703C559.806 89.7106 559.407 89.8389 558.997 89.8366" fill="#F68627"/>
            </g>
        </g>
        <g opacity="0.5">
            <g opacity="0.5">
                <path opacity="0.5" d="M565.358 64.669C551.931 64.669 538.889 56.8324 538.282 56.4565C537.845 56.1906 537.531 55.7619 537.41 55.2648C537.289 54.7677 537.37 54.2429 537.636 53.8057C537.902 53.3685 538.331 53.0549 538.828 52.9338C539.325 52.8127 539.85 52.894 540.287 53.1599C540.441 53.2563 555.71 62.4134 569.118 60.5531C569.371 60.5183 569.628 60.5336 569.875 60.5984C570.123 60.6631 570.355 60.7759 570.558 60.9303C570.762 61.0847 570.933 61.2777 571.062 61.4982C571.191 61.7188 571.276 61.9626 571.311 62.2158C571.345 62.469 571.33 62.7265 571.265 62.9737C571.201 63.2209 571.087 63.453 570.933 63.6566C570.779 63.8603 570.586 64.0315 570.365 64.1605C570.145 64.2896 569.901 64.3739 569.648 64.4087C568.226 64.6032 566.793 64.6998 565.358 64.6979" fill="#F68627"/>
            </g>
        </g>
        <path d="M352.421 347.268V389.41C352.421 389.41 391.652 414.694 419.143 414.983C445.429 415.262 450.113 402.211 450.113 402.211L442.229 367.308L352.421 347.268Z" fill="#FFC927"/>
        <path d="M561.869 466.34C561.364 466.336 560.871 466.178 560.458 465.888C560.044 465.597 559.729 465.188 559.554 464.713C559.379 464.239 559.353 463.723 559.479 463.233C559.605 462.744 559.877 462.304 560.259 461.973C609.062 421.933 641.401 374.161 659.108 315.941C677.625 255.041 663.494 195.587 648.38 156.433C638.934 131.825 626.641 108.407 611.751 86.6557L531.969 119.197C543.453 135.146 552.971 152.422 560.317 170.651C572.482 200.648 583.769 246.482 568.443 294.494C559.999 320.953 547.237 341.504 529.472 357.341C514.397 370.768 495.446 381.111 469.845 389.883C469.227 390.074 468.558 390.017 467.981 389.724C467.404 389.431 466.964 388.925 466.755 388.312C466.545 387.7 466.583 387.03 466.859 386.445C467.135 385.86 467.629 385.406 468.235 385.179C493.191 376.629 511.611 366.594 526.166 353.63C543.266 338.4 555.546 318.563 563.758 292.981C578.612 246.433 567.614 201.853 555.816 172.656C542.948 140.847 526.301 119.882 526.137 119.641C525.894 119.341 525.725 118.989 525.641 118.613C525.558 118.237 525.563 117.846 525.657 117.472C525.75 117.099 525.929 116.751 526.18 116.459C526.431 116.166 526.746 115.935 527.101 115.785L611.694 81.2771C612.198 81.0785 612.753 81.0501 613.275 81.1962C613.797 81.3424 614.257 81.6551 614.585 82.0868C614.797 82.376 636.283 111.303 652.968 154.467C668.391 194.382 682.849 255.051 663.87 317.368C645.874 376.552 613.014 425.104 563.421 465.81C562.978 466.172 562.422 466.37 561.85 466.369" fill="#FF862C"/>
        <path d="M531.284 142.167C530.821 142.165 530.374 141.996 530.025 141.691C529.676 141.386 529.449 140.966 529.385 140.507C529.32 140.049 529.423 139.582 529.675 139.193C529.926 138.804 530.309 138.518 530.754 138.389L637.054 107.765C637.538 107.645 638.05 107.717 638.482 107.966C638.915 108.215 639.233 108.622 639.372 109.101C639.51 109.58 639.458 110.094 639.225 110.535C638.992 110.977 638.598 111.31 638.124 111.467L531.824 142.09C531.652 142.14 531.473 142.166 531.294 142.167" fill="#FF862C"/>
        <path d="M608.966 293.848C608.485 293.849 608.02 293.671 607.664 293.347C607.578 293.27 599.317 285.771 592.782 282.59C587.712 280.112 585.697 278.059 586.034 275.727C586.458 272.96 590.054 272.073 593.138 271.601C599.462 270.637 606.488 270.637 615.607 271.524C610.643 268.738 601.862 264.777 595.625 263.36C594.266 263.051 590.671 262.222 590.921 259.504C591.085 257.769 592.599 255.899 602.488 253.991C610.245 252.594 618.092 251.757 625.969 251.484C626.48 251.464 626.978 251.648 627.354 251.995C627.73 252.342 627.952 252.824 627.973 253.335C627.993 253.846 627.81 254.344 627.463 254.72C627.116 255.096 626.634 255.319 626.123 255.34C611.183 255.947 600.397 258.058 596.242 259.562H596.445C602.118 261.074 607.626 263.147 612.889 265.75C623.424 270.84 623.126 272.594 622.923 273.751C622.499 276.16 619.443 275.804 618.441 275.678C608.031 274.445 600.387 274.348 593.678 275.37C592.425 275.504 591.199 275.829 590.044 276.334C591.337 277.496 592.816 278.431 594.42 279.1C601.447 282.532 609.843 290.156 610.209 290.475C610.497 290.736 610.7 291.08 610.789 291.459C610.878 291.838 610.851 292.235 610.71 292.598C610.569 292.961 610.321 293.273 610 293.493C609.678 293.713 609.297 293.83 608.908 293.829" fill="#FF862C"/>
        <path d="M447.935 453.443C433.385 453.338 418.95 450.85 405.205 446.078C367.911 432.507 351.66 414.809 350.995 414.067C350.655 413.683 350.482 413.18 350.512 412.669C350.543 412.158 350.774 411.679 351.156 411.338C351.538 410.996 352.04 410.82 352.551 410.848C353.063 410.875 353.543 411.104 353.886 411.484C354.05 411.657 370.273 429.239 406.564 442.464C424.069 448.835 457.545 454.349 478.009 443.428C478.46 443.19 478.986 443.14 479.474 443.289C479.961 443.438 480.37 443.774 480.611 444.224C480.851 444.673 480.904 445.2 480.758 445.688C480.612 446.176 480.279 446.587 479.831 446.83C470.809 451.65 459.454 453.481 448.022 453.481" fill="#FF862C"/>
        <path d="M195.684 511.595C195.211 511.596 194.747 511.472 194.338 511.235C193.929 510.998 193.589 510.658 193.354 510.248C193.12 509.838 192.997 509.373 193 508.9C193.003 508.427 193.131 507.964 193.37 507.557C202.491 492.451 212.861 478.135 224.37 464.759C273.163 409.113 349.832 387.935 350.642 387.733C351.086 387.612 351.553 387.608 351.999 387.722C352.445 387.835 352.854 388.061 353.187 388.379C353.601 388.774 394.876 427.629 439.524 427.629C449.79 427.629 471.14 427.629 478.678 418.53C481.252 415.417 482.042 411.464 481.088 406.414C479.314 396.987 467.795 389.854 467.67 389.776C467.063 389.407 466.627 388.812 466.459 388.121C466.291 387.431 466.404 386.702 466.774 386.094C467.143 385.487 467.739 385.052 468.429 384.884C469.12 384.715 469.849 384.829 470.456 385.198C471.015 385.535 484.124 393.632 486.351 405.44C487.594 412.052 486.399 417.614 482.794 421.971C473.646 433.008 451.438 433.008 439.505 433.008C396.379 433.008 357.794 399.869 350.603 393.333C340 396.476 272.527 418.038 228.418 468.316C217.133 481.434 206.963 495.473 198.016 510.285C197.781 510.689 197.443 511.025 197.037 511.258C196.631 511.491 196.171 511.614 195.703 511.615" fill="#FF862C"/>
        <path d="M473.103 229.931C473.103 229.931 500.998 276.122 488.303 327.797C475.609 379.472 446.672 384.244 419.577 389.42C392.481 394.596 329.345 377.959 317.884 296.885C305.932 212.321 353.549 194.305 369.049 191.124C384.548 187.943 449.786 182.574 473.151 229.97" fill="#FFC927"/>
        <path d="M399.778 149.782C425.601 144.519 435.607 144.818 435.24 155.305C434.874 165.793 407.73 176.511 407.73 176.511C422.43 170.103 438.469 167.374 454.461 168.559C468.688 169.639 492.815 179.162 497.759 185.755C504.121 194.218 498.81 202.016 490.675 199.462C461.757 190.411 458.307 191.577 458.307 191.577C458.307 191.577 499.099 207.222 520.064 237.845C532.595 256.101 510.107 251.918 495.716 243.021C481.325 234.124 456.196 220.736 456.196 220.736C456.196 220.736 458.721 221.487 465.835 238.79C471.445 252.506 459.396 252.612 453.998 248.217C448.6 243.821 421.408 220.581 421.408 220.581C421.408 220.581 430.016 237.055 427.654 247.07C426.324 252.699 419.133 250.829 411.836 247.07C406.679 244.344 401.804 241.115 397.281 237.431C390.216 231.531 374.408 220.658 374.408 220.658C374.408 220.658 384.481 243.291 377.695 250.54C370.909 257.788 361.067 257.615 349.819 248.612C341.924 242.298 330.617 235.05 330.617 235.05C330.617 235.05 342.763 303.613 341.394 312.799C339.196 327.508 328.767 323.652 321.152 315.401C307.079 300.181 290.22 274.387 287.415 244.351C285.931 228.697 289.198 207.125 298.49 199.202C316.949 183.452 339.938 190.363 339.938 190.363C339.938 190.363 347.014 160.549 399.865 149.773" fill="#1F4847"/>
        <path d="M438.007 311.314C436.267 311.3 434.55 310.916 432.97 310.188C431.389 309.461 429.982 308.405 428.84 307.092C424.242 301.984 418.131 293.26 417.88 292.884C417.598 292.434 417.5 291.892 417.606 291.372C417.713 290.851 418.015 290.391 418.45 290.087C418.886 289.782 419.421 289.657 419.947 289.736C420.472 289.815 420.947 290.094 421.273 290.513C421.331 290.6 427.5 299.4 431.924 304.326C435.269 308.047 439.693 307.565 441.766 306.032C443.838 304.499 445.188 301.01 442.923 297.125C440.098 292.306 433.283 282.522 433.235 282.426C433.08 282.202 432.969 281.951 432.911 281.685C432.853 281.419 432.847 281.144 432.895 280.876C432.943 280.608 433.043 280.351 433.19 280.122C433.337 279.893 433.528 279.695 433.751 279.539C433.974 279.383 434.226 279.273 434.492 279.215C434.758 279.156 435.033 279.151 435.301 279.199C435.569 279.247 435.825 279.347 436.055 279.494C436.284 279.641 436.482 279.831 436.638 280.055C436.917 280.459 443.597 290.06 446.508 295.034C450.056 301.097 447.819 306.716 444.243 309.367C442.425 310.654 440.244 311.329 438.016 311.295" fill="#BD2231"/>
        <path d="M450.152 272.989C450.358 273.821 450.73 274.604 451.246 275.289C451.761 275.975 452.409 276.55 453.151 276.98C453.893 277.41 454.714 277.686 455.565 277.792C456.416 277.898 457.279 277.831 458.104 277.597C459.772 277.04 461.157 275.854 461.964 274.291C462.771 272.728 462.935 270.912 462.423 269.23C462.216 268.396 461.844 267.613 461.328 266.927C460.812 266.241 460.163 265.665 459.42 265.235C458.677 264.805 457.855 264.529 457.003 264.424C456.151 264.319 455.286 264.386 454.461 264.622C452.792 265.179 451.408 266.365 450.601 267.928C449.794 269.491 449.63 271.307 450.142 272.989" fill="#1F4847"/>
        <path d="M386.187 283.65C386.495 284.948 387.18 286.125 388.157 287.034C389.134 287.942 390.358 288.541 391.675 288.754C392.992 288.967 394.342 288.784 395.555 288.23C396.769 287.676 397.79 286.775 398.492 285.64C399.193 284.505 399.542 283.188 399.495 281.855C399.448 280.522 399.007 279.233 398.228 278.15C397.449 277.068 396.366 276.241 395.116 275.773C393.867 275.306 392.507 275.219 391.209 275.524C390.345 275.727 389.53 276.098 388.81 276.617C388.09 277.135 387.479 277.791 387.012 278.545C386.546 279.3 386.233 280.14 386.091 281.016C385.95 281.891 385.982 282.787 386.187 283.65" fill="#1F4847"/>
        <path d="M476.862 257.875C476.862 257.875 483.253 252.978 490.8 253.19C498.058 253.393 505.567 265.056 499.822 277.288C494.636 288.315 481.816 295.978 481.816 295.978" fill="#FFC927"/>
        <path d="M305.893 295.101C305.893 295.101 295.705 292.21 291.839 301.733C287.02 313.743 297.497 325.696 307.821 328.722C315.397 330.978 329.345 326.891 329.345 326.891L305.893 295.101Z" fill="#FFC927"/>
        <g opacity="0.5">
            <g opacity="0.5">
                <path opacity="0.5" d="M401.108 295.892C394.804 295.641 382.071 296.152 377.628 301.193C373.184 306.234 377.627 311.035 385.551 311.083C393.474 311.131 405.243 309.994 408.684 305.164C412.126 300.335 406.188 296.094 401.07 295.882" fill="#F68627"/>
                <path opacity="0.5" d="M385.879 311.603H385.464C380.644 311.603 376.933 309.849 375.709 307.112C374.842 305.184 375.372 302.976 377.184 300.914C382.399 295.005 397.985 295.333 401.05 295.448C404.704 295.593 408.415 297.646 409.668 300.268C410.079 301.113 410.238 302.06 410.126 302.993C410.013 303.927 409.633 304.808 409.032 305.531C404.983 311.141 390.795 311.652 385.898 311.652L385.879 311.603ZM398.274 296.316C390.457 296.316 381.3 297.646 377.888 301.511C376.307 303.294 375.854 305.087 376.567 306.678C377.618 309.039 381.107 310.533 385.455 310.601C394.409 310.601 405.137 309.184 408.232 304.885C408.727 304.301 409.042 303.586 409.14 302.826C409.238 302.067 409.113 301.295 408.781 300.605C407.672 298.321 404.318 296.499 400.992 296.364C400.115 296.364 399.21 296.306 398.284 296.306" fill="#FF862C"/>
            </g>
        </g>
        <g opacity="0.5">
            <g opacity="0.5">
                <path opacity="0.5" d="M471.184 276.999C466.211 278.079 456.475 281.231 454.538 286.956C452.6 292.682 457.506 296.325 463.676 294.667C469.845 293.01 476.717 289.511 477.96 284.19C479.204 278.869 475.213 276.074 471.213 276.951" fill="#F68627"/>
                <path opacity="0.5" d="M460.774 295.525C459.736 295.571 458.7 295.402 457.73 295.031C456.761 294.66 455.877 294.093 455.135 293.366C453.583 291.699 453.207 289.376 454.065 286.821C456.34 280.074 468.591 277.105 471.03 276.575C472.07 276.314 473.16 276.322 474.197 276.596C475.233 276.871 476.183 277.404 476.958 278.146C477.701 278.971 478.218 279.975 478.458 281.06C478.698 282.144 478.652 283.273 478.327 284.334C476.707 291.236 466.76 294.34 463.723 295.13C462.761 295.387 461.77 295.52 460.774 295.525V295.525ZM471.213 277.423C464.716 278.83 456.533 282.243 454.884 287.062C454.486 287.996 454.357 289.023 454.512 290.026C454.667 291.03 455.1 291.97 455.762 292.74C457.4 294.494 460.369 295.082 463.473 294.263C469.449 292.701 476.254 289.212 477.45 284.103C477.741 283.183 477.79 282.203 477.59 281.259C477.391 280.315 476.951 279.438 476.312 278.715C475.638 278.077 474.813 277.621 473.915 277.388C473.016 277.156 472.073 277.154 471.174 277.385" fill="#FF862C"/>
            </g>
        </g>
        <path d="M317.624 288.527C317.44 288.528 317.259 288.475 317.103 288.376C316.948 288.277 316.824 288.136 316.747 287.968C316.583 287.621 312.756 279.235 311.339 265.461C309.922 251.687 313.344 242.587 313.489 242.212C313.58 241.972 313.761 241.779 313.995 241.674C314.228 241.57 314.493 241.562 314.732 241.652C314.971 241.743 315.164 241.925 315.269 242.158C315.374 242.392 315.382 242.657 315.291 242.896C315.291 242.983 311.898 252.053 313.257 265.268C314.636 278.705 318.453 287.082 318.491 287.168C318.56 287.315 318.589 287.477 318.578 287.639C318.567 287.8 318.516 287.957 318.428 288.093C318.341 288.23 318.22 288.342 318.078 288.419C317.936 288.497 317.776 288.537 317.614 288.537" fill="#00ADA8"/>
        <path d="M302.895 256.776C302.64 256.776 302.395 256.675 302.214 256.494C302.033 256.313 301.931 256.068 301.931 255.812C301.931 255.205 301.584 240.833 308.062 227.3C308.182 227.088 308.379 226.93 308.611 226.857C308.844 226.784 309.095 226.802 309.315 226.907C309.535 227.012 309.707 227.196 309.797 227.423C309.886 227.65 309.886 227.902 309.797 228.129C303.532 241.238 303.85 255.619 303.859 255.764C303.859 256.02 303.758 256.265 303.577 256.446C303.396 256.626 303.151 256.728 302.895 256.728" fill="#00ADA8"/>
        <path d="M403.422 187.047C403.166 187.075 402.91 187 402.709 186.84C402.508 186.679 402.38 186.445 402.352 186.189C402.323 185.933 402.398 185.677 402.559 185.476C402.72 185.276 402.954 185.147 403.209 185.119C403.412 185.119 423.201 180.714 440.706 182.362C440.961 182.387 441.197 182.511 441.36 182.709C441.524 182.907 441.602 183.162 441.578 183.418C441.554 183.673 441.429 183.909 441.231 184.073C441.033 184.236 440.778 184.314 440.522 184.29C423.317 182.671 403.826 186.96 403.634 187.008H403.422" fill="#00ADA8"/>
        <path d="M443.838 194.132C443.755 194.143 443.671 194.143 443.588 194.132C437.245 192.426 422.825 194.132 422.68 194.132C422.553 194.148 422.424 194.139 422.301 194.105C422.177 194.071 422.062 194.013 421.961 193.934C421.86 193.855 421.775 193.757 421.712 193.646C421.65 193.534 421.609 193.411 421.594 193.284C421.579 193.157 421.589 193.028 421.624 192.905C421.658 192.782 421.717 192.667 421.797 192.566C421.876 192.466 421.975 192.382 422.087 192.32C422.199 192.258 422.322 192.218 422.449 192.204C423.056 192.127 437.39 190.43 444.089 192.204C444.345 192.237 444.577 192.371 444.734 192.575C444.891 192.779 444.961 193.037 444.928 193.293C444.894 193.549 444.761 193.781 444.557 193.938C444.352 194.095 444.094 194.165 443.838 194.132Z" fill="#00ADA8"/>
        <g opacity="0.5">
            <g opacity="0.5">
                <path opacity="0.5" d="M401.398 388.716H401.138C380.067 385.931 364.056 373.592 363.381 373.072C363.001 372.75 362.761 372.294 362.71 371.798C362.659 371.303 362.802 370.807 363.108 370.415C363.415 370.023 363.861 369.764 364.354 369.693C364.847 369.623 365.348 369.745 365.753 370.036C365.907 370.161 381.638 382.258 401.639 384.899C402.15 384.932 402.627 385.167 402.965 385.552C403.303 385.937 403.474 386.441 403.441 386.952C403.408 387.464 403.173 387.941 402.788 388.279C402.403 388.617 401.899 388.788 401.388 388.755" fill="#FF862C"/>
            </g>
        </g>
        <path d="M458.654 165.012C458.436 165.012 458.222 164.952 458.036 164.84C457.849 164.728 457.696 164.568 457.593 164.376L432.156 116.633C432.005 116.351 431.972 116.02 432.066 115.714C432.159 115.407 432.37 115.15 432.652 115C432.935 114.849 433.265 114.816 433.572 114.909C433.878 115.002 434.135 115.213 434.286 115.496L459.724 163.238C459.822 163.422 459.871 163.628 459.866 163.836C459.861 164.044 459.802 164.247 459.695 164.425C459.589 164.604 459.438 164.752 459.257 164.855C459.076 164.957 458.871 165.012 458.663 165.012" fill="#1F4847"/>
        <path d="M447.116 140.509C446.848 140.509 446.588 140.419 446.377 140.253C446.166 140.088 446.016 139.858 445.951 139.598C445.885 139.338 445.909 139.064 446.017 138.819C446.125 138.574 446.311 138.371 446.547 138.244L454.74 133.878C455.023 133.727 455.353 133.694 455.66 133.788C455.966 133.881 456.223 134.092 456.374 134.374C456.525 134.657 456.557 134.987 456.464 135.294C456.371 135.6 456.16 135.857 455.878 136.008L447.684 140.374C447.51 140.469 447.314 140.519 447.116 140.519" fill="#1F4847"/>
        <path d="M468.919 161.686C468.695 161.687 468.476 161.625 468.285 161.507C468.094 161.39 467.94 161.222 467.84 161.021L442.778 110.898C442.696 110.756 442.643 110.598 442.624 110.435C442.604 110.272 442.619 110.107 442.666 109.949C442.712 109.792 442.791 109.645 442.897 109.519C443.002 109.393 443.133 109.29 443.279 109.217C443.426 109.143 443.587 109.1 443.751 109.091C443.915 109.081 444.079 109.105 444.233 109.162C444.388 109.218 444.529 109.305 444.648 109.418C444.768 109.531 444.863 109.667 444.928 109.818L469.989 159.942C470.081 160.126 470.125 160.33 470.116 160.536C470.106 160.741 470.045 160.941 469.937 161.116C469.828 161.291 469.677 161.435 469.497 161.535C469.318 161.635 469.115 161.687 468.91 161.686" fill="#1F4847"/>
        <path d="M481.99 155.103C481.755 155.104 481.524 155.036 481.327 154.907C481.13 154.779 480.975 154.596 480.881 154.38L459.097 104.122C458.977 103.844 458.966 103.531 459.066 103.245C459.166 102.959 459.369 102.722 459.637 102.58L471.156 96.4394C471.295 96.3647 471.449 96.3183 471.606 96.3029C471.764 96.2874 471.924 96.3032 472.075 96.3492C472.227 96.3953 472.368 96.4709 472.491 96.5715C472.613 96.6722 472.715 96.796 472.789 96.9358C472.864 97.0757 472.91 97.2289 472.926 97.3867C472.941 97.5445 472.926 97.7038 472.88 97.8556C472.833 98.0073 472.758 98.1484 472.657 98.2709C472.557 98.3935 472.433 98.495 472.293 98.5697L461.757 104.18L482.607 152.269L494.232 146.698C494.516 146.581 494.834 146.577 495.121 146.688C495.408 146.798 495.642 147.014 495.775 147.291C495.908 147.568 495.93 147.886 495.837 148.179C495.743 148.471 495.542 148.718 495.273 148.866L482.51 154.978C482.348 155.055 482.17 155.094 481.99 155.093" fill="#1F4847"/>
        <path d="M473.189 129.203C472.908 129.2 472.636 129.1 472.421 128.918C472.206 128.737 472.062 128.486 472.013 128.209C471.963 127.932 472.013 127.646 472.152 127.402C472.291 127.157 472.512 126.969 472.775 126.87L480.023 124.2C480.324 124.09 480.656 124.104 480.946 124.239C481.236 124.373 481.461 124.618 481.571 124.918C481.68 125.219 481.667 125.55 481.532 125.84C481.397 126.131 481.153 126.355 480.852 126.465L473.604 129.135C473.471 129.185 473.331 129.211 473.189 129.212" fill="#1F4847"/>
        <path d="M495.803 113.828C495.631 113.828 495.461 113.791 495.305 113.719C495.149 113.648 495.009 113.544 494.897 113.414L479.185 95.3695C479.069 95.2526 478.978 95.1131 478.918 94.9596C478.858 94.8062 478.83 94.6421 478.836 94.4774C478.842 94.3127 478.881 94.151 478.952 94.0023C479.023 93.8535 479.124 93.7209 479.248 93.6126C479.372 93.5042 479.517 93.4225 479.674 93.3725C479.831 93.3225 479.997 93.3052 480.161 93.3217C480.325 93.3382 480.483 93.3882 480.627 93.4685C480.771 93.5488 480.897 93.6578 480.997 93.7887L496.709 111.833C496.86 112.007 496.958 112.221 496.992 112.45C497.025 112.678 496.992 112.911 496.896 113.122C496.801 113.332 496.647 113.51 496.453 113.636C496.259 113.761 496.034 113.828 495.803 113.828" fill="#1F4847"/>
        <path d="M508.121 143.064C507.881 143.064 507.647 142.993 507.447 142.859C507.248 142.725 507.094 142.534 507.003 142.312L495.301 113.491C495.272 113.419 495.249 113.345 495.234 113.269L490.337 88.7089C490.3 88.5515 490.295 88.3882 490.322 88.2288C490.35 88.0694 490.409 87.9171 490.496 87.7811C490.583 87.645 490.697 87.5279 490.831 87.4367C490.965 87.3456 491.115 87.2823 491.274 87.2506C491.432 87.2189 491.596 87.2194 491.754 87.2521C491.912 87.2849 492.063 87.3492 492.195 87.4412C492.328 87.5332 492.442 87.651 492.528 87.7877C492.615 87.9243 492.673 88.077 492.699 88.2366L497.567 112.681L509.23 141.396C509.29 141.543 509.32 141.7 509.319 141.859C509.318 142.017 509.285 142.174 509.223 142.32C509.162 142.466 509.072 142.598 508.959 142.709C508.846 142.82 508.712 142.908 508.565 142.967C508.421 143.025 508.267 143.054 508.112 143.054" fill="#1F4847"/>
        <path d="M682.792 334.805C682.577 334.804 682.366 334.747 682.181 334.638C681.996 334.529 681.844 334.372 681.74 334.185C681.635 333.997 681.583 333.785 681.589 333.57C681.594 333.355 681.656 333.146 681.77 332.964C692.19 316.346 692.305 292.084 692.305 291.843C692.305 291.524 692.432 291.217 692.658 290.991C692.884 290.765 693.191 290.638 693.51 290.638C693.83 290.638 694.136 290.765 694.362 290.991C694.588 291.217 694.715 291.524 694.715 291.843C694.715 292.865 694.59 317.049 683.804 334.255C683.696 334.429 683.545 334.572 683.366 334.672C683.188 334.771 682.987 334.824 682.782 334.824" fill="#1F4847"/>
        <path d="M700.595 313.926C700.505 313.937 700.415 313.937 700.325 313.926C700.171 313.891 700.025 313.826 699.895 313.734C699.766 313.642 699.656 313.526 699.572 313.392C699.488 313.257 699.431 313.108 699.405 312.951C699.379 312.795 699.383 312.635 699.419 312.481C702.754 297.848 704.239 275.476 704.239 275.254C704.246 275.095 704.285 274.939 704.354 274.795C704.423 274.652 704.52 274.523 704.64 274.418C704.76 274.313 704.899 274.233 705.051 274.183C705.202 274.132 705.362 274.113 705.521 274.127C705.679 274.136 705.834 274.177 705.976 274.247C706.119 274.317 706.246 274.414 706.351 274.533C706.456 274.652 706.536 274.791 706.587 274.941C706.638 275.091 706.659 275.25 706.648 275.409C706.648 275.63 705.125 298.195 701.742 313.001C701.687 313.272 701.54 313.516 701.325 313.692C701.111 313.867 700.843 313.964 700.566 313.965" fill="#1F4847"/>
        <path d="M377.357 284.286C377.08 284.287 376.808 284.208 376.575 284.059C376.341 283.91 376.155 283.696 376.039 283.444C375.924 283.192 375.883 282.912 375.922 282.638C375.96 282.363 376.077 282.106 376.259 281.896C376.374 281.77 387.488 269.124 401.764 274.397C402.085 274.551 402.337 274.82 402.473 275.149C402.608 275.479 402.617 275.848 402.498 276.183C402.378 276.519 402.139 276.799 401.825 276.969C401.512 277.14 401.147 277.188 400.8 277.105C388.423 272.527 378.89 283.313 378.485 283.775C378.35 283.932 378.183 284.058 377.995 284.144C377.807 284.231 377.603 284.276 377.396 284.277" fill="#1F4847"/>
        <path d="M443.752 272.324C443.486 272.324 443.226 272.25 443 272.112C442.773 271.974 442.589 271.776 442.468 271.54C442.346 271.304 442.292 271.039 442.311 270.775C442.33 270.51 442.422 270.256 442.576 270.04C445.25 266.741 448.857 264.325 452.926 263.109C456.995 261.894 461.336 261.934 465.382 263.225C465.571 263.271 465.75 263.355 465.906 263.471C466.063 263.588 466.194 263.735 466.292 263.904C466.39 264.072 466.453 264.259 466.476 264.453C466.5 264.646 466.485 264.843 466.431 265.03C466.377 265.218 466.285 265.393 466.162 265.544C466.039 265.695 465.886 265.82 465.713 265.91C465.541 266.001 465.351 266.056 465.157 266.071C464.962 266.087 464.767 266.063 464.582 266.001C451.906 262.348 445.207 271.341 444.928 271.726C444.793 271.912 444.616 272.063 444.412 272.167C444.207 272.271 443.981 272.325 443.752 272.324" fill="#1F4847"/>
        <path d="M432.146 345.726C411.904 345.726 401.301 329.137 401.233 328.944C400.943 328.478 400.85 327.915 400.974 327.38C401.099 326.845 401.43 326.381 401.896 326.09C402.362 325.799 402.924 325.704 403.46 325.827C403.995 325.951 404.46 326.281 404.752 326.746C405.234 327.527 416.945 345.697 439.761 340.733C461.131 336.077 461.362 314.929 461.362 314.707C461.362 314.158 461.581 313.63 461.969 313.242C462.358 312.853 462.885 312.635 463.435 312.635C463.984 312.635 464.511 312.853 464.9 313.242C465.289 313.63 465.507 314.158 465.507 314.707C465.507 314.948 465.237 339.422 440.648 344.781C437.86 345.406 435.013 345.729 432.156 345.745" fill="#BD2231"/>
    </g>
    <defs>
        <clipPath id="clip0_2:2">
            <rect width="909.58" height="511.62" fill="white"/>
        </clipPath>
    </defs>
</svg>
