<svg width="100%" preserveAspectRatio="xMaxYMid meet" viewBox="0 0 910 512" fill="none"
    xmlns="http://www.w3.org/2000/svg">
    <path d="M603.033 89.1466C603.033 89.1466 566.916 18.4832 555.706 7.51332C544.496 -3.45658 542.713 7.8796 547.378 15.9763C552.043 24.0732 559.523 34.8782 559.523 34.8782C559.523 34.8782 544.65 13.6724 535.175 4.25545C525.7 -5.16186 522.066 2.60717 527.743 14.3094C531.705 22.4736 542.337 41.6741 542.337 41.6741C542.337 41.6741 517.053 4.41945 508.021 0.814484C498.99 -2.79048 498.787 6.47253 503.645 13.7794C508.503 21.0858 527.492 52.133 527.492 52.133C527.492 52.133 506.229 29.3462 498.112 23.9773C489.996 18.6083 487.895 27.3123 494.941 36.0162C501.987 44.72 522.48 73.3678 522.48 73.3678C522.48 73.3678 514.171 70.4086 501.043 66.4856C487.914 62.5625 482.343 70.9291 495.577 80.3174C508.812 89.7059 538.134 112.03 538.134 112.03L541.527 114.218L603.033 89.1466Z" fill="#FFC927"/>
    <g opacity="0.5">
        <g opacity="0.5">
            <path opacity="0.5" d="M559.003 89.8366C558.602 89.8368 558.211 89.7121 557.885 89.4799C550.1 83.8313 540.872 80.5058 531.272 79.8891C530.761 79.8891 530.27 79.686 529.909 79.3245C529.547 78.963 529.344 78.4726 529.344 77.9613C529.344 77.45 529.547 76.9597 529.909 76.5981C530.27 76.2366 530.761 76.0335 531.272 76.0335C531.86 76.0335 545.924 76.1492 560.131 86.3474C560.465 86.5848 560.714 86.9225 560.843 87.3113C560.972 87.7002 560.974 88.1201 560.848 88.51C560.723 88.9 560.476 89.2398 560.144 89.4801C559.812 89.7204 559.413 89.8487 559.003 89.8464" fill="#F68627"/>
        </g>
    </g>
    <g opacity="0.5">
        <g opacity="0.5">
            <path opacity="0.5" d="M565.363 64.6788C551.937 64.6788 538.895 56.8423 538.288 56.4664C537.851 56.2005 537.537 55.7718 537.416 55.2747C537.295 54.7776 537.376 54.2528 537.642 53.8156C537.908 53.3784 538.337 53.0648 538.834 52.9437C539.331 52.8226 539.856 52.9039 540.293 53.1698C540.447 53.2662 555.716 62.4232 569.123 60.5629C569.376 60.5281 569.633 60.5434 569.88 60.6082C570.128 60.6729 570.36 60.7857 570.563 60.9401C570.767 61.0945 570.938 61.2875 571.067 61.508C571.196 61.7286 571.281 61.9724 571.316 62.2256C571.35 62.4788 571.335 62.7363 571.27 62.9835C571.206 63.2307 571.092 63.4628 570.938 63.6664C570.784 63.8701 570.591 64.0413 570.37 64.1703C570.15 64.2994 569.906 64.3837 569.653 64.4185C568.231 64.613 566.798 64.7096 565.363 64.7077" fill="#F68627"/>
        </g>
    </g>
    <path d="M352.426 347.277V389.419C352.426 389.419 391.656 414.702 419.147 414.991C445.433 415.27 450.117 402.22 450.117 402.22L442.233 367.317L352.426 347.277Z" fill="#FFC927"/>
    <path d="M561.874 466.346C561.369 466.342 560.876 466.184 560.463 465.894C560.049 465.603 559.734 465.194 559.559 464.719C559.384 464.245 559.358 463.729 559.484 463.239C559.61 462.75 559.882 462.31 560.264 461.979C609.066 421.94 641.405 374.168 659.112 315.951C677.629 255.051 663.498 195.602 648.384 156.442C638.938 131.834 626.645 108.416 611.755 86.6656L531.974 119.206C543.458 135.155 552.976 152.431 560.322 170.66C572.487 200.657 583.773 246.49 568.448 294.499C560.004 320.957 547.242 341.508 529.477 357.345C514.402 370.772 495.451 381.115 469.851 389.887C469.233 390.078 468.564 390.021 467.987 389.728C467.41 389.435 466.97 388.929 466.761 388.316C466.551 387.704 466.589 387.034 466.865 386.449C467.141 385.864 467.635 385.41 468.241 385.183C493.196 376.633 511.616 366.598 526.171 353.634C543.271 338.404 555.551 318.567 563.763 292.986C578.617 246.438 567.619 201.859 555.821 172.667C542.953 140.858 526.306 119.893 526.142 119.652C525.899 119.352 525.73 119 525.646 118.624C525.563 118.248 525.568 117.857 525.662 117.483C525.755 117.11 525.934 116.762 526.185 116.47C526.436 116.177 526.751 115.946 527.106 115.796L611.698 81.2887C612.202 81.0901 612.757 81.0617 613.279 81.2078C613.801 81.354 614.261 81.6667 614.589 82.0984C614.801 82.3876 636.287 111.314 652.972 154.478C668.395 194.392 682.853 255.057 663.874 317.376C645.878 376.56 613.018 425.115 563.425 465.815C562.982 466.177 562.426 466.375 561.854 466.374" fill="#FF862C"/>
    <path d="M531.284 142.179C530.821 142.177 530.374 142.008 530.025 141.703C529.676 141.398 529.449 140.978 529.385 140.519C529.32 140.061 529.423 139.594 529.675 139.205C529.926 138.816 530.309 138.53 530.754 138.401L637.053 107.778C637.537 107.658 638.049 107.73 638.481 107.979C638.914 108.228 639.232 108.635 639.371 109.114C639.509 109.593 639.457 110.107 639.224 110.548C638.991 110.99 638.597 111.323 638.123 111.48L531.824 142.102C531.652 142.152 531.473 142.178 531.294 142.179" fill="#FF862C"/>
    <path d="M608.973 293.858C608.492 293.859 608.027 293.681 607.671 293.357C607.585 293.28 599.324 285.781 592.789 282.6C587.719 280.122 585.704 278.069 586.041 275.737C586.465 272.97 590.061 272.083 593.145 271.611C599.469 270.647 606.495 270.647 615.614 271.534C610.65 268.748 601.869 264.787 595.632 263.37C594.273 263.061 590.678 262.232 590.928 259.514C591.092 257.779 592.606 255.909 602.495 254.001C610.252 252.604 618.099 251.767 625.976 251.494C626.487 251.474 626.985 251.658 627.361 252.005C627.737 252.352 627.959 252.834 627.98 253.345C628 253.856 627.817 254.354 627.47 254.73C627.123 255.106 626.641 255.329 626.13 255.35C611.19 255.957 600.404 258.068 596.249 259.572H596.452C602.125 261.084 607.633 263.157 612.896 265.76C623.431 270.85 623.133 272.604 622.93 273.761C622.506 276.17 619.45 275.814 618.448 275.688C608.038 274.455 600.394 274.358 593.685 275.38C592.432 275.514 591.206 275.839 590.051 276.344C591.344 277.506 592.823 278.441 594.427 279.11C601.454 282.542 609.85 290.166 610.216 290.485C610.504 290.746 610.707 291.09 610.796 291.469C610.885 291.848 610.858 292.245 610.717 292.608C610.576 292.971 610.328 293.283 610.007 293.503C609.685 293.723 609.304 293.84 608.915 293.839" fill="#FF862C"/>
    <path d="M447.945 453.446C433.395 453.341 418.96 450.853 405.215 446.081C367.921 432.51 351.671 414.813 351.006 414.071C350.666 413.687 350.493 413.184 350.523 412.673C350.554 412.162 350.785 411.683 351.167 411.342C351.549 411 352.051 410.824 352.562 410.852C353.074 410.879 353.554 411.108 353.897 411.488C354.061 411.661 370.283 429.242 406.574 442.467C424.079 448.838 457.555 454.352 478.018 443.431C478.469 443.193 478.995 443.143 479.483 443.292C479.97 443.441 480.379 443.777 480.62 444.227C480.86 444.676 480.913 445.203 480.767 445.691C480.621 446.179 480.288 446.59 479.84 446.833C470.819 451.653 459.464 453.484 448.032 453.484" fill="#FF862C"/>
    <path d="M195.687 511.606C195.214 511.607 194.75 511.483 194.341 511.246C193.932 511.009 193.592 510.669 193.357 510.259C193.123 509.849 193 509.384 193.003 508.911C193.006 508.438 193.134 507.975 193.373 507.568C202.494 492.462 212.864 478.146 224.373 464.77C273.165 409.125 349.832 387.947 350.642 387.745C351.086 387.624 351.553 387.62 351.999 387.734C352.445 387.847 352.854 388.073 353.187 388.391C353.601 388.786 394.875 427.641 439.523 427.641C449.789 427.641 471.138 427.641 478.676 418.542C481.25 415.429 482.04 411.476 481.086 406.426C479.312 396.999 467.793 389.866 467.668 389.788C467.061 389.419 466.625 388.824 466.457 388.133C466.289 387.443 466.403 386.714 466.772 386.106C467.141 385.499 467.737 385.064 468.427 384.896C469.118 384.727 469.847 384.841 470.454 385.21C471.013 385.547 484.122 393.644 486.349 405.452C487.592 412.064 486.397 417.626 482.792 421.983C473.644 433.019 451.437 433.019 439.504 433.019C396.378 433.019 357.793 399.881 350.603 393.345C340 396.488 272.527 418.05 228.424 468.327C217.139 481.445 206.969 495.484 198.022 510.296C197.787 510.7 197.449 511.036 197.043 511.269C196.637 511.502 196.177 511.625 195.709 511.626" fill="#FF862C"/>
    <path d="M473.105 229.938C473.105 229.938 500.999 276.129 488.304 327.803C475.611 379.478 446.674 384.25 419.579 389.426C392.483 394.602 329.348 377.965 317.89 296.892C305.938 212.329 353.555 194.313 369.054 191.133C384.553 187.952 449.791 182.583 473.154 229.978" fill="#FFC927"/>
    <path d="M399.785 149.789C425.608 144.526 435.614 144.825 435.247 155.312C434.881 165.8 407.737 176.518 407.737 176.518C422.437 170.11 438.476 167.381 454.468 168.566C468.695 169.646 492.821 179.169 497.765 185.762C504.127 194.225 498.816 202.023 490.681 199.469C461.764 190.418 458.314 191.584 458.314 191.584C458.314 191.584 499.105 207.228 520.07 237.851C532.601 256.107 510.113 251.924 495.722 243.027C481.332 234.13 456.203 220.742 456.203 220.742C456.203 220.742 458.728 221.493 465.842 238.796C471.452 252.512 459.403 252.618 454.005 248.223C448.607 243.827 421.415 220.587 421.415 220.587C421.415 220.587 430.023 237.061 427.661 247.076C426.331 252.705 419.14 250.835 411.843 247.076C406.686 244.35 401.811 241.121 397.288 237.437C390.223 231.537 374.415 220.664 374.415 220.664C374.415 220.664 384.488 243.297 377.702 250.546C370.917 257.794 361.075 257.621 349.827 248.618C341.932 242.304 330.625 235.056 330.625 235.056C330.625 235.056 342.771 303.619 341.402 312.804C339.204 327.513 328.775 323.657 321.16 315.406C307.087 300.187 290.228 274.393 287.423 244.357C285.939 228.703 289.206 207.131 298.498 199.209C316.957 183.459 339.946 190.37 339.946 190.37C339.946 190.37 347.022 160.556 399.872 149.78" fill="#1F4847"/>
    <path d="M438.015 311.318C436.275 311.304 434.558 310.92 432.978 310.192C431.397 309.465 429.99 308.409 428.848 307.096C424.25 301.988 418.139 293.264 417.888 292.888C417.606 292.438 417.508 291.896 417.614 291.376C417.721 290.855 418.023 290.395 418.458 290.091C418.894 289.786 419.429 289.661 419.955 289.74C420.48 289.819 420.955 290.098 421.281 290.517C421.339 290.604 427.508 299.404 431.932 304.33C435.277 308.051 439.701 307.569 441.774 306.036C443.846 304.503 445.196 301.014 442.931 297.129C440.106 292.31 433.291 282.526 433.243 282.43C433.088 282.206 432.977 281.955 432.919 281.689C432.861 281.423 432.855 281.148 432.903 280.88C432.951 280.612 433.051 280.355 433.198 280.126C433.345 279.897 433.536 279.699 433.759 279.543C433.982 279.387 434.234 279.277 434.5 279.219C434.766 279.16 435.041 279.155 435.309 279.203C435.577 279.251 435.833 279.351 436.063 279.498C436.292 279.645 436.49 279.835 436.646 280.059C436.925 280.463 443.605 290.064 446.516 295.038C450.064 301.101 447.827 306.72 444.251 309.371C442.433 310.658 440.252 311.333 438.024 311.299" fill="#BD2231"/>
    <path d="M450.155 272.998C450.361 273.83 450.733 274.613 451.249 275.298C451.764 275.984 452.412 276.559 453.154 276.989C453.896 277.419 454.717 277.695 455.568 277.801C456.419 277.907 457.282 277.84 458.107 277.606C459.775 277.049 461.16 275.863 461.967 274.3C462.774 272.737 462.938 270.921 462.426 269.239C462.219 268.405 461.847 267.622 461.331 266.936C460.815 266.25 460.166 265.674 459.423 265.244C458.68 264.814 457.858 264.538 457.006 264.433C456.154 264.328 455.289 264.395 454.464 264.631C452.795 265.188 451.411 266.374 450.604 267.937C449.797 269.5 449.633 271.316 450.145 272.998" fill="#1F4847"/>
    <path d="M386.195 283.658C386.503 284.956 387.188 286.133 388.165 287.042C389.142 287.95 390.366 288.549 391.683 288.762C393 288.975 394.35 288.792 395.563 288.238C396.777 287.684 397.798 286.783 398.5 285.648C399.201 284.513 399.55 283.196 399.503 281.863C399.456 280.53 399.015 279.241 398.236 278.158C397.457 277.076 396.374 276.249 395.124 275.781C393.875 275.314 392.515 275.227 391.217 275.532C390.353 275.735 389.538 276.106 388.818 276.625C388.098 277.143 387.487 277.799 387.02 278.553C386.554 279.308 386.241 280.148 386.099 281.024C385.958 281.899 385.99 282.795 386.195 283.658" fill="#1F4847"/>
    <path d="M476.864 257.888C476.864 257.888 483.255 252.991 490.802 253.203C498.06 253.406 505.569 265.069 499.824 277.301C494.638 288.328 481.818 295.991 481.818 295.991" fill="#FFC927"/>
    <path d="M305.896 295.108C305.896 295.108 295.708 292.217 291.842 301.74C287.023 313.749 297.5 325.702 307.824 328.728C315.4 330.984 329.348 326.897 329.348 326.897L305.896 295.108Z" fill="#FFC927"/>
    <g opacity="0.5">
        <g opacity="0.5">
            <path opacity="0.5" d="M401.115 295.898C394.811 295.647 382.078 296.158 377.635 301.199C373.191 306.24 377.634 311.041 385.558 311.089C393.481 311.137 405.25 310 408.691 305.17C412.133 300.341 406.195 296.1 401.077 295.888" fill="#F68627"/>
            <path opacity="0.5" d="M385.885 311.607H385.47C380.65 311.607 376.939 309.853 375.715 307.116C374.848 305.189 375.378 302.981 377.19 300.919C382.405 295.01 397.991 295.338 401.056 295.453C404.71 295.598 408.421 297.651 409.674 300.273C410.085 301.118 410.244 302.065 410.132 302.998C410.019 303.932 409.639 304.813 409.038 305.536C404.989 311.145 390.801 311.656 385.904 311.656L385.885 311.607ZM398.28 296.321C390.463 296.321 381.306 297.651 377.894 301.516C376.313 303.299 375.86 305.091 376.573 306.682C377.624 309.043 381.113 310.537 385.461 310.605C394.415 310.605 405.143 309.188 408.238 304.889C408.733 304.305 409.048 303.591 409.146 302.831C409.244 302.072 409.119 301.3 408.787 300.61C407.678 298.326 404.324 296.504 400.998 296.369C400.121 296.369 399.216 296.311 398.29 296.311" fill="#FF862C"/>
        </g>
    </g>
    <g opacity="0.5">
        <g opacity="0.5">
            <path opacity="0.5" d="M471.184 277.008C466.211 278.088 456.475 281.24 454.538 286.965C452.6 292.691 457.506 296.334 463.676 294.676C469.845 293.019 476.717 289.52 477.96 284.199C479.204 278.878 475.213 276.083 471.213 276.96" fill="#F68627"/>
            <path opacity="0.5" d="M460.775 295.528C459.737 295.574 458.701 295.405 457.731 295.034C456.762 294.663 455.878 294.096 455.136 293.369C453.584 291.702 453.208 289.379 454.066 286.824C456.341 280.077 468.591 277.108 471.03 276.578C472.07 276.317 473.16 276.325 474.197 276.599C475.233 276.874 476.183 277.407 476.958 278.149C477.701 278.974 478.218 279.978 478.458 281.063C478.698 282.147 478.652 283.276 478.327 284.337C476.707 291.239 466.76 294.343 463.724 295.133C462.762 295.39 461.771 295.523 460.775 295.528V295.528ZM471.213 277.426C464.717 278.833 456.534 282.246 454.885 287.065C454.487 287.999 454.358 289.026 454.513 290.029C454.668 291.033 455.101 291.973 455.763 292.743C457.401 294.497 460.37 295.085 463.474 294.266C469.449 292.704 476.254 289.215 477.45 284.106C477.741 283.186 477.79 282.206 477.59 281.262C477.391 280.318 476.951 279.441 476.312 278.718C475.638 278.08 474.813 277.624 473.915 277.391C473.016 277.159 472.073 277.157 471.174 277.388" fill="#FF862C"/>
        </g>
    </g>
    <path d="M317.626 288.538C317.442 288.539 317.261 288.486 317.105 288.387C316.95 288.288 316.826 288.147 316.749 287.979C316.585 287.632 312.758 279.246 311.341 265.472C309.924 251.698 313.346 242.598 313.491 242.223C313.582 241.983 313.763 241.79 313.997 241.685C314.23 241.581 314.495 241.573 314.734 241.663C314.973 241.754 315.166 241.936 315.271 242.169C315.376 242.403 315.384 242.668 315.293 242.907C315.293 242.994 311.9 252.064 313.259 265.279C314.638 278.716 318.455 287.093 318.493 287.179C318.562 287.326 318.591 287.488 318.58 287.65C318.569 287.811 318.518 287.968 318.43 288.104C318.343 288.241 318.222 288.353 318.08 288.43C317.938 288.508 317.778 288.548 317.616 288.548" fill="#00ADA8"/>
    <path d="M302.906 256.788C302.651 256.788 302.406 256.687 302.225 256.506C302.044 256.325 301.942 256.08 301.942 255.824C301.942 255.217 301.595 240.845 308.073 227.312C308.193 227.1 308.39 226.942 308.622 226.869C308.855 226.796 309.106 226.814 309.326 226.919C309.546 227.024 309.718 227.208 309.808 227.435C309.897 227.662 309.897 227.914 309.808 228.141C303.543 241.25 303.861 255.631 303.87 255.776C303.87 256.032 303.769 256.277 303.588 256.458C303.407 256.638 303.162 256.74 302.906 256.74" fill="#00ADA8"/>
    <path d="M403.425 187.059C403.169 187.087 402.913 187.012 402.712 186.852C402.511 186.691 402.383 186.457 402.355 186.201C402.326 185.945 402.401 185.689 402.562 185.488C402.723 185.288 402.957 185.159 403.212 185.131C403.415 185.131 423.204 180.726 440.709 182.374C440.964 182.399 441.2 182.523 441.363 182.721C441.527 182.919 441.605 183.174 441.581 183.43C441.557 183.685 441.432 183.921 441.234 184.085C441.036 184.248 440.781 184.326 440.525 184.302C423.32 182.683 403.829 186.972 403.637 187.02H403.425" fill="#00ADA8"/>
    <path d="M443.845 194.139C443.762 194.15 443.678 194.15 443.595 194.139C437.252 192.433 422.832 194.139 422.687 194.139C422.56 194.155 422.431 194.146 422.308 194.112C422.184 194.078 422.069 194.02 421.968 193.941C421.867 193.862 421.782 193.764 421.719 193.653C421.657 193.541 421.616 193.418 421.601 193.291C421.586 193.164 421.596 193.035 421.631 192.912C421.665 192.789 421.724 192.674 421.804 192.573C421.883 192.473 421.982 192.389 422.094 192.327C422.206 192.265 422.329 192.225 422.456 192.211C423.063 192.134 437.397 190.437 444.096 192.211C444.352 192.244 444.584 192.378 444.741 192.582C444.898 192.786 444.968 193.044 444.935 193.3C444.901 193.556 444.768 193.788 444.564 193.945C444.359 194.102 444.101 194.172 443.845 194.139Z" fill="#00ADA8"/>
    <g opacity="0.5">
        <g opacity="0.5">
            <path opacity="0.5" d="M401.405 388.727H401.145C380.074 385.942 364.063 373.603 363.388 373.083C363.008 372.761 362.768 372.305 362.717 371.809C362.666 371.314 362.809 370.818 363.115 370.426C363.422 370.034 363.868 369.775 364.361 369.704C364.854 369.634 365.355 369.756 365.76 370.047C365.914 370.172 381.645 382.269 401.646 384.91C402.157 384.943 402.634 385.178 402.972 385.563C403.31 385.948 403.481 386.452 403.448 386.963C403.415 387.475 403.18 387.952 402.795 388.29C402.41 388.628 401.906 388.799 401.395 388.766" fill="#FF862C"/>
        </g>
    </g>
    <path d="M458.655 165.019C458.437 165.019 458.223 164.959 458.037 164.847C457.85 164.735 457.697 164.575 457.594 164.383L432.157 116.64C432.006 116.358 431.973 116.027 432.067 115.721C432.16 115.414 432.371 115.157 432.653 115.007C432.936 114.856 433.266 114.823 433.573 114.916C433.879 115.009 434.136 115.22 434.287 115.503L459.725 163.245C459.823 163.429 459.872 163.635 459.867 163.843C459.862 164.051 459.803 164.254 459.696 164.432C459.59 164.611 459.439 164.759 459.258 164.862C459.077 164.964 458.872 165.019 458.664 165.019" fill="#1F4847"/>
    <path d="M447.125 140.519C446.857 140.519 446.597 140.429 446.386 140.263C446.175 140.098 446.025 139.868 445.96 139.608C445.894 139.348 445.918 139.074 446.026 138.829C446.134 138.584 446.32 138.381 446.556 138.254L454.749 133.888C455.032 133.737 455.362 133.704 455.669 133.798C455.975 133.891 456.232 134.102 456.383 134.384C456.534 134.667 456.566 134.997 456.473 135.304C456.38 135.61 456.169 135.867 455.887 136.018L447.693 140.384C447.519 140.479 447.323 140.529 447.125 140.529" fill="#1F4847"/>
    <path d="M468.925 161.699C468.701 161.7 468.482 161.638 468.291 161.52C468.1 161.403 467.946 161.235 467.846 161.034L442.784 110.911C442.702 110.769 442.649 110.611 442.63 110.448C442.61 110.285 442.625 110.12 442.672 109.962C442.718 109.805 442.797 109.658 442.903 109.532C443.008 109.406 443.139 109.303 443.285 109.23C443.432 109.156 443.593 109.113 443.757 109.104C443.921 109.094 444.085 109.118 444.239 109.175C444.394 109.231 444.535 109.318 444.654 109.431C444.774 109.544 444.869 109.68 444.934 109.831L469.995 159.955C470.087 160.139 470.131 160.343 470.122 160.549C470.112 160.754 470.051 160.954 469.943 161.129C469.834 161.304 469.683 161.448 469.503 161.548C469.324 161.648 469.121 161.7 468.916 161.699" fill="#1F4847"/>
    <path d="M481.994 155.109C481.759 155.11 481.528 155.042 481.331 154.913C481.134 154.785 480.979 154.602 480.885 154.386L459.101 104.128C458.981 103.85 458.97 103.537 459.07 103.251C459.17 102.965 459.373 102.728 459.641 102.586L471.16 96.4458C471.299 96.3711 471.453 96.3247 471.61 96.3093C471.768 96.2938 471.928 96.3096 472.079 96.3556C472.231 96.4017 472.372 96.4773 472.495 96.5779C472.617 96.6786 472.719 96.8024 472.793 96.9422C472.868 97.0821 472.914 97.2353 472.93 97.3931C472.945 97.5509 472.93 97.7102 472.884 97.862C472.837 98.0137 472.762 98.1548 472.661 98.2773C472.561 98.3999 472.437 98.5014 472.297 98.5761L461.761 104.186L482.611 152.275L494.236 146.704C494.52 146.587 494.838 146.583 495.125 146.694C495.412 146.804 495.646 147.02 495.779 147.297C495.912 147.574 495.934 147.892 495.841 148.185C495.747 148.477 495.546 148.724 495.277 148.872L482.514 154.984C482.352 155.061 482.174 155.1 481.994 155.099" fill="#1F4847"/>
    <path d="M473.194 129.209C472.913 129.206 472.641 129.106 472.426 128.924C472.211 128.743 472.067 128.492 472.018 128.215C471.968 127.938 472.018 127.652 472.157 127.408C472.296 127.163 472.517 126.975 472.78 126.876L480.028 124.206C480.329 124.096 480.661 124.11 480.951 124.245C481.241 124.379 481.466 124.624 481.576 124.924C481.685 125.225 481.672 125.556 481.537 125.846C481.402 126.137 481.158 126.361 480.857 126.471L473.609 129.141C473.476 129.191 473.336 129.217 473.194 129.218" fill="#1F4847"/>
    <path d="M495.804 113.839C495.632 113.839 495.462 113.802 495.306 113.73C495.15 113.659 495.01 113.555 494.898 113.425L479.186 95.3815C479.07 95.2646 478.979 95.1251 478.919 94.9716C478.859 94.8182 478.831 94.6541 478.837 94.4894C478.843 94.3247 478.882 94.163 478.953 94.0143C479.024 93.8655 479.125 93.7329 479.249 93.6246C479.373 93.5162 479.518 93.4346 479.675 93.3846C479.832 93.3346 479.998 93.3173 480.162 93.3338C480.326 93.3503 480.484 93.4003 480.628 93.4806C480.772 93.5609 480.898 93.6698 480.998 93.8007L496.71 111.845C496.861 112.019 496.959 112.233 496.993 112.462C497.026 112.69 496.993 112.923 496.897 113.134C496.802 113.344 496.648 113.522 496.454 113.648C496.26 113.773 496.035 113.84 495.804 113.84" fill="#1F4847"/>
    <path d="M508.124 143.069C507.884 143.069 507.65 142.998 507.45 142.864C507.251 142.73 507.097 142.539 507.006 142.317L495.304 113.496C495.275 113.424 495.252 113.35 495.237 113.274L490.34 88.7145C490.303 88.5571 490.298 88.3938 490.325 88.2344C490.353 88.075 490.412 87.9227 490.499 87.7867C490.586 87.6506 490.7 87.5335 490.834 87.4423C490.968 87.3512 491.118 87.2879 491.277 87.2562C491.435 87.2245 491.599 87.225 491.757 87.2577C491.915 87.2905 492.066 87.3548 492.198 87.4468C492.331 87.5388 492.445 87.6566 492.531 87.7933C492.618 87.9299 492.676 88.0826 492.702 88.2422L497.57 112.686L509.233 141.401C509.293 141.548 509.323 141.705 509.322 141.864C509.321 142.022 509.288 142.179 509.226 142.325C509.165 142.471 509.075 142.603 508.962 142.714C508.849 142.825 508.715 142.913 508.568 142.972C508.424 143.03 508.27 143.059 508.115 143.059" fill="#1F4847"/>
    <path d="M682.793 334.807C682.578 334.806 682.367 334.749 682.182 334.64C681.997 334.531 681.845 334.374 681.741 334.187C681.636 333.999 681.584 333.787 681.59 333.572C681.595 333.357 681.657 333.148 681.771 332.966C692.19 316.348 692.305 292.087 692.305 291.846C692.305 291.527 692.432 291.22 692.658 290.994C692.884 290.768 693.191 290.641 693.51 290.641C693.83 290.641 694.136 290.768 694.362 290.994C694.588 291.22 694.715 291.527 694.715 291.846C694.715 292.868 694.59 317.051 683.805 334.257C683.697 334.431 683.546 334.574 683.367 334.674C683.189 334.773 682.988 334.826 682.783 334.826" fill="#1F4847"/>
    <path d="M700.602 313.937C700.512 313.948 700.423 313.948 700.333 313.937C700.179 313.902 700.033 313.837 699.903 313.745C699.774 313.653 699.664 313.537 699.58 313.403C699.496 313.268 699.438 313.119 699.412 312.962C699.386 312.806 699.391 312.646 699.427 312.492C702.761 297.86 704.246 275.488 704.246 275.266C704.253 275.107 704.292 274.951 704.361 274.807C704.43 274.664 704.527 274.535 704.647 274.43C704.767 274.325 704.907 274.245 705.059 274.195C705.21 274.144 705.369 274.125 705.528 274.139C705.686 274.148 705.841 274.189 705.983 274.259C706.126 274.329 706.253 274.426 706.358 274.545C706.463 274.664 706.543 274.803 706.594 274.953C706.645 275.103 706.666 275.262 706.655 275.421C706.655 275.642 705.132 298.207 701.75 313.012C701.695 313.283 701.548 313.527 701.333 313.703C701.119 313.878 700.85 313.975 700.573 313.976" fill="#1F4847"/>
    <path d="M377.365 284.298C377.088 284.299 376.816 284.22 376.583 284.071C376.349 283.922 376.163 283.708 376.047 283.456C375.932 283.204 375.891 282.924 375.93 282.65C375.968 282.375 376.085 282.118 376.267 281.908C376.382 281.782 387.496 269.136 401.772 274.409C402.093 274.563 402.345 274.832 402.481 275.161C402.616 275.491 402.625 275.86 402.506 276.195C402.386 276.531 402.147 276.811 401.833 276.981C401.52 277.152 401.155 277.2 400.808 277.117C388.431 272.539 378.898 283.325 378.493 283.787C378.358 283.944 378.191 284.07 378.003 284.156C377.815 284.243 377.611 284.288 377.404 284.289" fill="#1F4847"/>
    <path d="M443.755 272.328C443.489 272.328 443.229 272.254 443.003 272.116C442.776 271.978 442.592 271.78 442.471 271.544C442.349 271.308 442.295 271.043 442.314 270.779C442.333 270.514 442.425 270.26 442.579 270.044C445.253 266.745 448.86 264.329 452.929 263.113C456.998 261.898 461.339 261.938 465.385 263.229C465.574 263.275 465.753 263.359 465.909 263.475C466.066 263.592 466.197 263.739 466.295 263.908C466.393 264.076 466.456 264.263 466.479 264.457C466.503 264.65 466.488 264.847 466.434 265.034C466.38 265.222 466.288 265.397 466.165 265.548C466.042 265.699 465.889 265.824 465.716 265.914C465.544 266.005 465.354 266.06 465.16 266.075C464.965 266.091 464.77 266.067 464.585 266.005C451.909 262.352 445.21 271.345 444.931 271.73C444.796 271.916 444.619 272.067 444.415 272.171C444.21 272.275 443.984 272.329 443.755 272.328" fill="#1F4847"/>
    <path d="M432.155 345.737C411.913 345.737 401.31 329.148 401.242 328.955C400.952 328.489 400.859 327.926 400.983 327.391C401.108 326.856 401.439 326.392 401.905 326.101C402.371 325.81 402.933 325.715 403.469 325.838C404.004 325.962 404.469 326.292 404.761 326.757C405.243 327.538 416.954 345.708 439.77 340.744C461.14 336.088 461.371 314.94 461.371 314.718C461.371 314.169 461.59 313.641 461.978 313.253C462.367 312.864 462.894 312.646 463.443 312.646C463.992 312.646 464.519 312.864 464.908 313.253C465.297 313.641 465.515 314.169 465.515 314.718C465.515 314.959 465.245 339.433 440.657 344.792C437.869 345.417 435.022 345.74 432.165 345.756" fill="#BD2231"/>
</svg>
