<?xml version="1.0" encoding="UTF-8" standalone="no"?>
<!-- Created with Inkscape (http://www.inkscape.org/) -->

<svg
   xmlns:dc="http://purl.org/dc/elements/1.1/"
   xmlns:cc="http://creativecommons.org/ns#"
   xmlns:rdf="http://www.w3.org/1999/02/22-rdf-syntax-ns#"
   xmlns:svg="http://www.w3.org/2000/svg"
   xmlns="http://www.w3.org/2000/svg"
   xmlns:sodipodi="http://sodipodi.sourceforge.net/DTD/sodipodi-0.dtd"
   xmlns:inkscape="http://www.inkscape.org/namespaces/inkscape"
   width="400"
   height="134.32851"
   id="svg20676"
   version="1.1"
   inkscape:version="0.47 r22583"
   sodipodi:docname="Nouveau document 35">
  <defs
     id="defs20678">
    <inkscape:perspective
       sodipodi:type="inkscape:persp3d"
       inkscape:vp_x="0 : 526.18109 : 1"
       inkscape:vp_y="0 : 1000 : 0"
       inkscape:vp_z="744.09448 : 526.18109 : 1"
       inkscape:persp3d-origin="372.04724 : 350.78739 : 1"
       id="perspective20684" />
    <inkscape:perspective
       id="perspective20639"
       inkscape:persp3d-origin="0.5 : 0.33333333 : 1"
       inkscape:vp_z="1 : 0.5 : 1"
       inkscape:vp_y="0 : 1000 : 0"
       inkscape:vp_x="0 : 0.5 : 1"
       sodipodi:type="inkscape:persp3d" />
  </defs>
  <sodipodi:namedview
     id="base"
     pagecolor="#ffffff"
     bordercolor="#666666"
     borderopacity="1.0"
     inkscape:pageopacity="0.0"
     inkscape:pageshadow="2"
     inkscape:zoom="0.35"
     inkscape:cx="421.19643"
     inkscape:cy="-171.07473"
     inkscape:document-units="px"
     inkscape:current-layer="layer1"
     showgrid="false"
     inkscape:window-width="1280"
     inkscape:window-height="738"
     inkscape:window-x="-8"
     inkscape:window-y="-8"
     inkscape:window-maximized="1" />
  <metadata
     id="metadata20681">
    <rdf:RDF>
      <cc:Work
         rdf:about="">
        <dc:format>image/svg+xml</dc:format>
        <dc:type
           rdf:resource="http://purl.org/dc/dcmitype/StillImage" />
        <dc:title></dc:title>
      </cc:Work>
    </rdf:RDF>
  </metadata>
  <g
     inkscape:label="Calque 1"
     inkscape:groupmode="layer"
     id="layer1"
     transform="translate(46.196429,-226.95895)">
    <path
       d="m -45.400938,290.88809 13.024155,0 16.924316,45.71015 0.177133,0 17.0112725,-45.71015 12.5829305,0 0,56.22223 -8.7729466,0 0,-48.56039 -0.1771337,0 -17.8969407,48.56039 -7.442834,0 -17.900161,-48.56039 -0.177134,0 0,48.56039 -7.352657,0 0,-56.22223 z"
       style="fill:#000000;fill-opacity:1;fill-rule:nonzero;stroke:none"
       id="path20391" />
    <path
       d="m 20.9018,327.71901 c 0,-13.11755 6.202899,-20.28985 18.605475,-20.28985 12.405798,0 18.695654,7.1723 18.695654,20.28985 0,13.11755 -6.289856,20.28986 -18.695654,20.28986 -12.402576,0 -18.605475,-7.17231 -18.605475,-20.28986 m 18.605475,16.86635 c 7.974236,0 8.946861,-9.77778 8.946861,-16.86635 0,-7.08857 -0.972625,-16.86634 -8.946861,-16.86634 -7.887278,0 -8.859903,9.77777 -8.859903,16.86634 0,7.08857 0.972625,16.86635 8.859903,16.86635"
       style="fill:#000000;fill-opacity:1;fill-rule:nonzero;stroke:none"
       id="path20393" />
    <path
       d="m 65.140127,308.32449 8.95008,0 0,9.21095 0.173913,0 c 1.42029,-2.85347 5.494364,-10.10628 14.798712,-10.10628 7.442834,0 10.631239,5.7037 10.631239,11.32689 l 0,28.35427 -8.946859,0 0,-24.28342 c 0,-4.88567 -0.798712,-9.28502 -5.31723,-9.28502 -8.859904,0 -11.339775,12.70853 -11.339775,17.51691 l 0,16.05153 -8.95008,0 0,-38.78583 z"
       style="fill:#000000;fill-opacity:1;fill-rule:nonzero;stroke:none"
       id="path20395" />
    <path
       d="m 131.79713,347.4356 c -1.77456,0.4058 -4.16747,0.57327 -6.20612,0.57327 -8.41546,0 -13.28824,-2.36715 -13.28824,-9.86152 l 0,-25.58454 -6.7343,0 0,-4.23832 6.7343,0 0,-9.124 8.94686,-4.9694 0,14.0934 11.52013,0 0,4.23832 -11.52013,0 0,22.32528 c 0,5.70371 0.62157,8.47343 6.38003,8.47343 1.42029,0 2.92431,-0.16103 4.16747,-0.65056 l 0,4.72464 z"
       style="fill:#000000;fill-opacity:1;fill-rule:nonzero;stroke:none"
       id="path20397" />
    <path
       d="m 138.53143,308.32449 8.94686,0 0,9.86151 0.17713,0 c 2.83736,-5.21417 5.93559,-10.1868 13.64574,-10.75684 l 0,8.55716 c -8.5926,0.24477 -13.82287,2.93398 -13.82287,13.36232 l 0,17.76168 -8.94686,0 0,-38.78583 z"
       style="fill:#000000;fill-opacity:1;fill-rule:nonzero;stroke:none"
       id="path20399" />
    <path
       d="m 197.80357,345.80919 c -3.7198,1.38164 -6.99839,2.19968 -12.3124,2.19968 -11.69726,0 -21.09178,-6.35749 -21.09178,-22.00322 0,-10.75363 4.69887,-18.57649 17.98711,-18.57649 13.64896,0 16.219,8.39291 16.219,15.8905 l -25.25603,0 c 0,7.65861 3.72302,20.36715 16.39291,20.36715 2.74718,0 5.40419,-0.48632 8.06119,-1.62963 l 0,3.75201 z m -7.97101,-26.24155 c 0,-3.01127 -1.15298,-8.71497 -7.7971,-8.71497 -6.91466,0 -8.24155,6.51852 -8.4219,8.71497 l 16.219,0 z m -6.41224,-28.6409 9.39452,0 -8.65378,10.63446 -6.64734,0 5.9066,-10.63446 z"
       style="fill:#000000;fill-opacity:1;fill-rule:nonzero;stroke:none"
       id="path20401" />
    <path
       d="m 227.13369,341.73189 -0.17727,0 c -1.41707,2.2802 -5.14009,6.27698 -11.87117,6.27698 -6.64735,0 -11.52013,-4.32206 -11.52013,-9.70049 0,-11.97745 17.98712,-12.5475 23.56844,-12.78905 l 0,-3.42351 c 0,-4.2351 0,-11.24315 -5.93881,-11.24315 -5.49115,0 -6.46699,3.90982 -6.82126,8.47343 l -9.3913,0 c 0.44444,-5.78422 2.92431,-11.89694 16.21256,-11.89694 13.73591,0 14.88889,7.08856 14.88889,14.66666 l 0,25.0145 -8.95008,0 0,-5.37843 z m 0,-12.79227 c -3.72303,0.24812 -13.82287,0.98229 -13.82287,8.14815 0,3.50403 2.21578,5.78744 5.1401,5.78744 3.10144,0 8.68277,-2.76972 8.68277,-9.36876 l 0,-4.56683 z"
       style="fill:#000000;fill-opacity:1;fill-rule:nonzero;stroke:none"
       id="path20403" />
    <path
       d="m 245.34625,290.88809 8.95008,0 0,56.22223 -8.95008,0 0,-56.22223 z"
       style="fill:#000000;fill-opacity:1;fill-rule:nonzero;stroke:none"
       id="path20405" />
    <path
       d="m 311.29472,283.32288 c -2.73752,-4.04831 -7.21739,-6.56039 -11.79066,-6.56039 -7.82609,0 -13.96458,6.17391 -13.96458,14.06119 0,0.75685 0.16103,1.81643 0.45733,3.13688 -0.72142,-0.1515 -2.06763,-0.4058 -3.17874,-0.4058 -7.93881,0 -14.16426,6.06763 -14.16426,13.8132 0,4.56039 2.56039,9.0145 6.67633,11.73591 -4.15459,2.76007 -6.6409,7.05959 -6.6409,11.58133 0,7.65217 6.35427,13.87439 14.16425,13.87439 0.95652,0 2.11594,-0.219 3.12078,-0.44122 -0.2802,1.26892 -0.43479,2.33494 -0.43479,3.10145 0,7.8905 6.13849,14.06763 13.96458,14.06763 4.64412,0 8.97262,-2.4058 11.68438,-6.43156 2.61191,3.85507 7.30434,6.43156 11.80354,6.43156 7.80032,0 13.90338,-6.17713 13.90338,-14.06763 0,-1.02416 -0.22235,-2.26087 -0.40258,-3.10145 1.32689,0.28341 2.39292,0.44122 3.15298,0.44122 7.80676,0 14.15781,-6.22222 14.15781,-13.87439 0,-4.56361 -2.47021,-8.99517 -6.47021,-11.66506 4,-2.66989 6.47021,-7.08857 6.47021,-11.66184 0,-7.6103 -6.38003,-13.80676 -14.22544,-13.80676 -0.98229,0 -2.16747,0.24786 -3.09501,0.44444 0.15459,-0.71819 0.41224,-2.08051 0.41224,-3.1723 0,-7.88728 -6.10306,-14.06119 -13.90338,-14.06119 -4.54428,0 -8.97585,2.50886 -11.69726,6.56039 m -18.37682,14.08695 -0.005,-0.003 c -0.67955,-0.63768 -2.88567,-3.00483 -2.89211,-6.74074 l 0,-0.0232 c 0,-5.781 4.89533,-9.36876 9.43962,-9.38165 2.52818,-0.003 4.90177,0.97263 6.69887,2.74719 1.78744,1.77133 2.7665,4.1417 2.76973,6.67633 l 0,21.7971 c -0.003,2.69565 -2.40902,4.18679 -4.10629,4.18679 l -22.04508,0 c -2.49598,0.0103 -4.95653,-1.00161 -6.75363,-2.78261 -1.23671,-1.22061 -2.70853,-3.35587 -2.71175,-6.58293 -0.008,-2.48309 1.01127,-4.92109 2.78905,-6.68921 1.75201,-1.73913 4.08695,-2.70209 6.58615,-2.70209 3.33011,-0.003 5.56522,1.53301 6.85668,2.8277 0,0 0.83414,0.82125 1.11111,1.08856 -0.19014,0.48954 -0.37359,1.12078 -0.37359,2 0,3.12078 2.58937,5.6715 5.76812,5.6876 1.53623,0.005 2.90177,-0.5475 3.97101,-1.59742 1.08213,-1.07246 1.72947,-2.60548 1.72947,-4.10306 0,-1.45894 -0.66344,-3.02738 -1.73913,-4.0934 -1.05314,-1.0467 -2.438,-1.59742 -4.00644,-1.5942 -0.85668,0 -1.57488,0.24477 -1.95813,0.38003 -0.19324,-0.19324 -1.12722,-1.09823 -1.12722,-1.09823 m 20.66989,-6.7504 c -0.008,-2.47343 0.97585,-4.91787 2.76973,-6.70531 1.22705,-1.22384 3.38486,-2.68921 6.62802,-2.69244 2.50563,-0.003 4.96618,1.00484 6.73752,2.76973 1.75523,1.73913 2.72141,4.06119 2.72463,6.5475 l 0,0.0155 c 0,3.29791 -1.54267,5.51047 -2.84702,6.78905 0,0 -0.83091,0.8277 -1.09823,1.09823 -0.49275,-0.17726 -1.13043,-0.36393 -2.01288,-0.36715 -3.13687,0 -5.7037,2.57649 -5.71658,5.73269 -0.005,1.52335 0.54428,2.88245 1.60386,3.93237 1.07568,1.07568 2.61514,1.72303 4.12883,1.72625 l 0.005,0 c 1.47182,0 3.04026,-0.66345 4.11272,-1.72947 1.05314,-1.04026 1.60386,-2.41224 1.60386,-3.96135 l 0,-0.0155 c 0,-0.8438 -0.24786,-1.56522 -0.37359,-1.94203 0.19015,-0.19324 1.10467,-1.124 1.10467,-1.124 0.64412,-0.67954 3.02738,-2.86956 6.78261,-2.87922 5.83575,-0.005 9.45894,4.8599 9.4686,9.37842 0.005,2.50886 -0.97907,4.86956 -2.76651,6.657 -1.78422,1.77456 -4.16747,2.77617 -6.71819,2.77939 l -21.94525,0 c -2.71176,-0.003 -4.19324,-2.43156 -4.19324,-4.12238 l 0,-21.88728 z m -37.51047,46.80837 c -1.79388,-1.77777 -2.82769,-4.21256 -2.83091,-6.67955 -0.005,-2.51207 0.97584,-4.876 2.7665,-6.657 1.78422,-1.77778 4.16103,-2.79871 6.71176,-2.80193 l 21.95491,0 c 2.71175,0.003 4.24476,2.4541 4.24799,4.13848 l 0,21.88406 c 0.003,2.48309 -1.04026,4.92754 -2.83736,6.71176 -1.22706,1.23027 -3.37521,2.68921 -6.6248,2.69243 -5.21095,0.005 -9.4525,-4.17391 -9.46216,-9.31401 l 0,-0.018 c 0,-3.29146 1.54911,-5.50724 2.85024,-6.78905 0,0 0.83414,-0.83413 1.09823,-1.10145 0.49919,0.18371 1.13043,0.36715 2.01288,0.36715 3.14976,0 5.71015,-2.56682 5.71981,-5.73268 0.003,-1.52013 -0.54428,-2.87601 -1.59742,-3.92915 -1.07569,-1.07569 -2.62158,-1.71981 -4.13527,-1.71981 -1.46216,-0.005 -3.04348,0.65379 -4.11916,1.72303 -1.0467,1.04348 -1.60709,2.41224 -1.60709,3.96457 l 0,0.0103 c 0,0.85024 0.24786,1.57166 0.38003,1.93881 -0.19632,0.19967 -1.11111,1.13365 -1.11111,1.13365 -0.63446,0.67311 -3.03059,2.87279 -6.78261,2.87601 -2.52174,0.005 -4.87278,-0.9533 -6.63446,-2.69565 m 40.35427,16.50885 c -1.78744,-1.77133 -2.8438,-4.1417 -2.8438,-6.6731 l 0,-21.79711 c 0,-2.69887 2.4992,-4.17391 4.19968,-4.17713 l 22.0322,0 c 4.55073,-0.005 9.46538,3.55234 9.47182,9.35266 0.005,5.1723 -4.2029,9.38808 -9.38486,9.39774 -3.33333,0.003 -5.56844,-1.53623 -6.84702,-2.82769 -0.003,-0.003 -0.84058,-0.8277 -1.10789,-1.09823 0.177,-0.48954 0.36071,-1.12078 0.36071,-1.99356 l 0,-0.003 c 0,-3.12399 -2.58615,-5.6715 -5.76812,-5.67794 -1.53301,-0.005 -2.89533,0.54107 -3.95169,1.58454 -1.08212,1.06925 -1.73269,2.6087 -1.73913,4.11273 0,1.44927 0.66989,3.02093 1.74557,4.09017 1.04992,1.04348 2.42834,1.59421 3.99678,1.59098 0.85991,0 1.5781,-0.24141 1.95169,-0.37359 0.19659,0.19015 1.13366,1.09501 1.13366,1.09501 0.68277,0.63768 2.89533,3.00483 2.90499,6.74396 l 0,0.0129 c 0,5.78421 -4.90499,9.38164 -9.4525,9.38808 -2.52173,0.005 -4.90499,-0.9694 -6.70209,-2.74718"
       style="fill:#ef3e33;fill-opacity:1;fill-rule:nonzero;stroke:none"
       id="path20407" />
    <path
       d="m -17.04667,238.69808 c 17.14653759,7.09178 28.299517,31.91626 28.299517,31.91626 C 9.6006728,247.11032 -4.1159134,232.5145 -8.376783,228.5145 l -0.6119163,0.65379 c -2.5152977,2.68599 -5.4106277,6.08373 -8.0579707,9.52979"
       style="fill:#abc379;fill-opacity:1;fill-rule:nonzero;stroke:none"
       id="path20409" />
    <path
       d="m -11.378393,226.95895 c -31.333334,18.58615 -35.94203,40.7343 -22.3124,42.15137 11.114332,1.15297 20.68277,-6.70854 30.1449279,-17.08213 -11.3172299,5.61997 -25.0241549,10.16747 -25.0241549,1.51369 0,-8.21256 17.191627,-26.58293 17.191627,-26.58293"
       style="fill:#7ca43f;fill-opacity:1;fill-rule:nonzero;stroke:none"
       id="path20411" />
    <path
       d="m -24.772918,274.72062 c 4.734299,-0.84058 14.669887,-2.80837 19.3333331,-2.80837 6.531401,0 17.5909819,2.59259 23.0016109,6.48309 -8.9726253,-3.02738 -15.8615143,-3.67472 -21.607086,-2.91787 -4.6537842,0.61191 -11.900161,2.91787 -20.035427,2.91787 -8.119163,0 -16.705314,-2.59259 -22.115942,-6.48309 8.676329,3.02415 15.352657,3.8905 21.423511,2.80837"
       style="fill:#0467a7;fill-opacity:1;fill-rule:nonzero;stroke:none"
       id="path20413" />
    <path
       d="m 29.558805,249.67392 2.753623,0 6.454107,19.83897 -2.257649,0 -1.99678,-6.12238 -7.123993,0 -1.938809,6.12238 -2.257649,0 6.36715,-19.83897 z m -1.561997,11.84541 5.906602,0 -2.924315,-9.80354 -0.05797,0 -2.924316,9.80354 z"
       style="fill:#000000;fill-opacity:1;fill-rule:nonzero;stroke:none"
       id="path20415" />
    <path
       d="m 41.343024,249.67392 1.967794,0 0,9.31401 0.05797,0 c 0.376812,-1.12077 1.246377,-3.47504 4.3124,-3.47504 2.347826,0 3.536232,1.95491 3.536232,4.22545 l 0,9.77455 -1.971014,0 0,-7.59098 c 0,-2.35749 0,-4.45411 -2.025765,-4.45411 -2.605476,0 -3.909824,3.93559 -3.909824,6.41224 l 0,5.63285 -1.967794,0 0,-19.83897 z"
       style="fill:#000000;fill-opacity:1;fill-rule:nonzero;stroke:none"
       id="path20417" />
    <path
       d="m 63.57813,266.35025 -0.05797,0 c -0.347826,1.12399 -1.217391,3.48148 -4.286635,3.48148 -2.37037,0 -3.52979,-1.95491 -3.52979,-4.22866 l 0,-9.77456 1.967794,0 0,7.59098 c 0,2.35749 0,4.45733 2.025765,4.45733 2.605475,0 3.880837,-3.94203 3.880837,-6.41224 l 0,-5.63607 1.967794,0 0,13.68438 -1.967794,0 0,-3.16264 z"
       style="fill:#000000;fill-opacity:1;fill-rule:nonzero;stroke:none"
       id="path20419" />
    <path
       d="m 70.293106,255.82851 1.971014,0 0,3.15942 0.05475,0 c 0.376811,-1.12077 1.246377,-3.47504 4.31562,-3.47504 2.344605,0 3.52979,1.95491 3.52979,4.22545 l 0,9.77455 -1.967794,0 0,-7.59098 c 0,-2.35749 0,-4.45411 -2.025764,-4.45411 -2.605475,0 -3.906603,3.93559 -3.906603,6.41224 l 0,5.63285 -1.971014,0 0,-13.68438 z"
       style="fill:#000000;fill-opacity:1;fill-rule:nonzero;stroke:none"
       id="path20421" />
    <path
       d="m 90.850272,269.68681 c -0.582931,0.0868 -1.159421,0.14479 -1.739131,0.14479 -2.779388,0 -3.819645,-1.095 -3.819645,-3.53623 l 0,-8.8277 -2.26087,0 0,-1.63929 2.26087,0 0,-3.19162 1.964573,-1.23672 0,4.42834 3.706924,0 0,1.63929 -3.706924,0 0,8.42513 c 0,0.88888 0.231884,2.29951 2.260869,2.29951 0.637682,0 0.895331,-0.11594 1.333334,-0.25765 l 0,1.75202 z"
       style="fill:#000000;fill-opacity:1;fill-rule:nonzero;stroke:none"
       id="path20423" />
    <path
       d="m 99.272171,261.7802 c 1.449279,0.74396 3.214169,1.55234 3.214169,3.90661 0,2.73107 -1.91304,4.14492 -5.127211,4.14492 -1.793881,0 -3.214171,-0.40257 -3.761675,-0.57649 l 0,-1.781 c 0.347826,0.1126 1.996779,0.7182 3.561997,0.7182 1.909821,0 3.355879,-0.63446 3.355879,-2.21578 0,-1.40741 -1.677942,-2.01288 -2.489535,-2.47021 L 96.782639,262.843 c -1.275362,-0.71497 -3.127214,-1.46537 -3.127214,-3.70692 0,-2.21578 1.648953,-3.62319 4.718196,-3.62319 1.47826,0 2.605479,0.31562 3.243159,0.46055 l 0,1.80998 c -0.46377,-0.17391 -1.82287,-0.63124 -3.214173,-0.63124 -1.677939,0 -2.779388,0.80516 -2.779388,1.781 0,1.12077 1.391304,1.58454 2.489533,2.15781 l 1.159419,0.68921 z"
       style="fill:#000000;fill-opacity:1;fill-rule:nonzero;stroke:none"
       id="path20425" />
    <path
       d="m 105.40744,249.67392 2.60547,0 0,2.58937 -2.60547,0 0,-2.58937 z m 0.31884,6.15459 1.96779,0 0,13.68438 -1.96779,0 0,-13.68438 z"
       style="fill:#000000;fill-opacity:1;fill-rule:nonzero;stroke:none"
       id="path20427" />
    <path
       d="m 121.50406,269.45814 c -0.86635,0.2543 -1.59099,0.37359 -2.86313,0.37359 -4.40258,0 -7.09501,-2.5314 -7.09501,-7.47826 0,-4.1095 1.64896,-6.84058 5.61675,-6.84058 3.67794,0 4.72142,2.2963 4.72142,4.48309 l -2.34461,0 c 0,-1.46537 -0.60869,-2.8438 -2.46377,-2.8438 -2.48953,0 -3.26892,2.7021 -3.26892,4.76973 0,2.61836 0.89533,6.27053 5.4686,6.27053 0.49276,0 1.47826,-0.0289 2.22867,-0.28985 l 0,1.55555 z"
       style="fill:#000000;fill-opacity:1;fill-rule:nonzero;stroke:none"
       id="path20429" />
    <path
       d="m 148.17394,268.7947 c -0.83736,0.3446 -2.31562,1.17874 -5.2979,1.17874 -6.05153,0 -7.6715,-5.77778 -7.6715,-10.60548 0,-5.12077 1.7971,-9.86473 7.52657,-9.86473 3.99678,0 6.19646,2.50242 6.19646,5.71981 l -2.54751,0 c 0,-2.21256 -1.30435,-3.85185 -3.64895,-3.85185 -4.22544,0 -5.06602,4.31239 -5.06602,8.1095 0,3.30434 0.84058,8.62479 5.76167,8.62479 2.51852,0 4.13849,-1.17552 4.74718,-1.63929 l 0,2.32851 z"
       style="fill:#000000;fill-opacity:1;fill-rule:nonzero;stroke:none"
       id="path20431" />
    <path
       d="m 158.4799,267.84784 -0.058,0 c -0.34783,0.66344 -1.70692,2.1256 -4.22544,2.1256 -2.25765,0 -3.70693,-1.38164 -3.70693,-3.82287 0,-3.19484 4.16747,-4.25442 6.57327,-4.25442 0.48953,0 0.89533,0 1.3591,-0.0868 0,-0.66023 0,-2.15459 -0.087,-2.61836 -0.31884,-1.52013 -1.47504,-1.89694 -2.51852,-1.89694 -2.23188,0 -2.66344,1.12399 -2.81159,2.18679 l -2.19646,0 c 0.029,-1.72624 1.18841,-3.82286 4.95008,-3.82286 4.28342,0 4.63124,2.67311 4.63124,4.39613 l 0,9.60709 -1.90982,0 0,-1.81321 z m -1.21417,-4.39936 c -1.44928,0 -4.51852,0.57649 -4.51852,2.90177 0,1.29469 0.92432,1.9839 1.93881,1.9839 1.24638,0 2.63768,-0.80193 3.21417,-2.12561 0.34783,-0.80515 0.52174,-1.12077 0.52174,-2.76006 l -1.1562,0 z"
       style="fill:#000000;fill-opacity:1;fill-rule:nonzero;stroke:none"
       id="path20433" />
    <path
       d="m 164.5572,255.97344 1.97101,0 0,2.64412 0.058,0 c 0.40258,-0.92109 1.44606,-2.95974 4.60548,-2.95974 l 0,2.09662 c -3.12722,0 -4.66345,2.56038 -4.66345,6.24154 l 0,5.66506 -1.97101,0 0,-13.6876 z"
       style="fill:#000000;fill-opacity:1;fill-rule:nonzero;stroke:none"
       id="path20435" />
    <path
       d="m 180.19005,269.83173 c -0.57649,0.0868 -1.1562,0.14171 -1.73269,0.14171 -2.78261,0 -3.82609,-1.09179 -3.82609,-3.53623 l 0,-8.8277 -2.25443,0 0,-1.63607 2.25443,0 0,-3.19163 1.97101,-1.23671 0,4.42834 3.70693,0 0,1.63607 -3.70693,0 0,8.42512 c 0,0.89533 0.23189,2.29952 2.25765,2.29952 0.63768,0 0.89855,-0.11259 1.33012,-0.25765 l 0,1.75523 z"
       style="fill:#000000;fill-opacity:1;fill-rule:nonzero;stroke:none"
       id="path20437" />
    <path
       d="m 183.17555,249.82207 2.60548,0 0,2.58615 -2.60548,0 0,-2.58615 z m 0.31562,6.15137 1.97102,0 0,13.6876 -1.97102,0 0,-13.6876 z"
       style="fill:#000000;fill-opacity:1;fill-rule:nonzero;stroke:none"
       id="path20439" />
    <path
       d="m 198.8084,269.57086 c -0.84058,0.26087 -1.88405,0.40258 -3.1562,0.40258 -4.25765,0 -6.71819,-2.55717 -6.71819,-7.61675 0,-4.08373 1.70692,-6.69887 5.38486,-6.69887 3.24316,0 4.80515,2.21256 4.80515,5.20451 l 0,0.66022 -7.92914,0 0,0.80194 c 0,2.07085 0.92431,6.00966 4.88889,6.00966 1.53623,0 2.08695,-0.22879 2.72463,-0.37037 l 0,1.60708 z m -1.9388,-9.6876 c 0,-0.92109 -0.64091,-2.58937 -2.63769,-2.58937 -2.05475,0 -2.72141,1.66828 -2.89211,2.58937 l 5.5298,0 z"
       style="fill:#000000;fill-opacity:1;fill-rule:nonzero;stroke:none"
       id="path20441" />
    <path
       d="m 202.71501,255.97344 1.97101,0 0,2.64412 0.0547,0 c 0.4058,-0.92109 1.44606,-2.95974 4.60548,-2.95974 l 0,2.09662 c -3.12722,0 -4.66023,2.56038 -4.66023,6.24154 l 0,5.66506 -1.97101,0 0,-13.6876 z"
       style="fill:#000000;fill-opacity:1;fill-rule:nonzero;stroke:none"
       id="path20443" />
    <path
       d="m 210.61839,255.97344 2.11272,0 4.05153,10.80837 0.058,0 3.53301,-10.80837 2.11272,0 -4.66022,13.6876 -1.99678,0 -5.21095,-13.6876 z"
       style="fill:#000000;fill-opacity:1;fill-rule:nonzero;stroke:none"
       id="path20445" />
    <path
       d="m 224.88892,249.82207 2.60869,0 0,2.58615 -2.60869,0 0,-2.58615 z m 0.31884,6.15137 1.96779,0 0,13.6876 -1.96779,0 0,-13.6876 z"
       style="fill:#000000;fill-opacity:1;fill-rule:nonzero;stroke:none"
       id="path20447" />
    <path
       d="m 231.31726,249.82207 1.97101,0 0,19.83897 -1.97101,0 0,-19.83897 z"
       style="fill:#000000;fill-opacity:1;fill-rule:nonzero;stroke:none"
       id="path20449" />
    <path
       d="m 237.42676,249.82207 1.9678,0 0,19.83897 -1.9678,0 0,-19.83897 z"
       style="fill:#000000;fill-opacity:1;fill-rule:nonzero;stroke:none"
       id="path20451" />
    <path
       d="m 252.74399,269.57086 c -0.84058,0.26087 -1.88406,0.40258 -3.15942,0.40258 -4.25443,0 -6.71497,-2.55717 -6.71497,-7.61675 0,-4.08373 1.70692,-6.69887 5.38486,-6.69887 3.24315,0 4.80515,2.21256 4.80515,5.20451 l 0,0.66022 -7.93237,0 0,0.80194 c 0,2.07085 0.92754,6.00966 4.89211,6.00966 1.53624,0 2.08696,-0.22879 2.72464,-0.37037 l 0,1.60708 z m -1.94203,-9.6876 c 0,-0.92109 -0.63768,-2.58937 -2.63446,-2.58937 -2.05475,0 -2.72142,1.66828 -2.89533,2.58937 l 5.52979,0 z"
       style="fill:#000000;fill-opacity:1;fill-rule:nonzero;stroke:none"
       id="path20453" />
    <path
       d="m 125.35269,261.79631 6.39935,0 0,1.42351 -6.39935,0 0,-1.42351 z"
       style="fill:#000000;fill-opacity:1;fill-rule:nonzero;stroke:none"
       id="path20455" />
  </g>
</svg>
