<?xml version="1.0" encoding="UTF-8" standalone="no"?>
<!-- Created with Inkscape (http://www.inkscape.org/) -->
<svg
   xmlns:dc="http://purl.org/dc/elements/1.1/"
   xmlns:cc="http://creativecommons.org/ns#"
   xmlns:rdf="http://www.w3.org/1999/02/22-rdf-syntax-ns#"
   xmlns:svg="http://www.w3.org/2000/svg"
   xmlns="http://www.w3.org/2000/svg"
   xmlns:sodipodi="http://sodipodi.sourceforge.net/DTD/sodipodi-0.dtd"
   xmlns:inkscape="http://www.inkscape.org/namespaces/inkscape"
   width="400"
   height="144.56276"
   id="svg3166"
   sodipodi:version="0.32"
   inkscape:version="0.46"
   version="1.0"
   sodipodi:docname="Logo Mtl Rosemont-La-Petite-Patrie.svg"
   inkscape:output_extension="org.inkscape.output.svg.inkscape">
  <defs
     id="defs3168">
    <inkscape:perspective
       sodipodi:type="inkscape:persp3d"
       inkscape:vp_x="0 : 526.18109 : 1"
       inkscape:vp_y="0 : 1000 : 0"
       inkscape:vp_z="744.09448 : 526.18109 : 1"
       inkscape:persp3d-origin="372.04724 : 350.78739 : 1"
       id="perspective3174" />
  </defs>
  <sodipodi:namedview
     id="base"
     pagecolor="#ffffff"
     bordercolor="#666666"
     borderopacity="1.0"
     inkscape:pageopacity="0.0"
     inkscape:pageshadow="2"
     inkscape:zoom="0.35"
     inkscape:cx="375"
     inkscape:cy="520"
     inkscape:document-units="px"
     inkscape:current-layer="layer1"
     showgrid="false"
     inkscape:window-width="1280"
     inkscape:window-height="968"
     inkscape:window-x="-4"
     inkscape:window-y="-4" />
  <metadata
     id="metadata3171">
    <rdf:RDF>
      <cc:Work
         rdf:about="">
        <dc:format>image/svg+xml</dc:format>
        <dc:type
           rdf:resource="http://purl.org/dc/dcmitype/StillImage" />
      </cc:Work>
    </rdf:RDF>
  </metadata>
  <g
     inkscape:label="Calque 1"
     inkscape:groupmode="layer"
     id="layer1"
     transform="translate(-406.20939,1.6424062)">
    <path
       d="M 577.13809,9.5246535 L 578.65281,9.5246535 C 581.9484,9.5246535 585.39273,8.7845143 585.39273,4.7468224 C 585.39273,0.63711272 582.08931,0.63711272 579.1812,0.63711272 L 577.13809,0.63711272 L 577.13809,9.5246535 z M 574.39828,-1.6424062 L 580.40237,-1.6424062 C 582.06191,-1.6424062 588.13254,-1.4377036 588.13254,4.4654051 C 588.13254,8.8228716 585.4671,9.9771129 583.21654,10.541513 L 583.21654,10.613139 C 586.54736,11.48792 586.87223,13.28132 587.40062,15.952239 L 588.79792,22.589225 L 586.05811,22.589225 L 584.86825,17.002368 C 584.13242,13.490719 583.39267,11.804172 579.67045,11.804172 L 577.13809,11.804172 L 577.13809,22.589225 L 574.39828,22.589225"
       style="fill:#231f20;fill-opacity:1;fill-rule:nonzero;stroke:none"
       id="path3072" />
    <path
       d="M 598.70428,20.971565 C 601.44017,20.971565 602.84921,18.444289 602.84921,14.230467 C 602.84921,10.052262 601.44017,7.4897601 598.70428,7.4897601 C 595.99578,7.4897601 594.63371,10.052262 594.63371,14.230467 C 594.63371,18.444289 595.99578,20.971565 598.70428,20.971565 z M 591.88999,14.262562 C 591.88999,9.3810093 593.78437,5.4869615 598.70428,5.4869615 C 603.65158,5.4869615 605.58511,9.3810093 605.58511,14.262562 C 605.58511,19.144505 603.65158,22.974363 598.70428,22.974363 C 593.78437,22.974363 591.88999,19.144505 591.88999,14.262562"
       style="fill:#231f20;fill-opacity:1;fill-rule:nonzero;stroke:none"
       id="path3074" />
    <path
       d="M 615.35056,13.143546 C 617.10795,14.054728 619.245,15.036361 619.245,17.915115 C 619.245,21.256113 616.9279,22.974363 613.03347,22.974363 C 610.85336,22.974363 609.1312,22.485112 608.46973,22.272581 L 608.46973,20.094044 C 608.89244,20.237688 610.88859,20.971565 612.78688,20.971565 C 615.10006,20.971565 616.85745,20.202462 616.85745,18.26855 C 616.85745,16.548343 614.82217,15.811335 613.83975,15.247326 L 612.32894,14.441432 C 610.78682,13.56078 608.53627,12.648033 608.53627,9.9129232 C 608.53627,7.2020804 610.53633,5.4869615 614.25464,5.4869615 C 616.05117,5.4869615 617.42107,5.8721001 618.19213,6.0478391 L 618.19213,8.2588629 C 617.63634,8.049072 615.98071,7.4897601 614.29769,7.4897601 C 612.25849,7.4897601 610.92773,8.4713936 610.92773,9.6682976 C 610.92773,11.033504 612.61075,11.594773 613.94152,12.299686"
       style="fill:#231f20;fill-opacity:1;fill-rule:nonzero;stroke:none"
       id="path3076" />
    <path
       d="M 631.46845,10.649931 C 631.46845,9.5277847 630.69347,7.4897601 628.27462,7.4897601 C 625.77748,7.4897601 624.97511,9.5277847 624.75984,10.649931 L 631.46845,10.649931 z M 633.82077,22.485112 C 632.80313,22.804887 631.5389,22.977495 629.99287,22.977495 C 624.8342,22.977495 621.84781,19.849418 621.84781,13.67272 C 621.84781,8.6792275 623.91441,5.4869615 628.3803,5.4869615 C 632.30996,5.4869615 634.21217,8.1899763 634.21217,11.839399 L 634.21217,12.648033 L 624.58762,12.648033 L 624.58762,13.632798 C 624.58762,16.16477 625.70703,20.971565 630.51734,20.971565 C 632.38433,20.971565 633.04971,20.691713 633.82077,20.514409"
       style="fill:#231f20;fill-opacity:1;fill-rule:nonzero;stroke:none"
       id="path3078" />
    <path
       d="M 638.52932,5.8721001 L 640.91687,5.8721001 L 640.91687,9.7324873 L 640.9834,9.7324873 C 641.37089,8.3625841 642.31808,5.4869615 645.66065,5.4869615 C 648.46699,5.4869615 649.69599,7.1014903 649.87212,9.3121228 L 649.94257,9.3121228 C 650.36137,8.049072 651.69996,5.4869615 654.68244,5.4869615 C 657.52401,5.4869615 658.96828,7.8702018 658.96828,10.649931 L 658.96828,22.589225 L 656.58073,22.589225 L 656.58073,13.31772 C 656.58073,10.400609 656.58073,7.8702018 654.11882,7.8702018 C 651.31639,7.8702018 649.94257,12.720051 649.94257,15.704483 L 649.94257,22.589225 L 647.55503,22.589225 L 647.55503,13.31772 C 647.55503,10.434269 647.55503,7.8702018 645.09311,7.8702018 C 642.31808,7.8702018 640.91687,12.684824 640.91687,15.704483 L 640.91687,22.589225 L 638.52932,22.589225"
       style="fill:#231f20;fill-opacity:1;fill-rule:nonzero;stroke:none"
       id="path3080" />
    <path
       d="M 670.21323,20.971565 C 672.95303,20.971565 674.35033,18.444289 674.35033,14.230467 C 674.35033,10.052262 672.95303,7.4897601 670.21323,7.4897601 C 667.50082,7.4897601 666.13483,10.052262 666.13483,14.230467 C 666.13483,18.444289 667.50082,20.971565 670.21323,20.971565 z M 663.39111,14.262562 C 663.39111,9.3810093 665.28549,5.4869615 670.21323,5.4869615 C 675.16053,5.4869615 677.08623,9.3810093 677.08623,14.262562 C 677.08623,19.144505 675.16053,22.974363 670.21323,22.974363 C 665.28549,22.974363 663.39111,19.144505 663.39111,14.262562"
       style="fill:#231f20;fill-opacity:1;fill-rule:nonzero;stroke:none"
       id="path3082" />
    <path
       d="M 681.48166,5.8721001 L 683.87312,5.8721001 L 683.87312,9.7324873 L 683.93966,9.7324873 C 684.3976,8.3625841 685.45046,5.4869615 689.1766,5.4869615 C 692.01817,5.4869615 693.45853,7.8702018 693.45853,10.649931 L 693.45853,22.589225 L 691.07098,22.589225 L 691.07098,13.31772 C 691.07098,10.434269 691.07098,7.8702018 688.61298,7.8702018 C 685.45046,7.8702018 683.87312,12.684824 683.87312,15.704483 L 683.87312,22.589225 L 681.48166,22.589225"
       style="fill:#231f20;fill-opacity:1;fill-rule:nonzero;stroke:none"
       id="path3084" />
    <path
       d="M 706.94229,22.804887 C 706.24168,22.905477 705.53716,22.977495 704.83655,22.977495 C 701.46268,22.977495 700.19845,21.642817 700.19845,18.655254 L 700.19845,7.873333 L 697.45473,7.873333 L 697.45473,5.8752313 L 700.19845,5.8752313 L 700.19845,1.9733555 L 702.586,0.46450492 L 702.586,5.8752313 L 707.07928,5.8752313 L 707.07928,7.873333 L 702.586,7.873333 L 702.586,18.159741 C 702.586,19.256055 702.86389,20.971565 705.3258,20.971565 C 706.10078,20.971565 706.41781,20.834183 706.94229,20.658053"
       style="fill:#231f20;fill-opacity:1;fill-rule:nonzero;stroke:none"
       id="path3086" />
    <path
       d="M 499.66027,33.472127 L 502.40008,33.472127 L 502.40008,55.42424 L 511.06961,55.42424 L 511.06961,57.708064 L 499.66027,57.708064"
       style="fill:#231f20;fill-opacity:1;fill-rule:nonzero;stroke:none"
       id="path3088" />
    <path
       d="M 520.65893,50.121931 C 518.90154,50.121931 515.17932,50.826453 515.17932,53.670372 C 515.17932,55.248109 516.30656,56.096666 517.53555,56.096666 C 519.04636,56.096666 520.72939,55.112293 521.43391,53.497764 C 521.85271,52.512999 522.06406,52.12473 522.06406,50.121931 L 520.65893,50.121931 z M 522.13452,55.498997 L 522.06406,55.498997 C 521.64135,56.304892 519.99355,58.098291 516.93671,58.098291 C 514.1969,58.098291 512.44343,56.410178 512.44343,53.428878 C 512.44343,49.525436 517.49641,48.227551 520.41626,48.227551 C 521.01511,48.227551 521.50045,48.227551 522.06406,48.121873 C 522.06406,47.316369 522.06406,45.484613 521.95447,44.926475 C 521.57481,43.067321 520.16577,42.607034 518.90154,42.607034 C 516.19696,42.607034 515.66857,43.976937 515.49636,45.281085 L 512.827,45.281085 C 512.86614,43.171434 514.26344,40.604235 518.83109,40.604235 C 524.0289,40.604235 524.45161,43.870084 524.45161,45.980127 L 524.45161,57.711195 L 522.13452,57.711195"
       style="fill:#231f20;fill-opacity:1;fill-rule:nonzero;stroke:none"
       id="path3090" />
    <path
       d="M 542.04508,44.610223 L 544.99624,44.610223 C 548.43666,44.610223 549.87701,42.992563 549.87701,40.223793 C 549.87701,35.759083 546.29178,35.759083 544.33086,35.759083 L 542.04508,35.759083 L 542.04508,44.610223 z M 539.30919,33.472127 L 544.92188,33.472127 C 546.82017,33.472127 552.6129,33.546885 552.6129,40.18387 C 552.6129,45.062683 549.37993,46.889742 544.92188,46.889742 L 542.04508,46.889742 L 542.04508,57.708064 L 539.30919,57.708064"
       style="fill:#231f20;fill-opacity:1;fill-rule:nonzero;stroke:none"
       id="path3092" />
    <path
       d="M 563.2277,45.770336 C 563.2277,44.645058 562.45664,42.604294 560.03778,42.604294 C 557.53673,42.604294 556.73044,44.645058 556.51909,45.770336 L 563.2277,45.770336 z M 565.58393,57.602777 C 564.56237,57.91942 563.30206,58.098291 561.75212,58.098291 C 556.59345,58.098291 553.60315,54.968257 553.60315,48.786863 C 553.60315,43.801198 555.67757,40.604235 560.13954,40.604235 C 564.0653,40.604235 565.96359,43.311947 565.96359,46.961369 L 565.96359,47.770395 L 556.34687,47.770395 L 556.34687,48.752028 C 556.34687,51.282044 557.46628,56.093535 562.27659,56.093535 C 564.14358,56.093535 564.80896,55.809378 565.58393,55.633639"
       style="fill:#231f20;fill-opacity:1;fill-rule:nonzero;stroke:none"
       id="path3094" />
    <path
       d="M 578.22227,57.91942 C 577.52557,58.024707 576.81714,58.098291 576.11653,58.098291 C 572.74657,58.098291 571.48234,56.758917 571.48234,53.774485 L 571.48234,42.992563 L 568.73862,42.992563 L 568.73862,40.989765 L 571.48234,40.989765 L 571.48234,37.095326 L 573.86597,35.586475 L 573.86597,40.989765 L 578.36709,40.989765 L 578.36709,42.992563 L 573.86597,42.992563 L 573.86597,53.285234 C 573.86597,54.370588 574.1517,56.093535 576.60578,56.093535 C 577.38076,56.093535 577.69779,55.953022 578.22227,55.777283"
       style="fill:#231f20;fill-opacity:1;fill-rule:nonzero;stroke:none"
       id="path3096" />
    <path
       d="M 582.2263,40.989765 L 584.62167,40.989765 L 584.62167,57.711195 L 582.2263,57.711195 L 582.2263,40.989765 z M 581.84273,33.474867 L 584.99742,33.474867 L 584.99742,36.639735 L 581.84273,36.639735"
       style="fill:#231f20;fill-opacity:1;fill-rule:nonzero;stroke:none"
       id="path3098" />
    <path
       d="M 598.38724,57.91942 C 597.67881,58.024707 596.98211,58.098291 596.27368,58.098291 C 592.90372,58.098291 591.63949,56.758917 591.63949,53.774485 L 591.63949,42.992563 L 588.89968,42.992563 L 588.89968,40.989765 L 591.63949,40.989765 L 591.63949,37.095326 L 594.02312,35.586475 L 594.02312,40.989765 L 598.52423,40.989765 L 598.52423,42.992563 L 594.02312,42.992563 L 594.02312,53.285234 C 594.02312,54.370588 594.31276,56.093535 596.76684,56.093535 C 597.54182,56.093535 597.85494,55.953022 598.38724,55.777283"
       style="fill:#231f20;fill-opacity:1;fill-rule:nonzero;stroke:none"
       id="path3100" />
    <path
       d="M 610.67723,45.770336 C 610.67723,44.645058 609.90226,42.604294 607.4834,42.604294 C 604.98626,42.604294 604.17998,44.645058 603.96471,45.770336 L 610.67723,45.770336 z M 613.02564,57.602777 C 612.00799,57.91942 610.7516,58.098291 609.20165,58.098291 C 604.03907,58.098291 601.05268,54.968257 601.05268,48.786863 C 601.05268,43.801198 603.12319,40.604235 607.58516,40.604235 C 611.51483,40.604235 613.41312,43.311947 613.41312,46.961369 L 613.41312,47.770395 L 603.79249,47.770395 L 603.79249,48.752028 C 603.79249,51.282044 604.91581,56.093535 609.72613,56.093535 C 611.5892,56.093535 612.25849,55.809378 613.02564,55.633639"
       style="fill:#231f20;fill-opacity:1;fill-rule:nonzero;stroke:none"
       id="path3102" />
    <path
       d="M 616.77917,50.156766 L 627.45711,50.156766 L 627.45711,47.770134 L 616.77917,47.770134 L 616.77917,50.156766 z"
       style="fill:#231f20;fill-opacity:1;fill-rule:nonzero;stroke:none"
       id="path3104" />
    <path
       d="M 634.9754,44.610223 L 637.92656,44.610223 C 641.37089,44.610223 642.80733,42.992563 642.80733,40.223793 C 642.80733,35.759083 639.22601,35.759083 637.26118,35.759083 L 634.9754,35.759083 L 634.9754,44.610223 z M 632.23951,33.472127 L 637.85611,33.472127 C 639.75049,33.472127 645.54714,33.546885 645.54714,40.18387 C 645.54714,45.062683 642.31417,46.889742 637.85611,46.889742 L 634.9754,46.889742 L 634.9754,57.708064 L 632.23951,57.708064"
       style="fill:#231f20;fill-opacity:1;fill-rule:nonzero;stroke:none"
       id="path3106" />
    <path
       d="M 654.54545,50.121931 C 652.78806,50.121931 649.06583,50.826453 649.06583,53.670372 C 649.06583,55.248109 650.18524,56.096666 651.41815,56.096666 C 652.92896,56.096666 654.6159,55.112293 655.32042,53.497764 C 655.73531,52.512999 655.95058,52.12473 655.95058,50.121931 L 654.54545,50.121931 z M 656.01711,55.498997 L 655.95058,55.498997 C 655.52786,56.304892 653.87615,58.098291 650.82322,58.098291 C 648.08342,58.098291 646.32211,56.410178 646.32211,53.428878 C 646.32211,49.525436 651.38293,48.227551 654.30278,48.227551 C 654.89771,48.227551 655.38696,48.227551 655.95058,48.121873 C 655.95058,47.316369 655.95058,45.484613 655.84098,44.926475 C 655.45741,43.067321 654.05228,42.607034 652.78806,42.607034 C 650.08348,42.607034 649.559,43.976937 649.38287,45.281085 L 646.71351,45.281085 C 646.74874,43.171434 648.14996,40.604235 652.7176,40.604235 C 657.91541,40.604235 658.33812,43.870084 658.33812,45.980127 L 658.33812,57.711195 L 656.01711,57.711195"
       style="fill:#231f20;fill-opacity:1;fill-rule:nonzero;stroke:none"
       id="path3108" />
    <path
       d="M 671.82188,57.91942 C 671.12128,58.024707 670.41675,58.098291 669.71615,58.098291 C 666.34227,58.098291 665.08587,56.758917 665.08587,53.774485 L 665.08587,42.992563 L 662.33824,42.992563 L 662.33824,40.989765 L 665.08587,40.989765 L 665.08587,37.095326 L 667.47342,35.586475 L 667.47342,40.989765 L 671.96279,40.989765 L 671.96279,42.992563 L 667.47342,42.992563 L 667.47342,53.285234 C 667.47342,54.370588 667.75131,56.093535 670.21323,56.093535 C 670.98037,56.093535 671.29741,55.953022 671.82188,55.777283"
       style="fill:#231f20;fill-opacity:1;fill-rule:nonzero;stroke:none"
       id="path3110" />
    <path
       d="M 675.61456,40.989765 L 678.0021,40.989765 L 678.0021,44.221562 L 678.06864,44.221562 C 678.56181,43.102547 679.82995,40.608932 683.65785,40.608932 L 683.65785,43.171434 C 679.86517,43.171434 678.0021,46.29951 678.0021,50.792792 L 678.0021,57.711195 L 675.61456,57.711195"
       style="fill:#231f20;fill-opacity:1;fill-rule:nonzero;stroke:none"
       id="path3112" />
    <path
       d="M 686.89082,40.989765 L 689.27836,40.989765 L 689.27836,57.711195 L 686.89082,57.711195 L 686.89082,40.989765 z M 686.50333,33.474867 L 689.66585,33.474867 L 689.66585,36.639735 L 686.50333,36.639735"
       style="fill:#231f20;fill-opacity:1;fill-rule:nonzero;stroke:none"
       id="path3114" />
    <path
       d="M 703.64278,45.770336 C 703.64278,44.645058 702.86389,42.604294 700.44895,42.604294 C 697.9479,42.604294 697.14552,44.645058 696.93025,45.770336 L 703.64278,45.770336 z M 705.9951,57.602777 C 704.97746,57.91942 703.71323,58.098291 702.17111,58.098291 C 697.00462,58.098291 694.01823,54.968257 694.01823,48.786863 C 694.01823,43.801198 696.09265,40.604235 700.55071,40.604235 C 704.48429,40.604235 706.38258,43.311947 706.38258,46.961369 L 706.38258,47.770395 L 696.75804,47.770395 L 696.75804,48.752028 C 696.75804,51.282044 697.88527,56.093535 702.68776,56.093535 C 704.55866,56.093535 705.22012,55.809378 705.9951,55.633639"
       style="fill:#231f20;fill-opacity:1;fill-rule:nonzero;stroke:none"
       id="path3116" />
    <path
       d="M 406.20939,71.897913 L 419.2587,71.897913 L 436.21418,118.01003 L 436.39423,118.01003 L 453.43583,71.897913 L 466.04285,71.897913 L 466.04285,128.61621 L 457.2559,128.61621 L 457.2559,79.623776 L 457.07977,79.623776 L 439.14186,128.61621 L 431.68959,128.61621 L 413.7556,79.623776 L 413.57947,79.623776 L 413.57947,128.61621 L 406.20939,128.61621"
       style="fill:#231f20;fill-opacity:1;fill-rule:nonzero;stroke:none"
       id="path3118" />
    <path
       d="M 491.28429,126.07211 C 499.26887,126.07211 500.24738,116.20724 500.24738,109.05517 C 500.24738,101.9031 499.26887,92.036665 491.28429,92.036665 C 483.378,92.036665 482.40341,101.9031 482.40341,109.05517 C 482.40341,116.20724 483.378,126.07211 491.28429,126.07211 z M 472.63795,109.05517 C 472.63795,95.819554 478.8534,88.582943 491.28429,88.582943 C 503.71127,88.582943 510.01283,95.819554 510.01283,109.05517 C 510.01283,122.28922 503.71127,129.5227 491.28429,129.5227 C 478.8534,129.5227 472.63795,122.28922 472.63795,109.05517"
       style="fill:#231f20;fill-opacity:1;fill-rule:nonzero;stroke:none"
       id="path3120" />
    <path
       d="M 516.96411,89.486688 L 525.93502,89.486688 L 525.93502,98.774631 L 526.11115,98.774631 C 527.53193,95.899009 531.61816,88.579812 540.93742,88.579812 C 548.3936,88.579812 551.59135,94.339276 551.59135,100.01028 L 551.59135,128.61621 L 542.62044,128.61621 L 542.62044,104.11999 C 542.62044,99.189125 541.82981,94.745942 537.29739,94.745942 C 528.42041,94.745942 525.93502,107.57372 525.93502,112.42317 L 525.93502,128.61621 L 516.96411,128.61621"
       style="fill:#231f20;fill-opacity:1;fill-rule:nonzero;stroke:none"
       id="path3122" />
    <path
       d="M 583.75276,128.94616 C 581.97972,129.35596 579.58043,129.51957 577.54123,129.51957 C 569.10654,129.51957 564.22186,127.13593 564.22186,119.5725 L 564.22186,93.761568 L 557.47802,93.761568 L 557.47802,89.486688 L 564.22186,89.486688 L 564.22186,80.279372 L 573.18494,75.263178 L 573.18494,89.486688 L 584.72735,89.486688 L 584.72735,93.761568 L 573.18494,93.761568 L 573.18494,116.28826 C 573.18494,122.04185 573.80726,124.83332 579.58043,124.83332 C 581.00904,124.83332 582.51202,124.66972 583.75276,124.17459"
       style="fill:#231f20;fill-opacity:1;fill-rule:nonzero;stroke:none"
       id="path3124" />
    <path
       d="M 590.50051,89.486688 L 599.46751,89.486688 L 599.46751,99.433751 L 599.64364,99.433751 C 602.48521,94.172931 605.58902,89.161042 613.31919,88.579812 L 613.31919,97.21529 C 604.70837,97.463047 599.46751,100.17389 599.46751,110.69553 L 599.46751,128.61621 L 590.50051,128.61621"
       style="fill:#231f20;fill-opacity:1;fill-rule:nonzero;stroke:none"
       id="path3126" />
    <path
       d="M 635.48031,71.933139 L 644.8935,71.933139 L 636.22397,82.663004 L 629.56233,82.663004 L 635.48031,71.933139 z M 641.91103,100.83262 C 641.91103,97.790258 640.75248,92.036665 634.09475,92.036665 C 627.16304,92.036665 625.83619,98.611026 625.66006,100.83262 L 641.91103,100.83262 z M 649.8956,127.3011 C 646.16947,128.70154 642.8817,129.51957 637.55865,129.51957 C 625.83619,129.51957 616.43083,123.11038 616.43083,107.32596 C 616.43083,96.475151 621.13546,88.579812 634.44701,88.579812 C 648.12647,88.579812 650.69798,97.048553 650.69798,104.61512 L 625.38999,104.61512 C 625.38999,112.34215 629.12004,125.1621 641.81317,125.1621 C 644.57647,125.1621 647.23016,124.66972 649.8956,123.52174"
       style="fill:#231f20;fill-opacity:1;fill-rule:nonzero;stroke:none"
       id="path3128" />
    <path
       d="M 679.2859,110.28456 C 675.55585,110.53192 665.43813,111.27519 665.43813,118.50828 C 665.43813,122.04185 667.65346,124.34407 670.58506,124.34407 C 673.69278,124.34407 679.2859,121.5526 679.2859,114.89252 L 679.2859,110.28456 z M 679.2859,123.19296 L 679.10585,123.19296 C 677.68507,125.49088 673.95893,129.5227 667.20727,129.5227 C 660.55345,129.5227 655.67268,125.1621 655.67268,119.73924 C 655.67268,107.66217 673.69278,107.08133 679.2859,106.83358 L 679.2859,103.38612 C 679.2859,99.111236 679.2859,92.036665 673.33269,92.036665 C 667.82959,92.036665 666.85501,95.9859 666.49883,100.59112 L 657.08955,100.59112 C 657.53575,94.750639 660.01723,88.582943 673.33269,88.582943 C 687.09826,88.582943 688.25289,95.738534 688.25289,103.38612 L 688.25289,128.61895 L 679.2859,128.61895"
       style="fill:#231f20;fill-opacity:1;fill-rule:nonzero;stroke:none"
       id="path3130" />
    <path
       d="M 697.53301,128.61895 L 706.49857,128.61895 L 706.49857,71.901044 L 697.53301,71.901044 L 697.53301,128.61895 z"
       style="fill:#231f20;fill-opacity:1;fill-rule:nonzero;stroke:none"
       id="path3132" />
    <path
       d="M 768.75624,135.54362 C 766.96362,133.75922 765.91075,131.36815 765.91075,128.81778 L 765.91075,106.81988 C 765.91075,104.10747 768.41572,102.61388 770.11831,102.61388 L 792.19332,102.61388 C 796.74923,102.60018 801.67697,106.19442 801.6848,112.04586 C 801.68871,117.26402 797.47332,121.51581 792.27943,121.52951 C 788.94078,121.52951 786.70197,119.97604 785.42209,118.67189 C 785.41817,118.66876 784.57666,117.83703 784.30659,117.56657 C 784.49055,117.07106 784.67451,116.43503 784.67451,115.55164 C 784.67451,112.40047 782.08344,109.83014 778.89352,109.82114 C 777.35531,109.81057 775.98932,110.36558 774.93254,111.41571 C 773.84836,112.49832 773.19081,114.05023 773.19081,115.56691 C 773.19081,117.03153 773.86402,118.61709 774.93254,119.69345 C 775.98932,120.7467 777.37488,121.30484 778.94049,121.30015 C 779.80548,121.30015 780.52566,121.06022 780.89749,120.92244 C 781.09319,121.11814 782.03256,122.02776 782.03256,122.02776 C 782.71751,122.67475 784.93284,125.06425 784.94458,128.83148 C 784.94458,128.83148 784.94458,128.83774 784.94458,128.84401 C 784.94458,134.68567 780.0325,138.30926 775.47659,138.31865 C 772.94814,138.32452 770.56059,137.33702 768.75624,135.54362 z M 728.32061,118.89068 C 726.52799,117.09728 725.49469,114.63733 725.48295,112.14645 C 725.47904,109.61918 726.46145,107.23437 728.25798,105.43471 C 730.04668,103.64131 732.43032,102.61701 734.98616,102.61388 L 756.98681,102.61388 C 759.69922,102.61701 761.23351,105.08167 761.23742,106.78778 L 761.23742,128.86358 C 761.24525,131.36502 760.1963,133.83437 758.39585,135.63051 C 757.16685,136.87047 755.01024,138.34448 751.75769,138.35074 C 746.53641,138.35818 742.28579,134.13692 742.27405,128.95243 C 742.27405,128.94929 742.27405,128.94186 742.27405,128.93873 C 742.27405,125.61338 743.83183,123.37496 745.13128,122.08295 C 745.1391,122.08295 745.96887,121.24496 746.23894,120.97763 C 746.73211,121.15494 747.37009,121.34281 748.25466,121.34281 C 751.40935,121.34281 753.96911,118.75291 753.98477,115.56064 C 753.98477,114.0287 753.44072,112.6588 752.38394,111.59458 C 751.30367,110.50922 749.74981,109.8638 748.23509,109.8595 C 746.77516,109.85637 745.18607,110.51822 744.10972,111.59771 C 743.05685,112.65097 742.50106,114.03183 742.50106,115.60057 C 742.50106,115.60057 742.50106,115.60644 742.50106,115.60957 C 742.50106,116.46439 742.74373,117.192 742.87681,117.56657 C 742.68502,117.76227 741.77306,118.70868 741.77306,118.70868 C 741.13116,119.38894 738.73187,121.60426 734.97442,121.6074 C 732.44989,121.61679 730.08974,120.65199 728.32061,118.89068 z M 765.91075,71.665812 C 765.90292,69.1675 766.88534,66.702849 768.68578,64.901621 C 769.91478,63.663229 772.07532,62.188039 775.32394,62.181776 C 777.83674,62.181776 780.30256,63.200202 782.07561,64.97677 C 783.833,66.728681 784.80759,69.080218 784.80759,71.584792 C 784.80759,71.587532 784.80759,71.593794 784.80759,71.601622 C 784.80759,74.92853 783.26155,77.157559 781.95819,78.446442 C 781.95036,78.449573 781.1245,79.28404 780.85052,79.559586 C 780.36519,79.376019 779.71938,79.18619 778.83872,79.18619 C 775.69186,79.18619 773.12427,81.782352 773.10861,84.973444 C 773.1047,86.508127 773.65658,87.87803 774.71727,88.937943 C 775.79362,90.024864 777.33574,90.673024 778.85438,90.683592 L 778.86221,90.683592 C 780.32996,90.683592 781.89948,90.011165 782.98366,88.931681 C 784.03261,87.881161 784.5884,86.502256 784.5884,84.933521 C 784.5884,84.930389 784.5884,84.927258 784.5884,84.924518 C 784.5884,84.069699 784.34182,83.342084 784.21657,82.967514 C 784.40053,82.771813 785.32032,81.828146 785.32032,81.828146 C 785.96222,81.146325 788.35368,78.932562 792.11113,78.926299 C 797.96257,78.915731 801.59086,83.828204 801.6026,88.384111 C 801.60652,90.917649 800.6241,93.302847 798.82757,95.105248 C 797.04278,96.892776 794.65523,97.903373 792.09547,97.906504 L 770.11048,97.906504 C 767.39416,97.903373 765.91075,95.453986 765.91075,93.746304 L 765.91075,71.665812 z M 745.20173,78.475405 L 745.18999,78.475405 C 744.51286,77.827246 742.30145,75.446745 742.29362,71.668552 C 742.29362,71.662681 742.29362,71.656419 742.29362,71.650548 C 742.29362,65.815934 747.19787,62.198607 751.75378,62.184908 C 754.28223,62.181776 756.66586,63.166541 758.46631,64.953678 C 760.25501,66.741206 761.23351,69.135405 761.23742,71.691645 L 761.23742,93.68368 C 761.23742,96.400393 758.82639,97.906504 757.1238,97.906504 L 735.02922,97.906504 C 732.52817,97.913941 730.07017,96.895907 728.26972,95.102508 C 727.02898,93.869986 725.5534,91.71415 725.5534,88.45926 C 725.54949,85.947249 726.56713,83.4916 728.348,81.707594 C 730.10148,79.953727 732.44206,78.984618 734.94702,78.981487 C 738.28176,78.978356 740.52449,80.533391 741.81611,81.831277 C 741.81611,81.831277 742.64588,82.666135 742.92769,82.936593 C 742.73982,83.430541 742.54803,84.066568 742.54803,84.953482 C 742.54803,88.103085 745.14693,90.673024 748.33294,90.686723 C 749.87506,90.696116 751.24496,90.134847 752.31348,89.075325 C 753.39766,87.995841 754.04739,86.450199 754.04739,84.933521 C 754.04739,83.465767 753.37809,81.88803 752.30566,80.808546 C 751.24887,79.755286 749.8594,79.197149 748.28988,79.20302 C 747.4288,79.20302 746.71254,79.450777 746.33288,79.580722 C 746.13718,79.389718 745.20173,78.475405 745.20173,78.475405 z M 763.61323,64.262855 C 760.86951,60.178978 756.37622,57.642309 751.79683,57.642309 C 743.94925,57.642309 737.80425,63.874194 737.80425,71.829418 C 737.80425,72.595389 737.96473,73.668611 738.26219,74.998591 C 737.5381,74.845945 736.19559,74.584489 735.07227,74.584489 C 727.12292,74.584489 720.88399,80.710696 720.88399,88.520319 C 720.88399,93.122411 723.45549,97.617259 727.57694,100.36333 C 723.41635,103.14893 720.91922,107.48487 720.91922,112.0486 C 720.91922,119.77133 727.29122,126.04588 735.11924,126.04588 C 736.07034,126.04588 737.23672,125.82435 738.23871,125.59929 C 737.96473,126.88074 737.80425,127.95083 737.80425,128.72776 C 737.80425,136.6916 743.94925,142.92035 751.79683,142.92035 C 756.44668,142.92035 760.78731,140.49092 763.50364,136.43327 C 766.12211,140.32145 770.82283,142.92035 775.33569,142.92035 C 783.14805,142.92035 789.26956,136.6916 789.26956,128.72776 C 789.26956,127.6972 789.03863,126.44785 788.85467,125.59929 C 790.18935,125.88228 791.25787,126.04588 792.01719,126.04588 C 799.8413,126.04588 806.20939,119.77133 806.20939,112.0486 C 806.20939,107.44377 803.72791,102.96849 799.71996,100.28074 C 803.72791,97.58673 806.20939,93.128673 806.20939,88.514056 C 806.20939,80.834379 799.8139,74.578226 791.95065,74.578226 C 790.97215,74.578226 789.77838,74.83342 788.84685,75.032252 C 788.99949,74.307768 789.26956,72.931603 789.26956,71.829418 C 789.26956,63.874194 783.14805,57.642309 775.33569,57.642309 C 770.78369,57.642309 766.34129,60.175847 763.61323,64.262855"
       style="fill:#ef2c30;fill-opacity:1;fill-rule:nonzero;stroke:none"
       id="path3134" />
  </g>
</svg>
