<svg width="112" height="71" viewBox="0 0 112 71" fill="none" xmlns="http://www.w3.org/2000/svg">
<path opacity="0.1" d="M88.0318 24.8897L88.1463 25.2303H88.5058H88.6667C101.268 25.2303 111.5 35.3813 111.5 47.8652C111.5 59.2534 103.004 68.6234 91.8159 70.1857L91.3851 70.2459V70.5H21.5632C9.92728 70.5 0.5 61.1468 0.5 49.6202C0.5 38.8717 8.67115 29.9844 19.2082 28.737L19.565 28.6947L19.6388 28.3431C22.9698 12.4588 37.2493 0.5 54.2299 0.5C69.9378 0.5 83.27 10.7256 88.0318 24.8897Z" stroke="black"/>
<path d="M57.0607 26.9393C56.4749 26.3536 55.5251 26.3536 54.9393 26.9393L45.3934 36.4853C44.8076 37.0711 44.8076 38.0208 45.3934 38.6066C45.9792 39.1924 46.9289 39.1924 47.5147 38.6066L56 30.1213L64.4853 38.6066C65.0711 39.1924 66.0208 39.1924 66.6066 38.6066C67.1924 38.0208 67.1924 37.0711 66.6066 36.4853L57.0607 26.9393ZM57.5 53L57.5 28L54.5 28L54.5 53L57.5 53Z" fill="#CED4DA"/>
</svg>
