<svg width="118" height="16" viewBox="0 0 118 16" fill="none" xmlns="http://www.w3.org/2000/svg">
    <path fill-rule="evenodd" clip-rule="evenodd" d="M60.3976 0.423901C60.6292 0.447119 60.8164 0.611757 60.8609 0.827052L63.7304 14.6967C63.7615 14.8444 63.7192 14.9964 63.619 15.1125C63.5187 15.2286 63.3672 15.2961 63.209 15.2961H61.4023C61.1439 15.2961 60.9233 15.121 60.8788 14.8803L59.5332 7.66794L56.0021 15.2771C55.9175 15.4587 55.7259 15.5769 55.5164 15.5769C55.307 15.5769 55.1154 15.4608 55.0308 15.2771L51.4997 7.66794L50.1541 14.8803C50.1096 15.121 49.889 15.2961 49.6306 15.2961H47.8239C47.6657 15.2961 47.5142 15.2286 47.4139 15.1125C47.3137 14.9964 47.2714 14.8444 47.3025 14.6967L50.172 0.827052C50.2165 0.611757 50.4036 0.447119 50.6353 0.423901C50.867 0.400683 51.0854 0.520995 51.1789 0.723626L55.5164 10.1481L59.854 0.723626C59.9453 0.520995 60.1659 0.400683 60.3976 0.423901ZM6.54527 12.7739H2.81148V1.48987C2.81148 1.21125 2.57311 0.987513 2.28127 0.987513H0.530216C0.238375 0.985402 0 1.21125 0 1.48987V14.7938C0 15.0724 0.238375 15.2962 0.530216 15.2962H6.54527C6.83934 15.2962 7.07549 15.0703 7.07549 14.7938V13.2762C7.07772 12.9997 6.83934 12.7739 6.54527 12.7739ZM14.6682 5.78513C11.7587 5.78513 9.48187 7.93597 9.48187 10.682C9.48187 13.4281 11.7609 15.5789 14.6682 15.5789C17.5755 15.5789 19.8545 13.4281 19.8545 10.682C19.8545 7.93597 17.5777 5.78513 14.6682 5.78513ZM17.1165 10.682C17.1165 11.9907 16.0182 13.0545 14.6682 13.0545C13.3181 13.0545 12.2198 11.9907 12.2198 10.682C12.2198 9.37338 13.3181 8.30957 14.6682 8.30957C16.0182 8.30957 17.1165 9.37338 17.1165 10.682ZM28.2284 5.78513C29.1597 5.78513 30.0976 6.01098 30.806 6.40147C30.9686 6.49223 31.0689 6.65687 31.0667 6.83417V8.88158C31.0667 9.09055 30.9308 9.2784 30.7236 9.35228C30.5186 9.42615 30.2847 9.37127 30.1377 9.21297C29.5517 8.57975 28.8656 8.27158 28.0413 8.27158C26.7536 8.27158 25.6665 9.36705 25.6665 10.663C25.6665 12.092 26.689 13.0904 28.1527 13.0904C28.9035 13.0904 29.554 12.7864 30.1421 12.1638C30.2892 12.0076 30.5231 11.9548 30.728 12.0287C30.933 12.1047 31.0689 12.2904 31.0689 12.4994V14.5278C31.0689 14.7135 30.9597 14.8824 30.7882 14.9711C29.975 15.3869 29.1307 15.5789 28.1349 15.5789C25.2142 15.5789 22.9285 13.4513 22.9285 10.7348C22.9285 7.91276 25.2075 5.78513 28.2284 5.78513ZM39.4967 5.78513C36.5872 5.78513 34.3104 7.93597 34.3104 10.682C34.3104 13.4281 36.5895 15.5789 39.4967 15.5789C42.404 15.5789 44.6831 13.4281 44.6831 10.682C44.6831 7.93597 42.4062 5.78513 39.4967 5.78513ZM41.9451 10.682C41.9451 11.9907 40.8468 13.0545 39.4967 13.0545C38.1467 13.0545 37.0484 11.9907 37.0484 10.682C37.0484 9.37338 38.1467 8.30957 39.4967 8.30957C40.8468 8.30957 41.9451 9.37338 41.9451 10.682ZM71.5168 5.78513C68.6072 5.78513 66.3304 7.93597 66.3304 10.682C66.3304 13.4281 68.6095 15.5789 71.5168 15.5789C74.424 15.5789 76.7031 13.4281 76.7031 10.682C76.7031 7.93597 74.424 5.78513 71.5168 5.78513ZM73.9651 10.682C73.9651 11.9907 72.8668 13.0545 71.5168 13.0545C70.1667 13.0545 69.0684 11.9907 69.0684 10.682C69.0684 9.37338 70.1667 8.30957 71.5168 8.30957C72.8668 8.30957 73.9651 9.37338 73.9651 10.682ZM83.2059 6.03422H84.3132C84.6072 6.03422 84.8434 6.25796 84.8434 6.53658V8.01831C84.8434 8.29482 84.6072 8.52067 84.3132 8.52067H83.2059V14.7917C83.2059 15.0682 82.9698 15.294 82.6757 15.294H81.0004C80.7086 15.294 80.4702 15.0703 80.4702 14.7917V8.51856H80.0893C79.7974 8.51856 79.559 8.29482 79.559 8.0162V6.53447C79.559 6.25796 79.7952 6.03211 80.0893 6.03211H80.4702V3.37681C80.4702 3.1003 80.7064 2.87445 81.0004 2.87445H82.6757C82.9676 2.87445 83.2059 3.09819 83.2059 3.37681V6.03422ZM90.1614 1.14572C89.2324 1.14572 88.475 1.8697 88.475 2.76043C88.475 3.63005 89.2302 4.33926 90.1614 4.33926C91.0927 4.33926 91.8479 3.63005 91.8479 2.76043C91.8479 1.8697 91.0904 1.14572 90.1614 1.14572ZM89.3234 6.03215H90.9987C91.2928 6.03215 91.5312 6.25799 91.529 6.53661V14.7917C91.529 15.0682 91.2928 15.2941 90.9987 15.2941H89.3234C89.0316 15.2941 88.7932 15.0703 88.7932 14.7917V6.5345C88.7932 6.25799 89.0294 6.03215 89.3234 6.03215ZM100.612 5.78513C97.7023 5.78513 95.4255 7.93597 95.4255 10.682C95.4255 13.4281 97.7045 15.5789 100.612 15.5789C103.519 15.5789 105.798 13.4281 105.798 10.682C105.798 7.93597 103.519 5.78513 100.612 5.78513ZM103.06 10.682C103.06 11.9907 101.962 13.0545 100.612 13.0545C99.2617 13.0545 98.1634 11.9907 98.1634 10.682C98.1634 9.37338 99.2617 8.30957 100.612 8.30957C101.962 8.30957 103.06 9.37338 103.06 10.682ZM112.043 6.41624C112.642 6.01309 113.391 5.78513 114.19 5.78513C116.594 5.78513 117.813 7.15922 117.808 9.87152V14.7937C117.808 15.0703 117.572 15.2961 117.278 15.2961H115.603C115.311 15.2961 115.073 15.0724 115.073 14.7937V10.0657C115.073 8.55231 114.812 8.20404 113.685 8.20404C112.283 8.20404 112.056 9.02933 112.056 11.0008V14.7916C112.056 15.0681 111.82 15.294 111.526 15.294H109.851C109.559 15.294 109.32 15.0703 109.32 14.7916V6.53444C109.32 6.25794 109.557 6.03209 109.851 6.03209H111.526C111.778 6.03209 111.987 6.19673 112.043 6.41624Z" fill="#00ADA8" />
</svg>