<svg xmlns="http://www.w3.org/2000/svg" width="22" height="15" viewBox="0 0 22 15">
  <path fill="#212529" d="M21.0571,6 L0.942857,6 C0.0754284,6 0,6.6705 0,7.5 C0,8.3295 0.0754284,9 0.942857,9 L21.0571,9 C21.9246,9 22,8.3295 22,7.5 C22,6.6705 21.9246,6 21.0571,6 Z M21.0571,12 L0.942857,12 C0.0754284,12 0,12.6705 0,13.5 C0,14.3295 0.0754284,15 0.942857,15 L21.0571,15 C21.9246,15 22,14.3295 22,13.5 C22,12.6705 21.9246,12 21.0571,12 Z M0.942857,3 L21.0571,3 C21.9246,3 22,2.3295 22,1.5 C22,0.6705 21.9246,0 21.0571,0 L0.942857,0 C0.0754284,0 0,0.6705 0,1.5 C0,2.3295 0.0754284,3 0.942857,3 Z" opacity=".4"/>
</svg>
