<svg width="117" height="100" viewBox="0 0 117 100" fill="none" xmlns="http://www.w3.org/2000/svg">
<g clip-path="url(#clip0_82_1122)">
<path d="M107.737 62.0731C107.562 62.0723 107.395 62.0046 107.268 61.8839C103.602 58.3441 103.203 55.7988 105.559 50.9782C108.109 45.7523 107.074 41.9964 102.092 38.4242C101.947 38.319 101.849 38.1606 101.82 37.9835C101.79 37.8064 101.832 37.6249 101.936 37.4784C101.987 37.4064 102.052 37.3452 102.127 37.2986C102.202 37.2519 102.286 37.2207 102.373 37.2066C102.461 37.1926 102.55 37.196 102.636 37.2167C102.721 37.2373 102.802 37.2748 102.874 37.3271C108.357 41.256 109.592 45.7846 106.767 51.5726C104.513 56.1932 105.149 57.9604 108.206 60.9111C108.303 61.0047 108.37 61.1251 108.398 61.2569C108.426 61.3888 108.414 61.526 108.363 61.6509C108.313 61.7758 108.226 61.8828 108.115 61.9581C108.003 62.0333 107.872 62.0734 107.737 62.0731Z" fill="white"/>
<path d="M106.616 72.5736H106.535C106.357 72.5519 106.195 72.4609 106.084 72.3203C105.973 72.1796 105.922 72.0007 105.942 71.8225C106.222 69.3743 104.788 67.98 102.976 66.2128C101.834 65.1735 100.816 64.0057 99.9409 62.7325C97.6117 59.1008 97.6979 54.4964 100.221 48.2275C100.25 48.1394 100.297 48.0583 100.358 47.989C100.42 47.9198 100.495 47.8639 100.578 47.8249C100.662 47.786 100.753 47.7648 100.846 47.7626C100.938 47.7604 101.03 47.7773 101.116 47.8122C101.201 47.8472 101.279 47.8993 101.344 47.9656C101.408 48.0318 101.459 48.1108 101.492 48.1974C101.524 48.284 101.539 48.3765 101.535 48.469C101.531 48.5616 101.507 48.6522 101.467 48.7354C99.1268 54.5558 99.0028 58.7711 101.073 61.9975C101.89 63.1861 102.844 64.2744 103.915 65.24C105.829 67.1045 107.635 68.8662 107.284 71.9791C107.264 72.1424 107.184 72.2928 107.061 72.4021C106.938 72.5114 106.78 72.5723 106.616 72.5736Z" fill="white"/>
<path d="M101.554 82.0571C98.3969 82.0161 95.3078 81.1338 92.6035 79.501C88.1553 76.8691 85.0012 72.7564 84.1709 68.5033C82.8715 61.8669 84.4243 58.8621 85.7884 56.2195L86.182 55.4575C87.3628 53.0905 87.751 49.81 87.2604 46.454C86.5918 41.9576 82.2407 38.4882 78.488 37.5046C74.3688 36.4238 71.646 37.8126 68.783 39.2825C66.0871 40.6444 63.3481 42.055 59.671 41.1417C54.6082 39.8825 52.6617 36.6561 51.2922 34.2998C50.9237 33.5845 50.4574 32.9242 49.9066 32.3382C49.6998 32.1343 49.4541 31.9744 49.1841 31.8679C49.0547 32.0084 48.6881 32.5922 48.3376 34.8944C47.6421 39.4177 41.6681 42.9034 36.2925 43.6654C34.977 43.8492 32.5777 44.4652 31.2621 46.4972C30.0544 48.3725 29.9519 51.1017 30.9655 54.6036C32.7556 60.8077 31.4022 69.168 25.3528 73.1402C16.4726 78.9713 6.95626 75.7612 2.5135 69.7787C-1.09355 64.9149 -0.457306 55.2251 2.40569 49.2102C4.20113 45.4272 3.73745 43.098 3.15514 40.1473C2.82427 38.6342 2.60437 37.0989 2.49731 35.5537C2.40551 33.8006 2.69558 32.0484 3.34733 30.419C3.99908 28.7895 4.99689 27.3219 6.2715 26.1179C7.59091 24.8302 9.16674 23.8362 10.8958 23.2011C12.625 22.566 14.4683 22.3039 16.3055 22.4322C22.7755 22.9726 26.9864 19.5787 28.1672 12.8234C28.5466 10.7451 29.3399 8.76483 30.4997 7.00065C31.6595 5.23648 33.162 3.72462 34.9176 2.55535C36.5641 1.42555 38.423 0.644026 40.3808 0.25842C42.3387 -0.127187 44.3544 -0.108732 46.3049 0.312647C49.4159 1.00979 52.279 2.52842 55.0449 3.99837C59.2073 6.2033 62.7982 8.11092 66.2974 6.89497C68.2279 6.18222 70.1147 5.35569 71.9479 4.41979C75.9755 2.46886 79.7767 0.636822 84.3003 1.44746C91.1909 2.70664 95.666 9.04592 95.4449 17.2279C95.3209 21.6972 98.3618 24.7938 104.471 26.3773C112.903 28.593 118.489 37.0614 116.651 44.876C116.343 46.173 115.998 47.4322 115.669 48.6589C114.321 53.5768 113.162 57.8191 115.06 62.4668C115.799 64.2737 116.159 66.2135 116.118 68.1659C116.078 70.1183 115.637 72.0414 114.823 73.8157C113.653 76.3232 111.167 79.6739 105.937 81.3816C104.52 81.8347 103.041 82.0626 101.554 82.0571ZM75.6736 34.9591C76.8135 34.9643 77.9479 35.1169 79.0488 35.4131C83.4646 36.5696 88.5975 40.7256 89.4062 46.1352C89.9454 49.9182 89.5033 53.6687 88.1284 56.4032C87.999 56.6627 87.8642 56.9437 87.724 57.1922C86.457 59.6404 85.1468 62.1695 86.3006 68.0655C87.0069 71.6701 89.8484 75.3289 93.7196 77.6149C97.4938 79.8468 101.715 80.4628 105.296 79.3063C108.876 78.1498 111.474 75.9396 112.887 72.897C113.567 71.3903 113.936 69.761 113.97 68.1076C114.004 66.4542 113.704 64.8111 113.087 63.2774C110.93 57.9543 112.219 53.1606 113.626 48.0806C113.955 46.8863 114.289 45.6488 114.585 44.3896C116.16 37.6884 111.291 30.398 103.958 28.4741C94.9813 26.1178 93.2236 21.0271 93.326 17.1738C93.4878 11.2886 90.6302 4.80359 83.9552 3.58224C80.1217 2.87969 76.7842 4.50091 72.9292 6.37078C71.02 7.34459 69.0539 8.20182 67.0415 8.93779C62.658 10.4672 58.4902 8.2568 54.1014 5.91136C51.4594 4.51167 48.7096 3.05796 45.9005 2.43107C44.2369 2.07586 42.5186 2.06376 40.8501 2.39544C39.1816 2.72712 37.5979 3.39568 36.1955 4.36042C34.6839 5.36466 33.3893 6.66352 32.389 8.17966C31.3886 9.69581 30.7028 11.3983 30.3725 13.1856C28.9652 21.0812 23.7892 25.2369 16.1761 24.5668C14.6461 24.4634 13.1116 24.6855 11.6732 25.2182C10.2348 25.7509 8.92503 26.5823 7.82971 27.658C6.77734 28.6462 5.95245 29.8524 5.4124 31.1927C4.87234 32.5329 4.63011 33.975 4.70256 35.4186C4.80313 36.8637 5.00857 38.2996 5.31722 39.7149C5.92649 42.7899 6.50336 45.6974 4.40059 50.1235C1.86649 55.4574 1.19795 64.3096 4.29279 68.4979C8.14786 73.6913 16.4403 76.4475 24.2421 71.3405C28.1565 68.7681 31.041 62.402 28.9652 55.2143C27.7683 51.0801 27.957 47.7511 29.5044 45.3246C31.2783 42.5738 34.3569 41.7632 36.0392 41.5416C41.8137 40.7256 45.8359 37.2938 46.251 34.5863C46.6338 32.0895 47.1622 30.3277 48.4994 29.8305C49.8365 29.3333 50.9687 30.371 51.3623 30.7115C52.0991 31.4432 52.7176 32.2855 53.1955 33.2082C54.468 35.3699 56.0478 38.018 60.2371 39.0556C63.1325 39.7798 65.3215 38.6612 67.8556 37.3695C70.0177 36.2346 72.4763 34.9591 75.6466 34.9591H75.6736Z" fill="white"/>
<path d="M58.5918 100.005C56.6044 99.9966 54.621 99.8268 52.6609 99.4975C31.5686 96.0441 26.9587 69.3742 26.9155 69.104C26.869 68.8174 26.9381 68.5239 27.1074 68.2882C27.2768 68.0526 27.5327 67.8941 27.8187 67.8476C28.1046 67.801 28.3974 67.8702 28.6325 68.0399C28.8676 68.2097 29.0257 68.466 29.0722 68.7527C29.1099 69.0067 33.4773 94.1527 53.033 97.3628C68.3131 99.8596 77.9696 92.4179 85.3346 72.5033C85.382 72.3678 85.4557 72.2429 85.5517 72.1362C85.6477 72.0296 85.7639 71.9433 85.8935 71.8821C86.0232 71.821 86.1637 71.7865 86.3069 71.7804C86.45 71.7743 86.5929 71.7969 86.7272 71.8468C86.8616 71.8967 86.9847 71.9729 87.0893 72.0711C87.1939 72.1692 87.278 72.2871 87.3366 72.4182C87.3952 72.5493 87.4271 72.6908 87.4305 72.8343C87.4339 72.9779 87.4088 73.1207 87.3565 73.2544C80.4983 91.6775 71.7152 100.005 58.5918 100.005Z" fill="white"/>
<path d="M56.9846 87.5756C56.2171 87.5755 55.4509 87.514 54.6932 87.3918C42.2275 85.3922 38.9224 73.2489 38.89 73.1246C38.8306 72.8515 38.879 72.566 39.0252 72.3279C39.1713 72.0898 39.4038 71.9177 39.6738 71.8477C39.9439 71.7778 40.2304 71.8154 40.4733 71.9528C40.7162 72.0901 40.8966 72.3164 40.9766 72.5842C41.0952 73.0328 43.9852 83.4954 55.0328 85.268C65.9726 87.0189 72.1084 73.4759 72.1731 73.3353C72.2248 73.1976 72.3041 73.072 72.406 72.9661C72.5079 72.8601 72.6303 72.776 72.7658 72.7192C72.9012 72.6624 73.0469 72.6338 73.1937 72.6354C73.3405 72.637 73.4855 72.6686 73.6197 72.7283C73.7539 72.788 73.8746 72.8746 73.9742 72.9827C74.0739 73.0908 74.1504 73.2182 74.1993 73.357C74.2481 73.4958 74.2681 73.643 74.2581 73.7899C74.2481 73.9367 74.2082 74.08 74.141 74.2109C72.8934 76.8689 71.2579 79.3259 69.2885 81.5012C65.6113 85.5003 61.4004 87.5756 56.9846 87.5756Z" fill="white"/>
<path d="M43.77 56.9174C45.0415 56.9174 46.0723 55.6351 46.0723 54.0532C46.0723 52.4713 45.0415 51.189 43.77 51.189C42.4985 51.189 41.4678 52.4713 41.4678 54.0532C41.4678 55.6351 42.4985 56.9174 43.77 56.9174Z" fill="white"/>
<path d="M68.7114 56.9174C69.9829 56.9174 71.0137 55.6351 71.0137 54.0532C71.0137 52.4713 69.9829 51.189 68.7114 51.189C67.4399 51.189 66.4092 52.4713 66.4092 54.0532C66.4092 55.6351 67.4399 56.9174 68.7114 56.9174Z" fill="white"/>
<path d="M49.2689 50.3999C49.1049 50.399 48.9451 50.3481 48.8106 50.254C43.8664 46.8385 38.5664 50.1297 38.3346 50.254C38.1537 50.3701 37.9341 50.4095 37.7243 50.3634C37.5145 50.3172 37.3316 50.1895 37.2157 50.0082C37.0999 49.8269 37.0607 49.6068 37.1067 49.3965C37.1527 49.1862 37.2802 49.0028 37.4611 48.8867C37.7199 48.7246 43.8934 44.8659 49.7272 48.8867C49.8704 48.9844 49.9785 49.1256 50.0356 49.2895C50.0927 49.4534 50.0959 49.6313 50.0446 49.7971C49.9933 49.9629 49.8902 50.1077 49.7506 50.2104C49.611 50.3131 49.4421 50.3681 49.2689 50.3674V50.3999Z" fill="white"/>
<path d="M74.0282 51.0268C73.8318 51.0297 73.6407 50.9626 73.489 50.8376C68.5017 46.671 63.8756 49.8919 63.6815 50.0324C63.5073 50.1428 63.2977 50.1824 63.0953 50.1431C62.893 50.1038 62.7133 49.9886 62.5929 49.821C62.4725 49.6534 62.4204 49.4461 62.4474 49.2413C62.4743 49.0365 62.5783 48.8498 62.738 48.7192C64.5246 47.5442 66.6482 46.9929 68.7793 47.1512C70.9104 47.3095 72.9299 48.1684 74.5242 49.5946C74.6529 49.7026 74.7449 49.848 74.7875 50.0106C74.8301 50.1733 74.8211 50.3453 74.7619 50.5026C74.7026 50.66 74.5961 50.7949 74.4569 50.8888C74.3177 50.9827 74.1528 51.031 73.9851 51.0268H74.0282Z" fill="white"/>
<path d="M56.6779 75.1135C55.6078 75.1375 54.561 74.7985 53.7072 74.1515C53.2007 74.5223 52.6016 74.7451 51.9765 74.7951C51.3514 74.8451 50.7247 74.7204 50.166 74.4348C49.6074 74.1492 49.1386 73.714 48.8119 73.1774C48.4852 72.6409 48.3134 72.024 48.3154 71.3954C48.3154 69.7742 49.7496 67.6827 51.8578 67.0288C51.8608 65.0676 52.0104 63.1093 52.3053 61.1705C52.323 61.0474 52.3647 60.9291 52.4281 60.8221C52.4914 60.7151 52.5752 60.6216 52.6746 60.5471C52.7739 60.4726 52.887 60.4185 53.0073 60.3877C53.1275 60.357 53.2527 60.3503 53.3755 60.3681C53.4983 60.3858 53.6166 60.4277 53.7233 60.4912C53.83 60.5547 53.9232 60.6386 53.9975 60.7382C54.0719 60.8378 54.1259 60.9512 54.1565 61.0717C54.1872 61.1923 54.1939 61.3176 54.1762 61.4408C53.8515 63.5356 53.7107 65.6551 53.7557 67.7746C53.7582 67.9043 53.7342 68.033 53.685 68.1529C53.6359 68.2728 53.5626 68.3813 53.4699 68.4717C53.2966 68.6406 53.0647 68.7356 52.8229 68.7365H52.7204C51.2431 69.0391 50.2025 70.5199 50.2025 71.3738C50.204 71.7747 50.3635 72.1588 50.6463 72.4423C50.9291 72.7257 51.3122 72.8856 51.7122 72.887C51.9523 72.8872 52.1889 72.8293 52.402 72.7183C52.6151 72.6073 52.7983 72.4463 52.9361 72.2492C53.0239 72.1307 53.1381 72.0345 53.2697 71.9682C53.4012 71.9019 53.5464 71.8674 53.6937 71.8674C53.8409 71.8674 53.9861 71.9019 54.1177 71.9682C54.2492 72.0345 54.3634 72.1307 54.4511 72.2492C54.7188 72.5742 55.0587 72.832 55.4435 73.0018C55.8282 73.1717 56.2473 73.2489 56.6672 73.2274C57.0695 73.2615 57.4742 73.2005 57.8487 73.0494C58.2233 72.8983 58.5573 72.6613 58.8239 72.3574C58.9127 72.248 59.0244 72.1592 59.151 72.0976C59.2777 72.036 59.4164 72.0029 59.5571 72.0007C59.6977 71.9977 59.837 72.0275 59.9642 72.0875C60.0914 72.1475 60.2031 72.2362 60.2904 72.3466C60.486 72.5886 60.7518 72.7636 61.051 72.8476C61.3503 72.9315 61.6681 72.9202 61.9606 72.8151C62.2531 72.7101 62.5059 72.5166 62.6838 72.2612C62.8618 72.0059 62.9561 71.7015 62.9539 71.39C62.9539 70.4605 62.0966 68.8446 60.9105 68.5258H60.8565C60.6798 68.4746 60.4996 68.4367 60.3173 68.4123C60.092 68.381 59.8855 68.2692 59.7359 68.0974C59.5863 67.9256 59.5037 67.7054 59.5032 67.4774C59.5373 65.5934 59.3362 63.7125 58.9047 61.8785L58.8508 61.6191C58.8207 61.4951 58.8159 61.3664 58.8368 61.2405C58.8576 61.1146 58.9038 60.9942 58.9723 60.8866C59.0408 60.779 59.1303 60.6864 59.2354 60.6144C59.3406 60.5424 59.4592 60.4927 59.5841 60.4678C59.709 60.443 59.8376 60.4438 59.9622 60.4701C60.0868 60.4964 60.2048 60.5478 60.309 60.621C60.4133 60.6943 60.5017 60.7878 60.5689 60.8962C60.6362 61.0046 60.6808 61.1255 60.7002 61.2517L60.7541 61.5111C61.1524 63.2176 61.3621 64.9628 61.3795 66.7153C63.4284 67.3044 64.814 69.6391 64.814 71.4063C64.8159 72.0201 64.6516 72.6229 64.3387 73.1506C64.0257 73.6783 63.5759 74.111 63.037 74.4027C62.4981 74.6944 61.8904 74.8342 61.2785 74.8071C60.6667 74.78 60.0736 74.5871 59.5625 74.2489C58.7198 74.8427 57.7075 75.146 56.6779 75.1135Z" fill="white"/>
<path d="M14.272 38.5484C14.2166 38.5559 14.1603 38.5559 14.1049 38.5484C13.9319 38.5038 13.7837 38.3923 13.6927 38.2383C13.6017 38.0843 13.5754 37.9004 13.6196 37.7269C15.1832 31.6688 18.0462 30.8906 23.2438 29.4692C28.4414 28.0479 29.6815 26.6375 31.0024 24.0056C31.0421 23.9262 31.097 23.8553 31.1639 23.797C31.2309 23.7388 31.3087 23.6943 31.3929 23.6662C31.477 23.6381 31.5658 23.6269 31.6542 23.6332C31.7427 23.6395 31.829 23.6632 31.9083 23.703C31.9876 23.7427 32.0583 23.7977 32.1164 23.8649C32.1745 23.932 32.2188 24.0099 32.2468 24.0942C32.2749 24.1785 32.2861 24.2676 32.2798 24.3562C32.2735 24.4448 32.2498 24.5314 32.2102 24.6108C30.6789 27.6642 29.0722 29.2746 23.5834 30.7716C18.4128 32.1821 16.2777 32.7658 14.9082 38.0619C14.8687 38.2009 14.7854 38.3235 14.6707 38.4112C14.5561 38.4988 14.4162 38.5469 14.272 38.5484Z" fill="white"/>
<path d="M31.6064 33.0523C31.4587 33.0512 31.3155 33.0014 31.1987 32.9108C31.082 32.8201 30.9981 32.6935 30.9602 32.5504C30.9222 32.4074 30.9322 32.2558 30.9885 32.119C31.0449 31.9822 31.1445 31.8676 31.2721 31.7931C35.8712 29.1288 36.5075 26.7239 37.2462 23.9353C38.1358 20.5901 41.8399 18.0825 46.0562 17.9907C46.1451 17.987 46.2338 18.0013 46.317 18.0328C46.4003 18.0642 46.4763 18.1121 46.5407 18.1737C46.6051 18.2352 46.6565 18.309 46.6919 18.3908C46.7272 18.4727 46.7457 18.5608 46.7464 18.65C46.7507 18.8282 46.6845 19.001 46.5623 19.1306C46.4401 19.2602 46.2717 19.3361 46.0939 19.3417C42.5192 19.4282 39.2734 21.5574 38.5455 24.2974C37.8176 27.0373 37.0251 30.0313 31.9407 32.9766C31.8372 33.0289 31.7223 33.055 31.6064 33.0523Z" fill="white"/>
</g>
<defs>
<clipPath id="clip0_82_1122">
<rect width="117" height="100" fill="white"/>
</clipPath>
</defs>
</svg>
