<svg width="15" height="14" viewBox="0 0 15 14" xmlns="http://www.w3.org/2000/svg">
<path d="M3.28542 11.7956V12.5134C3.28542 12.766 3.20586 12.9755 3.04672 13.1419C2.88711 13.3078 2.69515 13.3908 2.47084 13.3908H1.65626C1.43195 13.3908 1.24023 13.3078 1.08109 13.1419C0.92148 12.9755 0.841675 12.766 0.841675 12.5134V5.89332L2.40001 0.948166C2.48265 0.682298 2.62431 0.469603 2.82501 0.310082C3.0257 0.150561 3.25001 0.0708008 3.49792 0.0708008H11.5021C11.75 0.0708008 11.9743 0.150561 12.175 0.310082C12.3757 0.469603 12.5174 0.682298 12.6 0.948166L14.1583 5.89332V12.5134C14.1583 12.766 14.0785 12.9755 13.9189 13.1419C13.7598 13.3078 13.5681 13.3908 13.3438 13.3908H12.5292C12.3049 13.3908 12.1131 13.3078 11.954 13.1419C11.7944 12.9755 11.7146 12.766 11.7146 12.5134V11.7956H3.28542ZM3.07292 4.0987H11.9271L11.2188 1.86541H3.78126L3.07292 4.0987ZM4.27709 9.20338C4.58404 9.20338 4.84966 9.07709 5.07397 8.82451C5.29827 8.57194 5.41042 8.27284 5.41042 7.92721C5.41042 7.58158 5.29827 7.28248 5.07397 7.0299C4.84966 6.77733 4.58404 6.65104 4.27709 6.65104C3.97015 6.65104 3.70452 6.77733 3.48022 7.0299C3.25591 7.28248 3.14376 7.58158 3.14376 7.92721C3.14376 8.27284 3.25591 8.57194 3.48022 8.82451C3.70452 9.07709 3.97015 9.20338 4.27709 9.20338ZM10.7229 9.20338C11.0299 9.20338 11.2955 9.07709 11.5198 8.82451C11.7441 8.57194 11.8563 8.27284 11.8563 7.92721C11.8563 7.58158 11.7441 7.28248 11.5198 7.0299C11.2955 6.77733 11.0299 6.65104 10.7229 6.65104C10.416 6.65104 10.1504 6.77733 9.92605 7.0299C9.70174 7.28248 9.58959 7.58158 9.58959 7.92721C9.58959 8.27284 9.70174 8.57194 9.92605 8.82451C10.1504 9.07709 10.416 9.20338 10.7229 9.20338Z" />
</svg>
