<svg width="21" height="21" viewBox="0 0 21 21" fill="none" xmlns="http://www.w3.org/2000/svg">
<path d="M0.874023 17.5001V14.0001C0.874023 13.5043 1.04538 13.0887 1.38809 12.7532C1.73079 12.4178 2.14277 12.2501 2.62402 12.2501H5.48965C5.78132 12.2501 6.0584 12.323 6.3209 12.4689C6.5834 12.6147 6.79486 12.8116 6.95527 13.0595C7.37819 13.6282 7.89954 14.073 8.51934 14.3939C9.13913 14.7147 9.79902 14.8751 10.499 14.8751C11.2136 14.8751 11.8808 14.7147 12.5006 14.3939C13.1204 14.073 13.6344 13.6282 14.0428 13.0595C14.2324 12.8116 14.4548 12.6147 14.71 12.4689C14.9652 12.323 15.2313 12.2501 15.5084 12.2501H18.374C18.8699 12.2501 19.2855 12.4178 19.6209 12.7532C19.9563 13.0887 20.124 13.5043 20.124 14.0001V17.5001H13.999V15.5095C13.4886 15.8741 12.9381 16.1512 12.3475 16.3407C11.7568 16.5303 11.1407 16.6251 10.499 16.6251C9.87194 16.6251 9.25944 16.5267 8.66152 16.3298C8.06361 16.1329 7.50944 15.8522 6.99902 15.4876V17.5001H0.874023ZM10.499 14.0001C9.94486 14.0001 9.41986 13.8725 8.92402 13.6173C8.42819 13.3621 8.01257 13.0085 7.67715 12.5564C7.42923 12.1918 7.11934 11.9038 6.74746 11.6923C6.37559 11.4809 5.9709 11.3751 5.5334 11.3751C5.85423 10.8355 6.53236 10.409 7.56777 10.0954C8.60319 9.78189 9.58027 9.62512 10.499 9.62512C11.4178 9.62512 12.3949 9.78189 13.4303 10.0954C14.4657 10.409 15.1438 10.8355 15.4647 11.3751C15.0417 11.3751 14.6407 11.4809 14.2615 11.6923C13.8824 11.9038 13.5688 12.1918 13.3209 12.5564C13.0001 13.023 12.5917 13.3803 12.0959 13.6282C11.6001 13.8762 11.0678 14.0001 10.499 14.0001ZM3.49902 11.3751C2.76986 11.3751 2.15007 11.1199 1.63965 10.6095C1.12923 10.0991 0.874023 9.47929 0.874023 8.75012C0.874023 8.00637 1.12923 7.38293 1.63965 6.87981C2.15007 6.37668 2.76986 6.12512 3.49902 6.12512C4.24277 6.12512 4.86621 6.37668 5.36934 6.87981C5.87246 7.38293 6.12402 8.00637 6.12402 8.75012C6.12402 9.47929 5.87246 10.0991 5.36934 10.6095C4.86621 11.1199 4.24277 11.3751 3.49902 11.3751ZM17.499 11.3751C16.7699 11.3751 16.1501 11.1199 15.6396 10.6095C15.1292 10.0991 14.874 9.47929 14.874 8.75012C14.874 8.00637 15.1292 7.38293 15.6396 6.87981C16.1501 6.37668 16.7699 6.12512 17.499 6.12512C18.2428 6.12512 18.8662 6.37668 19.3693 6.87981C19.8725 7.38293 20.124 8.00637 20.124 8.75012C20.124 9.47929 19.8725 10.0991 19.3693 10.6095C18.8662 11.1199 18.2428 11.3751 17.499 11.3751ZM10.499 8.75012C9.76986 8.75012 9.15007 8.49491 8.63965 7.9845C8.12923 7.47408 7.87402 6.85429 7.87402 6.12512C7.87402 5.38137 8.12923 4.75793 8.63965 4.25481C9.15007 3.75168 9.76986 3.50012 10.499 3.50012C11.2428 3.50012 11.8662 3.75168 12.3693 4.25481C12.8725 4.75793 13.124 5.38137 13.124 6.12512C13.124 6.85429 12.8725 7.47408 12.3693 7.9845C11.8662 8.49491 11.2428 8.75012 10.499 8.75012Z" fill="#00ADA8"/>
</svg>

