<svg width="18" height="18" viewBox="0 0 18 18" xmlns="http://www.w3.org/2000/svg">
<path d="M12 18C10.0333 18 8.28333 17.4417 6.75 16.325C5.21667 15.2083 4.13333 13.7667 3.5 12H0V10H3.05C3 9.6 2.97933 9.229 2.988 8.887C2.996 8.54567 3.01667 8.25 3.05 8H0V6H3.5C4.13333 4.23333 5.21667 2.79167 6.75 1.675C8.28333 0.558334 10.0333 0 12 0C13.15 0 14.2377 0.204 15.263 0.612C16.2877 1.02067 17.2 1.58333 18 2.3L16.575 3.7C15.9583 3.16667 15.2627 2.75 14.488 2.45C13.7127 2.15 12.8833 2 12 2C10.5833 2 9.31667 2.37067 8.2 3.112C7.08333 3.854 6.24167 4.81667 5.675 6H12V8H5.075C5.00833 8.45 4.98333 8.846 5 9.188C5.01667 9.52933 5.04167 9.8 5.075 10H12V12H5.675C6.24167 13.1833 7.08333 14.1457 8.2 14.887C9.31667 15.629 10.5833 16 12 16C12.8833 16 13.7127 15.85 14.488 15.55C15.2627 15.25 15.9583 14.8333 16.575 14.3L18 15.7C17.2 16.4167 16.2877 16.979 15.263 17.387C14.2377 17.7957 13.15 18 12 18Z"/>
</svg>
