<svg viewBox="0 0 23 17" fill="none" xmlns="http://www.w3.org/2000/svg">
<path d="M11.5192 16.8132C9.2859 16.8132 7.3859 16.0382 5.81924 14.4882C4.25257 12.9382 3.46924 11.0466 3.46924 8.81323V8.63823L1.86924 10.2382L0.469238 8.83823L4.46924 4.83823L8.46924 8.83823L7.06924 10.2382L5.46924 8.63823V8.81323C5.46924 10.4799 6.0569 11.8966 7.23224 13.0632C8.40691 14.2299 9.83591 14.8132 11.5192 14.8132C11.9526 14.8132 12.3776 14.7632 12.7942 14.6632C13.2109 14.5632 13.6192 14.4132 14.0192 14.2132L15.5192 15.7132C14.8859 16.0799 14.2359 16.3549 13.5692 16.5382C12.9026 16.7216 12.2192 16.8132 11.5192 16.8132ZM18.4692 12.7882L14.4692 8.78823L15.8692 7.38823L17.4692 8.98823V8.81323C17.4692 7.14657 16.8819 5.7299 15.7072 4.56323C14.5319 3.39657 13.1026 2.81323 11.4192 2.81323C10.9859 2.81323 10.5609 2.86323 10.1442 2.96323C9.72757 3.06323 9.31924 3.21323 8.91924 3.41323L7.41924 1.91323C8.05257 1.54657 8.70257 1.27157 9.36924 1.08823C10.0359 0.904899 10.7192 0.813232 11.4192 0.813232C13.6526 0.813232 15.5526 1.58823 17.1192 3.13823C18.6859 4.68823 19.4692 6.5799 19.4692 8.81323V8.98823L21.0692 7.38823L22.4692 8.78823L18.4692 12.7882Z" />
</svg>
