<svg viewBox="0 0 51 51" fill="none" version="1.1" xmlns="http://www.w3.org/2000/svg">
  <circle
     cx="25.5"
     cy="25.5"
     r="25.5"
     fill="#FFC654" />
  <g transform="matrix(1.1903058,0,0,1.1903058,1.0987728,1.0986775)">
    <path
       d="m 20.5,29.0417 c 0.484,0 0.89,-0.164 1.218,-0.492 0.3269,-0.3269 0.4903,-0.7323 0.4903,-1.2163 0,-0.4841 -0.1634,-0.8901 -0.4903,-1.2181 C 21.39,25.7885 20.984,25.625 20.5,25.625 c -0.4841,0 -0.8895,0.1635 -1.2164,0.4903 -0.328,0.328 -0.492,0.734 -0.492,1.2181 0,0.484 0.164,0.8894 0.492,1.2163 0.3269,0.328 0.7323,0.492 1.2164,0.492 z m -1.7084,-6.8333 h 3.4167 v -10.25 H 18.7916 Z M 20.5,37.5834 c -2.3632,0 -4.5841,-0.4488 -6.6625,-1.3462 C 11.759,35.3409 9.951,34.124 8.4135,32.5865 6.876,31.049 5.6591,29.241 4.76279,27.1625 3.86535,25.0841 3.41663,22.8632 3.41663,20.5 c 0,-2.3632 0.44872,-4.584 1.34616,-6.6625 C 5.6591,11.7591 6.876,9.95106 8.4135,8.41356 9.951,6.87606 11.759,5.65859 13.8375,4.76115 15.9159,3.86484 18.1368,3.41669 20.5,3.41669 c 2.3632,0 4.584,0.44815 6.6625,1.34446 2.0784,0.89744 3.8864,2.11491 5.4239,3.65241 1.5375,1.5375 2.7544,3.34554 3.6507,5.42394 0.8975,2.0785 1.3462,4.2993 1.3462,6.6625 0,2.3632 -0.4487,4.5841 -1.3462,6.6625 -0.8963,2.0785 -2.1132,3.8865 -3.6507,5.424 -1.5375,1.5375 -3.3455,2.7544 -5.4239,3.6507 -2.0785,0.8974 -4.2993,1.3462 -6.6625,1.3462 z m 0,-3.4167 c 3.8152,0 7.0468,-1.324 9.6948,-3.9719 2.6479,-2.6479 3.9718,-5.8795 3.9718,-9.6948 0,-3.8153 -1.3239,-7.0469 -3.9718,-9.6948 C 27.5468,8.15731 24.3152,6.83335 20.5,6.83335 c -3.8153,0 -7.0469,1.32396 -9.6948,3.97185 -2.64795,2.6479 -3.97191,5.8795 -3.97191,9.6948 0,3.8153 1.32396,7.0469 3.97191,9.6948 2.6479,2.6479 5.8795,3.9719 9.6948,3.9719 z"
       fill="#ffffff" />
  </g>
</svg>
